<?xml version="1.0" encoding="utf-8"?>
<!-- Generator: Adobe Illustrator 22.1.0, SVG Export Plug-In . SVG Version: 6.00 Build 0)  -->
<svg version="1.1" id="Capa_1" xmlns="http://www.w3.org/2000/svg" xmlns:xlink="http://www.w3.org/1999/xlink" x="0px" y="0px"
	 viewBox="0 0 297.6 297.6" style="enable-background:new 0 0 297.6 297.6;" xml:space="preserve">
<style type="text/css">
	.st0{fill:none;stroke:#1E1818;stroke-linecap:round;stroke-linejoin:round;stroke-miterlimit:10;}
	.st1{fill:#1E1818;}
	.st2{fill:#FFFFFF;}
	.st3{fill:#F9483B;}
	.st4{fill:#84D2E4;}
	.st5{fill:#D7D9D9;}
	.st6{fill:#F193BE;}
	.st7{fill:#1DBB73;}
	.st8{fill:#CB7EA4;}
	.st9{fill:#1D9A5C;}
	.st10{fill:none;stroke:#9A9797;stroke-linecap:round;stroke-linejoin:round;stroke-miterlimit:10;}
	.st11{fill:none;stroke:#1E1818;stroke-width:0.75;stroke-linecap:round;stroke-linejoin:round;stroke-miterlimit:10;}
	.st12{fill:none;stroke:#1E1818;stroke-miterlimit:10;}
	.st13{fill:none;stroke:#1E1818;stroke-width:0.25;stroke-linecap:round;stroke-linejoin:round;stroke-miterlimit:10;}
	.st14{fill:none;stroke:#1E1818;stroke-width:0.15;stroke-linecap:round;stroke-linejoin:round;stroke-miterlimit:10;}
	.st15{opacity:0.63;fill:#FFFFFF;enable-background:new    ;}
</style>
<g>
	<path class="st0" d="M119,241.1c10.9-0.2,21.8-0.2,32.8-0.4"/>
	<path class="st0" d="M49.6,246.8c16.6-2.2,32.8-0.2,49.2-1.6"/>
	<g>
		<path class="st1" d="M35.5,19.5c0,0,118.1-2.2,134.5,9.1c16.6,11.3,11.7,211.2,11.7,211.2s0,20.4-18.8,20.4
			c-4.7,0-73.2,16-106.2,18.2c-33,2.2-30.7-22.7-33-61.3S14.2,17,35.5,19.5z"/>
		<path class="st2" d="M41.5,25.5c0,0,107.2-2.2,122.2,8.5c15,10.7,10.7,199.4,10.7,199.4s0,19.2-17.2,19.2
			c-4.2,0-66.5,15-96.5,17.2c-29.9,2.2-27.9-21.4-29.9-57.9S22.3,23.3,41.5,25.5z"/>
		<path class="st0" d="M61.2,167.3c0.8-0.4,1.2,0.8,1.4,1.6c0.6,3.8,1.6,7.7,3,11.1c1.4-3.6,2.2-7.3,2.4-11.1c1,3.4,2,7.1,4.5,9.5
			c0.4-3.8,0.8-7.9,1-11.7"/>
		<path class="st0" d="M76.7,166.3c1,4.2,1.2,8.5,0.8,12.7c0.2-2.4,0.4-5.1,1.6-7.3c0.6-1.2,1.8-2.2,3-2s2,1.6,2.2,3
			c0.4,1.8,0.6,3.6,0.4,5.5"/>
		<path class="st0" d="M86.9,170.6c0.2-1.4,2.4-1.8,3.4-1c1.2,0.8,1.6,2.4,1.6,3.8c0.2,1.4,0,2.8,0.6,4.2c-0.2-1-0.4-2.2-1.2-3
			c-0.8-0.8-2-1.2-3-0.6c-0.4,0.4-0.8,0.8-0.8,1.4c-0.2,1.2,0.2,2.6,1.2,3.2c1,0.6,2.6,0.4,3.2-0.6"/>
		<path class="st0" d="M94.7,165.5c0.2,4.7,0.6,9.3,0.8,14.2"/>
		<path class="st0" d="M92.9,171c1.6-0.2,3.2-0.6,4.9-1"/>
		<path class="st0" d="M101.6,169.9c0.6-0.8,1.2-1.4,2.2-1.8c1-0.4,2-0.4,2.6,0.2c0.4,0.4,0.6,1,0.8,1.6c0.6,2.4,0.8,4.9,0.8,7.3
			c0.8-1,0.8-2.6,0-3.6c-0.8-1-2.2-1.4-3.4-1c-2,0.6-2.6,3.6-1,5.1c1.4,1.4,4.5,0.4,4.9-1.6"/>
		<path class="st0" d="M115.4,165.1c-0.2,4.2,0.2,8.7,1.4,12.9c2-1.2,3.6-3.2,4.2-5.5c0.2-0.8,0.4-1.8-0.2-2.4
			c-0.4-0.8-1.6-1.2-2.6-1.2s-2,0.6-2.8,1"/>
		<path class="st0" d="M122.9,168.5c0.4,3.4,0.6,6.9,1,10.5c0.4-1.2,0.2-2.6,0-3.8c-0.2-1.2-0.4-2.6,0.2-3.8c0.4-1.2,1.8-2.2,3-2
			c0.6-0.8,3.2-2,3.8-1.4c0.6,0.6,0.8,1.8,1,2.8c0.4,2.4,0.8,4.9,1.2,7.5"/>
		<path class="st0" d="M132.4,174.4c-0.8-1.4-2.2-2-3.8-1.8c-1.4,0.2-2.6,1.6-2.8,3c0,0.2,0,0.6,0,0.8c0.2,0.2,0.4,0.4,0.6,0.6
			c1,0.6,2.2,1.2,3.4,1.2c1.2,0,2.4-0.4,3.2-1.4"/>
		<path class="st0" d="M135.6,167.9c0,3.2,0.2,6.3,1,9.5c-0.2-2-0.2-3.8,0.2-5.9c0-0.8,0.2-1.6,0.8-2.2c0.8-0.8,2.4-0.6,3.2,0
			c1,0.8,1.4,2,1.6,3.2c0.2,1.2,0.2,2.4,0.4,3.6"/>
		<path class="st0" d="M148.8,169.7c-0.4-1-2-1-2.6-0.2c-0.8,0.8-0.8,1.8-1,2.8c-0.2,1.2-0.2,2.4,0.6,3.4c1,1.2,2.8,1.2,4.2,1.2
			c-0.6-5.5-1.6-11.1-3-16.6"/>
		<path class="st3" d="M114.6,232.2c0-0.6-0.2-1.2-0.8-1.6c-0.4-0.4-1.2-0.4-1.6-0.2c-0.4,0.2-0.6,0.8-0.6,1.4s0.4,1,0.8,1.4
			c0.6,0.6,1.2,1.2,2,1.4c0.2,0,0.4,0.2,0.6,0c0.2,0,0.2-0.2,0.4-0.4c0.4-0.6,0.8-1.2,1-1.8c0.2-0.4,0.4-1,0.4-1.4
			c0-0.6-0.8-1-1.4-1c-0.6,0-1,0.8-1,1.4"/>
		<path class="st4" d="M112.5,240.1c0.8,0,1.4,0,2.2,0c-0.2-0.6-0.2-1.4-0.2-2.2c0.6,0.8,2,0.4,2.4,1.4c0.2,0.4,0,1-0.2,1.4
			c-0.4,1-0.8,2-1.2,3c0,0.2-0.2,0.4-0.4,0.4c0-0.6-0.2-1.2-0.4-1.6c-0.6,0-1,0.2-1.6,0.2c-0.2,0-0.2,0-0.4,0
			c-0.2,0-0.2-0.4-0.4-0.6c0-0.4-0.2-0.6,0-1c0.2-0.4,0.4-0.6,0.8-0.6"/>
		<path class="st0" d="M101,186.9c16.4,0.6,32.4,1.2,49-0.2"/>
		<path class="st0" d="M50.2,187.5c16.2-1,32.4-1.4,48.7-0.8"/>
		<path class="st0" d="M101.6,195.2c16.6-0.2,33.2-0.2,49.8-0.4"/>
		<path class="st0" d="M49.6,196.8c16.6-2.2,32.8-0.2,49.2-1.6"/>
		<path class="st0" d="M101,204.1c16.4,0.6,32.4,1.2,49-0.2"/>
		<path class="st0" d="M50.2,204.9c16.2-1,32.4-1.4,48.7-0.8"/>
		<path class="st0" d="M101.6,212.6c16.6-0.2,33.2-0.2,49.8-0.4"/>
		<path class="st0" d="M119,231.8c10.9-0.2,21.8-0.2,32.8-0.4"/>
		<path class="st0" d="M49.6,214.2c16.6-2.2,32.8-0.2,49.2-1.6"/>
		<path class="st0" d="M50.2,220.3c16.2-1,32.4-1.4,48.7-0.8"/>
		<path class="st0" d="M49.6,229.4c16.6-2.2,32.8-0.2,49.2-1.6"/>
		<path class="st0" d="M50.2,237.5c16.2-1,32.4-1.4,48.7-0.8"/>
		<g>
			<path class="st4" d="M158.9,71.2c-3.2,0.6-7.7,0.8-9.9-2c-2,1.6-5.1,1.8-7.5,1.4c-2.2-0.4-5.1-1.2-6.1-3.6c-1,2.4-3.2,3.2-5.7,2
				c-2.2-1.2-4-3.4-4-6.1c-0.2-2.4,1.8-4.2,3.8-5.3c3.6-1.6,9.9-1.2,12.3,2.2c0-1,0.4-2,1.2-2.8c2.6-2.8,7.1-4,10.9-3.6
				c1.6,0.2,3.4,0.6,4.7,2c0.4,0.4,0.6,0.8,1,1.4c-0.2-8.7-1.2-14.6-3.2-15.6C147.9,37.1,45,28.4,45,39.1c0,0-0.4,5.5-0.8,13.8
				c3.6-2.6,7.9-4.7,12.3-5.1c2.2-0.2,4.5,0.2,6.3,1.2c2,1.2,3.2,3.2,4,5.3c4.5-3.4,11.1-6.7,16.8-4.5c5.5,2.2,6.9,9.5,5.9,14.8
				c-0.8,3.2-3,5.5-5.9,6.7c-2.8,1.4-6.3,2.6-9.3,3c-1.8,0.2-3.4-0.2-5.3-1c-1.6-0.6-4-2-5.9-1c-0.8,0.4-1.4,1.2-2.2,1.6
				c-0.6,0.4-1.4,0.6-2.2,0.6c-1.6,0.2-3-0.2-4.7-0.8c-1.8-0.8-3.6-1-5.7-1c-1.6,0-3.4,0.2-5.1-0.2c-1.4,32-2.4,75.2,1.6,78.1
				c6.5,4.2,100.7,2.2,105.2-2.2c2.8-2.8,8.5-46.9,9.5-77.7C159.3,71.2,159.1,71.2,158.9,71.2z"/>
			<path class="st5" d="M150.6,93.3c-1.8-1.6-4.5-2-6.7-1.2c-1.8-0.8-4.2-1.4-5.9-0.2c-2,1.4-1.8,4.9-3.8,6.3c-1.6,1-3.8,0.4-5.5-1
				c-1.6-1.2-2.8-2.8-4.5-3.8c-1.6-1-4.2-1-5.3,0.6c-0.6,1-0.4,2.4-0.2,3.6c0.6,3.4,1.2,7.1,2.6,10.3c0.6,1.4,1.4,2.6,2,4
				c3,7.3-1.2,16.4-7.9,20.4c-2.2,1.4-4.7,2.2-7.1,2.2c-5.1-0.2-8.9-4.9-9.9-9.9c-0.2-1.4-0.4-2.8-1.2-3.8c-0.6-0.8-1.4-1.2-2.2-1.6
				c-2.4-1.2-5.9-1.6-7.3,0.6c-1.8,2.8,1.6,6.9,0.4,10.1c-1.4,0.4-2.8-0.4-3.6-1.6c-0.8-1.2-1-2.6-1.6-4c-1.8-3.8-6.7-6.3-10.7-5.1
				c-0.8,0.2-1.8,0.6-2.2,1.4c-1.4,2.4,2,5.1,1.4,7.7c-1,1.2-3-0.2-3.2-1.6c-0.2-1.6,0.4-3,0.2-4.7c-0.4-2.4-3-4-5.3-3.2
				c-2.2,0.8-3,4-1.6,5.9c-1.6,0.4-3.4-0.8-4.2-2.2c-0.8-1.6-1-3.4-1.4-5.1c-0.6-2.6-2.2-5.3-4.9-5.7c-2.6-0.6-5.5,2.6-4,4.7
				c-1.4-0.2-3-0.2-4.5,0.6c-1.2,0.8-2,2.4-1.4,3.8c-1-0.8-2.6,0-3.2,1.2c-0.6,1.2-0.4,2.6,0,3.8c0.4,1.8,1.2,3.6,2.2,5.5
				c0.4,0.6,0.8,1.2,1,2c0.6,2-0.2,4.2-0.8,6.3c-1,3.8-0.6,8.5,2.6,10.7c1.6,1.2,3.6,1.6,5.7,1.8c6.9,1.2,13.8,2.2,20.8,1.6
				c3-0.2,6.1-1,9.3-1c5.7,0,11.1,2,16.8,1.8c4.5-0.2,8.5-1.6,12.9-2.4c12.5-2.4,25.7,1.4,38-2c2.6-0.8,5.3-1.8,6.9-4
				c1.6-2.2,1.6-5.7-0.4-7.3c-1-0.8-2.6-1.2-3.2-2.6c-1-2.2,2-5.3,0.6-7.3c-1-1.4-3.6-1.8-3-3.4c0.2-0.6,0.8-1,1.2-1.2
				c1.4-0.8,2.6-1.8,3.4-3.2s0.8-3.2-0.2-4.5c-0.4-0.4-1-0.8-1.2-1.4c-0.6-1.2,0-2.4,0.6-3.6C153,106.6,154.8,96.9,150.6,93.3z"/>
			<path class="st6" d="M56.9,86.8c-1.2-0.8-3-0.4-4,0.8c-1,1-1.2,2.6-1,4c0-0.2-0.2-0.6-0.6-0.6c-0.2,0.4-0.2,1,0.2,1.4
				c-0.2,0.4,0,1,0.4,1c0.2,1.2,0.4,2.6-0.2,3.4c-0.2,0.4-0.8,0.8-1,1.2c-1,1.4-0.8,3.2-0.6,4.9c0,0.2,0,0.2,0.2,0.4
				c0.2,0,0.2,0,0.4,0c3.2-0.2,6.3-0.8,9.5-1.6c0.2,0,0.4,0,0.4-0.2c0.2-0.2,0.2-0.4,0.2-0.6c0.2-1.8-0.2-3.8-1.6-4.9
				c-0.2-0.2-0.6-0.4-0.8-0.6c-0.4-0.4-0.4-1-0.6-1.6c0-0.4,0-0.8,0.2-1.2s0.6-0.4,1-0.8c0.4-0.4-0.2-0.8-0.2-1c0-0.6,0.2-1.2,0-1.8
				C58.3,88.4,57.9,87.4,56.9,86.8z"/>
			<path d="M103.8,74.3c-2-6.1-4-12.3-5.7-18.6c-0.4-1.6-0.8-3.2-2.4-4c-0.8-0.4-1.6-0.4-2.4-0.6c-1.4-0.4-2.4-1.8-3.8-2.4
				c-1.2-0.6-2.6-0.4-4-0.2c-2.2,0.2-4.9,0.6-6.5,2.2c-2.8,2.8-1.2,7.7-2,11.5c-0.4,2.4-2,4.5-1.8,6.9c0,2,1,4-0.2,5.7
				c-0.8,1-2.4,1.6-2,2.8c0.6,0.2,1.2,0.6,1.8,0.8c3-0.4,5.1-2,7.1-4.2c1-1,2-2.4,3.4-2.4c0.6,0,1,0.2,1.6,0.4
				c2,0.6,4.2,0.2,6.1-0.6c0.6-0.2,1-0.6,1.6-0.6c0.4,0,0.8,0.2,1.2,0.2C98.4,71.2,102.2,72,103.8,74.3z"/>
			<path class="st2" d="M93.9,58.1c-0.6,0-2-0.2-2.6-0.8c-0.2,1-2,0.4-2.6,0.2c-1.4-0.6-3-1.6-3.8-3c-0.2,0.2-0.6,0.2-0.8,0.4
				c-3,1.2-2.2,7.5-1.6,9.9c0.6,2.6,2.8,5.3,5.7,5.3c1.8,0,3.4-1,4.7-2.2c0.6-0.6,1.2-1,1.6-1.8c0.2-0.6,0.4-1.4,0.4-2
				c0.2-1.8,0.4-3.8,0.2-5.7C94.5,58.3,94.1,58.1,93.9,58.1z"/>
			<path class="st2" d="M77.6,76.7c-2,0.6-3.4,2.8-3,4.9c0.2,1.2,1,2.2,1.6,3.2c1.6,2,3,4.2,4.7,6.3c0.6-0.6,1.2-1.2,2-1.4
				c-1.2-1.6-2.4-3-3.6-4.7c-0.8-1-1.6-2-1.4-3.2c0.2-0.8-0.2-1.8,0.4-2.4c1.6-1.4,2-1.4,4-2.4c-0.2,0.6,0,3.6,0,4.2
				c0.8-1.6,4.5-6.7,4.2-8.5c-0.2,0-2,0-2.2,0c-1.4,1-3.2,1.8-4.7,2.8c-0.6,0.4-1.4,0.8-2.2,0.8"/>
			<path class="st2" d="M105.7,56.3c1.2-0.4,3.2-3.4,2-2.8l-1.8,0.8c0.8-0.4,2-2.2,0.6-1.6c-1,0.4-1.8,1.2-2.4,2.2
				c0.6-1.6,1.2-3-0.2-2.4c-1.2,0.6-1.8,1.8-1.8,3.2c-0.8,0-3.6,0.4-2,1.4c2.2,0.4,4,1.8,5.3,3.6c0.4,0.6,0.6,1.2,0.4,2
				c-0.2,0.4-0.6,0.8-1,1.2c-3,2.6-6.7,5.3-10.3,6.5c0,1.6-1,6.1,2,8.1c0.6-1.4,1.8-5.9,3.2-6.5c2-0.8,3.8-1.6,5.7-3
				c1.6-1.4,2.8-3.2,3-5.5C108.7,60.7,107.3,58.5,105.7,56.3z"/>
			<path class="st2" d="M85.4,80.5c1,1.8,3.2,3.6,5.7,2.4c2-1.2,3.2-4.2,3.8-6.5c0.6-2,0.4-4.2-0.2-6.3c-1.6,0.4-3,1.2-4.7,1.6
				c-1.8,0.6-3.8,1-5.7,1.8C84.4,75.9,84.2,78.3,85.4,80.5z"/>
			<path class="st3" d="M114.2,78.7c2.8-1.2,5.9-1.8,9.1-2c2.8-0.2,5.9-0.4,8.7,0.4c4,1,7.7,3.8,9.9,7.5c2.2,3.6,3.2,7.9,3.2,12.1
				c-9.7,0.6-19.2,0.8-28.9,0.8c-2.6,0-10.5,1.2-12.1-1.2c-1.6-2.2,0.8-7.3,1.8-9.3C107.7,83.4,110.5,80.3,114.2,78.7z"/>
			<path class="st2" d="M67.8,106.4c-0.2,0.6-0.6,1.4-0.2,2c0.2,0.4,0.8,0.6,1.2,0.6c3.2,0.8,6.5,0.8,9.9,1
				c10.7,0.2,21.4,0.2,31.8-2.2c-0.4-3.8-3-7.1-5.7-10.1c-0.2-0.2-0.4-0.6-0.8-0.6c-0.4-0.2-0.8-0.2-1.2-0.2c-7.3,0-14.8,0-22-0.2
				c-2.2,0-6.5-1-8.3,0.4C70.3,98.7,68.9,103.8,67.8,106.4z"/>
			<path class="st7" d="M88.3,112.7c0-1.6-2.6-2.2-3.4-0.8c0-0.8-0.8-1.6-1.6-1.6s-1.6,1-1.4,1.8c-0.8-0.8-2.2-0.8-3.2-0.2
				c-1,0.6-1.4,1.8-1.2,3c-0.6-0.4-1.4,0.2-1.4,0.8c-0.2,0.6,0.2,1.2,0.6,1.8c-1.2,1-1,3,0.4,3.8c-0.6-0.2-1.2,0.4-1.4,1
				c-0.2,0.6,0.4,1.2,1,1.4c-0.6,0.4-0.4,1.2,0,1.8c0.4,0.6,1,1,1.2,1.6c0.2,0.8,0,1.4-0.2,2.2c-0.2,3.4,4.5,4.9,5.9,7.9
				c0,0.2,0.2,0.4,0.2,0.6c0,0.2-0.4,0.4-0.6,0.6c-3.6,2.4-5.7,6.9-5.3,11.1c0,0.4,0.2,1,0.6,1.2c0.2,0.2,0.6,0.2,0.8,0.2
				c4.2,0,8.5-0.4,12.7-1.2c0.4,0,1-0.2,1.2-0.4c0.6-0.4,0.8-1.2,1-1.8c0.8-3,1.4-6.9-1-8.9c-1.2-1-2.6-1.2-4-1.8
				c-1.2-0.8-2.2-2.4-1.6-3.6c2,0.2,3.6-1.6,4-3.4c0.4-1.8,0-3.8-0.4-5.9c0.2,0.8,2-1.8,2-2.2c0.2-1.6-1.2-2.6-1.6-4
				C91.3,116.5,90.7,109.9,88.3,112.7z"/>
			<path class="st7" d="M149,95.7c0-0.8-1.2-1-1.6-0.4c0-0.4-0.4-0.8-0.8-0.8c-0.4,0-0.8,0.4-0.6,0.8c-0.4-0.4-1-0.4-1.6-0.2
				c-0.4,0.2-0.8,0.8-0.6,1.4c-0.2-0.2-0.6,0-0.8,0.4c0,0.4,0.2,0.6,0.2,1c-0.6,0.4-0.4,1.4,0.2,1.8c-0.2,0-0.6,0.2-0.6,0.4
				c0,0.2,0.2,0.6,0.4,0.6c-0.2,0.2-0.2,0.6,0,0.8c0.2,0.2,0.4,0.4,0.6,0.8c0.2,0.4,0,0.8,0,1c0,1.6,2,2.4,2.8,3.8v0.2
				c0,0.2-0.2,0.2-0.2,0.4c-1.8,1.2-2.8,3.2-2.6,5.5c0,0.2,0,0.4,0.2,0.6c0.2,0,0.2,0,0.4,0c2,0,4-0.2,6.1-0.6c0.2,0,0.4,0,0.6-0.2
				c0.2-0.2,0.4-0.6,0.4-0.8c0.4-1.4,0.6-3.4-0.4-4.2c-0.6-0.4-1.2-0.6-1.8-0.8c-0.6-0.4-1.2-1.2-0.8-1.8c1,0,1.8-0.8,2-1.6
				c0.2-1,0-1.8-0.2-2.8c0,0.4,1-0.8,1-1c0-0.8-0.6-1.2-0.8-2C150.4,97.5,150.2,94.3,149,95.7z"/>
			<path class="st3" d="M78,105.6c0-1.6-2.6-2.2-3.4-0.8c0-0.8-0.8-1.6-1.6-1.6s-1.6,1-1.4,1.8c-0.8-0.8-2.2-0.8-3.2-0.2
				c-1,0.6-1.4,1.8-1.2,3c-0.6-0.4-1.4,0.2-1.4,0.8c0,0.6,0.2,1.2,0.6,1.8c-1.2,1-1,3,0.4,3.8c-0.6-0.2-1.2,0.4-1.4,1
				c-0.2,0.6,0.4,1.2,1,1.4c-0.6,0.4-0.4,1.2,0,1.8c0.4,0.6,1,1,1.2,1.6c0.2,0.8,0,1.4-0.2,2.2c-0.2,3.4,4.5,4.9,5.9,7.9
				c0,0.2,0.2,0.4,0.2,0.6c0,0.2-0.4,0.4-0.6,0.6c-3.6,2.4-5.7,6.9-5.3,11.1c0,0.4,0.2,1,0.6,1.2c0.2,0.2,0.6,0.2,0.8,0.2
				c4.2,0,8.5-0.4,12.7-1.2c0.4,0,1-0.2,1.2-0.4c0.6-0.4,0.8-1.2,1-1.8c0.8-3,1.4-6.9-1-8.9c-1.2-1-2.6-1.2-4-1.8
				c-1.2-0.8-2.2-2.4-1.6-3.6c2,0.2,3.6-1.6,4-3.4s0-3.8-0.4-5.9c0.2,0.8,2-1.8,2-2.2c0.2-1.6-1.2-2.6-1.6-4
				C81,109.5,80.6,102.6,78,105.6z"/>
			<path class="st3" d="M148.8,99.1c-0.6,0.4-1,0.6-1.6,1c0.8,0,1.4,0.8,1.6,1.6s0.2,1.6,0.6,2.4c0.4,0.8,1.4,1.2,2,0.8
				c0.2,0.8,0.4,1.8,0.6,2.6c-1.6,1.4-3.4,3-4.2,5.1c-1,2.2-0.8,4.7-0.4,7.1c0,0.4,0.2,1,0.4,1.4c0.4,0.2,0.8,0.2,1.2,0.2
				c1.8,0,3.6-0.2,5.5-0.4c0.4,0,1-0.2,1.2-0.4c0.4-0.4,0.6-1,0.6-1.4c1.4-7.1,1.6-15,0.2-22.3c-0.4-2.2-1.4-3.8-4-3.6
				c-1.6,0.2-2.8,0.8-3.6,2.2C149,95.9,148.6,99.4,148.8,99.1z"/>
			<path class="st3" d="M43.8,94.9c-0.6,0.4-1,0.6-1.6,1c0.8,0,1.4,0.8,1.6,1.6c0.2,0.8,0.2,1.6,0.6,2.4c0.4,0.8,1.4,1.2,2,0.8
				c0.2,0.8,0.4,1.8,0.6,2.6c-1.6,1.4-3.4,3-4.2,5.1c-1,2.2-0.8,4.7-0.4,7.1c0,0.4,0.2,1,0.4,1.4c0.4,0.2,0.8,0.2,1.2,0.2
				c1.8,0,3.6-0.2,5.5-0.4c0.4,0,1-0.2,1.2-0.4c0.4-0.4,0.6-1,0.6-1.4c1.4-7.1,1.6-15,0.2-22.3c-0.4-2.2-1.4-3.8-4-3.6
				c-1.6,0.2-2.8,0.8-3.6,2.2C43.8,91.7,43.4,95.1,43.8,94.9z"/>
			<path class="st2" d="M142.7,91.5c0.6,0.4,1,0.6,1.6,1c-0.8,0-1.4,0.8-1.6,1.6c-0.2,0.8-0.2,1.6-0.6,2.4c-0.4,0.8-1.4,1.2-2,0.8
				c-0.2,0.8-0.4,1.8-0.6,2.6c1.6,1.4,3.4,3,4.2,5.1c1,2.2,0.8,4.7,0.4,7.1c0,0.4-0.2,1-0.4,1.4c-0.4,0.2-0.8,0.2-1.2,0.2
				c-1.8,0-3.6-0.2-5.5-0.4c-0.4,0-1-0.2-1.2-0.4c-0.4-0.4-0.6-1-0.6-1.4c-1.4-7.1-1.6-15-0.2-22.3c0.4-2.2,1.4-3.8,4-3.6
				c1.6,0.2,2.8,0.8,3.6,2.2C142.7,88.2,143.1,91.7,142.7,91.5z"/>
			<path class="st7" d="M121.9,103.6c3.6-3.6-0.6-9.3,3.6-12.7c1.4-1.2,4.7-2.2,6.7-1.8c1.8,0.4,2.8,2.6,3.2,4.5
				c0.4,1.8,0.6,4,1.8,5.5c1,1.2,2.6,1.6,4.2,2c-1.2,0.8-2.4,1.8-3.8,2.6c-0.2,0.2-0.6,0.4-0.6,0.8c0,0.4,0.4,0.8,0.8,1
				c3.4,2.2,5.5,6.7,4.9,10.7c0,0.4-0.2,1-0.4,1.4c-0.4,0.4-0.8,0.6-1.4,0.8c-2.8,1-5.9,1-8.7,1c-2,0-4,0-6.3,0
				c-0.2,0-0.6,0-0.8-0.2c-0.4-0.2-0.4-0.6-0.6-1c-1.2-4-0.4-8.5,2-11.7c-2,0.8-3.6,2.6-5.3,4.2c-0.6-0.8-0.2-2,0.6-2.4
				c-0.4,0.2-0.8,0.4-1,0.6c0.4-0.6,0.8-1.2,1.2-1.8c-0.4,0-0.8,0.2-1.2,0.2c-0.2-1-0.4-2,0-2.8C120.8,104.4,121.4,104,121.9,103.6z
				"/>
			<path class="st8" d="M84.6,114.9c4.2-2.6,1.6-9.1,6.5-11.5c1.8-0.8,5.1-1.2,6.9-0.2c1.8,0.8,2.2,3.2,2,5.1c0,2-0.4,4,0.6,5.7
				c0.8,1.4,2.2,2.2,3.6,3c-1.4,0.6-2.8,1-4.2,1.6c-0.4,0.2-0.6,0.2-0.8,0.6c-0.2,0.4,0.2,0.8,0.6,1.2c2.8,3,3.8,7.7,2.2,11.5
				c-0.2,0.4-0.4,1-0.8,1.2c-0.4,0.4-1,0.4-1.4,0.4c-3,0.4-5.9-0.4-8.7-1c-2-0.4-4-0.8-6.1-1.4c-0.2,0-0.6-0.2-0.8-0.4
				c-0.2-0.2-0.4-0.6-0.4-1c-0.2-4,1.4-8.3,4.7-11.1c-2.2,0.4-4.2,1.6-6.1,2.8c-0.4-0.8,0.2-2,1-2.2c-0.4,0.2-0.8,0.2-1.2,0.4
				c0.4-0.6,1-1,1.6-1.4c-0.4,0-0.8,0-1.2-0.2c0-1,0-2,0.6-2.6C83.6,115.3,84,115.1,84.6,114.9z"/>
			<path class="st7" d="M47.4,98.1c1.2-2,3.4-3.8,5.7-3.4c1.6,0.2,3,1.6,3.8,3c0.8,1.4,1,3.2,1.4,4.9c0.4,2.4,1,4.7,1.6,7.1
				c0.2,1,0.6,2,1.6,2c0.6,0,1-0.4,1.6-0.4c1,0,1.6,1.2,1.8,2.2c0.2,1,0.6,2,0.8,3c0.2,1,0.4,2.2-0.2,3c-0.4,0.4-1,0.6-1.4,1
				c-0.8,0.6-0.8,1.8-1,2.6c-0.6,2.6-3.4,4.2-6.3,4.2c-2.6,0-5.3-1.4-7.3-3.2c-3.8-3.6-2-7.5-3-11.9C46,107.6,45,102.6,47.4,98.1z"
				/>
			<path class="st6" d="M66.8,126.1c1.2-2,3.4-3.8,5.7-3.4c1.6,0.2,3,1.6,3.8,3c0.8,1.4,1,3.2,1.4,4.9c0.4,2.4,1,4.7,1.6,7.1
				c0.2,1,0.6,2,1.6,2c0.6,0,1-0.4,1.6-0.4c1,0,1.6,1.2,1.8,2.2c0.2,1,0.6,2,0.8,3c0.2,1,0.4,2.2-0.2,3c-0.4,0.4-1,0.6-1.4,1
				c-0.8,0.6-0.8,1.8-1,2.6c-0.6,2.6-3.4,4.2-6.3,4.2c-2.6,0-5.3-1.4-7.3-3.2c-3.8-3.6-2-7.5-3-11.9
				C65.2,135.6,64.2,130.5,66.8,126.1z"/>
			<path class="st9" d="M64.4,87.8c1-0.4,2.2-0.8,3.2-0.6c1.4,0.4,2.4,1.4,3,2.8c0.6,1.2,0.6,2.8,0.8,4c0.2,4.2,0.4,8.9-2.4,12.1
				c-0.8,1-2.2,2.2-1.6,3.4c0.6,1.4,2.8,1.2,4.2,2c1.4,0.8,2,2.4,2.4,3.8c0.8,3.8,0.6,8.7-2.6,10.9c-3,2-7.3,0.8-9.9-1.6
				c-2.8-2.8-4-7.3-3-11.1c0.6-2.2,1.8-4.9,0.8-6.9c-0.4-0.8-1.2-1.4-1.8-2c-2.2-2.6-0.6-6.1,0.4-8.9C58.5,92.3,61,89.2,64.4,87.8z"
				/>
			<path class="st4" d="M118,94.5c0-1.8-0.8-3.8-2.4-4.5c-0.6-0.2-1.4-0.4-2.2-0.2c-1.8,0-4,0.6-5.1,2.2c-0.6,1-0.6,2.2-0.6,3.4
				c-0.2,1.2-0.8,2.4-1.8,2.8c1,0.4,1,1.8,1,2.8c0,1,0.6,2.4,1.6,2.2c-0.2,3.8-4.2,7.1-3.2,10.9c-1.8-0.2-3.4-0.2-5.3-0.4
				c-0.4,0-0.6,0-1-0.2c-0.4-0.2-0.6-0.6-0.8-0.8c-0.4-0.8-0.8-1.6-1.4-2.4c-0.4-0.8-1-1.8-2-1.8s-1.6,1.6-0.6,1.8
				c-0.6-0.4-1.2,0.4-1,1c0.2,0.6,1,0.8,1.4,1.2c1,0.8,1.8,1.8,2.8,2.8c2.8,2.6,7.7,2.6,10.5-0.2c-1.2,2.8-1.8,6.5,0.4,8.5
				c1.2,1.2,3,1.4,4.7,1.4c2.6-0.2,5.3-1.6,6.9-3.6c1.4-1.8,2-3.8,2.4-6.1c0.6-3.8,0-7.7-1.4-11.1c-0.6-1.6-2-2.8-2.6-4.5
				C117.4,98.1,118,96.3,118,94.5z"/>
			<path class="st3" d="M111.5,146.3c0,0.2,0,0.4,0,0.8c3-3.8,0.2-8.7,1.6-12.9c1.2-4.5,2.4-8.9-0.4-13.1
				c-2.2-3.2-10.3-7.5-12.7-2.4c-0.4,0.8-0.2,1.8,0.4,2.2c0.4,0.4,1,0.8,0.8,1.2c-0.2,0.2-0.2,0.2-0.4,0.2c-0.6,0.2-1,1-0.8,1.6
				c0,0.6,0.6,1.2,1.2,1.4c-0.2,1.2-1.8,2-1.6,3.2c0.2,1,1.6,1.2,2.2,2.2c1,1.4-0.8,3.6,0,5.1c0.4,0.6,1.4,0.8,2.2,1"/>
			<path class="st6" d="M139,113.1c-3.2-1.8-7.5-0.8-10.1,1.8c-2.4,2.6-3.2,6.7-2.4,10.3c0-0.8-0.8-1.4-1.4-1.4
				c-0.6,1.2-0.6,2.6,0.4,3.6c-0.6,0.8-0.2,2.2,1,2.4c0.6,3,1,6.5-0.8,8.9c-0.8,1-1.8,1.8-2.6,2.8c-2.6,3.2-2,8.1-1.2,12.3
				c0,0.4,0.2,0.8,0.4,1c0.2,0.2,0.8,0.2,1,0.2c8.1-0.6,16-2,23.9-3.8c0.4,0,0.8-0.2,1-0.6c0.4-0.4,0.4-0.8,0.4-1.2
				c0.6-4.5-0.4-9.7-4.2-12.1c-0.8-0.4-1.4-0.8-2-1.4c-1-1-1.2-2.6-1.4-4c0-1-0.2-2.2,0.4-3c0.6-0.8,1.6-1.2,2.2-1.8
				c1-1.2-0.4-1.8-0.6-2.8c-0.2-1.4,0.4-3,0.2-4.5C142.7,117.4,141.5,114.5,139,113.1z"/>
			<path class="st7" d="M116,119.2c-2.4,1.8-4,4.7-4.2,7.5c0,2,0.4,4,0.6,6.1c0.2,2-0.4,4.2-2,5.5c0.8-0.4,1.8-0.6,2.6-1
				c0.8,0.6,1.2,1.8,1,2.8c-2.2,1-3.6,3.2-4.2,5.7c-0.6,2.4-0.6,4.9-0.6,7.3c0,0.8,0,1.6,0.6,2.2c0.4,0.6,1.4,1,2,0.4
				c0.4-0.4,0.4-1,0.4-1.4c0.2-2.8,1-5.5,2.4-7.9c-0.6,1.8-1,3.6-1,5.7c0,0.8,0,1.8,0.4,2.6c0.6,1.2,2,1.8,3.2,1.8
				c1.2,0,2.6-0.2,3.8-0.6c0.6-0.2,1.2-0.4,1.8-0.8c0.4-0.4,0.6-0.8,0.8-1.2c1-2.4,1.4-5.1,1.2-7.5c0.6,2,1,4.2,1.6,6.3
				c0.2,1,0.6,2.2,1.6,2.4c0.8,0.2,1.8-0.4,2.2-1.2c0.4-0.8,0.4-1.8,0.4-2.8c0-1.8,0-3.6,0-5.3c0-1.8,0-3.8-0.6-5.5
				c-0.6-1.8-1.8-3.4-3.6-4c0.6,0.6,1.4,1,2.2,1.2s1.8-0.4,1.8-1.2c-1.2-0.2-2-1.4-2.2-2.6c-0.2-1.2,0-2.4,0-3.6
				c0.2-3.6,0.2-9.9-3.6-11.7C121.9,116.3,118.4,117.2,116,119.2z"/>
			<path class="st3" d="M66.8,128.9c0.8,1,1.6,2.6,0.4,3.2c1.4,1.2,3,2.8,2.4,4.7c-0.4,0.8-1,1.4-1.4,2c-0.4,0.8-0.2,2,0.6,2
				c1.6,0,2.8-1.2,3.8-2.6c1-1.4,2.2-2.8,2.6-4.7s-0.2-3.8-1.6-4.7c-0.6-0.4-1.2-0.6-1.6-1c-0.4-0.4-0.8-1.2-0.4-1.6
				c0.4-0.2,1,0,1.4,0.2c0.2-1.2,0.8-2.4,1.8-3.4c0.4,0.4,0.6,1.2,0.2,1.8c0.2-0.4,0.6-0.6,1-0.6c0.6,3.2,1.2,6.5,2,9.7
				c0.2,1.2,0.4,2.4,0.2,3.4c-0.4,2.2-2.2,3.8-3.6,5.3c-0.8,0.6-1.4,1.4-1.6,2.4c-0.2,0.6,0,1.4,0.2,2c0.6,3.2,1.4,6.5,2,9.7
				c-3.4,0.4-6.9,0.4-10.1,0c-0.4,0-0.8-0.2-1.2-0.4c-0.4-0.4-0.4-0.8-0.6-1.2c-0.6-2.8-1.2-5.7-1.8-8.5c-2.2,2.4-2.6,6.5-1,9.5
				c-1,0-2,0-3,0c-1.4-2.8-1.4-6.1,0-8.9c1.2-2.2,3.2-4.5,3-7.1c-1.8,0.2-4,0-4.5-1.6c-0.4-1.2,0.6-2.4,0.6-3.6
				c0-2.2-2.6-3.4-4.9-3.8c-0.4,0-0.8-0.2-1-0.4c-0.2-0.4,0-0.8,0.2-1.2c0.8-1.4,1.8-2.6,2.6-4c-1-0.4-2-1.4-2.2-2.4
				c0,0,4.9-2.6,5.3-2.6c1.6-0.4,3.2,0.2,4.5,1.4C63,123.8,64.8,126.7,66.8,128.9z"/>
			<path class="st8" d="M138,133.5c4.2-2.6,1.6-9.1,6.5-11.5c1.8-0.8,5.1-1.2,6.9-0.2c1.8,0.8,2.2,3.2,2,5.1c0,2-0.4,4,0.6,5.7
				c0.8,1.4,2.2,2.2,3.6,3c-1.4,0.6-2.8,1-4.2,1.6c-0.4,0.2-0.6,0.2-0.8,0.6c-0.2,0.4,0.2,0.8,0.6,1.2c2.8,3,3.8,7.7,2.2,11.5
				c-0.2,0.4-0.4,1-0.8,1.2c-0.4,0.4-1,0.4-1.4,0.4c-3,0.4-5.9-0.4-8.7-1c-2-0.4-4-0.8-6.1-1.4c-0.2,0-0.6-0.2-0.8-0.4
				c-0.2-0.2-0.4-0.6-0.4-1c-0.2-4,1.4-8.3,4.7-11.1c-2.2,0.4-4.2,1.6-6.1,2.8c-0.4-0.8,0.2-2,1-2.2c-0.4,0.2-0.8,0.2-1.2,0.4
				c0.4-0.6,1-1,1.6-1.4c-0.4,0-0.8,0-1.2-0.2c0-1,0-2,0.6-2.6C137,133.9,137.6,133.7,138,133.5z"/>
			<path class="st2" d="M88.9,68.4c0,0,2.6,2.8,4.7,2.4c1.8-0.2-4.7,6.1-4.7,6.1l-4.2-4.2c0,0,2.2,0,2.2-4.2
				C86.7,64.2,88.9,68.4,88.9,68.4z"/>
			<path class="st6" d="M97.2,78.1C97.2,77.9,97,77.9,97.2,78.1C97,77.9,97,77.9,97,77.7c-0.6-0.6-1-1.2-1.4-2s-0.4-1.8-0.6-2.8
				c0-0.6-0.2-1.2-0.2-1.8c0-0.4-0.2-0.6-0.2-1c-0.4,0-0.8,0-0.8,0.2c0.2,1.6,0,3.2-0.4,4.7c-0.6,1.8-1.4,4-3.2,4.9
				c-1.4,0.6-2.8-0.6-3.8-1.8c-1-1.6-1.6-3.8-1.6-5.9c-0.6,0-0.6,0.6-1.2,1c0.4,2.4,0.4,5.5-1,7.5c0,1.6,0.4,3.2,1,4.7
				c0.2,0.6,0.6,1.2,0.8,1.8c0.2,0.6,0.2,1.2,0.2,1.8l0.2,7.7c4.2,0,8.1,0.4,12.3,0c-2-2.2-1.6-6.7-0.8-9.5
				C96.8,84.2,98,80.9,97.2,78.1z"/>
			<path d="M86,62.9c0,0.2,0.2,0.2,0.2,0.4c0.2,0,0.4,0.2,0.4,0c0.2,0,0.2-0.2,0.2-0.4c0-0.4,0.2-1.8-0.6-1.6
				C85.6,61.3,85.8,62.5,86,62.9z"/>
			<path d="M89.5,62.7c0,0.2,0.2,0.2,0.2,0.4c0.2,0,0.4,0.2,0.4,0c0.2,0,0.2-0.2,0.2-0.4c0-0.4,0.2-1.8-0.6-1.6
				C89.3,61.1,89.3,62.3,89.5,62.7z"/>
			<path class="st6" d="M87.1,66.6L87.1,66.6c-0.2-0.4,0-0.4,0.2-0.4c0.2,0,0.4,0,0.6,0h0.2c0,0,0.2,0,0.2,0.2
				c0-0.2,0.2-0.2,0.4-0.4c0,0,0.2,0,0.4,0c0.2,0,0.2,0.2,0.2,0.4C88.9,67.2,87.7,67,87.1,66.6z"/>
			<path class="st7" d="M51.9,121.2c0-1.6-2.6-2.2-3.4-0.8c0-0.8-0.8-1.6-1.6-1.6c-0.8,0-1.6,1-1.4,1.8c-0.8-0.8-2.2-0.8-3.2-0.2
				c-1,0.6-1.4,1.8-1.2,3c-0.6-0.4-1.4,0.2-1.4,0.8c0,0.6,0.2,1.2,0.6,1.8c-1.2,1-1,3,0.4,3.8c-0.6-0.2-1.2,0.4-1.4,1
				c-0.2,0.6,0.4,1.2,1,1.4c-0.6,0.4-0.4,1.2,0,1.8c0.4,0.6,1,1,1.2,1.6c0.2,0.8,0,1.4-0.2,2.2c-0.2,3.4,4.5,4.9,5.9,7.9
				c0,0.2,0.2,0.4,0.2,0.6s-0.4,0.4-0.6,0.6c-3.6,2.4-5.7,6.9-5.3,11.1c0,0.4,0.2,1,0.6,1.2c0.2,0.2,0.6,0.2,0.8,0.2
				c4.2,0,8.5-0.4,12.7-1.2c0.4,0,1-0.2,1.2-0.4c0.6-0.4,0.8-1.2,1-1.8c0.8-3,1.4-6.9-1-8.9c-1.2-1-2.6-1.2-4-1.8
				c-1.4-0.6-2.2-2.4-1.6-3.6c2,0.2,3.6-1.6,4-3.4c0.4-1.8,0-3.8-0.4-5.9c0.2,0.8,2-1.8,2-2.2c0.2-1.6-1.2-2.6-1.6-4
				C54.7,125,54.3,118.4,51.9,121.2z"/>
			<path class="st9" d="M86.7,138.6c4.2-2.6,1.6-9.1,6.5-11.5c1.8-0.8,5.1-1.2,6.9-0.2c1.8,0.8,2.2,3.2,2,5.1c0,2-0.4,4,0.6,5.7
				c0.8,1.4,2.2,2.2,3.6,3c-1.4,0.6-2.8,1-4.2,1.6c-0.4,0.2-0.6,0.2-0.8,0.6c-0.2,0.4,0.2,0.8,0.6,1.2c2.8,3,3.8,7.7,2.2,11.5
				c-0.2,0.4-0.4,1-0.8,1.2c-0.4,0.4-1,0.4-1.4,0.4c-3,0.4-5.9-0.4-8.7-1c-2-0.4-4-0.8-6.1-1.4c-0.2,0-0.6-0.2-0.8-0.4
				c-0.2-0.2-0.4-0.6-0.4-1c-0.2-4,1.4-8.3,4.7-11.1c-2.2,0.4-4.2,1.6-6.1,2.8c-0.4-0.8,0.2-2,1-2.2c-0.4,0.2-0.8,0.2-1.2,0.4
				c0.4-0.6,1-1,1.6-1.4c-0.4,0-0.8,0-1.2-0.2c0-1,0-2,0.6-2.6C85.6,139,86.3,138.8,86.7,138.6z"/>
			<path class="st2" d="M84.4,89.2c0.2,0,0.2,0,0.4,0c0.2,0.2,0.2,0.4,0,0.6c0,0.2-0.2,0.2-0.4,0.4c-0.4,0.2-0.6,0.4-1,0.6
				c0.6,0.4,1.2,0.8,1.6,1.6v0.2c0,0,0,0.2-0.2,0.2c-0.4,0.2-0.8,0-1.2-0.2c0,0.2,0,0.4,0,0.6v0.2c0,0.2-0.4,0.2-0.4,0
				C83,93.3,83,93.1,83,93.1c-0.2,0.4,0.2,0.8-0.2,1c-0.2,0.2-0.4,0-0.6,0C82,93.9,82,93.7,82,93.5c0.2,0.2-0.2,0.6-0.4,0.6
				c-0.2,0-0.4-0.2-0.6-0.6c-0.2-0.4,0-0.6-0.2-0.8c-0.2-0.2-0.4-0.6-0.4-0.8c-0.2-0.6,0.2-1.2,0.6-1.6c0.4-0.4,1-0.6,1.6-0.6
				C83.4,89.2,83.8,89,84.4,89.2z"/>
			<path class="st4" d="M79.8,99.1c-0.6,0.4-1.4,0.8-2,1.4c-0.4,0.4-0.8,0.8-0.8,1.4c0,0.4,0,0.6,0.2,1c0.6,1.2,2,1.8,3.4,2
				c1,0.2,2.2,0,3.2-0.2c1-0.2,1.8-1,2.4-1.8c0.4-0.8,0.8-1.8,0.4-2.6c-0.2-0.4-0.8-0.8-1.2-1.2c-0.8-0.6-1.6-1-2.6-0.8
				C81.6,98.3,80.6,98.5,79.8,99.1z"/>
			<path class="st9" d="M81,100.6c-0.2,0.2-0.4,0.6-0.4,0.8c0,0.4,0.2,0.6,0.4,0.8c0.4,0.4,1,0.6,1.6,0.4c1-0.2,2-1.6,1-2.6
				C82.8,99.4,81.4,100,81,100.6z"/>
			<path class="st4" d="M103.6,103c0.2,0.2,0.2,0.6,0.6,0.6c0.4,0,0.6,0,0.8-0.2c0-0.2,0-0.4-0.2-0.6c-0.8-1.2-1.6-2.4-2.4-3.6
				c-0.2-0.2-0.6-0.8-0.8-0.6c-0.2,0.4,0.6,1.6,0.8,2C102.8,101.4,103.2,102.2,103.6,103z"/>
			<path class="st4" d="M98.8,100L98.8,100c-0.2,0.2,0,0.4,0.2,0.4c0.2,0,0.4,0.2,0.6,0.2c0.2,0,0.4,0,0.6-0.2
				C100.6,99.6,99.2,99.4,98.8,100z"/>
			<path class="st4" d="M99.6,101.2L99.6,101.2c-0.2,0.2,0,0.4,0.2,0.4c0.2,0,0.4,0.2,0.6,0.2c0.2,0,0.4,0,0.6-0.2
				C101.4,100.8,100,100.6,99.6,101.2z"/>
			<path class="st4" d="M100.4,102.4C100.4,102.4,100.2,102.4,100.4,102.4c-0.2,0.2,0,0.4,0.2,0.4c0.2,0,0.4,0.2,0.6,0.2
				c0.2,0,0.4,0,0.6-0.2C102.2,102,100.8,101.8,100.4,102.4z"/>
			<path class="st4" d="M101.2,103.6C101,103.6,101,103.6,101.2,103.6c-0.2,0.2,0,0.4,0.2,0.4c0.2,0,0.4,0.2,0.6,0.2
				c0.2,0,0.4,0,0.6-0.2C103,103.2,101.6,103,101.2,103.6z"/>
			<path class="st3" d="M88.1,87.2c-0.6,0.6-0.8,1.6-0.4,2.2c0.4,0.8,1.4,1,2.2,0.6c0.4-0.4,0.6-1,0.8-1.6c0.2-1.2,0.2-2.6-0.2-3.8
				c1.4,0,2.8-1.4,2.8-2.8c-0.8,0.6-2,1-3,1c-0.4,0-0.8,0-1.2,0.2c-0.4,0.4-0.4,0.8-0.2,1.2c0,0.4,0.4,1.6,0.2,2
				C88.9,86.8,88.3,86.8,88.1,87.2z"/>
			<path class="st3" d="M84.4,63.3c0.4,0,1,0,1.2,0.6c0.2,0.4,0.4,0.8,0.2,1.2c-0.2,0.4-0.6,0.6-1,0.8c-0.8,0-1.6-0.8-1.4-1.6
				C83.6,63.8,84,63.3,84.4,63.3z"/>
			<path class="st3" d="M91.5,63.3c0.4,0,1,0,1.2,0.6c0.2,0.4,0.4,0.8,0.2,1.2c-0.2,0.4-0.6,0.6-1,0.8c-0.8,0-1.6-0.8-1.4-1.6
				C90.7,63.8,91.1,63.3,91.5,63.3z"/>
		</g>
	</g>
	<g>
		<g>
			<path class="st1" d="M164.1,85.6c0,0,82.3-2.2,98.9,9.1s10.7,143.2,10.7,143.2s0,20.4-18.8,20.4c-4.7,0-35.4-1.4-68.6,0.8
				c-33,2.2-32.8,6.9-35.2-31.8C149,189,142.9,83.4,164.1,85.6z"/>
			<path class="st2" d="M170.4,91.9c0,0,71.6-2.2,86.6,8.5c15,10.7,9.7,131.7,9.7,131.7s0,19.2-17.2,19.2c-4.2,0-28.7-2.2-58.9-0.2
				c-30.1,2-29.9,8.1-32.2-28.3C156.2,186.3,151,89.6,170.4,91.9z"/>
			<path class="st0" d="M166.4,229.2c28.7,0.6,56.6,1.2,85.6-0.2"/>
			<path class="st10" d="M166.4,237.3c28.7,0.6,56.6,1.2,85.6-0.2"/>
			<path class="st10" d="M166.4,243.4c28.7,0.6,56.6,1.2,85.6-0.2"/>
			<g>
				<path class="st4" d="M253.7,152.3c-1.4,0.4-3,0.6-4.2,0c-1.4-0.8-2.2-2.2-2.6-3.6c-3.6,3.6-10.3,3.4-12.5-1.4
					c-1.6,1-4,1.2-5.9,0.2c-1.6-0.8-2-2.6-1.4-4c0.6-1.6,2.2-2.4,3.6-2.6c2.8-0.6,7.1,0,9.1,2.4c1.2-6.3,9.7-3.4,14.4,0
					c0.2-9.7-0.6-16.8-2.4-17.6c-6.5-3.2-83.9-9.7-83.9-1.6c0,0-0.4,5.7-0.8,14.4c3.4-2.4,7.9-3.4,10.1,0.2c1.8-2.2,4.5-3.8,7.1-4.7
					c4.7-1.4,9.7-0.6,14.2,1.6c1.6,0.8,3.6,2,4.5,3.8c0.8,1.6-0.2,3-1.4,3.8c1.8,2.4,2.4,5.5,0.2,7.9c-1.8,2.2-5.1,3.2-7.7,3
					c-1.4,0-2.8-0.4-4.2-1.2c-0.4-0.2-0.6-0.4-1-0.6c-0.2-0.2-0.8-0.8-1-0.8c-0.4,0-1.2,0.6-1.6,0.8c-0.4,0.2-0.8,0.4-1.2,0.6
					c-1.6,0.6-3.4,0.6-5.1,0c-1-0.4-1.8-1-2.6-1.8c-0.2-0.2-1-1.2-1.4-1.2c-0.4,0-1,0.8-1.4,1c-1.8,1.2-3.6,2.4-5.9,2.6
					c-0.8,0-1.6,0-2.4-0.2c-1,23.5-1.4,52.8,1.4,54.8c4.9,3.2,75.9,1.6,79.1-1.6C248.9,203.9,252.7,175,253.7,152.3L253.7,152.3z"/>
				<path class="st5" d="M247.5,164.1c-1.4-1.2-3.2-1.6-5.1-0.8c-1.4-0.6-3.2-1-4.5-0.2c-1.6,1-1.4,3.6-3,4.7c-1.2,0.8-3,0.2-4-0.6
					c-1.2-1-2-2.2-3.4-2.8c-1.2-0.8-3.2-0.8-4,0.6c-0.4,0.8-0.4,1.8-0.2,2.6c0.4,2.6,0.8,5.3,2,7.7c0.4,1,1,2,1.4,3
					c2.2,5.5-0.8,12.3-6.1,15.4c-1.6,1-3.4,1.6-5.5,1.6c-3.8-0.2-6.7-3.6-7.5-7.5c-0.2-1-0.2-2-0.8-2.8c-0.4-0.6-1-1-1.6-1.2
					c-1.8-0.8-4.2-1.2-5.5,0.4c-1.4,2.2,1.2,5.1,0.4,7.5c-1,0.4-2.2-0.4-2.8-1.2c-0.6-1-0.8-2-1.2-3c-1.4-3-5.1-4.7-8.1-3.8
					c-0.6,0.2-1.4,0.4-1.8,1c-1,1.8,1.6,3.8,1,5.9c-0.8,1-2.2,0-2.4-1.2c-0.2-1.2,0.4-2.4,0.2-3.4c-0.2-1.8-2.4-3-4-2.4
					c-1.6,0.6-2.2,3-1.2,4.5c-1.2,0.4-2.6-0.6-3.2-1.8c-0.6-1.2-0.8-2.4-1-3.8c-0.4-2-1.6-3.8-3.6-4.2c-2-0.4-4,1.8-3,3.6
					c-1.2-0.2-2.2-0.2-3.2,0.4s-1.6,1.8-1,2.8c-0.8-0.6-2,0-2.4,0.8c-0.4,0.8-0.2,2,0,2.8c0.4,1.4,1,2.8,1.6,4
					c0.2,0.4,0.6,1,0.8,1.4c0.4,1.6-0.2,3.2-0.6,4.7c-0.8,2.8-0.4,6.3,1.8,8.1c1.2,0.8,2.8,1.2,4.2,1.4c5.3,0.8,10.3,1.6,15.6,1.2
					c2.2-0.2,4.7-0.8,6.9-0.8c4.2,0,8.3,1.4,12.5,1.2c3.2-0.2,6.5-1.2,9.7-1.8c9.5-1.8,19.4,1,28.5-1.4c2-0.6,4-1.4,5.3-3
					c1.2-1.6,1.2-4.2-0.2-5.5c-0.8-0.6-2-1-2.4-2c-0.8-1.8,1.6-4,0.4-5.5c-0.8-1-2.6-1.4-2.4-2.6c0.2-0.4,0.6-0.6,1-1
					c1-0.6,2-1.4,2.6-2.4c0.6-1,0.6-2.4,0-3.4c-0.2-0.4-0.8-0.6-1-1c-0.4-0.8,0-1.8,0.4-2.8C249.3,174.2,250.5,166.9,247.5,164.1z"
					/>
				<path class="st6" d="M176.7,159.2c-1-0.6-2.2-0.2-3,0.6s-1,2-0.8,3c0-0.2-0.2-0.4-0.4-0.4c-0.2,0.4-0.2,0.8,0.2,1
					c-0.2,0.2,0,0.6,0.2,0.8c0.2,0.8,0.2,1.8-0.2,2.6c-0.2,0.4-0.6,0.6-0.8,0.8c-0.8,1-0.6,2.4-0.4,3.6c0,0.2,0,0.2,0.2,0.2
					c0,0,0.2,0,0.4,0c2.4-0.2,4.9-0.6,7.1-1.2c0.2,0,0.2,0,0.4-0.2c0,0,0.2-0.2,0.2-0.4c0.2-1.4-0.2-2.8-1.2-3.6
					c-0.2-0.2-0.4-0.2-0.6-0.4c-0.4-0.4-0.4-0.8-0.4-1.2c0-0.4,0-0.6,0.2-0.8c0.2-0.2,0.4-0.4,0.6-0.6c0.2-0.4-0.2-0.6-0.2-0.8
					c0-0.4,0.2-0.8,0-1.4C177.9,160.4,177.5,159.6,176.7,159.2z"/>
				<path d="M212.1,149.7c-1.6-4.5-3-9.3-4.2-14c-0.2-1.2-0.6-2.4-1.8-3c-0.6-0.2-1.2-0.2-1.8-0.4c-1-0.4-1.8-1.4-3-1.8
					c-1-0.4-2-0.4-3-0.2c-1.8,0.2-3.6,0.4-4.9,1.6c-2,2.2-0.8,5.7-1.4,8.7c-0.4,1.8-1.4,3.4-1.4,5.3c0,1.4,0.8,3-0.2,4.2
					c-0.6,0.8-1.8,1.2-1.6,2c0.4,0.2,1,0.4,1.4,0.6c2.2-0.2,3.8-1.6,5.3-3.2c0.8-0.8,1.4-1.8,2.4-1.8c0.4,0,0.8,0.2,1.2,0.2
					c1.4,0.4,3.2,0.2,4.7-0.4c0.4-0.2,0.8-0.4,1.2-0.4c0.2,0,0.6,0.2,0.8,0.2C208,147.5,210.9,148.1,212.1,149.7z"/>
				<path class="st2" d="M204.6,137.6c-0.6,0-1.4-0.2-2-0.6c-0.2,0.8-1.6,0.4-2,0c-1.2-0.4-2.2-1.2-2.8-2.2
					c-0.2,0.2-0.4,0.2-0.6,0.2c-2.2,0.8-1.6,5.7-1.2,7.5c0.4,2,2.2,4,4.2,4c1.4,0,2.6-0.8,3.6-1.6c0.4-0.4,0.8-0.8,1.2-1.4
					c0.2-0.4,0.2-1,0.4-1.6c0.2-1.4,0.2-2.8,0.2-4.2C205.2,137.8,204.8,137.6,204.6,137.6z"/>
				<path class="st2" d="M192.4,151.5c-1.4,0.4-2.6,2-2.2,3.6c0.2,0.8,0.8,1.6,1.2,2.4c1.2,1.6,2.2,3.2,3.4,4.7c0.4-0.4,1-0.8,1.6-1
					c-1-1.2-1.8-2.2-2.8-3.4c-0.6-0.8-1.2-1.6-1-2.4c0.2-0.6-0.2-1.4,0.4-1.8c1.2-1,1.6-1.2,3-1.8c-0.2,0.6,0,2.6,0,3.2
					c0.6-1.2,3.4-5.1,3.2-6.5c-0.2,0-1.4,0-1.6,0c-1.2,0.8-2.4,1.4-3.6,2.2C193.5,151.1,193.1,151.5,192.4,151.5"/>
				<path class="st2" d="M213.5,136.2c0.8-0.4,2.4-2.6,1.4-2.2l-1.4,0.6c0.6-0.4,1.4-1.6,0.6-1.2c-0.8,0.4-1.4,1-1.8,1.6
					c0.6-1.2,1-2.2-0.2-1.8c-0.8,0.4-1.4,1.4-1.2,2.4c-0.6,0-2.6,0.2-1.4,1c1.6,0.2,3,1.4,3.8,2.8c0.2,0.4,0.4,1,0.2,1.4
					c-0.2,0.4-0.4,0.6-0.6,0.8c-2.2,2-5.1,3.8-7.7,4.9c0,1.2-0.8,4.7,1.6,6.1c0.4-1,1.4-4.5,2.4-4.9c1.4-0.6,3-1.2,4.2-2.2
					c1.2-1,2.2-2.4,2.2-4C215.7,139.6,214.7,137.8,213.5,136.2z"/>
				<path class="st2" d="M198.3,154.6c0.8,1.4,2.4,2.8,4.2,1.8c1.6-1,2.4-3.2,2.8-4.9c0.4-1.6,0.4-3.2-0.2-4.9
					c-1.2,0.4-2.2,0.8-3.4,1.2c-1.4,0.4-2.8,0.8-4.2,1.2C197.5,151.1,197.3,153,198.3,154.6z"/>
				<path class="st3" d="M220,153.2c2.2-1,4.5-1.4,6.9-1.6c2.2-0.2,4.5-0.2,6.5,0.2c3,0.8,5.7,2.8,7.5,5.7c1.6,2.6,2.4,5.9,2.4,9.1
					c-7.3,0.4-14.6,0.6-21.8,0.6c-2,0-7.9,0.8-9.1-0.8c-1.2-1.6,0.6-5.5,1.4-7.1C214.9,156.6,217.1,154.4,220,153.2z"/>
				<path class="st2" d="M185,174c-0.2,0.4-0.4,1-0.2,1.4c0.2,0.2,0.6,0.4,0.8,0.4c2.4,0.6,4.9,0.6,7.5,0.8
					c8.1,0.2,16.2,0.2,24.1-1.8c-0.4-2.8-2.4-5.3-4.2-7.5c-0.2-0.2-0.4-0.4-0.6-0.6c-0.2-0.2-0.6-0.2-1-0.2c-5.5,0-11.1,0-16.6,0
					c-1.6,0-4.9-0.8-6.3,0.4C186.8,168.3,185.8,172.2,185,174z"/>
				<path class="st7" d="M200.3,178.6c0-1.2-2-1.6-2.6-0.6c0-0.6-0.6-1.2-1.2-1.2c-0.6,0-1.2,0.8-1,1.4c-0.6-0.6-1.6-0.6-2.4-0.2
					c-0.8,0.4-1.2,1.4-1,2.2c-0.4-0.4-1,0.2-1,0.6c0,0.4,0.2,1,0.4,1.4c-0.8,0.8-0.8,2.4,0.2,2.8c-0.4,0-1,0.2-1,0.6
					c0,0.4,0.2,1,0.8,1c-0.4,0.2-0.2,1,0,1.2c0.2,0.4,0.6,0.8,0.8,1.2c0.2,0.6,0,1.2,0,1.6c-0.2,2.6,3.2,3.6,4.5,5.9
					c0,0.2,0.2,0.2,0,0.4c0,0.2-0.2,0.4-0.4,0.4c-2.8,1.8-4.2,5.3-4,8.5c0,0.4,0.2,0.8,0.4,1c0.2,0.2,0.4,0.2,0.6,0
					c3.2,0,6.5-0.4,9.5-0.8c0.4,0,0.6-0.2,1-0.4c0.4-0.2,0.6-0.8,0.8-1.4c0.6-2.2,1-5.3-0.8-6.7c-0.8-0.6-2-0.8-3-1.4
					c-1-0.6-1.8-1.8-1.2-2.6c1.4,0.2,2.8-1.2,3-2.6c0.4-1.4,0-2.8-0.4-4.5c0.2,0.6,1.6-1.4,1.6-1.6c0.2-1.2-0.8-2-1.2-3
					C202.6,181.7,202.2,176.6,200.3,178.6z"/>
				<path class="st7" d="M246.1,166.1c0-0.6-1-0.8-1.2-0.4c0-0.4-0.2-0.6-0.6-0.6c-0.4,0-0.6,0.4-0.6,0.6c-0.4-0.2-0.8-0.4-1.2,0
					c-0.4,0.2-0.6,0.6-0.4,1c-0.2-0.2-0.4,0-0.6,0.2c0,0.2,0,0.4,0.2,0.6c-0.4,0.4-0.4,1.2,0.2,1.4c-0.2,0-0.4,0.2-0.4,0.4
					c0,0.2,0.2,0.4,0.4,0.4c-0.2,0.2-0.2,0.4,0,0.6c0.2,0.2,0.4,0.4,0.4,0.6c0,0.2,0,0.6,0,0.8c0,1.2,1.6,1.8,2,2.8v0.2
					c0,0.2-0.2,0.2-0.2,0.2c-1.4,0.8-2,2.4-1.8,4c0,0.2,0,0.4,0.2,0.4h0.2c1.6,0,3-0.2,4.7-0.4c0.2,0,0.4,0,0.4-0.2
					c0.2-0.2,0.2-0.4,0.4-0.6c0.4-1.2,0.6-2.4-0.4-3.2c-0.4-0.4-1-0.4-1.4-0.6c-0.4-0.2-0.8-0.8-0.6-1.2c0.6,0,1.4-0.6,1.4-1.2
					c0-0.6,0-1.4-0.2-2c0,0.2,0.8-0.6,0.8-0.8c0-0.6-0.4-1-0.6-1.4C247.3,167.3,247.1,164.9,246.1,166.1z"/>
				<path class="st3" d="M192.6,173.4c0-1.2-2-1.6-2.6-0.6c0-0.6-0.6-1.2-1.2-1.2s-1.2,0.8-1,1.4c-0.6-0.6-1.6-0.6-2.4-0.2
					c-0.8,0.4-1.2,1.4-1,2.2c-0.4-0.4-1,0.2-1,0.6c0,0.4,0.2,1,0.4,1.4c-0.8,0.8-0.8,2.4,0.2,2.8c-0.4,0-1,0.2-1,0.6
					c0,0.4,0.2,1,0.8,1c-0.4,0.2-0.2,1,0,1.2c0.2,0.4,0.6,0.8,0.8,1.2c0.2,0.6,0,1.2,0,1.6c-0.2,2.6,3.2,3.6,4.5,5.9
					c0,0.2,0.2,0.2,0,0.4c0,0.2-0.2,0.4-0.4,0.4c-2.8,1.8-4.2,5.3-4,8.5c0,0.4,0.2,0.8,0.4,1c0.2,0.2,0.4,0.2,0.6,0
					c3.2,0,6.5-0.4,9.5-0.8c0.4,0,0.6-0.2,1-0.4c0.4-0.2,0.6-0.8,0.8-1.4c0.6-2.2,1-5.3-0.8-6.7c-0.8-0.6-2-0.8-3-1.4
					s-1.8-1.8-1.2-2.6c1.4,0.2,2.8-1.2,3-2.6c0.4-1.4,0-2.8-0.4-4.5c0.2,0.6,1.6-1.4,1.6-1.6c0.2-1.2-0.8-2-1.2-3
					C194.9,176.2,194.5,171.2,192.6,173.4z"/>
				<path class="st3" d="M246.1,168.5c-0.4,0.2-0.8,0.4-1.2,0.6c0.6,0,1,0.6,1.2,1.2c0.2,0.6,0.2,1.2,0.4,1.8c0.2,0.6,1,1,1.6,0.6
					c0.2,0.6,0.2,1.4,0.4,2c-1.2,1.2-2.4,2.2-3.2,3.8c-0.6,1.6-0.6,3.6-0.4,5.5c0,0.4,0,0.8,0.4,1c0.2,0.2,0.6,0.2,1,0.2
					c1.4,0,2.8-0.2,4.2-0.2c0.4,0,0.6-0.2,1-0.4c0.4-0.2,0.4-0.8,0.6-1.2c1-5.5,1.2-11.3,0.2-16.8c-0.4-1.8-1-3-3-2.8
					c-1.2,0-2.2,0.6-2.6,1.6C246.1,166.1,245.8,168.7,246.1,168.5z"/>
				<path class="st3" d="M166.8,165.3c-0.4,0.2-0.8,0.4-1.2,0.6c0.6,0,1,0.6,1.2,1.2c0.2,0.6,0.2,1.2,0.4,1.8c0.2,0.6,1,1,1.6,0.6
					c0.2,0.6,0.2,1.4,0.4,2c-1.2,1.2-2.4,2.2-3.2,3.8c-0.6,1.6-0.6,3.6-0.4,5.5c0,0.4,0,0.8,0.4,1c0.2,0.2,0.6,0.2,1,0.2
					c1.4,0,2.8-0.2,4.2-0.2c0.4,0,0.6-0.2,1-0.4c0.4-0.2,0.4-0.8,0.6-1.2c1-5.5,1.2-11.3,0.2-16.8c-0.4-1.8-1-3-3-2.8
					c-1.2,0-2.2,0.6-2.6,1.6C167,162.9,166.6,165.5,166.8,165.3z"/>
				<path class="st2" d="M243.4,166.9c0.4,0.2,0.8,0.4,1.2,0.6c-0.6,0-1,0.6-1.2,1.2c-0.2,0.6-0.2,1.2-0.4,1.8c-0.2,0.6-1,1-1.6,0.6
					c-0.2,0.6-0.2,1.4-0.4,2c1.2,1.2,2.4,2.2,3.2,3.8c0.6,1.6,0.6,3.6,0.4,5.5c0,0.4,0,0.8-0.4,1c-0.2,0.2-0.6,0.2-1,0.2
					c-1.4,0-2.8-0.2-4.2-0.2c-0.4,0-0.6-0.2-1-0.4c-0.4-0.2-0.4-0.8-0.6-1.2c-1-5.5-1.2-11.3-0.2-16.8c0.4-1.8,1-3,3-2.8
					c1.2,0,2.2,0.6,2.6,1.6C243.2,164.5,243.6,167.1,243.4,166.9z"/>
				<path class="st7" d="M225.6,172c2.6-2.6-0.4-6.9,2.6-9.7c1.2-1,3.6-1.8,5.1-1.4c1.4,0.4,2,2,2.4,3.4c0.2,1.4,0.4,3,1.4,4
					c0.8,0.8,2,1.2,3.2,1.6c-1,0.6-1.8,1.2-2.8,2c-0.2,0.2-0.4,0.4-0.4,0.6c0,0.4,0.4,0.6,0.6,0.8c2.6,1.6,4,5.1,3.6,8.1
					c0,0.4-0.2,0.8-0.4,1c-0.2,0.4-0.6,0.4-1,0.6c-2,0.8-4.5,0.8-6.7,0.8c-1.6,0-3,0-4.7,0c-0.2,0-0.4,0-0.6,0
					c-0.2-0.2-0.4-0.4-0.4-0.6c-0.8-3-0.4-6.3,1.4-8.9c-1.6,0.6-2.8,2-4,3.2c-0.4-0.6-0.2-1.4,0.4-1.8c-0.2,0.2-0.6,0.4-0.8,0.4
					c0.2-0.4,0.6-1,1-1.2c-0.4,0-0.6,0-1,0.2c-0.2-0.6-0.4-1.4,0-2C225,172.4,225.4,172.2,225.6,172z"/>
				<path class="st8" d="M197.7,180.5c3.2-2,1.2-6.9,4.9-8.7c1.2-0.6,3.8-0.8,5.3-0.2c1.2,0.6,1.6,2.4,1.6,3.8c0,1.4-0.2,3,0.4,4.2
					c0.6,1,1.6,1.6,2.8,2.2c-1,0.4-2.2,0.8-3.2,1.2c-0.2,0-0.6,0.2-0.6,0.4c-0.2,0.4,0.2,0.6,0.4,0.8c2.2,2.2,2.8,5.9,1.6,8.7
					c-0.2,0.4-0.4,0.6-0.6,1c-0.4,0.2-0.8,0.4-1.2,0.4c-2.2,0.2-4.5-0.2-6.7-0.8c-1.4-0.4-3-0.6-4.5-1c-0.2,0-0.4,0-0.6-0.2
					c-0.2-0.2-0.2-0.4-0.2-0.8c-0.2-3,1.2-6.3,3.4-8.3c-1.6,0.2-3.2,1.2-4.7,2.2c-0.2-0.6,0.2-1.4,0.8-1.6c-0.2,0-0.6,0.2-0.8,0.2
					c0.4-0.4,0.8-0.8,1.2-1c-0.4,0-0.6,0-1,0c0-0.8,0-1.6,0.4-2C196.9,180.9,197.3,180.7,197.7,180.5z"/>
				<path class="st7" d="M169.6,167.7c0.8-1.6,2.6-2.8,4.2-2.6c1.2,0.2,2.2,1.2,2.8,2.4c0.6,1.2,0.8,2.4,1,3.6
					c0.4,1.8,0.8,3.6,1.2,5.3c0.2,0.6,0.6,1.6,1.2,1.6c0.4,0,0.8-0.2,1.2-0.2c0.8,0,1.2,1,1.4,1.6c0.2,0.8,0.4,1.6,0.6,2.2
					c0.2,0.8,0.4,1.6-0.2,2.2c-0.2,0.4-0.8,0.4-1,0.8c-0.6,0.6-0.6,1.4-0.8,2c-0.6,2-2.6,3.2-4.7,3.2c-2,0-4-1-5.5-2.4
					c-2.8-2.6-1.4-5.7-2.2-9.1C168.4,175,167.8,171.2,169.6,167.7z"/>
				<path class="st6" d="M184.2,188.8c0.8-1.6,2.6-2.8,4.2-2.6c1.2,0.2,2.2,1.2,2.8,2.4c0.6,1.2,0.8,2.4,1,3.6
					c0.4,1.8,0.8,3.6,1.2,5.3c0.2,0.6,0.6,1.6,1.2,1.6c0.4,0,0.8-0.2,1.2-0.2c0.8,0,1.2,1,1.4,1.6c0.2,0.8,0.4,1.6,0.6,2.2
					c0.2,0.8,0.4,1.6-0.2,2.2c-0.2,0.4-0.8,0.4-1,0.8c-0.6,0.6-0.6,1.4-0.8,2c-0.6,2-2.6,3.2-4.7,3.2s-4-1-5.5-2.4
					c-2.8-2.6-1.4-5.7-2.2-9.1C182.9,196,182.3,192.2,184.2,188.8z"/>
				<path class="st9" d="M182.3,160c0.8-0.4,1.6-0.6,2.4-0.4c1,0.2,1.8,1.2,2.2,2c0.4,1,0.4,2,0.6,3c0.2,3.2,0.2,6.7-1.8,9.1
					c-0.6,0.8-1.6,1.6-1.2,2.6c0.4,1.2,2,1,3.2,1.4c1,0.6,1.4,1.8,1.8,2.8c0.6,2.8,0.4,6.5-2,8.3c-2.2,1.4-5.5,0.6-7.5-1.2
					c-2.2-2.2-3-5.5-2.2-8.3c0.4-1.8,1.4-3.6,0.6-5.3c-0.4-0.6-1-1-1.4-1.6c-1.6-2-0.4-4.7,0.2-6.7C178.1,163.3,179.9,161,182.3,160
					z"/>
				<path class="st4" d="M222.8,165.1c0-1.4-0.6-2.8-1.8-3.4c-0.6-0.2-1-0.2-1.6-0.2c-1.4,0-3,0.4-3.8,1.6c-0.4,0.8-0.4,1.6-0.6,2.6
					c-0.2,1-0.6,1.8-1.4,2c0.8,0.4,0.6,1.4,0.6,2.2c0,0.8,0.4,1.8,1.2,1.8c-0.2,2.8-3.2,5.5-2.4,8.1c-1.4,0-2.6-0.2-4-0.2
					c-0.2,0-0.4,0-0.6-0.2s-0.4-0.4-0.6-0.6c-0.4-0.6-0.6-1.2-1-1.8c-0.4-0.6-0.8-1.2-1.4-1.4c-0.6-0.2-1.2,1.2-0.4,1.4
					c-0.4-0.2-0.8,0.4-0.6,0.8c0.2,0.4,0.6,0.6,1,1c0.8,0.6,1.4,1.4,2,2c2,2,5.9,2,7.9-0.2c-1,2-1.4,4.9,0.2,6.5
					c1,0.8,2.2,1.2,3.4,1c2-0.2,3.8-1.2,5.1-2.8c1-1.4,1.6-3,1.8-4.7c0.4-2.8,0-5.9-1-8.5c-0.4-1.2-1.4-2.2-2-3.4
					C222.4,167.7,222.8,166.3,222.8,165.1z"/>
				<path class="st3" d="M217.9,204.1c0,0.2,0,0.4,0,0.6c2.2-3,0.2-6.5,1.2-9.7c1-3.2,1.8-6.7-0.4-9.9c-1.6-2.4-7.9-5.7-9.5-1.8
					c-0.2,0.6-0.2,1.2,0.2,1.8c0.2,0.2,0.8,0.6,0.6,1c0,0.2-0.2,0.2-0.4,0.2c-0.4,0.2-0.8,0.8-0.6,1.2c0.2,0.4,0.4,1,1,1
					c-0.2,0.8-1.4,1.4-1.2,2.4c0.2,0.8,1.2,1,1.6,1.6c0.8,1-0.6,2.6,0,3.8c0.4,0.6,1,0.6,1.6,0.8"/>
				<path class="st6" d="M238.6,179c-2.4-1.4-5.7-0.6-7.7,1.4c-2,2-2.4,5.1-1.8,7.9c0-0.6-0.6-1-1-1c-0.6,0.8-0.4,2,0.2,2.8
					c-0.6,0.6-0.2,1.8,0.6,1.8c0.4,2.2,0.8,4.9-0.6,6.7c-0.6,0.8-1.4,1.4-2,2.2c-2,2.4-1.6,6.1-1,9.3c0,0.2,0.2,0.6,0.4,0.8
					c0.2,0.2,0.6,0.2,0.8,0.2c6.1-0.4,12.1-1.4,18-3c0.2,0,0.6-0.2,0.8-0.4c0.2-0.2,0.4-0.6,0.4-1c0.4-3.4-0.4-7.3-3.2-9.1
					c-0.6-0.4-1.2-0.6-1.6-1c-0.8-0.8-1-2-1-3c0-0.8-0.2-1.6,0.4-2.2c0.4-0.6,1.2-0.8,1.8-1.4c0.8-0.8-0.4-1.4-0.4-2
					c-0.2-1,0.2-2.2,0.2-3.2C241.4,182.3,240.4,180.1,238.6,179z"/>
				<path class="st7" d="M221.2,183.5c-1.8,1.4-3,3.4-3.2,5.7c0,1.6,0.4,3,0.4,4.7s-0.2,3.2-1.4,4.2c0.6-0.2,1.4-0.4,2-0.8
					c0.6,0.6,0.8,1.2,0.8,2c-1.6,0.8-2.8,2.4-3.2,4.2c-0.4,1.8-0.4,3.6-0.4,5.5c0,0.6,0,1.2,0.4,1.6c0.4,0.4,1,0.8,1.6,0.4
					c0.2-0.2,0.4-0.8,0.4-1c0.2-2,0.8-4,1.8-5.9c-0.4,1.4-0.8,2.8-0.8,4.2c0,0.6,0,1.4,0.4,2c0.4,0.8,1.4,1.4,2.4,1.4s2-0.2,2.8-0.4
					c0.4-0.2,1-0.2,1.4-0.6c0.2-0.2,0.4-0.6,0.6-0.8c0.8-1.8,1-3.8,0.8-5.7c0.4,1.6,0.8,3.2,1.2,4.9c0.2,0.8,0.4,1.6,1.2,1.8
					c0.6,0.2,1.4-0.2,1.8-1c0.4-0.6,0.4-1.4,0.2-2c0-1.4,0-2.6,0-4c0-1.4,0-2.8-0.4-4.2c-0.4-1.4-1.4-2.6-2.6-3
					c0.4,0.4,1,0.8,1.6,0.8c0.6,0,1.4-0.2,1.4-1c-0.8-0.2-1.6-1-1.6-1.8s0-1.8,0-2.6c0.2-2.6,0.2-7.5-2.6-8.9
					C225.6,181.5,223.2,182.1,221.2,183.5z"/>
				<path class="st3" d="M184.2,191c0.6,0.8,1.2,2,0.4,2.4c1.2,0.8,2.4,2.2,1.8,3.4c-0.2,0.6-0.8,1-1,1.6c-0.2,0.6-0.2,1.4,0.6,1.6
					c1.2,0,2.2-1,2.8-2c0.8-1,1.6-2.2,1.8-3.4c0.2-1.2,0-2.8-1.2-3.6c-0.4-0.2-0.8-0.4-1.2-0.6c-0.4-0.4-0.6-0.8-0.2-1.2
					c0.4-0.2,0.8,0,1,0.2c0.2-1,0.6-1.8,1.4-2.6c0.4,0.4,0.4,1,0.2,1.4c0.2-0.4,0.4-0.6,0.8-0.6c0.4,2.4,1,4.9,1.4,7.3
					c0.2,0.8,0.4,1.8,0.2,2.6c-0.2,1.6-1.6,2.8-2.8,4c-0.6,0.6-1,1-1.2,1.8c-0.2,0.6,0,1,0,1.6c0.4,2.4,1,4.9,1.6,7.3
					c-2.6,0.4-5.1,0.4-7.7,0c-0.4,0-0.6-0.2-0.8-0.4c-0.2-0.2-0.4-0.6-0.4-1c-0.4-2-1-4.2-1.4-6.3c-1.6,1.8-2,4.9-0.8,7.1
					c-0.8,0-1.6,0-2.4,0c-1-2-1-4.7,0-6.7c0.8-1.8,2.4-3.2,2.2-5.3c-1.2,0.2-3,0-3.4-1.2c-0.2-1,0.4-1.8,0.4-2.8
					c0-1.6-2-2.6-3.6-2.8c-0.2,0-0.6-0.2-0.8-0.4c-0.2-0.2,0-0.6,0.2-1c0.6-1,1.2-2,2-3c-0.8-0.4-1.4-1-1.6-1.8c0,0,3.6-2,4-2
					c1.2-0.2,2.4,0.2,3.4,1C181.3,187.1,182.7,189.4,184.2,191z"/>
				<path class="st8" d="M238,194.4c3.2-2,1.2-6.9,4.9-8.7c1.2-0.6,3.8-0.8,5.3-0.2c1.2,0.6,1.6,2.4,1.6,3.8c0,1.4-0.2,3,0.4,4.2
					c0.6,1,1.6,1.6,2.8,2.2c-1,0.4-2.2,0.8-3.2,1.2c-0.2,0-0.6,0.2-0.6,0.4c-0.2,0.4,0.2,0.6,0.4,0.8c2.2,2.2,2.8,5.9,1.6,8.7
					c-0.2,0.4-0.4,0.6-0.6,1c-0.4,0.2-0.8,0.4-1.2,0.4c-2.2,0.2-4.5-0.2-6.7-0.8c-1.4-0.4-3-0.6-4.5-1c-0.2,0-0.4,0-0.6-0.2
					c-0.2-0.2-0.2-0.4-0.2-0.8c-0.2-3,1.2-6.3,3.4-8.3c-1.6,0.2-3.2,1.2-4.7,2.2c-0.2-0.6,0.2-1.4,0.8-1.6c-0.2,0-0.6,0.2-0.8,0.2
					c0.4-0.4,0.8-0.8,1.2-1c-0.4,0-0.6,0-1,0c0-0.8,0-1.6,0.4-2C237.2,194.8,237.6,194.6,238,194.4z"/>
				<path class="st2" d="M200.7,145.3c0,0,2,2,3.4,1.8c1.4-0.2-3.4,4.7-3.4,4.7l-3.2-3.2c0,0,1.6,0,1.6-3.2
					C199.1,142,200.7,145.3,200.7,145.3z"/>
				<path class="st6" d="M207,152.6L207,152.6c0-0.2-0.2-0.2-0.2-0.2c-0.4-0.4-0.8-1-1-1.4c-0.2-0.6-0.4-1.4-0.4-2
					c0-0.4-0.2-0.8-0.2-1.4c0-0.2,0-0.6,0-0.8c-0.2,0-0.6,0-0.6,0.2c0.2,1.2,0,2.4-0.4,3.4c-0.4,1.4-1.2,3-2.4,3.6
					c-1.2,0.4-2.2-0.4-2.8-1.4c-0.8-1.2-1.2-2.8-1.2-4.2c-0.4,0-0.4,0.4-0.8,0.8c0.2,1.8,0.2,4-0.8,5.7c0,1.2,0.2,2.4,0.8,3.4
					c0.2,0.4,0.4,0.8,0.6,1.4c0.2,0.4,0.2,1,0,1.4l0.2,5.9c3.2,0,6.1,0.4,9.3,0c-1.6-1.6-1.2-5.1-0.6-7.3
					C206.8,157.2,207.8,154.8,207,152.6z"/>
				<path d="M198.7,141.2c0,0.2,0.2,0.2,0.2,0.2s0.2,0,0.4,0c0.2,0,0.2-0.2,0.2-0.4c0-0.2,0.2-1.4-0.4-1.2
					C198.5,140,198.5,141,198.7,141.2z"/>
				<path d="M201.3,141.2c0,0.2,0.2,0.2,0.2,0.2c0.2,0,0.2,0,0.4,0c0.2,0,0.2-0.2,0.2-0.4c0-0.2,0.2-1.4-0.4-1.2
					C201.1,140,201.1,140.8,201.3,141.2z"/>
				<path class="st6" d="M199.5,144.1L199.5,144.1c0-0.2,0-0.2,0-0.2c0.2,0,0.2,0,0.4,0h0.2c0,0,0.2,0,0.2,0.2
					c0-0.2,0.2-0.2,0.4-0.2h0.2c0.2,0,0.2,0.2,0.2,0.4C200.9,144.5,199.9,144.3,199.5,144.1z"/>
				<path class="st7" d="M172.8,185.1c0-1.2-2-1.6-2.6-0.6c0-0.6-0.6-1.2-1.2-1.2s-1.2,0.8-1,1.4c-0.6-0.6-1.6-0.6-2.4-0.2
					c-0.8,0.4-1.2,1.4-1,2.2c-0.4-0.4-1,0.2-1,0.6s0.2,1,0.4,1.4c-0.8,0.8-0.8,2.4,0.2,2.8c-0.4,0-1,0.2-1,0.6c0,0.4,0.2,1,0.8,1
					c-0.4,0.2-0.2,1,0,1.2c0.2,0.4,0.6,0.8,0.8,1.2c0.2,0.6,0,1.2,0,1.6c-0.2,2.6,3.2,3.6,4.5,5.9c0,0.2,0.2,0.2,0,0.4
					c0,0.2-0.2,0.4-0.4,0.4c-2.8,1.8-4.2,5.3-4,8.5c0,0.4,0.2,0.8,0.4,1c0.2,0.2,0.4,0.2,0.6,0c3.2,0,6.5-0.4,9.5-0.8
					c0.4,0,0.6-0.2,1-0.4c0.4-0.2,0.6-0.8,0.8-1.4c0.6-2.2,1-5.3-0.8-6.7c-0.8-0.6-2-0.8-3-1.4c-1-0.6-1.8-1.8-1.2-2.6
					c1.4,0.2,2.8-1.2,3-2.6c0.4-1.4,0-2.8-0.4-4.5c0.2,0.6,1.6-1.4,1.6-1.6c0.2-1.2-0.8-2-1.2-3
					C175.3,188.2,174.8,183.1,172.8,185.1z"/>
				<path class="st9" d="M199.1,198.3c3.2-2,1.2-6.9,4.9-8.7c1.2-0.6,3.8-0.8,5.3-0.2c1.2,0.6,1.6,2.4,1.6,3.8c0,1.4-0.2,3,0.4,4.2
					c0.6,1,1.6,1.6,2.8,2.2c-1,0.4-2.2,0.8-3.2,1.2c-0.2,0-0.6,0.2-0.6,0.4c-0.2,0.4,0.2,0.6,0.4,0.8c2.2,2.2,2.8,5.9,1.6,8.7
					c-0.2,0.4-0.4,0.6-0.6,1c-0.4,0.2-0.8,0.4-1.2,0.4c-2.2,0.2-4.5-0.2-6.7-0.8c-1.4-0.4-3-0.6-4.5-1c-0.2,0-0.4,0-0.6-0.2
					c-0.2-0.2-0.2-0.4-0.2-0.8c-0.2-3,1.2-6.3,3.4-8.3c-1.6,0.2-3.2,1.2-4.7,2.2c-0.2-0.6,0.2-1.4,0.8-1.6c-0.2,0-0.6,0.2-0.8,0.2
					c0.4-0.4,0.8-0.8,1.2-1c-0.4,0-0.6,0-1,0c0-0.8,0-1.6,0.4-2C198.5,198.5,198.9,198.5,199.1,198.3z"/>
				<path class="st2" d="M197.5,161h0.2c0.2,0,0.2,0.2,0,0.4c0,0.2-0.2,0.2-0.4,0.2c-0.2,0.2-0.4,0.2-0.8,0.4
					c0.4,0.2,0.8,0.6,1.2,1.2c0,0,0,0,0,0.2c0,0,0,0.2-0.2,0.2c-0.2,0.2-0.6,0-0.8-0.2c0,0.2,0,0.4,0,0.4v0.2c0,0.2-0.2,0.2-0.4,0
					c-0.2,0-0.2-0.2-0.2-0.4c-0.2,0.2,0.2,0.6-0.2,0.8c-0.2,0-0.2,0-0.4,0c-0.2-0.2-0.2-0.2-0.2-0.4c0,0.2,0,0.4-0.2,0.4
					s-0.4-0.2-0.4-0.4s0-0.4-0.2-0.6c0-0.2-0.2-0.4-0.4-0.6c-0.2-0.4,0-1,0.4-1.2c0.4-0.4,0.8-0.4,1.2-0.6
					C196.7,161,197.1,161,197.5,161z"/>
				<path class="st4" d="M193.9,168.5c-0.6,0.2-1,0.6-1.4,1c-0.2,0.2-0.6,0.6-0.6,1c0,0.2,0,0.4,0.2,0.6c0.4,0.8,1.6,1.4,2.6,1.4
					c0.8,0,1.6,0,2.4-0.2c0.8-0.2,1.4-0.8,1.8-1.4c0.4-0.6,0.6-1.4,0.2-2c-0.2-0.4-0.6-0.6-0.8-0.8c-0.6-0.4-1.2-0.8-2-0.6
					C195.3,167.9,194.7,168.1,193.9,168.5z"/>
				<path class="st9" d="M194.9,169.5c-0.2,0.2-0.2,0.4-0.2,0.6c0,0.2,0.2,0.4,0.2,0.6c0.4,0.2,0.8,0.4,1.2,0.2
					c0.8-0.2,1.4-1.2,0.8-2C196.3,168.7,195.3,169.1,194.9,169.5z"/>
				<path class="st4" d="M212.1,171.4c0.2,0.2,0.2,0.4,0.4,0.6c0.2,0.2,0.6,0,0.6-0.2c0-0.2,0-0.4-0.2-0.4c-0.6-0.8-1.2-1.8-1.8-2.8
					c0-0.2-0.4-0.6-0.6-0.4c-0.2,0.2,0.4,1.2,0.6,1.4C211.5,170.4,211.7,171,212.1,171.4z"/>
				<path class="st4" d="M208.2,169.1L208.2,169.1c0,0.2,0,0.4,0.2,0.4s0.2,0.2,0.4,0.2c0.2,0,0.4,0,0.4-0.2
					C209.6,168.9,208.6,168.7,208.2,169.1z"/>
				<path class="st4" d="M208.8,169.9C208.8,170.1,208.8,170.1,208.8,169.9c0,0.2,0,0.4,0.2,0.4s0.2,0.2,0.4,0.2
					c0.2,0,0.4,0,0.4-0.2C210.2,169.7,209.2,169.7,208.8,169.9z"/>
				<path class="st4" d="M209.4,171L209.4,171c0,0.2,0,0.4,0.2,0.4c0.2,0,0.2,0.2,0.4,0.2s0.4,0,0.4-0.2
					C210.9,170.8,209.8,170.6,209.4,171z"/>
				<path class="st4" d="M210,171.8C210,172,210,172,210,171.8c0,0.2,0,0.4,0.2,0.4s0.2,0.2,0.4,0.2c0.2,0,0.4,0,0.4-0.2
					C211.5,171.6,210.4,171.6,210,171.8z"/>
				<path class="st3" d="M200.1,159.6c-0.4,0.4-0.6,1.2-0.4,1.8c0.2,0.6,1,0.8,1.6,0.4c0.4-0.2,0.6-0.8,0.6-1.2c0.2-1,0.2-2,0-2.8
					c1.2,0,2-1,2.2-2.2c-0.6,0.4-1.4,0.8-2.2,0.8c-0.4,0-0.6,0-0.8,0.2c-0.2,0.2-0.2,0.6-0.2,1c0,0.4,0.4,1.2,0.2,1.6
					C200.9,159.2,200.3,159.2,200.1,159.6z"/>
				<path class="st3" d="M197.5,141.6c0.4,0,0.8,0,1,0.4c0.2,0.2,0.2,0.6,0,1c-0.2,0.4-0.4,0.6-0.8,0.6c-0.6,0-1.2-0.6-1-1.2
					C196.9,141.8,197.1,141.6,197.5,141.6z"/>
				<path class="st3" d="M202.8,141.6c0.4,0,0.8,0,1,0.4c0.2,0.2,0.2,0.6,0,1c-0.2,0.4-0.4,0.6-0.8,0.6c-0.6,0-1.2-0.6-1-1.2
					C202.2,141.8,202.6,141.6,202.8,141.6z"/>
			</g>
			<path class="st11" d="M180.3,111.7c0,1,0,2.2,1,2.8c0.8,0.4,1.6-0.2,2-0.8c0.4-0.6,0.6-1.6,0.6-2.4c-0.4,1.4,1.2,2.6,1.4,4
				c0.2,1-0.4,2-1.2,2.4c-0.8,0.4-2,0.2-2.6-0.6"/>
			<path class="st11" d="M189.4,111.3c-1.2-0.6-2.4,0.8-2.8,2c-0.4,1.4-0.4,3.2,0.8,3.6c0.8,0.4,1.6,0.2,2.2-0.4s1-1.2,1-2
				c0.2-0.8,0.2-1.6-0.2-2.4c-0.4-0.8-1-1.2-1.8-1.4"/>
			<path class="st11" d="M191.4,110.9c0,1-0.2,2,0,3s0.8,2,1.8,2c0.4,0,1-0.4,1.4-0.6c1.2-1,1.4-2.8,0.8-4.5"/>
			<path class="st11" d="M197.3,117.2c-0.4-1.8-0.2-3.8,0.8-5.5c0.4-0.6,1.2-1.2,1.8-0.6"/>
			<path class="st11" d="M202.2,109.3c0.2,2.4,0.4,5.1,0.6,7.5c-0.6-2,0.6-4.5,2.6-5.3c0.6-0.2,1.2-0.2,1.6,0
				c0.2,0.2,0.4,0.4,0.6,0.8c0.8,1.8-0.6,4.2-2.6,4.7c-1,0.2-2.2-0.4-2.4-1.4"/>
			<path class="st11" d="M208.4,111.9c0.2,1.6,0.4,3.2,0.4,4.9c-0.2-1.2-0.4-2.4,0.2-3.4c0.4-1,1.8-1.8,2.8-1c0.6-0.8,3.6-1,4.5-0.6
				c0.8,0.6,1.4,1.6,1.4,2.6c0.2,1,0,2-0.2,3c0.4-1.2,0.2-2.8-1-3.6c-1-0.8-2.8-0.6-3.4,0.8c-0.4,1,0.4,2.2,1.4,2.6
				c1,0.2,2.2-0.2,2.8-1.2"/>
			<path class="st12" d="M267.7,111.1c0.8,0.4,2,0.4,2.8-0.2"/>
			<path class="st11" d="M219.6,112.3c0,1.6,0,3.4,0,5.1c0.2-1.2,0.2-2.2,0.8-3.2c0.6-1,1.6-1.8,2.8-1.8c0.4,1.6,0.4,3.2,0.2,4.9"/>
			<path class="st11" d="M229.1,113.3c-0.4-0.6-1.2-1-2-0.8c-0.8,0.2-1.4,0.8-1.8,1.4c-0.6,0.8-0.8,2.2-0.2,2.8
				c0.8,0.6,2,0.2,2.6-0.4c0.6-0.8,0.8-1.8,0.8-2.8c0.2-1.2,0.2-2.6,0.4-3.8c0,2.6,0,5.5,0,8.1"/>
			<path class="st13" d="M174,218.1c-0.2-0.6-0.4-1.4-1-1.8c-0.8-0.6-2,0-2.4,1c-0.4,1,0,2,0.6,2.8c0.6,0.8,1.6,1.4,2.4,1.8
				c0.2,0.2,0.6,0.4,0.8,0.4c0.4,0,0.6-0.2,1-0.4c0.8-0.6,1.8-1.4,2.2-2.4c0.4-1,0.2-2.4-0.8-3c-1-0.6-2.4,0.2-2.2,1.4"/>
			<path class="st13" d="M184.4,215.5c1.2-0.2,2.4,0.8,2.6,2.2c0,1.2-0.8,2.4-1.8,3c0.2,0.4,0.4,1,0.6,1.4c-1,0-2-0.4-2.8-1.2
				c-0.8,0.6-2,0.4-2.8-0.2c-0.8-0.6-1-1.8-1-2.8c0.2-1.4,1.2-2.6,2.4-3c1.2-0.4,2.8-0.2,3.8,0.6
				C184.4,214.6,185.8,215.3,184.4,215.5z"/>
			<path class="st13" d="M189.2,215.1c2.6,0,5.5,0,8.1-0.2c-2,2.2-3.8,4.7-5.5,7.3c-0.6-0.8-1.2-1.8-1.6-2.6c1-1.2,2.4-2,3.8-2.6
				c-1.2,0.6-2.4,1.2-3.8,1.6c-0.6-0.8-1-1.8-1-2.8"/>
			<path class="st13" d="M249.1,212.2c-1.6,0-3,0-4.7,0c-0.2,0-0.4,0-0.6,0.2s-0.2,0.4-0.2,0.6c0.2,2.4,0.2,4.9,0.4,7.5
				c0.8-1,1.6-2.2,2.2-3.2c0.4,0.8,1,1.8,1.4,2.6c0.2,0.4,0.6,0.8,0.8,0.6c0.4-0.2,0.4-0.6,0.4-0.8c0-2.2,0-4.5,0-6.7"/>
			<path class="st3" d="M168.8,113.5c0.4,3.4,2.4,4.7,5.1,4.7s4.7-2.4,4.7-5.1s-1.4-4.9-5.1-4.7
				C170.8,108.5,168.6,110.9,168.8,113.5z"/>
			<path d="M174.4,113.1c0,0.2,0.2,0.2,0.4,0.2c0.2,0,0.2-0.2,0.4-0.2c0.2-0.4,0.2-1,0.2-1.6c0-0.6-0.6-1.2-1-0.6
				C173.8,111.5,174,112.7,174.4,113.1z"/>
			<path class="st2" d="M170.4,114.5c0,0,0.2,2.6,2.6,2.4c2.2,0,4-1.4,4.2-2.6S170.4,114.5,170.4,114.5z"/>
			<g>
				<path class="st5" d="M173,101.6v-4.7c0,0,1-0.4,1,0s0,4.7,0,4.7S173,102,173,101.6z"/>
			</g>
			<g>
				<path class="st14" d="M203.2,97.7c0.4-0.4,0.6-0.8,0.8-1.2c0,1,0,2,0.2,3v0.2c0,0,0.2,0,0,0"/>
				<path class="st14" d="M205.2,96.9c0.2-0.4,0.6-0.6,1-0.4c0.4,0.2,0.6,0.4,0.6,0.8c0,0.4-0.2,0.8-0.4,1c-0.2,0.4-0.6,0.8-0.8,1.2
					c0.4,0,1,0,1.4,0"/>
				<path class="st14" d="M208.8,96.7C208.6,96.7,208.6,96.7,208.8,96.7"/>
				<path class="st14" d="M208.8,100L208.8,100"/>
				<path class="st14" d="M211.9,96.3c-0.2,0-0.4,0-0.6,0c-1.2,0.4-1,2.2-0.2,2.8c0.2,0.2,0.4,0.2,0.6,0.2c0.4,0,0.6-0.2,0.8-0.6
					C212.9,98.1,212.7,96.5,211.9,96.3z"/>
				<path class="st14" d="M215.1,99.4c-1,1.4-1.6-1-1.6-1.6c0-0.8,1-2.6,2-1.4c0.4,0.6,0.2,1.6,0,2.2
					C215.3,98.9,215.3,99.1,215.1,99.4z"/>
			</g>
			<g>
				<path class="st14" d="M235.7,98.7c0.8,0,1.6,0,2.4,0c-0.6,1-1,2-1.2,3.2"/>
				<path class="st14" d="M238.8,99.8c-0.2,0.8,0,1.6,0.4,2.2c0,0.2,0.2,0.2,0.4,0.2c0,0,0.2,0,0.2-0.2c0.6-0.6,1.4-3.6-0.2-3.2
					C239.2,99.1,239,99.4,238.8,99.8z"/>
				<path class="st14" d="M241.6,99.6L241.6,99.6"/>
				<path class="st14" d="M241,102.8c1-1.2,1.8-2.4,2.6-3.6l-0.2,0.2"/>
				<path class="st14" d="M243.2,102.2L243.2,102.2"/>
			</g>
			<path class="st14" d="M245.2,98.7c-0.2,0-0.2,0-0.4,0c-0.2,0-0.2,0.4-0.2,0.4c0,1.4-0.2,2.6-0.2,4c0,0.2,0,0.4,0.2,0.6h0.2
				c2.2-0.4,4.2-0.4,6.5-0.2c0-0.4,0-0.8,0.2-1.2c0.2,0.2,0.6,0.2,1,0.2h0.2v-0.2c0-0.4,0-0.8,0-1.2c-0.4,0-0.6,0-1-0.2
				c0-0.4,0.4-1.4,0-1.6c-0.4-0.2-1.4-0.2-1.8-0.2C248.5,98.9,246.9,98.9,245.2,98.7z"/>
			<path class="st1" d="M245.6,99.6c0,1,0,2.2,0,3.2v0.2c0,0,0,0,0.2,0c1,0,2,0,3-0.2h0.2c0,0,0,0,0-0.2c0.2-0.6,0.6-2.6,0-3
				S246.3,99.6,245.6,99.6z"/>
			<path class="st1" d="M176.5,96.9c0.8-0.4,1.6-0.2,2.4,0c0.2,0.2,0.6,0.2,0.8,0.6c0,0.2,0.2,0.2,0.2,0.4c0,0.2,0,0.4,0,0.6
				c0,0.2-0.4,0.4-0.6,0.2c-0.2,0-0.4-0.2-0.4-0.4c-0.4-0.4-0.8-0.6-1.2-0.6c-0.4,0-1,0.2-1.4,0.6c-0.2,0.2-0.4,0.4-0.6,0.6
				c-0.2,0.2-0.6,0.4-0.8,0c-0.2-0.2,0.2-0.6,0.2-0.8C175.5,97.5,176.1,97.1,176.5,96.9z"/>
			<path class="st1" d="M177.3,98.9c-0.4,0.2-0.8,0.4-1,0.6c0,0.2-0.2,0.2-0.2,0.4c0,0.2,0.2,0.2,0.2,0.2c0.2,0,0.2-0.2,0.4-0.2
				c0.4-0.4,1-0.4,1.2,0c0.2,0,0.2,0.2,0.2,0.2c0.4,0.2,1,0,0.8-0.4C179.3,98.9,178.1,98.7,177.3,98.9z"/>
			<path class="st1" d="M176.9,101C176.9,101,176.9,101.2,176.9,101c0.2,0.2,0.4,0.2,0.6,0c0.2,0,0.2,0,0.4,0.2
				c0.2,0.2,0.6,0,0.4-0.2C178.1,100.4,176.9,100.2,176.9,101z"/>
		</g>
		<path class="st15" d="M206.4,159.6c-1.4-0.8-3.2-1.2-5.1-1c-2.6,0.2-5.7,1.4-6.7,3.8c-0.8,2-0.4,4.2,0.6,6.3
			c1,1.8,2.6,3.4,4.2,4.9c2,2,4,3.8,6.1,5.9c1,1,2,2,3.4,2c1,0,1.8-0.4,2.6-0.8c5.3-2.8,9.5-7.3,12.3-12.7c0.6-1,1-2.2,1-3.4
			c-0.2-1.4-1.2-2.4-2.2-3.2c-2.2-1.4-4.9-2-7.5-1.4c-1.6,0.4-3.8,3-5.1,3C208.4,163.1,208,160.6,206.4,159.6z"/>
		<path class="st1" d="M168.8,101.6v-2.2c0,0,1-0.4,1,0c0,0.4,0,2.2,0,2.2S168.8,102,168.8,101.6z"/>
		<g>
			<path class="st1" d="M170.2,101.6v-3.2c0,0,1-0.4,1,0s0,3.2,0,3.2S170.2,102,170.2,101.6z"/>
		</g>
		<g>
			<path class="st5" d="M171.6,101.6v-4.2c0,0,1-0.4,1,0s0,4.2,0,4.2S171.6,102,171.6,101.6z"/>
		</g>
		<path d="M171.8,113.3c0,0.2,0.2,0.2,0.4,0.2c0.2,0,0.2-0.2,0.4-0.2c0.2-0.4,0.2-1,0.2-1.6s-0.6-1.2-1-0.6
			C171.2,111.7,171.4,112.7,171.8,113.3z"/>
	</g>
</g>
</svg>
