<?xml version="1.0" encoding="utf-8"?>
<!-- Generator: Adobe Illustrator 22.1.0, SVG Export Plug-In . SVG Version: 6.00 Build 0)  -->
<svg version="1.1" id="Capa_1" xmlns="http://www.w3.org/2000/svg" xmlns:xlink="http://www.w3.org/1999/xlink" x="0px" y="0px"
	 viewBox="0 0 297.6 297.6" style="enable-background:new 0 0 297.6 297.6;" xml:space="preserve">
<style type="text/css">
	.st0{fill:none;stroke:#1E1818;stroke-linecap:round;stroke-linejoin:round;stroke-miterlimit:10;}
	.st1{fill:#1E1818;}
	.st2{fill:#FFFFFF;}
	.st3{fill:#F9483B;}
	.st4{fill:#84D2E4;}
	.st5{fill:#D7D9D9;}
	.st6{fill:#F193BE;}
	.st7{fill:#1DBB73;}
	.st8{fill:#CB7EA4;}
	.st9{fill:#1D9A5C;}
	.st10{fill:none;stroke:#9A9797;stroke-linecap:round;stroke-linejoin:round;stroke-miterlimit:10;}
	.st11{fill:none;stroke:#1E1818;stroke-width:0.75;stroke-linecap:round;stroke-linejoin:round;stroke-miterlimit:10;}
	.st12{fill:none;stroke:#1E1818;stroke-miterlimit:10;}
	.st13{fill:none;stroke:#1E1818;stroke-width:0.25;stroke-linecap:round;stroke-linejoin:round;stroke-miterlimit:10;}
	.st14{fill:none;stroke:#1E1818;stroke-width:0.15;stroke-linecap:round;stroke-linejoin:round;stroke-miterlimit:10;}
	.st15{opacity:0.91;fill:#FFFFFF;enable-background:new    ;}
</style>
<g>
	<path class="st0" d="M117.2,241.1c10.9-0.2,21.8-0.2,32.8-0.4"/>
	<path class="st0" d="M47.8,246.8c16.6-2.2,32.8-0.2,49.2-1.6"/>
	<g>
		<path class="st1" d="M33.7,19.5c0,0,118.1-2.2,134.5,9.1c16.6,11.3,11.7,211.2,11.7,211.2s0,20.4-18.8,20.4
			c-4.7,0-73.2,16-106.2,18.2c-33,2.2-30.7-22.7-33-61.3C19.5,178.2,12.4,17,33.7,19.5z"/>
		<path class="st2" d="M39.7,25.5c0,0,107.2-2.2,122.2,8.5c15,10.7,10.7,199.4,10.7,199.4s0,19.2-17.2,19.2
			c-4.2,0-66.5,15-96.5,17.2S31,248.4,29,212S20.5,23.3,39.7,25.5z"/>
		<path class="st0" d="M59.3,167.3c0.8-0.4,1.2,0.8,1.4,1.6c0.6,3.8,1.6,7.7,3,11.1c1.4-3.6,2.2-7.3,2.4-11.1c1,3.4,2,7.1,4.5,9.5
			c0.4-3.8,0.8-7.9,1-11.7"/>
		<path class="st0" d="M74.9,166.3c1,4.2,1.2,8.5,0.8,12.7c0.2-2.4,0.4-5.1,1.6-7.3c0.6-1.2,1.8-2.2,3-2s2,1.6,2.2,3
			c0.4,1.8,0.6,3.6,0.4,5.5"/>
		<path class="st0" d="M85,170.6c0.2-1.4,2.4-1.8,3.4-1c1.2,0.8,1.6,2.4,1.6,3.8c0.2,1.4,0,2.8,0.6,4.2c-0.2-1-0.4-2.2-1.2-3
			c-0.8-0.8-2-1.2-3-0.6c-0.4,0.4-0.8,0.8-0.8,1.4c-0.2,1.2,0.2,2.6,1.2,3.2c1,0.6,2.6,0.4,3.2-0.6"/>
		<path class="st0" d="M92.9,165.5c0.2,4.7,0.6,9.3,0.8,14.2"/>
		<path class="st0" d="M91.1,171c1.6-0.2,3.2-0.6,4.9-1"/>
		<path class="st0" d="M99.8,169.9c0.6-0.8,1.2-1.4,2.2-1.8c1-0.4,2-0.4,2.6,0.2c0.4,0.4,0.6,1,0.8,1.6c0.6,2.4,0.8,4.9,0.8,7.3
			c0.8-1,0.8-2.6,0-3.6c-0.8-1-2.2-1.4-3.4-1c-2,0.6-2.6,3.6-1,5.1c1.4,1.4,4.5,0.4,4.9-1.6"/>
		<path class="st0" d="M113.6,165.1c-0.2,4.2,0.2,8.7,1.4,12.9c2-1.2,3.6-3.2,4.2-5.5c0.2-0.8,0.4-1.8-0.2-2.4
			c-0.4-0.8-1.6-1.2-2.6-1.2c-1,0-2,0.6-2.8,1"/>
		<path class="st0" d="M121,168.5c0.4,3.4,0.6,6.9,1,10.5c0.4-1.2,0.2-2.6,0-3.8c-0.2-1.2-0.4-2.6,0.2-3.8c0.4-1.2,1.8-2.2,3-2
			c0.6-0.8,3.2-2,3.8-1.4c0.6,0.8,0.8,1.8,1,2.8c0.4,2.4,0.8,4.9,1.2,7.5"/>
		<path class="st0" d="M130.6,174.4c-0.8-1.4-2.2-2-3.8-1.8c-1.4,0.2-2.6,1.6-2.8,3c0,0.2,0,0.6,0,0.8c0.2,0.2,0.4,0.4,0.6,0.6
			c1,0.6,2.2,1.2,3.4,1.2c1.2,0,2.4-0.4,3.2-1.4"/>
		<path class="st0" d="M133.6,167.9c0,3.2,0.2,6.3,1,9.5c-0.2-2-0.2-3.8,0.2-5.9c0-0.8,0.2-1.6,0.8-2.2c0.8-0.8,2.4-0.6,3.2,0
			c1,0.8,1.4,2,1.6,3.2c0.2,1.2,0.2,2.4,0.4,3.6"/>
		<path class="st0" d="M146.9,169.7c-0.4-1-2-1-2.6-0.2c-0.8,0.8-0.8,1.8-1,2.8c-0.2,1.2-0.2,2.4,0.6,3.4c1,1.2,2.8,1.2,4.2,1.2
			c-0.6-5.5-1.6-11.1-3-16.6"/>
		<path class="st3" d="M112.7,232.2c0-0.6-0.2-1.2-0.8-1.6c-0.4-0.4-1.2-0.4-1.6-0.2c-0.4,0.2-0.6,0.8-0.6,1.4s0.4,1,0.8,1.4
			c0.6,0.6,1.2,1.2,2,1.4c0.2,0,0.4,0.2,0.6,0c0.2,0,0.2-0.2,0.4-0.4c0.4-0.6,0.8-1.2,1-1.8c0.2-0.4,0.4-1,0.4-1.4
			c0-0.6-0.8-1-1.4-1c-0.6,0-1,0.8-1,1.4"/>
		<path class="st4" d="M110.7,240.1c0.8,0,1.4,0,2.2,0c-0.2-0.6-0.2-1.4-0.2-2.2c0.6,0.8,2,0.4,2.4,1.4c0.2,0.4,0,1-0.2,1.4
			c-0.4,1-0.8,2-1.2,3c0,0.2-0.2,0.4-0.4,0.4c0-0.6-0.2-1.2-0.4-1.6c-0.6,0-1,0.2-1.6,0.2c-0.2,0-0.2,0-0.4,0
			c-0.2,0-0.2-0.4-0.4-0.6c0-0.4-0.2-0.6,0-1c0.2-0.4,0.4-0.6,0.8-0.6"/>
		<path class="st0" d="M99.2,186.9c16.4,0.6,32.4,1.2,49-0.2"/>
		<path class="st0" d="M48.4,187.5c16.2-1,32.4-1.4,48.7-0.8"/>
		<path class="st0" d="M99.8,195.2c16.6-0.2,33.2-0.2,49.8-0.4"/>
		<path class="st0" d="M47.8,196.8c16.6-2.2,32.8-0.2,49.2-1.6"/>
		<path class="st0" d="M99.2,204.1c16.4,0.6,32.4,1.2,49-0.2"/>
		<path class="st0" d="M48.4,204.9c16.2-1,32.4-1.4,48.7-0.8"/>
		<path class="st0" d="M99.8,212.6c16.6-0.2,33.2-0.2,49.8-0.4"/>
		<path class="st0" d="M117.2,231.8c10.9-0.2,21.8-0.2,32.8-0.4"/>
		<path class="st0" d="M47.8,214.2c16.6-2.2,32.8-0.2,49.2-1.6"/>
		<path class="st0" d="M48.4,220.3c16.2-1,32.4-1.4,48.7-0.8"/>
		<path class="st0" d="M47.8,229.4c16.6-2.2,32.8-0.2,49.2-1.6"/>
		<path class="st0" d="M48.4,237.5c16.2-1,32.4-1.4,48.7-0.8"/>
		<g>
			<path class="st4" d="M157,71.2c-3.2,0.6-7.7,0.8-9.9-2c-2,1.6-5.1,1.8-7.5,1.4c-2.2-0.4-5.1-1.2-6.1-3.6c-1,2.4-3.2,3.2-5.7,2
				c-2.2-1.2-4-3.4-4-6.1c-0.2-2.4,1.8-4.2,3.8-5.3c3.6-1.6,9.9-1.2,12.3,2.2c0-1,0.4-2,1.2-2.8c2.6-2.8,7.1-4,10.9-3.6
				c1.6,0.2,3.4,0.6,4.7,2c0.4,0.4,0.6,0.8,1,1.4c-0.2-8.7-1.2-14.6-3.2-15.6c-8.5-4.2-111.5-12.9-111.5-2.2c0,0-0.4,5.5-0.8,13.8
				c3.6-2.6,7.9-4.7,12.3-5.1c2.2-0.2,4.5,0.2,6.3,1.2c2,1.2,3.2,3.2,4,5.3c4.5-3.4,11.1-6.7,16.8-4.5c5.5,2.2,6.9,9.5,5.9,14.8
				c-0.8,3.2-3,5.5-5.9,6.7c-2.8,1.4-6.3,2.6-9.3,3c-1.8,0.2-3.4-0.2-5.3-1c-1.6-0.6-4-2-5.9-1c-0.8,0.4-1.4,1.2-2.2,1.6
				c-0.6,0.4-1.4,0.6-2.2,0.6c-1.6,0.2-3-0.2-4.7-0.8c-1.8-0.8-3.6-1-5.7-1c-1.6,0-3.4,0.2-5.1-0.2c-1.4,32-2.4,75.2,1.6,78.1
				c6.5,4.2,100.7,2.2,105.2-2.2c2.8-2.8,8.5-46.9,9.5-77.7C157.5,71.2,157.3,71.2,157,71.2z"/>
			<path class="st5" d="M148.8,93.3c-1.8-1.6-4.5-2-6.7-1.2c-1.8-0.8-4.2-1.4-5.9-0.2c-2,1.4-1.8,4.9-3.8,6.3c-1.6,1-3.8,0.4-5.5-1
				c-1.6-1.2-2.8-2.8-4.5-3.8c-1.6-1-4.2-1-5.3,0.6c-0.6,1-0.4,2.4-0.2,3.6c0.6,3.4,1.2,7.1,2.6,10.3c0.6,1.4,1.4,2.6,2,4
				c3,7.3-1.2,16.4-7.9,20.4c-2.2,1.4-4.7,2.2-7.1,2.2c-5.1-0.2-8.9-4.9-9.9-9.9c-0.2-1.4-0.4-2.8-1.2-3.8c-0.6-0.8-1.4-1.2-2.2-1.6
				c-2.4-1.2-5.9-1.6-7.3,0.6c-1.8,2.8,1.6,6.9,0.4,10.1c-1.4,0.4-2.8-0.4-3.6-1.6c-0.8-1.2-1-2.6-1.6-4c-1.8-3.8-6.7-6.3-10.7-5.1
				c-0.8,0.2-1.8,0.6-2.2,1.4c-1.4,2.4,2,5.1,1.4,7.7c-1,1.2-3-0.2-3.2-1.6c-0.2-1.6,0.4-3,0.2-4.7c-0.4-2.4-3-4-5.3-3.2
				s-3,4-1.6,5.9c-1.6,0.4-3.4-0.8-4.2-2.2c-0.8-1.6-1-3.4-1.4-5.1c-0.6-2.6-2.2-5.3-4.9-5.7c-2.6-0.6-5.5,2.6-4,4.7
				c-1.4-0.2-3-0.2-4.5,0.6c-1.2,0.8-2,2.4-1.4,3.8c-1-0.8-2.6,0-3.2,1.2c-0.6,1.2-0.4,2.6,0,3.8c0.4,1.8,1.2,3.6,2.2,5.5
				c0.4,0.6,0.8,1.2,1,2c0.6,2-0.2,4.2-0.8,6.3c-1,3.8-0.6,8.5,2.6,10.7c1.6,1.2,3.6,1.6,5.7,1.8c6.9,1.2,13.8,2.2,20.8,1.6
				c3-0.2,6.1-1,9.3-1c5.7,0,11.1,2,16.8,1.8c4.5-0.2,8.5-1.6,12.9-2.4c12.5-2.4,25.7,1.4,38-2c2.6-0.8,5.3-1.8,6.9-4
				c1.6-2.2,1.6-5.7-0.4-7.3c-1-0.8-2.6-1.2-3.2-2.6c-1-2.2,2-5.3,0.6-7.3c-1-1.4-3.6-1.8-3-3.4c0.2-0.6,0.8-1,1.2-1.2
				c1.4-0.8,2.6-1.8,3.4-3.2c0.8-1.4,0.8-3.2-0.2-4.5c-0.4-0.4-1-0.8-1.2-1.4c-0.6-1.2,0-2.4,0.6-3.6
				C151.2,106.6,153,96.9,148.8,93.3z"/>
			<path class="st6" d="M54.9,86.8c-1.2-0.8-3-0.4-4,0.8c-1,1-1.2,2.6-1,4c0-0.2-0.2-0.6-0.6-0.6c-0.2,0.4-0.2,1,0.2,1.4
				c-0.2,0.4,0,1,0.4,1c0.2,1.2,0.4,2.6-0.2,3.4c-0.2,0.4-0.8,0.8-1,1.2c-1,1.4-0.8,3.2-0.6,4.9c0,0.2,0,0.2,0.2,0.4
				c0.2,0,0.2,0,0.4,0c3.2-0.2,6.3-0.8,9.5-1.6c0.2,0,0.4,0,0.4-0.2c0.2-0.2,0.2-0.4,0.2-0.6c0.2-1.8-0.2-3.8-1.6-4.9
				c-0.2-0.2-0.6-0.4-0.8-0.6c-0.4-0.4-0.4-1-0.6-1.6c0-0.4,0-0.8,0.2-1.2s0.6-0.4,1-0.8c0.4-0.4-0.2-0.8-0.2-1c0-0.6,0.2-1.2,0-1.8
				C56.5,88.4,55.9,87.4,54.9,86.8z"/>
			<path d="M102,74.3c-2-6.1-4-12.3-5.7-18.6c-0.4-1.6-0.8-3.2-2.4-4c-0.8-0.4-1.6-0.4-2.4-0.6c-1.4-0.4-2.4-1.8-3.8-2.4
				c-1.2-0.6-2.6-0.4-4-0.2c-2.2,0.2-4.9,0.6-6.5,2.2c-2.8,2.8-1.2,7.7-2,11.5c-0.4,2.4-2,4.5-1.8,6.9c0,2,1,4-0.2,5.7
				c-0.8,1-2.4,1.6-2,2.8c0.6,0.2,1.2,0.6,1.8,0.8c3-0.4,5.1-2,7.1-4.2c1-1,2-2.4,3.4-2.4c0.6,0,1,0.2,1.6,0.4
				c2,0.6,4.2,0.2,6.1-0.6c0.6-0.2,1-0.6,1.6-0.6c0.4,0,0.8,0.2,1.2,0.2C96.6,71.2,100.4,72,102,74.3z"/>
			<path class="st2" d="M92.1,58.1c-0.6,0-2-0.2-2.6-0.8c-0.2,1-2,0.4-2.6,0.2c-1.4-0.6-3-1.6-3.8-3c-0.2,0.2-0.6,0.2-0.8,0.4
				c-3,1.2-2.2,7.5-1.6,9.9c0.6,2.6,2.8,5.3,5.7,5.3c1.8,0,3.4-1,4.7-2.2c0.6-0.6,1.2-1,1.6-1.8c0.2-0.6,0.4-1.4,0.4-2
				c0.2-1.8,0.4-3.8,0.2-5.7C92.7,58.3,92.3,58.1,92.1,58.1z"/>
			<path class="st2" d="M75.7,76.7c-2,0.6-3.4,2.8-3,4.9c0.2,1.2,1,2.2,1.6,3.2c1.6,2,3,4.2,4.7,6.3c0.6-0.6,1.2-1.2,2-1.4
				c-1.2-1.6-2.4-3-3.6-4.7c-0.8-1-1.6-2-1.4-3.2c0.2-0.8-0.2-1.8,0.4-2.4c1.6-1.4,2-1.4,4-2.4c-0.2,0.6,0,3.6,0,4.2
				c0.8-1.6,4.5-6.7,4.2-8.5c-0.2,0-2,0-2.2,0c-1.4,1-3.2,1.8-4.7,2.8c-0.6,0.4-1.4,0.8-2.2,0.8"/>
			<path class="st2" d="M103.8,56.3c1.2-0.4,3.2-3.4,2-2.8l-1.8,0.8c0.8-0.4,2-2.2,0.6-1.6c-1,0.4-1.8,1.2-2.4,2.2
				c0.6-1.6,1.2-3-0.2-2.4c-1.2,0.6-1.8,1.8-1.8,3.2c-0.8,0-3.6,0.4-2,1.4c2.2,0.4,4,1.8,5.3,3.6c0.4,0.6,0.6,1.2,0.4,2
				c-0.2,0.4-0.6,0.8-1,1.2c-3,2.6-6.7,5.3-10.3,6.5c0,1.6-1,6.1,2,8.1c0.6-1.4,1.8-5.9,3.2-6.5c2-0.8,3.8-1.6,5.7-3
				c1.6-1.4,2.8-3.2,3-5.5C106.9,60.7,105.3,58.5,103.8,56.3z"/>
			<path class="st2" d="M83.6,80.5c1,1.8,3.2,3.6,5.7,2.4c2-1.2,3.2-4.2,3.8-6.5c0.6-2,0.4-4.2-0.2-6.3c-1.6,0.4-3,1.2-4.7,1.6
				c-1.8,0.6-3.8,1-5.7,1.8C82.6,75.9,82.4,78.3,83.6,80.5z"/>
			<path class="st3" d="M112.3,78.7c2.8-1.2,5.9-1.8,9.1-2c2.8-0.2,5.9-0.4,8.7,0.4c4,1,7.7,3.8,9.9,7.5c2.2,3.6,3.2,7.9,3.2,12.1
				c-9.7,0.6-19.2,0.8-28.9,0.8c-2.6,0-10.5,1.2-12.1-1.2c-1.6-2.2,0.8-7.3,1.8-9.3C105.9,83.4,108.7,80.3,112.3,78.7z"/>
			<path class="st2" d="M66,106.4c-0.2,0.6-0.6,1.4-0.2,2c0.2,0.4,0.8,0.6,1.2,0.6c3.2,0.8,6.5,0.8,9.9,1
				c10.7,0.2,21.4,0.2,31.8-2.2c-0.4-3.8-3-7.1-5.7-10.1c-0.2-0.2-0.4-0.6-0.8-0.6c-0.4-0.2-0.8-0.2-1.2-0.2c-7.3,0-14.8,0-22-0.2
				c-2.2,0-6.5-1-8.3,0.4C68.5,98.7,67,103.8,66,106.4z"/>
			<path class="st7" d="M86.5,112.7c0-1.6-2.6-2.2-3.4-0.8c0-0.8-0.8-1.6-1.6-1.6s-1.6,1-1.4,1.8c-0.8-0.8-2.2-0.8-3.2-0.2
				c-1,0.6-1.4,1.8-1.2,3c-0.6-0.4-1.4,0.2-1.4,0.8c-0.2,0.6,0.2,1.2,0.6,1.8c-1.2,1-1,3,0.4,3.8c-0.6-0.2-1.2,0.4-1.4,1
				s0.4,1.2,1,1.4c-0.6,0.4-0.4,1.2,0,1.8c0.4,0.6,1,1,1.2,1.6c0.2,0.8,0,1.4-0.2,2.2c-0.2,3.4,4.5,4.9,5.9,7.9
				c0,0.2,0.2,0.4,0.2,0.6c0,0.2-0.4,0.4-0.6,0.6c-3.6,2.4-5.7,6.9-5.3,11.1c0,0.4,0.2,1,0.6,1.2c0.2,0.2,0.6,0.2,0.8,0.2
				c4.2,0,8.5-0.4,12.7-1.2c0.4,0,1-0.2,1.2-0.4c0.6-0.4,0.8-1.2,1-1.8c0.8-3,1.4-6.9-1-8.9c-1.2-1-2.6-1.2-4-1.8
				c-1.2-0.8-2.2-2.4-1.6-3.6c2,0.2,3.6-1.6,4-3.4c0.4-1.8,0-3.8-0.4-5.9c0.2,0.8,2-1.8,2-2.2c0.2-1.6-1.2-2.6-1.6-4
				C89.5,116.5,88.9,109.9,86.5,112.7z"/>
			<path class="st7" d="M147.1,95.7c0-0.8-1.2-1-1.6-0.4c0-0.4-0.4-0.8-0.8-0.8c-0.4,0-0.8,0.4-0.6,0.8c-0.4-0.4-1-0.4-1.6-0.2
				c-0.4,0.2-0.8,0.8-0.6,1.4c-0.2-0.2-0.6,0-0.8,0.4c-0.2,0.4,0.2,0.6,0.2,1c-0.6,0.4-0.4,1.4,0.2,1.8c-0.2,0-0.6,0.2-0.6,0.4
				c0,0.2,0.2,0.6,0.4,0.6c-0.2,0.2-0.2,0.6,0,0.8c0.2,0.2,0.4,0.4,0.6,0.8c0.2,0.4,0,0.8,0,1c0,1.6,2,2.4,2.8,3.8v0.2
				c0,0.2-0.2,0.2-0.2,0.4c-1.8,1.2-2.8,3.2-2.6,5.5c0,0.2,0,0.4,0.2,0.6c0.2,0,0.2,0,0.4,0c2,0,4-0.2,6.1-0.6c0.2,0,0.4,0,0.6-0.2
				c0.2-0.2,0.4-0.6,0.4-0.8c0.4-1.4,0.6-3.4-0.4-4.2c-0.6-0.4-1.2-0.6-1.8-0.8c-0.6-0.4-1.2-1.2-0.8-1.8c1,0,1.8-0.8,2-1.6
				c0.2-0.8,0-1.8-0.2-2.8c0,0.4,1-0.8,1-1c0-0.8-0.6-1.2-0.8-2C148.6,97.5,148.4,94.3,147.1,95.7z"/>
			<path class="st3" d="M76.1,105.6c0-1.6-2.6-2.2-3.4-0.8c0-0.8-0.8-1.6-1.6-1.6s-1.6,1-1.4,1.8c-0.8-0.8-2.2-0.8-3.2-0.2
				c-1,0.6-1.4,1.8-1.2,3c-0.6-0.4-1.4,0.2-1.4,0.8c-0.2,0.6,0.2,1.2,0.6,1.8c-1.2,1-1,3,0.4,3.8c-0.6-0.2-1.2,0.4-1.4,1
				c-0.2,0.6,0.4,1.2,1,1.4c-0.6,0.4-0.4,1.2,0,1.8c0.4,0.6,1,1,1.2,1.6c0.2,0.8,0,1.4-0.2,2.2c-0.2,3.4,4.5,4.9,5.9,7.9
				c0,0.2,0.2,0.4,0.2,0.6c0,0.2-0.4,0.4-0.6,0.6c-3.6,2.4-5.7,6.9-5.3,11.1c0,0.4,0.2,1,0.6,1.2c0.2,0.2,0.6,0.2,0.8,0.2
				c4.2,0,8.5-0.4,12.7-1.2c0.4,0,1-0.2,1.2-0.4c0.6-0.4,0.8-1.2,1-1.8c0.8-3,1.4-6.9-1-8.9c-1.2-1-2.6-1.2-4-1.8
				c-1.2-0.8-2.2-2.4-1.6-3.6c2,0.2,3.6-1.6,4-3.4s0-3.8-0.4-5.9c0.2,0.8,2-1.8,2-2.2c0.2-1.6-1.2-2.6-1.6-4
				C79.2,109.5,78.6,102.6,76.1,105.6z"/>
			<path class="st3" d="M146.9,99.1c-0.6,0.4-1,0.6-1.6,1c0.8,0,1.4,0.8,1.6,1.6s0.2,1.6,0.6,2.4c0.4,0.8,1.4,1.2,2,0.8
				c0.2,0.8,0.4,1.8,0.6,2.6c-1.6,1.4-3.4,3-4.2,5.1c-1,2.2-0.8,4.7-0.4,7.1c0,0.4,0.2,1,0.4,1.4c0.4,0.2,0.8,0.2,1.2,0.2
				c1.8,0,3.6-0.2,5.5-0.4c0.4,0,1-0.2,1.2-0.4c0.4-0.4,0.6-1,0.6-1.4c1.4-7.1,1.6-15,0.2-22.3c-0.4-2.2-1.4-3.8-4-3.6
				c-1.6,0.2-2.8,0.8-3.6,2.2C147.1,95.9,146.7,99.4,146.9,99.1z"/>
			<path class="st3" d="M41.8,94.9c-0.6,0.4-1,0.6-1.6,1c0.8,0,1.4,0.8,1.6,1.6c0.2,0.8,0.2,1.6,0.6,2.4c0.4,0.8,1.4,1.2,2,0.8
				c0.2,0.8,0.4,1.8,0.6,2.6c-1.6,1.4-3.4,3-4.2,5.1c-1,2.2-0.8,4.7-0.4,7.1c0,0.4,0.2,1,0.4,1.4c0.4,0.2,0.8,0.2,1.2,0.2
				c1.8,0,3.6-0.2,5.5-0.4c0.4,0,1-0.2,1.2-0.4c0.4-0.4,0.6-1,0.6-1.4c1.4-7.1,1.6-15,0.2-22.3c-0.4-2.2-1.4-3.8-4-3.6
				c-1.6,0.2-2.8,0.8-3.6,2.2C42,91.7,41.5,95.1,41.8,94.9z"/>
			<path class="st2" d="M140.9,91.5c0.6,0.4,1,0.6,1.6,1c-0.8,0-1.4,0.8-1.6,1.6c-0.2,0.8-0.2,1.6-0.6,2.4c-0.4,0.8-1.4,1.2-2,0.8
				c-0.2,0.8-0.4,1.8-0.6,2.6c1.6,1.4,3.4,3,4.2,5.1c1,2.2,0.8,4.7,0.4,7.1c0,0.4-0.2,1-0.4,1.4c-0.4,0.2-0.8,0.2-1.2,0.2
				c-1.8,0-3.6-0.2-5.5-0.4c-0.4,0-1-0.2-1.2-0.4c-0.4-0.4-0.6-1-0.6-1.4c-1.4-7.1-1.6-15-0.2-22.3c0.4-2.2,1.4-3.8,4-3.6
				c1.6,0.2,2.8,0.8,3.6,2.2C140.9,88.2,141.1,91.7,140.9,91.5z"/>
			<path class="st7" d="M119.8,103.6c3.6-3.6-0.6-9.3,3.6-12.7c1.4-1.2,4.7-2.2,6.7-1.8c1.8,0.4,2.8,2.6,3.2,4.5
				c0.4,1.8,0.6,4,1.8,5.5c1,1.2,2.6,1.6,4.2,2c-1.2,0.8-2.4,1.8-3.8,2.6c-0.2,0.2-0.6,0.4-0.6,0.8c0,0.4,0.4,0.8,0.8,1
				c3.4,2.2,5.5,6.7,4.9,10.7c0,0.4-0.2,1-0.4,1.4c-0.4,0.4-0.8,0.6-1.4,0.8c-2.8,1-5.9,1-8.7,1c-2,0-4,0-6.3,0
				c-0.2,0-0.6,0-0.8-0.2c-0.4-0.2-0.4-0.6-0.6-1c-1.2-4-0.4-8.5,2-11.7c-2,0.8-3.6,2.6-5.3,4.2c-0.6-0.8-0.2-2,0.6-2.4
				c-0.4,0.2-0.8,0.4-1,0.6c0.4-0.6,0.8-1.2,1.2-1.8c-0.4,0-0.8,0.2-1.2,0.2c-0.2-1-0.4-2,0-2.8C119,104.4,119.6,104,119.8,103.6z"
				/>
			<path class="st8" d="M82.8,114.9c4.2-2.6,1.6-9.1,6.5-11.5c1.8-0.8,5.1-1.2,6.9-0.2c1.8,0.8,2.2,3.2,2,5.1c0,2-0.4,4,0.6,5.7
				c0.8,1.4,2.2,2.2,3.6,3c-1.4,0.6-2.8,1-4.2,1.6c-0.4,0.2-0.6,0.2-0.8,0.6c-0.2,0.4,0.2,0.8,0.6,1.2c2.8,3,3.8,7.7,2.2,11.5
				c-0.2,0.4-0.4,1-0.8,1.2c-0.4,0.4-1,0.4-1.4,0.4c-3,0.4-5.9-0.4-8.7-1c-2-0.4-4-0.8-6.1-1.4c-0.2,0-0.6-0.2-0.8-0.4
				c-0.2-0.2-0.4-0.6-0.4-1c-0.2-4,1.4-8.3,4.7-11.1c-2.2,0.4-4.2,1.6-6.1,2.8c-0.4-0.8,0.2-2,1-2.2c-0.4,0.2-0.8,0.2-1.2,0.4
				c0.4-0.6,1-1,1.6-1.4c-0.4,0-0.8,0-1.2-0.2c0-1,0-2,0.6-2.6C81.8,115.3,82.2,115.1,82.8,114.9z"/>
			<path class="st7" d="M45.6,98.1c1.2-2,3.4-3.8,5.7-3.4c1.6,0.2,3,1.6,3.8,3c0.8,1.4,1,3.2,1.4,4.9c0.4,2.4,1,4.7,1.6,7.1
				c0.2,1,0.6,2,1.6,2c0.6,0,1-0.4,1.6-0.4c1,0,1.6,1.2,1.8,2.2c0.2,1,0.6,2,0.8,3c0.2,1,0.4,2.2-0.2,3c-0.4,0.4-1,0.6-1.4,1
				c-0.8,0.6-0.8,1.8-1,2.6c-0.6,2.6-3.4,4.2-6.3,4.2c-2.6,0-5.3-1.4-7.3-3.2c-3.8-3.6-2-7.5-3-11.9C44,107.6,43.2,102.6,45.6,98.1z
				"/>
			<path class="st6" d="M65,126.1c1.2-2,3.4-3.8,5.7-3.4c1.6,0.2,3,1.6,3.8,3c0.8,1.4,1,3.2,1.4,4.9c0.4,2.4,1,4.7,1.6,7.1
				c0.2,1,0.6,2,1.6,2c0.6,0,1-0.4,1.6-0.4c1,0,1.6,1.2,1.8,2.2c0.2,1,0.6,2,0.8,3c0.2,1,0.4,2.2-0.2,3c-0.4,0.4-1,0.6-1.4,1
				c-0.8,0.6-0.8,1.8-1,2.6c-0.6,2.6-3.4,4.2-6.3,4.2c-2.6,0-5.3-1.4-7.3-3.2c-3.8-3.6-2-7.5-3-11.9C63.4,135.6,62.4,130.5,65,126.1
				z"/>
			<path class="st9" d="M62.6,87.8c1-0.4,2.2-0.8,3.2-0.6c1.4,0.4,2.4,1.4,3,2.8c0.6,1.2,0.6,2.8,0.8,4c0.2,4.2,0.4,8.9-2.4,12.1
				c-0.8,1-2.2,2.2-1.6,3.4c0.6,1.4,2.8,1.2,4.2,2s2,2.4,2.4,3.8c0.8,3.8,0.6,8.7-2.6,10.9c-3,2-7.3,0.8-9.9-1.6
				c-2.8-2.8-4-7.3-3-11.1c0.6-2.2,1.8-4.9,0.8-6.9c-0.4-0.8-1.2-1.4-1.8-2c-2.2-2.6-0.6-6.1,0.4-8.9C56.7,92.3,59.1,89.2,62.6,87.8
				z"/>
			<path class="st4" d="M116,94.5c0-1.8-0.8-3.8-2.4-4.5c-0.6-0.2-1.4-0.4-2.2-0.2c-1.8,0-4,0.6-5.1,2.2c-0.6,1-0.6,2.2-0.6,3.4
				s-0.8,2.4-1.8,2.8c1,0.4,1,1.8,1,2.8c0,1,0.6,2.4,1.6,2.2c-0.2,3.8-4.2,7.1-3.2,10.9c-1.8-0.2-3.4-0.2-5.3-0.4
				c-0.4,0-0.6,0-1-0.2c-0.4-0.2-0.6-0.6-0.8-0.8c-0.4-0.8-0.8-1.6-1.4-2.4c-0.4-0.8-1-1.8-2-1.8c-1,0-1.6,1.6-0.6,1.8
				c-0.6-0.4-1.2,0.4-1,1c0.2,0.6,1,0.8,1.4,1.2c1,0.8,1.8,1.8,2.8,2.8c2.8,2.6,7.7,2.6,10.5-0.2c-1.2,2.8-1.8,6.5,0.4,8.5
				c1.2,1.2,3,1.4,4.7,1.4c2.6-0.2,5.3-1.6,6.9-3.6c1.4-1.8,2-3.8,2.4-6.1c0.6-3.8,0-7.7-1.4-11.1c-0.6-1.6-2-2.8-2.6-4.5
				C115.6,98.1,116.2,96.3,116,94.5z"/>
			<path class="st3" d="M109.7,146.3c0,0.2,0,0.4,0,0.8c3-3.8,0.2-8.7,1.6-12.9c1.2-4.5,2.4-8.9-0.4-13.1
				c-2.2-3.2-10.3-7.5-12.7-2.4c-0.4,0.8-0.2,1.8,0.4,2.2c0.4,0.4,1,0.8,0.8,1.2c-0.2,0.2-0.2,0.2-0.4,0.2c-0.6,0.2-1,1-0.8,1.6
				c0,0.6,0.6,1.2,1.2,1.4c-0.2,1.2-1.8,2-1.6,3.2c0.2,1,1.6,1.2,2.2,2.2c1,1.4-0.8,3.6,0,5.1c0.4,0.6,1.4,0.8,2.2,1"/>
			<path class="st6" d="M137,113.1c-3.2-1.8-7.5-0.8-10.1,1.8c-2.4,2.6-3.2,6.7-2.4,10.3c0-0.8-0.8-1.4-1.4-1.4
				c-0.6,1.2-0.6,2.6,0.4,3.6c-0.6,0.8-0.2,2.2,1,2.4c0.6,3,1,6.5-0.8,8.9c-0.8,1-1.8,1.8-2.6,2.8c-2.6,3.2-2,8.1-1.2,12.3
				c0,0.4,0.2,0.8,0.4,1c0.2,0.2,0.8,0.2,1,0.2c8.1-0.6,16-2,23.9-3.8c0.4,0,0.8-0.2,1-0.6c0.4-0.4,0.4-0.8,0.4-1.2
				c0.6-4.5-0.4-9.7-4.2-12.1c-0.8-0.4-1.4-0.8-2-1.4c-1-1-1.2-2.6-1.4-4c0-1-0.2-2.2,0.4-3c0.6-0.8,1.6-1.2,2.2-1.8
				c1-1.2-0.4-1.8-0.6-2.8c-0.2-1.4,0.4-3,0.2-4.5C140.9,117.4,139.7,114.5,137,113.1z"/>
			<path class="st7" d="M114.2,119.2c-2.4,1.8-4,4.7-4.2,7.5c0,2,0.4,4,0.6,6.1c0.2,2-0.4,4.2-2,5.5c0.8-0.4,1.8-0.6,2.6-1
				c0.8,0.6,1.2,1.8,1,2.8c-2.2,1-3.6,3.2-4.2,5.7c-0.6,2.4-0.6,4.9-0.6,7.3c0,0.8,0,1.6,0.6,2.2c0.4,0.6,1.4,1,2,0.4
				c0.4-0.4,0.4-1,0.4-1.4c0.2-2.8,1-5.5,2.4-7.9c-0.6,1.8-1,3.6-1,5.7c0,0.8,0,1.8,0.4,2.6c0.6,1.2,2,1.8,3.2,1.8
				c1.2,0,2.6-0.2,3.8-0.6c0.6-0.2,1.2-0.4,1.8-0.8c0.4-0.4,0.6-0.8,0.8-1.2c1-2.4,1.4-5.1,1.2-7.5c0.6,2,1,4.2,1.6,6.3
				c0.2,1,0.6,2.2,1.6,2.4c0.8,0.2,1.8-0.4,2.2-1.2c0.4-0.8,0.4-1.8,0.4-2.8c0-1.8,0-3.6,0-5.3c0-1.8,0-3.8-0.6-5.5
				c-0.6-1.8-1.8-3.4-3.6-4c0.6,0.6,1.4,1,2.2,1.2c0.8,0.2,1.8-0.4,1.8-1.2c-1.2-0.2-2-1.4-2.2-2.6c-0.2-1.2,0-2.4,0-3.6
				c0.2-3.6,0.2-9.9-3.6-11.7C120,116.3,116.6,117.2,114.2,119.2z"/>
			<path class="st3" d="M65,128.9c0.8,1,1.6,2.6,0.4,3.2c1.4,1.2,3,2.8,2.4,4.7c-0.4,0.8-1,1.4-1.4,2c-0.4,0.8-0.2,2,0.6,2
				c1.6,0,2.8-1.2,3.8-2.6c1-1.4,2.2-2.8,2.6-4.7c0.4-1.8-0.2-3.8-1.6-4.7c-0.6-0.4-1.2-0.6-1.6-1c-0.4-0.4-0.8-1.2-0.4-1.6
				c0.4-0.2,1,0,1.4,0.2c0.2-1.2,0.8-2.4,1.8-3.4c0.4,0.4,0.6,1.2,0.2,1.8c0.2-0.4,0.6-0.6,1-0.6c0.6,3.2,1.2,6.5,2,9.7
				c0.2,1.2,0.4,2.4,0.2,3.4c-0.4,2.2-2.2,3.8-3.6,5.3c-0.8,0.6-1.4,1.4-1.6,2.4c-0.2,0.6,0,1.4,0.2,2c0.6,3.2,1.4,6.5,2,9.7
				c-3.4,0.4-6.9,0.4-10.1,0c-0.4,0-0.8-0.2-1.2-0.4c-0.4-0.4-0.4-0.8-0.6-1.2c-0.6-2.8-1.2-5.7-1.8-8.5c-2.2,2.4-2.6,6.5-1,9.5
				c-1,0-2,0-3,0c-1.4-2.8-1.4-6.1,0-8.9c1.2-2.2,3.2-4.5,3-7.1c-1.8,0.2-4,0-4.5-1.6c-0.4-1.2,0.6-2.4,0.6-3.6
				c0-2.2-2.6-3.4-4.9-3.8c-0.4,0-0.8-0.2-1-0.4c-0.2-0.4,0-0.8,0.2-1.2c0.8-1.4,1.8-2.6,2.6-4c-1-0.4-2-1.4-2.2-2.4
				c0,0,4.9-2.6,5.3-2.6c1.6-0.4,3.2,0.2,4.5,1.4C61.2,123.8,63,126.7,65,128.9z"/>
			<path class="st8" d="M136.2,133.5c4.2-2.6,1.6-9.1,6.5-11.5c1.8-0.8,5.1-1.2,6.9-0.2c1.8,0.8,2.2,3.2,2,5.1c0,2-0.4,4,0.6,5.7
				c0.8,1.4,2.2,2.2,3.6,3c-1.4,0.6-2.8,1-4.2,1.6c-0.4,0.2-0.6,0.2-0.8,0.6c-0.2,0.4,0.2,0.8,0.6,1.2c2.8,3,3.8,7.7,2.2,11.5
				c-0.2,0.4-0.4,1-0.8,1.2c-0.4,0.4-1,0.4-1.4,0.4c-3,0.4-5.9-0.4-8.7-1c-2-0.4-4-0.8-6.1-1.4c-0.2,0-0.6-0.2-0.8-0.4
				c-0.2-0.2-0.4-0.6-0.4-1c-0.2-4,1.4-8.3,4.7-11.1c-2.2,0.4-4.2,1.6-6.1,2.8c-0.4-0.8,0.2-2,1-2.2c-0.4,0.2-0.8,0.2-1.2,0.4
				c0.4-0.6,1-1,1.6-1.4c-0.4,0-0.8,0-1.2-0.2c0-1,0-2,0.6-2.6C135.2,133.9,135.8,133.7,136.2,133.5z"/>
			<path class="st2" d="M87.1,68.4c0,0,2.6,2.8,4.7,2.4c1.8-0.2-4.7,6.1-4.7,6.1l-4.2-4.2c0,0,2.2,0,2.2-4.2
				C84.8,64.2,87.1,68.4,87.1,68.4z"/>
			<path class="st6" d="M95.2,78.1C95.2,77.9,95.2,77.9,95.2,78.1c-0.2-0.2-0.2-0.2-0.2-0.4c-0.6-0.6-1-1.2-1.4-2
				c-0.4-0.8-0.4-1.8-0.6-2.8c0-0.6-0.2-1.2-0.2-1.8c0-0.4-0.2-0.6-0.2-1c-0.4,0-0.8,0-0.8,0.2c0.2,1.6,0,3.2-0.4,4.7
				c-0.6,1.8-1.4,4-3.2,4.9c-1.4,0.6-2.8-0.6-3.8-1.8c-1-1.6-1.6-3.8-1.6-5.9c-0.6,0-0.6,0.6-1.2,1c0.4,2.4,0.4,5.5-1,7.5
				c0,1.6,0.4,3.2,1,4.7c0.2,0.6,0.6,1.2,0.8,1.8c0.2,0.6,0.2,1.2,0.2,1.8l0.2,7.7c4.2,0,8.1,0.4,12.3,0c-2-2.2-1.6-6.7-0.8-9.5
				C94.9,84.2,96.2,80.9,95.2,78.1z"/>
			<path d="M84.2,62.9c0,0.2,0.2,0.2,0.2,0.4s0.4,0.2,0.4,0c0.2,0,0.2-0.2,0.2-0.4c0-0.4,0.2-1.8-0.6-1.6
				C83.8,61.3,84,62.5,84.2,62.9z"/>
			<path d="M87.7,62.7c0,0.2,0.2,0.2,0.2,0.4s0.4,0.2,0.4,0c0.2,0,0.2-0.2,0.2-0.4c0-0.4,0.2-1.8-0.6-1.6
				C87.3,61.1,87.5,62.3,87.7,62.7z"/>
			<path class="st6" d="M85.2,66.6L85.2,66.6c-0.2-0.4,0-0.4,0.2-0.4c0.2,0,0.4,0,0.6,0h0.2c0,0,0.2,0,0.2,0.2
				c0-0.2,0.2-0.2,0.4-0.4c0,0,0.2,0,0.4,0c0.2,0,0.2,0.2,0.2,0.4C87.1,67.2,85.8,67,85.2,66.6z"/>
			<path class="st7" d="M49.8,121.2c0-1.6-2.6-2.2-3.4-0.8c0-0.8-0.8-1.6-1.6-1.6s-1.6,1-1.4,1.8c-0.8-0.8-2.2-0.8-3.2-0.2
				c-1,0.6-1.4,1.8-1.2,3c-0.6-0.4-1.4,0.2-1.4,0.8c-0.2,0.6,0.2,1.2,0.6,1.8c-1.2,1-1,3,0.4,3.8c-0.6-0.2-1.2,0.4-1.4,1
				c-0.2,0.6,0.4,1.2,1,1.4c-0.6,0.4-0.4,1.2,0,1.8c0.4,0.6,1,1,1.2,1.6c0.2,0.8,0,1.4-0.2,2.2c-0.2,3.4,4.5,4.9,5.9,7.9
				c0,0.2,0.2,0.4,0.2,0.6s-0.4,0.4-0.6,0.6c-3.6,2.4-5.7,6.9-5.3,11.1c0,0.4,0.2,1,0.6,1.2c0.2,0.2,0.6,0.2,0.8,0.2
				c4.2,0,8.5-0.4,12.7-1.2c0.4,0,1-0.2,1.2-0.4c0.6-0.4,0.8-1.2,1-1.8c0.8-3,1.4-6.9-1-8.9c-1.2-1-2.6-1.2-4-1.8
				c-1.2-0.8-2.2-2.4-1.6-3.6c2,0.2,3.6-1.6,4-3.4c0.4-1.8,0-3.8-0.4-5.9c0.2,0.8,2-1.8,2-2.2c0.2-1.6-1.2-2.6-1.6-4
				C52.9,125,52.5,118.4,49.8,121.2z"/>
			<path class="st9" d="M84.8,138.6c4.2-2.6,1.6-9.1,6.5-11.5c1.8-0.8,5.1-1.2,6.9-0.2c1.8,0.8,2.2,3.2,2,5.1c0,2-0.4,4,0.6,5.7
				c0.8,1.4,2.2,2.2,3.6,3c-1.4,0.6-2.8,1-4.2,1.6c-0.4,0.2-0.6,0.2-0.8,0.6c-0.2,0.4,0.2,0.8,0.6,1.2c2.8,3,3.8,7.7,2.2,11.5
				c-0.2,0.4-0.4,1-0.8,1.2c-0.4,0.4-1,0.4-1.4,0.4c-3,0.4-5.9-0.4-8.7-1c-2-0.4-4-0.8-6.1-1.4c-0.2,0-0.6-0.2-0.8-0.4
				c-0.2-0.2-0.4-0.6-0.4-1c-0.2-4,1.4-8.3,4.7-11.1c-2.2,0.4-4.2,1.6-6.1,2.8c-0.4-0.8,0.2-2,1-2.2c-0.4,0.2-0.8,0.2-1.2,0.4
				c0.4-0.6,1-1,1.6-1.4c-0.4,0-0.8,0-1.2-0.2c0-1,0-2,0.6-2.6C83.8,139,84.4,138.8,84.8,138.6z"/>
			<path class="st2" d="M82.6,89.2c0.2,0,0.2,0,0.4,0c0.2,0.2,0.2,0.4,0,0.6c0,0.2-0.2,0.2-0.4,0.4c-0.4,0.2-0.6,0.4-1,0.6
				c0.6,0.4,1.2,0.8,1.6,1.6v0.2c0,0,0,0.2-0.2,0.2c-0.4,0.2-0.8,0-1.2-0.2c0,0.2,0,0.4,0,0.6v0.2c0,0.2-0.4,0.2-0.4,0
				c-0.2-0.2-0.2-0.4-0.2-0.4c-0.2,0.4,0.2,0.8-0.2,1c-0.2,0.2-0.4,0-0.6,0c-0.2-0.2-0.2-0.4-0.2-0.6c0.2,0.2-0.2,0.6-0.4,0.6
				c-0.2,0-0.4-0.2-0.6-0.6c0-0.2,0-0.6-0.2-0.8c-0.2-0.2-0.4-0.6-0.4-0.8c-0.2-0.6,0.2-1.2,0.6-1.6c0.4-0.4,1-0.6,1.6-0.6
				C81.4,89.2,82,89,82.6,89.2z"/>
			<path class="st4" d="M78,99.1c-0.6,0.4-1.4,0.8-2,1.4c-0.4,0.4-0.8,0.8-0.8,1.4c0,0.4,0,0.6,0.2,1c0.6,1.2,2,1.8,3.4,2
				c1,0.2,2.2,0,3.2-0.2c1-0.4,1.8-1,2.4-1.8c0.4-0.8,0.8-1.8,0.4-2.6c-0.2-0.4-0.8-0.8-1.2-1.2c-0.8-0.6-1.6-1-2.6-0.8
				C79.8,98.3,78.8,98.5,78,99.1z"/>
			<path class="st9" d="M79,100.6c-0.2,0.2-0.4,0.6-0.4,0.8c0,0.4,0.2,0.6,0.4,0.8c0.4,0.4,1,0.6,1.6,0.4c1-0.2,2-1.6,1-2.6
				C81,99.4,79.6,100,79,100.6z"/>
			<path class="st4" d="M101.8,103c0.2,0.2,0.2,0.6,0.6,0.6c0.2,0.2,0.6,0,0.8-0.2c0-0.2,0-0.4-0.2-0.6c-0.8-1.2-1.6-2.4-2.4-3.6
				c-0.2-0.2-0.6-0.8-0.8-0.6c-0.2,0.4,0.6,1.6,0.8,2C101,101.4,101.4,102.2,101.8,103z"/>
			<path class="st4" d="M97,100C97,100,96.8,100,97,100c-0.2,0.2,0,0.4,0.2,0.4c0.2,0,0.4,0.2,0.6,0.2s0.4,0,0.6-0.2
				C98.8,99.6,97.4,99.4,97,100z"/>
			<path class="st4" d="M97.8,101.2C97.6,101.2,97.6,101.2,97.8,101.2c-0.2,0.2,0,0.4,0.2,0.4c0.2,0,0.4,0.2,0.6,0.2
				c0.2,0,0.4,0,0.6-0.2C99.6,100.8,98.2,100.6,97.8,101.2z"/>
			<path class="st4" d="M98.6,102.4C98.4,102.4,98.4,102.4,98.6,102.4c-0.2,0.2,0,0.4,0.2,0.4c0.2,0,0.4,0.2,0.6,0.2
				c0.2,0,0.4,0,0.6-0.2C100.4,102,99,101.8,98.6,102.4z"/>
			<path class="st4" d="M99.2,103.6L99.2,103.6c-0.2,0.2,0,0.4,0.2,0.4c0.2,0,0.4,0.2,0.6,0.2c0.2,0,0.4,0,0.6-0.2
				C101.2,103.2,99.8,103,99.2,103.6z"/>
			<path class="st3" d="M86.3,87.2c-0.6,0.6-0.8,1.6-0.4,2.2c0.4,0.8,1.4,1,2.2,0.6c0.4-0.4,0.6-1,0.8-1.6c0.2-1.2,0.2-2.6-0.2-3.8
				c1.4,0,2.8-1.4,2.8-2.8c-0.8,0.6-2,1-3,1c-0.4,0-0.8,0-1.2,0.2c-0.4,0.4-0.4,0.8-0.2,1.2c0,0.4,0.4,1.6,0.2,2
				C87.1,86.8,86.5,86.8,86.3,87.2z"/>
			<path class="st3" d="M82.6,63.3c0.4,0,1,0,1.2,0.6c0.2,0.4,0.4,0.8,0.2,1.2c-0.2,0.4-0.6,0.6-1,0.8c-0.8,0-1.6-0.8-1.4-1.6
				C81.6,63.8,82,63.3,82.6,63.3z"/>
			<path class="st3" d="M89.7,63.3c0.4,0,1,0,1.2,0.6c0.2,0.4,0.4,0.8,0.2,1.2s-0.6,0.6-1,0.8c-0.8,0-1.6-0.8-1.4-1.6
				C88.9,63.8,89.3,63.3,89.7,63.3z"/>
		</g>
	</g>
	<g>
		<g>
			<path class="st1" d="M170.2,85.6c0,0,82.3-2.2,98.9,9.1s10.7,143.2,10.7,143.2s0,20.4-18.8,20.4c-4.7,0-35.4-1.4-68.6,0.8
				c-33,2.2-32.8,6.9-35.2-31.8C154.8,188.8,149,83.4,170.2,85.6z"/>
			<path class="st2" d="M176.5,91.9c0,0,71.6-2.2,86.6,8.5c15,10.7,9.7,131.7,9.7,131.7s0,19.2-17.2,19.2c-4.2,0-28.7-2.2-58.9-0.2
				c-30.1,2-29.9,8.1-32.2-28.3C162.5,186.3,157,89.6,176.5,91.9z"/>
			<path class="st0" d="M172.6,229.2c28.7,0.6,56.6,1.2,85.6-0.2"/>
			<path class="st10" d="M172.6,237.3c28.7,0.6,56.6,1.2,85.6-0.2"/>
			<path class="st10" d="M172.6,243.4c28.7,0.6,56.6,1.2,85.6-0.2"/>
			<g>
				<path class="st4" d="M260,152.3c-1.4,0.4-3,0.6-4.2,0c-1.4-0.8-2.2-2.2-2.6-3.6c-3.6,3.6-10.3,3.4-12.5-1.4
					c-1.6,1-4,1.2-5.9,0.2c-1.6-0.8-2-2.6-1.4-4c0.6-1.6,2.2-2.4,3.6-2.6c2.8-0.6,7.1,0,9.1,2.4c1.2-6.3,9.7-3.4,14.4,0
					c0.2-9.7-0.6-16.8-2.4-17.6c-6.5-3.2-83.9-9.7-83.9-1.6c0,0-0.4,5.7-0.8,14.4c3.4-2.4,7.9-3.4,10.1,0.2c1.8-2.2,4.5-3.8,7.1-4.7
					c4.7-1.4,9.7-0.6,14.2,1.6c1.6,0.8,3.6,2,4.5,3.8c0.8,1.6-0.2,3-1.4,3.8c1.8,2.4,2.4,5.5,0.2,7.9c-1.8,2.2-5.1,3.2-7.7,3
					c-1.4,0-2.8-0.4-4.2-1.2c-0.4-0.2-0.6-0.4-1-0.6c-0.2-0.2-0.8-0.8-1-0.8c-0.4,0-1.2,0.6-1.6,0.8c-0.4,0.2-0.8,0.4-1.2,0.6
					c-1.6,0.6-3.4,0.6-5.1,0c-1-0.4-1.8-1-2.6-1.8c-0.2-0.2-1-1.2-1.4-1.2c-0.4,0-1,0.8-1.4,1c-1.8,1.2-3.6,2.4-5.9,2.6
					c-0.8,0-1.6,0-2.4-0.2c-1,23.5-1.4,52.8,1.4,54.8c4.9,3.2,75.9,1.6,79.1-1.6C255,203.9,258.8,175,260,152.3L260,152.3z"/>
				<path class="st5" d="M253.5,164.1c-1.4-1.2-3.2-1.6-5.1-0.8c-1.4-0.6-3.2-1-4.5-0.2c-1.6,1-1.4,3.6-3,4.7c-1.2,0.8-3,0.2-4-0.6
					s-2-2.2-3.4-2.8c-1.2-0.8-3.2-0.8-4,0.6c-0.4,0.8-0.4,1.8-0.2,2.6c0.4,2.6,0.8,5.3,2,7.7c0.4,1,1,2,1.4,3
					c2.2,5.5-0.8,12.3-6.1,15.4c-1.6,1-3.4,1.6-5.5,1.6c-3.8-0.2-6.7-3.6-7.5-7.5c-0.2-1-0.2-2-0.8-2.8c-0.4-0.6-1-1-1.6-1.2
					c-1.8-0.8-4.2-1.2-5.5,0.4c-1.4,2.2,1.2,5.1,0.4,7.5c-1,0.4-2.2-0.4-2.8-1.2c-0.6-0.8-0.8-2-1.2-3c-1.4-3-5.1-4.7-8.1-3.8
					c-0.6,0.2-1.4,0.4-1.8,1c-1,1.8,1.6,3.8,1,5.9c-0.8,1-2.2,0-2.4-1.2c-0.2-1.2,0.4-2.4,0.2-3.4c-0.2-1.8-2.4-3-4-2.4
					c-1.6,0.6-2.2,3-1.2,4.5c-1.2,0.4-2.6-0.6-3.2-1.8c-0.6-1.2-0.8-2.4-1-3.8c-0.4-2-1.6-3.8-3.6-4.2c-2-0.4-4,1.8-3,3.6
					c-1.2-0.2-2.2-0.2-3.2,0.4s-1.6,1.8-1,2.8c-0.8-0.6-2,0-2.4,0.8s-0.2,2,0,2.8c0.4,1.4,1,2.8,1.6,4c0.2,0.4,0.6,1,0.8,1.4
					c0.4,1.6-0.2,3.2-0.6,4.7c-0.8,2.8-0.4,6.3,1.8,8.1c1.2,0.8,2.8,1.2,4.2,1.4c5.3,0.8,10.3,1.6,15.6,1.2c2.2-0.2,4.7-0.8,6.9-0.8
					c4.2,0,8.3,1.4,12.5,1.2c3.2-0.2,6.5-1.2,9.7-1.8c9.5-1.8,19.4,1,28.5-1.4c2-0.6,4-1.4,5.3-3s1.2-4.2-0.2-5.5
					c-0.8-0.6-2-1-2.4-2c-0.8-1.8,1.6-4,0.4-5.5c-0.8-1-2.6-1.4-2.4-2.6c0.2-0.4,0.6-0.6,1-1c1-0.6,2-1.4,2.6-2.4
					c0.6-1,0.6-2.4,0-3.4c-0.2-0.4-0.8-0.6-1-1c-0.4-0.8,0-1.8,0.4-2.8C255.4,174.2,256.6,166.9,253.5,164.1z"/>
				<path class="st6" d="M182.9,159.2c-1-0.6-2.2-0.2-3,0.6c-0.8,0.8-1,2-0.8,3c0-0.2-0.2-0.4-0.4-0.4c-0.2,0.4-0.2,0.8,0.2,1
					c-0.2,0.2,0,0.6,0.2,0.8c0.2,0.8,0.2,1.8-0.2,2.6c-0.2,0.4-0.6,0.6-0.8,0.8c-0.8,1-0.6,2.4-0.4,3.6c0,0.2,0,0.2,0.2,0.2
					c0,0,0.2,0,0.4,0c2.4-0.2,4.9-0.6,7.1-1.2c0.2,0,0.2,0,0.4-0.2c0,0,0.2-0.2,0.2-0.4c0.2-1.4-0.2-2.8-1.2-3.6
					c-0.2-0.2-0.4-0.2-0.6-0.4c-0.4-0.4-0.4-0.8-0.4-1.2c0-0.4,0-0.6,0.2-0.8c0.2-0.2,0.4-0.4,0.6-0.6c0.2-0.4-0.2-0.6-0.2-0.8
					c0-0.4,0.2-0.8,0-1.4C184,160.4,183.5,159.6,182.9,159.2z"/>
				<path d="M218.3,149.7c-1.6-4.5-3-9.3-4.2-14c-0.2-1.2-0.6-2.4-1.8-3c-0.6-0.2-1.2-0.2-1.8-0.4c-1-0.4-1.8-1.4-3-1.8
					c-1-0.4-2-0.4-3-0.2c-1.8,0.2-3.6,0.4-4.9,1.6c-2,2.2-0.8,5.7-1.4,8.7c-0.4,1.8-1.4,3.4-1.4,5.3c0,1.4,0.8,3-0.2,4.2
					c-0.6,0.8-1.8,1.2-1.6,2c0.4,0.2,1,0.4,1.4,0.6c2.2-0.2,3.8-1.6,5.3-3.2c0.8-0.8,1.4-1.8,2.4-1.8c0.4,0,0.8,0.2,1.2,0.2
					c1.4,0.4,3.2,0.2,4.7-0.4c0.4-0.2,0.8-0.4,1.2-0.4c0.2,0,0.6,0.2,0.8,0.2C214.3,147.5,216.9,148.1,218.3,149.7z"/>
				<path class="st2" d="M210.9,137.6c-0.6,0-1.4-0.2-2-0.6c-0.2,0.8-1.6,0.4-2,0c-1.2-0.4-2.2-1.2-2.8-2.2
					c-0.2,0.2-0.4,0.2-0.6,0.2c-2.2,0.8-1.6,5.7-1.2,7.5c0.4,2,2.2,4,4.2,4c1.4,0,2.6-0.8,3.6-1.6c0.4-0.4,0.8-0.8,1.2-1.4
					c0.2-0.4,0.2-1,0.4-1.6c0.2-1.4,0.2-2.8,0.2-4.2C211.3,137.8,211.1,137.6,210.9,137.6z"/>
				<path class="st2" d="M198.5,151.5c-1.4,0.4-2.6,2-2.2,3.6c0.2,0.8,0.8,1.6,1.2,2.4c1.2,1.6,2.2,3.2,3.4,4.7c0.4-0.4,1-0.8,1.6-1
					c-1-1.2-1.8-2.2-2.8-3.4c-0.6-0.8-1.2-1.6-1-2.4c0.2-0.6-0.2-1.4,0.4-1.8c1.2-1,1.6-1.2,3-1.8c-0.2,0.6,0,2.6,0,3.2
					c0.6-1.2,3.4-5.1,3.2-6.5c-0.2,0-1.4,0-1.6,0c-1.2,0.8-2.4,1.4-3.6,2.2C199.7,151.1,199.1,151.5,198.5,151.5"/>
				<path class="st2" d="M219.8,136.2c0.8-0.4,2.4-2.6,1.4-2.2l-1.4,0.6c0.6-0.4,1.4-1.6,0.6-1.2c-0.8,0.4-1.4,1-1.8,1.6
					c0.6-1.2,1-2.2-0.2-1.8c-0.8,0.4-1.4,1.4-1.2,2.4c-0.6,0-2.6,0.2-1.4,1c1.6,0.2,3,1.4,3.8,2.8c0.2,0.4,0.4,1,0.2,1.4
					c-0.2,0.4-0.4,0.6-0.6,0.8c-2.2,2-5.1,3.8-7.7,4.9c0,1.2-0.8,4.7,1.6,6.1c0.4-1,1.4-4.5,2.4-4.9c1.4-0.6,3-1.2,4.2-2.2
					s2.2-2.4,2.2-4C222,139.6,220.8,137.8,219.8,136.2z"/>
				<path class="st2" d="M204.4,154.6c0.8,1.4,2.4,2.8,4.2,1.8c1.6-1,2.4-3.2,2.8-4.9c0.4-1.6,0.4-3.2-0.2-4.9
					c-1.2,0.4-2.2,0.8-3.4,1.2c-1.4,0.4-2.8,0.8-4.2,1.2C203.8,151.1,203.6,153,204.4,154.6z"/>
				<path class="st3" d="M226,153.2c2.2-1,4.5-1.4,6.9-1.6c2.2-0.2,4.5-0.2,6.5,0.2c3,0.8,5.7,2.8,7.5,5.7c1.6,2.6,2.4,5.9,2.4,9.1
					c-7.3,0.4-14.6,0.6-21.8,0.6c-2,0-7.9,0.8-9.1-0.8c-1.2-1.6,0.6-5.5,1.4-7.1C221.2,156.6,223.4,154.4,226,153.2z"/>
				<path class="st2" d="M191,174c-0.2,0.4-0.4,1-0.2,1.4c0.2,0.2,0.6,0.4,0.8,0.4c2.4,0.6,4.9,0.6,7.5,0.8
					c8.1,0.2,16.2,0.2,24.1-1.8c-0.4-2.8-2.4-5.3-4.2-7.5c-0.2-0.2-0.4-0.4-0.6-0.6c-0.2-0.2-0.6-0.2-1-0.2c-5.5,0-11.1,0-16.6,0
					c-1.6,0-4.9-0.8-6.3,0.4C193.1,168.3,192,172.2,191,174z"/>
				<path class="st7" d="M206.6,178.6c0-1.2-2-1.6-2.6-0.6c0-0.6-0.6-1.2-1.2-1.2c-0.6,0-1.2,0.8-1,1.4c-0.6-0.6-1.6-0.6-2.4-0.2
					c-0.8,0.4-1.2,1.4-1,2.2c-0.4-0.4-1,0.2-1,0.6c0,0.4,0.2,1,0.4,1.4c-0.8,0.8-0.8,2.4,0.2,2.8c-0.4,0-1,0.2-1,0.6
					c0,0.4,0.2,1,0.8,1c-0.4,0.2-0.2,1,0,1.2c0.2,0.4,0.6,0.8,0.8,1.2c0.2,0.6,0,1.2,0,1.6c-0.2,2.6,3.2,3.6,4.5,5.9
					c0,0.2,0.2,0.2,0,0.4c0,0.2-0.2,0.4-0.4,0.4c-2.8,1.8-4.2,5.3-4,8.5c0,0.4,0.2,0.8,0.4,1c0.2,0.2,0.4,0.2,0.6,0
					c3.2,0,6.5-0.4,9.5-0.8c0.4,0,0.6-0.2,1-0.4c0.4-0.2,0.6-0.8,0.8-1.4c0.6-2.2,1-5.3-0.8-6.7c-0.8-0.6-2-0.8-3-1.4
					c-1-0.6-1.8-1.8-1.2-2.6c1.4,0.2,2.8-1.2,3-2.6c0.4-1.4,0-2.8-0.4-4.5c0.2,0.6,1.6-1.4,1.6-1.6c0.2-1.2-0.8-2-1.2-3
					C208.8,181.7,208.4,176.6,206.6,178.6z"/>
				<path class="st7" d="M252.3,166.1c0-0.6-1-0.8-1.2-0.4c0-0.4-0.2-0.6-0.6-0.6c-0.4,0-0.6,0.4-0.6,0.6c-0.4-0.2-0.8-0.4-1.2,0
					c-0.4,0.2-0.6,0.6-0.4,1c-0.2-0.2-0.4,0-0.6,0.2c0,0.2,0,0.4,0.2,0.6c-0.4,0.4-0.4,1.2,0.2,1.4c-0.2,0-0.4,0.2-0.4,0.4
					c0,0.2,0.2,0.4,0.4,0.4c-0.2,0.2-0.2,0.4,0,0.6c0.2,0.2,0.4,0.4,0.4,0.6c0,0.2,0,0.6,0,0.8c0,1.2,1.6,1.8,2,2.8v0.2
					c0,0.2-0.2,0.2-0.2,0.2c-1.4,0.8-2,2.4-1.8,4c0,0.2,0,0.4,0.2,0.4h0.2c1.6,0,3-0.2,4.7-0.4c0.2,0,0.4,0,0.4-0.2
					c0.2-0.2,0.2-0.4,0.4-0.6c0.4-1.2,0.6-2.4-0.4-3.2c-0.4-0.4-1-0.4-1.4-0.6c-0.4-0.2-0.8-0.8-0.6-1.2c0.6,0,1.4-0.6,1.4-1.2
					c0-0.6,0-1.4-0.2-2c0,0.2,0.8-0.6,0.8-0.8c0-0.6-0.4-1-0.6-1.4C253.3,167.3,253.1,164.9,252.3,166.1z"/>
				<path class="st3" d="M198.9,173.4c0-1.2-2-1.6-2.6-0.6c0-0.6-0.6-1.2-1.2-1.2c-0.6,0-1.2,0.8-1,1.4c-0.6-0.6-1.6-0.6-2.4-0.2
					c-0.8,0.4-1.2,1.4-1,2.2c-0.4-0.4-1,0.2-1,0.6c0,0.4,0.2,1,0.4,1.4c-0.8,0.8-0.8,2.4,0.2,2.8c-0.4,0-1,0.2-1,0.6
					c0,0.4,0.2,1,0.8,1c-0.4,0.2-0.2,1,0,1.2c0.2,0.4,0.6,0.8,0.8,1.2c0.2,0.6,0,1.2,0,1.6c-0.2,2.6,3.2,3.6,4.5,5.9
					c0,0.2,0.2,0.2,0,0.4c0,0.2-0.2,0.4-0.4,0.4c-2.8,1.8-4.2,5.3-4,8.5c0,0.4,0.2,0.8,0.4,1c0.2,0.2,0.4,0.2,0.6,0
					c3.2,0,6.5-0.4,9.5-0.8c0.4,0,0.6-0.2,1-0.4c0.4-0.2,0.6-0.8,0.8-1.4c0.6-2.2,1-5.3-0.8-6.7c-0.8-0.6-2-0.8-3-1.4
					s-1.8-1.8-1.2-2.6c1.4,0.2,2.8-1.2,3-2.6c0.4-1.4,0-2.8-0.4-4.5c0.2,0.6,1.6-1.4,1.6-1.6c0.2-1.2-0.8-2-1.2-3
					C201.1,176.2,200.7,171.2,198.9,173.4z"/>
				<path class="st3" d="M252.1,168.5c-0.4,0.2-0.8,0.4-1.2,0.6c0.6,0,1,0.6,1.2,1.2s0.2,1.2,0.4,1.8c0.2,0.6,1,1,1.6,0.6
					c0.2,0.6,0.2,1.4,0.4,2c-1.2,1.2-2.4,2.2-3.2,3.8c-0.6,1.6-0.6,3.6-0.4,5.5c0,0.4,0,0.8,0.4,1c0.2,0.2,0.6,0.2,1,0.2
					c1.4,0,2.8-0.2,4.2-0.2c0.4,0,0.6-0.2,1-0.4c0.4-0.2,0.4-0.8,0.6-1.2c1-5.5,1.2-11.3,0.2-16.8c-0.4-1.8-1-3-3-2.8
					c-1.2,0-2.2,0.6-2.6,1.6C252.3,166.1,251.9,168.7,252.1,168.5z"/>
				<path class="st3" d="M173,165.3c-0.4,0.2-0.8,0.4-1.2,0.6c0.6,0,1,0.6,1.2,1.2c0.2,0.6,0.2,1.2,0.4,1.8c0.2,0.6,1,1,1.6,0.6
					c0.2,0.6,0.2,1.4,0.4,2c-1.2,1.2-2.4,2.2-3.2,3.8c-0.6,1.6-0.6,3.6-0.4,5.5c0,0.4,0,0.8,0.4,1c0.2,0.2,0.6,0.2,1,0.2
					c1.4,0,2.8-0.2,4.2-0.2c0.4,0,0.6-0.2,1-0.4c0.4-0.2,0.4-0.8,0.6-1.2c1-5.5,1.2-11.3,0.2-16.8c-0.4-1.8-1-3-3-2.8
					c-1.2,0-2.2,0.6-2.6,1.6C173,162.9,172.8,165.5,173,165.3z"/>
				<path class="st2" d="M249.5,166.9c0.4,0.2,0.8,0.4,1.2,0.6c-0.6,0-1,0.6-1.2,1.2c-0.2,0.6-0.2,1.2-0.4,1.8c-0.2,0.6-1,1-1.6,0.6
					c-0.2,0.6-0.2,1.4-0.4,2c1.2,1.2,2.4,2.2,3.2,3.8c0.6,1.6,0.6,3.6,0.4,5.5c0,0.4,0,0.8-0.4,1c-0.2,0.2-0.6,0.2-1,0.2
					c-1.4,0-2.8-0.2-4.2-0.2c-0.4,0-0.6-0.2-1-0.4c-0.4-0.2-0.4-0.8-0.6-1.2c-1-5.5-1.2-11.3-0.2-16.8c0.4-1.8,1-3,3-2.8
					c1.2,0,2.2,0.6,2.6,1.6C249.5,164.5,249.7,167.1,249.5,166.9z"/>
				<path class="st7" d="M231.7,172c2.6-2.6-0.4-6.9,2.6-9.7c1.2-1,3.6-1.8,5.1-1.4c1.4,0.4,2,2,2.4,3.4c0.2,1.4,0.4,3,1.4,4
					c0.8,0.8,2,1.2,3.2,1.6c-1,0.6-1.8,1.2-2.8,2c-0.2,0.2-0.4,0.4-0.4,0.6c0,0.4,0.4,0.6,0.6,0.8c2.6,1.6,4,5.1,3.6,8.1
					c0,0.4-0.2,0.8-0.4,1c-0.2,0.4-0.6,0.4-1,0.6c-2,0.8-4.5,0.8-6.7,0.8c-1.6,0-3,0-4.7,0c-0.2,0-0.4,0-0.6,0
					c-0.2-0.2-0.4-0.4-0.4-0.6c-0.8-3-0.4-6.3,1.4-8.9c-1.6,0.6-2.8,2-4,3.2c-0.4-0.6-0.2-1.4,0.4-1.8c-0.2,0.2-0.6,0.4-0.8,0.4
					c0.2-0.4,0.6-1,1-1.2c-0.4,0-0.6,0-1,0.2c-0.2-0.6-0.4-1.4,0-2C231.1,172.4,231.5,172.2,231.7,172z"/>
				<path class="st8" d="M203.8,180.5c3.2-2,1.2-6.9,4.9-8.7c1.2-0.6,3.8-0.8,5.3-0.2c1.2,0.6,1.6,2.4,1.6,3.8c0,1.4-0.2,3,0.4,4.2
					c0.6,1,1.6,1.6,2.8,2.2c-1,0.4-2.2,0.8-3.2,1.2c-0.2,0-0.6,0.2-0.6,0.4c-0.2,0.4,0.2,0.6,0.4,0.8c2.2,2.2,2.8,5.9,1.6,8.7
					c-0.2,0.4-0.4,0.6-0.6,1c-0.4,0.2-0.8,0.4-1.2,0.4c-2.2,0.2-4.5-0.2-6.7-0.8c-1.4-0.4-3-0.6-4.5-1c-0.2,0-0.4,0-0.6-0.2
					c-0.2-0.2-0.2-0.4-0.2-0.8c-0.2-3,1.2-6.3,3.4-8.3c-1.6,0.2-3.2,1.2-4.7,2.2c-0.2-0.6,0.2-1.4,0.8-1.6c-0.2,0-0.6,0.2-0.8,0.2
					c0.4-0.4,0.8-0.8,1.2-1c-0.4,0-0.6,0-1,0c0-0.8,0-1.6,0.4-2C203,180.9,203.4,180.7,203.8,180.5z"/>
				<path class="st7" d="M175.9,167.7c0.8-1.6,2.6-2.8,4.2-2.6c1.2,0.2,2.2,1.2,2.8,2.4c0.6,1.2,0.8,2.4,1,3.6
					c0.4,1.8,0.8,3.6,1.2,5.3c0.2,0.6,0.6,1.6,1.2,1.6c0.4,0,0.8-0.2,1.2-0.2c0.8,0,1.2,1,1.4,1.6c0.2,0.8,0.4,1.6,0.6,2.2
					c0.2,0.8,0.4,1.6-0.2,2.2c-0.2,0.4-0.8,0.4-1,0.8c-0.6,0.6-0.6,1.4-0.8,2c-0.6,2-2.6,3.2-4.7,3.2c-2,0-4-1-5.5-2.4
					c-2.8-2.6-1.4-5.7-2.2-9.1C174.6,175,173.8,171.2,175.9,167.7z"/>
				<path class="st6" d="M190.4,188.8c0.8-1.6,2.6-2.8,4.2-2.6c1.2,0.2,2.2,1.2,2.8,2.4c0.6,1.2,0.8,2.4,1,3.6
					c0.4,1.8,0.8,3.6,1.2,5.3c0.2,0.6,0.6,1.6,1.2,1.6c0.4,0,0.8-0.2,1.2-0.2c0.8,0,1.2,1,1.4,1.6c0.2,0.8,0.4,1.6,0.6,2.2
					c0.2,0.8,0.4,1.6-0.2,2.2c-0.2,0.4-0.8,0.4-1,0.8c-0.6,0.6-0.6,1.4-0.8,2c-0.6,2-2.6,3.2-4.7,3.2s-4-1-5.5-2.4
					c-2.8-2.6-1.4-5.7-2.2-9.1C189.2,196,188.4,192.2,190.4,188.8z"/>
				<path class="st9" d="M188.6,160c0.8-0.4,1.6-0.6,2.4-0.4c1,0.2,1.8,1.2,2.2,2c0.4,0.8,0.4,2,0.6,3c0.2,3.2,0.2,6.7-1.8,9.1
					c-0.6,0.8-1.6,1.6-1.2,2.6c0.4,1.2,2,1,3.2,1.4c1,0.6,1.4,1.8,1.8,2.8c0.6,2.8,0.4,6.5-2,8.3c-2.2,1.4-5.5,0.6-7.5-1.2
					c-2.2-2.2-3-5.5-2.2-8.3c0.4-1.8,1.4-3.6,0.6-5.3c-0.4-0.6-1-1-1.4-1.6c-1.6-2-0.4-4.7,0.2-6.7C184.2,163.3,186,161,188.6,160z"
					/>
				<path class="st4" d="M228.9,165.1c0-1.4-0.6-2.8-1.8-3.4c-0.6-0.2-1-0.2-1.6-0.2c-1.4,0-3,0.4-3.8,1.6c-0.4,0.8-0.4,1.6-0.6,2.6
					c-0.2,1-0.6,1.8-1.4,2c0.8,0.4,0.6,1.4,0.6,2.2c0,0.8,0.4,1.8,1.2,1.8c-0.2,2.8-3.2,5.5-2.4,8.1c-1.4,0-2.6-0.2-4-0.2
					c-0.2,0-0.4,0-0.6-0.2s-0.4-0.4-0.6-0.6c-0.4-0.6-0.6-1.2-1-1.8c-0.4-0.6-0.8-1.2-1.4-1.4c-0.6-0.2-1.2,1.2-0.4,1.4
					c-0.4-0.2-0.8,0.4-0.6,0.8c0.2,0.4,0.6,0.6,1,1c0.8,0.6,1.4,1.4,2,2c2,2,5.9,2,7.9-0.2c-1,2-1.4,4.9,0.2,6.5
					c1,0.8,2.2,1.2,3.4,1c2-0.2,3.8-1.2,5.1-2.8c1-1.4,1.6-3,1.8-4.7c0.4-2.8,0-5.9-1-8.5c-0.4-1.2-1.4-2.2-2-3.4
					C228.5,167.7,228.9,166.3,228.9,165.1z"/>
				<path class="st3" d="M224,204.1c0,0.2,0,0.4,0,0.6c2.2-3,0.2-6.5,1.2-9.7c1-3.2,1.8-6.7-0.4-9.9c-1.6-2.4-7.9-5.7-9.5-1.8
					c-0.2,0.6-0.2,1.2,0.2,1.8c0.2,0.2,0.8,0.6,0.6,1c0,0.2-0.2,0.2-0.4,0.2c-0.4,0.2-0.8,0.8-0.6,1.2c0.2,0.4,0.4,1,1,1
					c-0.2,0.8-1.4,1.4-1.2,2.4c0.2,0.8,1.2,1,1.6,1.6c0.8,1-0.6,2.6,0,3.8c0.4,0.6,1,0.6,1.6,0.8"/>
				<path class="st6" d="M244.6,179c-2.4-1.4-5.7-0.6-7.7,1.4c-1.8,2-2.4,5.1-1.8,7.9c0-0.6-0.6-1-1-1c-0.6,0.8-0.4,2,0.2,2.8
					c-0.6,0.6-0.2,1.8,0.6,1.8c0.4,2.2,0.8,4.9-0.6,6.7c-0.6,0.8-1.4,1.4-2,2.2c-2,2.4-1.6,6.1-1,9.3c0,0.2,0.2,0.6,0.4,0.8
					c0.2,0.2,0.6,0.2,0.8,0.2c6.1-0.4,12.1-1.4,18-3c0.2,0,0.6-0.2,0.8-0.4c0.2-0.2,0.4-0.6,0.4-1c0.4-3.4-0.4-7.3-3.2-9.1
					c-0.6-0.4-1.2-0.6-1.6-1c-0.8-0.8-1-2-1-3c0-0.8-0.2-1.6,0.4-2.2c0.4-0.6,1.2-0.8,1.8-1.4c0.8-0.8-0.4-1.4-0.4-2
					c-0.2-1,0.2-2.2,0.2-3.2C247.5,182.3,246.7,180.1,244.6,179z"/>
				<path class="st7" d="M227.4,183.5c-1.8,1.4-3,3.4-3.2,5.7c0,1.6,0.4,3,0.4,4.7s-0.2,3.2-1.4,4.2c0.6-0.2,1.4-0.4,2-0.8
					c0.6,0.6,0.8,1.2,0.8,2c-1.6,0.8-2.8,2.4-3.2,4.2c-0.4,1.8-0.4,3.6-0.4,5.5c0,0.6,0,1.2,0.4,1.6c0.4,0.4,1,0.8,1.6,0.4
					c0.2-0.2,0.4-0.8,0.4-1c0.2-2,0.8-4,1.8-5.9c-0.4,1.4-0.8,2.8-0.8,4.2c0,0.6,0,1.4,0.4,2c0.4,0.8,1.4,1.4,2.4,1.4s2-0.2,2.8-0.4
					c0.4-0.2,1-0.2,1.4-0.6c0.2-0.2,0.4-0.6,0.6-0.8c0.8-1.8,1-3.8,0.8-5.7c0.4,1.6,0.8,3.2,1.2,4.9c0.2,0.8,0.4,1.6,1.2,1.8
					c0.6,0.2,1.4-0.2,1.8-1c0.4-0.6,0.4-1.4,0.2-2c0-1.4,0-2.6,0-4c0-1.4,0-2.8-0.4-4.2c-0.4-1.4-1.4-2.6-2.6-3
					c0.4,0.4,1,0.8,1.6,0.8c0.6,0,1.4-0.2,1.4-1c-0.8-0.2-1.6-1-1.6-1.8c-0.2-0.8,0-1.8,0-2.6c0.2-2.6,0.2-7.5-2.6-8.9
					C231.9,181.5,229.3,182.1,227.4,183.5z"/>
				<path class="st3" d="M190.4,191c0.6,0.8,1.2,2,0.4,2.4c1.2,0.8,2.4,2.2,1.8,3.4c-0.2,0.6-0.8,1-1,1.6c-0.2,0.6-0.2,1.4,0.6,1.6
					c1.2,0,2.2-1,2.8-2c0.8-1,1.6-2.2,1.8-3.4s0-2.8-1.2-3.6c-0.4-0.2-0.8-0.4-1.2-0.6c-0.4-0.4-0.6-0.8-0.2-1.2
					c0.4-0.2,0.8,0,1,0.2c0.2-1,0.6-1.8,1.4-2.6c0.4,0.4,0.4,1,0.2,1.4c0.2-0.4,0.4-0.6,0.8-0.6c0.4,2.4,1,4.9,1.4,7.3
					c0.2,0.8,0.4,1.8,0.2,2.6c-0.2,1.6-1.6,2.8-2.8,4c-0.6,0.6-1,1-1.2,1.8c-0.2,0.6,0,1,0,1.6c0.4,2.4,1,4.9,1.6,7.3
					c-2.6,0.4-5.1,0.4-7.7,0c-0.4,0-0.6-0.2-0.8-0.4c-0.2-0.2-0.4-0.6-0.4-1c-0.4-2-1-4.2-1.4-6.3c-1.6,1.8-2,4.9-0.8,7.1
					c-0.8,0-1.6,0-2.4,0c-1-2-1-4.7,0-6.7c0.8-1.8,2.4-3.2,2.2-5.3c-1.2,0.2-3,0-3.4-1.2c-0.2-1,0.4-1.8,0.4-2.8
					c0-1.6-2-2.6-3.6-2.8c-0.2,0-0.6-0.2-0.8-0.4c-0.2-0.2,0-0.6,0.2-1c0.6-1,1.2-2,2-3c-0.8-0.4-1.4-1-1.6-1.8c0,0,3.6-2,4-2
					c1.2-0.2,2.4,0.2,3.4,1C187.6,187.1,188.8,189.4,190.4,191z"/>
				<path class="st8" d="M244,194.4c3.2-2,1.2-6.9,4.9-8.7c1.2-0.6,3.8-0.8,5.3-0.2c1.2,0.6,1.6,2.4,1.6,3.8c0,1.4-0.2,3,0.4,4.2
					c0.6,1,1.6,1.6,2.8,2.2c-1,0.4-2.2,0.8-3.2,1.2c-0.2,0-0.6,0.2-0.6,0.4c-0.2,0.4,0.2,0.6,0.4,0.8c2.2,2.2,2.8,5.9,1.6,8.7
					c-0.2,0.4-0.4,0.6-0.6,1c-0.4,0.2-0.8,0.4-1.2,0.4c-2.2,0.2-4.5-0.2-6.7-0.8c-1.4-0.4-3-0.6-4.5-1c-0.2,0-0.4,0-0.6-0.2
					c-0.2-0.2-0.2-0.4-0.2-0.8c-0.2-3,1.2-6.3,3.4-8.3c-1.6,0.2-3.2,1.2-4.7,2.2c-0.2-0.6,0.2-1.4,0.8-1.6c-0.2,0-0.6,0.2-0.8,0.2
					c0.4-0.4,0.8-0.8,1.2-1c-0.4,0-0.6,0-1,0c0-0.8,0-1.6,0.4-2C243.2,194.8,243.6,194.6,244,194.4z"/>
				<path class="st2" d="M207,145.3c0,0,2,2,3.4,1.8c1.4-0.2-3.4,4.7-3.4,4.7l-3.2-3.2c0,0,1.6,0,1.6-3.2
					C205.4,142,207,145.3,207,145.3z"/>
				<path class="st6" d="M213.1,152.6L213.1,152.6c0-0.2-0.2-0.2-0.2-0.2c-0.4-0.4-0.8-1-1-1.4c-0.2-0.6-0.4-1.4-0.4-2
					c0-0.4-0.2-0.8-0.2-1.4c0-0.2,0-0.6,0-0.8c-0.2,0-0.6,0-0.6,0.2c0.2,1.2,0,2.4-0.4,3.4c-0.4,1.4-1.2,3-2.4,3.6
					c-1.2,0.4-2.2-0.4-2.8-1.4c-0.8-1.2-1.2-2.8-1.2-4.2c-0.4,0-0.4,0.4-0.8,0.8c0.2,1.8,0.2,4-0.8,5.7c0,1.2,0.2,2.4,0.8,3.4
					c0.2,0.4,0.4,0.8,0.6,1.4c0.2,0.4,0.2,1,0,1.4l0.2,5.9c3.2,0,6.1,0.4,9.3,0c-1.6-1.6-1.2-5.1-0.6-7.3
					C213.1,157.2,213.9,154.8,213.1,152.6z"/>
				<path d="M204.8,141.2c0,0.2,0.2,0.2,0.2,0.2c0.2,0,0.2,0,0.4,0c0.2,0,0.2-0.2,0.2-0.4c0-0.2,0.2-1.4-0.4-1.2
					C204.6,140,204.6,141,204.8,141.2z"/>
				<path d="M207.4,141.2c0,0.2,0.2,0.2,0.2,0.2s0.2,0,0.4,0c0.2,0,0.2-0.2,0.2-0.4c0-0.2,0.2-1.4-0.4-1.2
					C207.2,140,207.4,140.8,207.4,141.2z"/>
				<path class="st6" d="M205.6,144.1L205.6,144.1c0-0.2,0-0.2,0-0.2c0.2,0,0.2,0,0.4,0h0.2c0,0,0.2,0,0.2,0.2
					c0-0.2,0.2-0.2,0.4-0.2h0.2c0.2,0,0.2,0.2,0.2,0.4C207,144.5,206,144.3,205.6,144.1z"/>
				<path class="st7" d="M179.1,185.1c0-1.2-2-1.6-2.6-0.6c0-0.6-0.6-1.2-1.2-1.2s-1.2,0.8-1,1.4c-0.6-0.6-1.6-0.6-2.4-0.2
					c-0.8,0.4-1.2,1.4-1,2.2c-0.4-0.4-1,0.2-1,0.6s0.2,1,0.4,1.4c-0.8,0.8-0.8,2.4,0.2,2.8c-0.4,0-1,0.2-1,0.6c0,0.4,0.2,1,0.8,1
					c-0.4,0.2-0.2,1,0,1.2c0.2,0.4,0.6,0.8,0.8,1.2c0.2,0.6,0,1.2,0,1.6c-0.2,2.6,3.2,3.6,4.5,5.9c0,0.2,0.2,0.2,0,0.4
					c0,0.2-0.2,0.4-0.4,0.4c-2.8,1.8-4.2,5.3-4,8.5c0,0.4,0.2,0.8,0.4,1c0.2,0.2,0.4,0.2,0.6,0c3.2,0,6.5-0.4,9.5-0.8
					c0.4,0,0.6-0.2,1-0.4c0.4-0.2,0.6-0.8,0.8-1.4c0.6-2.2,1-5.3-0.8-6.7c-0.8-0.6-2-0.8-3-1.4c-1-0.6-1.8-1.8-1.2-2.6
					c1.4,0.2,2.8-1.2,3-2.6c0.4-1.4,0-2.8-0.4-4.5c0.2,0.6,1.6-1.4,1.6-1.6c0.2-1.2-0.8-2-1.2-3
					C181.3,188.2,180.9,183.1,179.1,185.1z"/>
				<path class="st9" d="M205.4,198.3c3.2-2,1.2-6.9,4.9-8.7c1.2-0.6,3.8-0.8,5.3-0.2c1.2,0.6,1.6,2.4,1.6,3.8c0,1.4-0.2,3,0.4,4.2
					c0.6,1,1.6,1.6,2.8,2.2c-1,0.4-2.2,0.8-3.2,1.2c-0.2,0-0.6,0.2-0.6,0.4c-0.2,0.4,0.2,0.6,0.4,0.8c2.2,2.2,2.8,5.9,1.6,8.7
					c-0.2,0.4-0.4,0.6-0.6,1c-0.4,0.2-0.8,0.4-1.2,0.4c-2.2,0.2-4.5-0.2-6.7-0.8c-1.4-0.4-3-0.6-4.5-1c-0.2,0-0.4,0-0.6-0.2
					c-0.2-0.2-0.2-0.4-0.2-0.8c-0.2-3,1.2-6.3,3.4-8.3c-1.6,0.2-3.2,1.2-4.7,2.2c-0.2-0.6,0.2-1.4,0.8-1.6c-0.2,0-0.6,0.2-0.8,0.2
					c0.4-0.4,0.8-0.8,1.2-1c-0.4,0-0.6,0-1,0c0-0.8,0-1.6,0.4-2C204.6,198.5,205,198.5,205.4,198.3z"/>
				<path class="st2" d="M203.6,161h0.2c0.2,0,0.2,0.2,0,0.4c0,0.2-0.2,0.2-0.4,0.2c-0.2,0.2-0.4,0.2-0.8,0.4
					c0.4,0.2,0.8,0.6,1.2,1.2c0,0,0,0,0,0.2c0,0,0,0.2-0.2,0.2c-0.2,0.2-0.6,0-0.8-0.2c0,0.2,0,0.4,0,0.4v0.2c0,0.2-0.2,0.2-0.4,0
					c-0.2,0-0.2-0.2-0.2-0.4c-0.2,0.2,0.2,0.6-0.2,0.8c-0.2,0-0.2,0-0.4,0c-0.2,0-0.2-0.2-0.2-0.4c0,0.2,0,0.4-0.2,0.4
					s-0.4-0.2-0.4-0.4s0-0.4-0.2-0.6c0-0.2-0.2-0.4-0.4-0.6c-0.2-0.4,0-1,0.4-1.2c0.4-0.4,0.8-0.4,1.2-0.6
					C202.8,161,203.2,161,203.6,161z"/>
				<path class="st4" d="M200.1,168.5c-0.6,0.2-1,0.6-1.4,1c-0.2,0.2-0.6,0.6-0.6,1c0,0.2,0,0.4,0.2,0.6c0.4,0.8,1.6,1.4,2.6,1.4
					c0.8,0,1.6,0,2.4-0.2c0.8-0.2,1.4-0.8,1.8-1.4c0.4-0.6,0.6-1.4,0.2-2c-0.2-0.4-0.6-0.6-0.8-0.8c-0.6-0.4-1.2-0.8-2-0.6
					C201.5,167.9,200.7,168.1,200.1,168.5z"/>
				<path class="st9" d="M200.9,169.5c-0.2,0.2-0.2,0.4-0.2,0.6c0,0.2,0.2,0.4,0.2,0.6c0.4,0.2,0.8,0.4,1.2,0.2
					c0.8-0.2,1.4-1.2,0.8-2C202.6,168.7,201.3,169.1,200.9,169.5z"/>
				<path class="st4" d="M218.1,171.4c0.2,0.2,0.2,0.4,0.4,0.6c0.2,0.2,0.6,0,0.6-0.2c0-0.2,0-0.4-0.2-0.4c-0.6-0.8-1.2-1.8-1.8-2.8
					c0-0.2-0.4-0.6-0.6-0.4c-0.2,0.2,0.4,1.2,0.6,1.4C217.5,170.4,217.9,171,218.1,171.4z"/>
				<path class="st4" d="M214.5,169.1C214.5,169.1,214.3,169.1,214.5,169.1c0,0.2,0,0.4,0.2,0.4s0.2,0.2,0.4,0.2
					c0.2,0,0.4,0,0.4-0.2C215.9,168.9,214.7,168.7,214.5,169.1z"/>
				<path class="st4" d="M215.1,169.9C215.1,170.1,214.9,170.1,215.1,169.9c0,0.2,0,0.4,0.2,0.4s0.2,0.2,0.4,0.2
					c0.2,0,0.4,0,0.4-0.2C216.5,169.7,215.3,169.7,215.1,169.9z"/>
				<path class="st4" d="M215.7,171C215.5,171,215.5,171,215.7,171c0,0.2,0,0.4,0.2,0.4c0.2,0,0.2,0.2,0.4,0.2c0.2,0,0.4,0,0.4-0.2
					C217.1,170.8,215.9,170.6,215.7,171z"/>
				<path class="st4" d="M216.3,171.8C216.1,172,216.1,172,216.3,171.8c0,0.2,0,0.4,0.2,0.4c0.2,0,0.2,0.2,0.4,0.2
					c0.2,0,0.4,0,0.4-0.2C217.7,171.6,216.5,171.6,216.3,171.8z"/>
				<path class="st3" d="M206.4,159.6c-0.4,0.4-0.6,1.2-0.4,1.8c0.2,0.6,1,0.8,1.6,0.4c0.4-0.2,0.6-0.8,0.6-1.2c0.2-1,0.2-2,0-2.8
					c1.2,0,2-1,2.2-2.2c-0.6,0.4-1.4,0.8-2.2,0.8c-0.4,0-0.6,0-0.8,0.2c-0.2,0.2-0.2,0.6-0.2,1c0,0.4,0.4,1.2,0.2,1.6
					C207,159.2,206.6,159.2,206.4,159.6z"/>
				<path class="st3" d="M203.6,141.6c0.4,0,0.8,0,1,0.4c0.2,0.2,0.2,0.6,0,1c-0.2,0.4-0.4,0.6-0.8,0.6c-0.6,0-1.2-0.6-1-1.2
					C203,141.8,203.4,141.6,203.6,141.6z"/>
				<path class="st3" d="M209,141.6c0.4,0,0.8,0,1,0.4c0.2,0.2,0.2,0.6,0,1c-0.2,0.4-0.4,0.6-0.8,0.6c-0.6,0-1.2-0.6-1-1.2
					C208.4,141.8,208.6,141.6,209,141.6z"/>
			</g>
			<path class="st11" d="M186.4,111.7c0,1,0,2.2,1,2.8c0.8,0.4,1.6-0.2,2-0.8c0.4-0.6,0.6-1.6,0.6-2.4c-0.4,1.4,1.2,2.6,1.4,4
				c0.2,1-0.4,2-1.2,2.4c-0.8,0.4-2,0.2-2.6-0.6"/>
			<path class="st11" d="M195.7,111.3c-1.2-0.6-2.4,0.8-2.8,2c-0.4,1.4-0.4,3.2,0.8,3.6c0.8,0.4,1.6,0.2,2.2-0.4s1-1.2,1-2
				c0.2-0.8,0.2-1.6-0.2-2.4c-0.4-0.8-1-1.2-1.8-1.4"/>
			<path class="st11" d="M197.7,110.9c0,1-0.2,2,0,3s0.8,2,1.8,2c0.4,0,1-0.4,1.4-0.6c1.2-1,1.4-2.8,0.8-4.5"/>
			<path class="st11" d="M203.4,117.2c-0.4-1.8-0.2-3.8,0.8-5.5c0.4-0.6,1.2-1.2,1.8-0.6"/>
			<path class="st11" d="M208.2,109.3c0.2,2.4,0.4,5.1,0.6,7.5c-0.6-2,0.6-4.5,2.6-5.3c0.6-0.2,1.2-0.2,1.6,0
				c0.2,0.2,0.4,0.4,0.6,0.8c0.8,1.8-0.6,4.2-2.6,4.7c-1,0.2-2.2-0.4-2.4-1.4"/>
			<path class="st11" d="M214.7,111.9c0.2,1.6,0.4,3.2,0.4,4.9c-0.2-1.2-0.4-2.4,0.2-3.4c0.4-1,1.8-1.8,2.8-1c0.6-0.8,3.6-1,4.5-0.6
				c0.8,0.6,1.4,1.6,1.4,2.6c0.2,1,0,2-0.2,3c0.4-1.2,0.2-2.8-1-3.6c-1.2-0.8-2.8-0.6-3.4,0.8c-0.4,1,0.4,2.2,1.4,2.6
				c1,0.2,2.2-0.2,2.8-1.2"/>
			<path class="st12" d="M274,111.1c0.8,0.4,2,0.4,2.8-0.2"/>
			<path class="st11" d="M225.8,112.3c0,1.6,0,3.4,0,5.1c0.2-1.2,0.2-2.2,0.8-3.2c0.6-1,1.6-1.8,2.8-1.8c0.4,1.6,0.4,3.2,0.2,4.9"/>
			<path class="st11" d="M235.3,113.3c-0.4-0.6-1.2-1-2-0.8c-0.8,0.2-1.4,0.8-1.8,1.4c-0.6,0.8-0.8,2.2-0.2,2.8
				c0.8,0.6,2,0.2,2.6-0.4c0.6-0.8,0.8-1.8,0.8-2.8c0.2-1.2,0.2-2.6,0.4-3.8c0,2.6,0,5.5,0,8.1"/>
			<path class="st13" d="M180.1,218.1c-0.2-0.6-0.4-1.4-1-1.8c-0.8-0.6-2,0-2.4,1c-0.4,1,0,2,0.6,2.8c0.6,0.8,1.6,1.4,2.4,1.8
				c0.2,0.2,0.6,0.4,0.8,0.4c0.4,0,0.6-0.2,1-0.4c0.8-0.6,1.8-1.4,2.2-2.4c0.4-1,0.2-2.4-0.8-3c-1-0.6-2.4,0.2-2.2,1.4"/>
			<path class="st13" d="M190.6,215.5c1.2-0.2,2.4,0.8,2.6,2.2c0,1.2-0.8,2.4-1.8,3c0.2,0.4,0.4,1,0.6,1.4c-1,0-2-0.4-2.8-1.2
				c-0.8,0.6-2,0.4-2.8-0.2c-0.8-0.6-1-1.8-1-2.8c0.2-1.4,1.2-2.6,2.4-3c1.2-0.4,2.8-0.2,3.8,0.6
				C190.4,214.6,191.8,215.3,190.6,215.5z"/>
			<path class="st13" d="M195.3,215.1c2.6,0,5.5,0,8.1-0.2c-2,2.2-3.8,4.7-5.5,7.3c-0.6-0.8-1.2-1.8-1.6-2.6c1-1.2,2.4-2,3.8-2.6
				c-1.2,0.6-2.4,1.2-3.8,1.6c-0.6-0.8-1-1.8-1-2.8"/>
			<path class="st13" d="M255.4,212.2c-1.6,0-3,0-4.7,0c-0.2,0-0.4,0-0.6,0.2s-0.2,0.4-0.2,0.6c0.2,2.4,0.2,4.9,0.4,7.5
				c0.8-1,1.6-2.2,2.2-3.2c0.4,0.8,1,1.8,1.4,2.6c0.2,0.4,0.6,0.8,0.8,0.6c0.4-0.2,0.4-0.6,0.4-0.8c0-2.2,0-4.5,0-6.7"/>
			<path class="st3" d="M175.1,113.5c0.4,3.4,2.4,4.7,5.1,4.7s4.7-2.4,4.7-5.1s-1.4-4.9-5.1-4.7
				C176.9,108.5,174.6,110.9,175.1,113.5z"/>
			<path d="M180.5,113.1c0,0.2,0.2,0.2,0.4,0.2c0.2,0,0.2-0.2,0.4-0.2c0.2-0.4,0.2-1,0.2-1.6c0-0.6-0.6-1.2-1-0.6
				C179.9,111.5,180.1,112.7,180.5,113.1z"/>
			<path class="st2" d="M176.7,114.5c0,0,0.2,2.6,2.6,2.4c2.2,0,4-1.4,4.2-2.6C183.3,113.1,176.7,114.5,176.7,114.5z"/>
			<g>
				<path class="st5" d="M179.1,101.6v-4.7c0,0,1-0.4,1,0s0,4.7,0,4.7S179.1,102,179.1,101.6z"/>
			</g>
			<g>
				<path class="st14" d="M209.2,97.7c0.4-0.4,0.6-0.8,0.8-1.2c0,1,0,2,0.2,3v0.2c0,0,0.2,0,0,0"/>
				<path class="st14" d="M211.3,96.9c0.2-0.4,0.6-0.6,1-0.4c0.4,0.2,0.6,0.4,0.6,0.8c0,0.4-0.2,0.8-0.4,1c-0.2,0.4-0.6,0.8-0.8,1.2
					c0.4,0,1,0,1.4,0"/>
				<path class="st14" d="M214.9,96.7L214.9,96.7"/>
				<path class="st14" d="M214.9,100L214.9,100"/>
				<path class="st14" d="M217.9,96.3c-0.2,0-0.4,0-0.6,0c-1.2,0.4-1,2.2-0.2,2.8c0.2,0.2,0.4,0.2,0.6,0.2c0.4,0,0.6-0.2,0.8-0.6
					C218.9,98.1,218.9,96.5,217.9,96.3z"/>
				<path class="st14" d="M221.2,99.4c-1,1.4-1.6-1-1.6-1.6c0-0.8,1-2.6,2-1.4c0.4,0.6,0.2,1.6,0,2.2
					C221.4,98.9,221.4,99.1,221.2,99.4z"/>
			</g>
			<g>
				<path class="st14" d="M241.8,98.7c0.8,0,1.6,0,2.4,0c-0.6,1-1,2-1.2,3.2"/>
				<path class="st14" d="M244.8,99.8c-0.2,0.8,0,1.6,0.4,2.2c0,0.2,0.2,0.2,0.4,0.2c0,0,0.2,0,0.2-0.2c0.6-0.6,1.4-3.6-0.2-3.2
					C245.2,99.1,245,99.4,244.8,99.8z"/>
				<path class="st14" d="M247.7,99.6C247.7,99.6,247.9,99.6,247.7,99.6"/>
				<path class="st14" d="M247.1,102.8c1-1.2,1.8-2.4,2.6-3.6l-0.2,0.2"/>
				<path class="st14" d="M249.5,102.2L249.5,102.2"/>
			</g>
			<path class="st14" d="M251.5,98.7c-0.2,0-0.2,0-0.4,0c-0.2,0-0.2,0.4-0.2,0.4c0,1.4-0.2,2.6-0.2,4c0,0.2,0,0.4,0.2,0.6h0.2
				c2.2-0.4,4.2-0.4,6.5-0.2c0-0.4,0-0.8,0.2-1.2c0.2,0.2,0.6,0.2,1,0.2h0.2v-0.2c0-0.4,0-0.8,0-1.2c-0.4,0-0.6,0-1-0.2
				c0-0.4,0.4-1.4,0-1.6c-0.4-0.2-1.4-0.2-1.8-0.2C254.7,98.9,253.1,98.9,251.5,98.7z"/>
			<path class="st1" d="M251.7,99.6c0,1,0,2.2,0,3.2v0.2c0,0,0,0,0.2,0c1,0,2,0,3-0.2h0.2c0,0,0,0,0-0.2c0.2-0.6,0.6-2.6,0-3
				C254.5,99.1,252.5,99.6,251.7,99.6z"/>
			<path class="st1" d="M182.7,96.9c0.8-0.4,1.6-0.2,2.4,0c0.2,0.2,0.6,0.2,0.8,0.6c0,0.2,0.2,0.2,0.2,0.4c0,0.2,0,0.4,0,0.6
				c-0.2,0.2-0.4,0.4-0.6,0.2c-0.2,0-0.4-0.2-0.4-0.4c-0.4-0.4-0.8-0.6-1.2-0.6c-0.4,0-1,0.2-1.4,0.6c-0.2,0.2-0.4,0.4-0.6,0.6
				c-0.2,0.2-0.6,0.4-0.8,0c-0.2-0.2,0.2-0.6,0.2-0.8C181.5,97.5,182.1,97.1,182.7,96.9z"/>
			<path class="st1" d="M183.3,98.9c-0.4,0.2-0.8,0.4-1,0.6c0,0.2-0.2,0.2-0.2,0.4c0,0.2,0.2,0.2,0.2,0.2c0.2,0,0.2-0.2,0.4-0.2
				c0.4-0.4,1-0.4,1.2,0c0.2,0,0.2,0.2,0.2,0.2c0.4,0.2,1,0,0.8-0.4C185.4,98.9,184.2,98.7,183.3,98.9z"/>
			<path class="st1" d="M182.9,101C182.9,101,183.1,101.2,182.9,101c0.2,0.2,0.4,0.2,0.6,0c0.2,0,0.2,0,0.4,0.2
				c0.2,0.2,0.6,0,0.4-0.2C184.2,100.4,182.9,100.2,182.9,101z"/>
		</g>
		<path class="st15" d="M212.5,159.6c-1.4-0.8-3.2-1.2-5.1-1c-2.6,0.2-5.7,1.4-6.7,3.8c-0.8,2-0.4,4.2,0.6,6.3
			c1,1.8,2.6,3.4,4.2,4.9c2,2,4,3.8,6.1,5.9c1,1,2,2,3.4,2c1,0,1.8-0.4,2.6-0.8c5.3-2.8,9.5-7.3,12.3-12.7c0.6-1,1-2.2,1-3.4
			c-0.2-1.4-1.2-2.4-2.2-3.2c-2.2-1.4-4.9-2-7.5-1.4c-1.6,0.4-3.8,3-5.1,3C214.5,163.1,214.1,160.6,212.5,159.6z"/>
		<path class="st1" d="M175.1,101.6v-2.2c0,0,1-0.4,1,0c0,0.4,0,2.2,0,2.2S175.1,102,175.1,101.6z"/>
		<g>
			<path class="st1" d="M176.3,101.6v-3.2c0,0,1-0.4,1,0s0,3.2,0,3.2S176.3,102,176.3,101.6z"/>
		</g>
		<g>
			<path class="st5" d="M177.7,101.6v-4.2c0,0,1-0.4,1,0s0,4.2,0,4.2S177.7,102,177.7,101.6z"/>
		</g>
		<path d="M177.9,113.3c0,0.2,0.2,0.2,0.4,0.2c0.2,0,0.2-0.2,0.4-0.2c0.2-0.4,0.2-1,0.2-1.6s-0.6-1.2-1-0.6
			C177.3,111.7,177.5,112.7,177.9,113.3z"/>
	</g>
</g>
</svg>
