<?xml version="1.0" encoding="utf-8"?>
<!-- Generator: Adobe Illustrator 22.1.0, SVG Export Plug-In . SVG Version: 6.00 Build 0)  -->
<svg version="1.1" id="Capa_1" xmlns="http://www.w3.org/2000/svg" xmlns:xlink="http://www.w3.org/1999/xlink" x="0px" y="0px"
	 viewBox="0 0 297.6 297.6" style="enable-background:new 0 0 297.6 297.6;" xml:space="preserve">
<style type="text/css">
	.st0{fill:#F193BE;}
	.st1{fill:#73BECB;}
	.st2{fill:#84D2E4;}
	.st3{fill:#02833D;}
	.st4{fill:#FFFFFF;stroke:#FFFFFF;stroke-miterlimit:10;}
	.st5{fill:#CE6197;}
	.st6{fill:#08984B;}
	.st7{fill:#F9483B;}
	.st8{fill:#1E1818;}
	.st9{fill:#FFFFFF;}
	.st10{fill:#C62E2A;}
	.st11{fill:#D33535;}
</style>
<g>
	<path class="st0" d="M185.3,103.2c-1.7,10,4.1,19.2,12.8,20.5c8.6,1.3,18.2-6.6,19.9-16.5c1.7-10-4.1-19.2-12.8-20.5
		C196.8,85.1,187,93.2,185.3,103.2z"/>
	<path class="st1" d="M69.7,233.6c0,0-3.6,18.2-1.1,22c2.4,3.6,15.8,37.8,19.5,37.8c3.8,0,136.1-12.4,138.7-17.1
		c1.5-2.4,3-8.6,3-8.6s-23.7-47-26.7-47.2c-3-0.2-123.7,9.2-126.1,8.3C72.5,227,69.7,233.6,69.7,233.6z"/>
	<path class="st2" d="M70.3,234.2c0,0,19.5,48.7,22,48.7c2.4,0,136.3-13,137.6-15.4c1.1-2.4-20.7-46.8-24.2-47.9s-125.4,6-130.3,7.3
		C70.5,228.1,70.3,234.2,70.3,234.2z"/>
	<path class="st3" d="M195.3,228.5c0,0-1.9,6.8,0,7.7c1.9,0.9,4.5,0.9,5.5-0.9s0.9-7.7,0.9-7.7L195.3,228.5"/>
	<path class="st3" d="M201.3,238.3c0,0-1.9,6.8,0,7.7c1.9,0.9,4.5,0.9,5.5-0.9c0.9-1.7,0.9-7.7,0.9-7.7L201.3,238.3"/>
	<path class="st3" d="M207.5,246.7c0,0-1.9,6.8,0,7.7c1.9,0.9,4.5,0.9,5.5-0.9c0.9-1.7,0.9-7.7,0.9-7.7L207.5,246.7"/>
	<path class="st3" d="M213.5,256.5c0,0-1.9,6.8,0,7.7c1.9,0.9,4.5,0.9,5.5-0.9c0.9-1.7,1.3-6.8,1.3-6.8H213.5"/>
	<polygon class="st1" points="206,266.5 182.9,224.9 176.8,226.3 200,268.2 	"/>
	<path class="st0" d="M85.5,253.7c0,13.7,12.8,25,28.6,25s29.9-11.1,29.9-25c0-13.9-14.1-26.1-29.9-26.1S85.5,239.8,85.5,253.7z"/>
	<path class="st4" d="M104.3,249.6c0,4.9,4.5,8.8,10.1,8.8c5.6,0,10.7-3.9,10.7-8.8c0-4.9-5.1-9.4-10.7-9.4
		C108.8,240.2,104.3,244.7,104.3,249.6z"/>
	<path class="st5" d="M164.8,243.2c0,0-1.9,6.8,0,7.7c1.9,0.9,4.5,0.9,5.5-0.9c0.9-1.7,0.9-7.7,0.9-7.7L164.8,243.2"/>
	<path class="st5" d="M168.4,254.1c0,0-1.9,6.8,0,7.7c1.9,0.9,4.5,0.9,5.5-0.9c0.9-1.7,0.9-7.7,0.9-7.7L168.4,254.1"/>
	<g>
		<path class="st6" d="M195.3,228.5c0,1.5,1.1,1.7,2.1,1.9c1.3,0.4,4.7,0.9,4.7-1.9c0-1.9-2.3-2.8-3.4-2.8
			C197.5,225.5,195.4,226.6,195.3,228.5L195.3,228.5z"/>
	</g>
	<g>
		<path class="st6" d="M201.3,238.3c0,1.5,1.1,1.7,2.1,1.9c1.3,0.4,4.7,0.9,4.7-1.9c0-1.9-2.3-2.8-3.4-2.8
			C203.5,235.3,201.5,236.4,201.3,238.3C201.3,238.1,201.3,238.3,201.3,238.3z"/>
	</g>
	<g>
		<path class="st6" d="M207.5,246.7c0,1.5,1.1,1.7,2.1,1.9c1.3,0.4,4.7,0.9,4.7-1.9c0-1.9-2.3-2.8-3.4-2.8
			C209.7,243.9,207.7,244.9,207.5,246.7L207.5,246.7z"/>
	</g>
	<g>
		<path class="st6" d="M213.5,256.5c0,1.5,1.1,1.7,2.1,1.9c1.3,0.4,4.7,0.9,4.7-1.9c0-1.9-2.3-2.8-3.4-2.8
			C215.7,253.5,213.7,254.6,213.5,256.5L213.5,256.5z"/>
	</g>
	<path class="st7" d="M189.8,206.3c0,0-0.8,5.3,6.4,13.9c7.1,8.6,17.3-0.8,19.7-9.4c2.4-8.5-6.4-86.8-5.1-95.3
		c1.1-8.5-1.1-19.5-3.6-18.2c-2.4,1.1-10.9,15.8-10.9,19.5s-6,12.2,1.1,12.2c0,0,0,52.4,0,57.1c0,0-7.7-4.9-11.8-4.9
		C181.5,181.3,189.8,206.3,189.8,206.3z"/>
	<path class="st7" d="M227.8,57.3c0,0-9.6,25.2-15.8,37.4c-6.2,12.2-22,37.8-26.7,41.4s-7.3,8.5-19.5,4.9c0,0,0,10.9,7.3,12.2
		c0,0-48.7,29.1-66.9-35.3c0,0,14.7-6,15.8-8.5c1.1-2.4,9.8-19.5,9.8-32.9s4.9-20.7,9.8-25.6s26.7-28,38.9-28
		c12.2,0,48.7,31,48.7,31L227.8,57.3z"/>
	<path class="st6" d="M153.7,17.1c1.5-0.8-8.6,9.6-12.2,15.6c-3.6,6-4.9,22-4.9,24.4s1.1,20.7,1.1,23.1s3.6,8.5,6,2.4
		c2.4-6,7.3-17.1,10.9-25.6c2.3-5.5,8.6-13.7,12.8-19.2c2.1-2.6,6-2.8,8.3-0.6c8.6,8.5,25.9,21.1,29.9,22.2c1.5,0.4,2.3,0.2,2.6-0.2
		c1.3-1.3,3-2.3,4.9-1.9c5.5,0.9,12,0.9,12,0.9l-2.4-2.4h0.2c3.9,1.5,8.3-1.9,7.5-6.2c-0.2-1.3-0.4-2.4-0.4-3.6
		c0-4.9-3.6-17.1-8.5-19.5s0-8.5-12.2-14.7c-12.2-6.2-28-3.6-30.4-3.6c-2.4,0,3.9-3.8,3.9-3.8c0.8-1.5-3.9,0.9-6,1.7
		c-10.5,3.6-17.9,11.8-23.7,10"/>
	<path class="st8" d="M173.1,153.1c0,0-32.9,9.8-48.7-6s-15.8-29.9-15.8-29.9s-34.8,6.2-34,21.4c0.6,15.8,26.7,6,26.7,6
		s-3.2,47.9-2.3,63.9c0.4,6.2-1.5,12.6-0.9,16.5l25.4-1.3c0.8,0,22.2-2.1,24.1-2.1l27.1-1.3c0,0,3-20.3,3-22.7
		C177.6,195.2,188.9,158,173.1,153.1z"/>
	<path class="st8" d="M173.1,153.1c0,0,12.4,0.9,24.4,32.9c0,0-9.8,23.1-6,26.7c0,0-10.9-13-13.3-16.7
		C175.5,192.6,173.1,153.1,173.1,153.1z"/>
	<path class="st0" d="M119.7,68.9c-1.7,10,4.1,19.2,12.8,20.5c8.6,1.3,18.2-6.6,19.9-16.5c1.7-10-4.1-19.2-12.8-20.5
		C131,51.1,121.2,59,119.7,68.9z"/>
	<path class="st9" d="M122.5,67.6c-1.1,7.3,3,14.1,9.4,15.2c6.4,0.9,13.5-4.9,14.7-12.2c1.1-7.3-3-14.1-9.4-15.2
		C130.8,54.5,123.6,60.3,122.5,67.6z"/>
	<g>
		<path class="st0" d="M164.8,243.2c0,1.5,1.1,1.7,2.1,1.9c1.3,0.4,4.7,0.9,4.7-1.9c0-1.9-2.3-2.8-3.4-2.8
			C167.1,240.2,165,241.3,164.8,243.2C164.8,243,164.8,243.2,164.8,243.2z"/>
	</g>
	<path class="st5" d="M160.9,230.6c0,0-1.9,6.8,0,7.7c1.9,0.9,4.5,0.9,5.5-0.9c0.9-1.7,0.9-7.7,0.9-7.7L160.9,230.6"/>
	<g>
		<path class="st0" d="M161,230.4c0,1.5,1.1,1.7,2.1,1.9c1.3,0.4,4.7,0.9,4.7-1.9c0-1.9-2.3-2.8-3.4-2.8
			C163.3,227.6,161,228.5,161,230.4L161,230.4z"/>
	</g>
	<g>
		<path class="st0" d="M168.4,254.1c0,1.5,1.1,1.7,2.1,1.9c1.3,0.4,4.7,0.9,4.7-1.9c0-1.9-2.3-2.8-3.4-2.8
			C170.6,251.1,168.6,252.2,168.4,254.1C168.6,254.1,168.4,254.1,168.4,254.1z"/>
	</g>
	<path class="st0" d="M137.7,54.5c0,0,23.9-38.3,46.8-39.5c39.8-2.1,44.4,23.1,44.4,23.1s-56.6-35-82.9,18.6L137.7,54.5z"/>
	<path class="st7" d="M209.4,99.2L193,126.6C193,126.6,197.5,127.6,209.4,99.2z"/>
	<path d="M179.5,96.9c0.6-0.2,1.1-0.6,1.7-1.1c2.1-1.9,4.3-4.9,2.8-7.9c-2.1-3.9-6.4,0-7.5,2.4C175.1,93.4,176.5,98.1,179.5,96.9z"
		/>
	<path d="M198.6,104.3c0.6-0.2,1.1-0.6,1.7-1.1c2.1-1.9,4.3-4.9,2.8-7.9c-2.1-3.9-6.4,0-7.5,2.4
		C194.3,100.5,195.6,105.2,198.6,104.3z"/>
	<path class="st7" d="M191.1,101.5c0.2,1.1,0.4,2.1,0.4,3.2c0,0.2,0,0.4,0,0.6c-0.2,0.2-0.4,0.4-0.6,0.4c-1.3,0.4-2.8,0.6-4.1,0.6
		c2.1-1.1,3.8-3.2,4.1-5.6"/>
	<path class="st6" d="M184.4,111c-2.3-1.1-4.5-2.4-6.6-3.6c-0.4-0.2-0.8-0.4-1.1-0.4c-0.4,0-0.8,0.2-0.9,0.4
		c-0.6,0.4-0.9,0.8-1.3,1.1c-0.6,0.6-1.1,1.3-1.1,2.3c0.2,0.8,1.3,1.3,1.9,0.6c-0.4,0.4,0,0.9,0.4,1.1c0.4,0.2,0.9,0.2,1.3,0.2
		c0,0.2,0,0.4,0,0.8c1.1,0,2.4,0.4,3.4,1.1c-0.2,0.2,0,0.8,0.4,0.8c0.4,0.2,0.8,0.2,0.9,0.6c1.3,0.6,2.4,1.3,3.8,1.9
		c0.6,0.4,1.1,0.6,1.7,0.8c1.3,0.2,2.6-0.2,3.6-1.1C193.8,113.9,186,112,184.4,111z"/>
	<path class="st7" d="M165.9,141.5c0,0-27.8-23.1-21.6-18.4C144.1,123.1,151.6,138.1,165.9,141.5z"/>
	<path class="st10" d="M165.7,140.9c0,0-18-8.1-25.6-15.6C140.4,125.5,149.2,139.6,165.7,140.9z"/>
	<path class="st11" d="M209.4,99.2L193,126.6C193,126.6,203.1,114.8,209.4,99.2z"/>
	<path class="st8" d="M73.3,184c0,0,8.6-3.8,17.3-2.6c8.5,1.3,15.8,5.8,15.8,5.8s2.1-64.3-8.8-64.8c-10.9-0.6-25.6,1.5-25.8,37
		C71.6,194.9,73.3,184,73.3,184z"/>
	<path class="st7" d="M72.7,185.1c0,0,7.3,24.1,16.9,34.4s26.1,28,28,29.7c1.9,1.7,0.4,11.5,5.1,13c4.7,1.5,10.7-1.9,10.7-1.9
		s7.7-0.4,9.6-2.3c1.9-2.1,1.3-4.7,1.3-4.7s7-1.9,4.9-3.6c-2.1-1.9-10.3-8.1-17.3-10.1c0,0-25.6-46.8-28.9-52.8
		C99.6,180.8,71.8,176.5,72.7,185.1z"/>
</g>
</svg>
