<?xml version="1.0" encoding="utf-8"?>
<!-- Generator: Adobe Illustrator 22.1.0, SVG Export Plug-In . SVG Version: 6.00 Build 0)  -->
<svg version="1.1" id="Capa_1" xmlns="http://www.w3.org/2000/svg" xmlns:xlink="http://www.w3.org/1999/xlink" x="0px" y="0px"
	 viewBox="0 0 297.6 297.6" style="enable-background:new 0 0 297.6 297.6;" xml:space="preserve">
<style type="text/css">
	.st0{fill:#1DBB73;}
	.st1{fill:#84D2E4;}
	.st2{fill:#1E1818;}
	.st3{fill:#F193BE;}
	.st4{fill:#F9483B;}
	.st5{fill:#08984B;}
	.st6{fill:#F7F7E6;}
	.st7{fill:#D37FA8;}
	.st8{fill:#E53530;}
	.st9{fill:#CE2C28;}
</style>
<g>
	<path d="M269.8,109.3L269.8,109.3c-2-2.3-1.1-5.9,1.6-7.2c2.3-1,3.7-4.1,2.3-6.2c-1.3-2.1-4.2-2.6-5.5-4.7c-1.1-2-0.5-4.7-1.5-6.7
		c-0.7-1.1-1.6-2-2.8-2.8c-4.1-2.6-8.6-4.1-13.3-4.6c-1,0-1.8-0.2-2.6,0.3c-1,0.5-1.5,1.5-2,2.4c-3.1,5.9-6.3,12.2-5,18.5
		c0.5,2.1,1.5,4.2,2.3,6.2c1,2.3-0.2,5.2-2.4,6c-4.9,1.8-8.6,7.3-7.6,12.5c0.3,1.8,1.1,3.4,1.1,5.2c0,2-1,3.9-1.3,5.9
		c-0.5,2.4,0.2,5,0.7,7.5c1,4.2,1.8,8.3,2.8,12.5c1,4.6,1.6,10.1-0.8,13.7c-1,1.5-1.3,3.3-0.3,4.7c1.3,2.1,2,4.7,1.8,7.3
		c-0.2,3.4,3.1,5.7,6.3,4.6c2.4-1,4.7-2.3,7-3.6c7.8-4.4,15.9-9.1,21.3-16.4c6.3-8.8,7.8-19.8,7.5-30.4
		C278.9,124.1,276.6,117,269.8,109.3z"/>
	<path class="st0" d="M276.6,165.1c2.6-3.4,6-6.3,8.3-10.1c3.1-4.9,4.4-10.9,4.1-16.6c-0.3-5-1.8-10.7,1-15c-1.3-1.1-3.4-1.1-4.7,0
		c0.8-2.6-1.8-7.5-3.9-6c-0.3,1-0.3,2.1,0.2,2.9c-0.5-1.6-1.6-4.6-3.6-3.3c-0.5,0.7-0.7,1.6-0.5,2.4c0.2-1.5-2.4-1.5-2.9-0.2
		c-0.5,1.3,0.3,2.8,1,3.9c3.3,5.2,5.9,10.9,6,16.9c0,6-2.9,12.5-8.5,15c1.5-2,2.8-3.9,3.6-6.2c1.5-4.7,0.2-9.8-1.3-14.3
		c-1.3-4.2-3.4-9.3-7.8-9.4c-2.6-0.2-4.9,1.6-6.2,3.9c-1.3,2.3-1.6,4.7-2.1,7.3c-0.7,3.9-1.3,7.6-2,11.5c-0.3,2.3-0.8,4.9-2.6,6.5
		c-0.8,0.8-1.8,1.1-2.8,1.8c-2.6,2-3.6,5.4-5.5,8c-1.5,2-3.6,3.4-5.4,5.2c-1.8,1.8-3.9,4.4-3.4,6.7c4.2,2.8,11.2,0.8,15.6,3.6
		c1.8,1.1,3.1,2.9,4.7,4.1c1.8,1.3,4.1,1.8,6.2,2.3c2.9,0.7,5.9,1.3,8.8,2c0.7,0.2,1.5,0.3,2.1,0.2c5.5-1.1,0-8.3-1-10.4
		C272.4,172.9,273.5,169.3,276.6,165.1z"/>
	<path class="st1" d="M153.3,89.5c0,0,0,12.8-5.5,17.1c0,0,7.8,16.7,27.3,15.4c19.5-1.5,16.6-7.3,16.6-7.3s-2.1-16.4,0.7-20.7
		C192.2,94,168.6,94.5,153.3,89.5z"/>
	<path class="st1" d="M113.7,171.7c2.4-0.7,5,1.6,4.9,4.1c-0.3,2.4-3.4,4.1-5.5,2.9c-0.5,2.1-1,4.2-1.5,6.3c-0.2,1-0.5,2.1-1.3,2.6
		c-0.8,0.5-2.3,0-2.1-1c-0.5,0.8-1,1.8-1.6,2.6c-2.3-0.5-3.7-2.8-4.4-5c-2.9-10.1,2.4-20.3,4.7-30.6c0.7-3.3,1.1-6.7,2.1-9.9
		c2.3-6.8,11.7-19.8,11.9-17.4c8,7,6.7,10.2,2.9,19C122.3,148.8,116.3,171.1,113.7,171.7z"/>
	<path class="st1" d="M235.6,39.7c-0.7-6.2,5.5-11.5,4.9-17.7c-0.2-1.3-1.6-0.5-3.1,1.1c0-0.3,0-0.5,0-0.8c0-1.6-1.3-3.9-2.9-3.3
		c-0.5,0.2-0.8,0.7-1,1c-0.3,0.7-0.8,1.1-1.3,1.8c0.7-2.3,0.5-4.4-1.6-4.6c-2.9,2.9-4.6,7.2-4.6,11.4c-1.6-3.4-6.2-4.9-9.4-3.4
		c-0.7,3.1,3.4,4.9,5.7,7c1.8,1.6,2.8,4.1,3.6,6.3c4.2,12,3.7,26.2,1,38.7c-0.8,3.7-11.2,27.8,2,26.2c2.3-0.3,3.9-2.3,5-4.2
		c7.2-12,10.4-26.3,7.5-40C239.7,53.4,236.3,46.9,235.6,39.7z"/>
	<path class="st1" d="M27.5,114.5c-1.6-0.8-3.3-1.3-5-1.1c-4.6,0.5-6.2,5-6.7,8.9c-0.3,3.3-0.3,6.7-2,9.4c-0.7,1-1.5,2.1-1.5,3.3
		c0,0.7,0.3,1.5,0.3,2.1c0.3,1.8-0.7,3.6-1.5,5.2c-2.4,5.5-2.9,11.5-3.4,17.6c-0.2,2.1-0.3,4.2,0.3,6.2c0.7,2.1,2.3,3.7,3.1,5.7
		c1.1,2.8,1.3,6,3.7,8.1c1.3,1,3.1,1.1,4.4,0.2c1.1-1,1-2.4,0.8-3.6c-1.5-6.5-6.3-12.8-4.6-19.3c2.3,6.5,4.6,13.2,6.7,19.7
		c0.2,0.7,0.5,1.3,1,1.8c0.5,0.3,1,0.5,1.5,0.7c7.3,1.5,15.3-2.9,17.9-9.9c1.1-3.1,1.3-6.5,1.5-9.8c0.2-3.4,0.2-6.8-1.1-9.9
		c-1.3-3.3-3.9-5.2-6.5-7.3c-4.9-4.1-3.6-2.3-1.1-7.3C39.5,127.5,34.2,118.1,27.5,114.5z"/>
	<path class="st2" d="M133.3,110.1c-4.1,1.6-8.1,3.7-11.4,6.8c-3.4,3.3-5.5,7.6-5.9,12.4c-0.7,8.3,6.2,1.1,9.6,10.7
		c0.2,0.5,0.7,0.7,1,0.3c1.8-1.8,3.4-3.9,4.9-6c0.3-0.7,1.3-0.2,1.1,0.5c-3.6,13.5-2.4,28.1-1.3,42.3l1.3,16.1
		c0,0.3,0.3,0.7,0.7,0.5l12.4-2.4c5.2-1,10.6-2.1,15.9-1.8c4.4,0.2,8.6,1.1,12.8,1.3c4.4,0.2,8.9-0.7,12.2-3.6
		c2.4-2.3,3.7-5.5,4.9-8.6c4.9-13.7,7.6-28.1,8.5-42.6c0-0.3,0.3-0.7,0.7-0.5c4.6,0.8,9.1-2.4,12.8-5.5c8.5-7,17.1-16.4,19.5-27.2
		c0.2-0.3-0.2-0.7-0.7-0.8c-5-0.2-8.8-2.8-10.2-7.5c-0.2-0.5-0.7-0.7-1-0.3c-6.5,5.7-13.5,11.4-20,17.2c-1.1,1.1-8.3,2.3-9.6,3.3
		c-7.3,5-16.9,8.5-29.9,2c-5.2-2.6-9.9-8.8-11.2-10.7C146.8,100.9,138.4,108,133.3,110.1z"/>
	<path class="st3" d="M250.1,181c0.8-1.3,1.3-3.1,0.2-4.1c-0.7-0.7-1.8-0.5-2.6-0.8c-2.4-1-2.1-4.6-0.8-7s2.8-5.2,1.3-7.5
		c-3.4-0.5-5-4.7-5-8.1s0.8-7.3-1-10.4c-1.3-2.3-3.9-3.7-5-6.2c-0.8-1.8-0.8-3.9-1.5-5.7c-0.7-2.1-2.3-3.7-3.7-5.2
		c-4.9-5-10.7-9.6-17.6-11.5c-6.8-2-14.6-1.3-20,3.3c-2.8,2.4-4.9,5.7-8.1,7.3c-3.4,1.6-8.3,1.6-10.1,4.9c-1.3,2.3-0.7,5.2-1.6,7.6
		c-0.8,2.1-2.9,3.4-4.6,4.9c-7,6-10.2,15.9-8,24.9c1.6,6.5,5.7,12.5,5.2,19.2c-0.2,2.6-1,6,1.1,7.5c0.7,0.5,1.6,0.7,2.4,0.7
		c5.4-0.5,7.2-8,12.4-9.8c4.6-1.6,9.1,2.1,12,5.9c2.9,3.7,6,8.1,10.7,8.8c4.2,0.7,8.3-2.1,11.9-4.2c2.8-1.6,6.5-3.4,9.9-2.6
		c2.9,0.8,4.6,4.6,7.5,4.4C240.3,197,247.8,185.1,250.1,181z"/>
	<path class="st1" d="M141.8,62.6c-1.5,15,7.6,12.4,7.6,21.6c0,2.9,0,6,1.6,8.5c0.8,1,1.8,1.8,2.9,2.6c2.6,2,5,3.7,7.6,5.7
		c5.5,4.1,11.7,8.3,18.5,8c5.4-0.3,10.4-3.6,13.7-7.8c3.4-4.2,6.2-9.3,7-14.5c2.4-13.8,2.9-20.5,6.8-44.2c0.2-1.1-4.9-1.6-5.7-2.4
		c-1-1-2.3-1.3-3.6-1.5c-5-1.1-10.6-2.3-15.4-0.5c-2.6,1-4.9,2.9-7.6,3.1c-4.1,0.3-7.3-2.9-11.2-4.2c-4.4-1.5-9.4,0-12.5,3.6
		c-2.8,3.1-2.3,9.3-2.6,9.9C145.9,57.3,142.4,56.1,141.8,62.6z"/>
	<path class="st3" d="M41.6,99.1c-0.3,4.9-0.5,10.4,2.4,14.3c-2.8,7.8-3.9,16.3-3.3,24.6c0.8,10.2,12.8,25.4-0.8,30.2
		c10.4-0.2,20,6,26.3,14.1s10.1,18,13.7,27.8c2.1-13.2,27.8-34.5,15.1-38.5c-2.3-0.8-9.1-3.6-8.6-5.2c1.8-5.7,13.5-6.3,16.6-11.4
		c1.5-2.4,1.8-5.4,2.1-8.3c1.1-10.2,6.8-19.8,10.4-29.4c-10.2-6-20.5-11.9-30.9-17.9c-3.3-2-6.5-3.7-10.1-4.9
		c-4.1-1.3-6.2-7-10.4-7.8C54.8,84.6,42.8,84.1,41.6,99.1z"/>
	<path class="st0" d="M49,89.8c0,0-12.5,40.3-8.3,51.5c4.2,11.1,12.5,16.7,18,20.8c5.5,4.2,8.3,4.2,14,8.3
		c5.7,4.1,15.3,1.5,19.5-1.5c4.2-2.8,4.6-3.6,8.5-8.3c2.3-2.9,4.6-9.1,4.6-9.1s-3.6,2.8-4.9,0c-1.3-2.8-0.5-6.7-13-8.1
		s-8.9,6.2-15.9,6.2c-7,0-15.3-4.2-18-12.5c-2.8-8.3,9.8-47.3,7-48.6C57.6,87.2,49,89.8,49,89.8z"/>
	<path class="st4" d="M36.4,224.9c-2,0.3-6,1.5-12.7,5.4c-0.8,0.5-2,0-2.3-1c-2.4-9.1-12-47.2,1.1-55.9c7.6-5,17.2-8.3,21.1-9.4
		c0.8-0.2,1.5,0.2,1.8,1c0.7,1.8,3.7,4.9,15.3,9.9c4.9,2,14.6,9.4,17.9,15c0.5,1,1.8,1.1,2.4,0.3c3.3-3.6,10.2-11.7,10.7-14
		c1.6-6.5,14-7,20.8,5.5c5.9,10.6,9.8,20.2,10.9,22.9c0.2,0.5,0.2,1-0.2,1.5c-1.6,2.1-6.3,9.1-6.8,14.8c-0.2,1.3-1.6,2-2.6,1
		l-9.4-9.4c-1-1-2.8-0.3-2.6,1.1c0.5,11.2,1.3,42.4-4.4,44.7c-7,2.8-55.6-7-58.4-8.3c-2.8-1.5,2.8-40.3,0-45.9
		c-2.4-4.7-1.6,14-1.5,19.3C37.7,224.1,37.2,224.8,36.4,224.9z"/>
	<path class="st3" d="M117.1,224.8c0,0,5.2,4.4,15.3,4.2c11.1-0.3,37.7-11.1,47.5-13.8c9.8-2.8,19.3-11.2,16.6-11.2
		c-2.8,0-5.5-1.5-15.3,2.8c0,0,18-12.5,9.8-9.8c-8.3,2.8-15.3,5.5-15.3,5.5s14-9.8,8.3-8.3c-5.5,1.5-14,7-14,7s-4.2-5.5-5.5-4.2
		c-1.3,1.3,1.5,5.5,1.5,5.5s-26.5,11.1-29.3,11.1c-2.8,0-8.3-5.5-12.5-8.3S110.1,217.8,117.1,224.8z"/>
	<path class="st3" d="M21.5,230.1c0,0,0.8,8.9,10.4,11.9c9.6,3.1,36.7,7.6,46.3,10.7c9.6,3.1,7.5,2.4,10.2,2.6
		c2.6,0.2,6.7-2.9-3.7-4.9c0,0,6.7,1.1,6.2-3.3c-0.3-2.8-8-2.3-8-2.3s12.7-0.7,6.3-3.9c-5-2.6-10.1-1.3-10.1-1.3s1.8-6.7-3.1-6.5
		c-2,0-2,5.4-2,5.4s-28.1-5.4-30.6-6.8c-2.3-1.5-4.4-8.8-6.3-13.5C35.5,213.5,19.5,220.4,21.5,230.1z"/>
	<path class="st5" d="M156.6,28.2c3.1-4.2,8-6.8,13.2-7.3c-0.5,1.1-1,2.4-1.5,3.6c6.2-3.9,14.5-3.9,20.7,0c3.9,2.4,8.1,6.5,12.2,4.4
		c0,3.1,2.6,5.2,4.9,7.3c2.3,2.3,4.4,6.2,1.6,8.5c-1.5,1.3-3.4,1.5-5.2,0.8c-5.4-2.1-11.2-5.7-16.9-4.4c-4.7,1.1-9.9,5.5-13.8,2.4
		c-0.7-0.5-1.1-1.1-1.8-1.6c-1.3-0.8-2.9-0.7-4.4-0.5c-4.1,0.3-8.3-0.3-12.2-1.8c-3.9,7.2-3.7,15.8-3.1,23.9
		c0.5,5.2,1,10.6,3.3,15.3s6.5,8.8,11.7,9.6c2.4,0.3,5.2,0,7.3-1.3c1.3-0.8,2.4-2.1,3.9-2.9c4.4-2.9,10.1-2.3,15.1-1.5
		c4.2,0.3,5.7,4.9,9.8,2.1c0.3,5.2-1.3,8.9-3.3,11.7c-5.5,8.5-10.7,14.1-22,13.7c-4.9-0.2-9.6-2.1-13.5-5c-4.6-3.4-8.9-4.9-11.9-9.9
		c-2.4-4.2-3.3-9.3-4.1-14c-2.8-17.1-3.9-37.9,7.2-52.5C154,30.4,155.3,30,156.6,28.2z"/>
	<path class="st4" d="M174,181.3c-0.7,7.8-1.3,15.9,2.6,22.8c1.8,3.3,4.6,6,7.3,8.5c4.2,3.7,6.2,6.5,11.7,7.8
		c11.2,2.8,25.7-4.1,31.4-14.1c5.7-10.1,6.7-22.1,7-33.7c2.3-0.7,3.9-2.9,4.4-5.4s0-4.9-0.5-7.2c-0.3-2-2.6-4.4-3.7-2.9
		c-0.7-4.9-1.3-9.9-3.6-14.3c-2.3-4.4-6.2-8.1-11.1-8.8c2.4,3.9,4.7,8.9,2.1,12.5c-0.3,0.5-0.8,1-1.3,1c-0.8,0.2-1.5-0.5-2-1.1
		c-2.3-2.8-3.6-6.2-6-8.8c-2.4-2.6-6.7-4.2-9.4-2c-1.3,1-2,2.6-2.9,3.7c-1.3,1.5-3.1,2.3-4.9,3.1c-5.5,2.6-16.4,5-18.7,11.1
		c-1.5,3.9-0.8,9.8-1.3,14C174.8,171.7,173.3,177.1,174,181.3z"/>
	<path class="st4" d="M176.6,221.7c-3.3,3.6-5.9,6.2-10.6,5.4c-0.7,1.1,0.5,2.4,1.6,3.1c11.7,7.5,24.2,15,38,15.9
		c2.9,0.2,9.1-7.8,11.4-9.8c-5.9-4.1-10.6-9.3-10.9-16.4c0,0.5-16.1-6.5-17.4-7.2c-4.1-2.1-3.4-2.4-5.9,0.8
		C181.1,216.1,178.9,218.9,176.6,221.7z"/>
	<path class="st0" d="M148,240.5c-3.6,7.6-4.4,16.3-5.4,24.6c-0.2,1.3-0.2,2.9,0.7,3.9c0.7,0.8,1.6,1.1,2.6,1.5c2.3,0.7,4.6,1,6.8,1
		c1.6,0,3.1-1.1,3.7-2.6c0-0.2,0-0.2,0.2-0.3c1.1-2.6,4.6-3.1,6.7-1.1c6.3,6.2,16.4,8.6,24.7,5.4c1.5-0.7,3.3-0.3,4.4,0.8
		c4.1,3.7,9.3,5.9,14.6,6.2c2,0.2,4.1-0.3,5.7-1.3c1.5-1,3.3-0.7,4.7,0.3c1.8,1.5,4.2,2,6.3,1.3c3.1-1,5-4.2,5.5-7.5
		c0.5-3.3-0.3-6.5-1-9.8c-1.8-7.2-3.7-14.1-5.9-21.3c-0.8-2.8-2-5.9-4.6-7.2c-0.5-0.2-0.8-0.3-1.3-0.3c-0.8,0-1.6,0.3-2.4,0.8
		c-11.5,5.7-25.9,4.9-37.1-1.3c-5.4-2.9-8.8-9.6-15-7.3C155.6,228.5,150.7,234.7,148,240.5z"/>
	<path class="st3" d="M109.1,32.6c0.3-0.2,0.7-0.3,1.1-0.5c23.9-11.2,36.6,23.4,15.8,32.4C108.5,71.6,89,43.3,109.1,32.6z"/>
	<path class="st1" d="M87.8,48.2c0,0-26-6.3-38.7,41.3c0,0,16.1,3.4,19.8,3.3C69,92.7,72.5,50.9,87.8,48.2z"/>
	<path d="M124.1,94c0,0-14,8.3-55.6-1.5c0,0,1.5-39,19.5-44.6S133.8,63.5,124.1,94z"/>
	<path class="st4" d="M68.5,92.6c0,0,30.6,25,54.3,25s18-16.7,1.5-23.6C124.1,94,87.8,95.3,68.5,92.6z"/>
	<path class="st0" d="M84.1,42.5c1-1.5,3.1-2.1,4.9-2.1c0.3,0,0.7,0,1,0.2c0.3,0.2,0.5,0.3,0.7,0.7c0.8,1.3,1.1,3.1,1.3,4.7
		c0,1.5-0.8,2.1-2.3,2.6c-1.3,0.5-5.2,0.5-6.2-1C82.8,46.4,83.4,43.6,84.1,42.5z"/>
	<path d="M211.1,57.8c0,0,0.3,25.2-13.8,24.2c-14.1-1-13.7-19.3-13.7-19.3l-5.7-0.7c0,0,0.7,16.7-14.6,17.2
		c-15.3,0.5-15-19.2-15-19.2s-6.2-4.9,0.5-7.2C155.5,50.6,211.1,57.8,211.1,57.8z"/>
	<path class="st0" d="M81.6,118.9c-0.5,0.2-0.8,0.3-1.3,0.5c-1,0.3-2.1,0.2-3.3,0.2c-1.5-0.2-3.1-0.2-4.4-1
		c-0.3-0.2-0.7-0.5-0.7-0.8c0-0.5,0.5-1,1.1-1c1.6-0.3,3.4,0,5-0.5c1-0.3,2-1.1,2.9-1c0.8,0,1.6,0.7,2.4,1c1.3,0.5,3.1,0.7,3.7,1.8
		c0.3,0.3,0.3,1,0.2,1.3C87,120.4,83.1,118.6,81.6,118.9z"/>
	<path class="st0" d="M108.6,123.5c-0.5,0-0.8,0-1.3,0c-1.1,0-2.1-0.3-3.1-0.7c-1.5-0.5-2.9-1.1-4.1-2.1c-0.2-0.3-0.5-0.5-0.3-0.8
		c0.2-0.5,0.8-0.7,1.3-0.7c1.6,0.2,3.3,1,4.9,0.8c1,0,2.1-0.5,3.1-0.2c0.8,0.3,1.5,1,2.1,1.5c1.1,0.8,2.8,1.5,3.1,2.8
		c0.2,0.5,0,1-0.3,1.3C113.3,126.4,109.9,123.5,108.6,123.5z"/>
	<g>
		<path d="M81.5,132.7c0.3-0.3,0.8-0.8,1.1-1.5c1.1-2.1,2.1-5,0.2-7c-2.6-2.6-5,1.6-5.4,3.9C77.1,130.9,79.4,134.3,81.5,132.7z"/>
		<path d="M102.8,137.3c0.3-0.3,0.8-0.8,1.1-1.5c1.1-2.1,2.1-5,0.2-7c-2.6-2.6-5,1.6-5.4,3.9C98.4,135.7,100.8,138.9,102.8,137.3z"
			/>
	</g>
	<g>
		<path d="M193.3,182c0.5-0.3,0.8-1,1.1-1.6c1.1-2.4,2.3-6-0.2-8.1c-3.3-2.9-5.9,2.1-6,4.7C188.1,180.2,190.9,183.9,193.3,182z"/>
		<path d="M213,182.6c0.5-0.3,0.8-1,1.1-1.6c1.1-2.4,2.3-6-0.2-8.1c-3.3-2.9-5.9,2.1-6,4.7C207.8,180.7,210.7,184.6,213,182.6z"/>
	</g>
	<path class="st3" d="M202.5,206.2c0.8,0.2,1.6,0.3,2.3,0c0.7-0.2,1.1-0.7,1.5-1.1c1.1-1.3,2.1-2.8,2.6-4.4c0.2-0.5,0.3-1,0.2-1.6
		c-0.2-0.7-0.7-1.1-1.1-1.5c-0.5-0.3-0.8-0.8-1.5-1c-1-0.3-2,0-2.8,0.7s-1.3,1.5-1.8,2.3c-0.8-1.5-2.6-2.3-4.2-2
		c-2.3,0.5-4.1,2.9-2.3,4.7C197.6,204.3,199.8,205.6,202.5,206.2z"/>
	<path class="st6" d="M44.4,164.6c0,0-1.1,18.9,3.9,15.4c4.2-2.8,15.6-4.2,15.6-4.2S44.4,159.7,44.4,164.6z"/>
	<path class="st6" d="M90.9,169.8l1,7.8c0,0,7.2,2.3,8.3,4.1C101.6,184.6,103.9,170.9,90.9,169.8z"/>
	<path class="st4" d="M245.7,236.1c-0.2,0-0.2-0.2-0.2-0.2c-6.8,2.4-11.2,8.9-15.1,15c-3.6,5.4-9.9,14.1-9.9,21
		c0,8.6,9.3,6.5,13,1.5c3.3-4.2,5.5-9.1,7.8-14c2.1-4.6,4.4-9.3,6.5-13.8c1.5-3.1,4.1-12.4,5.9-15.3
		C251.4,230.3,248,236.6,245.7,236.1z"/>
	<g>
		<path class="st1" d="M258.4,212.7c0,0-2.1-9.9-18.7-6.3c0,0-11.2,19-1.6,24.7c0,0,4.7,5.9-0.5,14c0,0-3.7,2.1-5.2,1.8
			c-1.5-0.3,11.7,3.1,11.7,3.1s-3.6-4.1-2.4-8.5s7.8-5.9,10.1-8.5C253.8,230.4,258.4,212.7,258.4,212.7z"/>
		<path class="st3" d="M244.7,214.7c-2.8-0.7-3.1-0.8-6.7-2.9c-0.3,0-0.7,0.2-1.1,0.2c-2.6,6-5.2,15.4,1.1,19c0,0,0.2,0.2,0.2,0.3
			c0.3,0.2,0.5,0.3,0.8,0.5c3.6,1.6,7.8,2.3,11.9,2c0.3-0.2,0.5-0.5,0.8-0.7c1.3-1.5,4.4-12.2,5.9-17.4c-0.3,0-0.5,0.2-0.8,0.2
			C252.9,216.3,249.4,216,244.7,214.7z"/>
		<path class="st7" d="M246.2,215.2c2.3,0.5,4.6,1,6.8,1c1,0,2.1,0,3.1-0.2c0.3,0,0.7,0,1-0.2c-0.3-0.2-0.8-0.3-1.1-0.5
			c-5.2-2.4-13-3.9-19-3.6C239.4,214,243.3,214.4,246.2,215.2z"/>
	</g>
	<path class="st4" d="M257.4,219.9c-2.1-0.2-3.9,2.3-3.3,4.4c-0.2-0.7-0.3-1.3-0.7-1.8c-1.6-0.7-3.6,0.3-4.1,2s0.5,3.6,2.1,3.9
		c-2.4-0.8-5.4,0.2-6.3,2.4c-1,2.3,1.1,5.4,3.6,4.9l-0.2,0.2c1.5,2.9,5.7,0.3,6.8-1.3l4.9-9.8C261.3,222.6,259.8,220,257.4,219.9z"
		/>
	<path class="st4" d="M182.9,213.9c0,0,5.2,12.7,23.7,10.4C206.7,224.3,186.2,222,182.9,213.9z"/>
	<path class="st8" d="M179.4,196.3c0.8,0.8,1.8,1.3,3.1,1.5c2,0.2,4.2,0,5.5-1.6c1.1-1.6,0.8-3.7,0.5-5.7c-0.8-4.2-6.7-5.2-9.1-2
		C177.4,190.9,177.6,194.4,179.4,196.3z"/>
	<path class="st8" d="M215.9,199.1c0.8,0.8,1.8,1.3,3.1,1.5c2,0.2,4.2,0,5.5-1.6c1.1-1.6,0.8-3.7,0.5-5.7c-0.8-4.2-6.7-5.2-9.1-2
		C214,193.9,214,197.3,215.9,199.1z"/>
	<path class="st3" d="M190.6,131.6c5-2.6,10.9-3.7,16.6-3.7c7.3-0.2,14.8,1.3,20.8,5.4c5,3.4,8.8,8.9,9.6,14.8
		c0.3,2-1.6,3.7-3.6,3.1c-0.2,0-0.2,0-0.3-0.2c-2-0.5-3.9,0.8-3.7,2.8c0,0.8,0,1.6,0,2.3c0,0.8,0,1.8-0.7,2.3
		c-0.5,0.5-1.1,0.7-2,0.8c-3.7,0.3-7-2.4-9.8-5c-2.8-2.6-5.7-5.7-9.4-5.9c1.1,1.3,2.3,2.4,2.8,4.1c0.5,1.6,0.3,3.6-1,4.6
		c-1.8,1.3-4.4,0.3-6.3-0.8c-3.3-1.8-6.7-3.6-9.9-5.4c-0.7-0.3-1.3-0.7-2.1-0.8c-0.7-0.2-1.3-0.2-2,0c-6.5,1.5-9.3,11.1-15.8,10.9
		c-0.8,0-1.6-0.2-2.1-0.8c-0.5-0.5-0.7-1.1-0.7-1.8c-0.5-4.2,2.6-8,4.2-11.5C178.1,140.5,184.6,134.8,190.6,131.6z"/>
	<path class="st9" d="M184.9,213.9c0,0,6.2,12,24.4,6C209.3,219.9,195.8,223.5,184.9,213.9z"/>
	<path class="st6" d="M70.7,186.1c-0.8,0.5-2.3,0-2.4-1c-0.2-0.7,0.3-2,0.8-2.4c1.3-1.3,2.6,0.7,2.4,2.1
		C71.4,185.4,71.2,185.9,70.7,186.1z"/>
	<path class="st6" d="M76.6,192.6c-0.8,0.5-2.3,0-2.4-1c-0.2-0.7-0.2-1.5,0.3-2c1.3-1.3,3.1,0.2,2.8,1.8
		C77.2,191.7,77.1,192.2,76.6,192.6z"/>
</g>
</svg>
