<?xml version="1.0" encoding="utf-8"?>
<!-- Generator: Adobe Illustrator 22.1.0, SVG Export Plug-In . SVG Version: 6.00 Build 0)  -->
<svg version="1.1" id="Capa_1" xmlns="http://www.w3.org/2000/svg" xmlns:xlink="http://www.w3.org/1999/xlink" x="0px" y="0px"
	 viewBox="0 0 297.6 297.6" style="enable-background:new 0 0 297.6 297.6;" xml:space="preserve">
<style type="text/css">
	.st0{fill:#1DBB73;}
	.st1{fill:#84D2E4;}
	.st2{fill:#1E1818;}
	.st3{fill:#F193BE;}
	.st4{fill:#F9483B;}
	.st5{fill:#08984B;}
	.st6{fill:#F7F7E6;}
	.st7{fill:#D37FA8;}
	.st8{fill:#E53530;}
	.st9{fill:#CE2C28;}
</style>
<g>
	<path d="M279.5,107.6L279.5,107.6c-1.6-2.6-0.3-6,2.6-6.8c2.4-0.7,4.4-3.4,3.3-5.9c-1-2.3-3.9-3.3-4.7-5.5
		c-0.8-2.1,0.2-4.7-0.5-6.8c-0.5-1.3-1.5-2.3-2.4-3.1c-3.6-3.1-8-5.4-12.5-6.3c-0.8-0.2-1.8-0.3-2.8,0c-1,0.3-1.6,1.3-2.3,2.1
		c-3.9,5.2-8,11.2-7.6,17.7c0.2,2.3,0.8,4.4,1.5,6.5c0.7,2.4-0.8,5-3.4,5.5c-5,1.1-9.4,6-9.3,11.4c0,1.8,0.7,3.6,0.3,5.4
		c-0.3,2-1.5,3.7-2.1,5.7c-0.8,2.4-0.7,5-0.3,7.6c0.3,4.2,0.7,8.5,1,12.8c0.3,4.7,0.2,10.2-2.8,13.3c-1.1,1.3-1.8,3.1-1,4.7
		c1,2.3,1.1,5,0.8,7.5c-0.7,3.3,2.3,6.2,5.5,5.4c2.6-0.7,5-1.6,7.5-2.4c8.5-3.3,17.1-6.8,23.4-13.2c7.5-7.8,10.4-18.5,11.7-28.9
		C286.5,123.6,285.2,116.2,279.5,107.6z"/>
	<path class="st0" d="M286.2,161c1.1-4.2,3.3-8.1,4.1-12.4c1.1-5.7,0.2-11.7-2.3-16.9c-2.1-4.7-5.5-9.3-4.6-14.3
		c-1.6-0.5-3.6,0.3-4.4,1.8c-0.2-2.8-4.4-6.3-5.7-4.2c0,1,0.5,2,1.3,2.6c-1-1.3-3.1-3.7-4.6-1.6c-0.2,0.8,0,1.8,0.5,2.4
		c-0.3-1.3-2.8-0.5-2.8,0.8c0,1.5,1.3,2.4,2.4,3.3c4.9,3.6,9.4,8,11.7,13.7c2.3,5.7,1.8,12.7-2.4,16.9c0.7-2.3,1.1-4.7,1-7.2
		c-0.3-4.9-3.4-9.1-6.3-13c-2.6-3.4-6.7-7.3-10.7-5.9c-2.4,0.8-3.9,3.4-4.2,5.9s0.2,5,0.7,7.5c0.8,3.7,1.6,7.6,2.4,11.4
		c0.5,2.3,1,4.9-0.2,7c-0.5,1-1.3,1.8-1.8,2.8c-1.6,2.8-1.3,6.3-2.3,9.4c-0.7,2.4-2.1,4.4-3.1,6.7c-1,2.3-2.1,5.5-0.7,7.5
		c5,1,10.9-3.3,15.8-2.4c2.1,0.3,3.9,1.6,5.9,2.1c2.1,0.5,4.4,0.2,6.5-0.2c2.9-0.5,5.9-1,8.8-1.5c0.7-0.2,1.5-0.2,2-0.7
		c4.9-3.1-3.1-7.6-4.7-9.3C285.1,169.7,284.9,166,286.2,161z"/>
	<path class="st1" d="M157.9,88.9c0,0,0,12.8-5.5,17.1c0,0,7.8,16.7,27.3,15.4c19.5-1.5,16.6-7.3,16.6-7.3s-2.1-16.4,0.7-20.7
		C196.9,93.5,173.2,94,157.9,88.9z"/>
	<path class="st1" d="M126.2,174.9c2.1-1.1,5.4,0.3,5.7,2.8c0.3,2.4-2.3,4.7-4.7,4.2c0,2.1,0,4.4,0.2,6.5c0,1,0,2.1-0.7,2.8
		c-0.7,0.7-2.3,0.5-2.3-0.5c-0.3,1-0.7,2-1,2.9c-2.3,0.2-4.2-1.8-5.4-3.7c-5.4-8.9-2.4-20.3-2.8-30.7c-0.2-3.4-0.5-6.7-0.3-10.1
		c0.5-7.2,6.5-22.1,7.5-19.8c9.4,4.9,8.9,8.3,7.5,17.7C129.3,150.7,128.6,173.6,126.2,174.9z"/>
	<path class="st1" d="M244.6,42.7c0-6.2,6.7-10.9,6.5-17.1c0-1.3-1.5-0.7-3.3,0.8c0-0.3,0.2-0.5,0.2-0.8c0.2-1.6-1-4.1-2.4-3.4
		c-0.5,0.2-0.8,0.5-1.1,1c-0.5,0.5-1,1.1-1.5,1.8c1-2.3,1-4.2-1.1-4.7c-3.3,2.8-5.2,6.7-5.7,10.9c-1.3-3.4-5.5-5.5-9.1-4.4
		c-1,3.1,2.9,5.2,5,7.6c1.6,1.8,2.4,4.2,2.9,6.7c3.1,12.4,1.3,26.3-2.9,38.5c-1.3,3.7-14,26.7-0.7,26.2c2.3,0,4.1-2,5.4-3.7
		c8.3-11.2,13-25.2,11.4-39C247.3,56.6,244.7,49.9,244.6,42.7z"/>
	<path class="st1" d="M5.9,132.3c0.2,0.2,0.3,0.2,0.3,0.3c0,0,0,0,0,0.2c2.4,3.3,5.2,6.3,6.5,9.9c2,2.9,3.7,5.9,5.2,9.1
		c0.7,1.3,1,2.8,1.6,4.1c0.5,1.3,1.3,2,2,2.6c0.7-5.7-0.5-11.4-1.6-17.1c-0.5-2.1-0.8-4.2-2-5.9c-1.3-1.8-3.1-3.1-4.6-4.7
		c-2-2.3-2.9-5.5-5.9-6.7c-1.5-0.7-3.3-0.3-4.2,1c-0.8,1.3-0.3,2.6,0.3,3.7C4.2,130.1,5.1,131.2,5.9,132.3z"/>
	<path class="st1" d="M48,149.2c-1.3-3.3-3.9-5.2-6.5-7.3c-4.9-4.1-3.6-2.3-1.1-7.3c3.7-7.6-1.5-16.9-8.1-20.7
		c-1.6-0.8-3.3-1.3-5-1.1c-4.6,0.5-6.2,5-6.7,8.9c-0.3,3.3-0.3,6.7-2,9.4c-0.7,1-1.5,2.1-1.5,3.3c0,0.7,0.3,1.5,0.3,2.1
		c0.2,1.1-0.2,2.3-0.7,3.3c0.5,1.3,1.1,2.6,1.5,4.2c0.7,3.3,0.7,6.5,1.3,9.8c0.7,2.8,1.5,5.4,2.3,8.1c1.6,4.7,3.3,9.6,4.9,14.3
		c0.2,0.7,0.5,1.3,1,1.8c0.5,0.3,1,0.5,1.5,0.7c7.3,1.5,15.3-2.9,17.9-9.9c1.1-3.1,1.3-6.5,1.5-9.8C49.1,155.7,49.1,152.3,48,149.2z
		"/>
	<path class="st2" d="M137.9,109.6c-4.1,1.6-8.1,3.7-11.4,6.8c-3.4,3.3-5.5,7.6-5.9,12.4c-0.7,8.3,6.2,1.1,9.6,10.7
		c0.2,0.5,0.7,0.7,1,0.3c1.8-1.8,3.4-3.9,4.9-6c0.3-0.7,1.3-0.2,1.1,0.5c-3.6,13.5-2.4,28.1-1.3,42.3l1.3,16.1
		c0,0.3,0.3,0.7,0.7,0.5l12.4-2.4c5.2-1,10.6-2.1,15.9-1.8c4.4,0.2,8.6,1.1,12.8,1.3c4.4,0.2,8.9-0.7,12.2-3.6
		c2.4-2.3,3.7-5.5,4.9-8.6c4.9-13.7,7.6-28.1,8.5-42.6c0-0.3,0.3-0.7,0.7-0.5c4.6,0.8,9.1-2.4,12.8-5.5c8.5-7,17.1-16.4,19.5-27.2
		c0.2-0.3-0.2-0.7-0.7-0.8c-5-0.2-8.8-2.8-10.2-7.5c-0.2-0.5-0.7-0.7-1-0.3c-6.5,5.7-13.5,11.4-20,17.2c-1.1,1.1-8.3,2.3-9.6,3.3
		c-7.3,5-16.9,8.5-29.9,2c-5.2-2.6-9.9-8.8-11.2-10.7C151.6,100.3,143.1,107.5,137.9,109.6z"/>
	<path class="st3" d="M257.3,190.1c1-1.1,1.8-2.9,0.8-4.1c-0.7-0.7-1.6-0.7-2.4-1.1c-2.3-1.3-1.3-4.9,0.2-7c1.6-2.1,3.6-4.7,2.4-7.2
		c-3.4-1-4.4-5.4-3.7-8.8c0.5-3.4,1.8-7.2,0.5-10.4c-1-2.4-3.4-4.2-4.1-6.8c-0.7-2-0.2-3.9-0.7-5.9c-0.3-2.1-1.6-4.1-2.9-5.7
		c-4.2-5.7-9.3-11.1-15.6-14c-6.3-2.9-14.3-3.4-20.3,0.3c-3.1,2-5.7,4.9-9.1,6c-3.7,1.1-8.3,0.3-10.7,3.4c-1.6,2.1-1.3,5-2.6,7.3
		c-1.1,2-3.4,2.9-5.2,4.2c-7.8,4.9-12.4,14.3-11.5,23.6c0.7,6.7,3.9,13.3,2.3,19.8c-0.7,2.6-1.8,5.7,0.2,7.5c0.7,0.7,1.5,0.8,2.4,1
		c5.4,0.3,8.3-6.8,13.5-7.8c4.7-1,8.6,3.4,11.1,7.5c2.4,4.1,4.7,8.9,9.3,10.2c4.1,1.3,8.5-0.8,12.4-2.4c3.1-1.3,7-2.4,10.1-1.1
		c2.8,1.1,3.9,5.2,6.8,5.4C245.2,204.4,254.3,193.6,257.3,190.1z"/>
	<path class="st1" d="M151.4,55.7c-3.3,14.6,6,13.3,4.9,22.4c-0.3,2.9-0.8,6,0.7,8.6c0.7,1.1,1.6,2.1,2.6,2.9
		c2.3,2.1,4.6,4.4,6.8,6.5c5,4.7,10.6,9.8,17.4,10.2c5.4,0.3,10.7-2.3,14.6-6c3.9-3.7,7.2-8.3,8.8-13.5c4.1-13.5,5.5-20,12.2-42.9
		c0.3-1.1-4.6-2.1-5.4-3.1c-0.8-1-2.1-1.5-3.3-2c-4.9-1.8-10.2-3.6-15.3-2.3c-2.8,0.7-5.2,2.3-8,2.1c-4.1-0.2-7-3.9-10.6-5.5
		c-4.2-2-9.4-1.1-12.8,2c-3.1,2.8-3.4,8.9-3.9,9.4C156.1,50.9,152.9,49.4,151.4,55.7z"/>
	<path class="st3" d="M46.4,98.5c-0.3,4.9-0.5,10.4,2.4,14.3c-2.8,7.8-3.9,16.3-3.3,24.6c0.8,10.2,12.8,25.4-0.8,30.2
		c10.4-0.2,20,6,26.3,14.1s10.1,18,13.7,27.8c2.1-13.2,27.8-34.5,15.1-38.5c-2.3-0.8-9.1-3.6-8.6-5.2c1.8-5.7,13.5-6.3,16.6-11.4
		c1.5-2.4,1.8-5.4,2.1-8.3c1.1-10.2,6.8-19.8,10.4-29.4c-10.2-6-20.5-11.9-30.9-17.9c-3.3-2-6.5-3.7-10.1-4.9
		c-4.1-1.3-6.2-7-10.4-7.8C59.4,84,47.3,83.6,46.4,98.5z"/>
	<path class="st0" d="M53.7,89.2c0,0-12.5,40.3-8.3,51.5c4.2,11.2,12.5,16.7,18,20.8c5.5,4.2,8.3,4.2,14,8.3
		c5.7,4.1,15.3,1.5,19.5-1.5c4.2-2.9,4.6-3.6,8.5-8.3c2.3-2.9,4.6-9.1,4.6-9.1s-3.6,2.8-4.9,0s-0.5-6.7-13-8.1
		c-12.5-1.5-8.9,6.2-15.9,6.2c-7,0-15.3-4.2-18-12.5c-2.8-8.3,9.8-47.3,7-48.6C62.3,86.6,53.7,89.2,53.7,89.2z"/>
	<path class="st4" d="M41.2,224.4c-2,0.3-6,1.5-12.7,5.4c-0.8,0.5-2,0-2.3-1c-2.4-9.1-12-47.2,1.1-55.9c7.6-5,17.2-8.3,21.1-9.4
		c0.8-0.2,1.5,0.2,1.8,1c0.7,1.8,3.7,4.9,15.3,9.9c4.9,2,14.6,9.4,17.9,15c0.5,1,1.8,1.1,2.4,0.3c3.3-3.6,10.2-11.7,10.7-14
		c1.6-6.5,14-7,20.8,5.5c5.9,10.6,9.8,20.2,10.9,22.9c0.2,0.5,0.2,1-0.2,1.5c-1.6,2.1-6.3,9.1-6.8,14.8c-0.2,1.3-1.6,2-2.6,1
		l-9.4-9.4c-1-1-2.8-0.3-2.6,1.1c0.5,11.2,1.3,42.4-4.4,44.7c-7,2.8-55.6-7-58.4-8.3c-2.8-1.3,2.8-40.3,0-45.9
		c-2.4-4.7-1.6,14-1.5,19.3C42.5,223.6,42,224.2,41.2,224.4z"/>
	<path class="st3" d="M121.8,224.2c0,0,5.2,4.4,15.3,4.2c11.1-0.3,37.7-11.1,47.5-13.8c9.8-2.8,19.3-11.2,16.6-11.2
		c-2.8,0-5.5-1.5-15.3,2.8c0,0,18-12.5,9.8-9.8c-8.3,2.8-15.3,5.5-15.3,5.5s14-9.8,8.3-8.3c-5.7,1.5-14,7-14,7s-4.2-5.5-5.5-4.2
		c-1.3,1.3,1.5,5.5,1.5,5.5S144.1,213,141.3,213c-2.8,0-8.3-5.5-12.5-8.3S114.8,217.2,121.8,224.2z"/>
	<path class="st3" d="M26,229.6c0,0,0.8,8.9,10.4,11.9c9.6,3.1,36.7,7.6,46.3,10.7c9.6,3.1,7.5,2.4,10.2,2.6
		c2.6,0.2,6.7-2.9-3.7-4.9c0,0,6.7,1.1,6.2-3.3c-0.3-2.8-8-2.3-8-2.3s12.7-0.7,6.3-3.9c-5-2.6-10.1-1.3-10.1-1.3s1.8-6.7-3.1-6.5
		c-2,0-2,5.4-2,5.4s-28.1-5.4-30.6-6.8c-2.3-1.5-4.4-8.8-6.3-13.5S24.1,219.8,26,229.6z"/>
	<path class="st5" d="M170.4,23.4c3.6-3.7,8.8-5.9,14-5.5c-0.7,1.1-1.3,2.3-2,3.3c6.5-3.1,14.8-2,20.5,2.6c3.4,2.9,7.3,7.5,11.5,5.9
		c-0.5,2.9,2,5.5,3.9,7.8C220.5,40,222,44,219,46c-1.5,1-3.6,1-5.2,0.2c-5-2.8-10.4-7-16.3-6.5c-4.9,0.5-10.6,4.2-14,0.7
		c-0.7-0.7-1-1.3-1.6-1.8c-1.1-1-2.8-1-4.2-1c-4.1-0.2-8.3-1.3-11.9-3.4c-4.7,6.7-5.7,15.1-6,23.3c-0.2,5.2-0.3,10.6,1.3,15.6
		c1.6,5,5.4,9.6,10.4,11.1c2.4,0.7,5.2,0.7,7.5-0.5c1.5-0.7,2.8-1.8,4.2-2.4c4.7-2.3,10.2-1,15.3,0.3c4.1,1,5,5.5,9.4,3.3
		c-0.3,5.2-2.4,8.6-4.7,11.2c-6.5,7.6-12.4,12.7-23.6,10.7c-4.9-0.8-9.3-3.3-12.8-6.7c-4.1-3.9-8.3-6-10.6-11.4
		c-2-4.6-2.1-9.6-2.3-14.5c-0.5-17.4,0.8-38,13.7-51.2C167.5,25.2,169,25,170.4,23.4z"/>
	<path class="st4" d="M181.8,179.3c-1.8,7.6-3.6,15.6-0.8,22.9c1.3,3.4,3.6,6.5,6,9.4c3.6,4.4,5.2,7.3,10.4,9.4
		c10.7,4.2,26-0.3,33.2-9.6c7-9.1,9.8-20.8,11.7-32.2c2.4-0.3,4.4-2.3,5-4.7c0.8-2.3,0.7-4.7,0.5-7.2c-0.2-2-2-4.7-3.3-3.4
		c0-4.9,0-9.9-1.5-14.6c-1.5-4.7-5-8.9-9.8-10.4c1.8,4.1,3.4,9.4,0.3,12.7c-0.3,0.5-1,0.8-1.5,0.8c-0.8,0-1.3-0.7-1.8-1.3
		c-2-2.9-2.6-6.7-4.7-9.6c-2.1-2.9-6-5-9.1-3.3c-1.3,0.8-2.3,2.3-3.4,3.3c-1.5,1.3-3.4,1.8-5.2,2.4c-5.9,1.8-17.1,2.6-20.2,8.3
		c-2,3.6-2.3,9.6-3.3,13.7C183.9,170.1,181.8,175.1,181.8,179.3z"/>
	<path class="st4" d="M181.3,221.1c-3.3,3.6-5.9,6.2-10.6,5.4c-0.7,1.1,0.5,2.4,1.6,3.1c11.7,7.5,24.2,15,38,15.9
		c2.9,0.2,9.1-7.8,11.4-9.8c-5.9-4.1-10.6-9.3-10.9-16.4c0,0.5-16.1-6.5-17.4-7.2c-4.1-2.1-3.4-2.4-5.9,0.8
		C185.9,215.6,183.6,218.4,181.3,221.1z"/>
	<path class="st0" d="M152.7,240c-3.6,7.6-4.4,16.3-5.4,24.6c-0.2,1.3-0.2,2.9,0.7,3.9c0.7,0.8,1.6,1.1,2.6,1.5c2.3,0.7,4.6,1,6.8,1
		c1.6,0,3.1-1.1,3.7-2.6c0-0.2,0-0.2,0.2-0.3c1.1-2.6,4.6-3.1,6.7-1.1c6.3,6.2,16.4,8.6,24.7,5.4c1.5-0.7,3.3-0.3,4.4,0.8
		c4.1,3.7,9.3,5.9,14.6,6.2c2,0.2,4.1-0.3,5.7-1.3c1.5-1,3.3-0.7,4.7,0.3c1.8,1.5,4.2,2,6.3,1.3c3.1-1,5-4.2,5.5-7.5
		c0.5-3.3-0.3-6.5-1-9.8c-1.8-7.2-3.7-14.1-5.9-21.3c-0.8-2.8-2-5.9-4.6-7.2c-0.5-0.2-0.8-0.3-1.3-0.3c-0.8,0-1.6,0.3-2.4,0.8
		c-11.5,5.7-25.9,4.9-37.1-1.3c-5.4-2.9-8.8-9.6-15-7.3C160.2,227.9,155.3,234.1,152.7,240z"/>
	<path class="st3" d="M113.8,32c0.3-0.2,0.7-0.3,1.1-0.5c23.9-11.2,36.6,23.4,15.8,32.4C113,71,93.5,42.7,113.8,32z"/>
	<path class="st1" d="M92.5,47.6c0,0-26-6.3-38.7,41.3c0,0,16.1,3.4,19.8,3.3C73.5,92.2,77.3,50.4,92.5,47.6z"/>
	<path d="M128.6,93.5c0,0-14,8.3-55.6-1.5c0,0,1.5-39,19.5-44.6S138.4,62.9,128.6,93.5z"/>
	<path class="st4" d="M73,92c0,0,30.6,25,54.3,25c23.6,0,18-16.7,1.5-23.6C128.6,93.5,92.5,94.8,73,92z"/>
	<path class="st0" d="M88.8,41.9c1-1.5,3.1-2.1,4.9-2.1c0.3,0,0.7,0,1,0.2c0.3,0.2,0.5,0.3,0.7,0.7c0.8,1.3,1.1,3.1,1.3,4.7
		c0,1.5-0.8,2.1-2.3,2.6c-1.3,0.5-5.2,0.5-6.2-1C87.5,45.8,88.2,43.1,88.8,41.9z"/>
	<path d="M220.7,59.7c0,0-2.8,25-16.7,22.3c-14-2.8-11.1-20.8-11.1-20.8l-5.5-1.5c0,0-1.5,16.7-16.7,15.3
		c-15.3-1.5-12.5-20.8-12.5-20.8s-5.5-5.5,1.5-7S220.7,59.7,220.7,59.7z"/>
	<path class="st0" d="M86.4,118.3c-0.5,0.2-0.8,0.3-1.3,0.5c-1,0.3-2.1,0.2-3.3,0.2c-1.5-0.2-3.1-0.2-4.4-1
		c-0.3-0.2-0.7-0.5-0.7-0.8c0-0.5,0.5-1,1.1-1c1.6-0.3,3.4,0,5-0.5c1-0.3,2-1.1,2.9-1c0.8,0,1.6,0.7,2.4,1c1.3,0.5,3.1,0.7,3.7,1.8
		c0.3,0.3,0.3,1,0.2,1.3C91.6,119.8,87.7,118,86.4,118.3z"/>
	<path class="st0" d="M113.4,122.9c-0.5,0-0.8,0-1.3,0c-1.1,0-2.1-0.3-3.1-0.7c-1.5-0.5-2.9-1.1-4.1-2.1c-0.2-0.3-0.5-0.5-0.3-0.8
		c0.2-0.5,0.8-0.7,1.3-0.7c1.6,0.2,3.3,1,4.9,0.8c1,0,2.1-0.5,3.1-0.2c0.8,0.3,1.5,1,2.1,1.5c1.1,0.8,2.8,1.5,3.1,2.8
		c0.2,0.5,0,1-0.3,1.3C117.9,125.8,114.7,122.9,113.4,122.9z"/>
	<g>
		<path d="M81.3,129.4c0.3-0.3,0.8-0.8,1.1-1.5c1.1-2.1,2.1-5,0.2-7c-2.6-2.6-5,1.6-5.4,3.9C76.9,127.8,79.2,131,81.3,129.4z"/>
		<path d="M102.6,134.1c0.3-0.3,0.8-0.8,1.1-1.5c1.1-2.1,2.1-5,0.2-7c-2.6-2.6-5,1.6-5.4,3.9C98.2,132.3,100.5,135.7,102.6,134.1z"
			/>
	</g>
	<g>
		<path d="M200.8,182.7c0.5-0.3,1-0.8,1.5-1.5c1.5-2.3,3.1-5.7,1.1-8.1c-2.8-3.4-6.2,1.3-6.7,3.9C196,180.1,198.2,184.4,200.8,182.7
			z"/>
		<path d="M220.3,186.2c0.5-0.3,1-0.8,1.5-1.5c1.5-2.3,3.1-5.7,1.1-8.1c-2.8-3.4-6.2,1.3-6.7,3.9
			C215.3,183.7,217.6,187.8,220.3,186.2z"/>
	</g>
	<path class="st3" d="M206.5,208.1c0.8,0.3,1.5,0.5,2.3,0.3c0.7-0.2,1.1-0.5,1.6-1c1.3-1.1,2.4-2.4,3.3-4.1c0.2-0.5,0.5-1,0.3-1.5
		c0-0.7-0.5-1.1-0.8-1.6c-0.3-0.5-0.8-1-1.3-1.1c-0.8-0.5-2-0.3-2.8,0.3c-0.8,0.5-1.5,1.3-2.1,2.1c-0.7-1.6-2.3-2.6-3.9-2.6
		c-2.3,0.2-4.4,2.4-2.9,4.4C201.8,205.3,203.9,207.1,206.5,208.1z"/>
	<path class="st6" d="M49,164c0,0-1.1,18.9,3.9,15.4c4.2-2.8,15.6-4.2,15.6-4.2S49,159.2,49,164z"/>
	<path class="st6" d="M95.6,169.2l1,7.8c0,0,7.2,2.3,8.3,4.1C106.4,184,108.6,170.4,95.6,169.2z"/>
	<path class="st4" d="M250.3,235.6c-0.2,0-0.2-0.2-0.2-0.2c-6.8,2.4-11.2,8.9-15.1,15c-3.6,5.4-9.9,14.1-9.9,21
		c0,8.6,9.3,6.5,13,1.5c3.3-4.2,5.5-9.1,7.8-14c2.1-4.6,4.4-9.3,6.5-13.8c1.5-3.1,4.1-12.4,5.9-15.3
		C256.1,229.7,252.5,236.1,250.3,235.6z"/>
	<g>
		<path class="st1" d="M258.9,209.6c0,0-4.6-9.1-19.7-1.5c0,0-6,21.3,4.6,24.4c0,0,6,4.6,3.1,13.7c0,0-3.1,3.1-4.6,3.1
			c-1.5,0,12.2,0,12.2,0s-4.6-3.1-4.6-7.6s6-7.6,7.6-10.6C258.9,227.8,258.9,209.6,258.9,209.6z"/>
		<path class="st3" d="M246.2,214.9c-2.9,0-3.3,0-7.3-1.1c-0.3,0.2-0.7,0.3-1,0.5c-1,6.5-1.1,16.3,5.9,18.2c0,0,0.2,0.2,0.3,0.3
			c0.3,0,0.7,0.2,0.8,0.2c3.9,0.7,8.1,0.2,11.9-1.1c0.2-0.3,0.3-0.5,0.5-0.8c0.8-1.6,1.1-13,1.5-18.2c-0.3,0.2-0.5,0.3-0.8,0.3
			C254.5,214.4,251.1,214.9,246.2,214.9z"/>
		<path class="st7" d="M247.7,214.9c2.3,0,4.7-0.2,6.8-0.8c1-0.2,2-0.5,2.9-1c0.2-0.2,0.7-0.2,1-0.3c-0.5-0.2-0.8-0.2-1.3-0.3
			c-5.7-1-13.7-0.7-19.2,1.3C240.8,215.6,244.7,214.9,247.7,214.9z"/>
	</g>
	<path class="st4" d="M259.9,216.7c-2.1,0.5-3.3,3.3-2.1,5c-0.3-0.5-0.7-1.1-1-1.6c-1.6-0.2-3.4,1.1-3.4,2.8
		c-0.2,1.6,1.3,3.3,3.1,3.3c-2.4-0.2-5.2,1.5-5.5,4.1c-0.3,2.4,2.4,5,4.7,3.9l-0.2,0.2c2.3,2.4,5.5-1,6.3-2.9l2.3-10.7
		C264.2,218.4,262.1,216.2,259.9,216.7z"/>
	<path class="st4" d="M187.7,213.3c0,0,5.2,12.7,23.7,10.4C211.4,223.7,190.9,221.4,187.7,213.3z"/>
	<path class="st8" d="M184.9,194.9c0.7,0.8,1.5,1.6,2.8,1.8c2,0.5,4.2,0.5,5.7-0.8c1.5-1.3,1.5-3.6,1.3-5.5
		c-0.2-4.4-5.9-6.2-8.8-3.1C183.8,189.2,183.4,192.7,184.9,194.9z"/>
	<path class="st8" d="M220.7,203.1c0.7,0.8,1.5,1.6,2.8,1.8c2,0.5,4.2,0.5,5.7-0.8s1.5-3.6,1.3-5.5c-0.2-4.4-5.9-6.2-8.8-3.1
		C219.5,197.4,219.2,200.8,220.7,203.1z"/>
	<path class="st3" d="M205.4,132.5c5.4-2,11.2-2.1,16.9-1.5c7.2,1,14.5,3.4,19.8,8.3c4.4,4.1,7.3,10.1,7.3,15.9c0,2-2.1,3.4-3.9,2.6
		c-0.2,0-0.2-0.2-0.3-0.2c-1.8-0.8-3.9,0.3-4.1,2.3c-0.2,0.8-0.2,1.6-0.3,2.3c-0.2,0.8-0.3,1.6-1,2.3c-0.5,0.5-1.3,0.5-2,0.5
		c-3.7-0.2-6.7-3.4-8.9-6.5c-2.3-3.1-4.7-6.3-8.5-7.2c1,1.3,1.8,2.8,2.1,4.4c0.3,1.6-0.3,3.6-1.6,4.4c-2,1.1-4.4-0.3-6.2-1.6
		c-3.1-2.3-6-4.6-9.1-6.8c-0.7-0.5-1.1-1-2-1.1c-0.7-0.2-1.3-0.3-2-0.2c-6.5,0.5-10.7,9.6-17.2,8.5c-0.8-0.2-1.6-0.5-2-1.1
		c-0.3-0.5-0.5-1.1-0.5-1.8c0.2-4.2,3.7-7.5,5.9-10.7C191.7,139.7,199,134.8,205.4,132.5z"/>
	<path class="st9" d="M188,213.1c0,0,4.4,12.8,23.3,9.4C211.2,222.6,197.4,224.2,188,213.1z"/>
	<path class="st6" d="M75.5,185.5c-0.8,0.5-2.3,0-2.4-1c-0.2-0.7,0.3-2,0.8-2.4c1.3-1.3,2.6,0.7,2.4,2.1
		C76.1,184.9,76,185.3,75.5,185.5z"/>
	<path class="st6" d="M81.3,192c-0.8,0.5-2.3,0-2.4-1c-0.2-0.7-0.2-1.5,0.3-2c1.3-1.3,3.1,0.2,2.8,1.8C82,191.2,81.6,191.7,81.3,192
		z"/>
</g>
</svg>
