<?xml version="1.0" encoding="utf-8"?>
<!-- Generator: Adobe Illustrator 22.1.0, SVG Export Plug-In . SVG Version: 6.00 Build 0)  -->
<svg version="1.1" id="Capa_1" xmlns="http://www.w3.org/2000/svg" xmlns:xlink="http://www.w3.org/1999/xlink" x="0px" y="0px"
	 viewBox="0 0 297.6 297.6" style="enable-background:new 0 0 297.6 297.6;" xml:space="preserve">
<style type="text/css">
	.st0{fill:#73BECB;}
	.st1{fill:#08984B;}
	.st2{fill:#F9483B;}
	.st3{fill:#F193BE;}
	.st4{fill:#F7F5F5;}
	.st5{fill:#FFFFFF;}
	.st6{fill:none;stroke:#DEE0E0;stroke-width:0.25;stroke-linecap:round;stroke-linejoin:round;stroke-miterlimit:10;}
	.st7{fill:none;stroke:#407484;stroke-width:0.25;stroke-linecap:round;stroke-linejoin:round;stroke-miterlimit:10;}
</style>
<g>
	<path d="M82.3,42.7c0,0,95.6-4.6,107.9-3.1c12.3,1.5,25.8-1.5,27.3,31.9s6.1,205-24.2,217.2s-115.4,3.1-122.9-1.5
		c-7.5-4.6-7.5-19.8-7.5-42.5c0-22.7,1.5-180.6,3.1-188.3C67.1,48.7,73.3,42.7,82.3,42.7z"/>
	<path class="st0" d="M85.4,49c0,0,90-4.3,101.4-2.9c11.4,1.4,24.2-1.4,25.8,30s5.6,192.9-22.9,204.4S81.1,283.4,74,279.2
		c-7.2-4.3-7.2-18.6-7.2-39.9s1.4-170,2.9-177.2C71.2,54.8,76.9,49,85.4,49z"/>
	<path d="M63,218c0,0-10.2,6.1-5.8,18.3c4.6,12.1,30.4,50.2,69.8,48.7c39.4-1.5,77.5-22.7,95.6-44s53.1-80.4,13.7-185.2
		S174,34.3,174,34.3l3.4,2.7c0,0,22.4-71.2,54.3,20s15.2,202-91.2,218.7C140.9,275.7,73.6,275.7,63,218z"/>
	<path d="M169.4,40.3c0,0,0.3-4.6,5-6.1c4.6-1.5,5.3,6.3,5.3,6.3L169.4,40.3z"/>
	<path class="st1" d="M52.8,104.2c-1.2,1.9-2.2,3.8-3.1,5.8c-0.9,1.9-1.2,4.1-1,6.3c0.2,5.3,2.7,10.6,6.8,13.8
		c4.1,3.2,9.9,4.4,15,2.7c2.7-0.9,5-2.6,7-4.4c3.6-3.4,6.1-8,6.5-13.1c0.5-9.6-7.7-22-18.3-19.8c-3.4,0.7-6.7,2.7-9.4,5
		C55,101.4,53.8,102.6,52.8,104.2z"/>
	<path d="M61.3,103.5c0,0-3.2,22.5,1,22c4.4-0.5,15.4-9.4,14.3-10.9C75.7,112.7,60.8,96.8,61.3,103.5z"/>
	<path class="st2" d="M56.6,165.8c0.5-0.2,0-9.7,1.9-10.8c1.9-1,5.8,7.3,5.8,7.3s7.3-2.4,7.9-2.4c0.5,0-4.4,7.3-4.4,7.3
		s5.8,5.8,3.9,6.8s-9.4-2.4-9.4-2.4s-1.5,7.9-3.4,7.3c-1.9-0.5-1.9-7.9-1.9-7.9S41.7,171.3,56.6,165.8z"/>
	<path class="st3" d="M55.2,265.5c0.7,0,1.4-0.5,2.4-1.4c1.2-1.2,2.4-2.4,3.6-3.4c0.5-0.5,1-1,0.9-1.7c0-0.5-0.3-0.9-0.7-1.2
		c-1.7-1.9-3.2-3.9-4.4-6.3c-0.5-1-1-2.4-0.2-3.1c0.5-0.5,1.2-0.5,1.9-0.5c6.8,0,13.7,0.2,20.7,0.3c0.3,0,0.9,0,1.2,0.3
		c0.3,0.3,0.5,0.9,0.5,1.4c0.7,7.9-0.9,16-4.4,23c-0.3,0.7-0.7,1.2-1.2,1.5c-0.7,0.3-1.5,0.3-2.2,0.2c-2.2-0.3-4.3-1.5-6-3.1
		c-2.7,5-8.4,8.2-14,8c-2.2,0-4.4-0.5-6-1.9c-2-1.7-3.1-4.6-3.4-7.2c-0.5-2.7-1.5-8.7,2.7-9c1.9-0.2,3.8,1,5.3,2
		C53.3,264.8,54.2,265.5,55.2,265.5z"/>
	<path class="st2" d="M188.5,261.9c-1.2-1.9-3.4-3.1-5.6-3.8c-1.5-0.5-3.1-0.9-4.8-0.7c-2.6,0.3-4.6,2-6.3,4.1
		c-0.2,0.2-0.3,0.2-0.5,0c0,0,0-0.2-0.2-0.2c-2.4-3.6-7.9-3.1-9.6,0.9c-0.2,0.2-0.2,0.5-0.3,0.7c-0.7,1.5-1.2,3.4-0.7,5.1
		c0.5,1.9,2.4,3.1,3.9,4.1c3.6,2.2,7.2,4.6,10.8,6.7c1,0.7,2.2,1.2,3.4,1c0.9-0.2,1.5-0.7,2-1.2c2.7-2,5.5-4.3,7.2-7.2
		C189.9,268.6,190.4,264.6,188.5,261.9z"/>
	<path class="st2" d="M105.9,102.6c1.5,28.9,17.8,39.4,39.4,39.4s39.4-17.8,39.4-39.4s-10.6-39.4-39.4-39.4
		C123.7,63.2,104.9,80.8,105.9,102.6z"/>
	<g>
		<path class="st4" d="M129.6,145.5c-5.3-1.7-10.4,3.4-8.2,8.7c1,2.2,3.2,3.9,5.8,3.2c2.6-0.7,3.8-3.4,3.1-5.8
			c0-0.2-0.3-0.3-0.5-0.3c-1.2,0-3.1-0.5-3.9,0.2c-0.2,0.2-0.3,0.3-0.3,0.7v0.2c0,0.2,0.3,0.3,0.5,0.3h0.2c0.7,0,0.7-1,0-1.2
			c0,0.9,0.3,1,1,0.9c0.5,0,1,0,1.7,0c1.2,1-0.3,3.1-1.2,3.6c-2.2,1.5-5-0.5-5.6-2.7c-1.4-4.4,2.7-8,7-6.7
			C130,146.8,130.3,145.6,129.6,145.5L129.6,145.5z"/>
	</g>
	<g>
		<path class="st4" d="M137.5,145.1c-3.6,0.3-5.8,4.1-5.3,7.7c0.5,2.9,4.4,4.4,7,3.8c6.3-1.4,3.2-14.3-3.6-10.9
			c-0.7,0.3,0,1.4,0.5,1c5.3-2.7,7.5,8,2.4,8.9c-2.2,0.3-5.1-0.9-5.5-3.2c-0.2-2.6,1.4-5.6,4.1-5.8
			C138.2,146.2,138.2,145.1,137.5,145.1L137.5,145.1z"/>
	</g>
	<g>
		<path class="st4" d="M149.8,145.1c-2.9,0.7-4.6,3.1-4.8,6.1c-0.2,3.2,2.6,5.1,5.6,4.8c2.7-0.3,5-3.1,4.6-5.8
			c-0.2-3.1-3.4-4.8-6.1-4.4c-0.7,0-0.7,1.2,0,1.2c1.7-0.2,3.6,0.5,4.6,2c1.7,2.6-0.9,6-3.8,6.1c-5.8,0.2-4.4-7.7,0.2-8.7
			C150.8,146.2,150.5,145,149.8,145.1L149.8,145.1z"/>
	</g>
	<g>
		<path class="st4" d="M157.5,147c0.2,2,0.3,4.3,0.5,6.3c0,0.9-0.2,2.7,0.9,3.2c0.9,0.5,2.2-0.2,3.1-0.5c1.4-0.5,2.7-1.4,3.6-2.6
			c1.5-1.9,1.7-5-0.3-6.7c-2.2-1.9-5.8-1.9-8.2-0.5c-0.7,0.3,0,1.4,0.5,1c1.9-1,4.6-1.2,6.3,0c2.4,1.5,1.5,4.8-0.3,6.3
			c-0.7,0.7-2,1.4-2.9,1.5c-1.5,0.3-1.7-1.2-1.7-2.4c-0.2-2-0.3-3.9-0.5-6C158.5,146.3,157.3,146.3,157.5,147L157.5,147z"/>
	</g>
	<g>
		<path class="st4" d="M121.6,161.9c1.4,1.5,2.7,3.1,3.9,4.8c0.7,0.7,1.5,2.2,2.6,1.7c1-0.3,1.2-1.5,1.4-2.4c0.5-1.9,1-3.9,1.5-5.8
			c0.2-0.7-0.9-1-1-0.3c-0.3,1.2-0.7,2.6-1,3.8c-0.2,0.9-0.5,2.9-1.4,3.2c-0.9,0.2-2-1.7-2.7-2.6c-0.9-1-1.7-2-2.7-3.1
			C121.9,160.5,121.1,161.2,121.6,161.9L121.6,161.9z"/>
	</g>
	<g>
		<path class="st4" d="M133.6,161.4c0.2,2.2,0.3,4.4,0.3,6.7c0,0.7,1.2,0.7,1.2,0c-0.2-2.2-0.3-4.4-0.3-6.7
			C134.7,160.5,133.6,160.5,133.6,161.4L133.6,161.4z"/>
	</g>
	<g>
		<path class="st4" d="M134.1,158.3c0.7,0,0.7-1.2,0-1.2C133.2,157.1,133.2,158.3,134.1,158.3L134.1,158.3z"/>
	</g>
	<g>
		<path class="st4" d="M138.8,169c-0.2-2.2-0.3-4.3-0.9-6.5c-0.2-1-0.3-1,0.3-2c0.9-1.2,1.5-1.4,2.7-0.3c0.9,0.3,1,0.9,0.3,1.5
			c-0.2,0.5-0.3,0.9-0.9,1.2c-0.5,0.5-1.2,0.7-1.7,1c-0.7,0.3-0.2,1.2,0.5,1c1.9-0.5,4.8-0.7,4.1,2.7
			C142.8,169.7,140.6,169.7,138.8,169c-0.5-0.5-1.2,0.5-0.5,0.9c2.7,1.5,5.5,0.9,6.1-2.6c0.7-3.6-2.7-4.1-5.6-3.6
			c0.2,0.3,0.3,0.7,0.5,1c1.5-0.7,3.4-1.7,3.6-3.8c0.2-1.4-0.7-2.4-2-2.7c-1.2-0.2-3.9,0.2-4.4,1.5c-0.3,0.9,0.3,2.6,0.5,3.4
			c0.3,1.9,0.5,3.8,0.7,5.8C137.7,169.7,138.8,169.7,138.8,169L138.8,169z"/>
	</g>
	<g>
		<path class="st4" d="M151.8,158.6c-2.2,0-4.4,0-6.7,0.2c-0.3,0-0.5,0.2-0.5,0.5c0,2.9,0.2,5.6,0.2,8.5c0,0.3,0.2,0.5,0.5,0.5
			c2.4,0,4.8-0.2,7.3-0.2c0.7,0,0.7-1.2,0-1.2c-2.4,0-4.8,0.2-7.3,0.2c0.2,0.2,0.3,0.3,0.5,0.5c0-2.9-0.2-5.6-0.2-8.5
			c-0.2,0.2-0.3,0.3-0.5,0.5c2.2-0.2,4.4-0.2,6.7-0.2C152.7,159.8,152.7,158.6,151.8,158.6L151.8,158.6z"/>
	</g>
	<g>
		<path class="st4" d="M145.7,164.4c1.4-0.2,2.6-0.2,3.9,0c0.7,0,0.7-1,0-1.2c-1.4,0-2.6,0-3.9,0
			C144.8,163.4,144.8,164.4,145.7,164.4L145.7,164.4z"/>
	</g>
	<g>
		<path class="st4" d="M160.9,159c-2-1.4-6.5-0.9-6.7,2.4c0,1.7,1.2,1.5,2.4,1.7c0.7,0.2,1.4,0.3,1.9,0.9c0.3,0.2,0.7,0.5,0.9,0.9
			c0.5,0.5,0.5,1.2-0.2,1.7c-0.2,0.9-0.5,1-1.2,1c-0.3,0-0.9,0-1.2-0.2c-0.9-0.2-1.4-0.5-2-1c-0.7-0.3-1.2,0.5-0.5,1
			c2,1.4,7.9,2.2,6.8-2c-0.3-1.4-1.7-2.7-3.1-3.2c-0.3-0.2-0.9-0.2-1-0.2c-0.9,0.2-1-0.3-0.9-1.5c0.2-0.2,0.3-0.3,0.5-0.5
			c1.2-0.9,2.7-0.7,3.9,0C161,160.5,161.6,159.5,160.9,159L160.9,159z"/>
	</g>
	<path class="st3" d="M221.8,88.3c-2.2-1.7-5.3-2-8.2-1.7c-5.6,0.9-10.9,4.4-13,9.7c-2.2,5.3-0.5,11.4,3.8,15.2
		c-2.6,0.7-7,3.6-4.3,5.6c1.9,1.5,8.4-1.7,10.1-2.4C217.9,111,231.7,96.1,221.8,88.3z"/>
	<path class="st1" d="M113.7,49.5c1.9,2.2,3.9,4.3,6,6.3c2.7-6,6-12,9.6-17.4c0.3-0.5,0.7-1,1.4-1.2c0.3,0,0.9,0.2,1.2,0.3
		c1,0.5,2.2,1,3.2,1.5c0.3,0.2,0.9,0.3,1.2,0.7c0.7,0.9,0.2,2-0.2,2.9c-3.6,7-9.6,12.8-12,20.3c-0.3,0.9-0.5,1.7-1.4,2
		c-0.3,0.2-0.9,0.2-1.2,0.2c-1.5,0.2-3.2,0.2-4.8,0.3c-1.4-3.1-6.8-6.7-7.5-9.4C109,54.7,113.2,48.8,113.7,49.5z"/>
	<path class="st5" d="M220.5,151.3c-0.2-0.5-3.9,0.3-7.3,1.2c-0.2-3.8-0.5-7.5-0.7-11.3c-0.2-1.5-0.3-3.4-2-4.1
		c-1-0.5-2.4-0.3-3.4,0.2c-4.8,2.2-7.2,8.4-5.3,13.1c-4.6-0.5-9.4,1-13,3.9c-1,0.9-1.7,2-1.7,3.4c0,2.7,2.9,3.9,5.5,4.1
		c0.3,0,0.3,0.5,0,0.5c-1.5,0.5-3.6,0.2-4.6,1.9c-0.7,1.2-0.3,2.9,0.7,3.9c1.7,1.7,4.1,1.7,6.3,1.4c0.2,0,0.2,0.2,0,0.2
		c-2.2,0.5-5.5,0.3-6.1,3.8c-0.2,0.9-0.2,1,0,1.5c0,0.5,1,1.5,1.4,1.7c4.6,2.6,23.7,2.4,24.9-3.1c0.3-1.5,0.2-3.6-0.2-5.8
		c2-0.3,4.3-0.7,6.3-1.2C221.6,161.5,221.3,156.4,220.5,151.3z"/>
	<path d="M130.5,101.9c0.7,1,1.9,2,3.1,1.9c1,0,1.9-0.9,2.6-1.9c2.6-3.8,2.6-8.7,1.9-13.1c-0.5-4.3-3.8-10.8-8.5-5.1
		C125.7,88.5,127.1,97.5,130.5,101.9z"/>
	<path d="M151.6,101.9c0.7,1,1.9,2,3.1,1.9c1,0,1.9-0.9,2.6-1.9c2.6-3.8,2.6-8.7,1.9-13.1c-0.5-4.3-3.8-10.8-8.5-5.1
		C146.9,88.5,148.2,97.5,151.6,101.9z"/>
	<path class="st5" d="M123.5,110.3c-2.7,0.3-4.4,2.9-3.8,5.5c1.7,6.3,6.3,16.4,18.8,16.4c18.3,0,33.5-10.6,35-19.8
		C174.7,105,137,108.8,123.5,110.3z"/>
	<path class="st6" d="M102.3,178.3c0,2.9-0.2,5.8,0.2,8.7c0-0.2,0.2-0.2,0.2-0.3"/>
	<path class="st6" d="M107.6,178.8c-0.3,2.6-0.3,5-0.2,7.5"/>
	<path class="st6" d="M109.3,185.3c0.3,0.3,0.7,0.5,1,0.7c0.3,0.2,0.7,0.3,1,0.3c0.7,0,1-0.7,1.4-1.2c0.7-1.4,0.3-4.1-1.7-3.8
		C109.3,181.5,108.3,184.1,109.3,185.3z"/>
	<path class="st6" d="M113.7,181.5c0.3,1.9,0.5,3.9,1.9,5.3c0.5-1.7,1.2-3.4,1.7-5.1"/>
	<path class="st6" d="M118,184.6c1.5-0.3,3.2-0.5,4.8-0.9c0.2,0,0.3,0,0.3-0.2v-0.2c-0.2-0.7-0.5-1.4-1.2-1.5c-0.7-0.3-1.4,0-2,0.3
		c-0.3,0.2-0.9,0.5-1,1c-0.3,0.5-0.3,1.2-0.3,1.7c0,0.3,0,0.7,0.2,1c0.2,0.5,0.9,1,1.4,1c0.5,0.2,1.2,0,1.9,0c0.3,0,0.9-0.3,0.7-0.7
		"/>
	<path class="st6" d="M127.7,182.4c0,0.5,0.3,0.9,0.5,1.4c0.7,1.2,1.5,2.6,2.4,3.8l0.2,0.2c0,0,0.2-0.2,0-0.2"/>
	<path class="st6" d="M132.9,182.4c-0.9,2.6-1.7,5.1-2.6,7.5c-0.2,0.3-0.2,0.7-0.5,0.9"/>
	<path class="st6" d="M133.7,182.5c0.3-0.5,1-0.7,1.5-0.7c0.5,0,1.2,0.3,1.5,0.9c0.3,0.7,0.3,1.4,0.3,2.2s0,1.5,0,2.4
		c0.2-0.7,0.2-1.4-0.2-2c-0.2-0.7-0.9-1.2-1.5-1.2c-0.5,0-1,0.2-1.4,0.3c-0.5,0.2-0.9,0.5-1.2,0.9c-0.3,0.3-0.5,0.9-0.3,1.4
		c0.3,0.7,1.2,1,2,1c0.5,0,1,0.2,1.7,0s1-0.5,1.2-1"/>
	<path class="st7" d="M105.2,190.7c-1,0-2.2,0-3.2,0.3c-0.2,0-0.2,0-0.2,0.2c0,0.2,0,0.2,0,0.3c0.2,2,0.3,4.1,0.3,6.1
		c0,0.2,0,0.3,0.2,0.5c0.2,0.2,0.3,0.2,0.5,0.2c1.2,0,2.2,0,3.4-0.2"/>
	<path class="st7" d="M107.1,194c0,1.2,0.2,2.6,0.2,3.8c-0.2-1,0-2.2,0.5-3.2c0.2-0.3,0.3-0.7,0.7-0.9c0.5-0.3,1.4,0,1.7,0.5
		c0.3,0.5,0.5,1.2,0.5,1.9c0,0.7,0,1.4,0.2,2"/>
	<path class="st7" d="M116.3,195.2c-0.2-0.9-1-1.4-1.9-1.2c-0.9,0-1.5,0.7-1.9,1.4c-0.2,0.3-0.3,0.7-0.3,1c0,0.9,0.7,1.7,1.4,1.9
		c0.9,0.2,1.9-0.2,2.2-0.9c0.5-0.7,0.5-1.7,0.3-2.6c0-0.2-0.2-0.5-0.3-0.3c-0.2,0.7,0.2,1.5,0.3,2.2c0.2,1,0.3,1.9,0.3,2.9
		c0,0.3,0,0.7-0.2,1c-0.3,0.9-1.2,1.4-2,1.2s-1.5-0.7-2-1.5"/>
	<path class="st7" d="M118,194.3c0.5-1,2.2-1.2,3.1-0.5c0.5,0.5,0.9,1.4,0.9,2.2s0,1.5,0,2.4c0.2-0.9,0-1.9-0.7-2.4
		c-0.7-0.5-1.7-0.7-2.6-0.2c-0.2,0.2-0.5,0.3-0.5,0.5c-0.3,0.5-0.2,1.2,0.3,1.7c0.5,0.3,1.2,0.5,1.7,0.5c0.7-0.2,1.2-0.3,1.7-0.7"/>
	<path class="st7" d="M126.6,195.2c-0.3-0.7-1.2-1-1.9-0.9c-0.7,0.2-1.2,0.9-1.5,1.5s-0.3,1.4,0,1.9c0.3,0.5,1,0.7,1.5,0.7
		c0.5-0.2,1-0.5,1.5-1c0.7-0.9,0.9-2,0.3-3.1c-0.2,0.7,0.2,1.5,0.3,2.2c0.5,1.9,0.5,3.8-0.3,5.3c-0.2,0.3-0.5,0.7-0.9,0.7
		c-0.9,0-1.2-1.4-2-1.5"/>
	<path class="st7" d="M128.1,196.5c1.4-0.2,2.6-0.3,3.9-0.7c0-0.9-0.7-1.7-1.5-1.9c-0.9-0.2-1.9,0.2-2.2,1
		C128.1,195.3,127.9,195.8,128.1,196.5c0,0.9,0.3,1.9,1.2,2.2c0.3,0.2,0.7,0.2,1,0.2c0.9,0,1.7-0.3,2.2-1"/>
	<path class="st7" d="M138.5,192.3c0.9-0.7,2.2-0.7,3.1,0c0.7,0.5,0.7,1.5,0.9,2.4c0,0.2,0,0.5,0,0.7c-0.2,0.3-0.5,0.5-0.7,0.5
		c-0.9,0.3-1.7,0.5-2.6,0.3c1.2,0,2.6-0.2,3.6,0.3c0.5,0.3,1.2,0.9,1,1.5c-0.5,1.5-3.8,2-4.4,0.5C138.3,197,138.7,194,138.5,192.3z"
		/>
	<path class="st7" d="M144.1,195.3c0.9-1,2.2-1.2,3.6-1c0.2,0,0.5,0,0.7,0.2c0.2,0.2,0.3,0.5,0.3,0.7c0.3,1.4,0.3,2.7,0.2,4.3
		c0.2-1.2-0.2-2.2-0.9-3.2c-0.2-0.2-0.2-0.3-0.3-0.3c-0.2,0-0.3,0-0.7,0c-0.7,0.2-1.2,0.5-1.7,1c-0.5,0.5-0.9,1-0.5,1.7
		c0.2,0.5,0.9,0.9,1.4,1s0.9,0.2,1.4,0.2c0.3,0,0.7,0,1-0.2c0.3-0.2,0.5-0.5,0.5-0.9"/>
	<path class="st7" d="M150.5,192.8c-0.2,1.9-0.3,3.8-0.2,5.8c0,0.3,0.2,0.9,0.5,0.9c0.2,0,0.3,0,0.5-0.2c0.7-0.3,1.4-0.7,1.9-1.2
		c0.5-0.5,0.7-1.4,0.3-2c-0.3-0.5-1-0.9-1.7-0.9s-1.4,0.2-2,0.2"/>
	<path class="st7" d="M154.9,197.7c1,0,2.2,0,3.2-0.2c0.2,0,0.3,0,0.3-0.2c-0.2-0.9-0.9-1.7-1.7-2c-0.9-0.3-2,0-2.4,0.9
		c-0.2,0.3-0.2,0.7-0.2,1c0,0.5,0.2,1,0.3,1.5c0.5,0.9,1.7,0.9,2.7,0.9c0.5,0,1-0.2,1.2-0.5c-0.2,0-0.3,0-0.5-0.2"/>
	<path class="st7" d="M101.6,194.6c1.2,0,2.4-0.2,3.6-0.2c-0.2,0-0.3,0-0.5,0"/>
	<path class="st7" d="M102.5,204.5c0-0.2,0-0.3,0-0.3c0.2-0.2,0.3-0.3,0.5-0.5c0.7-0.3,1.4-0.7,2.2-0.5c0.7,0,1.4,0.3,1.4,0.9
		c0.2,0.5-0.3,1-0.9,1.4c-0.9,0.7-1.9,1-2.9,1.4c1,0.2,2.2-0.3,3.1,0.2c0.5,0.2,0.7,0.7,0.9,1.2c0.2,0.3,0.2,0.7,0.2,1
		c0,0.3-0.2,0.5-0.3,0.7c-0.7,1.2-2.9,2-3.9,0.9C101.8,209.3,102.5,206.1,102.5,204.5z"/>
	<path class="st7" d="M108.8,206.4c-0.2,1.4,0,2.7,0.2,4.1c-0.2-0.7-0.3-1.5-0.2-2.2c0-0.9,0.3-1.5,0.9-2c0.3-0.3,1-0.5,1.4-0.2"/>
	<path class="st7" d="M111.9,206.3c0.5-0.7,1.5-0.5,2.2-0.2c0.7,0.5,1,1.4,1,2.2s-0.2,1.7-0.3,2.6c0-0.5,0.2-1,0-1.5
		c-0.2-0.5-0.3-1-0.9-1.4c-0.5-0.2-1-0.2-1.5,0s-1,0.5-1.4,1c-0.3,0.5-0.2,1.2,0.3,1.5c0.3,0.2,0.5,0.2,0.9,0.2c0.5,0,1.2,0,1.7-0.3
		c0.5-0.2,0.9-0.7,1-1.4"/>
	<path class="st7" d="M116.3,206.4c0,1.4,0.2,2.7,0.2,3.9c-0.3-1.7,0.2-3.6,1.5-4.6c0.2,0,0.2-0.2,0.3-0.2c0.2,0,0.2,0,0.3,0.2
		c1.5,1,2.2,3.4,1.4,5.1"/>
	<path class="st7" d="M125.5,207.8c-0.7-0.5-1.4-1-2-1s-1.4,0.3-1.7,0.9c-0.3,0.5-0.5,1.2-0.5,1.9c0,0.2,0,0.5,0.2,0.7
		c0.2,0.2,0.3,0.2,0.3,0.3c0.5,0.3,1.4,0.7,1.9,0.5c0.3-0.2,0.5-0.3,0.7-0.5c1.4-1.5,1.9-3.9,1.2-5.8c0,2.2,0.3,4.6,0.5,6.8"/>
	<path class="st7" d="M127.2,207.8c0.2,1,0.3,2.2,0.3,3.4c0-0.2,0-0.2,0-0.3"/>
	<path class="st7" d="M127.6,205.7v0.2"/>
	<path class="st7" d="M128.9,207.1c0,1.4,0,2.6,0,3.9c0-0.9,0-1.7,0.3-2.6c0.3-0.9,0.9-1.5,1.5-1.9c0.2,0,0.2-0.2,0.3,0
		c0.2,0,0.3,0.2,0.3,0.3c1,1.4,1.4,3.1,1.2,4.6"/>
	<path class="st7" d="M137.5,207.8c-0.3-0.7-1.2-1-2-0.7c-0.9,0.3-1,1-1.4,1.9c-0.2,0.5-0.2,0.9,0,1.4c0.2,0.5,0.3,0.9,0.9,1
		c0.7,0.2,1.4-0.3,1.9-0.9c0.5-0.7,1-1.5,0.9-2.4c0-0.5-0.2-1-0.7-1.2c-0.3,0.5,0,1.2,0.2,1.7c0.5,1.2,0.7,2.6,0.9,3.9
		c0,0.5,0,1.2-0.3,1.7c-0.3,0.5-1,0.7-1.5,0.7c-1,0-2-0.5-2.6-1.4"/>
	<path class="st7" d="M143.3,204.5c-0.2,2.2-0.3,4.4-0.7,6.7c0-0.2-0.2-0.2,0-0.3"/>
	<path class="st7" d="M145,211.2c0-1.2,0-2.4-0.3-3.6c0,0,0-0.2-0.2-0.2v0.2"/>
	<path class="st7" d="M144.8,205.7C144.8,205.9,144.8,205.9,144.8,205.7"/>
	<path class="st7" d="M150.3,204.9c-0.9,1-2.6,2.2-3.2,3.4c-0.5,1.2,1.5,2.4,2.6,3.2c0,0,0.2,0.2,0.2,0c0,0,0.2-0.2,0-0.2"/>
	<path class="st7" d="M151,208.8c1,0,2,0,3.1-0.2c0.2-0.5-0.5-1-1-1.2C152.2,207.4,151.1,208,151,208.8c-0.5,0.9,0,1.9,0.9,2.2
		s1.9,0,2.2-0.9"/>
	<path class="st7" d="M147.2,205.1c0,2,0.2,3.9,0.3,6"/>
	<path class="st7" d="M103,214.3c0,2.4,0.2,4.6,0.2,7c0,0.2,0,0.5,0.2,0.7c0,0.2,0.2,0.2,0.3,0.2c0.9,0.3,1.9,0.3,2.6,0"/>
	<path class="st7" d="M108.1,218.4c0,1-0.2,2.2-0.2,3.2"/>
	<path class="st7" d="M107.4,216.8L107.4,216.8"/>
	<path class="st7" d="M111.5,217.5c-0.3-0.3-1-0.5-1.5-0.2c-0.5,0.3-0.9,0.9-1,1.4c0,0.2,0,0.3,0,0.3c0,0.2,0.3,0.3,0.5,0.3
		c0.7,0.2,1.4,0.2,1.9,0.5c0.7,0.2,1.2,0.9,1.2,1.4c0,0.2,0,0.3-0.2,0.3c0,0-0.2,0.2-0.3,0.2c-0.5,0.2-1,0.3-1.5,0.2
		c-0.5,0-1-0.3-1.2-0.9"/>
	<path class="st7" d="M114.9,214.4c-0.2,2.6-0.2,5.3,0.2,7.9"/>
	<path class="st7" d="M112.6,218.4c1.2,0,2.2-0.2,3.4-0.2c0.2,0,0.3,0,0.5-0.2"/>
	<path class="st7" d="M116.5,220.3c1.2,0,2.2-0.2,3.4-0.2c0-0.5,0-0.9-0.2-1.4c-0.2-0.3-0.5-0.9-1-0.9c-0.7-0.2-1.4,0.3-1.7,0.9
		C116.8,219.1,116.7,219.6,116.5,220.3c0,0.3,0.2,1,0.7,1.4c0.5,0.3,1,0.5,1.5,0.5c0.5,0,1.2,0,1.4-0.5"/>
	<path class="st7" d="M121.4,217.9c0,1.4,0,2.9,0.2,4.3c0.2-1-0.2-2,0.3-3.1c0.5-0.9,1.7-1.2,2.6-0.7c0.9,0.7,0.9,1.7,0.9,2.7
		c0,0.3,0,0.9,0,1.2"/>
	<path class="st7" d="M131,218.7c1.4-0.3,2.7-0.5,4.1-0.5h0.2c0,0,0-0.2-0.2-0.2"/>
	<path class="st7" d="M132.4,215.6c-0.3,1.9-0.7,3.8-0.2,5.5c0.2,0.3,0.3,0.7,0.5,1c0.3,0.2,0.9,0.3,1,0"/>
	<path class="st7" d="M137,218.2c-0.5,0.3-0.9,0.9-1,1.4c-0.2,0.3-0.2,0.9-0.2,1.4c0,0.5,0.3,0.9,0.7,1c0.3,0.2,1,0.2,1.4-0.2
		c1-0.5,1.4-2,0.7-3.1c-0.2-0.2-0.3-0.3-0.5-0.5c-0.5-0.2-1-0.2-1.5,0.2"/>
	<path class="st7" d="M144,218.4c-0.2,1-0.2,2,0,3.1c0-1.2,0.3-2.2,1-3.1c0.2-0.3,0.5-0.5,1-0.5c0.2,0,0.3,0.2,0.3,0.3
		c0.7,1,0.9,2.4,0.5,3.6c0.2-0.9,0.3-1.5,0.7-2.2c0.2-0.3,0.3-0.7,0.5-0.9c0.3-0.2,0.7-0.3,1-0.2c0.2,0.2,0.3,0.3,0.5,0.5
		c0.3,0.7,0.5,1.5,0.3,2.2"/>
	<path class="st7" d="M151.5,219.7c0.9,0,1.5-0.2,2.4-0.5c-0.2-0.7-0.3-1.5-1-1.7c-0.5-0.2-1,0.2-1.4,0.7c-0.3,0.5-0.7,1.2-0.7,1.9
		c0,0.3,0,0.5,0,0.7c0.2,0.5,0.9,0.9,1.4,0.9c0.7,0,1.5-0.2,1.9-0.9"/>
	<path class="st7" d="M102.5,224.9c0.3,2.6,0.9,5.3,2.4,7.5c0-2,0.3-3.9,1-5.8c0.2,1.9,0.7,3.8,1.7,5.5c0,0.2,0.2,0.2,0.3,0.2
		c0.5-1.9,0.7-3.9,0.9-5.8"/>
	<path class="st7" d="M110,228.8c0.3-0.7,1-1.2,1.9-1.4c0.2,0,0.3,0,0.5,0c0.2,0,0.3,0.2,0.3,0.3c0.7,1,0.9,2.2,0.7,3.4
		c0-0.7-0.2-1.2-0.5-1.7c-0.3-0.5-1.2-0.7-1.7-0.3c-0.2,0.2-0.3,0.3-0.5,0.5c-0.3,0.3-0.5,1-0.3,1.5c0.2,0.3,0.5,0.7,1,0.9
		c0.5,0.2,1,0.2,1.4,0.2c0.5-0.2,0.9-0.5,0.9-1"/>
	<path class="st7" d="M114.8,228.4c0.2,1.2,0.5,2.2,0.7,3.4c0-0.2,0-0.2,0-0.3"/>
	<path class="st7" d="M117,225.7c0,2.2,0,4.4,0.2,6.7"/>
	<path class="st7" d="M114.3,227.3v0.2"/>
	<path class="st7" d="M116,227.6c0.9,0,1.9,0,2.7,0"/>
	<path class="st7" d="M120.1,228.3c0,1.2,0,2.4,0.3,3.6"/>
	<path class="st7" d="M119.7,227.1C119.7,227.1,119.7,227.3,119.7,227.1"/>
	<path class="st7" d="M120.9,227.6c0,1.4,0.2,2.7,0.3,3.9c0-1.2,0-2.6,0.7-3.6c0.2-0.2,0.5-0.5,0.7-0.3c0.2,0,0.2,0.2,0.3,0.2
		c0.3,0.3,0.7,0.9,1,1.4c0.2,0.5,0.2,1.2,0.2,1.7c0,0.3,0,0.9,0,1.2"/>
	<path class="st7" d="M127.7,229c0.2-0.5-0.3-0.9-0.9-0.9s-0.9,0.3-1.2,0.7c-0.3,0.5-0.5,1.2-0.5,1.9c0.2,0.7,0.5,1.4,1.2,1.5
		c0.3,0.2,0.5,0.2,0.9,0.2c0.7-0.2,1-0.7,1.2-1.2c0.2-0.7,0.3-1.4,0.2-2c0.2,1.2,0.3,2.2,0.7,3.4c0.2,0.7,0.3,1.4,0,1.9
		c-0.3,0.7-1.4,0.7-2,0.3c-0.7-0.2-1.4-0.7-2-0.9"/>
	<path class="st7" d="M136.3,226.9c-0.5-0.3-1-0.5-1.7-0.5c-0.7,0.2-1.2,0.5-1.5,1c-0.5,0.9-0.3,1.9-0.2,2.7
		c0.2,0.9,0.2,1.7,0.3,2.6c0-0.3,0-0.5,0-0.9"/>
	<path class="st7" d="M132,229c1-0.2,2-0.2,3.1-0.2"/>
	<path class="st7" d="M138.2,228.6c-0.9-0.3-1.9,0.2-2.2,0.9c-0.3,0.9,0,1.9,0.7,2.4c0.3,0.2,0.5,0.3,0.9,0.3c0.3,0,0.7,0,0.9-0.2
		c0.7-0.3,1.2-1.4,0.9-2c-0.2-0.9-1-1.4-1.9-1.4"/>
	<path class="st7" d="M140.7,228.4c-0.2,1.2,0,2.4,0.3,3.4c0.2-0.5,0-1,0-1.7c0-0.5,0.2-1.2,0.5-1.5c0.3-0.2,0.9-0.2,1.2-0.2"/>
	<path class="st7" d="M145.2,228.8c0.5,1.2,1,2.4,1.9,3.4c0,0,0.2,0.2,0.3,0.2c0.2,0,0.2-0.2,0.2-0.2"/>
	<path class="st7" d="M148.1,228.1c-0.2,1.2-0.3,2.2-0.7,3.4c-0.2,1-0.3,1.9-0.9,2.7c-0.5,0.9-1.5,1.4-2.4,1.2"/>
	<path class="st7" d="M149.1,231.5c0.3,0.7,1,1,1.7,1c0.3,0,0.7-0.3,1-0.7c0.9-1,0.7-3.2-0.9-3.4
		C149.3,228.1,148.6,230.5,149.1,231.5z"/>
	<path class="st7" d="M153,228.4c0,0.9,0,1.7,0.2,2.6c0.2,0.5,0.7,1,1.2,1c0.5,0,1-0.5,1.4-0.9c0.5-0.7,0.7-1.7,0.5-2.6
		c-0.2-0.2-0.3,0.2-0.3,0.3c0,1.4,0.2,2.6,0.7,3.8"/>
	<path class="st7" d="M106.4,237c-0.3-0.5-0.7-1-1.4-1.2c-0.9-0.2-1.7,0.5-2,1.2c0,0.2-0.2,0.3-0.2,0.5s0.2,0.3,0.2,0.3
		c1,0.9,2.7,0.9,3.4,2c0.5,0.7,0.3,1.7-0.2,2.2c-0.5,0.5-1.4,0.7-2,0.5c-0.7-0.2-1.4-0.7-1.7-1.2"/>
	<path class="st7" d="M108.6,236.8c0,2.2,0.2,4.3,0.2,6.5"/>
	<path class="st7" d="M107.4,238.9c1,0,2,0.2,3.2,0.2c0.2,1.5,0.9,3.2,0.9,4.8c0-0.9,0-1.5-0.2-2.4c0-0.7,0-1.2,0.3-1.7
		c0.3-0.5,1.2-0.7,1.5-0.2"/>
	<path class="st7" d="M113.4,241.6c1.2-0.2,2.6-0.2,3.8-0.3c0-0.5-0.2-1-0.5-1.5c-0.2-0.2-0.2-0.3-0.3-0.3c-0.3-0.2-0.7,0-0.9,0
		c-0.9,0.3-1.7,1-1.9,1.9c-0.2,1,0.3,2,1.2,2.4c0.9,0.3,2,0,2.6-1"/>
	<path class="st7" d="M118.4,240.2c0.3-0.3,0.7-0.7,1.2-1c0.5-0.2,1-0.2,1.4,0.2c0.2,0.2,0.3,0.3,0.3,0.7c0.3,1,0.5,2,0.2,3.1
		c0.2-0.5,0-1.2-0.3-1.7s-1-0.7-1.5-0.5c-0.2,0.2-0.5,0.2-0.7,0.5c-0.3,0.5-0.5,1.2-0.3,1.7c0.2,0.5,0.9,1,1.5,1
		c0.7,0,1.2-0.7,1.2-1.2"/>
	<path class="st7" d="M122.6,239c0,1.4,0,2.7,0.2,4.1c0-0.3,0-0.7,0-1c0-0.7,0-1.4,0.3-1.9c0.3-0.5,1.2-0.7,1.7-0.2
		c0.2,0.2,0.2,0.5,0.2,0.9c0,0.9,0,1.7-0.2,2.4c0-1.4,0.5-2.6,1.2-3.6c0-0.2,0.2-0.2,0.3-0.3c0.2,0,0.5,0.2,0.5,0.3
		c0.7,1,1,2.2,0.7,3.4"/>
	<path class="st7" d="M129.5,240.2c0,1.4,0,2.7,0,3.9"/>
	<path class="st7" d="M129.3,238.7c0,0,0,0.2-0.2,0.2"/>
	<path class="st7" d="M131.2,240.1C131.2,240.1,131.2,239.9,131.2,240.1c-0.2,0-0.2,0-0.2,0.2c0,0.9,0,1.5,0,2.4
		c0,0.3,0,0.9,0.3,1.2c0-1.2,0-2.4,0.9-3.2c0.3-0.3,0.7-0.5,1-0.3c0.3,0.2,0.5,0.3,0.7,0.7c0.3,0.9,0.5,1.7,0.2,2.6v0.2
		c0,0,0.2-0.2,0-0.2"/>
	<path class="st7" d="M138.8,240.9c0-0.7-0.7-1.2-1.4-1c-0.7,0-1.2,0.5-1.5,1.2c-0.2,0.3-0.3,0.5-0.5,0.9c-0.2,0.9,0.5,1.9,1.4,2
		c0.9,0.2,1.7-0.3,2-1c0.5-0.7,0.5-1.5,0.5-2.4c0.2,1.9,0.2,3.6,0.3,5.5c0,0.2,0,0.5-0.2,0.7c-0.2,0.2-0.3,0.2-0.5,0.2
		c-0.7,0-1.4,0.2-1.9,0c-0.7-0.2-1.2-0.5-1.5-1"/>
	<path class="st7" d="M142.9,239c0-0.2,0-0.2,0-0.3c0-0.2,0.2-0.2,0.3-0.2c0.5-0.2,1.2-0.3,1.7,0c0.5,0.3,0.7,1,0.7,1.5
		c0,0.2,0,0.5,0,0.7c-0.2,0.2-0.3,0.3-0.5,0.3c-0.5,0.3-1.2,0.5-1.7,0.5c0.9,0,1.7,0,2.4,0.3c0.7,0.3,1.4,1.2,1,2
		c-0.2,0.7-1,1.2-1.7,1.2c-1.7,0.3-1.7-0.3-1.9-1.9C143.3,241.9,143.1,240.4,142.9,239z"/>
	<path class="st7" d="M148.9,245.2c0.5,0.3,1.2,0.5,1.7,0.3c0.2,0,0.2-0.2,0.3-0.2c0.2-0.2,0.3-0.3,0.5-0.7c0.2-0.5,0.5-0.9,0.5-1.4
		C152.3,239.5,145,242.4,148.9,245.2z"/>
	<path class="st6" d="M161,185.9c0.3,0.2,0.5,0.5,0.7,0.7c0,0.2,0.2,0.2,0.3,0.3c0.3,0,0.5-0.2,0.5-0.5c0-0.3,0.2-0.5,0.3-0.7
		c-0.3,0.7-0.7,1.4-1,1.9"/>
	<path class="st6" d="M163.6,187.1c0,0.5,0.5,1,1,0.9c0.3-0.2,0.9-1,0.7-1.5C165,185.3,163.6,186.3,163.6,187.1z"/>
	<path class="st6" d="M166,185.9c0,0.3,0,0.7,0,1c0,0.5,0.2,1,0.5,1c0.5,0,0.7-0.5,0.7-1c0-0.3,0-0.7-0.2-1"/>
	<path class="st6" d="M168,187.8c0-0.7,0-1.4-0.3-1.9c0.3-0.2,0.7-0.2,1,0s0.7,0.5,0.5,0.9c-0.2,0.3-0.5,0.3-0.9,0.3
		c0.5,0.2,1,0.3,1.4,0.5"/>
	<path class="st6" d="M172,187.6c-0.2-0.7-0.2-1.2-0.2-1.9c0.3,0,0.9-0.2,1.2-0.2c0.2,0.3-0.2,1-0.5,1c0.3-0.3,1,0,1,0.5
		C173.5,187.8,172.3,188,172,187.6z"/>
	<path class="st6" d="M174.2,188c-0.2-0.9-0.2-1.7-0.2-2.6c0.3,0,0.7-0.2,1,0c0.3,0.2,0.5,0.7,0.3,1c-0.2,0.3-0.7,0.5-1,0.3
		c0.5,0.3,0.9,0.5,1.4,0.9"/>
	<path class="st6" d="M178.1,187.6c0-0.5-0.2-1.2-0.2-1.7c0.5,0.7,1,1.2,1.5,1.9c0-0.7,0-1.4,0-1.9v-0.2v0.2"/>
	<path class="st6" d="M180.3,185.9c0,0.7,0,1.4,0.3,1.9c0.3-0.2,0.5-0.5,0.7-0.9c0.2-0.3,0.2-0.9,0-1S180.5,185.6,180.3,185.9"/>
	<path class="st6" d="M176.1,187.6c0-0.7,0.5-1.4,1-1.7c0.3,0.7,0.7,1.2,0.9,1.9"/>
	<path class="st6" d="M176.2,187c0.7-0.3,1.2-0.5,1.9-0.5"/>
	<path class="st7" d="M161,198.1c0.3,0.2,0.5,0.5,0.7,0.7c0,0.2,0.2,0.2,0.3,0.3c0.3,0,0.5-0.2,0.5-0.5c0-0.3,0.2-0.5,0.3-0.7
		c-0.3,0.7-0.7,1.4-1,1.9"/>
	<path class="st7" d="M163.6,199.3c0,0.5,0.5,1,1,0.9c0.3-0.2,0.9-1,0.7-1.5C165,197.4,163.6,198.4,163.6,199.3z"/>
	<path class="st7" d="M166,198.1c0,0.3,0,0.7,0,1c0,0.5,0.2,1,0.5,1c0.5,0,0.7-0.5,0.7-1c0-0.3,0-0.7-0.2-1"/>
	<path class="st7" d="M168,200.1c0-0.7,0-1.4-0.3-1.9c0.3-0.2,0.7-0.2,1,0c0.3,0.2,0.7,0.5,0.5,0.9c-0.2,0.3-0.5,0.3-0.9,0.3
		c0.5,0.2,1,0.3,1.4,0.5"/>
	<path class="st7" d="M172,199.8c-0.2-0.7-0.2-1.2-0.2-1.9c0.3,0,0.9-0.2,1.2-0.2c0.2,0.3-0.2,1-0.5,1c0.3-0.3,1,0,1,0.5
		C173.5,199.9,172.3,200.1,172,199.8z"/>
	<path class="st7" d="M174.2,200.1c-0.2-0.9-0.2-1.7-0.2-2.6c0.3,0,0.7-0.2,1,0c0.3,0.2,0.5,0.7,0.3,1s-0.7,0.5-1,0.3
		c0.5,0.3,0.9,0.5,1.4,0.9"/>
	<path class="st7" d="M178.1,199.8c0-0.5-0.2-1.2-0.2-1.7c0.5,0.7,1,1.2,1.5,1.9c0-0.7,0-1.4,0-1.9v-0.2v0.2"/>
	<path class="st7" d="M180.3,198.1c0,0.7,0,1.4,0.3,1.9c0.3-0.2,0.5-0.5,0.7-0.9c0.2-0.3,0.2-0.9,0-1S180.5,197.7,180.3,198.1"/>
	<path class="st7" d="M176.1,199.8c0-0.7,0.5-1.4,1-1.7c0.3,0.7,0.7,1.2,0.9,1.9"/>
	<path class="st7" d="M176.2,199.1c0.7-0.3,1.2-0.5,1.9-0.5"/>
	<path class="st7" d="M161,208.6c0.3,0.2,0.5,0.5,0.7,0.7c0,0.2,0.2,0.2,0.3,0.3c0.3,0,0.5-0.2,0.5-0.5c0-0.3,0.2-0.5,0.3-0.7
		c-0.3,0.7-0.7,1.4-1,1.9"/>
	<path class="st7" d="M163.6,209.8c0,0.5,0.5,1,1,0.9c0.3-0.2,0.9-1,0.7-1.5C165,208,163.6,209,163.6,209.8z"/>
	<path class="st7" d="M166,208.6c0,0.3,0,0.7,0,1c0,0.5,0.2,1,0.5,1c0.5,0,0.7-0.5,0.7-1c0-0.3,0-0.7-0.2-1"/>
	<path class="st7" d="M168,210.7c0-0.7,0-1.4-0.3-1.9c0.3-0.2,0.7-0.2,1,0c0.3,0.2,0.7,0.5,0.5,0.9c-0.2,0.3-0.5,0.3-0.9,0.3
		c0.5,0.2,1,0.3,1.4,0.5"/>
	<path class="st7" d="M172,210.5c-0.2-0.7-0.2-1.2-0.2-1.9c0.3,0,0.9-0.2,1.2-0.2c0.2,0.3-0.2,1-0.5,1c0.3-0.3,1,0,1,0.5
		C173.5,210.5,172.3,210.7,172,210.5z"/>
	<path class="st7" d="M174.2,210.7c-0.2-0.9-0.2-1.7-0.2-2.6c0.3,0,0.7-0.2,1,0c0.3,0.2,0.5,0.7,0.3,1s-0.7,0.5-1,0.3
		c0.5,0.3,0.9,0.5,1.4,0.9"/>
	<path class="st7" d="M178.1,210.5c0-0.5-0.2-1.2-0.2-1.7c0.5,0.7,1,1.2,1.5,1.9c0-0.7,0-1.4,0-1.9v-0.2v0.2"/>
	<path class="st7" d="M180.3,208.6c0,0.7,0,1.4,0.3,1.9c0.3-0.2,0.5-0.5,0.7-0.9c0.2-0.3,0.2-0.9,0-1
		C181,208.5,180.5,208.5,180.3,208.6"/>
	<path class="st7" d="M176.1,210.4c0-0.7,0.5-1.4,1-1.7c0.3,0.7,0.7,1.2,0.9,1.9"/>
	<path class="st7" d="M176.2,209.7c0.7-0.3,1.2-0.5,1.9-0.5"/>
	<path class="st7" d="M161,217.9c0.3,0.2,0.5,0.5,0.7,0.7c0,0.2,0.2,0.2,0.3,0.3c0.3,0,0.5-0.2,0.5-0.5c0-0.3,0.2-0.5,0.3-0.7
		c-0.3,0.7-0.7,1.4-1,1.9"/>
	<path class="st7" d="M163.6,218.9c0,0.5,0.5,1,1,0.9c0.3-0.2,0.9-1,0.7-1.5C165,217,163.6,218,163.6,218.9z"/>
	<path class="st7" d="M166,217.9c0,0.3,0,0.7,0,1c0,0.5,0.2,1,0.5,1c0.5,0,0.7-0.5,0.7-1c0-0.3,0-0.7-0.2-1"/>
	<path class="st7" d="M168,219.7c0-0.7,0-1.4-0.3-1.9c0.3-0.2,0.7-0.2,1,0s0.7,0.5,0.5,0.9c-0.2,0.3-0.5,0.3-0.9,0.3
		c0.5,0.2,1,0.3,1.4,0.5"/>
	<path class="st7" d="M172,219.6c-0.2-0.7-0.2-1.2-0.2-1.9c0.3,0,0.9-0.2,1.2-0.2c0.2,0.3-0.2,1-0.5,1c0.3-0.3,1,0,1,0.5
		C173.5,219.6,172.3,219.9,172,219.6z"/>
	<path class="st7" d="M174.2,219.9c-0.2-0.9-0.2-1.7-0.2-2.6c0.3,0,0.7-0.2,1,0c0.3,0.2,0.5,0.7,0.3,1c-0.2,0.3-0.7,0.5-1,0.3
		c0.5,0.3,0.9,0.5,1.4,0.9"/>
	<path class="st7" d="M178.1,219.6c0-0.5-0.2-1.2-0.2-1.7c0.5,0.7,1,1.2,1.5,1.9c0-0.7,0-1.4,0-1.9v-0.2v0.2"/>
	<path class="st7" d="M180.3,217.9c0,0.7,0,1.4,0.3,1.9c0.3-0.2,0.5-0.5,0.7-0.9c0.2-0.3,0.2-0.9,0-1S180.5,217.5,180.3,217.9"/>
	<path class="st7" d="M176.1,219.4c0-0.7,0.5-1.4,1-1.7c0.3,0.7,0.7,1.2,0.9,1.9"/>
	<path class="st7" d="M176.2,218.9c0.7-0.3,1.2-0.5,1.9-0.5"/>
	<path class="st7" d="M161,230c0.3,0.2,0.5,0.5,0.7,0.7c0,0.2,0.2,0.2,0.3,0.3c0.3,0,0.5-0.2,0.5-0.5c0-0.3,0.2-0.5,0.3-0.7
		c-0.3,0.7-0.7,1.4-1,1.9"/>
	<path class="st7" d="M163.6,231c0,0.5,0.5,1,1,0.9c0.3-0.2,0.9-1,0.7-1.5C165,229.1,163.6,230.3,163.6,231z"/>
	<path class="st7" d="M166,230c0,0.3,0,0.7,0,1c0,0.5,0.2,1,0.5,1c0.5,0,0.7-0.5,0.7-1c0-0.3,0-0.7-0.2-1"/>
	<path class="st7" d="M168,231.9c0-0.7,0-1.4-0.3-1.9c0.3-0.2,0.7-0.2,1,0s0.7,0.5,0.5,0.9c-0.2,0.3-0.5,0.3-0.9,0.3
		c0.5,0.2,1,0.3,1.4,0.5"/>
	<path class="st7" d="M172,231.7c-0.2-0.7-0.2-1.2-0.2-1.9c0.3,0,0.9-0.2,1.2-0.2c0.2,0.3-0.2,1-0.5,1c0.3-0.3,1,0,1,0.5
		C173.5,231.9,172.3,232,172,231.7z"/>
	<path class="st7" d="M174.2,232c-0.2-0.9-0.2-1.7-0.2-2.6c0.3,0,0.7-0.2,1,0c0.3,0.2,0.5,0.7,0.3,1s-0.7,0.5-1,0.3
		c0.5,0.3,0.9,0.5,1.4,0.9"/>
	<path class="st7" d="M178.1,231.7c0-0.5-0.2-1.2-0.2-1.7c0.5,0.7,1,1.2,1.5,1.9c0-0.7,0-1.4,0-1.9v-0.2v0.2"/>
	<path class="st7" d="M180.3,230c0,0.7,0,1.4,0.3,1.9c0.3-0.2,0.5-0.5,0.7-0.9c0.2-0.3,0.2-0.9,0-1S180.5,229.6,180.3,230"/>
	<path class="st7" d="M176.1,231.7c0-0.7,0.5-1.4,1-1.7c0.3,0.7,0.7,1.2,0.9,1.9"/>
	<path class="st7" d="M176.2,231c0.7-0.3,1.2-0.5,1.9-0.5"/>
	<path class="st7" d="M161,242.1c0.3,0.2,0.5,0.5,0.7,0.7c0,0.2,0.2,0.2,0.3,0.3c0.3,0,0.5-0.2,0.5-0.5c0-0.3,0.2-0.5,0.3-0.7
		c-0.3,0.7-0.7,1.4-1,1.9"/>
	<path class="st7" d="M163.6,243.3c0,0.5,0.5,1,1,0.9c0.3-0.2,0.9-1,0.7-1.5C165,241.4,163.6,242.4,163.6,243.3z"/>
	<path class="st7" d="M166,242.1c0,0.3,0,0.7,0,1c0,0.5,0.2,1,0.5,1c0.5,0,0.7-0.5,0.7-1c0-0.3,0-0.7-0.2-1"/>
	<path class="st7" d="M168,244.2c0-0.7,0-1.4-0.3-1.9c0.3-0.2,0.7-0.2,1,0s0.7,0.5,0.5,0.9c-0.2,0.3-0.5,0.3-0.9,0.3
		c0.5,0.2,1,0.3,1.4,0.5"/>
	<path class="st7" d="M172,243.8c-0.2-0.7-0.2-1.2-0.2-1.9c0.3,0,0.9-0.2,1.2-0.2c0.2,0.3-0.2,1-0.5,1c0.3-0.3,1,0,1,0.5
		C173.5,244,172.3,244.2,172,243.8z"/>
	<path class="st7" d="M174.2,244.2c-0.2-0.9-0.2-1.7-0.2-2.6c0.3,0,0.7-0.2,1,0c0.3,0.2,0.5,0.7,0.3,1c-0.2,0.3-0.7,0.5-1,0.3
		c0.5,0.3,0.9,0.5,1.4,0.9"/>
	<path class="st7" d="M178.1,243.8c0-0.5-0.2-1.2-0.2-1.7c0.5,0.7,1,1.2,1.5,1.9c0-0.7,0-1.4,0-1.9v-0.2v0.2"/>
	<path class="st7" d="M180.3,242.1c0,0.7,0,1.4,0.3,1.9c0.3-0.2,0.5-0.5,0.7-0.9c0.2-0.3,0.2-0.9,0-1S180.5,241.8,180.3,242.1"/>
	<path class="st7" d="M176.1,243.8c0-0.7,0.5-1.4,1-1.7c0.3,0.7,0.7,1.2,0.9,1.9"/>
	<path class="st7" d="M176.2,243.1c0.7-0.3,1.2-0.5,1.9-0.5"/>
	<path class="st6" d="M185.8,186.3c0.3-0.3,0.9-0.5,1.4-0.3c0.2,0.3-0.2,0.7-0.5,0.9c-0.3,0.2-0.7,0.3-0.9,0.7c0.5,0,1.2,0,1.7,0"/>
	<path class="st6" d="M188.5,185.9l0.2-0.2"/>
	<path class="st6" d="M188.5,187.5C188.5,187.5,188.7,187.5,188.5,187.5"/>
	<path class="st6" d="M190.9,185.6c-0.3-0.2-0.7-0.2-1,0.2c-0.3,0.3-0.5,0.7-0.3,1c0.3-0.5,1.2-0.3,1.2,0.2c0.2,0.5-0.5,1-1,0.7"/>
	<path class="st6" d="M192.6,185.8c-0.7,0-1.2,0.7-1.4,1.2c0,0.5,0.3,1,0.7,0.9c0.2,0,0.3-0.2,0.5-0.3c0.3-0.3,0.5-0.7,0.5-1.2
		c0-0.5-0.7-0.9-0.9-0.5"/>
	<path class="st7" d="M185.8,218.2c0.3-0.3,0.9-0.5,1.4-0.3c0.2,0.3-0.2,0.7-0.5,0.9c-0.3,0.2-0.7,0.3-0.9,0.7c0.5,0,1.2,0,1.7,0"/>
	<path class="st7" d="M188.5,217.9l0.2-0.2"/>
	<path class="st7" d="M188.5,219.2C188.5,219.2,188.7,219.2,188.5,219.2"/>
	<path class="st7" d="M190.9,217.5c-0.3-0.2-0.7-0.2-1,0.2c-0.3,0.3-0.5,0.7-0.3,1c0.3-0.5,1.2-0.3,1.2,0.2c0.2,0.5-0.5,1-1,0.7"/>
	<path class="st7" d="M192.6,217.7c-0.7,0-1.2,0.7-1.4,1.2c0,0.5,0.3,1,0.7,0.9c0.2,0,0.3-0.2,0.5-0.3c0.3-0.3,0.5-0.7,0.5-1.2
		c0-0.5-0.7-0.9-0.9-0.5"/>
	<path class="st7" d="M187.2,197.2c-0.5,0-0.9,0-1.4,0c0,0.3,0,0.9,0,1.2c0.3-0.5,1.2-0.5,1.5,0.2v0.2c0,0.2,0,0.2-0.2,0.3
		c-0.2,0.3-0.5,0.5-0.9,0.7c-0.3,0.2-0.9-0.2-0.9-0.5"/>
	<path class="st7" d="M188.4,197.4c0,0.2,0,0.2,0,0.3"/>
	<path class="st7" d="M188.5,199.1C188.5,199.1,188.4,199.1,188.5,199.1"/>
	<path class="st7" d="M190.1,196.5c1.5-0.5,0.7,3.4-0.5,2.4C189,198.6,189.4,196.9,190.1,196.5C190.1,196.7,190.1,196.5,190.1,196.5
		z"/>
	<path class="st7" d="M193.1,196.5c1.5-0.5,0.7,3.4-0.5,2.4C192.1,198.6,192.5,196.9,193.1,196.5
		C193.1,196.7,193.1,196.5,193.1,196.5z"/>
	<path class="st7" d="M187.2,230.5c-0.5,0-0.9,0-1.4,0c0,0.3,0,0.9,0,1.2c0.3-0.5,1.2-0.5,1.5,0.2v0.2c0,0.2,0,0.2-0.2,0.3
		c-0.2,0.3-0.5,0.5-0.9,0.7c-0.3,0.2-0.9-0.2-0.9-0.5"/>
	<path class="st7" d="M188.4,230.7c0,0.2,0,0.2,0,0.3"/>
	<path class="st7" d="M188.5,232.5C188.5,232.5,188.4,232.5,188.5,232.5"/>
	<path class="st7" d="M190.1,230c1.5-0.5,0.7,3.4-0.5,2.4C189,231.9,189.4,230.3,190.1,230L190.1,230z"/>
	<path class="st7" d="M193.1,230c1.5-0.5,0.7,3.4-0.5,2.4C192.1,231.9,192.5,230.3,193.1,230L193.1,230z"/>
	<path class="st7" d="M185.6,206.9c0.3,0,0.7-0.3,1-0.5c0.3-0.2,0.9-0.2,1,0.2c0.2,0.2,0,0.5-0.2,0.7c-0.2,0.2-0.5,0.2-0.9,0.3
		c0.3-0.3,1,0.2,1,0.7c0,0.5-0.5,0.9-1,0.9c-0.3,0-0.7-0.2-0.9-0.3"/>
	<path class="st7" d="M188.9,206.9C188.7,206.9,188.9,206.9,188.9,206.9"/>
	<path class="st7" d="M188.5,208.6L188.5,208.6c0.2,0.2,0,0.3,0.2,0.3h0.2"/>
	<path class="st7" d="M189.7,207.1c0-0.3,0.3-0.5,0.5-0.5c0.2,0,0.5,0.3,0.5,0.5s-0.2,0.3-0.2,0.3c-0.2,0.3-0.5,0.7-0.9,0.9
		c0,0.2,0,0.2,0.2,0.3c0.5,0,1,0,1.5-0.2"/>
	<path class="st7" d="M193.1,206.9c-0.3-0.3-0.7-0.5-1-0.3c-0.3,0.2-0.7,0.3-0.7,0.9c0,0.3,0.5,0.7,0.9,0.5c0.2,0,0.2-0.2,0.3-0.3
		c0.2-0.3,0.5-0.7,0.5-1.2c0,0.5,0.7,1,0.7,1.7c0,0.5-0.5,0.7-1,0.9c-0.2,0-0.3,0-0.3,0c-0.2,0-0.2-0.2-0.2-0.3"/>
	<path class="st7" d="M185.6,241.9c0.3,0,0.7-0.3,1-0.5c0.3-0.2,0.9-0.2,1,0.2c0.2,0.2,0,0.5-0.2,0.7c-0.2,0.2-0.5,0.2-0.9,0.3
		c0.3-0.3,1,0.2,1,0.7c0,0.5-0.5,0.9-1,0.9c-0.3,0-0.7-0.2-0.9-0.3"/>
	<path class="st7" d="M188.9,241.9C188.7,241.9,188.9,241.9,188.9,241.9"/>
	<path class="st7" d="M188.5,243.5C188.5,243.5,188.5,243.6,188.5,243.5c0.2,0.2,0,0.3,0.2,0.3s0.2,0,0.2,0"/>
	<path class="st7" d="M189.7,242.1c0-0.3,0.3-0.5,0.5-0.5c0.3,0,0.5,0.3,0.5,0.5s-0.2,0.3-0.2,0.3c-0.2,0.3-0.5,0.7-0.9,0.9
		c0,0.2,0,0.2,0.2,0.3c0.5,0,1,0,1.5-0.2"/>
	<path class="st7" d="M193.1,241.9c-0.3-0.3-0.7-0.5-1-0.3c-0.3,0.2-0.7,0.3-0.7,0.9c0,0.3,0.5,0.7,0.9,0.5c0.2,0,0.2-0.2,0.3-0.3
		c0.2-0.3,0.5-0.7,0.5-1.2c0,0.5,0.7,1,0.7,1.7c0,0.5-0.5,0.7-1,0.9c-0.2,0-0.3,0-0.3,0c-0.2,0-0.2-0.2-0.2-0.3"/>
	<path class="st6" d="M98.7,183.2c0-0.3-0.2-0.5-0.5-0.7c-0.3-0.2-0.5-0.3-0.9-0.3c-0.9,0-1.5,0.3-2,1c0-0.5-0.3-1-0.9-1.2
		c-0.3-0.2-0.9,0-1.2,0.3c-0.2,0.2-0.2,0.3-0.3,0.7c-0.2,0.9,0.2,1.5,0.7,2.2c0.5,0.7,1.2,1,1.9,1.5c0.2,0.2,0.3,0.3,0.7,0.2
		c0.2,0,0.3-0.2,0.5-0.2c0.7-0.3,1.2-0.9,1.7-1.4C98.7,184.7,98.9,184.1,98.7,183.2z"/>
	<path class="st7" d="M98.7,195.5c0-0.3-0.2-0.5-0.5-0.7c-0.3-0.2-0.5-0.3-0.9-0.3c-0.9,0-1.5,0.3-2,1c0-0.5-0.3-1-0.9-1.2
		c-0.3-0.2-0.9,0-1.2,0.3c-0.2,0.2-0.2,0.3-0.3,0.7c-0.2,0.9,0.2,1.5,0.7,2.2c0.5,0.7,1.2,1,1.9,1.5c0.2,0.2,0.3,0.3,0.7,0.2
		c0.2,0,0.3-0.2,0.5-0.2c0.7-0.3,1.2-0.9,1.7-1.4C98.7,196.9,98.9,196.2,98.7,195.5z"/>
	<path class="st7" d="M98.7,206.1c0-0.3-0.2-0.5-0.5-0.7c-0.3-0.2-0.5-0.3-0.9-0.3c-0.9,0-1.5,0.3-2,1c0-0.5-0.3-1-0.9-1.2
		c-0.3-0.2-0.9,0-1.2,0.3c-0.2,0.2-0.2,0.3-0.3,0.7c-0.2,0.9,0.2,1.5,0.7,2.2c0.5,0.7,1.2,1,1.9,1.5c0.2,0.2,0.3,0.3,0.7,0.2
		c0.2,0,0.3-0.2,0.5-0.2c0.7-0.3,1.2-0.9,1.7-1.4C98.7,207.6,98.9,206.8,98.7,206.1z"/>
	<path class="st7" d="M98.7,218.2c0-0.3-0.2-0.5-0.5-0.7c-0.3-0.2-0.5-0.3-0.9-0.3c-0.9,0-1.5,0.3-2,1c0-0.5-0.3-1-0.9-1.2
		c-0.3-0.2-0.9,0-1.2,0.3c-0.2,0.2-0.2,0.3-0.3,0.7c-0.2,0.9,0.2,1.5,0.7,2.2c0.5,0.7,1.2,1,1.9,1.5c0.2,0.2,0.3,0.3,0.7,0.2
		c0.2,0,0.3-0.2,0.5-0.2c0.7-0.3,1.2-0.9,1.7-1.4C98.7,219.7,98.9,218.9,98.7,218.2z"/>
	<path class="st7" d="M98.7,228.8c0-0.3-0.2-0.5-0.5-0.7c-0.3-0.2-0.5-0.3-0.9-0.3c-0.9,0-1.5,0.3-2,1c0-0.5-0.3-1-0.9-1.2
		c-0.3-0.2-0.9,0-1.2,0.3c-0.2,0.2-0.2,0.3-0.3,0.7c-0.2,0.9,0.2,1.5,0.7,2.2c0.5,0.7,1.2,1,1.9,1.5c0.2,0.2,0.3,0.3,0.7,0.2
		c0.2,0,0.3-0.2,0.5-0.2c0.7-0.3,1.2-0.9,1.7-1.4C98.7,230.3,98.9,229.5,98.7,228.8z"/>
	<path class="st7" d="M98.7,240.9c0-0.3-0.2-0.5-0.5-0.7c-0.3-0.2-0.5-0.3-0.9-0.3c-0.9,0-1.5,0.3-2,1c0-0.5-0.3-1-0.9-1.2
		c-0.3-0.2-0.9,0-1.2,0.3c-0.2,0.2-0.2,0.3-0.3,0.7c-0.2,0.9,0.2,1.5,0.7,2.2c0.5,0.7,1.2,1,1.9,1.5c0.2,0.2,0.3,0.3,0.7,0.2
		c0.2,0,0.3-0.2,0.5-0.2c0.7-0.3,1.2-0.9,1.7-1.4C98.7,242.4,98.9,241.8,98.7,240.9z"/>
	<path class="st3" d="M212.8,53.5c-2.4-1.4-5.6-1.2-8.4-0.5c-5.5,1.7-10.1,6-11.4,11.6c-1.4,5.6,1.2,11.4,6,14.5
		c-2.4,1-6.5,4.6-3.2,6.3c2,1.2,8-2.9,9.6-3.9C212.4,76.5,223.7,59.8,212.8,53.5z"/>
</g>
</svg>
