<?xml version="1.0" encoding="utf-8"?>
<!-- Generator: Adobe Illustrator 22.1.0, SVG Export Plug-In . SVG Version: 6.00 Build 0)  -->
<svg version="1.1" id="Capa_1" xmlns="http://www.w3.org/2000/svg" xmlns:xlink="http://www.w3.org/1999/xlink" x="0px" y="0px"
	 viewBox="0 0 297.6 297.6" style="enable-background:new 0 0 297.6 297.6;" xml:space="preserve">
<style type="text/css">
	.st0{fill:#73BECB;}
	.st1{fill:#08984B;}
	.st2{fill:#F9483B;}
	.st3{fill:#F193BE;}
	.st4{fill:#F7F5F5;}
	.st5{fill:#FFFFFF;}
	.st6{fill:none;stroke:#DEE0E0;stroke-width:0.25;stroke-linecap:round;stroke-linejoin:round;stroke-miterlimit:10;}
	.st7{fill:none;stroke:#407484;stroke-width:0.25;stroke-linecap:round;stroke-linejoin:round;stroke-miterlimit:10;}
</style>
<g>
	<path d="M79.6,42.7c0,0,95.6-4.6,107.9-3.1c12.3,1.5,25.8-1.5,27.3,31.9s6.1,205-24.2,217.2s-115.4,3.1-122.9-1.5
		c-7.5-4.6-7.5-19.8-7.5-42.5c0-22.7,1.5-180.6,3.1-188.3C64.8,48.7,70.6,42.7,79.6,42.7z"/>
	<path class="st0" d="M82.7,49c0,0,90-4.3,101.4-2.9s24.2-1.4,25.8,30c1.5,31.4,5.6,192.9-22.9,204.4s-108.6,2.9-115.7-1.4
		c-7.2-4.3-7.2-18.6-7.2-39.9S65.5,69.2,67,62C68.5,54.8,74.2,49,82.7,49z"/>
	<path d="M60.3,218c0,0-10.2,6.1-5.8,18.3c4.4,12.1,30.4,50.2,69.8,48.7c39.4-1.5,77.5-22.7,95.6-44s53.1-80.4,13.7-185.2
		s-62.3-21.3-62.3-21.3l3.4,2.7c0,0,22.4-71.2,54.3,20s15.2,202-91.2,218.7C138.2,275.7,70.9,275.7,60.3,218z"/>
	<path d="M166.7,40.3c0,0,0.3-4.6,5-6.1c4.6-1.5,5.3,6.3,5.3,6.3L166.7,40.3z"/>
	<path class="st1" d="M50.1,104.2c-1.2,1.9-2.2,3.8-3.1,5.8c-0.9,1.9-1.2,4.1-1,6.3c0.2,5.3,2.7,10.6,6.8,13.8
		c4.1,3.2,9.9,4.4,15,2.7c2.7-0.9,5-2.6,7-4.4c3.6-3.4,6.1-8,6.5-13.1c0.5-9.6-7.7-22-18.3-19.8c-3.4,0.7-6.7,2.7-9.4,5
		C52.3,101.4,51.1,102.6,50.1,104.2z"/>
	<path d="M58.6,103.5c0,0-3.2,22.5,1,22c4.4-0.5,15.4-9.4,14.3-10.9C73,112.7,58.1,96.8,58.6,103.5z"/>
	<path class="st2" d="M54.7,164.1c0.5,0,4.1-8.9,6.3-9c2.2,0,2.2,9.2,2.2,9.2s7.7,0.9,8.2,1c0.5,0.2-7,4.8-7,4.8s2.9,7.9,0.7,7.9
		c-2.2,0-7.5-6.1-7.5-6.1s-4.6,6.5-6.1,5.3c-1.5-1.2,1.5-8,1.5-8S39.2,162.7,54.7,164.1z"/>
	<path class="st3" d="M63.1,254.9c0.7,0,1.4-0.5,2.4-1.4c1.2-1.2,2.4-2.4,3.6-3.4c0.5-0.5,1-1,0.9-1.7c0-0.5-0.3-0.9-0.7-1.2
		c-1.7-1.9-3.2-3.9-4.4-6.3c-0.5-1-1-2.4-0.2-3.1c0.5-0.5,1.2-0.5,1.9-0.5c6.8,0,13.7,0.2,20.7,0.3c0.3,0,0.9,0,1.2,0.3
		c0.3,0.3,0.5,0.9,0.5,1.4c0.7,7.9-0.9,16-4.4,23c-0.3,0.7-0.7,1.2-1.2,1.5c-0.7,0.3-1.5,0.3-2.2,0.2c-2.2-0.3-4.3-1.5-6-3.1
		c-2.7,5-8.4,8.2-14,8c-2.2,0-4.4-0.5-6-1.9c-2-1.7-3.1-4.6-3.4-7.2c-0.5-2.7-1.5-8.7,2.7-9c1.9-0.2,3.8,1,5.3,2
		C61.2,254.2,62.1,254.9,63.1,254.9z"/>
	<path class="st2" d="M196.8,256.3c-2.4-3.4-6.1-5.5-10.2-6.8c-2.7-1-5.6-1.5-8.5-1.2c-4.6,0.7-8.4,3.8-11.4,7.5
		c-0.2,0.3-0.7,0.2-0.9,0c0-0.2-0.2-0.2-0.2-0.3c-4.3-6.5-14.3-5.5-17.4,1.5c-0.2,0.5-0.3,0.9-0.5,1.4c-1.2,2.9-2,6.1-1.2,9.2
		c1,3.4,4.3,5.5,7.2,7.3c6.5,4.1,13.1,8.2,19.6,12.3c1.9,1.2,3.9,2.2,6.1,1.9c1.5-0.3,2.7-1.2,3.9-2c5-3.8,9.9-7.7,13.1-13
		C199.3,268.6,200.2,261.4,196.8,256.3z"/>
	<path class="st2" d="M103.2,102.6c1.5,28.9,17.8,39.4,39.4,39.4c21.7,0,39.4-17.8,39.4-39.4s-10.6-39.4-39.4-39.4
		C121,63.2,102.2,80.8,103.2,102.6z"/>
	<g>
		<path class="st4" d="M126.9,145.5c-5.3-1.7-10.4,3.4-8.2,8.7c1,2.2,3.2,3.9,5.8,3.2c2.6-0.7,3.8-3.4,3.1-5.8
			c0-0.2-0.3-0.3-0.5-0.3c-1.2,0-3.1-0.5-3.9,0.2c-0.2,0.2-0.3,0.3-0.3,0.7v0.2c0,0.2,0.3,0.3,0.5,0.3h0.2c0.7,0,0.7-1,0-1.2
			c0,0.9,0.3,1,1,0.9c0.5,0,1,0,1.7,0c1.2,1-0.3,3.1-1.2,3.6c-2.2,1.5-5-0.5-5.6-2.7c-1.4-4.4,2.7-8,7-6.7
			C127.3,146.8,127.6,145.6,126.9,145.5L126.9,145.5z"/>
	</g>
	<g>
		<path class="st4" d="M134.8,145.1c-3.6,0.3-5.8,4.1-5.3,7.7c0.5,2.9,4.4,4.4,7,3.8c6.3-1.4,3.2-14.3-3.6-10.9
			c-0.7,0.3,0,1.4,0.5,1c5.3-2.7,7.5,8,2.4,8.9c-2.2,0.3-5.1-0.9-5.5-3.2c-0.2-2.6,1.4-5.6,4.1-5.8
			C135.5,146.2,135.5,145.1,134.8,145.1L134.8,145.1z"/>
	</g>
	<g>
		<path class="st4" d="M147.1,145.1c-2.9,0.7-4.6,3.1-4.8,6.1c-0.2,3.2,2.6,5.1,5.6,4.8c2.7-0.3,5-3.1,4.6-5.8
			c-0.2-3.1-3.4-4.8-6.1-4.4c-0.7,0-0.7,1.2,0,1.2c1.7-0.2,3.6,0.5,4.6,2c1.7,2.6-0.9,6-3.8,6.1c-5.8,0.2-4.4-7.7,0.2-8.7
			C148.1,146.2,147.8,145,147.1,145.1L147.1,145.1z"/>
	</g>
	<g>
		<path class="st4" d="M154.8,147c0.2,2,0.3,4.3,0.5,6.3c0,0.9-0.2,2.7,0.9,3.2c0.9,0.5,2.2-0.2,3.1-0.5c1.4-0.5,2.7-1.4,3.6-2.6
			c1.5-1.9,1.7-5-0.3-6.7c-2.2-1.9-5.8-1.9-8.2-0.5c-0.7,0.3,0,1.4,0.5,1c1.9-1,4.6-1.2,6.3,0c2.4,1.5,1.5,4.8-0.3,6.3
			c-0.7,0.7-2,1.4-2.9,1.5c-1.5,0.3-1.7-1.2-1.7-2.4c-0.2-2-0.3-3.9-0.5-6C155.8,146.3,154.6,146.3,154.8,147L154.8,147z"/>
	</g>
	<g>
		<path class="st4" d="M118.9,161.9c1.4,1.5,2.7,3.1,3.9,4.8c0.7,0.7,1.5,2.2,2.6,1.7c1-0.3,1.2-1.5,1.4-2.4c0.5-1.9,1-3.9,1.5-5.8
			c0.2-0.7-0.9-1-1-0.3c-0.3,1.2-0.7,2.6-1,3.8c-0.2,0.9-0.5,2.9-1.4,3.2c-0.9,0.2-2-1.7-2.7-2.6c-0.9-1-1.7-2-2.7-3.1
			C119.2,160.5,118.4,161.2,118.9,161.9L118.9,161.9z"/>
	</g>
	<g>
		<path class="st4" d="M130.9,161.4c0.2,2.2,0.3,4.4,0.3,6.7c0,0.7,1.2,0.7,1.2,0c-0.2-2.2-0.3-4.4-0.3-6.7
			C132,160.5,130.9,160.5,130.9,161.4L130.9,161.4z"/>
	</g>
	<g>
		<path class="st4" d="M131.4,158.3c0.7,0,0.7-1.2,0-1.2C130.5,157.1,130.5,158.3,131.4,158.3L131.4,158.3z"/>
	</g>
	<g>
		<path class="st4" d="M136.1,169c-0.2-2.2-0.3-4.3-0.9-6.5c-0.2-1-0.3-1,0.3-2c0.9-1.2,1.5-1.4,2.7-0.3c0.9,0.3,1,0.9,0.3,1.5
			c-0.2,0.5-0.3,0.9-0.9,1.2c-0.5,0.5-1.2,0.7-1.7,1c-0.7,0.3-0.2,1.2,0.5,1c1.9-0.5,4.8-0.7,4.1,2.7
			C140.1,169.7,137.9,169.7,136.1,169c-0.5-0.5-1.2,0.5-0.5,0.9c2.7,1.5,5.5,0.9,6.1-2.6c0.7-3.6-2.7-4.1-5.6-3.6
			c0.2,0.3,0.3,0.7,0.5,1c1.5-0.7,3.4-1.7,3.6-3.8c0.2-1.4-0.7-2.4-2-2.7c-1.2-0.2-3.9,0.2-4.4,1.5c-0.3,0.9,0.3,2.6,0.5,3.4
			c0.3,1.9,0.5,3.8,0.7,5.8C135,169.7,136.1,169.7,136.1,169L136.1,169z"/>
	</g>
	<g>
		<path class="st4" d="M149.1,158.6c-2.2,0-4.4,0-6.7,0.2c-0.3,0-0.5,0.2-0.5,0.5c0,2.9,0.2,5.6,0.2,8.5c0,0.3,0.2,0.5,0.5,0.5
			c2.4,0,4.8-0.2,7.3-0.2c0.7,0,0.7-1.2,0-1.2c-2.4,0-4.8,0.2-7.3,0.2c0.2,0.2,0.3,0.3,0.5,0.5c0-2.9-0.2-5.6-0.2-8.5
			c-0.2,0.2-0.3,0.3-0.5,0.5c2.2-0.2,4.4-0.2,6.7-0.2C150,159.8,150,158.6,149.1,158.6L149.1,158.6z"/>
	</g>
	<g>
		<path class="st4" d="M143,164.4c1.4-0.2,2.6-0.2,3.9,0c0.7,0,0.7-1,0-1.2c-1.4,0-2.6,0-3.9,0C142.1,163.4,142.1,164.4,143,164.4
			L143,164.4z"/>
	</g>
	<g>
		<path class="st4" d="M158.2,159c-2-1.4-6.5-0.9-6.7,2.4c0,1.7,1.2,1.5,2.4,1.7c0.7,0.2,1.4,0.3,1.9,0.9c0.3,0.2,0.7,0.5,0.9,0.9
			c0.5,0.5,0.5,1.2-0.2,1.7c-0.2,0.9-0.5,1-1.2,1c-0.3,0-0.9,0-1.2-0.2c-0.9-0.2-1.4-0.5-2-1c-0.7-0.3-1.2,0.5-0.5,1
			c2,1.4,7.9,2.2,6.8-2c-0.3-1.4-1.7-2.7-3.1-3.2c-0.3-0.2-0.9-0.2-1-0.2c-0.9,0.2-1-0.3-0.9-1.5c0.2-0.2,0.3-0.3,0.5-0.5
			c1.2-0.9,2.7-0.7,3.9,0C158.3,160.5,158.9,159.5,158.2,159L158.2,159z"/>
	</g>
	<path class="st3" d="M224.1,95.1c-1.2-2.6-3.8-4.3-6.5-5.3c-5.3-1.9-11.8-1-16,2.7c-4.4,3.8-5.6,9.9-3.6,15.2
		c-2.6-0.5-7.9-0.2-6.3,3.1c1,2.2,8.2,2.4,10.1,2.4C210.2,113.7,229.2,106.7,224.1,95.1z"/>
	<path class="st1" d="M111.1,49.5c1.9,2.2,3.9,4.3,6,6.3c2.7-6,6-12,9.6-17.4c0.3-0.5,0.7-1,1.4-1.2c0.3,0,0.9,0.2,1.2,0.3
		c1,0.5,2.2,1,3.2,1.5c0.3,0.2,0.9,0.3,1.2,0.7c0.7,0.9,0.2,2-0.2,2.9c-3.6,7-9.6,12.8-12,20.3c-0.3,0.9-0.5,1.7-1.4,2
		c-0.3,0.2-0.9,0.2-1.2,0.2c-1.5,0.2-3.2,0.2-4.8,0.3c-1.4-3.1-6.8-6.7-7.5-9.4C106.3,54.7,110.5,48.8,111.1,49.5z"/>
	<path class="st1" d="M88.5,49.5c1.9,2.2,3.9,4.3,6,6.3c2.7-6,6-12,9.6-17.4c0.3-0.5,0.7-1,1.4-1.2c0.3,0,0.9,0.2,1.2,0.3
		c1,0.5,2.2,1,3.2,1.5c0.3,0.2,0.9,0.3,1.2,0.7c0.7,0.9,0.2,2-0.2,2.9c-3.6,7-9.6,12.8-12,20.3c-0.3,0.9-0.5,1.7-1.4,2
		c-0.3,0.2-0.9,0.2-1.2,0.2c-1.5,0.2-3.2,0.2-4.8,0.3c-1.4-3.1-6.8-6.7-7.5-9.4C83.7,54.7,87.8,48.8,88.5,49.5z"/>
	<path class="st5" d="M227.1,151.3c-0.2-0.5-3.9,0.3-7.3,1.2c-0.2-3.8-0.5-7.5-0.7-11.3c-0.2-1.5-0.3-3.4-2-4.1
		c-1-0.5-2.4-0.3-3.4,0.2c-4.8,2.2-7.2,8.4-5.3,13.1c-4.6-0.5-9.4,1-13,3.9c-1,0.9-1.7,2-1.7,3.4c0,2.7,2.9,3.9,5.5,4.1
		c0.3,0,0.3,0.5,0,0.5c-1.5,0.5-3.6,0.2-4.6,1.9c-0.7,1.2-0.3,2.9,0.7,3.9c1.7,1.7,4.1,1.7,6.3,1.4c0.2,0,0.2,0.2,0,0.2
		c-2.2,0.5-5.5,0.3-6.1,3.8c-0.2,0.9-0.2,1,0,1.5c0,0.5,1,1.5,1.4,1.7c4.6,2.6,23.7,2.4,24.9-3.1c0.3-1.5,0.2-3.6-0.2-5.8
		c2-0.3,4.3-0.7,6.3-1.2C228.3,161.5,228,156.4,227.1,151.3z"/>
	<path d="M127.8,101.9c0.7,1,1.9,2,3.1,1.9c1,0,1.9-0.9,2.6-1.9c2.6-3.8,2.6-8.7,1.9-13.1c-0.5-4.3-3.8-10.8-8.5-5.1
		C123,88.5,124.4,97.5,127.8,101.9z"/>
	<path d="M149,101.9c0.7,1,1.9,2,3.1,1.9c1,0,1.9-0.9,2.6-1.9c2.6-3.8,2.6-8.7,1.9-13.1c-0.5-4.3-3.8-10.8-8.5-5.1
		C144.2,88.5,145.5,97.5,149,101.9z"/>
	<path class="st5" d="M120.8,110.3c-2.7,0.3-4.4,2.9-3.8,5.5c1.7,6.3,6.3,16.4,18.8,16.4c18.3,0,33.5-10.6,35-19.8
		C172,105,134.3,108.8,120.8,110.3z"/>
	<path class="st6" d="M99.6,178.3c0,2.9-0.2,5.8,0.2,8.7c0-0.2,0.2-0.2,0.2-0.3"/>
	<path class="st6" d="M104.9,178.8c-0.3,2.6-0.3,5-0.2,7.5"/>
	<path class="st6" d="M106.6,185.3c0.3,0.3,0.7,0.5,1,0.7c0.3,0.2,0.7,0.3,1,0.3c0.7,0,1-0.7,1.4-1.2c0.7-1.4,0.3-4.1-1.7-3.8
		C106.6,181.5,105.6,184.1,106.6,185.3z"/>
	<path class="st6" d="M111.1,181.5c0.3,1.9,0.5,3.9,1.9,5.3c0.5-1.7,1.2-3.4,1.7-5.1"/>
	<path class="st6" d="M115.3,184.6c1.5-0.3,3.2-0.5,4.8-0.9c0.2,0,0.3,0,0.3-0.2v-0.2c-0.2-0.7-0.5-1.4-1.2-1.5
		c-0.7-0.3-1.4,0-2,0.3c-0.3,0.2-0.9,0.5-1,1c-0.3,0.5-0.3,1.2-0.3,1.7c0,0.3,0,0.7,0.2,1c0.2,0.5,0.9,1,1.4,1c0.5,0.2,1.2,0,1.9,0
		c0.3,0,0.9-0.3,0.7-0.7"/>
	<path class="st6" d="M125,182.4c0,0.5,0.3,0.9,0.5,1.4c0.7,1.2,1.5,2.6,2.4,3.8l0.2,0.2c0,0,0.2-0.2,0-0.2"/>
	<path class="st6" d="M130.2,182.4c-0.9,2.6-1.7,5.1-2.6,7.5c-0.2,0.3-0.2,0.7-0.5,0.9"/>
	<path class="st6" d="M131,182.5c0.3-0.5,1-0.7,1.5-0.7c0.5,0,1.2,0.3,1.5,0.9c0.3,0.7,0.3,1.4,0.3,2.2s0,1.5,0,2.4
		c0.2-0.7,0.2-1.4-0.2-2c-0.2-0.7-0.9-1.2-1.5-1.2c-0.5,0-1,0.2-1.4,0.3c-0.5,0.2-0.9,0.5-1.2,0.9c-0.3,0.3-0.5,0.9-0.3,1.4
		c0.3,0.7,1.2,1,2,1c0.5,0,1,0.2,1.7,0c0.7-0.2,1-0.5,1.2-1"/>
	<path class="st7" d="M102.5,190.7c-1,0-2.2,0-3.2,0.3c-0.2,0-0.2,0-0.2,0.2s0,0.2,0,0.3c0.2,2,0.3,4.1,0.3,6.1c0,0.2,0,0.3,0.2,0.5
		c0.2,0.2,0.3,0.2,0.5,0.2c1.2,0,2.2,0,3.4-0.2"/>
	<path class="st7" d="M104.4,194c0,1.2,0.2,2.6,0.2,3.8c-0.2-1,0-2.2,0.5-3.2c0.2-0.3,0.3-0.7,0.7-0.9c0.5-0.3,1.4,0,1.7,0.5
		c0.3,0.5,0.5,1.2,0.5,1.9c0,0.7,0,1.4,0.2,2"/>
	<path class="st7" d="M113.6,195.2c-0.2-0.9-1-1.4-1.9-1.2c-0.9,0-1.5,0.7-1.9,1.4c-0.2,0.3-0.3,0.7-0.3,1c0,0.9,0.7,1.7,1.4,1.9
		c0.9,0.2,1.9-0.2,2.2-0.9c0.5-0.7,0.5-1.7,0.3-2.6c0-0.2-0.2-0.5-0.3-0.3c-0.2,0.7,0.2,1.5,0.3,2.2c0.2,1,0.3,1.9,0.3,2.9
		c0,0.3,0,0.7-0.2,1c-0.3,0.9-1.2,1.4-2,1.2s-1.5-0.7-2-1.5"/>
	<path class="st7" d="M115.3,194.3c0.5-1,2.2-1.2,3.1-0.5c0.5,0.5,0.9,1.4,0.9,2.2s0,1.5,0,2.4c0.2-0.9,0-1.9-0.7-2.4
		c-0.7-0.5-1.7-0.7-2.6-0.2c-0.2,0.2-0.5,0.3-0.5,0.5c-0.3,0.5-0.2,1.2,0.3,1.7c0.5,0.3,1.2,0.5,1.7,0.5c0.7-0.2,1.2-0.3,1.7-0.7"/>
	<path class="st7" d="M123.9,195.2c-0.3-0.7-1.2-1-1.9-0.9c-0.7,0.2-1.2,0.9-1.5,1.5c-0.3,0.7-0.3,1.4,0,1.9c0.3,0.5,1,0.7,1.5,0.7
		c0.5-0.2,1-0.5,1.5-1c0.7-0.9,0.9-2,0.3-3.1c-0.2,0.7,0.2,1.5,0.3,2.2c0.5,1.9,0.5,3.8-0.3,5.3c-0.2,0.3-0.5,0.7-0.9,0.7
		c-0.9,0-1.2-1.4-2-1.5"/>
	<path class="st7" d="M125.4,196.5c1.4-0.2,2.6-0.3,3.9-0.7c0-0.9-0.7-1.7-1.5-1.9s-1.9,0.2-2.2,1
		C125.4,195.3,125.2,195.8,125.4,196.5c0,0.9,0.3,1.9,1.2,2.2c0.3,0.2,0.7,0.2,1,0.2c0.9,0,1.7-0.3,2.2-1"/>
	<path class="st7" d="M135.8,192.3c0.9-0.7,2.2-0.7,3.1,0c0.7,0.5,0.7,1.5,0.9,2.4c0,0.2,0,0.5,0,0.7c-0.2,0.3-0.5,0.5-0.7,0.5
		c-0.9,0.3-1.7,0.5-2.6,0.3c1.2,0,2.6-0.2,3.6,0.3c0.5,0.3,1.2,0.9,1,1.5c-0.5,1.5-3.8,2-4.4,0.5C135.6,197,136,194,135.8,192.3z"/>
	<path class="st7" d="M141.4,195.3c0.9-1,2.2-1.2,3.6-1c0.2,0,0.5,0,0.7,0.2c0.2,0.2,0.3,0.5,0.3,0.7c0.3,1.4,0.3,2.7,0.2,4.3
		c0.2-1.2-0.2-2.2-0.9-3.2c-0.2-0.2-0.2-0.3-0.3-0.3c-0.2,0-0.3,0-0.7,0c-0.7,0.2-1.2,0.5-1.7,1c-0.5,0.5-0.9,1-0.5,1.7
		c0.2,0.5,0.9,0.9,1.4,1c0.5,0.2,0.9,0.2,1.4,0.2c0.3,0,0.7,0,1-0.2c0.3-0.2,0.5-0.5,0.5-0.9"/>
	<path class="st7" d="M147.8,192.8c-0.2,1.9-0.3,3.8-0.2,5.8c0,0.3,0.2,0.9,0.5,0.9c0.2,0,0.3,0,0.5-0.2c0.7-0.3,1.4-0.7,1.9-1.2
		c0.5-0.5,0.7-1.4,0.3-2c-0.3-0.5-1-0.9-1.7-0.9s-1.4,0.2-2,0.2"/>
	<path class="st7" d="M152.2,197.7c1,0,2.2,0,3.2-0.2c0.2,0,0.3,0,0.3-0.2c-0.2-0.9-0.9-1.7-1.7-2c-0.9-0.3-2,0-2.4,0.9
		c-0.2,0.3-0.2,0.7-0.2,1c0,0.5,0.2,1,0.3,1.5c0.5,0.9,1.7,0.9,2.7,0.9c0.5,0,1-0.2,1.2-0.5c-0.2,0-0.3,0-0.5-0.2"/>
	<path class="st7" d="M98.9,194.6c1.2,0,2.4-0.2,3.6-0.2c-0.2,0-0.3,0-0.5,0"/>
	<path class="st7" d="M99.8,204.5c0-0.2,0-0.3,0-0.3c0.2-0.2,0.3-0.3,0.5-0.5c0.7-0.3,1.4-0.7,2.2-0.5c0.7,0,1.4,0.3,1.4,0.9
		c0.2,0.5-0.3,1-0.9,1.4c-0.9,0.7-1.9,1-2.9,1.4c1,0.2,2.2-0.3,3.1,0.2c0.5,0.2,0.7,0.7,0.9,1.2c0.2,0.3,0.2,0.7,0.2,1
		c0,0.3-0.2,0.5-0.3,0.7c-0.7,1.2-2.9,2-3.9,0.9C99.1,209.3,99.8,206.1,99.8,204.5z"/>
	<path class="st7" d="M106.1,206.4c-0.2,1.4,0,2.7,0.2,4.1c-0.2-0.7-0.3-1.5-0.2-2.2c0-0.9,0.3-1.5,0.9-2c0.3-0.3,1-0.5,1.4-0.2"/>
	<path class="st7" d="M109.2,206.3c0.5-0.7,1.5-0.5,2.2-0.2c0.7,0.5,1,1.4,1,2.2s-0.2,1.7-0.3,2.6c0-0.5,0.2-1,0-1.5s-0.3-1-0.9-1.4
		c-0.5-0.2-1-0.2-1.5,0s-1,0.5-1.4,1c-0.3,0.5-0.2,1.2,0.3,1.5c0.3,0.2,0.5,0.2,0.9,0.2c0.5,0,1.2,0,1.7-0.3c0.5-0.2,0.9-0.7,1-1.4"
		/>
	<path class="st7" d="M113.6,206.4c0,1.4,0.2,2.7,0.2,3.9c-0.3-1.7,0.2-3.6,1.5-4.6c0.2,0,0.2-0.2,0.3-0.2c0.2,0,0.2,0,0.3,0.2
		c1.5,1,2.2,3.4,1.4,5.1"/>
	<path class="st7" d="M122.8,207.8c-0.7-0.5-1.4-1-2-1c-0.7,0-1.4,0.3-1.7,0.9c-0.3,0.5-0.5,1.2-0.5,1.9c0,0.2,0,0.5,0.2,0.7
		c0.2,0.2,0.3,0.2,0.3,0.3c0.5,0.3,1.4,0.7,1.9,0.5c0.3-0.2,0.5-0.3,0.7-0.5c1.4-1.5,1.9-3.9,1.2-5.8c0,2.2,0.3,4.6,0.5,6.8"/>
	<path class="st7" d="M124.5,207.8c0.2,1,0.3,2.2,0.3,3.4c0-0.2,0-0.2,0-0.3"/>
	<path class="st7" d="M124.9,205.7v0.2"/>
	<path class="st7" d="M126.2,207.1c0,1.4,0,2.6,0,3.9c0-0.9,0-1.7,0.3-2.6s0.9-1.5,1.5-1.9c0.2,0,0.2-0.2,0.3,0
		c0.2,0,0.3,0.2,0.3,0.3c1,1.4,1.4,3.1,1.2,4.6"/>
	<path class="st7" d="M134.8,207.8c-0.3-0.7-1.2-1-2-0.7s-1,1-1.4,1.9c-0.2,0.5-0.2,0.9,0,1.4c0.2,0.5,0.3,0.9,0.9,1
		c0.7,0.2,1.4-0.3,1.9-0.9c0.5-0.7,1-1.5,0.9-2.4c0-0.5-0.2-1-0.7-1.2c-0.3,0.5,0,1.2,0.2,1.7c0.5,1.2,0.7,2.6,0.9,3.9
		c0,0.5,0,1.2-0.3,1.7c-0.3,0.5-1,0.7-1.5,0.7c-1,0-2-0.5-2.6-1.4"/>
	<path class="st7" d="M140.6,204.5c-0.2,2.2-0.3,4.4-0.7,6.7c0-0.2-0.2-0.2,0-0.3"/>
	<path class="st7" d="M142.3,211.2c0-1.2,0-2.4-0.3-3.6c0,0,0-0.2-0.2-0.2v0.2"/>
	<path class="st7" d="M142.1,205.7C142.1,205.9,142.1,205.9,142.1,205.7"/>
	<path class="st7" d="M147.6,204.9c-0.9,1-2.6,2.2-3.2,3.4c-0.5,1.2,1.5,2.4,2.6,3.2c0,0,0.2,0.2,0.2,0c0,0,0.2-0.2,0-0.2"/>
	<path class="st7" d="M148.3,208.8c1,0,2,0,3.1-0.2c0.2-0.5-0.5-1-1-1.2C149.5,207.4,148.4,208,148.3,208.8c-0.5,0.9,0,1.9,0.9,2.2
		c0.9,0.3,1.9,0,2.2-0.9"/>
	<path class="st7" d="M144.5,205.1c0,2,0.2,3.9,0.3,6"/>
	<path class="st7" d="M100.3,214.3c0,2.4,0.2,4.6,0.2,7c0,0.2,0,0.5,0.2,0.7c0,0.2,0.2,0.2,0.3,0.2c0.9,0.3,1.9,0.3,2.6,0"/>
	<path class="st7" d="M105.4,218.4c0,1-0.2,2.2-0.2,3.2"/>
	<path class="st7" d="M104.7,216.8L104.7,216.8"/>
	<path class="st7" d="M108.8,217.5c-0.3-0.3-1-0.5-1.5-0.2s-0.9,0.9-1,1.4c0,0.2,0,0.3,0,0.3c0,0.2,0.3,0.3,0.5,0.3
		c0.7,0.2,1.4,0.2,1.9,0.5c0.7,0.2,1.2,0.9,1.2,1.4c0,0.2,0,0.3-0.2,0.3c0,0-0.2,0.2-0.3,0.2c-0.5,0.2-1,0.3-1.5,0.2
		c-0.5,0-1-0.3-1.2-0.9"/>
	<path class="st7" d="M112.2,214.4c-0.2,2.6-0.2,5.3,0.2,7.9"/>
	<path class="st7" d="M109.9,218.4c1.2,0,2.2-0.2,3.4-0.2c0.2,0,0.3,0,0.5-0.2"/>
	<path class="st7" d="M113.8,220.3c1.2,0,2.2-0.2,3.4-0.2c0-0.5,0-0.9-0.2-1.4c-0.2-0.3-0.5-0.9-1-0.9c-0.7-0.2-1.4,0.3-1.7,0.9
		C114.1,219.1,114,219.6,113.8,220.3c0,0.3,0.2,1,0.7,1.4c0.5,0.3,1,0.5,1.5,0.5c0.5,0,1.2,0,1.4-0.5"/>
	<path class="st7" d="M118.7,217.9c0,1.4,0,2.9,0.2,4.3c0.2-1-0.2-2,0.3-3.1c0.5-0.9,1.7-1.2,2.6-0.7c0.9,0.7,0.9,1.7,0.9,2.7
		c0,0.3,0,0.9,0,1.2"/>
	<path class="st7" d="M128.3,218.7c1.4-0.3,2.7-0.5,4.1-0.5h0.2c0,0,0-0.2-0.2-0.2"/>
	<path class="st7" d="M129.7,215.6c-0.3,1.9-0.7,3.8-0.2,5.5c0.2,0.3,0.3,0.7,0.5,1c0.3,0.2,0.9,0.3,1,0"/>
	<path class="st7" d="M134.3,218.2c-0.5,0.3-0.9,0.9-1,1.4c-0.2,0.3-0.2,0.9-0.2,1.4s0.3,0.9,0.7,1c0.3,0.2,1,0.2,1.4-0.2
		c1-0.5,1.4-2,0.7-3.1c-0.2-0.2-0.3-0.3-0.5-0.5c-0.5-0.2-1-0.2-1.5,0.2"/>
	<path class="st7" d="M141.3,218.4c-0.2,1-0.2,2,0,3.1c0-1.2,0.3-2.2,1-3.1c0.2-0.3,0.5-0.5,1-0.5c0.2,0,0.3,0.2,0.3,0.3
		c0.7,1,0.9,2.4,0.5,3.6c0.2-0.9,0.3-1.5,0.7-2.2c0.2-0.3,0.3-0.7,0.5-0.9c0.3-0.2,0.7-0.3,1-0.2c0.2,0.2,0.3,0.3,0.5,0.5
		c0.3,0.7,0.5,1.5,0.3,2.2"/>
	<path class="st7" d="M148.8,219.7c0.9,0,1.5-0.2,2.4-0.5c-0.2-0.7-0.3-1.5-1-1.7c-0.5-0.2-1,0.2-1.4,0.7c-0.3,0.5-0.7,1.2-0.7,1.9
		c0,0.3,0,0.5,0,0.7c0.2,0.5,0.9,0.9,1.4,0.9c0.7,0,1.5-0.2,1.9-0.9"/>
	<path class="st7" d="M99.8,224.9c0.3,2.6,0.9,5.3,2.4,7.5c0-2,0.3-3.9,1-5.8c0.2,1.9,0.7,3.8,1.7,5.5c0,0.2,0.2,0.2,0.3,0.2
		c0.5-1.9,0.7-3.9,0.9-5.8"/>
	<path class="st7" d="M107.3,228.8c0.3-0.7,1-1.2,1.9-1.4c0.2,0,0.3,0,0.5,0c0.2,0,0.3,0.2,0.3,0.3c0.7,1,0.9,2.2,0.7,3.4
		c0-0.7-0.2-1.2-0.5-1.7c-0.3-0.5-1.2-0.7-1.7-0.3c-0.2,0.2-0.3,0.3-0.5,0.5c-0.3,0.3-0.5,1-0.3,1.5c0.2,0.3,0.5,0.7,1,0.9
		c0.5,0.2,1,0.2,1.4,0.2c0.5-0.2,0.9-0.5,0.9-1"/>
	<path class="st7" d="M112.1,228.4c0.2,1.2,0.5,2.2,0.7,3.4c0-0.2,0-0.2,0-0.3"/>
	<path class="st7" d="M114.3,225.7c0,2.2,0,4.4,0.2,6.7"/>
	<path class="st7" d="M111.6,227.3v0.2"/>
	<path class="st7" d="M113.3,227.6c0.9,0,1.9,0,2.7,0"/>
	<path class="st7" d="M117.4,228.3c0,1.2,0,2.4,0.3,3.6"/>
	<path class="st7" d="M117,227.1C117,227.1,117,227.3,117,227.1"/>
	<path class="st7" d="M118.2,227.6c0,1.4,0.2,2.7,0.3,3.9c0-1.2,0-2.6,0.7-3.6c0.2-0.2,0.5-0.5,0.7-0.3c0.2,0,0.2,0.2,0.3,0.2
		c0.3,0.3,0.7,0.9,1,1.4c0.2,0.5,0.2,1.2,0.2,1.7c0,0.3,0,0.9,0,1.2"/>
	<path class="st7" d="M125,229c0.2-0.5-0.3-0.9-0.9-0.9s-0.9,0.3-1.2,0.7c-0.3,0.5-0.5,1.2-0.5,1.9c0.2,0.7,0.5,1.4,1.2,1.5
		c0.3,0.2,0.5,0.2,0.9,0.2c0.7-0.2,1-0.7,1.2-1.2c0.2-0.7,0.3-1.4,0.2-2c0.2,1.2,0.3,2.2,0.7,3.4c0.2,0.7,0.3,1.4,0,1.9
		c-0.3,0.7-1.4,0.7-2,0.3c-0.7-0.2-1.4-0.7-2-0.9"/>
	<path class="st7" d="M133.6,226.9c-0.5-0.3-1-0.5-1.7-0.5c-0.7,0.2-1.2,0.5-1.5,1c-0.5,0.9-0.3,1.9-0.2,2.7
		c0.2,0.9,0.2,1.7,0.3,2.6c0-0.3,0-0.5,0-0.9"/>
	<path class="st7" d="M129.3,229c1-0.2,2-0.2,3.1-0.2"/>
	<path class="st7" d="M135.5,228.6c-0.9-0.3-1.9,0.2-2.2,0.9c-0.3,0.9,0,1.9,0.7,2.4c0.3,0.2,0.5,0.3,0.9,0.3c0.3,0,0.7,0,0.9-0.2
		c0.7-0.3,1.2-1.4,0.9-2c-0.2-0.9-1-1.4-1.9-1.4"/>
	<path class="st7" d="M138,228.4c-0.2,1.2,0,2.4,0.3,3.4c0.2-0.5,0-1,0-1.7c0-0.5,0.2-1.2,0.5-1.5c0.3-0.2,0.9-0.2,1.2-0.2"/>
	<path class="st7" d="M142.5,228.8c0.5,1.2,1,2.4,1.9,3.4c0,0,0.2,0.2,0.3,0.2c0.2,0,0.2-0.2,0.2-0.2"/>
	<path class="st7" d="M145.4,228.1c-0.2,1.2-0.3,2.2-0.7,3.4c-0.2,1-0.3,1.9-0.9,2.7c-0.5,0.9-1.5,1.4-2.4,1.2"/>
	<path class="st7" d="M146.4,231.5c0.3,0.7,1,1,1.7,1c0.3,0,0.7-0.3,1-0.7c0.9-1,0.7-3.2-0.9-3.4
		C146.6,228.1,145.9,230.5,146.4,231.5z"/>
	<path class="st7" d="M150.3,228.4c0,0.9,0,1.7,0.2,2.6c0.2,0.5,0.7,1,1.2,1c0.5,0,1-0.5,1.4-0.9c0.5-0.7,0.7-1.7,0.5-2.6
		c-0.2-0.2-0.3,0.2-0.3,0.3c0,1.4,0.2,2.6,0.7,3.8"/>
	<path class="st7" d="M103.7,237c-0.3-0.5-0.7-1-1.4-1.2c-0.9-0.2-1.7,0.5-2,1.2c0,0.2-0.2,0.3-0.2,0.5s0.2,0.3,0.2,0.3
		c1,0.9,2.7,0.9,3.4,2c0.5,0.7,0.3,1.7-0.2,2.2c-0.5,0.5-1.4,0.7-2,0.5c-0.7-0.2-1.4-0.7-1.7-1.2"/>
	<path class="st7" d="M105.9,236.8c0,2.2,0.2,4.3,0.2,6.5"/>
	<path class="st7" d="M104.7,238.9c1,0,2,0.2,3.2,0.2c0.2,1.5,0.9,3.2,0.9,4.8c0-0.9,0-1.5-0.2-2.4c0-0.7,0-1.2,0.3-1.7
		c0.3-0.5,1.2-0.7,1.5-0.2"/>
	<path class="st7" d="M110.7,241.6c1.2-0.2,2.6-0.2,3.8-0.3c0-0.5-0.2-1-0.5-1.5c-0.2-0.2-0.2-0.3-0.3-0.3c-0.3-0.2-0.7,0-0.9,0
		c-0.9,0.3-1.7,1-1.9,1.9c-0.2,1,0.3,2,1.2,2.4c0.9,0.3,2,0,2.6-1"/>
	<path class="st7" d="M115.7,240.2c0.3-0.3,0.7-0.7,1.2-1c0.5-0.2,1-0.2,1.4,0.2c0.2,0.2,0.3,0.3,0.3,0.7c0.3,1,0.5,2,0.2,3.1
		c0.2-0.5,0-1.2-0.3-1.7c-0.3-0.5-1-0.7-1.5-0.5c-0.2,0.2-0.5,0.2-0.7,0.5c-0.3,0.5-0.5,1.2-0.3,1.7c0.2,0.5,0.9,1,1.5,1
		s1.2-0.7,1.2-1.2"/>
	<path class="st7" d="M119.9,239c0,1.4,0,2.7,0.2,4.1c0-0.3,0-0.7,0-1c0-0.7,0-1.4,0.3-1.9c0.3-0.5,1.2-0.7,1.7-0.2
		c0.2,0.2,0.2,0.5,0.2,0.9c0,0.9,0,1.7-0.2,2.4c0-1.4,0.5-2.6,1.2-3.6c0-0.2,0.2-0.2,0.3-0.3c0.2,0,0.5,0.2,0.5,0.3
		c0.7,1,1,2.2,0.7,3.4"/>
	<path class="st7" d="M126.8,240.2c0,1.4,0,2.7,0,3.9"/>
	<path class="st7" d="M126.6,238.7c0,0,0,0.2-0.2,0.2"/>
	<path class="st7" d="M128.5,240.1C128.5,240.1,128.5,239.9,128.5,240.1c-0.2,0-0.2,0-0.2,0.2c0,0.9,0,1.5,0,2.4
		c0,0.3,0,0.9,0.3,1.2c0-1.2,0-2.4,0.9-3.2c0.3-0.3,0.7-0.5,1-0.3c0.3,0.2,0.5,0.3,0.7,0.7c0.3,0.9,0.5,1.7,0.2,2.6v0.2
		c0,0,0.2-0.2,0-0.2"/>
	<path class="st7" d="M136.1,240.9c0-0.7-0.7-1.2-1.4-1c-0.7,0-1.2,0.5-1.5,1.2c-0.2,0.3-0.3,0.5-0.5,0.9c-0.2,0.9,0.5,1.9,1.4,2
		c0.9,0.2,1.7-0.3,2-1c0.5-0.7,0.5-1.5,0.5-2.4c0.2,1.9,0.2,3.6,0.3,5.5c0,0.2,0,0.5-0.2,0.7c-0.2,0.2-0.3,0.2-0.5,0.2
		c-0.7,0-1.4,0.2-1.9,0c-0.7-0.2-1.2-0.5-1.5-1"/>
	<path class="st7" d="M140.2,239c0-0.2,0-0.2,0-0.3c0-0.2,0.2-0.2,0.3-0.2c0.5-0.2,1.2-0.3,1.7,0c0.5,0.3,0.7,1,0.7,1.5
		c0,0.2,0,0.5,0,0.7c-0.2,0.2-0.3,0.3-0.5,0.3c-0.5,0.3-1.2,0.5-1.7,0.5c0.9,0,1.7,0,2.4,0.3c0.7,0.3,1.4,1.2,1,2
		c-0.2,0.7-1,1.2-1.7,1.2c-1.7,0.3-1.7-0.3-1.9-1.9C140.6,241.9,140.4,240.4,140.2,239z"/>
	<path class="st7" d="M146.2,245.2c0.5,0.3,1.2,0.5,1.7,0.3c0.2,0,0.2-0.2,0.3-0.2c0.2-0.2,0.3-0.3,0.5-0.7c0.2-0.5,0.5-0.9,0.5-1.4
		C149.6,239.5,142.3,242.4,146.2,245.2z"/>
	<path class="st6" d="M158.3,185.9c0.3,0.2,0.5,0.5,0.7,0.7c0,0.2,0.2,0.2,0.3,0.3c0.3,0,0.5-0.2,0.5-0.5c0-0.3,0.2-0.5,0.3-0.7
		c-0.3,0.7-0.7,1.4-1,1.9"/>
	<path class="st6" d="M160.9,187.1c0,0.5,0.5,1,1,0.9c0.3-0.2,0.9-1,0.7-1.5C162.3,185.3,160.9,186.3,160.9,187.1z"/>
	<path class="st6" d="M163.3,185.9c0,0.3,0,0.7,0,1c0,0.5,0.2,1,0.5,1c0.5,0,0.7-0.5,0.7-1c0-0.3,0-0.7-0.2-1"/>
	<path class="st6" d="M165.3,187.8c0-0.7,0-1.4-0.3-1.9c0.3-0.2,0.7-0.2,1,0s0.7,0.5,0.5,0.9c-0.2,0.3-0.5,0.3-0.9,0.3
		c0.5,0.2,1,0.3,1.4,0.5"/>
	<path class="st6" d="M169.3,187.6c-0.2-0.7-0.2-1.2-0.2-1.9c0.3,0,0.9-0.2,1.2-0.2c0.2,0.3-0.2,1-0.5,1c0.3-0.3,1,0,1,0.5
		C170.8,187.8,169.6,188,169.3,187.6z"/>
	<path class="st6" d="M171.5,188c-0.2-0.9-0.2-1.7-0.2-2.6c0.3,0,0.7-0.2,1,0c0.3,0.2,0.5,0.7,0.3,1c-0.2,0.3-0.7,0.5-1,0.3
		c0.5,0.3,0.9,0.5,1.4,0.9"/>
	<path class="st6" d="M175.4,187.6c0-0.5-0.2-1.2-0.2-1.7c0.5,0.7,1,1.2,1.5,1.9c0-0.7,0-1.4,0-1.9v-0.2v0.2"/>
	<path class="st6" d="M177.6,185.9c0,0.7,0,1.4,0.3,1.9c0.3-0.2,0.5-0.5,0.7-0.9c0.2-0.3,0.2-0.9,0-1S177.8,185.6,177.6,185.9"/>
	<path class="st6" d="M173.4,187.6c0-0.7,0.5-1.4,1-1.7c0.3,0.7,0.7,1.2,0.9,1.9"/>
	<path class="st6" d="M173.5,187c0.7-0.3,1.2-0.5,1.9-0.5"/>
	<path class="st7" d="M158.3,198.1c0.3,0.2,0.5,0.5,0.7,0.7c0,0.2,0.2,0.2,0.3,0.3c0.3,0,0.5-0.2,0.5-0.5c0-0.3,0.2-0.5,0.3-0.7
		c-0.3,0.7-0.7,1.4-1,1.9"/>
	<path class="st7" d="M160.9,199.3c0,0.5,0.5,1,1,0.9c0.3-0.2,0.9-1,0.7-1.5C162.3,197.4,160.9,198.4,160.9,199.3z"/>
	<path class="st7" d="M163.3,198.1c0,0.3,0,0.7,0,1c0,0.5,0.2,1,0.5,1c0.5,0,0.7-0.5,0.7-1c0-0.3,0-0.7-0.2-1"/>
	<path class="st7" d="M165.3,200.1c0-0.7,0-1.4-0.3-1.9c0.3-0.2,0.7-0.2,1,0c0.3,0.2,0.7,0.5,0.5,0.9c-0.2,0.3-0.5,0.3-0.9,0.3
		c0.5,0.2,1,0.3,1.4,0.5"/>
	<path class="st7" d="M169.3,199.8c-0.2-0.7-0.2-1.2-0.2-1.9c0.3,0,0.9-0.2,1.2-0.2c0.2,0.3-0.2,1-0.5,1c0.3-0.3,1,0,1,0.5
		C170.8,199.9,169.6,200.1,169.3,199.8z"/>
	<path class="st7" d="M171.5,200.1c-0.2-0.9-0.2-1.7-0.2-2.6c0.3,0,0.7-0.2,1,0c0.3,0.2,0.5,0.7,0.3,1c-0.2,0.3-0.7,0.5-1,0.3
		c0.5,0.3,0.9,0.5,1.4,0.9"/>
	<path class="st7" d="M175.4,199.8c0-0.5-0.2-1.2-0.2-1.7c0.5,0.7,1,1.2,1.5,1.9c0-0.7,0-1.4,0-1.9v-0.2v0.2"/>
	<path class="st7" d="M177.6,198.1c0,0.7,0,1.4,0.3,1.9c0.3-0.2,0.5-0.5,0.7-0.9c0.2-0.3,0.2-0.9,0-1S177.8,197.7,177.6,198.1"/>
	<path class="st7" d="M173.4,199.8c0-0.7,0.5-1.4,1-1.7c0.3,0.7,0.7,1.2,0.9,1.9"/>
	<path class="st7" d="M173.5,199.1c0.7-0.3,1.2-0.5,1.9-0.5"/>
	<path class="st7" d="M158.3,208.6c0.3,0.2,0.5,0.5,0.7,0.7c0,0.2,0.2,0.2,0.3,0.3c0.3,0,0.5-0.2,0.5-0.5s0.2-0.5,0.3-0.7
		c-0.3,0.7-0.7,1.4-1,1.9"/>
	<path class="st7" d="M160.9,209.8c0,0.5,0.5,1,1,0.9c0.3-0.2,0.9-1,0.7-1.5C162.3,208,160.9,209,160.9,209.8z"/>
	<path class="st7" d="M163.3,208.6c0,0.3,0,0.7,0,1c0,0.5,0.2,1,0.5,1c0.5,0,0.7-0.5,0.7-1c0-0.3,0-0.7-0.2-1"/>
	<path class="st7" d="M165.3,210.7c0-0.7,0-1.4-0.3-1.9c0.3-0.2,0.7-0.2,1,0s0.7,0.5,0.5,0.9c-0.2,0.3-0.5,0.3-0.9,0.3
		c0.5,0.2,1,0.3,1.4,0.5"/>
	<path class="st7" d="M169.3,210.5c-0.2-0.7-0.2-1.2-0.2-1.9c0.3,0,0.9-0.2,1.2-0.2c0.2,0.3-0.2,1-0.5,1c0.3-0.3,1,0,1,0.5
		C170.8,210.5,169.6,210.7,169.3,210.5z"/>
	<path class="st7" d="M171.5,210.7c-0.2-0.9-0.2-1.7-0.2-2.6c0.3,0,0.7-0.2,1,0c0.3,0.2,0.5,0.7,0.3,1c-0.2,0.3-0.7,0.5-1,0.3
		c0.5,0.3,0.9,0.5,1.4,0.9"/>
	<path class="st7" d="M175.4,210.5c0-0.5-0.2-1.2-0.2-1.7c0.5,0.7,1,1.2,1.5,1.9c0-0.7,0-1.4,0-1.9v-0.2v0.2"/>
	<path class="st7" d="M177.6,208.6c0,0.7,0,1.4,0.3,1.9c0.3-0.2,0.5-0.5,0.7-0.9c0.2-0.3,0.2-0.9,0-1
		C178.3,208.5,177.8,208.5,177.6,208.6"/>
	<path class="st7" d="M173.4,210.4c0-0.7,0.5-1.4,1-1.7c0.3,0.7,0.7,1.2,0.9,1.9"/>
	<path class="st7" d="M173.5,209.7c0.7-0.3,1.2-0.5,1.9-0.5"/>
	<path class="st7" d="M158.3,217.9c0.3,0.2,0.5,0.5,0.7,0.7c0,0.2,0.2,0.2,0.3,0.3c0.3,0,0.5-0.2,0.5-0.5c0-0.3,0.2-0.5,0.3-0.7
		c-0.3,0.7-0.7,1.4-1,1.9"/>
	<path class="st7" d="M160.9,218.9c0,0.5,0.5,1,1,0.9c0.3-0.2,0.9-1,0.7-1.5C162.3,217,160.9,218,160.9,218.9z"/>
	<path class="st7" d="M163.3,217.9c0,0.3,0,0.7,0,1c0,0.5,0.2,1,0.5,1c0.5,0,0.7-0.5,0.7-1c0-0.3,0-0.7-0.2-1"/>
	<path class="st7" d="M165.3,219.7c0-0.7,0-1.4-0.3-1.9c0.3-0.2,0.7-0.2,1,0s0.7,0.5,0.5,0.9c-0.2,0.3-0.5,0.3-0.9,0.3
		c0.5,0.2,1,0.3,1.4,0.5"/>
	<path class="st7" d="M169.3,219.6c-0.2-0.7-0.2-1.2-0.2-1.9c0.3,0,0.9-0.2,1.2-0.2c0.2,0.3-0.2,1-0.5,1c0.3-0.3,1,0,1,0.5
		S169.6,219.9,169.3,219.6z"/>
	<path class="st7" d="M171.5,219.9c-0.2-0.9-0.2-1.7-0.2-2.6c0.3,0,0.7-0.2,1,0c0.3,0.2,0.5,0.7,0.3,1s-0.7,0.5-1,0.3
		c0.5,0.3,0.9,0.5,1.4,0.9"/>
	<path class="st7" d="M175.4,219.6c0-0.5-0.2-1.2-0.2-1.7c0.5,0.7,1,1.2,1.5,1.9c0-0.7,0-1.4,0-1.9v-0.2v0.2"/>
	<path class="st7" d="M177.6,217.9c0,0.7,0,1.4,0.3,1.9c0.3-0.2,0.5-0.5,0.7-0.9c0.2-0.3,0.2-0.9,0-1
		C178.5,217.7,177.8,217.5,177.6,217.9"/>
	<path class="st7" d="M173.4,219.4c0-0.7,0.5-1.4,1-1.7c0.3,0.7,0.7,1.2,0.9,1.9"/>
	<path class="st7" d="M173.5,218.9c0.7-0.3,1.2-0.5,1.9-0.5"/>
	<path class="st7" d="M158.3,230c0.3,0.2,0.5,0.5,0.7,0.7c0,0.2,0.2,0.2,0.3,0.3c0.3,0,0.5-0.2,0.5-0.5c0-0.3,0.2-0.5,0.3-0.7
		c-0.3,0.7-0.7,1.4-1,1.9"/>
	<path class="st7" d="M160.9,231c0,0.5,0.5,1,1,0.9c0.3-0.2,0.9-1,0.7-1.5C162.3,229.1,160.9,230.3,160.9,231z"/>
	<path class="st7" d="M163.3,230c0,0.3,0,0.7,0,1c0,0.5,0.2,1,0.5,1c0.5,0,0.7-0.5,0.7-1c0-0.3,0-0.7-0.2-1"/>
	<path class="st7" d="M165.3,231.9c0-0.7,0-1.4-0.3-1.9c0.3-0.2,0.7-0.2,1,0s0.7,0.5,0.5,0.9c-0.2,0.3-0.5,0.3-0.9,0.3
		c0.5,0.2,1,0.3,1.4,0.5"/>
	<path class="st7" d="M169.3,231.7c-0.2-0.7-0.2-1.2-0.2-1.9c0.3,0,0.9-0.2,1.2-0.2c0.2,0.3-0.2,1-0.5,1c0.3-0.3,1,0,1,0.5
		C170.8,231.9,169.6,232,169.3,231.7z"/>
	<path class="st7" d="M171.5,232c-0.2-0.9-0.2-1.7-0.2-2.6c0.3,0,0.7-0.2,1,0c0.3,0.2,0.5,0.7,0.3,1s-0.7,0.5-1,0.3
		c0.5,0.3,0.9,0.5,1.4,0.9"/>
	<path class="st7" d="M175.4,231.7c0-0.5-0.2-1.2-0.2-1.7c0.5,0.7,1,1.2,1.5,1.9c0-0.7,0-1.4,0-1.9v-0.2v0.2"/>
	<path class="st7" d="M177.6,230c0,0.7,0,1.4,0.3,1.9c0.3-0.2,0.5-0.5,0.7-0.9c0.2-0.3,0.2-0.9,0-1S177.8,229.6,177.6,230"/>
	<path class="st7" d="M173.4,231.7c0-0.7,0.5-1.4,1-1.7c0.3,0.7,0.7,1.2,0.9,1.9"/>
	<path class="st7" d="M173.5,231c0.7-0.3,1.2-0.5,1.9-0.5"/>
	<path class="st7" d="M158.3,242.1c0.3,0.2,0.5,0.5,0.7,0.7c0,0.2,0.2,0.2,0.3,0.3c0.3,0,0.5-0.2,0.5-0.5c0-0.3,0.2-0.5,0.3-0.7
		c-0.3,0.7-0.7,1.4-1,1.9"/>
	<path class="st7" d="M160.9,243.3c0,0.5,0.5,1,1,0.9c0.3-0.2,0.9-1,0.7-1.5C162.3,241.4,160.9,242.4,160.9,243.3z"/>
	<path class="st7" d="M163.3,242.1c0,0.3,0,0.7,0,1c0,0.5,0.2,1,0.5,1c0.5,0,0.7-0.5,0.7-1c0-0.3,0-0.7-0.2-1"/>
	<path class="st7" d="M165.3,244.2c0-0.7,0-1.4-0.3-1.9c0.3-0.2,0.7-0.2,1,0s0.7,0.5,0.5,0.9c-0.2,0.3-0.5,0.3-0.9,0.3
		c0.5,0.2,1,0.3,1.4,0.5"/>
	<path class="st7" d="M169.3,243.8c-0.2-0.7-0.2-1.2-0.2-1.9c0.3,0,0.9-0.2,1.2-0.2c0.2,0.3-0.2,1-0.5,1c0.3-0.3,1,0,1,0.5
		C170.8,244,169.6,244.2,169.3,243.8z"/>
	<path class="st7" d="M171.5,244.2c-0.2-0.9-0.2-1.7-0.2-2.6c0.3,0,0.7-0.2,1,0c0.3,0.2,0.5,0.7,0.3,1c-0.2,0.3-0.7,0.5-1,0.3
		c0.5,0.3,0.9,0.5,1.4,0.9"/>
	<path class="st7" d="M175.4,243.8c0-0.5-0.2-1.2-0.2-1.7c0.5,0.7,1,1.2,1.5,1.9c0-0.7,0-1.4,0-1.9v-0.2v0.2"/>
	<path class="st7" d="M177.6,242.1c0,0.7,0,1.4,0.3,1.9c0.3-0.2,0.5-0.5,0.7-0.9c0.2-0.3,0.2-0.9,0-1S177.8,241.8,177.6,242.1"/>
	<path class="st7" d="M173.4,243.8c0-0.7,0.5-1.4,1-1.7c0.3,0.7,0.7,1.2,0.9,1.9"/>
	<path class="st7" d="M173.5,243.1c0.7-0.3,1.2-0.5,1.9-0.5"/>
	<path class="st6" d="M183.1,186.3c0.3-0.3,0.9-0.5,1.4-0.3c0.2,0.3-0.2,0.7-0.5,0.9c-0.3,0.2-0.7,0.3-0.9,0.7c0.5,0,1.2,0,1.7,0"/>
	<path class="st6" d="M185.8,185.9l0.2-0.2"/>
	<path class="st6" d="M185.8,187.5C185.8,187.5,186,187.5,185.8,187.5"/>
	<path class="st6" d="M188.2,185.6c-0.3-0.2-0.7-0.2-1,0.2c-0.3,0.3-0.5,0.7-0.3,1c0.3-0.5,1.2-0.3,1.2,0.2c0.2,0.5-0.5,1-1,0.7"/>
	<path class="st6" d="M189.9,185.8c-0.7,0-1.2,0.7-1.4,1.2c0,0.5,0.3,1,0.7,0.9c0.2,0,0.3-0.2,0.5-0.3c0.3-0.3,0.5-0.7,0.5-1.2
		c0-0.5-0.7-0.9-0.9-0.5"/>
	<path class="st7" d="M183.1,218.2c0.3-0.3,0.9-0.5,1.4-0.3c0.2,0.3-0.2,0.7-0.5,0.9c-0.3,0.2-0.7,0.3-0.9,0.7c0.5,0,1.2,0,1.7,0"/>
	<path class="st7" d="M185.8,217.9l0.2-0.2"/>
	<path class="st7" d="M185.8,219.2C185.8,219.2,186,219.2,185.8,219.2"/>
	<path class="st7" d="M188.2,217.5c-0.3-0.2-0.7-0.2-1,0.2c-0.3,0.3-0.5,0.7-0.3,1c0.3-0.5,1.2-0.3,1.2,0.2c0.2,0.5-0.5,1-1,0.7"/>
	<path class="st7" d="M189.9,217.7c-0.7,0-1.2,0.7-1.4,1.2c0,0.5,0.3,1,0.7,0.9c0.2,0,0.3-0.2,0.5-0.3c0.3-0.3,0.5-0.7,0.5-1.2
		s-0.7-0.9-0.9-0.5"/>
	<path class="st7" d="M184.5,197.2c-0.5,0-0.9,0-1.4,0c0,0.3,0,0.9,0,1.2c0.3-0.5,1.2-0.5,1.5,0.2v0.2c0,0.2,0,0.2-0.2,0.3
		c-0.2,0.3-0.5,0.5-0.9,0.7c-0.3,0.2-0.9-0.2-0.9-0.5"/>
	<path class="st7" d="M185.7,197.4c0,0.2,0,0.2,0,0.3"/>
	<path class="st7" d="M185.8,199.1C185.8,199.1,185.7,199.1,185.8,199.1"/>
	<path class="st7" d="M187.4,196.5c1.5-0.5,0.7,3.4-0.5,2.4C186.3,198.6,186.7,196.9,187.4,196.5
		C187.4,196.7,187.4,196.5,187.4,196.5z"/>
	<path class="st7" d="M190.4,196.5c1.5-0.5,0.7,3.4-0.5,2.4C189.4,198.6,189.8,196.9,190.4,196.5
		C190.4,196.7,190.4,196.5,190.4,196.5z"/>
	<path class="st7" d="M184.5,230.5c-0.5,0-0.9,0-1.4,0c0,0.3,0,0.9,0,1.2c0.3-0.5,1.2-0.5,1.5,0.2v0.2c0,0.2,0,0.2-0.2,0.3
		c-0.2,0.3-0.5,0.5-0.9,0.7c-0.3,0.2-0.9-0.2-0.9-0.5"/>
	<path class="st7" d="M185.7,230.7c0,0.2,0,0.2,0,0.3"/>
	<path class="st7" d="M185.8,232.5C185.8,232.5,185.7,232.5,185.8,232.5"/>
	<path class="st7" d="M187.4,230c1.5-0.5,0.7,3.4-0.5,2.4C186.3,231.9,186.7,230.3,187.4,230L187.4,230z"/>
	<path class="st7" d="M190.4,230c1.5-0.5,0.7,3.4-0.5,2.4C189.4,231.9,189.8,230.3,190.4,230L190.4,230z"/>
	<path class="st7" d="M182.9,206.9c0.3,0,0.7-0.3,1-0.5c0.3-0.2,0.9-0.2,1,0.2c0.2,0.2,0,0.5-0.2,0.7c-0.2,0.2-0.5,0.2-0.9,0.3
		c0.3-0.3,1,0.2,1,0.7c0,0.5-0.5,0.9-1,0.9c-0.3,0-0.7-0.2-0.9-0.3"/>
	<path class="st7" d="M186.2,206.9C186,206.9,186.2,206.9,186.2,206.9"/>
	<path class="st7" d="M185.8,208.6L185.8,208.6c0.2,0.2,0,0.3,0.2,0.3h0.2"/>
	<path class="st7" d="M187,207.1c0-0.3,0.3-0.5,0.5-0.5s0.5,0.3,0.5,0.5s-0.2,0.3-0.2,0.3c-0.2,0.3-0.5,0.7-0.9,0.9
		c0,0.2,0,0.2,0.2,0.3c0.5,0,1,0,1.5-0.2"/>
	<path class="st7" d="M190.4,206.9c-0.3-0.3-0.7-0.5-1-0.3c-0.3,0.2-0.7,0.3-0.7,0.9c0,0.3,0.5,0.7,0.9,0.5c0.2,0,0.2-0.2,0.3-0.3
		c0.2-0.3,0.5-0.7,0.5-1.2c0,0.5,0.7,1,0.7,1.7c0,0.5-0.5,0.7-1,0.9c-0.2,0-0.3,0-0.3,0c-0.2,0-0.2-0.2-0.2-0.3"/>
	<path class="st7" d="M182.9,241.9c0.3,0,0.7-0.3,1-0.5c0.3-0.2,0.9-0.2,1,0.2c0.2,0.2,0,0.5-0.2,0.7c-0.2,0.2-0.5,0.2-0.9,0.3
		c0.3-0.3,1,0.2,1,0.7c0,0.5-0.5,0.9-1,0.9c-0.3,0-0.7-0.2-0.9-0.3"/>
	<path class="st7" d="M186.2,241.9C186,241.9,186.2,241.9,186.2,241.9"/>
	<path class="st7" d="M185.8,243.5C185.8,243.5,185.8,243.6,185.8,243.5c0.2,0.2,0,0.3,0.2,0.3s0.2,0,0.2,0"/>
	<path class="st7" d="M187,242.1c0-0.3,0.3-0.5,0.5-0.5c0.3,0,0.5,0.3,0.5,0.5s-0.2,0.3-0.2,0.3c-0.2,0.3-0.5,0.7-0.9,0.9
		c0,0.2,0,0.2,0.2,0.3c0.5,0,1,0,1.5-0.2"/>
	<path class="st7" d="M190.4,241.9c-0.3-0.3-0.7-0.5-1-0.3c-0.3,0.2-0.7,0.3-0.7,0.9c0,0.3,0.5,0.7,0.9,0.5c0.2,0,0.2-0.2,0.3-0.3
		c0.2-0.3,0.5-0.7,0.5-1.2c0,0.5,0.7,1,0.7,1.7c0,0.5-0.5,0.7-1,0.9c-0.2,0-0.3,0-0.3,0c-0.2,0-0.2-0.2-0.2-0.3"/>
	<path class="st6" d="M96,183.2c0-0.3-0.2-0.5-0.5-0.7c-0.3-0.2-0.5-0.3-0.9-0.3c-0.9,0-1.5,0.3-2,1c0-0.5-0.3-1-0.9-1.2
		c-0.3-0.2-0.9,0-1.2,0.3c-0.2,0.2-0.2,0.3-0.3,0.7c-0.2,0.9,0.2,1.5,0.7,2.2c0.5,0.7,1.2,1,1.9,1.5c0.2,0.2,0.3,0.3,0.7,0.2
		c0.2,0,0.3-0.2,0.5-0.2c0.7-0.3,1.2-0.9,1.7-1.4C96,184.7,96.2,184.1,96,183.2z"/>
	<path class="st7" d="M96,195.5c0-0.3-0.2-0.5-0.5-0.7c-0.3-0.2-0.5-0.3-0.9-0.3c-0.9,0-1.5,0.3-2,1c0-0.5-0.3-1-0.9-1.2
		c-0.3-0.2-0.9,0-1.2,0.3c-0.2,0.2-0.2,0.3-0.3,0.7c-0.2,0.9,0.2,1.5,0.7,2.2c0.5,0.7,1.2,1,1.9,1.5c0.2,0.2,0.3,0.3,0.7,0.2
		c0.2,0,0.3-0.2,0.5-0.2c0.7-0.3,1.2-0.9,1.7-1.4C96,196.9,96.2,196.2,96,195.5z"/>
	<path class="st7" d="M96,206.1c0-0.3-0.2-0.5-0.5-0.7c-0.3-0.2-0.5-0.3-0.9-0.3c-0.9,0-1.5,0.3-2,1c0-0.5-0.3-1-0.9-1.2
		c-0.3-0.2-0.9,0-1.2,0.3c-0.2,0.2-0.2,0.3-0.3,0.7c-0.2,0.9,0.2,1.5,0.7,2.2c0.5,0.7,1.2,1,1.9,1.5c0.2,0.2,0.3,0.3,0.7,0.2
		c0.2,0,0.3-0.2,0.5-0.2c0.7-0.3,1.2-0.9,1.7-1.4C96,207.6,96.2,206.8,96,206.1z"/>
	<path class="st7" d="M96,218.2c0-0.3-0.2-0.5-0.5-0.7c-0.3-0.2-0.5-0.3-0.9-0.3c-0.9,0-1.5,0.3-2,1c0-0.5-0.3-1-0.9-1.2
		c-0.3-0.2-0.9,0-1.2,0.3c-0.2,0.2-0.2,0.3-0.3,0.7c-0.2,0.9,0.2,1.5,0.7,2.2c0.5,0.7,1.2,1,1.9,1.5c0.2,0.2,0.3,0.3,0.7,0.2
		c0.2,0,0.3-0.2,0.5-0.2c0.7-0.3,1.2-0.9,1.7-1.4C96,219.7,96.2,218.9,96,218.2z"/>
	<path class="st7" d="M96,228.8c0-0.3-0.2-0.5-0.5-0.7c-0.3-0.2-0.5-0.3-0.9-0.3c-0.9,0-1.5,0.3-2,1c0-0.5-0.3-1-0.9-1.2
		c-0.3-0.2-0.9,0-1.2,0.3c-0.2,0.2-0.2,0.3-0.3,0.7c-0.2,0.9,0.2,1.5,0.7,2.2c0.5,0.7,1.2,1,1.9,1.5c0.2,0.2,0.3,0.3,0.7,0.2
		c0.2,0,0.3-0.2,0.5-0.2c0.7-0.3,1.2-0.9,1.7-1.4C96,230.3,96.2,229.5,96,228.8z"/>
	<path class="st7" d="M96,240.9c0-0.3-0.2-0.5-0.5-0.7c-0.3-0.2-0.5-0.3-0.9-0.3c-0.9,0-1.5,0.3-2,1c0-0.5-0.3-1-0.9-1.2
		c-0.3-0.2-0.9,0-1.2,0.3c-0.2,0.2-0.2,0.3-0.3,0.7c-0.2,0.9,0.2,1.5,0.7,2.2c0.5,0.7,1.2,1,1.9,1.5c0.2,0.2,0.3,0.3,0.7,0.2
		c0.2,0,0.3-0.2,0.5-0.2c0.7-0.3,1.2-0.9,1.7-1.4C96,242.4,96.2,241.8,96,240.9z"/>
	<path class="st3" d="M216.6,60.5c-1.4-2.4-4.1-3.9-7-4.6c-5.5-1.4-11.8,0.2-15.7,4.3s-4.6,10.4-2,15.5c-2.6-0.3-7.9,0.7-6,3.8
		c1.2,2,8.4,1.5,10.2,1.4C204.6,80.3,222.7,71.4,216.6,60.5z"/>
</g>
</svg>
