<?xml version="1.0" encoding="utf-8"?>
<!-- Generator: Adobe Illustrator 22.1.0, SVG Export Plug-In . SVG Version: 6.00 Build 0)  -->
<svg version="1.1" id="Capa_1" xmlns="http://www.w3.org/2000/svg" xmlns:xlink="http://www.w3.org/1999/xlink" x="0px" y="0px"
	 viewBox="0 0 283.5 283.5" style="enable-background:new 0 0 283.5 283.5;" xml:space="preserve">
<style type="text/css">
	.st0{fill:#F195BE;}
	.st1{fill:#852320;}
	.st2{fill:#0A813C;}
	.st3{fill:#04994B;}
	.st4{fill:#88CFE2;}
	.st5{fill:#020203;}
	.st6{fill:#1F1919;}
</style>
<g>
	<path class="st0" d="M172.5,215.9c-1.6-0.5-3.1-0.1-5.3,0.5c-0.9,0.3-2.1,0.6-3.2,1.5c-0.3,0.2-0.4,0.4-0.7,0.7
		c-0.2,1.5-0.2,4.4,0.5,5.9c1.4,3,8.3-2.3,9-3.7c0.6-1.2-0.9,0.1-0.7-1.6C171.8,219.4,172.3,217,172.5,215.9z"/>
	<path class="st1" d="M191.2,225.8c-2.3-2.6-4.8-2.2-6.6-1.3c-4-0.9-8.8-3.4-11.1-5c-3.7-2.5-1.7,3.3-6.4,4.3
		c-2.6,0.6-2.6-1.8-3.9-1.6c-1.3,0.1-1.2,1.6-1.2,1.6c-0.4,1.2,0.1,3,0.1,3l0.3,5.2c0.3,0.7,0.5,2.1,0.4,2.6s0.7,2.1,5.6,1.2
		c4.9-0.9,2.6-1.3,7.7-1.6c5-0.3,7.3,0.9,12-1.5C192.8,230.2,192.7,225.9,191.2,225.8z M163.4,232.1c0.2,0.1,0.3,0.2,0.5,0.4
		C163.7,232.4,163.6,232.3,163.4,232.1z"/>
</g>
<path class="st2" d="M142.2,169c0.7,1.6,13.8,20.8,14.5,22.3c4.9,10.3,6.2,26.1,5.8,29.8c2.6,1.3,3.9,0.8,6.9,0.4
	c0.9-0.1,4.5-2,5.4-1.7c0.1-0.3-2.5-21.3-2.4-21.7c0.9-3.1-9.2-23-15.5-31.7C152.4,166.4,146.5,169.3,142.2,169z"/>
<path class="st0" d="M117.3,209.6c-1-0.6-1.2,0.5-1.8,0c-1.8-1.8-2.9-3.4-4.1-5.6h-0.1c-0.1,0-0.2-0.1-0.3-0.2
	c-5.4,3.3-11.1,4.8-11.1,4.8s3.1,2.5,8.5,5C108.4,213.6,113.8,212.2,117.3,209.6z"/>
<path class="st1" d="M109.1,233.2c1.8-2.8,0.7-5-0.5-6.3c-0.2-3.9,0.8-8.9,1.7-11.4c1.3-4-3.4-0.7-5.5-4.7c-1.2-2.2,0.9-2.8,0.5-4
	c-0.5-1.2-1.8-0.7-1.8-0.7c-1.2-0.1-2.7,0.9-2.7,0.9l-4.7,1.6c-0.5,0.4-1.8,1-2.3,1s-1.7,1.2,0.4,5.4s1.8,2.1,3.4,6.6
	s1,6.9,4.5,10.5C105.6,235.8,109.4,234.6,109.1,233.2z M96.2,209.6c-0.1,0.2-0.1,0.4-0.2,0.5C96,209.9,96.1,209.7,96.2,209.6z"/>
<path class="st3" d="M125.6,178.9c0,0,2.1,12.8-5.2,17s-12.5,7-12.5,7s3,14,6.4,11.9c3.3-2.1,17.6-10.4,31.5-27.7c0,0,5-3.6,9-15.2
	c4-11.6,1.8-5.5,1.8-5.5l-36.5-0.3C120.2,166.1,118,174.7,125.6,178.9z"/>
<path class="st0" d="M148.7,90c0.5-3.2,2.4-6.2,2.4-9.3c-1.4,0.6-2.6,1.9-3.7,2.8c-1.7,1.4-3.4,2.7-5.2,4.1c-1.7,1.4-0.4-3.2-2.2-2
	c-1.1,0.7-4-1.9-5.2-1.3c-0.3,8.5,0.1,9.7-3,11.3c-0.9,2.8-4.4,7.4-5.6,10.1c5.1,3,26.3,8.4,26.9-4.8
	C146.7,98.7,148.1,94.4,148.7,90z"/>
<path class="st0" d="M126.1,71.6c-0.4-5.9,1.2-3.3,1.5-6.6c0.2-2.5,0.7-7.7,2.9-9c2.2-1.2,4.7-1.7,7.3-1.8c4.2-0.2,8.5,0.4,12.5,2
	c2.3,0.9,4.7,2.4,5.7,4.7c0.7,1.5,0.7,3.1,0.7,4.7c0.2,8,0.7,14.8-0.8,22.7c-0.4,1.9-1.3,5.2-2.7,6.6c-1.9,1.9-4.9,2-7.6,2
	c-1.5-0.8-2.8-2.1-4.1-3.2c-1.8-1.5-3.4-3.2-5-4.8c-1.6-1.6-3.2-3.1-4.8-4.7c-0.7-0.8-1.6-1.6-2.5-2.1c0-0.3,0.1-0.5,0.2-0.8
	c-1-0.1-1.4-1.3-1.4-2.2c0-1,0.3-2-0.2-2.8c-0.3-0.5-1.1,0-1.5-0.5C124.7,73.4,126.2,73.4,126.1,71.6z"/>
<path class="st4" d="M150.3,63c0.1,0.5,0.2,1,0.4,1.4c0.1,0.2-0.1,0.5-0.4,0.4c-3.1-1.1-6.2-2.2-9.3-3.3c-0.2-0.1-0.4,0.1-0.4,0.3
	l0,0c0.1,0.3-0.3,0.5-0.5,0.3c-2-2-4.6-3.3-7.4-3.8c-0.2,0-0.3,0.1-0.3,0.3c-0.3,3.5-0.6,7-0.9,10.5c-0.2,2.1-0.4,4.1-0.1,6.2
	c0.3,2.1,1.1,4.3,0.7,6.4c0,0.1-0.1,0.2-0.2,0.2c-1.5,0.5-2.7-1.4-3.1-3c-0.6-2.7-1-5.5-1-8.3c0-0.2-0.1-0.3-0.3-0.3
	c-1.3,0-1.8-2-1.7-3.4c0.2-3.5,0.3-7.1,0.5-10.6c0-0.2-0.2-0.4-0.4-0.3l0,0c-0.3,0.1-0.5-0.3-0.3-0.5c0.6-0.7,1-1.3,1.7-2.2
	c0.2-0.3,0.6-0.6,1-0.5s0.1,0.9-0.2,0.6c1.9-2.8,5.5-3.9,8.8-4.8c0.5-0.1,1.1-0.3,1.5,0.1c0.4,0.3,0.2,1.2-0.3,1
	c2.9-3.3,8.9-3.3,11.7,0.2c1.2,1.4,1.9,3.3,3.6,4.2c0.9,0.4,2,0.6,2.4,1.5c0.2,0.4,0.2,0.9,0.2,1.3c0.1,0.7,0.3,1.3,0.6,2
	c0.6,1.7,2.7,8.4,0.3,9.1c-2.1,0.6-4.7-2.9-6-5.1C150.7,62.6,150.2,62.7,150.3,63z"/>
<path class="st4" d="M127.3,75.5c0.2,2.1,0.4,4.2,1.1,6.2c0.7,2,1,4.5,2.7,5.7c1.3,1,1.4,2.3,2.3,3.7c0.3,0.4,1.3,0.3,1.5,0.7
	c0.6,1.2,1.7,2.1,2.7,2.9c0.9,0.8,3.5,0.9,4.4,1.7c0.2,0.2,0.4,0.3,0.6,0.4c0.6,0.3,1.5,0.2,2.1,0.5c0.5,0.2,0.9,0.3,1.4,0.2
	c1.5-0.3,3.8,0.4,5.5-0.6c0.9-0.6,1.8-1.6,2.3-2.6c1.4-3,2.1-6.1,2.5-9.4c-0.8,0.5-1.9,0.1-2.3-0.7c-0.2-0.4-0.3-0.9-0.6-1.2
	c-0.3-0.3-0.9-0.4-1.3-0.4c-1.9-0.1-3.7-0.2-5.6-0.4c-0.4,0-0.9,0-1.2,0.2c-0.6,0.4-0.5,1.5-1.1,2c-0.3,0.2-0.7,0.3-1.1,0.3
	c-2.2,0.1-4.4-0.2-6.5-0.8c-1-0.3-2-0.7-2.9-1.4c-1.7-1.4-2.3-3.6-2.7-5.7c-0.7-3.8-1-7.8-0.7-11.7c0-0.7-0.3-3-1.6-2
	c-0.6,0.5-1,2.8-1.2,3.6C127,69.6,127.1,72.6,127.3,75.5z"/>
<path class="st5" d="M144,78.3c-0.1-0.2-0.3-0.4-0.3-0.7c-0.3-1-0.5-2.3,0.5-3c1.3-0.9,2,1.1,1.9,2.1C146,77.9,144.7,79.2,144,78.3z
	"/>
<path class="st5" d="M153.2,78.7c-0.1-0.2-0.3-0.4-0.3-0.7c-0.3-1-0.5-2.3,0.5-3c1.3-0.9,2,1.1,1.9,2.1
	C155.2,78.3,153.9,79.6,153.2,78.7z"/>
<path class="st6" d="M158.2,103.7c-4.1-3.3-8.2-4.9-8.2-4.8c-0.2,0.4,2.6,5.7-3.6,6.3c-6.2,0.6-12.9-8.3-14.4-9.7c0,0-8.1,3.6-9.6,5
	c-2.9,5.8-0.7,10.6-1.2,16.9c-0.5,5.7,0.1,11.1,0,18.2c-1,10.5-2.2,28.9-1.1,34.6c2.4-0.6,2-1.1,7.1-2.1c4.8-0.9,10.1-1.4,14.9-0.9
	c3.6,0.4,11.7-0.3,14.3,1.1c3.2-4.6-0.5-20.4,1-33.1C158,130.5,162.4,107,158.2,103.7z"/>
<path class="st0" d="M119.4,112.9l0.1,0.9c0,0,4.3,22.3,5.2,22.7c1.8,1.4,2.5,1,4.5,0.2c0.5-0.2,2-1.3,2.5-1.7
	c0.2-4.2-0.2-16.7,0.2-20.6C132.6,108.8,119.4,112.9,119.4,112.9z"/>
<path class="st0" d="M148.1,150.5c0,0,1.6-2.8-0.3-3.6c-2.5-1.1-3.2,3.4-3.2,3.4l-13.9-18.5c-2.3-1.1-5.6,2.2-5.8,4.9
	c0,0,0,0.1,0.1,0.1c2.9,3.5,15.7,19.6,18.6,21.1c4.5,2.5,8.7,1.2,8.5,0.2s-4.7-2.1-4.7-2.1s4.7-0.3,4.4-1.3c-0.2-1-3.9-0.9-3.9-0.9
	s5-1,4.8-2C152.3,150.7,148.1,150.5,148.1,150.5z"/>
<path class="st6" d="M124.3,99.5c-4.4,0.8-5.8,4-6.1,7.6c0.1,2.5,0.5,5.3,1.5,8.4c0,0,9.9-4.2,12.7-1.1c1.5,1.7,1.8-4.7,0.1-11
	C130.7,100.8,127.5,99,124.3,99.5z"/>
</svg>
