<?xml version="1.0" encoding="utf-8"?>
<!-- Generator: Adobe Illustrator 22.1.0, SVG Export Plug-In . SVG Version: 6.00 Build 0)  -->
<svg version="1.1" id="Capa_1" xmlns="http://www.w3.org/2000/svg" xmlns:xlink="http://www.w3.org/1999/xlink" x="0px" y="0px"
	 viewBox="0 0 283.5 283.5" style="enable-background:new 0 0 283.5 283.5;" xml:space="preserve">
<style type="text/css">
	.st0{fill:#242020;}
	.st1{fill:#00984A;}
	.st2{fill:#87CEE1;}
	.st3{fill:#EE88B6;}
	.st4{fill:#83231F;}
</style>
<g>
	<path class="st0" d="M167.5,140.9c0.1,6.3,0.7,12.7,0.9,19c0.1,3.2,0,6.4-0.9,9.5c-0.4,0.8-0.9,1-1.7,0.6c-0.5-0.3-1.1-0.3-1.7-0.3
		c-6.1-0.5-12.2-0.3-18.3-0.7c-3.7-0.2-7.4,0.4-11.1,1c-3.2,0.6-6.4,1.3-9.4,2.7c-0.7,0.2-0.8-0.4-0.9-0.9c-0.3-3-0.5-6-0.5-9
		c0.1-7.6,0.4-15.2,1-22.7c0.3-4.3,0.8-8.5,0.6-12.9c-0.2-6-0.4-11.9,0-17.9c0.1-0.7-0.1-1.3-0.6-1.9c-1.7-2.4-3.1-4.9-3.3-7.9
		c-0.2-3.7,1.9-7,5.5-8.2c0.9-0.3,1.6-0.7,2.4-1.1c2.5-1.4,5.1-2.6,7.7-3.8c0.3-0.1,0.6-0.3,0.9-0.2c0.7,0.8,1.4,1.6,2.1,2.4
		c2.6,2.8,5.4,5.5,8.9,7.4c2.3,1.2,4.8,1.7,7.3,0.9c2.1-0.7,3-2.2,2.8-4.3c-0.1-0.8-0.3-1.7-0.5-2.5c0.4-0.2,0.6,0,0.9,0.2
		c3.1,1.3,6,3.1,8.6,5.2c1.2,1,1.5,2.4,1.8,3.9c0.7,3.9,0.5,7.8,0.2,11.6c-0.4,6.3-1.3,12.5-2.3,18.8c-0.1,0.9-0.2,1.8-0.3,2.7
		c-0.3,0.1-0.6,0-0.8-0.2c-5.6-2.7-11.1-5.3-16.7-8c-0.4-0.2-0.7-0.4-0.8-0.8c-2.8-6.3-6-12.3-8.5-18.7c-0.2-0.6-0.6-0.8-1.2-0.8
		c-1.1,0.1-2.1,0.4-3.1,0.9c-3,1.5-5.4,3.8-7.7,6.1c-0.4,0.4-0.3,0.6,0,1c4.3,5.8,8.5,11.7,13.1,17.3c0.8,1,1.6,1.7,2.9,2.3
		c5.3,2.3,10.7,4.6,16,6.8C163.2,139.1,165.4,139.8,167.5,140.9z"/>
	<path class="st1" d="M125.4,172.7c3-1.5,6.1-2.2,9.4-2.7c3.7-0.6,7.4-1.2,11.1-1c6.1,0.4,12.2,0.2,18.3,0.7c0.6,0,1.2,0.1,1.7,0.3
		c0.8,0.4,1.3,0.2,1.7-0.6c0.8,1.5,1.4,3.1,2,4.6c3.5,9.2,6.2,18.6,8.2,28.3c0.8,3.9,0.4,7.8,0.2,11.6c-0.4,6.2-1.1,12.3-1.9,18.4
		c-0.1,0.7,0,1.5-1.1,1.5c-1.1-0.3-2.1,0.1-3.2,0.4c-3,0.6-5.9,0.5-8.8-0.5c-1.3-0.6-1.4-1.6-1.2-3c0.7-3.3,0.8-6.6,0.9-9.9
		c0.2-4.3,0.4-8.6,0.4-13c0-1.4-0.1-2.7-0.5-4c-0.4-1.8-0.7-3.6-0.8-5.4c-0.1-0.9-0.3-1.8-0.6-2.7c-1.1-2.7-2.1-5.5-3.2-8.2
		c-0.5,0.1-0.6,0.5-0.8,0.7c-2.4,3.2-5,6.2-7.8,9.1c-1.4,1.4-2.8,2.7-4,4.3c-1.5,1.9-3.4,3.2-5.6,4.1c-0.4,0.2-0.8,0.4-1.2,0.7
		c-7.6,5.5-15.2,11-23.1,16.2c-0.5,0.3-0.9,0.6-1.4,0.9c-1.3,0.8-2,0.7-3-0.5c-0.4-0.5-0.8-1.2-1.1-1.7c-1.3-2.8-2-5.8-2.9-8.7
		c0-0.2,0-0.4,0-0.6c-0.4-2.1-0.4-2.1,1.5-3.3c5.7-3.6,11.6-7.2,17.5-10.5c0.5-0.3,0.9-0.6,1.4-0.7c1.2-0.2,1.7-1.1,2.1-2.1
		c1.8-5.3,2.5-10.6,0.3-15.9c-0.3-0.8-0.8-1.5-1.5-2.2C127,175.9,125.9,174.4,125.4,172.7z"/>
	<path class="st2" d="M128.4,57.8c-0.6-1.5-0.8-3.1-0.8-4.7c-0.1-3.3-0.4-6.6-0.6-9.9c0-0.2,0-0.5-0.2-0.6c-1.1-0.4-0.5-1-0.2-1.5
		c0.3-0.5,0.6-1.1,1-1.6c0.3-0.4,0.6-0.9,1.2-0.9c0.3,0,0.4-0.2,0.6-0.4c1.9-2.5,4.7-3.8,7.5-4.9c0.6-0.3,1.2-0.5,1.9-0.7
		c0.2-0.1,0.6-0.2,0.8-0.1c1.1,0.7,1.7-0.2,2.4-0.7c3.7-2.5,8.9-1.9,11.8,1.2c0.8,0.8,1.5,1.8,2.3,2.6c0.8,0.9,1.9,1.5,3.1,1.8
		c1.3,0.3,1.9,0.9,2.2,2.3c0.3,1.9,1.5,3.6,2.1,5.4c0.6,1.8,1.2,3.5,1.2,5.5c0,1-0.2,1.7-1.1,2.3c-1.1,0.1-2-0.2-2.9-0.8
		c-0.5-0.3-0.9-0.6-1.3-1c-1-0.9-1.9-1.8-2.7-2.9c-0.2-0.3-0.5-0.9-0.9-0.6c-0.5,0.2,0,0.7,0.1,1c0.1,0.4,0.5,0.8,0.2,1.1
		c-0.3,0.4-0.8,0-1.1-0.1c-3.3-0.8-6.5-1.6-9.8-2.3c-0.2-0.1-0.6-0.3-0.7,0c-0.5,1.2-1.1,0.4-1.6,0.1c-2.3-1.7-4.8-2.6-7.6-2.9
		c-0.6-0.1-0.8,0.1-0.8,0.7c-0.1,1.1,0,2.2,0,3.2c0,3.2,0,6.3,0.1,9.5c0,1.5,0.2,3,0.3,4.4c0.2,2,1.1,3.9,1.5,5.8
		c0.2,0.6,0.2,1.3,0.6,1.9c1,1.7,2.6,2.6,4.4,3.1c2.7,0.7,5.5,0.8,8.3,0.5c1.1-0.1,1.7-0.6,1.9-1.7c0.1-0.9,0.7-1.4,1.6-1.5
		c2.4-0.1,4.8-0.1,7.2-0.2c0.7,0,1.2,0.3,1.5,0.9c0.9,1.6,1.3,1.8,3.1,1.4c0,1.4,0,2.8-0.2,4.3c-0.3,2-0.6,4-1.3,6
		c-1,3.1-2.8,5.1-6.4,5.1c-0.5-0.1-1,0-1.6,0.1c-1.9,0.4-3.8,0.2-5.6-0.5c-0.8-0.3-1.6-0.7-2.4-0.8c-1.9-0.2-3.5-0.8-4.9-2.1
		c-0.7-0.6-1.3-1.3-2-1.9c-1.7-0.2-2.3-1.6-3-2.8c-0.3-0.5-0.6-1.1-1.1-1.3c-2.1-1.1-2.8-3.1-3.6-5.1c-1.1-2.5-1.8-5.2-2.6-7.8
		c0-1.5-0.5-3-0.5-4.5C130.1,59.7,129.8,58.5,128.4,57.8z"/>
	<path class="st3" d="M165.1,72.5c-1.8,0.4-2.2,0.2-3.1-1.4c-0.3-0.6-0.8-0.9-1.5-0.9c-2.4,0.1-4.8,0.1-7.2,0.2
		c-0.9,0-1.5,0.6-1.6,1.5c-0.2,1.1-0.7,1.6-1.9,1.7c-2.8,0.3-5.6,0.3-8.3-0.5c-1.8-0.5-3.4-1.4-4.4-3.1c-0.4-0.6-0.4-1.2-0.6-1.9
		c-0.5-1.9-1.4-3.8-1.5-5.8c-0.1-1.5-0.3-3-0.3-4.4c-0.1-3.2,0-6.3-0.1-9.5c0-1.1-0.1-2.2,0-3.2c0.1-0.6,0.3-0.7,0.8-0.7
		c2.8,0.4,5.3,1.3,7.6,2.9c0.5,0.3,1.1,1.1,1.6-0.1c0.1-0.3,0.5-0.1,0.7,0c3.3,0.8,6.5,1.6,9.8,2.3c0.4,0.1,0.8,0.4,1.1,0.1
		c0.3-0.4-0.1-0.7-0.2-1.1c-0.1-0.3-0.6-0.8-0.1-1c0.4-0.2,0.7,0.3,0.9,0.6c0.8,1.1,1.8,2,2.7,2.9c0.4,0.4,0.9,0.7,1.3,1
		c0.9,0.6,1.8,0.9,2.9,0.8c0.4,3.2,0.8,6.4,1.1,9.7c0.1,1.4,0.3,2.7,0.3,4.1C165.1,68.6,165.4,70.6,165.1,72.5z M163,63.7
		c0-0.6-0.1-1.3-0.5-1.8c-0.3-0.5-0.7-1.1-1.5-0.9c-0.7,0.2-1.1,0.7-1.3,1.4c-0.2,0.9,0,1.8,0.5,2.7c0.6,1.1,1.5,1.1,2.2,0.2
		C162.9,64.7,163,64.3,163,63.7z M152.4,64.3c0-0.6-0.1-1.2-0.4-1.7c-0.3-0.6-0.7-1.1-1.5-0.9c-0.8,0.1-1.2,0.7-1.3,1.4
		c-0.2,0.9,0.1,1.7,0.4,2.5c0.5,1.2,1.6,1.2,2.3,0.2C152.2,65.3,152.4,64.8,152.4,64.3z"/>
	<path class="st3" d="M167.5,140.9c-2.1-1.1-4.4-1.8-6.6-2.7c-5.4-2.2-10.7-4.5-16-6.8c-1.2-0.5-2.1-1.3-2.9-2.3
		c-4.6-5.6-8.8-11.4-13.1-17.3c-0.3-0.4-0.4-0.6,0-1c2.3-2.3,4.7-4.6,7.7-6.1c1-0.5,2-0.9,3.1-0.9c0.6,0,0.9,0.2,1.2,0.8
		c2.5,6.4,5.7,12.5,8.5,18.7c0.2,0.4,0.5,0.6,0.8,0.8c5.6,2.6,11.1,5.3,16.7,8c0.3,0.1,0.5,0.3,0.8,0.2c0.8,0.9,2,1,3,1.6
		c0.4,0.3,1,0.8,1.4,0.6c0.5-0.3-0.1-0.9-0.1-1.4c0-0.6-0.2-1.2,0-1.9c0.3-0.9,0.8-1.5,1.8-1.5c1.1-0.1,1.6,0.3,2,1.4
		c0,0.1,0.1,0.2,0.1,0.4c0.4,1.6,0.4,1.6,2,1c0.8-0.3,1.6-0.5,2.4-0.6c0.4,0,0.8-0.1,1.1,0.4c0.2,0.4-0.1,0.7-0.3,1
		c-0.6,0.9-1.5,1.5-2.2,2.5c0.7,0.1,1.2-0.3,1.8-0.4c0.5-0.1,1.1-0.3,1.4,0.3c0.3,0.5-0.3,0.8-0.6,1.1c-0.7,0.8-1.7,1.4-2.6,2.1
		c1.3-0.2,2.7-0.4,4-0.4c0.4,0,0.9-0.1,1.1,0.4c0.2,0.5,0,1-0.4,1.3c-1.8,1.8-4,2.5-6.4,2.9c-2.9,0.5-5.4-0.8-8-1.6
		C168.9,141.3,168.2,141,167.5,140.9z M178.9,135.9L178.9,135.9L178.9,135.9L178.9,135.9z"/>
	<path class="st4" d="M171.7,234.2c1-0.3,2.1-0.7,3.2-0.4c3.2,3.2,6.8,6,10.8,8.1c0.5,0.3,1,0.4,1.6,0.3c2.3-0.4,4.2,0.3,5.7,2.1
		c0.4,0.5,0.8,1,1.2,1.4c0.5,0.6,0.4,1.4,0.2,2.1c-0.7,2.1-2.2,3.3-4.1,4.2c-3.6,1.6-7.2,1.5-10.9,0.5c-3.5-0.9-7-1.5-10.7-1
		c-2.2,0.3-4.4,0.3-6.6-0.3c-0.6-0.2-1.2-0.4-1.7-0.7c-0.6-0.5-0.8-1-0.8-1.8c0-3.2,0.8-6.3,0.9-9.5c0-1.2,0.4-2.3,0.9-3.4
		c0.3-0.7,0.9-0.8,1.5-0.9c0.7,0.2,1,0.8,1.4,1.3c0.4,0.6,0.9,1.1,1.6,1.4C168.1,238.1,171,236.5,171.7,234.2z"/>
	<path class="st4" d="M108.3,221.9c1,0.6,1.1,1,0.6,2.5c-1.1,3.1-1.8,6.3-2.2,9.5c-0.1,0.5-0.1,0.9-0.1,1.4c-0.1,1.2,0,2.3,0.7,3.5
		c1.1,1.6,1,3.4,0.1,5.1c-1.3,2.7-2.8,3.3-5.5,2c-3.7-1.7-5.6-4.8-6.6-8.7c-0.3-1.4-0.6-2.8-0.9-4.1c-0.7-2.4-1.4-4.8-2.9-6.9
		c-1-1.4-1.7-3.1-2.2-4.7c-0.3-0.8-0.4-1.7-0.4-2.5c0.1-1,0.5-1.5,1.5-1.9c2.7-1.2,5.6-1.9,8.3-3.1c1-0.5,2.1-0.6,3.2-0.6
		c0.6,0,1,0.3,1.3,0.7c0.2,0.7-0.1,1.3-0.5,1.9c-0.7,1-0.6,2-0.1,3.1c0.6,1.1,1.5,1.9,2.7,2.3C106.3,221.5,107.3,221.6,108.3,221.9z
		"/>
	<path class="st3" d="M140.9,82.6c0.7,0.6,1.3,1.3,2,1.9c1.4,1.3,3,1.9,4.9,2.1c0.9,0.1,1.6,0.5,2.4,0.8c1.8,0.8,3.7,0.9,5.6,0.5
		c0.5-0.1,1-0.1,1.6-0.1c0.3,0.9,0.7,1.7,1.6,2.2c0.2,0.8,0.4,1.7,0.5,2.5c0.3,2.1-0.7,3.6-2.8,4.3c-2.6,0.8-5,0.3-7.3-0.9
		c-3.5-1.8-6.2-4.5-8.9-7.4c-0.7-0.8-1.4-1.6-2.1-2.4C139.5,85.2,140.7,84.3,140.9,82.6z"/>
	<path class="st3" d="M108.3,221.9c-1-0.2-2-0.4-3-0.6c-1.2-0.3-2.1-1.2-2.7-2.3c-0.6-1-0.6-2.1,0.1-3.1c0.4-0.6,0.7-1.2,0.5-1.9
		c1.4-0.3,2.6-1,3.8-1.5c0.8,3,1.6,5.9,2.9,8.7C109.4,221.4,108.8,221.4,108.3,221.9z"/>
	<path class="st3" d="M171.7,234.2c-0.7,2.3-3.6,3.9-5.8,3.3c-0.7-0.2-1.2-0.7-1.6-1.4c-0.3-0.6-0.7-1.1-1.4-1.3c0-0.4,0-0.7,0-1.1
		C165.8,234.7,168.8,234.8,171.7,234.2z"/>
	<path class="st3" d="M128.4,57.8c1.4,0.7,1.6,1.8,1.6,3.2c0,1.5,0.5,3,0.5,4.5c-1.2,0.1-2.6-1.2-2.3-2.4
		C128.9,61.3,128.4,59.6,128.4,57.8z"/>
	<path class="st0" d="M163,63.7c0,0.5-0.2,1-0.5,1.5c-0.7,1-1.7,0.9-2.2-0.2c-0.4-0.8-0.7-1.7-0.5-2.7c0.1-0.7,0.5-1.2,1.3-1.4
		c0.8-0.2,1.1,0.4,1.5,0.9C162.9,62.5,163,63.1,163,63.7z"/>
	<path class="st0" d="M152.4,64.3c0,0.5-0.2,1-0.5,1.5c-0.7,1-1.8,0.9-2.3-0.2c-0.4-0.8-0.6-1.6-0.4-2.5c0.1-0.7,0.5-1.3,1.3-1.4
		c0.8-0.1,1.1,0.4,1.5,0.9C152.3,63.1,152.4,63.7,152.4,64.3z"/>
</g>
</svg>
