<?xml version="1.0" encoding="utf-8"?>
<!-- Generator: Adobe Illustrator 22.1.0, SVG Export Plug-In . SVG Version: 6.00 Build 0)  -->
<svg version="1.1" id="Capa_1" xmlns="http://www.w3.org/2000/svg" xmlns:xlink="http://www.w3.org/1999/xlink" x="0px" y="0px"
	 viewBox="0 0 283.5 283.5" style="enable-background:new 0 0 283.5 283.5;" xml:space="preserve">
<style type="text/css">
	.st0{fill:#F195BE;}
	.st1{fill:#852320;}
	.st2{fill:#0A813C;}
	.st3{fill:#88CFE2;}
	.st4{fill:#020203;}
	.st5{fill:#04994B;}
	.st6{fill:#1F1919;}
</style>
<g>
	<g>
		<path class="st0" d="M164.5,215.8c-1.5-0.8-3-0.5-5.4-0.2c-1,0.1-2.2,0.3-3.3,1.1c-0.3,0.2-0.5,0.3-0.8,0.6
			c-0.4,1.5-0.8,4.3-0.3,5.9c1,3.2,8.6-1.1,9.4-2.5c0.7-1.1-0.9-0.1-0.4-1.7C163.3,219.2,164,216.8,164.5,215.8z"/>
		<path class="st1" d="M181.6,228.2c-1.9-2.9-4.5-2.8-6.3-2.2c-3.9-1.4-8.2-4.6-10.3-6.4c-3.3-3-2.1,3-6.9,3.4
			c-2.6,0.2-2.4-2.1-3.7-2.2c-1.3-0.1-1.4,1.4-1.4,1.4c-0.6,1.1-0.3,3-0.3,3l-0.4,5.2c0.2,0.7,0.2,2.2,0,2.6
			c-0.2,0.4,0.4,2.2,5.4,1.9c5-0.3,2.8-0.9,7.8-0.5c5,0.4,7.1,1.9,12.1,0.1C182.6,232.7,183,228.5,181.6,228.2z M153.2,230.6
			c0.1,0.2,0.3,0.3,0.4,0.4C153.5,230.9,153.3,230.8,153.2,230.6z"/>
	</g>
	<path class="st2" d="M140.8,165.2c0.5,1.7,10.8,22.4,11.3,24.1c3.4,10.9,2.5,26.7,1.6,30.3c2.4,1.7,3.8,1.3,6.7,1.3
		c0.9,0,4.7-1.3,5.6-1c0.1-0.3,0.4-21.5,0.5-21.8c1.3-3-6-24-11.1-33.5C151.2,164,145,166.1,140.8,165.2z"/>
	<path class="st0" d="M117.4,208.9c-1-0.6-1.2,0.5-1.8,0c-1.8-1.8-2.9-3.4-4.1-5.6c0,0-0.1,0-0.1,0c-0.1,0-0.2-0.1-0.3-0.2
		c-5.4,3.3-11.1,4.8-11.1,4.8s3.1,2.5,8.5,5C108.5,212.9,113.8,211.5,117.4,208.9z"/>
	<path class="st0" d="M148.8,89.3c0.5-3.2,2.4-6.2,2.4-9.3c-1.4,0.6-2.6,1.9-3.7,2.8c-1.7,1.4-3.4,2.7-5.2,4.1
		c-1.7,1.4-0.4-3.2-2.2-2c-1.1,0.7-4-1.9-5.2-1.3c-0.3,8.5,0.1,9.7-3,11.3c-0.9,2.8-4.4,7.4-5.6,10.1c5.1,3,26.3,8.4,26.9-4.8
		C146.8,98,148.1,93.7,148.8,89.3z"/>
	<path class="st0" d="M126.2,70.5c-0.4-5.9,1.2-3.3,1.5-6.6c0.2-2.5,0.7-7.7,2.9-9c2.2-1.2,4.7-1.7,7.3-1.8c4.2-0.2,8.5,0.4,12.5,2
		c2.3,0.9,4.7,2.4,5.7,4.7c0.7,1.5,0.7,3.1,0.7,4.7c0.2,8,0.7,14.8-0.8,22.7c-0.4,1.9-1.3,5.2-2.7,6.6c-1.9,1.9-4.9,2-7.6,2
		c-1.5-0.8-2.8-2.1-4.1-3.2c-1.8-1.5-3.4-3.2-5-4.8c-1.6-1.6-3.2-3.1-4.8-4.7c-0.7-0.8-1.6-1.6-2.5-2.1c0-0.3,0.1-0.5,0.2-0.8
		c-1-0.1-1.4-1.3-1.4-2.2c0-1,0.3-2-0.2-2.8c-0.3-0.5-1.1,0-1.5-0.5C124.8,72.2,126.3,72.2,126.2,70.5z"/>
	<path class="st3" d="M150.4,61.8c0.1,0.5,0.2,1,0.4,1.4c0.1,0.2-0.1,0.5-0.4,0.4c-3.1-1.1-6.2-2.2-9.3-3.3
		c-0.2-0.1-0.4,0.1-0.4,0.3c0,0,0,0,0,0c0.1,0.3-0.3,0.5-0.5,0.3c-2-2-4.6-3.3-7.4-3.8c-0.2,0-0.3,0.1-0.3,0.3
		c-0.3,3.5-0.6,7-0.9,10.5c-0.2,2.1-0.4,4.1-0.1,6.2c0.3,2.1,1.1,4.3,0.7,6.4c0,0.1-0.1,0.2-0.2,0.2c-1.5,0.5-2.7-1.4-3.1-3
		c-0.6-2.7-1-5.5-1-8.3c0-0.2-0.1-0.3-0.3-0.3c-1.3,0-1.8-2-1.7-3.4c0.2-3.5,0.3-7.1,0.5-10.6c0-0.2-0.2-0.4-0.4-0.3c0,0,0,0,0,0
		c-0.3,0.1-0.5-0.3-0.3-0.5c0.6-0.7,1-1.3,1.7-2.2c0.2-0.3,0.6-0.6,1-0.5c0.4,0.1,0.1,0.9-0.2,0.6c1.9-2.8,5.5-3.9,8.8-4.8
		c0.5-0.1,1.1-0.3,1.5,0.1c0.4,0.3,0.2,1.2-0.3,1c2.9-3.3,8.9-3.3,11.7,0.2c1.2,1.4,1.9,3.3,3.6,4.2c0.9,0.4,2,0.6,2.4,1.5
		c0.2,0.4,0.2,0.9,0.2,1.3c0.1,0.7,0.3,1.3,0.6,2c0.6,1.7,2.7,8.4,0.3,9.1c-2.1,0.6-4.7-2.9-6-5.1C150.8,61.4,150.3,61.5,150.4,61.8
		z"/>
	<path class="st3" d="M127.4,74.3c0.2,2.1,0.4,4.2,1.1,6.2c0.7,2,1,4.5,2.7,5.7c1.3,1,1.4,2.3,2.3,3.7c0.3,0.4,1.3,0.3,1.5,0.7
		c0.6,1.2,1.7,2.1,2.7,2.9c0.9,0.8,3.5,0.9,4.4,1.7c0.2,0.2,0.4,0.3,0.6,0.4c0.6,0.3,1.5,0.2,2.1,0.5c0.5,0.2,0.9,0.3,1.4,0.2
		c1.5-0.3,3.8,0.4,5.5-0.6c0.9-0.6,1.8-1.6,2.3-2.6c1.4-3,2.1-6.1,2.5-9.4c-0.8,0.5-1.9,0.1-2.3-0.7c-0.2-0.4-0.3-0.9-0.6-1.2
		c-0.3-0.3-0.9-0.4-1.3-0.4c-1.9-0.1-3.7-0.2-5.6-0.4c-0.4,0-0.9,0-1.2,0.2c-0.6,0.4-0.5,1.5-1.1,2c-0.3,0.2-0.7,0.3-1.1,0.3
		c-2.2,0.1-4.4-0.2-6.5-0.8c-1-0.3-2-0.7-2.9-1.4c-1.7-1.4-2.3-3.6-2.7-5.7c-0.7-3.8-1-7.8-0.7-11.7c0-0.7-0.3-3-1.6-2
		c-0.6,0.5-1,2.8-1.2,3.6C127.1,68.4,127.2,71.4,127.4,74.3z"/>
	<path class="st4" d="M144.1,77.1c-0.1-0.2-0.3-0.4-0.3-0.7c-0.3-1-0.5-2.3,0.5-3c1.3-0.9,2,1.1,1.9,2.1
		C146.1,76.8,144.8,78,144.1,77.1z"/>
	<path class="st4" d="M153.3,77.5c-0.1-0.2-0.3-0.4-0.3-0.7c-0.3-1-0.5-2.3,0.5-3c1.3-0.9,2,1.1,1.9,2.1
		C155.3,77.1,154,78.4,153.3,77.5z"/>
	<path class="st1" d="M109.2,232.5c1.8-2.8,0.7-5-0.5-6.3c-0.2-3.9,0.8-8.9,1.7-11.4c1.3-4-3.4-0.7-5.5-4.7c-1.2-2.2,0.9-2.8,0.5-4
		c-0.5-1.2-1.8-0.7-1.8-0.7c-1.2-0.1-2.7,0.9-2.7,0.9l-4.7,1.6c-0.5,0.4-1.8,1-2.3,1c-0.5,0-1.7,1.2,0.4,5.4
		c2.1,4.2,1.8,2.1,3.4,6.6c1.6,4.5,1,6.9,4.5,10.5C105.7,235.1,109.5,233.9,109.2,232.5z M96.3,208.9c-0.1,0.2-0.1,0.4-0.2,0.5
		C96.1,209.2,96.2,209,96.3,208.9z"/>
	<path class="st5" d="M125.7,178.2c0,0,2.1,12.8-5.2,17c-7.3,4.3-12.5,7-12.5,7s3,14,6.4,11.9c3.3-2.1,17.6-10.4,31.5-27.7
		c0,0,5-3.6,9-15.2c4-11.6,1.8-5.5,1.8-5.5l-36.5-0.3C120.3,165.4,118.1,174,125.7,178.2z"/>
	<path class="st6" d="M158.3,103c-4.1-3.3-8.2-4.9-8.2-4.8c-0.2,0.4,2.6,5.7-3.6,6.3c-6.2,0.6-12.9-8.3-14.4-9.7c0,0-8.1,3.6-9.6,5
		c-2.9,5.8-0.7,10.6-1.2,16.9c-0.5,5.7,0.1,11.1,0,18.2c-1,10.5-2.2,28.9-1.1,34.6c2.4-0.6,2-1.1,7.1-2.1c4.8-0.9,10.1-1.4,14.9-0.9
		c3.6,0.4,11.7-0.3,14.3,1.1c3.2-4.6-0.5-20.4,1-33.1C158.1,129.8,162.5,106.3,158.3,103z"/>
	<path class="st0" d="M119.5,112.2l0.1,0.9c0,0,4.3,22.3,5.2,22.7c1.8,1.4,2.5,1,4.5,0.2c0.5-0.2,2-1.3,2.5-1.7
		c0.2-4.2-0.2-16.7,0.2-20.6C132.7,108.1,119.5,112.2,119.5,112.2z"/>
	<path class="st0" d="M148.2,149.8c0,0,1.6-2.8-0.3-3.6c-2.5-1.1-3.2,3.4-3.2,3.4L130.7,131c-2.3-1.1-5.6,2.2-5.8,4.9
		c0,0,0,0.1,0.1,0.1c2.9,3.5,15.7,19.6,18.6,21.1c4.5,2.5,8.7,1.2,8.5,0.2c-0.2-1-4.7-2.1-4.7-2.1s4.7-0.3,4.4-1.3
		c-0.2-1-3.9-0.9-3.9-0.9s5-1,4.8-2C152.4,150,148.2,149.8,148.2,149.8z"/>
	<path class="st6" d="M124.4,98.8c-4.4,0.8-5.8,4-6.1,7.6c0.1,2.5,0.5,5.3,1.5,8.4c0,0,9.9-4.2,12.7-1.1c1.5,1.7,1.8-4.7,0.1-11
		C130.8,100.1,127.6,98.3,124.4,98.8z"/>
</g>
</svg>
