<?xml version="1.0" encoding="utf-8"?>
<!-- Generator: Adobe Illustrator 22.1.0, SVG Export Plug-In . SVG Version: 6.00 Build 0)  -->
<svg version="1.1" id="Capa_1" xmlns="http://www.w3.org/2000/svg" xmlns:xlink="http://www.w3.org/1999/xlink" x="0px" y="0px"
	 viewBox="0 0 283.5 283.5" style="enable-background:new 0 0 283.5 283.5;" xml:space="preserve">
<style type="text/css">
	.st0{fill:#F195BE;}
	.st1{fill:#852320;}
	.st2{fill:#0A813C;}
	.st3{fill:#88CFE2;}
	.st4{fill:#020203;}
	.st5{fill:#04994B;}
	.st6{fill:#1F1919;}
</style>
<g>
	<path class="st0" d="M162.9,215.1c-1.5-0.8-3-0.5-5.4-0.2c-1,0.1-2.2,0.3-3.3,1.1c-0.3,0.2-0.5,0.3-0.8,0.6
		c-0.4,1.5-0.8,4.3-0.3,5.9c1,3.2,8.6-1.1,9.4-2.5c0.7-1.1-0.9-0.1-0.4-1.7C161.7,218.6,162.5,216.2,162.9,215.1z"/>
	<path class="st1" d="M180,227.6c-1.9-2.9-4.5-2.8-6.3-2.2c-3.9-1.4-8.2-4.6-10.3-6.4c-3.3-3-2.1,3-6.9,3.4
		c-2.6,0.2-2.4-2.1-3.7-2.2c-1.3-0.1-1.4,1.4-1.4,1.4c-0.6,1.1-0.3,3-0.3,3l-0.4,5.2c0.2,0.7,0.2,2.2,0,2.6
		c-0.2,0.4,0.4,2.2,5.4,1.9s2.8-0.9,7.8-0.5s7.1,1.9,12.1,0.1C181,232.1,181.4,227.8,180,227.6z M151.6,230c0.1,0.2,0.3,0.3,0.4,0.4
		C151.9,230.3,151.7,230.2,151.6,230z"/>
</g>
<path class="st2" d="M151.9,216.8c4,0,8.2,1.6,11.5,0.1c3.9-41.6-6.5-57.7-6.5-57.7l-9.7,4.5C153.1,170.7,152.2,208.6,151.9,216.8z"
	/>
<path class="st0" d="M121.9,208.9c-1-0.5-1.2,0.6-1.8,0.1c-1.9-1.7-3.2-3.2-4.4-5.3h-0.1c-0.1,0-0.2-0.1-0.3-0.2
	c-5.2,3.6-10.7,5.5-10.7,5.5s3.3,2.3,8.8,4.4C113.3,213.5,118.6,211.8,121.9,208.9z"/>
<path class="st0" d="M149.9,87.9c0.5-3.2,2.4-6.2,2.4-9.3c-1.4,0.6-2.6,1.9-3.7,2.8c-1.7,1.4-3.4,2.7-5.2,4.1
	c-1.7,1.4-0.4-3.2-2.2-2c-1.1,0.7-4-1.9-5.2-1.3c-0.3,8.5,0.1,9.7-3,11.3c-0.9,2.8-4.4,7.4-5.6,10.1c5.1,3,26.3,8.4,26.9-4.8
	C147.9,96.6,149.2,92.3,149.9,87.9z"/>
<path class="st0" d="M127.2,68.6c-0.4-5.9,1.2-3.3,1.5-6.6c0.2-2.5,0.7-7.7,2.9-9c2.2-1.2,4.7-1.7,7.3-1.8c4.2-0.2,8.5,0.4,12.5,2
	c2.3,0.9,4.7,2.4,5.7,4.7c0.7,1.5,0.7,3.1,0.7,4.7c0.2,8,0.7,14.8-0.8,22.7c-0.4,1.9-1.3,5.2-2.7,6.6c-1.9,1.9-4.9,2-7.6,2
	c-1.5-0.8-2.8-2.1-4.1-3.2c-1.8-1.5-3.4-3.2-5-4.8c-1.6-1.6-3.2-3.1-4.8-4.7c-0.7-0.8-1.6-1.6-2.5-2.1c0-0.3,0.1-0.5,0.2-0.8
	c-1-0.1-1.4-1.3-1.4-2.2c0-1,0.3-2-0.2-2.8c-0.3-0.5-1.1,0-1.5-0.5C125.9,70.3,127.4,70.3,127.2,68.6z"/>
<path class="st3" d="M151.5,59.9c0.1,0.5,0.2,1,0.4,1.4c0.1,0.2-0.1,0.5-0.4,0.4c-3.1-1.1-6.2-2.2-9.3-3.3c-0.2-0.1-0.4,0.1-0.4,0.3
	l0,0c0.1,0.3-0.3,0.5-0.5,0.3c-2-2-4.6-3.3-7.4-3.8c-0.2,0-0.3,0.1-0.3,0.3c-0.3,3.5-0.6,7-0.9,10.5c-0.2,2.1-0.4,4.1-0.1,6.2
	c0.3,2.1,1.1,4.3,0.7,6.4c0,0.1-0.1,0.2-0.2,0.2c-1.5,0.5-2.7-1.4-3.1-3c-0.6-2.7-1-5.5-1-8.3c0-0.2-0.1-0.3-0.3-0.3
	c-1.3,0-1.8-2-1.7-3.4c0.2-3.5,0.3-7.1,0.5-10.6c0-0.2-0.2-0.4-0.4-0.3l0,0c-0.3,0.1-0.5-0.3-0.3-0.5c0.6-0.7,1-1.3,1.7-2.2
	c0.2-0.3,0.6-0.6,1-0.5s0.1,0.9-0.2,0.6c1.9-2.8,5.5-3.9,8.8-4.8c0.5-0.1,1.1-0.3,1.5,0.1c0.4,0.3,0.2,1.2-0.3,1
	c2.9-3.3,8.9-3.3,11.7,0.2c1.2,1.4,1.9,3.3,3.6,4.2c0.9,0.4,2,0.6,2.4,1.5c0.2,0.4,0.2,0.9,0.2,1.3c0.1,0.7,0.3,1.3,0.6,2
	c0.6,1.7,2.7,8.4,0.3,9.1c-2.1,0.6-4.7-2.9-6-5.1C151.9,59.5,151.4,59.6,151.5,59.9z"/>
<path class="st3" d="M128.5,72.4c0.2,2.1,0.4,4.2,1.1,6.2s1,4.5,2.7,5.7c1.3,1,1.4,2.3,2.3,3.7c0.3,0.4,1.3,0.3,1.5,0.7
	c0.6,1.2,1.7,2.1,2.7,2.9c0.9,0.8,3.5,0.9,4.4,1.7c0.2,0.2,0.4,0.3,0.6,0.4c0.6,0.3,1.5,0.2,2.1,0.5c0.5,0.2,0.9,0.3,1.4,0.2
	c1.5-0.3,3.8,0.4,5.5-0.6c0.9-0.6,1.8-1.6,2.3-2.6c1.4-3,2.1-6.1,2.5-9.4c-0.8,0.5-1.9,0.1-2.3-0.7c-0.2-0.4-0.3-0.9-0.6-1.2
	c-0.3-0.3-0.9-0.4-1.3-0.4c-1.9-0.1-3.7-0.2-5.6-0.4c-0.4,0-0.9,0-1.2,0.2c-0.6,0.4-0.5,1.5-1.1,2c-0.3,0.2-0.7,0.3-1.1,0.3
	c-2.2,0.1-4.4-0.2-6.5-0.8c-1-0.3-2-0.7-2.9-1.4c-1.7-1.4-2.3-3.6-2.7-5.7c-0.7-3.8-1-7.8-0.7-11.7c0-0.7-0.3-3-1.6-2
	c-0.6,0.5-1,2.8-1.2,3.6C128.2,66.5,128.3,69.5,128.5,72.4z"/>
<path class="st4" d="M145.2,75.2c-0.1-0.2-0.3-0.4-0.3-0.7c-0.3-1-0.5-2.3,0.5-3c1.3-0.9,2,1.1,1.9,2.1
	C147.2,74.9,145.9,76.1,145.2,75.2z"/>
<path class="st4" d="M154.3,75.6c-0.1-0.2-0.3-0.4-0.3-0.7c-0.3-1-0.5-2.3,0.5-3c1.3-0.9,2,1.1,1.9,2.1
	C156.3,75.3,155.1,76.5,154.3,75.6z"/>
<path class="st1" d="M115.4,233.1c1.6-2.9,0.4-5-0.9-6.3c-0.5-3.9,0.2-8.9,0.9-11.4c1-4.1-3.5-0.4-5.9-4.3c-1.3-2.1,0.7-2.9,0.2-4
	s-1.8-0.6-1.8-0.6c-1.2,0-2.6,1.1-2.6,1.1l-4.6,2c-0.5,0.5-1.7,1.1-2.2,1.2c-0.5,0.1-1.7,1.3,0.8,5.4c2.4,4.1,2,1.9,3.9,6.3
	c1.9,4.4,1.5,6.8,5.2,10.1C112.1,235.9,115.8,234.4,115.4,233.1z M100.9,210.4c-0.1,0.2-0.1,0.4-0.2,0.6
	C100.7,210.7,100.8,210.5,100.9,210.4z"/>
<path class="st5" d="M128.1,177.7c0,0,3,12.6-4,17.4s-12,7.9-12,7.9s4,13.7,7.2,11.4c3.2-2.4,16.8-11.6,29.5-29.9
	c0,0,4.7-4,7.9-15.8c3.1-11.8,1.4-5.6,1.4-5.6l-36.4,2.3C121.7,165.4,120.2,174,128.1,177.7z"/>
<path class="st6" d="M159.4,101.6c-4.1-3.3-8.2-4.9-8.2-4.8c-0.2,0.4,2.6,5.7-3.6,6.3c-6.2,0.6-12.9-8.3-14.4-9.7c0,0-8.1,3.6-9.6,5
	c-2.9,5.8-0.7,10.6-1.2,16.9c-0.5,5.7,0.1,11.1,0,18.2c-1,10.5-2.2,28.9-1.1,34.6c2.4-0.6,2-1.1,7.1-2.1c4.8-0.9,10.1-1.4,14.9-0.9
	c3.6,0.4,14-0.6,16.6,0.8c0.3-5-2.8-20.1-1.3-32.8C159.1,128.4,163.6,104.9,159.4,101.6z"/>
<path class="st0" d="M120.5,110.8l0.1,0.9c0,0,4.3,22.3,5.2,22.7c1.8,1.4,2.5,1,4.5,0.2c0.5-0.2,2-1.3,2.5-1.7
	c0.2-4.2-0.2-16.7,0.2-20.6C133.8,106.7,120.5,110.8,120.5,110.8z"/>
<path class="st0" d="M149.3,148.4c0,0,1.6-2.8-0.3-3.6c-2.5-1.1-3.2,3.4-3.2,3.4l-13.9-18.5c-2.3-1.1-5.6,2.2-5.8,4.9
	c0,0,0,0.1,0.1,0.1c2.9,3.5,15.7,19.6,18.6,21.1c4.5,2.5,8.7,1.2,8.5,0.2s-4.7-2.1-4.7-2.1s4.7-0.3,4.4-1.3c-0.2-1-3.9-0.9-3.9-0.9
	s5-1,4.8-2C153.5,148.6,149.3,148.4,149.3,148.4z"/>
<path class="st6" d="M125.5,97.4c-4.4,0.8-5.8,4-6.1,7.6c0.1,2.5,0.5,5.3,1.5,8.4c0,0,9.9-4.2,12.7-1.1c1.5,1.7,1.8-4.7,0.1-11
	C131.9,98.7,128.7,96.9,125.5,97.4z"/>
</svg>
