<?xml version="1.0" encoding="utf-8"?>
<!-- Generator: Adobe Illustrator 22.1.0, SVG Export Plug-In . SVG Version: 6.00 Build 0)  -->
<svg version="1.1" id="Capa_1" xmlns="http://www.w3.org/2000/svg" xmlns:xlink="http://www.w3.org/1999/xlink" x="0px" y="0px"
	 viewBox="0 0 283.5 283.5" style="enable-background:new 0 0 283.5 283.5;" xml:space="preserve">
<style type="text/css">
	.st0{fill:#242020;}
	.st1{fill:#00984A;}
	.st2{fill:#87CEE1;}
	.st3{fill:#EE88B6;}
	.st4{fill:#83231F;}
</style>
<g>
	<path class="st0" d="M134.6,141.2c0.5-5,1.1-10,1-15c-0.1-5.6-0.3-11.2,0.3-16.8c0.1-0.7-0.1-1.2-0.5-1.8c-1.4-2.4-2.8-4.8-3.1-7.6
		c-0.5-4.4,1.7-7.7,5.8-9.2c2.4-0.9,4.7-2.2,7.1-3.3c1.2-0.5,2.3-1.3,3.6-1.5c2.2,2.7,4.6,5.3,7.4,7.6c1.6,1.3,3.2,2.4,5.1,3.1
		c1.8,0.7,3.7,0.9,5.6,0.3c2.1-0.6,3.1-1.9,3-4.1c-0.1-0.9-0.3-1.9-0.4-2.8c0.7,0,1.3,0.4,1.8,0.7c2.7,1.3,5.2,2.9,7.5,4.8
		c1.3,1,1.6,2.5,1.8,3.9c0.6,3.7,0.4,7.4,0.1,11c-0.6,6.9-1.7,13.7-2.8,20.6c-0.4,2.7-0.6,5.4-0.6,8.2c-0.3,0.8,0,1.7-0.2,2.5
		c-0.4,0-0.5-0.2-0.7-0.4c-5.4-4.5-10.7-9.1-16.1-13.5c-1.7-1.4-2.7-2.9-3.4-5c-2-5.9-4.4-11.7-6.1-17.8c-0.2-0.6-0.5-0.7-1-0.7
		c-1.1-0.1-2.2,0.2-3.2,0.6c-3.1,1.2-5.7,3.3-8.2,5.4c-0.5,0.4-0.3,0.7-0.1,1.1c3.6,5.9,7.1,11.8,10.9,17.6c0.9,1.4,2,2.7,3.3,3.7
		c6.3,4.8,12.6,9.8,19.1,14.4c1.9,1.4,4,2.6,6,3.9c0.1,4.3,0.5,8.5,0.3,12.8c-0.1,2.2-0.5,4.2-1.2,6.2c-0.3,0.4-0.6,0.4-1,0.2
		c-0.9-0.4-2-0.5-3-0.6c-5.2-0.5-10.5-0.3-15.7-0.8c-4.8-0.4-9.5,0.1-14.3,1c-2.4,0.4-4.9,0.9-7.1,2c-1.7,0.4-1.7,0.4-1.8-1.4
		c-0.4-4.3-0.3-8.7-0.1-13c0-1.3,0.1-2.5,0.1-3.8c0.3-1.1,0.2-2.1,0.3-3.2C134.2,147.4,134.4,144.3,134.6,141.2z"/>
	<path class="st1" d="M135.5,172c2.2-1.2,4.7-1.6,7.1-2c4.7-0.8,9.5-1.4,14.3-1c5.2,0.5,10.5,0.3,15.7,0.8c1,0.1,2,0.2,3,0.6
		c0.4,0.2,0.7,0.1,1-0.2c0.7,1.7,0.7,3.5,1,5.2c0.9,7.1,1.3,14.3,1.5,21.5c0.2,7.4-0.7,14.6-3.2,21.6c-1.8,5.1-3.4,10.3-5.3,15.4
		c-0.1,0.3-0.3,0.7-0.3,1c-0.3,0.1-0.5,0-0.8,0c-1.3-0.3-2.6-0.4-3.9-0.2c-2.9-0.1-5.7-0.8-8.2-2.5c-0.2-0.3-0.5-0.6-0.7-0.8
		c-0.3-0.3-0.4-0.6-0.2-1.1c2.1-4.9,3.4-10.1,4.8-15.2c0.9-3.2,1.8-6.5,2.3-9.8c0.4-2.6,0.2-5.2,0.6-7.8c0.3-1.7,0-3.3-0.2-5
		c-0.4,0.1-0.6,0.4-0.8,0.6c-2.6,2.8-5.3,5.4-8.2,7.9c-0.8,0.7-1.4,1.5-2.1,2.2c-2.1,2-4.5,3.5-7.4,3.8c-0.3,0-0.6,0.2-0.9,0.4
		c-8.3,4.5-16.8,8.4-25.6,11.7c-1.4,0.5-2.2,0.6-3.2-1.3c-0.3-0.5-0.4-1-0.6-1.5c-0.1-0.7-0.3-1.5-0.4-2.2c-0.5-2.3-0.5-4.6-0.8-6.9
		c0-0.2,0-0.5,0-0.7c0-2.1,0-2.1,1.9-2.8c6.2-2.4,12.5-4.8,18.9-6.9c0.5-0.2,0.9-0.4,1.4-0.4c1.3-0.1,1.8-0.9,2.1-1.9
		c2.1-5.7,2.1-11.4,0.2-17.2c-0.4-1.2-0.8-2.4-1.8-3.4C136.2,173.2,135.9,172.5,135.5,172z"/>
	<path class="st2" d="M151.4,82.2c-1.6-0.4-2.2-1.8-2.8-3.1c-0.2-0.5-0.5-1-1-1.3c-1.5-0.8-2.3-2.2-2.9-3.8
		c-1.1-3.1-2.3-6.2-2.7-9.5c-0.2-2.1-0.4-4.2-0.5-6.3c0-0.2-0.1-0.5-0.3-0.6c-0.5-0.2-0.7-0.7-1.1-1c-0.6-1.3-0.6-2.7-0.6-4.1
		c0-3.3,0-6.7,0-10c0-0.5,0.1-1.1-0.6-1.3c-0.4-0.1-0.3-0.4-0.1-0.7c0.6-0.9,1.2-1.7,1.8-2.6c0.1-0.1,0.1-0.2,0.2-0.2
		c1.5-0.3,2.1-1.7,3.3-2.5c2.3-1.5,4.8-2.5,7.4-3.2c0.5-0.2,1.1-0.3,1.6,0.2c0.4,0.4,0.7-0.1,0.9-0.3c1.7-1.3,3.6-1.9,5.7-1.9
		c3.1,0,5.7,1.2,7.5,3.8c0.5,0.6,1,1.3,1.5,1.9c0.9,1,1.8,1.7,3.1,2c1.3,0.3,1.9,1.1,2,2.4c0.1,1.2,0.7,2.2,1.1,3.4
		c0.9,2.4,1.7,4.8,1.8,7.4c0,1-0.3,1.9-1.2,2.4c-1.3,0-2.3-0.5-3.3-1.2c-1.5-1.1-2.6-2.6-3.6-4c-0.2-0.2-0.3-0.6-0.7-0.4
		c-0.3,0.2-0.1,0.5-0.1,0.8c0,0.1,0.1,0.2,0.1,0.4c0.1,0.3,0.4,0.7,0.1,1c-0.3,0.3-0.6,0-0.9-0.1c-3.2-0.9-6.5-1.9-9.7-2.8
		c-0.4-0.1-0.8-0.4-1,0.2c-0.3,0.7-0.6,0.5-0.9,0.1c-2.2-1.8-4.8-3.1-7.6-3.6c-1-0.2-1.2,0-1.2,0.9c-0.1,3.2-0.2,6.3-0.2,9.5
		c0,0.4-0.1,0.7-0.1,1.1c-0.1,2-0.1,4,0,6c0.2,2.2,1,4.3,1.4,6.5c0.4,2.3,1.8,3.6,3.8,4.5c2.8,1.2,5.7,1.3,8.6,1.2
		c2-0.1,2,0,2.7-1.9c0.2-0.7,0.6-1.1,1.3-1.1c2.4,0,4.9,0,7.3,0c0.8,0,1.4,0.4,1.7,1.1c0.7,1.5,1.3,1.8,3,1.4
		c0,3.9-0.8,7.6-2.3,11.1c-1,2.2-2.6,3.9-5.4,3.8c-0.2,0-0.4,0.1-0.7,0.2c-0.9,0-1.8,0-2.8,0.1c-1.5,0.1-3.1-0.1-4.5-0.8
		c-1-0.5-2-1-3-1.1c-2.4-0.3-3.9-1.8-5.3-3.4C151.9,82.6,151.8,82.3,151.4,82.2z"/>
	<path class="st3" d="M176.1,73.1c-1.7,0.4-2.3,0.1-3-1.4c-0.4-0.8-0.9-1.1-1.7-1.1c-2.4,0-4.9,0-7.3,0c-0.7,0-1.1,0.4-1.3,1.1
		c-0.7,1.9-0.7,1.9-2.7,1.9c-3,0.1-5.9,0-8.6-1.2c-2-0.8-3.4-2.2-3.8-4.5c-0.4-2.2-1.2-4.2-1.4-6.5c-0.2-2-0.1-4,0-6
		c0-0.4,0.1-0.7,0.1-1.1c0.1-3.2,0.2-6.3,0.2-9.5c0-1,0.2-1.1,1.2-0.9c2.9,0.5,5.4,1.8,7.6,3.6c0.4,0.3,0.7,0.6,0.9-0.1
		c0.2-0.5,0.6-0.3,1-0.2c3.2,0.9,6.5,1.9,9.7,2.8c0.3,0.1,0.6,0.3,0.9,0.1c0.4-0.3,0-0.7-0.1-1c0-0.1-0.1-0.2-0.1-0.4
		c-0.1-0.3-0.2-0.6,0.1-0.8c0.4-0.2,0.5,0.2,0.7,0.4c1.1,1.5,2.2,2.9,3.6,4c1,0.7,2,1.2,3.3,1.2c0.3,4.6,0.8,9.2,0.8,13.9
		C176.3,69.3,176.3,71.2,176.1,73.1z M163.7,64.1c0-0.5-0.1-1.1-0.4-1.5c-0.3-0.6-0.7-1.1-1.4-1c-0.8,0.1-1.2,0.6-1.4,1.4
		c-0.2,0.7,0,1.4,0.2,2.1c0.2,0.6,0.4,1.3,1.1,1.3c0.8,0.1,1.2-0.5,1.6-1.2C163.7,64.9,163.7,64.6,163.7,64.1z M174.4,64
		c0-0.5-0.1-1.1-0.4-1.6c-0.3-0.5-0.7-1-1.4-0.9c-0.7,0.1-1.1,0.5-1.3,1.2c-0.3,0.8-0.1,1.6,0.1,2.3c0.2,0.6,0.4,1.3,1.3,1.3
		c0.8,0,1.2-0.5,1.5-1.2C174.3,64.8,174.4,64.4,174.4,64z"/>
	<path class="st3" d="M177.5,151c-2-1.3-4-2.5-6-3.9c-6.5-4.6-12.8-9.6-19.1-14.4c-1.4-1-2.4-2.3-3.3-3.7
		c-3.8-5.7-7.3-11.7-10.9-17.6c-0.3-0.4-0.4-0.7,0.1-1.1c2.6-2.1,5.1-4.1,8.2-5.4c1-0.4,2.1-0.7,3.2-0.6c0.5,0,0.9,0.1,1,0.7
		c1.7,6,4.1,11.8,6.1,17.8c0.7,2.1,1.7,3.6,3.4,5c5.4,4.4,10.7,9,16.1,13.5c0.2,0.2,0.3,0.4,0.7,0.4c0.2-0.8-0.1-1.7,0.2-2.5
		c0.5,0.1,0.4-0.4,0.5-0.6c0.5-1,1.4-1.4,2.4-1.2c0.9,0.2,1.4,1,1.5,2.1c0,0.3,0.1,0.5,0,0.8c-0.4,1.2,0.4,1.1,1.1,1
		c1-0.2,2-0.3,3,0c0.4,0.1,0.8,0.2,0.9,0.6c0.1,0.5-0.3,0.7-0.6,1c-0.8,0.7-1.8,1.2-2.8,1.7c-0.1,0.1-0.3,0.2-0.4,0.3
		c0.8,0,1.6-0.2,2.4-0.1c0.5,0,1,0.1,1.1,0.6c0.1,0.5-0.4,0.7-0.7,0.9c-0.7,0.4-1.4,0.8-2.2,1c-0.3,0.1-0.6,0.3-0.9,0.5
		c1.4,0.1,2.8,0.2,4.2,0.7c0.4,0.1,0.8,0.2,0.9,0.6c0.1,0.5-0.3,0.8-0.6,1c-1.2,0.9-2.5,1.2-4,1.3
		C181.1,151.6,179.3,151.4,177.5,151z"/>
	<path class="st4" d="M165.7,234.5c1.3-0.2,2.6-0.1,3.9,0.2c0.3,0.1,0.5,0.1,0.8,0c2.9,2.8,6,5.3,9.6,7.2c0.5,0.3,0.9,0.3,1.5,0.3
		c2.5-0.3,4.5,0.5,5.9,2.6c0.5,0.8,1.5,1.4,1.2,2.6c-0.3,1.3-0.9,2.4-2,3.2c-3.1,2.4-6.6,3-10.4,2.4c-2.3-0.4-4.5-1.1-6.8-1.6
		c-2-0.4-4-0.6-6.1-0.4c-2.4,0.3-4.7,0.2-7.1-0.4c-0.6-0.2-1.2-0.4-1.7-0.7c-0.7-0.5-0.9-1.1-0.8-2c0.1-3.2,0.9-6.3,1.1-9.4
		c0.1-1.2,0.4-2.3,0.9-3.4c0.3-0.6,0.8-0.8,1.5-0.9c0.7,0.2,1,0.6,1.4,1.2c0.4,0.7,0.8,1.3,1.6,1.5
		C162.1,237.8,164.8,236.6,165.7,234.5z"/>
	<path class="st4" d="M113.4,216.5c0.9,0.8,0.5,1.6,0,2.4c-1.3,2.1-2.5,4.3-3.4,6.6c-0.5,1.2-0.9,2.4-1.3,3.6
		c-0.4,1.2-0.6,2.3,0,3.6c0.7,1.7,0.2,3.4-1,4.9c-0.3,0.4-0.7,0.9-1,1.3c-0.6,0.9-1.6,0.8-2.5,0.6c-1.8-0.4-3.2-1.5-4.2-3
		c-1.7-2.4-2.6-5.2-2.6-8.2c0-2.9,0.1-5.9-0.5-8.8c-0.4-2.1-1.4-4-1.7-6.1c-0.2-1.4-0.5-2.7-0.1-4.1c0.2-1,0.8-1.4,1.9-1.6
		c2.9-0.6,6-0.5,8.9-1.2c1.1-0.2,2.1-0.1,3.1,0.1c0.6,0.1,0.9,0.5,1.1,1c0.1,0.8-0.4,1.3-0.9,1.8c-0.9,0.8-1.1,1.8-0.8,3
		c0.4,1.3,1.1,2.4,2.4,3C111.7,215.7,112.6,216.1,113.4,216.5z"/>
	<path class="st3" d="M151.4,82.2c0.4,0.1,0.5,0.4,0.8,0.7c1.5,1.6,3,3.2,5.3,3.4c1.1,0.1,2.1,0.6,3,1.1c1.4,0.7,2.9,0.9,4.5,0.8
		c0.9,0,1.8-0.1,2.8-0.1c0.3,0.8,0.6,1.6,1.6,1.8c0.1,0.9,0.4,1.9,0.4,2.8c0.1,2.2-0.9,3.5-3,4.1c-1.9,0.5-3.8,0.4-5.6-0.3
		c-1.9-0.7-3.6-1.9-5.1-3.1c-2.7-2.3-5.1-4.8-7.4-7.6C150.1,85.1,151.2,84,151.4,82.2z"/>
	<path class="st3" d="M113.4,216.5c-0.9-0.4-1.7-0.7-2.6-1.2c-1.3-0.6-2-1.7-2.4-3c-0.3-1.1-0.1-2.1,0.8-3c0.5-0.5,1-1,0.9-1.8
		c1.3,0,2.6-0.3,3.8-0.6c0.3,2.3,0.3,4.6,0.8,6.9c0.1,0.7,0.3,1.5,0.4,2.2C114.6,216.3,113.9,216.1,113.4,216.5z"/>
	<path class="st3" d="M165.7,234.5c-0.9,2-3.6,3.2-5.6,2.5c-0.8-0.3-1.2-0.9-1.6-1.5c-0.3-0.6-0.7-1-1.4-1.2
		c0.1-0.8,0.3-1.5,0.4-2.3C160,233.7,162.8,234.4,165.7,234.5z"/>
	<path class="st3" d="M134.6,141.2c-0.2,3.1-0.4,6.3-0.6,9.4c-0.1,1.1,0.1,2.2-0.3,3.2c-0.5-1.4-1.1-2.9-1.6-4.3
		c-0.2-0.7-0.2-1.4,0-2C132.6,145.3,133.5,143.2,134.6,141.2z"/>
	<path class="st3" d="M140.1,56.7c0.3,0.3,0.6,0.8,1.1,1c0.2,0.1,0.3,0.3,0.3,0.6c0.2,2.1,0.4,4.2,0.5,6.3c-1.3,0.1-2.7-1.2-2.2-2.5
		C140.4,60.3,139.9,58.5,140.1,56.7z"/>
	<path class="st0" d="M163.7,64.1c0,0.4-0.1,0.8-0.2,1.1c-0.3,0.6-0.7,1.2-1.6,1.2c-0.8-0.1-1-0.7-1.1-1.3c-0.2-0.7-0.4-1.4-0.2-2.1
		c0.2-0.7,0.6-1.3,1.4-1.4c0.8-0.1,1.1,0.4,1.4,1C163.6,63.1,163.7,63.6,163.7,64.1z"/>
	<path class="st0" d="M174.4,64c0,0.4-0.1,0.8-0.2,1.2c-0.3,0.6-0.7,1.2-1.5,1.2c-0.8,0-1-0.7-1.3-1.3c-0.2-0.8-0.4-1.5-0.1-2.3
		c0.2-0.6,0.6-1.1,1.3-1.2c0.7-0.1,1.1,0.4,1.4,0.9C174.3,62.9,174.4,63.4,174.4,64z"/>
</g>
</svg>
