<?xml version="1.0" encoding="utf-8"?>
<!-- Generator: Adobe Illustrator 22.1.0, SVG Export Plug-In . SVG Version: 6.00 Build 0)  -->
<svg version="1.1" id="Capa_1" xmlns="http://www.w3.org/2000/svg" xmlns:xlink="http://www.w3.org/1999/xlink" x="0px" y="0px"
	 viewBox="0 0 283.5 283.5" style="enable-background:new 0 0 283.5 283.5;" xml:space="preserve">
<style type="text/css">
	.st0{fill:#242020;}
	.st1{fill:#00984A;}
	.st2{fill:#87CEE1;}
	.st3{fill:#EE88B6;}
	.st4{fill:#83231F;}
</style>
<g>
	<path class="st0" d="M129.1,109.1c-0.1-0.1-0.3-0.1-0.3-0.3c-1.2-3.5-2.4-7-2-10.8c0.4-3.6,2-6.2,5.7-7.7c3.3-1.3,6.3-3.1,9.5-4.5
		c0.4-0.2,0.7-0.4,1.1-0.3c1.6,2.1,3.5,4,5.4,5.9c2,1.9,4.2,3.7,6.9,4.7c2,0.8,4.1,1,6.2,0.3c1.8-0.6,2.6-1.8,2.6-3.7
		c0-1-0.3-2-0.5-3c0.5-0.2,0.8,0.1,1.2,0.2c3,1.3,5.7,3.2,8.3,5.2c1.2,1,1.5,2.4,1.7,3.9c0.6,4,0.3,8,0,12.1
		c-0.6,7.2-2,14.3-2.9,21.4c-0.7,5.3-0.5,10.5-0.2,15.8c0.2,5,0.6,10.1,0.4,15.1c-0.1,2-0.3,3.9-1,5.7c-0.4,0.2-0.2,1.1-1.1,0.8
		c-1.8-0.7-3.7-0.7-5.5-0.9c-2.7-0.2-5.5,0-8.2-0.2c-4.6-0.4-9.2-0.7-13.8-0.2c-4.8,0.6-9.5,1.3-13.9,3.2c-0.6-0.3-0.4-0.8-0.5-1.2
		c-0.6-6.1-0.2-12.3,0.1-18.4c0.4-6.9,1.1-13.7,1.6-20.5c0.3-3.2,0.1-6.5,0.1-9.7c0-3-0.1-6,0.1-9c0.3,0.3,0.4,0.6,0.5,1
		c0.9,3.5,1.8,7,2.7,10.4c0.7,2.7,1.3,5.5,2.5,8.1c1.7,3.9,3.8,7.7,5.7,11.6c2.4,4.8,4.8,9.7,7.6,14.3c2.1,3.4,5.1,5.1,9,5.5
		c0.7,0.1,1.8,0.2,2.1-0.7c0.2-0.8-0.7-1.2-1.2-1.6c-0.9-0.6-1.8-1.2-2.9-1.9c0.7,0.1,1.1,0.1,1.5,0.1c0.8,0.1,1.6,0.1,2.5,0
		c0.4-0.1,0.8-0.1,0.8-0.5c0.1-0.4-0.3-0.7-0.6-0.8c-0.4-0.2-0.8-0.4-1.2-0.6c-0.3-0.1-0.7-0.2-1.1-0.6c1.4,0,2.6,0,3.7-0.3
		c0.4-0.1,0.9-0.2,1-0.7c0-0.4-0.3-0.7-0.7-0.9c-0.9-0.6-1.9-1-2.9-1.3c-0.7-0.2-1.1-0.5-0.5-1.2c0.3-0.3,0.4-0.7,0.6-1.1
		c0.3-0.9,0.2-1.7-0.7-2.3c-0.8-0.5-1.6-0.5-2.4,0.1c-0.7,0.5-1.1,1.2-1.5,1.9c-0.1,0.2-0.1,0.6-0.6,0.6c-0.1-0.1-0.2-0.2-0.2-0.3
		c-3.1-7.1-6.2-14.3-9.4-21.4c-0.2-0.5-0.3-0.9-0.3-1.4c-0.1-2.3-0.3-4.7-0.4-7c-0.2-4.8-0.7-9.7-0.5-14.5c0-0.6-0.2-0.9-0.7-1
		c-0.9-0.4-1.9-0.5-2.9-0.4C135.9,106.3,132.4,107.5,129.1,109.1z"/>
	<path class="st1" d="M128.6,172c4.4-1.9,9.1-2.7,13.9-3.2c4.6-0.5,9.2-0.2,13.8,0.2c2.7,0.2,5.5,0,8.2,0.2c1.9,0.1,3.8,0.2,5.5,0.9
		c0.9,0.3,0.7-0.6,1.1-0.8c0.2,5.8-0.8,11.4-1.8,17.1c-1.3,7.4-2.9,14.7-5,21.9c-1.1,3.5-2.8,6.7-4.5,9.9
		c-2.7,5.2-5.6,10.3-8.6,15.3c-0.2,0.3-0.3,0.6-0.4,0.9c-0.4,0.3-0.8,0.2-1.3,0.1c-1.1-0.4-2.3-0.8-3.5-0.8c-2.8-0.7-5.4-1.9-7.5-4
		c-0.9-1-0.6-1.9,0.1-2.9c1.3-1.8,2.2-3.8,3.3-5.7c0.1-0.2,0.3-0.4,0.1-0.6c0,0,0.1,0,0.1,0c0,0,0-0.1,0-0.1c0,0-0.1,0.1-0.1,0.1
		c-0.3-0.1-0.5,0.2-0.7,0.3c-2.8,1.7-5.8,3.1-8.7,4.6c-1.4,0.7-2.1,0.5-3-0.8c-0.3-0.5-0.6-1-0.9-1.4c-1.2-2.9-1.8-5.9-2.5-8.9
		c-0.1-0.7-0.1-1.4-0.3-2.1c-0.2-0.7,0-1.1,0.7-1.4c5.7-3.2,11.5-6.3,17.3-9.1c1-0.5,1.9-1,2.9-1.4c0.4-0.2,0.5-0.4,0.4-0.9
		c-0.9-4.2-2.3-8.2-5.2-11.5c-1.4-1.7-2.8-3.4-4.4-5c-1.2-1.2-2.4-2.3-4-3C130.6,178.3,129.1,175.4,128.6,172z"/>
	<path class="st2" d="M145.9,81.6c-1.6-0.5-2.1-1.9-2.7-3.2c-0.3-0.6-0.7-1.1-1.3-1.6c-0.9-0.6-1.6-1.5-2-2.5
		c-1.2-3.4-2.5-6.9-2.8-10.6c-0.1-1.5-0.4-3-0.3-4.5c0-1.4-0.2-2.6-1.4-3.4c-0.3-1.1-0.4-2.2-0.4-3.3c0.1-3.6,0-7.3,0.2-10.9
		c0-0.5,0.2-1-0.5-1.2c-0.3-0.1-0.3-0.5-0.1-0.8c0.7-0.9,1.2-2.1,2.1-2.6c2.5-1.5,4.6-3.7,7.6-4.4c1-0.3,2.1-0.6,3.1-1
		c0.6-0.2,1.2-0.3,1.8,0.1c0.5,0.3,0.8-0.1,1.1-0.3c3.4-2.2,7.8-2.1,11,0.2c1.2,0.9,1.9,2.2,2.8,3.4c1,1.3,2,2.3,3.6,2.8
		c1.3,0.4,2.1,1.2,2,2.7c0,0.6,0.2,1.2,0.4,1.7c0.9,2.5,1.7,5,2.1,7.7c0.3,1.7-0.2,3-1.4,3.6c-1.1,0.1-2-0.3-2.8-1
		c-1.4-1.1-2.5-2.4-3.5-3.8c-0.3-0.4-0.4-1.2-1-0.9c-0.5,0.3,0,0.9,0.1,1.3c0.2,0.7-0.1,0.9-0.7,0.8c-0.3-0.1-0.6-0.2-0.9-0.3
		c-3-1-6-2-9-2.9c-0.3-0.1-0.7-0.3-0.8-0.1c-0.7,1.3-1.2,0.3-1.7-0.1c-2.2-1.7-4.5-2.9-7.3-3.4c-0.7-0.1-0.9,0.1-1,0.8
		c-0.1,2.4-0.3,4.9-0.4,7.3c-0.1,1.6-0.3,3.2-0.3,4.8c-0.1,2-0.2,4.1,0.1,6.1c0.3,1.6,0.8,3.2,1,4.8c0.3,2.1,1.4,3.5,3.2,4.4
		c2.9,1.5,6.1,1.8,9.3,1.8c1.6,0,1.9-0.2,2.4-1.7c0.3-0.8,0.8-1.3,1.7-1.3c2.3,0.1,4.6,0.2,6.9,0.2c0.8,0,1.4,0.3,1.7,1.1
		c0.8,1.7,1.1,1.8,3,1.6c-0.3,3.8-1.1,7.5-2.7,11c-1.2,2.5-3.1,4-6,3.8c-1,0-1.9,0-2.9,0c-1.5,0.1-3-0.2-4.3-0.9
		c-1.1-0.6-2.1-1.1-3.3-1.3c-1.4-0.2-2.4-0.9-3.5-1.8C147.4,83.3,146.8,82.2,145.9,81.6z"/>
	<path class="st3" d="M170.9,73.2c-1.9,0.2-2.2,0.1-3-1.6c-0.4-0.7-1-1.1-1.7-1.1c-2.3-0.1-4.6-0.1-6.9-0.2c-1,0-1.4,0.4-1.7,1.3
		c-0.5,1.5-0.8,1.7-2.4,1.7c-3.2,0-6.4-0.3-9.3-1.8c-1.8-0.9-3-2.3-3.2-4.4c-0.2-1.6-0.7-3.2-1-4.8c-0.4-2-0.2-4.1-0.1-6.1
		c0-1.6,0.2-3.2,0.3-4.8c0.2-2.4,0.3-4.9,0.4-7.3c0-0.7,0.3-0.9,1-0.8c2.7,0.4,5.1,1.7,7.3,3.4c0.5,0.4,1,1.4,1.7,0.1
		c0.1-0.3,0.5,0,0.8,0.1c3,1,6,2,9,2.9c0.3,0.1,0.6,0.2,0.9,0.3c0.7,0.1,0.9,0,0.7-0.8c-0.1-0.4-0.6-1.1-0.1-1.3
		c0.5-0.3,0.7,0.5,1,0.9c1,1.4,2.1,2.8,3.5,3.8c0.8,0.6,1.8,1,2.8,1c0.2,3.9,0.5,7.8,0.5,11.6C171.3,67.8,171.3,70.5,170.9,73.2z
		 M158.7,63.8c0-0.5,0-0.9-0.2-1.4c-0.3-0.7-0.6-1.3-1.5-1.2c-0.8,0.1-1.2,0.7-1.4,1.5c-0.2,0.7,0,1.4,0.2,2
		c0.2,0.6,0.3,1.3,1.1,1.3c0.8,0.1,1.2-0.5,1.5-1.1C158.7,64.7,158.8,64.3,158.7,63.8z M166.2,63.6c0,0.6,0.1,1.2,0.4,1.8
		c0.5,1.1,1.4,1.3,2.2,0.3c0.8-0.9,0.8-2.3,0.2-3.4c-0.3-0.5-0.6-0.9-1.2-0.8c-0.6,0.1-1,0.4-1.3,1
		C166.3,62.8,166.2,63.2,166.2,63.6z"/>
	<path class="st3" d="M129.1,109.1c3.3-1.7,6.8-2.8,10.4-3.1c1-0.1,2,0.1,2.9,0.4c0.5,0.2,0.7,0.5,0.7,1c-0.2,4.9,0.3,9.7,0.5,14.5
		c0.1,2.3,0.2,4.7,0.4,7c0,0.5,0.1,1,0.3,1.4c3.1,7.1,6.2,14.3,9.4,21.4c0.1,0.1,0.1,0.2,0.2,0.3c0.4,0,0.4-0.4,0.6-0.6
		c0.4-0.7,0.9-1.4,1.5-1.9c0.8-0.6,1.6-0.7,2.4-0.1c0.9,0.5,1,1.4,0.7,2.3c-0.1,0.4-0.3,0.8-0.6,1.1c-0.7,0.8-0.3,1,0.5,1.2
		c1,0.3,2,0.7,2.9,1.3c0.3,0.2,0.7,0.5,0.7,0.9c-0.1,0.5-0.6,0.6-1,0.7c-1.2,0.3-2.3,0.3-3.7,0.3c0.4,0.4,0.8,0.4,1.1,0.6
		c0.4,0.2,0.8,0.4,1.2,0.6c0.3,0.2,0.6,0.4,0.6,0.8c-0.1,0.4-0.5,0.5-0.8,0.5c-0.8,0.1-1.6,0.1-2.5,0c-0.4,0-0.8-0.1-1.5-0.1
		c1.1,0.7,2,1.3,2.9,1.9c0.6,0.4,1.5,0.8,1.2,1.6c-0.3,0.9-1.3,0.8-2.1,0.7c-3.9-0.4-7-2.1-9-5.5c-2.8-4.6-5.2-9.5-7.6-14.3
		c-1.9-3.8-3.9-7.6-5.7-11.6c-1.2-2.6-1.8-5.4-2.5-8.1c-0.9-3.5-1.8-7-2.7-10.4c-0.1-0.4-0.2-0.7-0.5-1
		C130,111.8,129.4,110.5,129.1,109.1z"/>
	<path class="st4" d="M146,233.6c1.2,0,2.4,0.4,3.5,0.8c0.5,0.2,0.9,0.2,1.3-0.1c2.5,3,5.3,5.8,8.5,8.1c0.5,0.4,1,0.5,1.6,0.5
		c2.5-0.1,4.4,1.1,5.6,3.3c0.5,0.9,1.3,1.6,0.8,2.8c-0.3,0.6-0.6,1.2-1.1,1.8c-1.2,1.4-2.8,2.1-4.5,2.5c-3.1,0.7-6,0.5-8.9-0.8
		c-4.2-1.8-8.6-3-13.2-3c-1.9,0-3.8-0.5-5.5-1.4c-1.5-0.8-1.6-1.3-1.4-3c0.4-3.2,1.7-6.2,2.1-9.3c0.1-1,0.7-1.9,1.2-2.8
		c0.4-0.6,0.9-0.8,1.6-0.8c0.6,0.3,1,0.8,1.2,1.3c0.3,0.6,0.6,1.2,1.2,1.6C141.9,236.3,145,235.5,146,233.6z"/>
	<path class="st4" d="M126.9,223.4c0.8,0.7,0.6,1.4,0.2,2.2c-1.3,2.2-2.4,4.5-3.4,6.9c-0.7,1.7-1.2,3.4-1.6,5.2
		c-0.1,0.5,0,0.8,0.2,1.2c1,2.2,0.7,4.3-0.9,6.2c-0.5,0.6-0.7,1.5-1.8,1.6c-1.2,0.1-2.3-0.1-3.3-0.8c-3.3-2.2-4.7-5.4-5.1-9.2
		c-0.3-2.6,0-5.3-0.4-7.9c-0.2-1.5-0.5-2.9-1.1-4.3c-0.7-1.8-1.2-3.7-1.4-5.7c-0.1-0.9-0.1-1.8,0.3-2.7c0.3-0.7,0.8-1,1.5-1.1
		c2.9-0.7,5.9-0.8,8.8-1.3c1.1-0.2,2.2-0.3,3.2-0.1c0.7,0.1,1.1,0.5,1.3,1.1c0.1,0.7-0.3,1.2-0.8,1.7c-1,0.9-1.1,2-0.7,3.3
		c0.4,1.2,1.1,2.1,2.2,2.6C125.1,222.6,126,223,126.9,223.4z"/>
	<path class="st3" d="M145.9,81.6c1,0.7,1.6,1.7,2.5,2.5c1,0.9,2.1,1.5,3.5,1.8c1.2,0.2,2.2,0.7,3.3,1.3c1.3,0.7,2.8,1,4.3,0.9
		c1-0.1,1.9-0.1,2.9,0c0.2,0.8,0.8,1.4,1.4,1.8c0.3,1,0.5,2,0.5,3c0,1.8-0.8,3.1-2.6,3.7c-2.1,0.7-4.1,0.6-6.2-0.3
		c-2.6-1.1-4.8-2.8-6.9-4.7c-1.9-1.8-3.8-3.8-5.4-5.9C144.7,84.7,145.7,83.4,145.9,81.6z"/>
	<path class="st3" d="M126.9,223.4c-0.9-0.4-1.8-0.7-2.7-1.2c-1.1-0.5-1.8-1.5-2.2-2.6c-0.5-1.2-0.3-2.3,0.7-3.3
		c0.5-0.5,0.9-1,0.8-1.7c1-0.2,1.9-0.3,2.9-0.5c0.6,3,1.3,6,2.5,8.9C128.1,223.2,127.4,222.9,126.9,223.4z"/>
	<path class="st3" d="M146,233.6c-1.1,1.9-4.1,2.7-5.9,1.6c-0.6-0.4-1-1-1.2-1.6c-0.3-0.6-0.6-1.1-1.2-1.3c0.3-0.9,0.6-1.8,0.8-2.6
		C140.6,231.7,143.2,232.9,146,233.6z"/>
	<path class="st3" d="M135.3,55.8c1.2,0.8,1.5,2,1.4,3.4c0,1.5,0.2,3,0.3,4.5c-1.3,0-2.6-1.3-2.2-2.5
		C135.5,59.4,135.2,57.6,135.3,55.8z"/>
	<path class="st0" d="M158.7,63.8c0,0.4-0.1,0.9-0.3,1.2c-0.3,0.6-0.7,1.1-1.5,1.1c-0.8-0.1-1-0.7-1.1-1.3c-0.2-0.7-0.3-1.3-0.2-2
		c0.2-0.8,0.6-1.4,1.4-1.5c0.9-0.1,1.2,0.5,1.5,1.2C158.7,62.9,158.7,63.4,158.7,63.8z"/>
	<path class="st0" d="M166.2,63.6c0-0.4,0-0.8,0.2-1.2c0.3-0.5,0.7-0.9,1.3-1c0.6-0.1,1,0.4,1.2,0.8c0.7,1.1,0.6,2.5-0.2,3.4
		c-0.8,0.9-1.7,0.8-2.2-0.3C166.3,64.8,166.2,64.2,166.2,63.6z"/>
</g>
</svg>
