<?xml version="1.0" encoding="utf-8"?>
<!-- Generator: Adobe Illustrator 22.1.0, SVG Export Plug-In . SVG Version: 6.00 Build 0)  -->
<svg version="1.1" id="Capa_1" xmlns="http://www.w3.org/2000/svg" xmlns:xlink="http://www.w3.org/1999/xlink" x="0px" y="0px"
	 viewBox="0 0 283.5 283.5" style="enable-background:new 0 0 283.5 283.5;" xml:space="preserve">
<style type="text/css">
	.st0{fill:#F195BE;}
	.st1{fill:#852320;}
	.st2{fill:#0A813C;}
	.st3{fill:#04994B;}
	.st4{fill:#1F1919;}
	.st5{fill:#88CFE2;}
	.st6{fill:#020203;}
</style>
<g>
	<path class="st0" d="M154.6,213.3c-1.4-1-2.9-1.1-5.2-1.2c-1,0-2.2-0.1-3.5,0.4c-0.3,0.1-0.5,0.2-0.9,0.5c-0.7,1.4-1.6,4.1-1.4,5.7
		c0.4,3.3,8.6,0.5,9.7-0.7c0.9-0.9-0.9-0.2-0.1-1.8C152.8,216.5,154,214.3,154.6,213.3z"/>
	<path class="st1" d="M169.1,228.7c-1.4-3.2-3.9-3.6-5.8-3.3c-3.5-2.1-7.2-6-8.9-8.2c-2.7-3.5-2.6,2.6-7.4,2.1
		c-2.6-0.3-1.9-2.5-3.2-2.8s-1.7,1.1-1.7,1.1c-0.8,1-0.8,2.9-0.8,2.9l-1.4,5.1c0,0.7-0.2,2.2-0.4,2.6c-0.3,0.4,0,2.2,5,2.9
		s2.9-0.4,7.8,0.9c4.9,1.3,6.6,3.2,11.8,2.3C169.3,233.3,170.5,229.2,169.1,228.7z M140.8,225.9c0.1,0.2,0.2,0.3,0.4,0.5
		C141,226.2,140.9,226.1,140.8,225.9z"/>
</g>
<path class="st2" d="M143.5,212.9c3.9,0.8,7.7,3.1,11.3,2.2c11.5-40.2,3.5-56.6,3.5-56.6l-9.6,1.3
	C153.2,167.9,145.3,205,143.5,212.9z"/>
<path class="st0" d="M134.2,200.3c-1-0.6-1.2,0.5-1.8,0c-1.8-1.8-2.9-3.4-4.1-5.6h-0.1c-0.1,0-0.2-0.1-0.3-0.2
	c-5.4,3.3-11.1,4.8-11.1,4.8s3.1,2.5,8.5,5C125.3,204.3,130.6,202.9,134.2,200.3z"/>
<path class="st1" d="M126,223.9c1.8-2.8,0.7-5-0.5-6.3c-0.2-3.9,0.8-8.9,1.7-11.4c1.3-4-3.4-0.7-5.5-4.7c-1.2-2.2,0.9-2.8,0.5-4
	c-0.5-1.2-1.8-0.7-1.8-0.7c-1.2-0.1-2.7,0.9-2.7,0.9l-4.7,1.6c-0.5,0.4-1.8,1-2.3,1s-1.7,1.2,0.4,5.4s1.8,2.1,3.4,6.6
	s1,6.9,4.5,10.5C122.5,226.6,126.3,225.3,126,223.9z M113.1,200.3c-0.1,0.2-0.1,0.4-0.2,0.5C112.9,200.6,113,200.4,113.1,200.3z"/>
<path class="st3" d="M126.1,194.4c0,0,1.4,10.4,4.5,12.2c0,0,28.1-16.9,29-41.8c0,0-19.1-7.2-29-4.5c-10,2.7-7.3,6.3-7.3,6.3
	s3.7,9.1,12.3,9.6C135.6,176.2,142,185.8,126.1,194.4z"/>
<path class="st0" d="M152,86.6c0.5-3.2,2.4-6.2,2.4-9.3c-1.4,0.6-2.6,1.9-3.7,2.8c-1.7,1.4-3.4,2.7-5.2,4.1c-1.7,1.4-0.4-3.2-2.2-2
	c-1.1,0.7-4-1.9-5.2-1.3c-0.3,8.5,0.1,9.7-3,11.3c-0.9,2.8-4.4,7.4-5.6,10.1c5.1,3,26.3,8.4,26.9-4.8C150,95.3,151.3,91,152,86.6z"
	/>
<path class="st4" d="M161.5,100.3c-4.1-3.3-8.2-4.9-8.2-4.8c-0.2,0.4,2.6,5.7-3.6,6.3c-6.2,0.6-12.9-8.3-14.4-9.7c0,0-8.1,3.6-9.6,5
	c-2.9,5.8-0.7,10.6-1.2,16.9c-0.5,5.7,0.1,11.1,0,18.2c-1,10.5-2.2,28.9-1.1,34.6c2.4-0.6,2-1.1,7.1-2.1c4.8-0.9,10.1-1.4,14.9-0.9
	c3.6,0.4,11.7-0.3,14.3,1.1c0-5.2-0.5-20.4,1-33.1C161.2,127.1,165.6,103.6,161.5,100.3z"/>
<path class="st0" d="M122.6,109.5l0.1,0.9c0,0,4.3,22.3,5.2,22.7c1.8,1.4,2.5,1,4.5,0.2c0.5-0.2,2-1.3,2.5-1.7
	c0.2-4.2-0.2-16.7,0.2-20.6C135.9,105.4,122.6,109.5,122.6,109.5z"/>
<path class="st0" d="M151.3,147.1c0,0,1.6-2.8-0.3-3.6c-2.5-1.1-3.2,3.4-3.2,3.4l-13.9-18.5c-2.3-1.1-5.6,2.2-5.8,4.9
	c0,0,0,0.1,0.1,0.1c2.9,3.5,15.7,19.6,18.6,21.1c4.5,2.5,8.7,1.2,8.5,0.2s-4.7-2.1-4.7-2.1s4.7-0.3,4.4-1.3c-0.2-1-3.9-0.9-3.9-0.9
	s5-1,4.8-2C155.6,147.3,151.3,147.1,151.3,147.1z"/>
<path class="st4" d="M127.6,96.1c-4.4,0.8-5.8,4-6.1,7.6c0.1,2.5,0.5,5.3,1.5,8.4c0,0,9.9-4.2,12.7-1.1c1.5,1.7,1.8-4.7,0.1-11
	C133.9,97.4,130.8,95.6,127.6,96.1z"/>
<path class="st0" d="M160.6,69.9c1.1-5.8-0.7-3.5-0.6-6.7c0.1-2.5,0.3-7.7-1.7-9.3c-2-1.5-4.5-2.3-7-2.8c-4.2-0.8-8.5-0.8-12.6,0.3
	c-2.4,0.6-5,1.7-6.3,3.9c-0.8,1.4-1.1,3-1.4,4.6c-1.2,7.9-2.7,14.6-2.2,22.6c0.1,2,0.6,5.3,1.8,6.9c1.7,2.1,4.6,2.7,7.3,3
	c1.6-0.6,3.1-1.7,4.5-2.6c1.9-1.2,3.7-2.7,5.6-4.1c1.8-1.3,3.6-2.6,5.4-4c0.8-0.7,1.8-1.4,2.8-1.8c0-0.3,0-0.6-0.1-0.8
	c1,0.1,1.6-1.1,1.6-2c0.1-1,0-2,0.6-2.8c0.4-0.5,1.1,0.2,1.5-0.3C161.7,71.8,160.2,71.6,160.6,69.9z"/>
<path class="st5" d="M137.7,58.1c-0.1,0.5-0.3,0.9-0.6,1.3c-0.1,0.2,0.1,0.5,0.3,0.4c3.2-0.7,6.5-1.3,9.7-2c0.2,0,0.4,0.2,0.3,0.4
	l0,0c-0.1,0.3,0.2,0.5,0.5,0.3c2.2-1.7,5-2.7,7.8-2.8c0.2,0,0.3,0.1,0.3,0.3c-0.2,3.5-0.3,7-0.5,10.6c-0.1,2.1-0.2,4.1-0.8,6.1
	c-0.6,2.1-1.7,4.1-1.5,6.2c0,0.1,0.1,0.2,0.2,0.2c1.4,0.7,2.9-1.1,3.5-2.6c1-2.6,1.7-5.4,2.1-8.1c0-0.2,0.2-0.3,0.3-0.2
	c1.3,0.1,2-1.7,2.2-3.1c0.3-3.5,0.6-7,0.9-10.6c0-0.2,0.2-0.3,0.4-0.2l0,0c0.3,0.1,0.5-0.2,0.4-0.4c-0.5-0.8-0.8-1.5-1.4-2.4
	c-0.2-0.3-0.5-0.7-0.9-0.7c-0.4,0.1-0.2,0.9,0.1,0.6c-1.5-3-4.9-4.6-8.1-5.9c-0.5-0.2-1-0.4-1.5-0.1c-0.4,0.2-0.4,1.1,0.1,1.1
	c-2.5-3.7-8.4-4.4-11.7-1.4c-1.4,1.3-2.4,3.1-4.1,3.7c-0.9,0.3-2.1,0.3-2.6,1.1c-0.2,0.4-0.3,0.9-0.4,1.3c-0.2,0.7-0.5,1.3-0.8,1.9
	c-0.8,1.6-3.8,8-1.5,9c2,0.8,5.1-2.2,6.6-4.3C137.4,57.6,137.8,57.8,137.7,58.1z"/>
<path class="st5" d="M158.8,73.5c-0.4,2.1-1,4.1-1.9,6s-1.5,4.3-3.4,5.3c-1.4,0.8-1.7,2.1-2.8,3.3c-0.3,0.4-1.3,0.1-1.6,0.5
	c-0.8,1.1-1.9,1.8-3,2.6c-1,0.7-3.5,0.5-4.6,1.1c-0.2,0.1-0.4,0.3-0.7,0.4c-0.7,0.2-1.5,0-2.1,0.2c-0.5,0.1-1,0.2-1.5,0
	c-1.4-0.5-3.8-0.1-5.3-1.3c-0.8-0.7-1.6-1.9-1.9-2.9c-1-3.2-1.3-6.3-1.3-9.7c0.7,0.6,1.9,0.4,2.4-0.4c0.3-0.4,0.4-0.8,0.7-1.1
	c0.4-0.3,0.9-0.3,1.4-0.2c1.9,0.1,3.7,0.2,5.6,0.4c0.4,0,0.9,0.1,1.2,0.4c0.5,0.5,0.3,1.5,0.8,2.1c0.3,0.3,0.6,0.3,1,0.4
	c2.2,0.4,4.4,0.4,6.5,0c1.1-0.2,2.1-0.4,3-1c1.8-1.1,2.8-3.3,3.4-5.3c1.2-3.7,2-7.6,2.3-11.5c0.1-0.7,0.7-2.9,1.8-1.7
	c0.6,0.6,0.6,2.9,0.7,3.7C159.9,67.7,159.4,70.6,158.8,73.5z"/>
<path class="st6" d="M141.9,74.1c0.2-0.1,0.3-0.3,0.4-0.6c0.4-0.9,0.8-2.2-0.1-3c-1.2-1.1-2.1,0.8-2.2,1.8
	C140,73.4,141.1,74.8,141.9,74.1z"/>
<path class="st6" d="M132.8,73.2c0.2-0.1,0.3-0.3,0.4-0.6c0.4-0.9,0.8-2.2-0.1-3c-1.2-1.1-2.1,0.8-2.2,1.8
	C130.8,72.6,131.9,74,132.8,73.2z"/>
</svg>
