<?xml version="1.0" encoding="utf-8"?>
<!-- Generator: Adobe Illustrator 22.1.0, SVG Export Plug-In . SVG Version: 6.00 Build 0)  -->
<svg version="1.1" id="Capa_1" xmlns="http://www.w3.org/2000/svg" xmlns:xlink="http://www.w3.org/1999/xlink" x="0px" y="0px"
	 viewBox="0 0 283.5 283.5" style="enable-background:new 0 0 283.5 283.5;" xml:space="preserve">
<style type="text/css">
	.st0{fill:#F195BE;}
	.st1{fill:#852320;}
	.st2{fill:#0A813C;}
	.st3{fill:#1F1919;}
	.st4{fill:#04994B;}
	.st5{fill:#88CFE2;}
	.st6{fill:#020203;}
</style>
<g>
	<path class="st0" d="M146,215.2c-1.5-0.9-3-0.7-5.3-0.5c-1,0.1-1.6-2.9-2.8-2.2c-0.3,0.1-1.1,3.4-1.4,3.7c-0.5,1.5-1.1,4.3-0.7,5.9
		c0.7,3.2,8.6-0.6,9.6-1.8c0.8-1-0.9-0.1-0.3-1.7C144.6,218.6,145.5,216.3,146,215.2z"/>
	<path class="st1" d="M162.3,228.7c-1.8-3-4.3-3.1-6.2-2.6c-3.8-1.7-7.9-5.1-9.8-7.1c-3.1-3.2-2.3,2.9-7.1,2.9
		c-2.6,0-2.2-2.3-3.5-2.4c-1.3-0.1-1.5,1.3-1.5,1.3c-0.7,1.1-0.5,2.9-0.5,2.9l-0.7,5.2c0.1,0.7,0.1,2.2-0.1,2.6
		c-0.2,0.4,0.3,2.2,5.3,2.3s2.8-0.7,7.8,0s7,2.4,12,0.9C163,233.3,163.7,229.1,162.3,228.7z M133.8,229.4c0.1,0.2,0.3,0.3,0.4,0.4
		C134,229.7,133.9,229.5,133.8,229.4z"/>
</g>
<path class="st2" d="M137,213.9c3.9,1.1,7.5,3.7,11.1,3.1c14.7-39.1,8-56.2,8-56.2l-9.7,0.5C150.2,169.8,139.4,206.1,137,213.9z"/>
<path class="st0" d="M134.5,200.3c-1-0.6-1.2,0.5-1.8,0c-1.8-1.8-2.9-3.4-4.1-5.6h-0.1c-0.1,0-0.2-0.1-0.3-0.2
	c-5.4,3.3-11.1,4.8-11.1,4.8s3.1,2.5,8.5,5C125.6,204.3,130.9,202.9,134.5,200.3z"/>
<path class="st0" d="M152.3,86.6c0.5-3.2,2.4-6.2,2.4-9.3c-1.4,0.6-2.6,1.9-3.7,2.8c-1.7,1.4-3.4,2.7-5.2,4.1
	c-1.7,1.4-0.4-3.2-2.2-2c-1.1,0.7-4-1.9-5.2-1.3c-0.3,8.5,0.1,9.7-3,11.3c-0.9,2.8-4.4,7.4-5.6,10.1c5.1,3,26.1,8,26.7-5.2
	C150.1,94.9,151.6,91,152.3,86.6z"/>
<path class="st1" d="M126.3,223.9c1.8-2.8,0.7-5-0.5-6.3c-0.2-3.9,0.8-8.9,1.7-11.4c1.3-4-3.4-0.7-5.5-4.7c-1.2-2.2,0.9-2.8,0.5-4
	c-0.5-1.2-1.8-0.7-1.8-0.7c-1.2-0.1-2.7,0.9-2.7,0.9l-4.7,1.6c-0.5,0.4-1.8,1-2.3,1s-1.7,1.2,0.4,5.4s1.8,2.1,3.4,6.6
	s1,6.9,4.5,10.5C122.8,226.6,126.6,225.3,126.3,223.9z M113.4,200.3c-0.1,0.2-0.1,0.4-0.2,0.5C113.2,200.6,113.3,200.4,113.4,200.3z
	"/>
<path class="st3" d="M161.8,100.3c-4.1-3.3-8.2-4.9-8.2-4.8c-0.2,0.4,2.6,5.7-3.6,6.3c-6.2,0.6-12.9-8.3-14.4-9.7
	c0,0-7.9,2.3-9.4,3.7c-2.9,5.8-0.9,11.9-1.4,18.2c-0.5,5.7,0.1,11.1,0,18.2c-1,10.5-2.2,28.9-1.1,34.6c2.4-0.6,2-1.1,7.1-2.1
	c4.8-0.9,10.1-1.4,14.9-0.9c3.6,0.4,11.7-0.3,14.3,1.1c0.1-5.7-0.5-20.4,1-33.1C161.5,127.1,166,103.6,161.8,100.3z"/>
<path class="st0" d="M123,106.6l-0.1,0.9c0,0-0.3,22.7,0.5,23.3c1.5,1.7,2.2,1.5,4.4,1.1c0.5-0.1,2.2-0.9,2.8-1.1
	c1-4.1,3.2-16.4,4.4-20.1C136.8,105.3,123,106.6,123,106.6z"/>
<path class="st0" d="M143.5,149.2c0,0,2.1-2.4,0.4-3.6c-2.3-1.6-3.8,2.7-3.8,2.7l-9.9-21c-2-1.6-6,1-6.7,3.6v0.1
	c2.1,4.1,11.4,22.4,13.9,24.5c3.9,3.3,8.3,2.9,8.3,1.9s-4.2-3-4.2-3s4.6,0.6,4.6-0.4s-3.6-1.7-3.6-1.7s5.1,0.1,5.1-1
	C147.6,150.3,143.5,149.2,143.5,149.2z"/>
<path class="st3" d="M130.5,94.5c-4.4-0.1-6.5,2.7-7.5,6.2c-0.4,2.4-0.6,5.3-0.2,8.6c0,0,10.6-2.1,12.6,1.5c1.1,2,2.7-4.2,2.3-10.7
	C136.5,97,133.8,94.6,130.5,94.5z"/>
<path class="st4" d="M126.1,195.5c0,0,1.7,9.3,4.8,11.1c0,0,28.1-16.9,29-41.8c0,0-18.2-6.7-28.1-4s-8.2,5.8-8.2,5.8s6.4,7.3,15,7.7
	C138.7,174.4,146.4,186.3,126.1,195.5z"/>
<path class="st0" d="M161.5,69.9c1.1-5.8-0.7-3.5-0.6-6.7c0.1-2.5,0.3-7.7-1.7-9.3c-2-1.5-4.5-2.3-7-2.8c-4.2-0.8-8.5-0.8-12.6,0.3
	c-2.4,0.6-5,1.7-6.3,3.9c-0.8,1.4-1.1,3-1.4,4.6c-1.2,7.9-2.7,14.6-2.2,22.6c0.1,2,0.6,5.3,1.8,6.9c1.7,2.1,4.6,2.7,7.3,3
	c1.6-0.6,3.1-1.7,4.5-2.6c1.9-1.2,3.7-2.7,5.6-4.1c1.8-1.3,3.6-2.6,5.4-4c0.8-0.7,1.8-1.4,2.8-1.8c0-0.3,0-0.6-0.1-0.8
	c1,0.1,1.6-1.1,1.6-2c0.1-1,0-2,0.6-2.8c0.4-0.5,1.1,0.2,1.5-0.3C162.7,71.8,161.2,71.6,161.5,69.9z"/>
<path class="st5" d="M138.7,58.1c-0.1,0.5-0.3,0.9-0.6,1.3c-0.1,0.2,0.1,0.5,0.3,0.4c3.2-0.7,6.5-1.3,9.7-2c0.2,0,0.4,0.2,0.3,0.4
	l0,0c-0.1,0.3,0.2,0.5,0.5,0.3c2.2-1.7,5-2.7,7.8-2.8c0.2,0,0.3,0.1,0.3,0.3c-0.2,3.5-0.3,7-0.5,10.6c-0.1,2.1-0.2,4.1-0.8,6.1
	c-0.6,2.1-1.7,4.1-1.5,6.2c0,0.1,0.1,0.2,0.2,0.2c1.4,0.7,2.9-1.1,3.5-2.6c1-2.6,1.7-5.4,2.1-8.1c0-0.2,0.2-0.3,0.3-0.2
	c1.3,0.1,2-1.7,2.2-3.1c0.3-3.5,0.6-7,0.9-10.6c0-0.2,0.2-0.3,0.4-0.2l0,0c0.3,0.1,0.5-0.2,0.4-0.4c-0.5-0.8-0.8-1.5-1.4-2.4
	c-0.2-0.3-0.5-0.7-0.9-0.7c-0.4,0.1-0.2,0.9,0.1,0.6c-1.5-3-4.9-4.6-8.1-5.9c-0.5-0.2-1-0.4-1.5-0.1c-0.4,0.2-0.4,1.1,0.1,1.1
	c-2.5-3.7-8.4-4.4-11.7-1.4c-1.4,1.3-2.4,3.1-4.1,3.7c-0.9,0.3-2.1,0.3-2.6,1.1c-0.2,0.4-0.3,0.9-0.4,1.3c-0.2,0.7-0.5,1.3-0.8,1.9
	c-0.8,1.6-3.8,8-1.5,9c2,0.8,5.1-2.2,6.6-4.3C138.3,57.6,138.7,57.8,138.7,58.1z"/>
<path class="st5" d="M159.7,73.5c-0.4,2.1-1,4.1-1.9,6s-1.5,4.3-3.4,5.3c-1.4,0.8-1.7,2.1-2.8,3.3c-0.3,0.4-1.3,0.1-1.6,0.5
	c-0.8,1.1-1.9,1.8-3,2.6c-1,0.7-3.5,0.5-4.6,1.1c-0.2,0.1-0.4,0.3-0.7,0.4c-0.7,0.2-1.5,0-2.1,0.2c-0.5,0.1-1,0.2-1.5,0
	c-1.4-0.5-3.8-0.1-5.3-1.3c-0.8-0.7-1.6-1.9-1.9-2.9c-1-3.2-1.3-6.3-1.3-9.7c0.7,0.6,1.9,0.4,2.4-0.4c0.3-0.4,0.4-0.8,0.7-1.1
	c0.4-0.3,0.9-0.3,1.4-0.2c1.9,0.1,3.7,0.2,5.6,0.4c0.4,0,0.9,0.1,1.2,0.4c0.5,0.5,0.3,1.5,0.8,2.1c0.3,0.3,0.6,0.3,1,0.4
	c2.2,0.4,4.4,0.4,6.5,0c1.1-0.2,2.1-0.4,3-1c1.8-1.1,2.8-3.3,3.4-5.3c1.2-3.7,2-7.6,2.3-11.5c0.1-0.7,0.7-2.9,1.8-1.7
	c0.6,0.6,0.6,2.9,0.7,3.7C160.8,67.7,160.4,70.6,159.7,73.5z"/>
<path class="st6" d="M142.9,74.1c0.2-0.1,0.3-0.3,0.4-0.6c0.4-0.9,0.8-2.2-0.1-3c-1.2-1.1-2.1,0.8-2.2,1.8
	C140.9,73.4,142,74.8,142.9,74.1z"/>
<path class="st6" d="M133.7,73.2c0.2-0.1,0.3-0.3,0.4-0.6c0.4-0.9,0.8-2.2-0.1-3c-1.2-1.1-2.1,0.8-2.2,1.8
	C131.8,72.6,132.9,74,133.7,73.2z"/>
</svg>
