<?xml version="1.0" encoding="utf-8"?>
<!-- Generator: Adobe Illustrator 22.1.0, SVG Export Plug-In . SVG Version: 6.00 Build 0)  -->
<svg version="1.1" id="Capa_1" xmlns="http://www.w3.org/2000/svg" xmlns:xlink="http://www.w3.org/1999/xlink" x="0px" y="0px"
	 viewBox="0 0 283.5 283.5" style="enable-background:new 0 0 283.5 283.5;" xml:space="preserve">
<style type="text/css">
	.st0{fill:#241F20;}
	.st1{fill:#00984A;}
	.st2{fill:#87CEE1;}
	.st3{fill:#83231F;}
	.st4{fill:#EE88B6;}
</style>
<g>
	<path class="st0" d="M124.6,171.4c-0.8,0.3-1.6,0.5-2.4,0.8c-0.7,0.3-0.9,0-0.9-0.6c-0.3-3.1-0.4-6.2-0.3-9.3
		c0.1-2.3,0.1-4.7,0.2-7c0.4,0,0.3,0.2,0.3,0.5c0.1,1,0.3,2,0.4,2.9c0.5,4.3,2.5,7.5,6.3,9.6c0.6,0.3,1.2,0.5,1.9,0.6
		c0.8,0,1-0.4,0.8-1.1c-0.3-0.9-0.9-1.7-1.6-2.5c-0.3-0.3-0.6-0.6-0.7-1.2c1.1,0.4,2,0.8,3,1.1c0.4,0.1,1,0.4,1.3-0.1
		c0.3-0.5-0.1-0.9-0.4-1.2c-0.5-0.6-1-1.1-1.6-1.7c1.3,0.4,2.4,0.9,3.7,1.1c0.4,0,0.8,0.1,1-0.3c0.3-0.4,0-0.7-0.2-1
		c-0.5-0.8-1.2-1.5-1.9-2.1c-1.1-0.9-1.1-0.9,0-1.9c0.3-0.3,0.6-0.6,0.9-0.9c0.4-0.6,0.4-1.2,0-1.9c-0.4-0.7-1-1.1-1.8-1
		c-0.8,0.1-1.5,0.5-2.1,0.9c-0.4,0.3-0.7,0.7-1.3,0.9c0-0.2,0-0.4,0-0.6c-0.3-6.9-0.6-13.8-1-20.7c-0.1-2.2,0-4.3,0.6-6.4
		c0.4-1.4,0.7-2.9,1.1-4.3c1.1-4.4,2.1-8.9,3.5-13.2c0.6-1.9,0.5-2.1-1.2-2.9c-0.5-0.2-1-0.4-1.5-0.5c-3.6-0.7-7.2-0.6-10.8,0
		c-0.5-0.8-0.3-1.8-0.3-2.7c0-1.8,0.1-3.7,0.4-5.5c0.7-3.8,2.4-6.7,6.1-8.4c3.1-1.5,6.1-3.1,9.3-4.5c0.4-0.2,0.7-0.4,1.1-0.3
		c0.7,0.8,1.4,1.7,2.1,2.5c2.6,2.9,5.3,5.6,8.8,7.5c2.2,1.2,4.5,1.8,7,1.1c2.4-0.6,3.4-2.2,3.1-4.6c-0.1-0.7-0.3-1.5-0.4-2.2
		c0.7,0,1.3,0.4,1.9,0.7c2.7,1.3,5.1,2.9,7.4,4.8c1.3,1,1.6,2.5,1.8,4c0.6,4,0.3,8,0,11.9c-0.6,6.6-1.7,13.1-2.7,19.6
		c-0.9,5.8-0.7,11.7-0.5,17.6c0.2,5,0.6,10.1,0.4,15.1c-0.1,1.7-0.3,3.4-0.7,5.1c-0.1,0.2-0.2,0.3-0.3,0.5c-0.3,0.8-0.7,1.2-1.7,0.8
		c-0.6-0.3-1.4-0.4-2.1-0.4c-5.9-0.5-11.8-0.5-17.8-0.9c-5.2-0.3-10.3,0.5-15.4,1.6C126.4,170.8,125.4,170.9,124.6,171.4z"/>
	<path class="st1" d="M124.6,171.4c0.8-0.5,1.8-0.6,2.7-0.8c5.1-1.2,10.2-1.9,15.4-1.6c5.9,0.4,11.9,0.3,17.8,0.9
		c0.7,0.1,1.5,0.1,2.1,0.4c1,0.5,1.4,0.1,1.7-0.8c0.1-0.2,0.2-0.4,0.3-0.5c1.3,3.3,2.1,6.7,2.6,10.2c0.4,2.7,0.5,5.4,0.6,8.2
		c0,2,0.5,3.9,0.2,5.9c-0.4,2.8-1.4,5.2-3.6,7c-0.3,0.2-0.5,0.5-0.6,0.9c-3.5,8.6-7.9,16.7-13.3,24.2c-1,1.4-1.6,1.6-3.1,0.8
		c-0.5-0.2-1-0.5-1.5-0.8c-2.1-1.8-4.1-3.9-5.8-6c-0.3-0.4-0.5-0.4-0.9,0c-0.6,0.7-1.2,1.4-1.8,2.1c-0.9-0.4-1.7-0.2-2.5,0.4
		c-0.5,0.4-1,0.7-1.4,1.2c-1.3,1.7-2.9,3.1-4.4,4.6c-0.6,0.6-0.8,1.6-1.7,2c-1.5-0.9-2.8-1.9-3.9-3.2c-1-1.5-0.1-2.3,0.8-3.4
		c3.5-4.4,6.4-9.2,9.4-13.9c2.8-4.3,4.8-9,7.4-13.3c1.6-2.5,2.4-5.3,3.2-8c0.1-0.5,0-0.7-0.4-1c-3.1-2.2-6.3-4.3-9.7-6.1
		c-0.9-0.5-1.9-0.8-2.9-1c-1.5-0.2-2.6-1.2-3.6-2.3C126.2,175.8,125.3,173.7,124.6,171.4z"/>
	<path class="st2" d="M139,81.7c-1.3-0.3-1.8-1.3-2.2-2.4c-0.4-1.1-1-2-2-2.7c-0.8-0.5-1.2-1.3-1.5-2.2c-1.1-3.5-2.3-7-2.5-10.8
		c-0.1-1.5-0.2-3-0.1-4.4c0.1-1.4-0.2-2.6-1.4-3.5c-0.7-2.7-0.2-5.4-0.1-8c0.1-2.2,0.2-4.4,0.3-6.6c0-0.2,0-0.4-0.1-0.5
		c-1.3-0.5-0.4-1.1,0-1.6c0.5-0.7,1-1.6,1.6-1.9c2.6-1.5,4.8-3.6,7.8-4.3c1.1-0.2,2.1-0.6,3.1-0.9c0.6-0.2,1.1-0.2,1.7,0.2
		c0.5,0.4,0.8-0.1,1.1-0.3c3.1-2,7.4-2,10.5,0.1c1.1,0.8,2,1.8,2.7,3c1.1,1.8,2.5,3.3,4.6,4c0.7,0.2,1.3,0.6,1.3,1.4
		c0,1.9,0.8,3.5,1.3,5.2c0.5,1.8,0.9,3.6,1.1,5.4c0.1,1.4,0,2.7-1.4,3.5c-1.3,0-2.4-0.6-3.3-1.5c-1.3-1.2-2.4-2.6-3.3-4.2
		c-0.2-0.2-0.3-0.6-0.7-0.4c-0.3,0.2-0.1,0.5-0.1,0.7c0,0.1,0.1,0.3,0.1,0.4c0.1,0.3,0.4,0.7,0.1,1c-0.3,0.4-0.7,0-1.1-0.1
		c-3.1-1.1-6.2-2.2-9.3-3.3c-0.3-0.1-0.8-0.4-1-0.1c-0.7,1.1-1.1,0.2-1.5-0.1c-2.1-1.9-4.5-3-7.2-3.7c-0.5-0.1-0.9-0.1-1,0.6
		c-0.1,1.5-0.3,3.1-0.4,4.6c-0.2,2.6-0.5,5.2-0.7,7.8c-0.1,1.8-0.4,3.5-0.2,5.3c0.2,1.7,0.7,3.3,0.8,5c0.2,3.1,2,4.9,4.7,5.9
		c2.5,0.9,5.1,1.3,7.8,1.3c1.6,0,1.9-0.2,2.4-1.7c0.3-0.9,0.9-1.3,1.8-1.2c2.3,0.2,4.6,0.4,6.9,0.5c0.9,0.1,1.5,0.5,1.8,1.3
		c0.6,1.4,1.3,1.8,2.8,1.5c-0.2,3.9-1.3,7.6-3,11c-1.1,2.3-3,3.7-5.8,3.5c-1.1,0-2.2,0-3.3,0c-1.5-0.1-3-0.3-4.3-1.1
		c-0.8-0.5-1.6-1-2.6-1.2c-2.6-0.4-4.3-2.1-5.7-4.1C139.5,82,139.4,81.7,139,81.7z"/>
	<path class="st3" d="M127.2,229.9c0.8-0.4,1-1.4,1.7-2c1.5-1.5,3.1-2.9,4.4-4.6c0.4-0.5,0.9-0.8,1.4-1.2c0.8-0.6,1.5-0.9,2.5-0.4
		c0.3,0.7,0.4,1.4,0.3,2.1c-0.1,1.1,0.3,1.8,1.2,2.5c1.2,0.9,2.5,1.2,3.9,0.9c0.9-0.2,1.8-0.5,2.6-0.8c1.2,0.2,1.4,0.5,1.7,2
		c0.4,2.9,1.1,5.7,2.1,8.4c0.3,0.8,0.6,1.5,0.9,2.3c0.5,1.1,1,2,2.2,2.6c1.6,0.8,2.4,2.3,2.5,4.2c0,0.7,0,1.3,0.1,2
		c0.1,0.6-0.3,1.1-0.8,1.5c-1.3,1.1-2.8,1.3-4.4,1.2c-0.6,0-1,0.1-1.4,0.5c-1.4,1.4-3.1,2-5,2.1c-3.7,0.3-7-0.7-10.1-2.7
		c-2.2-1.4-4.5-2.5-6.9-3.3c-1.8-0.6-3.8-0.6-5.6-1.2c-1.5-0.5-3.1-1-4.4-2c-1.3-0.9-1.2-1.5-0.8-3c0.8-3,2.5-5.7,3.4-8.7
		c0.3-1.1,1-2,1.7-2.9c0.5-0.5,1.1-0.6,1.7-0.5c0.7,0.4,0.8,1.1,1.1,1.8c0.4,1.3,1.5,2.1,2.9,2.2c0.2,0,0.6,0.1,0.4-0.3
		C126,231.5,126.6,230.7,127.2,229.9z"/>
	<path class="st4" d="M164.3,74.1c-1.5,0.4-2.3,0-2.8-1.5c-0.3-0.8-0.9-1.2-1.8-1.3c-2.3-0.2-4.6-0.4-6.9-0.5
		c-0.9-0.1-1.5,0.4-1.8,1.2c-0.5,1.5-0.8,1.7-2.4,1.7c-2.7,0-5.3-0.4-7.8-1.3c-2.8-1-4.6-2.8-4.7-5.9c-0.1-1.7-0.6-3.3-0.8-5
		c-0.2-1.8,0.1-3.6,0.2-5.3c0.2-2.6,0.5-5.2,0.7-7.8c0.1-1.5,0.3-3.1,0.4-4.6c0.1-0.7,0.5-0.7,1-0.6c2.7,0.6,5.2,1.8,7.2,3.7
		c0.4,0.4,0.8,1.2,1.5,0.1c0.2-0.3,0.7,0,1,0.1c3.1,1.1,6.2,2.2,9.3,3.3c0.3,0.1,0.7,0.5,1.1,0.1c0.3-0.3,0-0.7-0.1-1
		c0-0.1-0.1-0.3-0.1-0.4c-0.1-0.3-0.2-0.6,0.1-0.7c0.4-0.2,0.5,0.1,0.7,0.4c0.9,1.5,2,3,3.3,4.2c0.9,0.9,2,1.5,3.3,1.5
		c0,4.7,0.1,9.5,0,14.2C164.8,70.5,164.7,72.3,164.3,74.1z M159.9,64.5c0,0.5,0.1,1.1,0.3,1.6c0.2,0.5,0.4,0.9,1,1
		c0.6,0.1,1-0.2,1.4-0.6c0.8-1,0.8-2.1,0.3-3.2c-0.2-0.6-0.6-1.1-1.3-1c-0.7,0-1.1,0.5-1.4,1.1C159.9,63.7,159.9,64.1,159.9,64.5z
		 M152.4,64.3c0-0.5-0.1-0.9-0.2-1.4c-0.3-0.6-0.6-1.2-1.4-1.2c-0.8,0.1-1.2,0.6-1.4,1.3c-0.2,0.7-0.1,1.3,0,2
		c0.2,0.7,0.3,1.5,1.1,1.6c0.9,0.1,1.3-0.6,1.7-1.3C152.4,65,152.4,64.7,152.4,64.3z"/>
	<path class="st4" d="M119.7,107.4c3.6-0.6,7.2-0.7,10.8,0c0.5,0.1,1,0.3,1.5,0.5c1.8,0.8,1.8,1,1.2,2.9c-1.4,4.4-2.4,8.8-3.5,13.2
		c-0.4,1.4-0.7,2.9-1.1,4.3c-0.6,2.1-0.8,4.2-0.6,6.4c0.3,6.9,0.6,13.8,1,20.7c0,0.2,0,0.4,0,0.6c0.6-0.2,0.9-0.6,1.3-0.9
		c0.7-0.5,1.3-0.9,2.1-0.9c0.8-0.1,1.4,0.4,1.8,1c0.4,0.6,0.3,1.3,0,1.9c-0.2,0.4-0.5,0.7-0.9,0.9c-1,0.9-1.1,0.9,0,1.9
		c0.7,0.6,1.4,1.3,1.9,2.1c0.2,0.3,0.4,0.6,0.2,1c-0.2,0.3-0.6,0.3-1,0.3c-1.3-0.2-2.5-0.7-3.7-1.1c0.6,0.6,1.1,1.2,1.6,1.7
		c0.3,0.3,0.7,0.8,0.4,1.2c-0.3,0.5-0.9,0.2-1.3,0.1c-1-0.3-1.9-0.7-3-1.1c0.1,0.6,0.5,0.8,0.7,1.2c0.6,0.8,1.2,1.6,1.6,2.5
		c0.3,0.7,0,1.1-0.8,1.1c-0.7,0-1.3-0.2-1.9-0.6c-3.8-2.1-5.8-5.3-6.3-9.6c-0.1-1-0.3-2-0.4-2.9c0-0.2,0-0.5-0.3-0.5
		c-0.2-5.7-1-11.4-1.5-17.1c-0.4-5.1-1-10.2-0.7-15.4C119.2,117.7,119.4,112.5,119.7,107.4z"/>
	<path class="st4" d="M139,81.7c0.4,0,0.5,0.4,0.7,0.6c1.5,2,3.1,3.7,5.7,4.1c1,0.2,1.8,0.7,2.6,1.2c1.3,0.7,2.8,1,4.3,1.1
		c1.1,0.1,2.2,0,3.3,0c0.3,0.7,0.5,1.4,1.4,1.6c0.1,0.7,0.3,1.5,0.4,2.2c0.4,2.4-0.7,4-3.1,4.6c-2.5,0.7-4.8,0.1-7-1.1
		c-3.4-1.9-6.1-4.6-8.8-7.5c-0.7-0.8-1.4-1.7-2.1-2.5c0.3-0.4,0.8-0.6,1.2-0.9C138.5,84.2,138.8,83,139,81.7z"/>
	<path class="st4" d="M145.3,226.2c-0.9,0.3-1.8,0.6-2.6,0.8c-1.4,0.4-2.7,0-3.9-0.9c-0.8-0.6-1.3-1.4-1.2-2.5
		c0.1-0.7,0-1.4-0.3-2.1c0.6-0.7,1.2-1.4,1.8-2.1c0.3-0.4,0.5-0.4,0.9,0c1.8,2.2,3.7,4.2,5.8,6C145.6,225.7,145.4,226,145.3,226.2z"
		/>
	<path class="st4" d="M127.2,229.9c-0.6,0.8-1.2,1.6-0.7,2.7c0.2,0.3-0.2,0.3-0.4,0.3c-1.4,0-2.4-0.8-2.9-2.2
		c-0.2-0.7-0.4-1.4-1.1-1.8c0.3-0.8,0.6-1.6,1.1-2.2C124.4,228,125.7,229,127.2,229.9z"/>
	<path class="st4" d="M129.2,55.7c1.2,0.9,1.5,2,1.4,3.5c-0.1,1.5,0.1,3,0.1,4.4c-1.4,0-2.6-1.4-2.1-2.8
		C129.3,59.1,129.1,57.4,129.2,55.7z"/>
	<path class="st0" d="M159.9,64.5c0-0.4,0-0.8,0.2-1.2c0.3-0.6,0.7-1.1,1.4-1.1c0.7,0,1.1,0.5,1.3,1c0.5,1.1,0.5,2.2-0.3,3.2
		c-0.3,0.4-0.8,0.7-1.4,0.6c-0.6-0.1-0.8-0.6-1-1C160,65.6,159.9,65.1,159.9,64.5z"/>
	<path class="st0" d="M152.4,64.3c0,0.4,0,0.7-0.2,1.1c-0.4,0.7-0.8,1.4-1.7,1.3c-0.9-0.1-1-0.9-1.1-1.6c-0.1-0.6-0.2-1.3,0-2
		c0.2-0.7,0.6-1.2,1.4-1.3c0.8-0.1,1.1,0.5,1.4,1.2C152.4,63.4,152.4,63.9,152.4,64.3z"/>
</g>
</svg>
