<?xml version="1.0" encoding="utf-8"?>
<!-- Generator: Adobe Illustrator 22.1.0, SVG Export Plug-In . SVG Version: 6.00 Build 0)  -->
<svg version="1.1" id="Capa_1" xmlns="http://www.w3.org/2000/svg" xmlns:xlink="http://www.w3.org/1999/xlink" x="0px" y="0px"
	 viewBox="0 0 283.5 283.5" style="enable-background:new 0 0 283.5 283.5;" xml:space="preserve">
<style type="text/css">
	.st0{fill:#F195BE;}
	.st1{fill:#852320;}
	.st2{fill:#0A813C;}
	.st3{fill:#04994B;}
	.st4{fill:#1F1919;}
	.st5{fill:#88CFE2;}
	.st6{fill:#020203;}
</style>
<g>
	<path class="st0" d="M148.3,213.7c-1.5-0.9-3-0.7-5.3-0.5c-1,0.1-2.2,0.2-3.4,0.9c-0.3,0.1-0.5,0.3-0.8,0.6
		c-0.5,1.5-1.1,4.3-0.7,5.9c0.7,3.2,8.6-0.6,9.6-1.8c0.8-1-0.9-0.1-0.3-1.7C146.9,217.1,147.8,214.8,148.3,213.7z"/>
	<path class="st1" d="M164.6,227.2c-1.8-3-4.3-3.1-6.2-2.6c-3.8-1.7-7.9-5.1-9.8-7.1c-3.1-3.2-2.3,2.9-7.1,2.9
		c-2.6,0-2.2-2.3-3.5-2.4c-1.3-0.1-1.5,1.3-1.5,1.3c-0.7,1.1-0.5,2.9-0.5,2.9l-0.7,5.2c0.1,0.7,0.1,2.2-0.1,2.6
		c-0.2,0.4,0.3,2.2,5.3,2.3s2.8-0.7,7.8,0s7,2.4,12,0.9C165.4,231.8,166,227.6,164.6,227.2z M136.1,227.9c0.1,0.2,0.3,0.3,0.4,0.4
		C136.4,228.2,136.2,228,136.1,227.9z"/>
</g>
<path class="st2" d="M137.9,214.2c3.9,1.1,7.5,3.7,11.1,3.1c14.7-39.1,8-56.2,8-56.2l-9.7,0.5C151.1,170.1,140.3,206.5,137.9,214.2z
	"/>
<path class="st0" d="M148.6,200.7c-1-0.6-1.2,0.5-1.8,0c-1.8-1.8-2.9-3.4-4.1-5.6h-0.1c-0.1,0-0.2-0.1-0.3-0.2
	c-5.4,3.3-11.1,4.8-11.1,4.8s3.1,2.5,8.5,5C139.7,204.7,145.1,203.3,148.6,200.7z"/>
<path class="st1" d="M140.4,224.3c1.8-2.8,0.7-5-0.5-6.3c-0.2-3.9,0.8-8.9,1.7-11.4c1.3-4-3.4-0.7-5.5-4.7c-1.2-2.2,0.9-2.8,0.5-4
	c-0.5-1.2-1.8-0.7-1.8-0.7c-1.2-0.1-2.7,0.9-2.7,0.9l-4.7,1.6c-0.5,0.4-1.8,1-2.3,1s-1.7,1.2,0.4,5.4s1.8,2.1,3.4,6.6
	c1.6,4.5,1,6.9,4.5,10.5C136.9,226.9,140.7,225.6,140.4,224.3z M127.5,200.6c-0.1,0.2-0.1,0.4-0.2,0.5
	C127.3,201,127.4,200.8,127.5,200.6z"/>
<path class="st3" d="M152.2,164.6c1.9-0.4,3.8-0.7,5.7-0.9c-5.7-1.8-18.7-5.3-26.3-3c-9.9,2.9-6.4,7.2-6.4,7.2s4.8,7.3,13.7,7.8
	C139.4,169.3,146.7,165.8,152.2,164.6z"/>
<path class="st3" d="M149.7,161.7c-5.5,0.9-28-1.9-12.5,11.7c0,0-3.4-0.5-3.3-0.5c0,0,15.9,5.4,5.4,23.1c0,0,5.4,8.7,8.6,10.4
	c0,0,12.3-16.9,12.8-41.8c0,0-1.8-0.3-2.1-0.4C156.8,164.4,151.5,161.4,149.7,161.7z"/>
<path class="st0" d="M153.3,86.9c0.5-3.2,2.4-6.2,2.4-9.3c-1.4,0.6-2.6,1.9-3.7,2.8c-1.7,1.4-3.4,2.7-5.2,4.1
	c-1.7,1.4-0.4-3.2-2.2-2c-1.1,0.7-4-1.9-5.2-1.3c-0.3,8.5,0.1,9.7-3,11.3c-0.9,2.8-4.4,7.4-5.6,10.1c5.1,3,26.3,8.4,26.9-4.8
	C151.3,95.6,152.6,91.4,153.3,86.9z"/>
<path class="st4" d="M162.8,100.6c-4.1-3.3-8.2-4.9-8.2-4.8c-0.2,0.4,2.6,5.7-3.6,6.3c-6.2,0.6-12.9-8.3-14.4-9.7
	c0,0-9,3.2-10.5,4.6c-2.9,5.8,0.2,11-0.3,17.3c-0.5,5.7,0.1,11.1,0,18.2c-1,10.5-2.2,28.9-1.1,34.6c2.4-0.6,2-1.1,7.1-2.1
	c4.8-0.9,10.1-1.4,14.9-0.9c3.6,0.4,11.4-0.5,14,0.9c0-4.3-0.2-20.2,1.3-32.9C162.5,127.4,166.9,104,162.8,100.6z"/>
<path class="st0" d="M121.9,106.4l-0.2,0.9c0,0-4.5,22.2-3.8,23c1.2,2,1.9,1.8,4.1,1.9c0.5,0,2.4-0.5,3-0.6c1.8-3.9,6.2-15.5,8-19
	C135.7,107.7,121.9,106.4,121.9,106.4z"/>
<path class="st4" d="M131.6,95.9c-4.3-1-6.9,1.5-8.6,4.7c-0.9,2.3-1.5,5.1-1.8,8.4c0,0,10.8-0.1,12.1,3.8c0.7,2.2,3.4-3.6,4.2-10.1
	C137,99.5,134.7,96.6,131.6,95.9z"/>
<path class="st0" d="M158.7,70.2c1.1-5.8-0.7-3.5-0.6-6.7c0.1-2.5,0.3-7.7-1.7-9.3c-2-1.5-4.5-2.3-7-2.8c-4.2-0.8-8.5-0.8-12.6,0.3
	c-2.4,0.6-5,1.7-6.3,3.9c-0.8,1.4-1.1,3-1.4,4.6c-1.2,7.9-2.7,14.6-2.2,22.6c0.1,2,0.6,5.3,1.8,6.9c1.7,2.1,4.6,2.7,7.3,3
	c1.6-0.6,3.1-1.7,4.5-2.6c1.9-1.2,3.7-2.7,5.6-4.1c1.8-1.3,3.6-2.6,5.4-4c0.8-0.7,1.8-1.4,2.8-1.8c0-0.3,0-0.6-0.1-0.8
	c1,0.1,1.6-1.1,1.6-2c0.1-1,0-2,0.6-2.8c0.4-0.5,1.1,0.2,1.5-0.3C159.9,72.1,158.4,71.9,158.7,70.2z"/>
<path class="st5" d="M135.9,58.4c-0.1,0.5-0.3,0.9-0.6,1.3c-0.1,0.2,0.1,0.5,0.3,0.4c3.2-0.7,6.5-1.3,9.7-2c0.2,0,0.4,0.2,0.3,0.4
	l0,0c-0.1,0.3,0.2,0.5,0.5,0.3c2.2-1.7,5-2.7,7.8-2.8c0.2,0,0.3,0.1,0.3,0.3c-0.2,3.5-0.3,7-0.5,10.6c-0.1,2.1-0.2,4.1-0.8,6.1
	c-0.6,2.1-1.7,4.1-1.5,6.2c0,0.1,0.1,0.2,0.2,0.2c1.4,0.7,2.9-1.1,3.5-2.6c1-2.6,1.7-5.4,2.1-8.1c0-0.2,0.2-0.3,0.3-0.2
	c1.3,0.1,2-1.7,2.2-3.1c0.3-3.5,0.6-7,0.9-10.6c0-0.2,0.2-0.3,0.4-0.2l0,0c0.3,0.1,0.5-0.2,0.4-0.4c-0.5-0.8-0.8-1.5-1.4-2.4
	c-0.2-0.3-0.5-0.7-0.9-0.7c-0.4,0.1-0.2,0.9,0.1,0.6c-1.5-3-4.9-4.6-8.1-5.9c-0.5-0.2-1-0.4-1.5-0.1c-0.4,0.2-0.4,1.1,0.1,1.1
	c-2.5-3.7-8.4-4.4-11.7-1.4c-1.4,1.3-2.4,3.1-4.1,3.7c-0.9,0.3-2.1,0.3-2.6,1.1c-0.2,0.4-0.3,0.9-0.4,1.3c-0.2,0.7-0.5,1.3-0.8,1.9
	c-0.8,1.6-3.8,8-1.5,9c2,0.8,5.1-2.2,6.6-4.3C135.5,57.9,136,58.1,135.9,58.4z"/>
<path class="st5" d="M156.9,73.8c-0.4,2.1-1,4.1-1.9,6s-1.5,4.3-3.4,5.3c-1.4,0.8-1.7,2.1-2.8,3.3c-0.3,0.4-1.3,0.1-1.6,0.5
	c-0.8,1.1-1.9,1.8-3,2.6c-1,0.7-3.5,0.5-4.6,1.1c-0.2,0.1-0.4,0.3-0.7,0.4c-0.7,0.2-1.5,0-2.1,0.2c-0.5,0.1-1,0.2-1.5,0
	c-1.4-0.5-3.8-0.1-5.3-1.3c-0.8-0.7-1.6-1.9-1.9-2.9c-1-3.2-1.3-6.3-1.3-9.7c0.7,0.6,1.9,0.4,2.4-0.4c0.3-0.4,0.4-0.8,0.7-1.1
	c0.4-0.3,0.9-0.3,1.4-0.2c1.9,0.1,3.7,0.2,5.6,0.4c0.4,0,0.9,0.1,1.2,0.4c0.5,0.5,0.3,1.5,0.8,2.1c0.3,0.3,0.6,0.3,1,0.4
	c2.2,0.4,4.4,0.4,6.5,0c1.1-0.2,2.1-0.4,3-1c1.8-1.1,2.8-3.3,3.4-5.3c1.2-3.7,2-7.6,2.3-11.5c0.1-0.7,0.7-2.9,1.8-1.7
	c0.6,0.6,0.6,2.9,0.7,3.7C158,68,157.6,71,156.9,73.8z"/>
<path class="st6" d="M140.1,74.4c0.2-0.1,0.3-0.3,0.4-0.6c0.4-0.9,0.8-2.2-0.1-3c-1.2-1.1-2.1,0.8-2.2,1.8
	C138.2,73.8,139.2,75.2,140.1,74.4z"/>
<path class="st6" d="M130.9,73.6c0.2-0.1,0.3-0.3,0.4-0.6c0.4-0.9,0.8-2.2-0.1-3c-1.2-1.1-2.1,0.8-2.2,1.8
	C129,73,130.1,74.3,130.9,73.6z"/>
<path class="st0" d="M134.2,152.1c0,0,2.5-2,1.1-3.5c-1.9-2-4.2,2-4.2,2l-5.9-22.5c-1.7-1.9-6-0.1-7.3,2.3v0.1
	c1.3,4.4,7.1,24.1,9.1,26.6c3.3,4,7.6,4.4,7.8,3.4s-3.5-3.7-3.5-3.7s4.4,1.5,4.6,0.5c0.2-1-3.3-2.3-3.3-2.3s5,1,5.2,0
	C138,153.9,134.2,152.1,134.2,152.1z"/>
</svg>
