<?xml version="1.0" encoding="utf-8"?>
<!-- Generator: Adobe Illustrator 22.1.0, SVG Export Plug-In . SVG Version: 6.00 Build 0)  -->
<svg version="1.1" id="Capa_1" xmlns="http://www.w3.org/2000/svg" xmlns:xlink="http://www.w3.org/1999/xlink" x="0px" y="0px"
	 viewBox="0 0 283.5 283.5" style="enable-background:new 0 0 283.5 283.5;" xml:space="preserve">
<style type="text/css">
	.st0{fill:#231F20;}
	.st1{fill:#00984A;}
	.st2{fill:#87CEE1;}
	.st3{fill:#EE88B6;}
	.st4{fill:#83231F;}
</style>
<g>
	<path class="st0" d="M124.2,173.8c-0.9,0-1.7,0.6-2.5,0.8c-0.5,0.1-0.8,0-0.8-0.5c-0.1-1.3-0.3-2.6-0.3-3.8
		c-0.3-7.2,0.1-14.3,0.5-21.5c0.3-6.5,1.3-13,1.1-19.6c0-1.2-0.1-2.4-0.1-3.6c0.1-0.4,0.3-0.9,0.5-1.3c2.3-3.8,4.3-7.6,6.9-11.2
		c0.3-0.4,0.3-0.8,0-1.2c-0.7-1-1.6-1.7-2.6-2.2c-3.2-1.7-6.6-2.4-10.1-2.9c0.1-1.9,0.9-3.6,1.5-5.4c1.4-4.4,4.4-7.4,8.4-9.5
		c2.4-1.2,4.9-2.5,7.4-3.6c0.3-0.1,0.6-0.3,0.9-0.2c2.3,2.7,4.6,5.2,7.4,7.4c1.6,1.3,3.3,2.4,5.2,3.1c1.9,0.7,3.8,0.8,5.7,0.2
		c2.2-0.7,3.2-2.3,2.8-4.6c-0.1-0.8-0.3-1.5-0.5-2.3c0.4-0.1,0.7,0.1,1,0.2c3.1,1.3,5.9,3.1,8.6,5.2c1.2,0.9,1.5,2.4,1.7,3.8
		c0.7,4.5,0.4,9,0,13.4c-0.5,6.1-1.5,12.2-2.3,18.3c-0.1,0.6-0.1,1.2-0.2,1.8c-0.4,2.8-0.4,5.7-0.4,8.5c0,4.8,0.4,9.5,0.7,14.2
		c0.2,2.9,0.2,5.7,0.2,8.6c-0.1,1.7-0.3,3.5-0.8,5.1c-0.4,1.1-1.1,1.1-2.1,0.8c-1.2-0.4-2.5-0.5-3.8-0.5c-3-0.1-6,0-9-0.1
		c-3.3-0.1-6.6-0.6-9.9-0.4c-4.5,0.3-9,0.9-13.4,2.1C125.2,173.2,124.6,173.3,124.2,173.8z"/>
	<path class="st1" d="M124.2,173.8c0.4-0.5,1.1-0.5,1.6-0.7c4.4-1.2,8.8-1.8,13.4-2.1c3.3-0.2,6.6,0.2,9.9,0.4c3,0.1,6,0,9,0.1
		c1.3,0,2.6,0.1,3.8,0.5c1,0.4,1.7,0.3,2.1-0.8c2.5,4.7,4.3,9.7,5.1,15c0.3,1.7,0.9,3.2,1.1,4.9c0.2,1.9,0.2,3.8-0.6,5.5
		c-0.9,2.2-1.1,4.5-1.4,6.7c-1.2,8-2.7,15.9-4.7,23.8c-0.3,1.2-0.9,1.8-2.2,1.9c-0.6-0.1-1.2-0.4-1.8-0.3c-3.1-1.2-5.9-2.9-8.7-4.6
		c-0.1-0.1-0.2-0.2-0.4-0.3c-1.8-1.3-1.8-1.3-1.3-3.3c1.7-6.5,3.4-13.1,5.5-19.5c0.1-0.2,0.1-0.5,0.2-0.7c0.8-1.7,0-2.9-1.1-4
		c-0.3-0.3-0.5-0.4-0.8,0.1c-1.6,3-3.7,5.8-5.5,8.7c-3.8,6-8.3,11.5-13,16.8c-2.2,2.6-4.6,5.1-6.8,7.7c-1.2-0.8-2.5-1.6-3.9-1.9
		c-2.7-1.2-5-2.9-6.7-5.3c-0.8-1.4-0.1-2.2,0.9-3.2c5.6-6.2,10.5-12.9,15.2-19.8c1.8-2.6,3.5-5.3,5.6-7.6c1-1.1,1.5-2.5,2.2-3.8
		c0.3-0.6-0.2-0.7-0.5-0.9c-2.8-1.5-5.6-3.1-8.5-4.2c-2.9-1.1-4.9-3.1-6.3-5.7C125,175.9,124.4,174.9,124.2,173.8z"/>
	<path class="st2" d="M137.5,83.4c-1-0.2-1.5-0.9-1.9-1.8c-0.5-1.4-1.3-2.6-2.5-3.6c-1-0.8-1.3-2.1-1.7-3.4
		c-0.9-3.1-1.7-6.2-1.9-9.4c-0.1-1.4-0.2-2.9-0.1-4.3c0.1-1.4,0.1-2.6-1.1-3.5c0,0-0.1,0-0.1-0.1c-0.8-2.2-0.1-4.4-0.1-6.6
		c0-1.2,0.2-2.5,0.3-3.7c0.1-1.4,0.2-2.8,0.2-4.1c0-0.3,0.1-0.7-0.3-0.8c-0.7-0.2-0.4-0.6-0.1-1c0.6-0.8,1.2-1.5,1.9-2.3
		c0.1-0.1,0.3-0.4,0.5-0.3c1,0.2,1.4-0.6,2-1.1c2.6-2.1,5.7-2.9,8.9-3.6c0.6-0.1,1.2-0.2,1.7,0.3c0.3,0.3,0.5,0,0.8-0.1
		c3.6-2.3,8.4-2.1,11.7,1c0.8,0.7,1.3,1.6,1.8,2.5c1,1.7,2.2,3,4.1,3.6c1.1,0.4,1.6,1.2,1.6,2.4c0,1.6,0.8,3,1.2,4.5
		c0.5,2,1,4,0.9,6.1c0,1.1-0.1,2.3-1.5,2.7c-0.5,0-1-0.1-1.4-0.3c-1.2-0.6-2.1-1.5-2.9-2.4c-0.8-1-1.6-2-2.2-3.2
		c-0.1-0.2-0.2-0.5-0.5-0.3c-0.3,0.1-0.2,0.3-0.2,0.6c0,0.2,0.1,0.3,0.1,0.5c0.1,0.4,0.4,0.8,0,1.1c-0.4,0.3-0.8,0-1.2-0.2
		c-3-1.1-6.1-2.2-9.1-3.4c-0.3-0.1-0.8-0.4-0.9-0.1c-0.6,1-1,0.3-1.5-0.1c-2-1.9-4.4-3.2-7.1-3.9c-0.6-0.2-1-0.1-1.1,0.8
		c-0.1,1.4-0.3,2.8-0.5,4.2c-0.4,3.4-0.7,6.7-1.1,10.1c-0.3,2.9,0.4,5.6,0.7,8.4c0.3,2.6,1.6,4.4,4,5.4c2.8,1.2,5.7,1.6,8.7,1.7
		c1,0,1.7-0.4,2-1.4c0.3-1,0.9-1.5,2-1.4c2.4,0.2,4.8,0.4,7.2,0.6c0.7,0.1,1.1,0.5,1.4,1.1c0.6,1.6,1.3,2,3,1.6
		c-0.5,3.7-1.4,7.4-3.1,10.7c-1.2,2.3-3,3.8-5.8,3.7c-1.1-0.3-2.2-0.2-3.2-0.2c-1.7,0-3.2-0.4-4.7-1.2c-0.7-0.4-1.5-0.9-2.3-1.1
		c-2.6-0.5-4.3-2.1-5.7-4.2C138,83.8,137.9,83.4,137.5,83.4z"/>
	<path class="st3" d="M163,76.3c-1.6,0.4-2.3,0-3-1.6c-0.3-0.6-0.7-1.1-1.4-1.1c-2.4-0.2-4.8-0.4-7.2-0.6c-1.1-0.1-1.7,0.4-2,1.4
		c-0.3,1-1,1.4-2,1.4c-3-0.1-5.9-0.5-8.7-1.7c-2.4-1.1-3.7-2.8-4-5.4c-0.4-2.8-1-5.6-0.7-8.4c0.3-3.4,0.7-6.7,1.1-10.1
		c0.2-1.4,0.4-2.8,0.5-4.2c0-0.8,0.4-0.9,1.1-0.8c2.7,0.7,5.1,1.9,7.1,3.9c0.4,0.4,0.9,1.2,1.5,0.1c0.2-0.3,0.6,0,0.9,0.1
		c3,1.1,6.1,2.2,9.1,3.4c0.4,0.1,0.8,0.5,1.2,0.2c0.4-0.3,0-0.7,0-1.1c0-0.2-0.1-0.3-0.1-0.5c-0.1-0.2-0.1-0.5,0.2-0.6
		c0.3-0.1,0.4,0.1,0.5,0.3c0.6,1.1,1.4,2.2,2.2,3.2c0.8,1,1.7,1.9,2.9,2.4c0.5,0.2,0.9,0.3,1.4,0.3c-0.1,1.8,0.1,3.6,0.1,5.4
		C163.8,66.9,163.7,71.6,163,76.3z M148.1,66c0,0.6,0.1,1.2,0.3,1.7c0.4,1.1,1.3,1.2,2.1,0.4c0.9-0.9,1-2.2,0.4-3.5
		c-0.2-0.5-0.5-0.9-1.2-0.9c-0.6,0-1.1,0.3-1.3,0.9C148.1,65.1,148.1,65.5,148.1,66z M158.7,66.5c0,0.7,0.1,1.3,0.3,1.8
		c0.4,1.1,1.3,1.3,2.2,0.4c0.9-0.9,0.9-1.9,0.5-3c-0.2-0.7-0.5-1.4-1.4-1.3c-0.9,0.1-1.3,0.7-1.5,1.5
		C158.7,66.2,158.7,66.4,158.7,66.5z"/>
	<path class="st3" d="M116.6,106.8c3.5,0.6,6.9,1.3,10.1,2.9c1,0.5,1.9,1.2,2.6,2.2c0.3,0.4,0.3,0.7,0,1.2
		c-2.5,3.6-4.6,7.5-6.9,11.2c-0.2,0.4-0.4,0.8-0.5,1.3c-0.9,0.8-1.3,2.1-2,3c-2.3,3.1-2.9,6.9-3.8,10.5c-1.3,5.2-2.6,10.5-3.9,15.7
		c-0.1,0.3-0.3,0.6,0,0.8c0.2,0.2,0.5,0,0.7-0.2c0.6-0.3,1.3-0.4,2-0.5c1.1-0.2,2,0.4,2.3,1.4c0.3,0.9,0,1.7-1,2.3
		c-0.3,0.1-0.5,0.3-0.8,0.4c-1.1,0.4-1.1,0.4-0.4,1.4c0.5,0.8,1,1.7,1.3,2.6c0.1,0.4,0.3,0.9-0.1,1.2c-0.4,0.3-0.8,0.1-1.2-0.1
		c-0.9-0.6-1.8-1.1-2.9-1.8c0.1,0.7,0.6,1.2,0.8,1.7c0.2,0.5,0.7,1.1,0.1,1.5c-0.5,0.4-1-0.2-1.4-0.4c-0.8-0.4-1.3-1.2-2.4-1.7
		c0.4,1.1,0.7,1.9,0.9,2.8c0.2,0.7,0.7,1.5-0.1,2c-0.7,0.4-1.4-0.2-1.9-0.6c-3.2-2.8-4.4-6.4-3.9-10.6c1.1-8.7,3.2-17.2,4.7-25.8
		c1-5.7,3.2-11.1,4.9-16.5C114.7,112.1,115.7,109.5,116.6,106.8z M109.3,163.4L109.3,163.4L109.3,163.4L109.3,163.4z"/>
	<path class="st4" d="M123.6,227.5c1.5,0.3,2.7,1.1,3.9,1.9c1.4,4.1,3.4,7.8,6,11.2c0.2,0.3,0.6,0.4,0.9,0.5c2.6,0.8,4,2.5,4.5,5.1
		c0.1,0.8,0.6,1.6,0,2.5c-0.7,0.9-1.5,1.6-2.5,2c-3.5,1.2-6.8,0.4-10-1.3c-1.6-0.8-2.9-2.1-4.4-3.3c-2.5-2-5.1-3.8-8.2-4.8
		c-2.1-0.7-4.1-1.7-5.8-3.2c-0.5-0.4-1-0.9-1.3-1.5c-0.3-0.7-0.2-1.2,0.1-1.9c1.4-2.9,3.5-5.3,5-8.2c0.6-1.1,1.4-1.9,2.3-2.7
		c0.5-0.4,1-0.4,1.6-0.2c0.7,0.4,0.8,1.2,0.8,1.9c0.1,1.2,0.7,2,1.8,2.5C120.2,228.9,122,228.6,123.6,227.5z"/>
	<path class="st4" d="M159.4,228.6c0.6-0.1,1.2,0.2,1.8,0.3c2.7,3.6,5.8,6.7,9.5,9.2c0.5,0.3,0.9,0.5,1.5,0.4c2.4-0.1,4.1,0.9,5.3,3
		c1.3,2.3,1,3.7-1.2,5.3c-3.1,2.1-6.5,2.3-10,1.4c-2.8-0.7-5.4-2.1-8.3-2.7c-1.2-0.3-2.5-0.4-3.7-0.4c-2.4,0-4.7-0.2-6.9-1.1
		c-0.6-0.2-1.1-0.5-1.6-1c-0.5-0.5-0.5-0.9-0.4-1.6c0.5-3,1.4-5.9,2-8.9c0.2-1,0.5-1.8,0.9-2.7c0.4-0.7,0.9-1.1,1.7-1.1
		c0.6,0.3,1,0.8,1.2,1.4c0.5,1.2,1.4,1.8,2.7,1.8c1.3,0.1,2.4-0.2,3.4-1.1C158,230.1,158.7,229.3,159.4,228.6z"/>
	<path class="st3" d="M164.7,166.1c-0.1-2.9-0.1-5.7-0.2-8.6c-0.3-4.7-0.7-9.5-0.7-14.2c0-2.8-0.1-5.7,0.4-8.5
		c0.7,5.3,2.3,10.4,3.3,15.6c0.4,2,0.9,4,1.4,6.1c0.1,0.7,0.4,0.9,1.2,1c1.3,0.1,2.5,0,3.7-0.1c0.8-0.1,0.9,0.3,0.7,0.9
		c-0.2,0.8-0.6,1.5-1,2.1c-0.3,0.5-0.2,0.7,0.3,0.8c1.5,0.4,3,0.9,4.4,1.6c0.2,0.1,0.4,0.2,0.6,0.3c0.3,0.2,0.6,0.4,0.5,0.8
		c-0.1,0.4-0.4,0.4-0.7,0.5c-1,0.2-2,0.1-3,0.1c-0.8,0-1.6,0-2.8,0c0.9,0.4,1.5,0.6,2.1,0.9c0.4,0.2,0.7,0.3,1.1,0.5
		c0.4,0.3,0.9,0.5,0.8,1c-0.2,0.5-0.7,0.3-1.2,0.3c-1.4,0.1-2.8-0.4-4.3-0.4c0.6,0.5,1.3,1,1.9,1.5c0.5,0.4,1.4,1,1,1.6
		c-0.4,0.7-1.2,0.1-1.8-0.1c-2.2-0.7-4.2-1.8-6.3-2.8C165.6,166.9,165.2,166.4,164.7,166.1z"/>
	<path class="st3" d="M137.5,83.4c0.4,0,0.5,0.4,0.7,0.6c1.4,2.1,3.1,3.7,5.7,4.2c0.8,0.1,1.6,0.7,2.3,1.1c1.4,0.8,3,1.3,4.7,1.2
		c1.1,0,2.2-0.1,3.2,0.2c0.3,0.5,0.6,1.1,1.2,1.3c0.2,0.8,0.4,1.5,0.5,2.3c0.4,2.3-0.6,3.9-2.8,4.6c-1.9,0.6-3.8,0.5-5.7-0.2
		c-1.9-0.7-3.6-1.8-5.2-3.1c-2.7-2.2-5.1-4.7-7.4-7.4C136.6,87.1,137.4,85.5,137.5,83.4z"/>
	<path class="st3" d="M159.4,228.6c-0.7,0.7-1.4,1.5-2.2,2.2c-0.9,0.9-2.1,1.2-3.4,1.1c-1.3-0.1-2.2-0.6-2.7-1.8
		c-0.2-0.6-0.6-1.1-1.2-1.4c0.2-1.6,0.5-3.1,0.7-4.7C153.5,225.7,156.3,227.4,159.4,228.6z"/>
	<path class="st3" d="M123.6,227.5c-1.7,1.2-3.4,1.5-5.3,0.6c-1.1-0.5-1.7-1.3-1.8-2.5c-0.1-0.7-0.1-1.5-0.8-1.9
		c0.5-0.4,0.8-1.1,1.2-1.6C118.7,224.5,121,226.2,123.6,227.5z"/>
	<path class="st3" d="M128.2,57.3C128.2,57.3,128.3,57.3,128.2,57.3c1.3,1,1.3,2.2,1.2,3.6c-0.1,1.4,0.1,2.9,0.1,4.3
		c-1.3,0-2.5-1.4-2.1-2.7c0.5-1.4,0.5-2.7,0.5-4.2C128,58,128.1,57.7,128.2,57.3z"/>
	<path class="st0" d="M148.1,66c0-0.5,0.1-0.9,0.3-1.3c0.3-0.5,0.7-0.9,1.3-0.9c0.6,0,0.9,0.4,1.2,0.9c0.6,1.3,0.5,2.6-0.4,3.5
		c-0.8,0.8-1.7,0.6-2.1-0.4C148.2,67.2,148.1,66.6,148.1,66z"/>
	<path class="st0" d="M158.7,66.5c0-0.1,0-0.4,0.1-0.6c0.2-0.8,0.6-1.4,1.5-1.5c0.9-0.1,1.2,0.7,1.4,1.3c0.4,1.1,0.3,2.2-0.5,3
		c-0.8,0.8-1.7,0.7-2.2-0.4C158.8,67.8,158.7,67.3,158.7,66.5z"/>
</g>
</svg>
