<?xml version="1.0" encoding="utf-8"?>
<!-- Generator: Adobe Illustrator 22.1.0, SVG Export Plug-In . SVG Version: 6.00 Build 0)  -->
<svg version="1.1" id="Capa_1" xmlns="http://www.w3.org/2000/svg" xmlns:xlink="http://www.w3.org/1999/xlink" x="0px" y="0px"
	 viewBox="0 0 283.5 283.5" style="enable-background:new 0 0 283.5 283.5;" xml:space="preserve">
<style type="text/css">
	.st0{fill:#F195BE;}
	.st1{fill:#852320;}
	.st2{fill:#0A813C;}
	.st3{fill:#1F1919;}
	.st4{fill:#04994B;stroke:#04994B;stroke-miterlimit:10;}
	.st5{fill:#04994B;}
	.st6{fill:#88CFE2;}
	.st7{fill:#020203;}
</style>
<g>
	<g>
		<path class="st0" d="M141.1,212.3c-1.4-1-2.9-1.1-5.2-1.2c-1,0-2.2-0.1-3.5,0.4c-0.3,0.1-0.5,0.2-0.9,0.4
			c-0.7,1.4-1.6,4.1-1.5,5.7c0.3,3.3,8.6,0.6,9.7-0.6c0.9-0.9-0.9-0.2-0.1-1.8C139.2,215.5,140.5,213.3,141.1,212.3z"/>
		<path class="st1" d="M155.4,227.9c-1.3-3.2-3.9-3.6-5.8-3.4c-3.5-2.2-7.2-6.1-8.8-8.3c-2.7-3.6-2.7,2.6-7.4,2
			c-2.6-0.3-1.9-2.5-3.2-2.8c-1.3-0.3-1.7,1.1-1.7,1.1c-0.8,1-0.9,2.8-0.9,2.8l-1.4,5.1c0,0.7-0.2,2.2-0.5,2.6c-0.3,0.4,0,2.2,4.9,3
			c5,0.7,2.9-0.4,7.8,1c4.9,1.3,6.6,3.3,11.8,2.5C155.6,232.5,156.8,228.4,155.4,227.9z M127.1,224.8c0.1,0.2,0.2,0.3,0.4,0.5
			C127.3,225.1,127.2,224.9,127.1,224.8z"/>
	</g>
	<path class="st2" d="M130.7,211.4c3.7,1.6,6.9,4.7,10.6,4.5c19.7-36.9,20.5-53.9,20.5-53.9l-14.8-1.5
		C149.7,169.5,134.1,204.1,130.7,211.4z"/>
	<path class="st0" d="M161.7,200.7c-1.1,0.2-0.5,1.3-1.3,1.2c-2.6,0-4.5-0.4-6.8-1.2c0,0,0,0.1-0.1,0.1c-0.1,0.1-0.2,0.1-0.3,0.1
		c-1.6,6.1-4.7,11.1-4.7,11.1s4-0.3,9.6-2.3C158,209.8,160.9,205.1,161.7,200.7z"/>
	<path class="st1" d="M172.1,223.5c-0.6-3.2-2.9-4.1-4.7-4.2c-2.9-2.7-5.5-7-6.6-9.4c-1.8-3.8-2.9,1.9-7.2,0.5
		c-2.4-0.8-1.3-2.7-2.4-3.2c-1.1-0.5-1.8,0.7-1.8,0.7c-0.9,0.8-1.3,2.5-1.3,2.5l-2.3,4.4c-0.1,0.7-0.6,2-0.9,2.3
		c-0.3,0.3-0.4,2.1,4,3.7c4.5,1.6,2.8,0.2,7,2.4c4.3,2.2,5.5,4.3,10.5,4.5C171.4,227.8,173.3,224.2,172.1,223.5z M146.4,215.3
		c0.1,0.2,0.2,0.4,0.2,0.5C146.6,215.7,146.5,215.5,146.4,215.3z"/>
	<path class="st0" d="M172.4,144.7c0,0,2.1-2.4,0.4-3.6c-2.3-1.6-3.8,2.8-3.8,2.8L159,123c-2-1.6-6,1-6.7,3.6c0,0,0,0.1,0,0.1
		c2.2,4,11.6,22.3,14.1,24.4c4,3.3,8.3,2.9,8.3,1.8c0-1-4.2-3-4.2-3s4.6,0.6,4.6-0.4c0-1-3.6-1.7-3.6-1.7s5.1,0,5.1-1
		C176.5,145.8,172.4,144.7,172.4,144.7z"/>
	<path class="st3" d="M134.1,95.9c-4-2-7-0.2-9.4,2.5c-1.4,2-2.7,4.6-3.8,7.7c0,0,10.5,2.4,10.9,6.6c0.2,2.3,4.2-2.7,6.5-8.8
		C138.5,100.7,137,97.3,134.1,95.9z"/>
	<path class="st4" d="M152.3,163.8c1.9-0.4,3.8-0.7,5.7-0.9c-5.7-1.8-18.7-5.3-26.3-3c-9.9,2.9-7.2,6.4-7.2,6.4s6,6.6,14.1,7.4
		C139.1,167.3,146.8,164.9,152.3,163.8z"/>
	<path class="st5" d="M144.5,162.5c-5.3,1.9-4.7,5.2-7.3,10.7c8,1.4,15.3,17.6,12.8,29.5c0,0,7.1,5.2,10.7,5.9
		c0,0,10.1-19.4-5.9-45.1C153.8,163.9,145.7,162.1,144.5,162.5z"/>
	<path class="st0" d="M153.4,85.9c0.5-3.2,2.4-6.2,2.4-9.3c-1.4,0.6-2.6,1.9-3.7,2.8c-1.7,1.4-3.4,2.7-5.2,4.1
		c-1.7,1.4-0.4-3.2-2.2-2c-1.1,0.7-4-1.9-5.2-1.3c-0.3,8.5,0.1,9.7-3,11.3c-0.9,2.8-4.4,7.4-5.6,10.1c5.1,3,26.3,8.4,26.9-4.8
		C151.4,94.6,152.7,90.4,153.4,85.9z"/>
	<path class="st3" d="M162.9,99.6c-4.1-3.3-8.2-4.9-8.2-4.8c-0.2,0.4,2.6,5.7-3.6,6.3c-6.2,0.6-12.9-8.3-14.4-9.7c0,0-8.1,3.6-9.6,5
		c-2.9,5.8-0.7,10.6-1.2,16.9c-0.5,5.7,0.1,11.1,0,18.2c-1,10.5-2.2,28.9-1.1,34.6c2.4-0.6,2-1.1,7.1-2.1c4.8-0.9,10.1-1.4,14.9-0.9
		c3.6,0.4,11.7-0.3,14.3,1.1c3.2-4.6-0.5-20.4,1-33.1C162.6,126.4,167,103,162.9,99.6z"/>
	<path class="st0" d="M122.2,103.8l-0.5,0.8c0,0-9.7,20.5-9.2,21.4c0.7,2.2,1.4,2.3,3.5,2.8c0.5,0.1,2.4,0.1,3.1,0.1
		c2.6-3.3,9.7-13.6,12.3-16.5C135.3,108.3,122.2,103.8,122.2,103.8z"/>
	<path class="st0" d="M123.2,151.1c0,0,2.9-1.3,1.9-3.1c-1.4-2.4-4.6,0.9-4.6,0.9l-0.3-23.2c-1.2-2.3-5.8-1.6-7.6,0.5
		c0,0,0,0.1,0,0.1c0.3,4.6,1.1,25.1,2.5,28c2.2,4.7,6.3,6.1,6.7,5.1c0.4-0.9-2.6-4.5-2.6-4.5s4,2.5,4.4,1.6c0.4-0.9-2.6-3-2.6-3
		s4.6,2.2,5,1.2C126.5,153.8,123.2,151.1,123.2,151.1z"/>
	<path class="st0" d="M159.6,69.2c1.1-5.8-0.7-3.5-0.6-6.7c0.1-2.5,0.3-7.7-1.7-9.3c-2-1.5-4.5-2.3-7-2.8c-4.2-0.8-8.5-0.8-12.6,0.3
		c-2.4,0.6-5,1.7-6.3,3.9c-0.8,1.4-1.1,3-1.4,4.6c-1.2,7.9-2.7,14.6-2.2,22.6c0.1,2,0.6,5.3,1.8,6.9c1.7,2.1,4.6,2.7,7.3,3
		c1.6-0.6,3.1-1.7,4.5-2.6c1.9-1.2,3.7-2.7,5.6-4.1c1.8-1.3,3.6-2.6,5.4-4c0.8-0.7,1.8-1.4,2.8-1.8c0-0.3,0-0.6-0.1-0.8
		c1,0.1,1.6-1.1,1.6-2c0.1-1,0-2,0.6-2.8c0.4-0.5,1.1,0.2,1.5-0.3C160.7,71.1,159.3,70.9,159.6,69.2z"/>
	<path class="st6" d="M136.7,57.4c-0.1,0.5-0.3,0.9-0.6,1.3c-0.1,0.2,0.1,0.5,0.3,0.4c3.2-0.7,6.5-1.3,9.7-2c0.2,0,0.4,0.2,0.3,0.4
		c0,0,0,0,0,0c-0.1,0.3,0.2,0.5,0.5,0.3c2.2-1.7,5-2.7,7.8-2.8c0.2,0,0.3,0.1,0.3,0.3c-0.2,3.5-0.3,7-0.5,10.6
		c-0.1,2.1-0.2,4.1-0.8,6.1c-0.6,2.1-1.7,4.1-1.5,6.2c0,0.1,0.1,0.2,0.2,0.2c1.4,0.7,2.9-1.1,3.5-2.6c1-2.6,1.7-5.4,2.1-8.1
		c0-0.2,0.2-0.3,0.3-0.2c1.3,0.1,2-1.7,2.2-3.1c0.3-3.5,0.6-7,0.9-10.6c0-0.2,0.2-0.3,0.4-0.2c0,0,0,0,0,0c0.3,0.1,0.5-0.2,0.4-0.4
		c-0.5-0.8-0.8-1.5-1.4-2.4c-0.2-0.3-0.5-0.7-0.9-0.7c-0.4,0.1-0.2,0.9,0.1,0.6c-1.5-3-4.9-4.6-8.1-5.9c-0.5-0.2-1-0.4-1.5-0.1
		c-0.4,0.2-0.4,1.1,0.1,1.1c-2.5-3.7-8.4-4.4-11.7-1.4c-1.4,1.3-2.4,3.1-4.1,3.7c-0.9,0.3-2.1,0.3-2.6,1.1c-0.2,0.4-0.3,0.9-0.4,1.3
		c-0.2,0.7-0.5,1.3-0.8,1.9c-0.8,1.6-3.8,8-1.5,9c2,0.8,5.1-2.2,6.6-4.3C136.4,56.9,136.8,57.1,136.7,57.4z"/>
	<path class="st6" d="M157.8,72.8c-0.4,2.1-1,4.1-1.9,6c-0.9,1.9-1.5,4.3-3.4,5.3c-1.4,0.8-1.7,2.1-2.8,3.3
		c-0.3,0.4-1.3,0.1-1.6,0.5c-0.8,1.1-1.9,1.8-3,2.6c-1,0.7-3.5,0.5-4.6,1.1c-0.2,0.1-0.4,0.3-0.7,0.4c-0.7,0.2-1.5,0-2.1,0.2
		c-0.5,0.1-1,0.2-1.5,0c-1.4-0.5-3.8-0.1-5.3-1.3c-0.8-0.7-1.6-1.9-1.9-2.9c-1-3.2-1.3-6.3-1.3-9.7c0.7,0.6,1.9,0.4,2.4-0.4
		c0.3-0.4,0.4-0.8,0.7-1.1c0.4-0.3,0.9-0.3,1.4-0.2c1.9,0.1,3.7,0.2,5.6,0.4c0.4,0,0.9,0.1,1.2,0.4c0.5,0.5,0.3,1.5,0.8,2.1
		c0.3,0.3,0.6,0.3,1,0.4c2.2,0.4,4.4,0.4,6.5,0c1.1-0.2,2.1-0.4,3-1c1.8-1.1,2.8-3.3,3.4-5.3c1.2-3.7,2-7.6,2.3-11.5
		c0.1-0.7,0.7-2.9,1.8-1.7c0.6,0.6,0.6,2.9,0.7,3.7C158.9,67,158.4,69.9,157.8,72.8z"/>
	<path class="st7" d="M141,73.4c0.2-0.1,0.3-0.3,0.4-0.6c0.4-0.9,0.8-2.2-0.1-3c-1.2-1.1-2.1,0.8-2.2,1.8
		C139,72.8,140.1,74.1,141,73.4z"/>
	<path class="st7" d="M131.8,72.6c0.2-0.1,0.3-0.3,0.4-0.6c0.4-0.9,0.8-2.2-0.1-3c-1.2-1.1-2.1,0.8-2.2,1.8
		C129.9,71.9,130.9,73.3,131.8,72.6z"/>
</g>
</svg>
