<?xml version="1.0" encoding="utf-8"?>
<!-- Generator: Adobe Illustrator 22.1.0, SVG Export Plug-In . SVG Version: 6.00 Build 0)  -->
<svg version="1.1" id="Capa_1" xmlns="http://www.w3.org/2000/svg" xmlns:xlink="http://www.w3.org/1999/xlink" x="0px" y="0px"
	 viewBox="0 0 283.5 283.5" style="enable-background:new 0 0 283.5 283.5;" xml:space="preserve">
<style type="text/css">
	.st0{fill:#231F20;}
	.st1{fill:#00984A;}
	.st2{fill:#87CEE1;}
	.st3{fill:#EE88B6;}
	.st4{fill:#83231F;}
</style>
<g>
	<path class="st0" d="M119.5,174.5c-0.1,0-0.3,0-0.4,0.1c-1.9,0.7-1.9,0.7-2.1-1.3c-0.7-5.9-0.5-11.9-0.4-17.8
		c0.1-6.3,0.6-12.7,0.9-19c0.3-5-0.1-10-0.4-15c0.1-0.4,0.3-0.7,0.5-1.1c1.7-2.2,3.3-4.4,5.2-6.5c0.6-0.7,0.6-1.1,0.1-1.8
		c-0.8-1.2-2-2.1-3.3-2.8c-2.7-1.6-5.6-2.5-8.6-3.4c1.4-4.1,3.2-7.9,6.6-10.9c3.4-3,7.5-4.5,11.3-6.6c0.2-0.1,0.4-0.1,0.7-0.1
		c0.7,0.8,1.4,1.6,2.2,2.4c2.7,2.8,5.4,5.4,8.9,7.2c2.3,1.2,4.8,1.7,7.4,0.8c2.2-0.7,3.1-2.3,2.7-4.5c-0.1-0.8-0.4-1.6-0.5-2.4
		c0.7-0.1,1.3,0.3,1.8,0.6c2.8,1.2,5.3,2.8,7.7,4.6c1.3,1,1.6,2.5,1.9,4c0.5,2.6,0.6,5.2,0.5,7.8c-0.1,1.8,0.4,3.5,0.8,5.1
		c0.2,0.7,0,0.9-0.6,0.9c-0.8,0-0.5,0.6-0.6,1c-0.4,4.7-1,9.4-1.6,14.1c-0.4,3.1-0.8,6.2-0.6,9.3c-0.1,5.7,0.5,11.5,0.9,17.2
		c0.3,4.1,0.7,8.2,0.1,12.2c-0.1,0.8-0.3,1.6-0.6,2.4c-0.3,0.8-0.7,1.2-1.5,0.7c-1.3-0.4-2.6-0.5-4-0.5c-4.5-0.1-9,0.1-13.5-0.2
		c-5.5-0.4-11,0.4-16.4,1.6C122.9,173.2,121.1,173.6,119.5,174.5z"/>
	<path class="st1" d="M119.5,174.5c1.6-1,3.4-1.3,5.1-1.7c5.4-1.2,10.9-2,16.4-1.6c4.5,0.3,9,0.1,13.5,0.2c1.3,0,2.7,0.1,4,0.5
		c0.7,2.5,1.5,4.9,2,7.4c1,4.7,1.5,9.4,1.1,14.3c0,0.7,0,1.4,0,2.1c0.2,2.4,0,4.7-0.9,7c-0.2,0.5-0.2,1,0,1.5
		c2.8,7.8,5.9,15.5,8.5,23.3c0.1,0.2,0.1,0.4,0.2,0.6c0.5,1.2,0.3,2.1-0.8,2.8c-0.6,0.2-1.2,0.4-1.7,0.6c-0.9,0.1-1.8,0.3-2.7,0.4
		c-2.4,0.3-4.8,0.1-7.2,0.2c-0.1,0-0.2-0.1-0.3-0.1c-2,0.3-2.6-0.8-3.2-2.5c-2.3-7.2-4.8-14.3-6.5-21.6c-0.8-3.6-1.9-7-4.1-10
		c-0.8-1-0.7-1-1.4,0.1c-0.6,0.9-1.2,1.6-1.8,2.5c-6.9,9.6-15.1,17.9-23.5,26c-0.5,0.5-0.9,0.4-1.4,0.1c-0.7-0.9-1.6-1.3-2.7-1.6
		c-1-0.7-2.1-1.2-3-2c-1.3-1.2-2.6-2.4-3.6-3.8c0-0.1,0.1-0.2,0-0.3c-0.8-1.4,0-2,1-2.9c3.6-3.3,6.8-7,10-10.7
		c3.9-4.3,7.2-9.1,11-13.5c1-1.2,2.3-2.2,3.2-3.6c0.3-0.6,0.3-0.8-0.3-1.2c-1.6-1.1-3.2-2.2-4.9-3.2c-2.6-1.5-4.1-3.9-5.2-6.6
		C120,176.4,119.8,175.5,119.5,174.5z"/>
	<path class="st2" d="M123.3,57.2c-0.6-2.6,0-5.2,0.1-7.8c0.1-2.3,0.3-4.5,0.5-6.8c0-0.3,0.1-0.6-0.2-0.7c-0.8-0.3-0.5-0.7-0.2-1.1
		c0.3-0.4,0.7-0.9,1.1-1.3c0.6-0.6,1.1-1.5,2.1-1.4c0.1,0,0.3-0.2,0.4-0.3c2.1-1.8,4.5-2.9,7.2-3.5c0.8-0.2,1.5-0.4,2.3-0.6
		c0.4-0.1,0.9-0.3,1.2,0c0.8,0.7,1.4,0.1,2.1-0.2c4.1-2.1,9.6-1.1,12,2.9c0.4,0.6,0.8,1.2,1.2,1.8c0.8,1.4,1.9,2.4,3.4,3
		c1.3,0.5,2,1.3,1.8,2.8c-0.1,0.7,0.3,1.4,0.5,2.1c0.8,2.8,1.6,5.6,1.5,8.6c-0.1,1-0.3,1.9-1.4,2.4c-1.2,0-2.1-0.5-2.9-1.3
		c-1.4-1.2-2.5-2.7-3.4-4.3c-0.2-0.3-0.3-0.8-0.7-0.7c-0.5,0.2-0.1,0.7-0.1,1c0,0,0,0.1,0,0.1c0,0.3,0.4,0.7,0,1
		c-0.3,0.3-0.7,0-1-0.1c-3.1-1.2-6.3-2.4-9.4-3.6c-0.3-0.1-0.8-0.5-1,0c-0.4,0.9-0.8,0.4-1.1,0c-2-2-4.4-3.4-7.2-4.1
		c-0.7-0.2-1.1-0.1-1.2,0.7c-0.3,2.4-0.6,4.8-0.9,7.1c-0.3,2.4-0.6,4.8-0.8,7.3c-0.3,2.9,0.3,5.7,0.7,8.5c0.3,2.6,1.7,4.2,3.9,5.2
		c2.7,1.2,5.6,1.7,8.6,1.7c1.1,0,1.9-0.4,2.2-1.4c0.3-1,0.9-1.3,1.9-1.2c2.3,0.2,4.7,0.4,7,0.7c0.7,0.1,1.3,0.5,1.6,1.2
		c0.7,1.7,1,1.9,2.9,1.7c-0.6,3.7-1.5,7.4-3.3,10.8c-1.2,2.2-2.9,3.6-5.5,3.6c-1.3,0-2.6-0.1-3.9-0.2c-1.4,0-2.9-0.4-4.1-1.2
		c-0.7-0.5-1.4-1-2.2-1.1c-2.8-0.6-4.7-2.2-6.1-4.6c-0.2-0.3-0.3-0.5-0.7-0.5c-1.1-0.3-1.6-1.1-1.9-2.1c-0.5-1.2-1.1-2.3-2.1-3.1
		c-1.1-0.9-1.5-2.4-1.9-3.7c-0.8-3.1-1.7-6.1-1.7-9.3c0-1.5-0.3-3-0.1-4.4C124.8,59.2,124.5,58.1,123.3,57.2z"/>
	<path class="st3" d="M158,76.6c-1.9,0.2-2.2,0-2.9-1.7c-0.3-0.7-0.8-1.1-1.6-1.2c-2.3-0.2-4.7-0.4-7-0.7c-0.9-0.1-1.6,0.3-1.9,1.2
		c-0.3,1.1-1,1.4-2.2,1.4c-3,0-5.8-0.5-8.6-1.7c-2.2-1-3.6-2.6-3.9-5.2c-0.3-2.8-0.9-5.7-0.7-8.5c0.2-2.4,0.5-4.8,0.8-7.3
		c0.3-2.4,0.6-4.8,0.9-7.1c0.1-0.9,0.4-0.9,1.2-0.7c2.8,0.8,5.2,2.1,7.2,4.1c0.4,0.4,0.7,0.9,1.1,0c0.2-0.5,0.6-0.1,1,0
		c3.1,1.2,6.3,2.4,9.4,3.6c0.3,0.1,0.7,0.4,1,0.1c0.4-0.3,0-0.7,0-1c0,0,0-0.1,0-0.1c0-0.4-0.4-0.8,0.1-1c0.4-0.2,0.5,0.4,0.7,0.7
		c1,1.6,2,3.1,3.4,4.3c0.8,0.7,1.8,1.3,2.9,1.3c-0.1,3.9,0,7.7-0.2,11.6C158.7,71.2,158.4,73.9,158,76.6z M153.7,66.6
		c0,0.8,0.1,1.4,0.3,1.9c0.4,1.2,1.3,1.3,2.2,0.5c0.8-0.8,1-2.1,0.4-3.3c-0.2-0.5-0.5-1-1.2-1c-0.7,0-1.2,0.4-1.5,1
		C153.8,66.1,153.7,66.5,153.7,66.6z M146.3,66.6c0-0.7-0.1-1.1-0.2-1.6c-0.3-0.6-0.6-1.2-1.3-1.1c-0.7,0-1.2,0.5-1.4,1.2
		c-0.3,0.7-0.2,1.4-0.1,2c0.2,0.7,0.3,1.6,1.2,1.6c1,0,1.4-0.7,1.7-1.5C146.3,67,146.3,66.7,146.3,66.6z"/>
	<path class="st3" d="M111.1,106c2.9,0.9,5.9,1.8,8.6,3.4c1.3,0.7,2.4,1.6,3.3,2.8c0.5,0.7,0.5,1.2-0.1,1.8c-1.9,2-3.5,4.3-5.2,6.5
		c-0.2,0.3-0.4,0.7-0.5,1.1c-0.9,0.5-1.3,1.4-1.9,2.2c-2,2.6-4,5.2-6,7.9c-0.8,1.1-1.2,2.5-1.7,3.8c-2.3,6-4.6,11.9-6.9,17.9
		c-0.1,0.3-0.4,0.6-0.1,0.9c0.2,0.2,0.6,0.1,0.8,0c0.7-0.3,1.5-0.3,2.2-0.3c0.9,0.1,1.5,0.6,1.7,1.5c0.2,1-0.1,1.8-1,2.2
		c-0.4,0.2-0.8,0.4-1.2,0.4c-0.8,0.1-0.8,0.5-0.5,1.1c0.5,1,0.9,2,1.1,3.2c0.1,0.4,0.2,0.8-0.2,1c-0.4,0.3-0.7,0.1-1.1-0.1
		c-0.6-0.3-1.2-0.8-1.7-1.3c-0.3-0.3-0.6-0.6-1.2-0.7c0.2,0.6,0.4,1.1,0.6,1.6c0.2,0.5,0.4,1.1-0.2,1.4c-0.5,0.3-1-0.2-1.3-0.5
		c-0.6-0.6-1.1-1.2-1.7-1.8c-0.1-0.1-0.3-0.2-0.5-0.4c0,0,0-0.1,0-0.1c0,0,0,0-0.1,0c0,0,0.1,0.1,0.1,0.1c0,1,0.4,1.9,0.5,2.9
		c0.1,0.7,0.5,1.7-0.4,2.1c-0.8,0.4-1.4-0.4-1.9-0.9c-2.7-3.2-3.6-6.8-2.5-10.9c2-7.7,4.6-15.3,7.1-22.9c1.9-5.7,4.6-11.1,7.1-16.6
		c1.3-2.9,2.7-5.7,4.1-8.6C110.9,106.5,111,106.2,111.1,106z"/>
	<path class="st4" d="M112.1,225.1c1,0.3,2,0.7,2.7,1.6c0.4,4.6,1.4,9.1,3.2,13.3c0.2,0.5,0.5,0.8,1,1.1c2.1,1.2,3.2,3.1,3.1,5.6
		c-0.1,1,0.4,2-0.6,2.9c-1,0.9-2.2,1.3-3.5,1.3c-3.5,0.1-6.4-1.5-8.9-3.7c-1.1-0.9-1.9-2.1-2.7-3.3c-2.1-2.8-4.3-5.5-7.4-7.4
		c-1.9-1.2-3.6-2.7-5-4.5c-0.4-0.5-0.7-1.1-0.8-1.7c-0.2-0.8,0.1-1.3,0.6-1.9c2-2.5,4.6-4.3,6.7-6.7c0.8-0.9,1.7-1.5,2.7-2.1
		c0.7-0.4,1.3,0,1.8,0.2c0.4,0.5,0.4,1.1,0.3,1.8c-0.3,1.4,0.3,2.5,1.4,3.3C108.4,226,110.2,225.8,112.1,225.1z"/>
	<path class="st4" d="M166.9,231.5c0.6-0.2,1.2-0.4,1.7-0.6c4.1,1.5,8.4,2.5,12.8,2.6c0.6,0,1.1-0.1,1.6-0.4c2-1.3,4-1.4,6.1-0.3
		c2.3,1.2,2.7,2.4,1.8,4.9c-1.1,3.1-3.6,4.9-6.4,6.2c-1.5,0.7-3.2,0.9-4.9,1.3c-3.2,0.7-6.3,1.6-9.1,3.5c-1.7,1.1-3.5,1.9-5.6,2.3
		c-0.6,0.1-1.2,0.2-1.9,0c-0.6-0.1-1-0.5-1.2-1.1c-1.3-2.8-1.9-5.9-3.2-8.7c-0.4-0.8-0.5-1.7-0.6-2.6c-0.1-0.8,0.1-1.5,0.9-1.9
		c0.7-0.1,1.2,0.2,1.7,0.6c1,0.7,2,0.7,3.1,0.1c1.5-0.8,2.3-2.1,2.6-3.7C166.6,232.9,166.7,232.2,166.9,231.5z"/>
	<path class="st3" d="M159.6,139.4c-0.1-3.1,0.2-6.2,0.6-9.3c0.6-4.7,1.2-9.4,1.6-14.1c0-0.4-0.2-1,0.6-1c0.5,3.9,1.5,7.6,2.6,11.4
		c0.6,2.3,1.3,4.6,2,6.9c0.3,1.1,0.9,1.9,1.5,2.8c3.3,5.1,6.6,10.1,9.8,15.2c0.5,0.8,1,1,1.8,0.7c1.1-0.4,2.2-0.7,3.1-1.2
		c0.8-0.5,1-0.1,1.1,0.6c0.1,0.8-0.1,1.6-0.2,2.4c-0.1,0.6,0.1,0.8,0.6,0.7c1.5-0.1,3-0.3,4.5,0c0.3,0,0.5,0,0.8,0.1
		c0.3,0.1,0.6,0.2,0.6,0.5c0,0.4-0.2,0.5-0.5,0.7c-1,0.5-2,0.9-3,1.2c-0.7,0.2-1.4,0.4-2,0.7c1.2,0.1,2.3,0.2,3.5,0.4
		c0.3,0.1,0.8,0.1,0.8,0.6c0,0.5-0.4,0.6-0.8,0.7c-1.4,0.5-2.8,0.6-4.2,0.9c0.1,0.4,0.5,0.4,0.7,0.5c0.8,0.3,1.6,0.5,2.3,0.9
		c0.3,0.2,0.8,0.4,0.6,0.9c-0.1,0.4-0.6,0.4-0.9,0.4c-2,0.1-4-0.3-6-0.2c-3.1,0.1-4.8-2-6.6-4c-4.9-5.6-9.1-11.7-13.6-17.6
		C160.5,140.5,160.2,139.9,159.6,139.4z"/>
	<path class="st3" d="M132.2,83.4c0.4,0,0.5,0.2,0.7,0.5c1.4,2.4,3.3,4,6.1,4.6c0.8,0.2,1.5,0.7,2.2,1.1c1.2,0.8,2.7,1.2,4.1,1.2
		c1.3,0,2.6,0.2,3.9,0.2c0.2,0.5,0.5,0.9,1.1,1c0.2,0.8,0.4,1.6,0.5,2.4c0.4,2.2-0.6,3.8-2.7,4.5c-2.6,0.9-5,0.4-7.4-0.8
		c-3.5-1.8-6.2-4.4-8.9-7.2c-0.8-0.8-1.5-1.6-2.2-2.4c0.1-0.1,0.1-0.2,0.2-0.3C131.7,87.1,132.2,85.3,132.2,83.4z"/>
	<path class="st3" d="M166.9,231.5c-0.3,0.7-0.4,1.4-0.5,2.1c-0.3,1.7-1.1,2.9-2.6,3.7c-1.1,0.6-2.1,0.6-3.1-0.1
		c-0.5-0.4-1.1-0.7-1.7-0.6c-0.7-1.5-1.4-3-2.1-4.5c2.4-0.1,4.8,0.1,7.2-0.2C165.1,231.8,166,231.6,166.9,231.5z"/>
	<path class="st3" d="M112.1,225.1c-1.9,0.8-3.7,0.9-5.5-0.3c-1.2-0.8-1.7-1.9-1.4-3.3c0.1-0.6,0.1-1.2-0.3-1.8
		c0.2-0.2,0.4-0.3,0.7-0.5c1,1.4,2.3,2.6,3.6,3.8C110,223.9,111.1,224.4,112.1,225.1z"/>
	<path class="st3" d="M123.3,57.2c1.2,0.9,1.5,2,1.2,3.5c-0.2,1.4,0,3,0.1,4.4c-1.3,0-2.6-1.5-2-2.7C123.4,60.7,123,58.9,123.3,57.2
		z"/>
	<path class="st0" d="M153.7,66.6c0-0.1,0-0.6,0.2-1c0.3-0.6,0.8-1,1.5-1c0.7,0,1,0.5,1.2,1c0.5,1.2,0.4,2.5-0.4,3.3
		c-0.9,0.9-1.8,0.7-2.2-0.5C153.8,68,153.8,67.5,153.7,66.6z"/>
	<path class="st0" d="M146.3,66.6c0,0.1,0,0.4-0.1,0.6c-0.3,0.8-0.7,1.6-1.7,1.5c-1,0-1.1-0.9-1.2-1.6c-0.2-0.7-0.2-1.4,0.1-2
		c0.3-0.7,0.7-1.1,1.4-1.2c0.8,0,1.1,0.5,1.3,1.1C146.2,65.4,146.3,65.9,146.3,66.6z"/>
</g>
</svg>
