<?xml version="1.0" encoding="utf-8"?>
<!-- Generator: Adobe Illustrator 22.1.0, SVG Export Plug-In . SVG Version: 6.00 Build 0)  -->
<svg version="1.1" id="Capa_1" xmlns="http://www.w3.org/2000/svg" xmlns:xlink="http://www.w3.org/1999/xlink" x="0px" y="0px"
	 viewBox="0 0 283.5 283.5" style="enable-background:new 0 0 283.5 283.5;" xml:space="preserve">
<style type="text/css">
	.st0{fill:#231F1F;}
	.st1{fill:#00984A;}
	.st2{fill:#87CEE1;}
	.st3{fill:#EE88B6;}
	.st4{fill:#83231F;}
</style>
<g>
	<path class="st0" d="M162.1,132.3c-0.4,4.9-0.1,9.8,0.2,14.7c0.4,5.4,1.1,10.8,1,16.2c0,2.3-0.1,4.6-1.4,6.6
		c-1.4-0.5-2.9-0.7-4.5-0.8c-4.6-0.2-9.2,0.2-13.9-0.2c-4.7-0.3-9.3,0.3-13.9,1.2c-2.9,0.6-5.8,1.1-8.4,2.6
		c-1.6,0.5-1.7,0.5-1.9-1.3c-0.6-4.2-0.6-8.5-0.5-12.7c0-4.1,0.1-8.2,0.3-12.4c0.2-3.7,0.3-7.4,0.6-11.1c0.3-4.3-0.1-8.5-0.2-12.7
		c-0.1-1.6-0.2-3.2-0.2-4.8c0.1-0.3,0.3-0.7,0.5-0.9c1.5-1.7,2.9-3.4,4.5-4.9c0.5-0.5,0.6-0.9,0.2-1.5c-0.6-1-1.3-1.8-2.2-2.5
		c-2.8-2.1-6-3.4-9.3-4.6c0-0.1-0.1-0.2,0-0.3c1.5-3.4,3.3-6.7,6-9.4c3.4-3.4,7.8-5.1,12-7.2c0.2-0.1,0.4-0.1,0.6-0.1
		c1.6,2,3.4,3.7,5.3,5.4c2.2,2,4.6,3.7,7.4,4.8c2.2,0.8,4.3,0.8,6.5-0.1c1.4-0.6,2.2-1.8,2.2-3.4c0-1.1-0.3-2.1-0.6-3.2
		c0.2-0.4,0.5-0.1,0.8,0c3.3,1.2,6.3,3.1,9.1,5.2c1.1,0.9,1.4,2.3,1.7,3.6c0.4,1.8,0.6,3.6,0.6,5.4c0,1.4,0.2,2.8,0.8,4.1
		c0.4,1.1,0.8,2.2,1.2,3.3c0.2,0.6,0.1,0.9-0.5,1c-0.7,0.2-1.7-0.3-1.7,1c-0.2,3.8-0.7,7.5-1.1,11.3
		C162.6,127.1,162.1,129.6,162.1,132.3z"/>
	<path class="st1" d="M121.4,172.6c2.6-1.4,5.5-2,8.4-2.6c4.6-0.9,9.2-1.5,13.9-1.2c4.6,0.3,9.2,0,13.9,0.2c1.5,0.1,3,0.2,4.5,0.8
		c1.5,5.3,2.1,10.8,2,16.3c0,2.7-0.3,5.5-0.7,8.2c-0.2,1.1-0.2,2.3-0.2,3.5c0,1.2-0.1,2.4-0.5,3.5c-0.7,1.5-0.4,3-0.2,4.5
		c1.2,7.6,3,15,4.5,22.5c-0.1,0.2-0.1,0.4,0.1,0.5c0,0.2,0.1,0.4,0.1,0.6c-0.1,0.2-0.1,0.4,0.1,0.6c0,0.2,0,0.4,0,0.7
		c-0.1,0.1-0.2,0.2-0.1,0.4c-0.4,0.6-1,0.9-1.7,1.1c-1.3,0.1-2.5,0.2-3.8,0.3c-2.4-0.1-4.8-0.5-7.2-0.7c-0.7-0.3-1.4-0.4-2.1-0.5
		c-0.6-0.1-0.8-0.4-0.9-0.9c-1.5-7.7-2.9-15.4-3.9-23.2c-0.5-4.4-2-8.4-4.7-11.9c-0.5-0.6-0.7-0.6-1.2,0c-2.5,3-5.1,5.9-8.1,8.3
		c-2.3,1.9-5.2,3-7.9,4.3c-5.9,2.8-11.9,5.4-17.9,7.9c-0.7,0.3-1.3,0.4-1.8-0.3c-0.1-1.1-0.9-1.8-1.7-2.4c-1.9-2.4-3.4-4.9-3.9-8
		c-0.3-1.8,1-2.1,2.3-2.6c5.6-2.2,10.9-5,16.2-7.8c0.9-0.5,1.7-1,2.6-1.4c2.1-1.1,4.1-2.4,5.6-4.3c1-1.2,2.3-2.3,3.6-3.3
		c0.5-0.4,0.5-0.6-0.1-1c-1-0.6-2.1-1-3-1.8c-3.1-2.4-4.9-5.7-5.9-9.5C121.6,173.2,121.5,172.9,121.4,172.6z"/>
	<path class="st2" d="M124.7,55.4c-0.6-3.1,0-6.2,0.1-9.2c0.1-1.8,0.2-3.6,0.2-5.4c0-0.2,0.1-0.6-0.2-0.7c-1-0.3-0.4-0.8-0.1-1.1
		c0.5-0.7,1.1-1.4,1.7-2.2c0.1-0.1,0.2-0.3,0.4-0.3c1.8-0.2,2.7-2,4.3-2.7c2.3-1,4.6-1.7,7-2.3c0.2,0,0.5-0.1,0.6,0
		c0.9,1,1.5,0.1,2.2-0.3c3.8-2.1,9.5-1.5,12.4,3.1c1.2,2,2.6,3.7,5,4.4c0.6,0.2,1.2,0.8,1.2,1.5c0.1,2.1,1,3.9,1.5,5.9
		c0.5,2,0.9,3.9,0.8,5.9c-0.1,1-0.4,1.8-1.4,2.2c-1.4,0.1-2.4-0.6-3.3-1.5c-1.3-1.2-2.4-2.7-3.3-4.2c-0.1-0.2-0.2-0.5-0.6-0.4
		c-0.2,0.1-0.2,0.4-0.1,0.6c0,0.2,0.1,0.4,0.2,0.6c0.1,0.3,0.4,0.7,0,1c-0.3,0.3-0.7,0-1-0.1c-3.1-1.1-6.2-2.3-9.3-3.4
		c-0.3-0.1-0.8-0.4-1-0.1c-0.6,1-1.1,0.3-1.5-0.1c-2-1.8-4.4-3-7-3.7c-0.8-0.2-1.2,0-1.2,0.9c0,1.5-0.3,3.1-0.4,4.6
		c-0.3,3.4-0.6,6.8-0.9,10.1c-0.2,2.8,0.6,5.4,0.9,8.1c0.3,2.4,1.6,3.9,3.6,4.9c2.8,1.3,5.8,1.7,8.9,1.8c1.1,0,1.8-0.4,2.1-1.5
		c0.2-0.9,0.8-1.4,1.8-1.3c2.3,0.2,4.5,0.3,6.8,0.5c0.9,0.1,1.5,0.4,1.9,1.3c0.6,1.5,1.3,1.9,2.9,1.4c-0.5,3.6-1.3,7.2-2.9,10.6
		c-1.2,2.4-2.9,4.1-5.8,4c-1.1-0.1-2.2-0.1-3.4,0c-1.5,0.1-3-0.4-4.3-1c-0.9-0.5-1.8-1.1-2.8-1.3c-2.5-0.4-4.1-2.1-5.5-4
		c-0.2-0.3-0.3-0.7-0.8-0.7c-1.2-0.3-1.7-1.3-2.1-2.4c-0.4-1.1-1.1-2-2-2.7c-0.8-0.6-1.2-1.4-1.5-2.3c-1.2-3.5-2.2-7-2.5-10.7
		c0-1.7-0.4-3.3-0.1-5C126.2,56.8,125.6,56.1,124.7,55.4z"/>
	<path class="st3" d="M159.8,73.8c-1.6,0.5-2.4,0.1-2.9-1.4c-0.3-0.9-1-1.3-1.9-1.3c-2.3-0.2-4.5-0.3-6.8-0.5
		c-1-0.1-1.6,0.4-1.8,1.3c-0.3,1.1-1,1.5-2.1,1.5c-3.1,0-6.1-0.4-8.9-1.8c-2-1-3.3-2.5-3.6-4.9c-0.3-2.7-1.1-5.4-0.9-8.1
		c0.3-3.4,0.6-6.8,0.9-10.1c0.1-1.5,0.4-3.1,0.4-4.6c0-1,0.4-1.1,1.2-0.9c2.6,0.7,5,1.8,7,3.7c0.4,0.4,0.8,1.2,1.5,0.1
		c0.2-0.3,0.7,0,1,0.1c3.1,1.1,6.2,2.2,9.3,3.4c0.3,0.1,0.7,0.4,1,0.1c0.4-0.3,0-0.7,0-1c0-0.2-0.1-0.4-0.2-0.6
		c0-0.2-0.1-0.5,0.1-0.6c0.3-0.2,0.5,0.2,0.6,0.4c0.9,1.5,2,3,3.3,4.2c0.9,0.9,2,1.6,3.3,1.5c0.1,2.5,0.1,5,0.2,7.5
		C160.5,65.8,160.2,69.8,159.8,73.8z M144.7,63.6c0,0.6,0.2,1.5,0.4,1.9c0.4,1,1.3,1.1,2,0.4c0.9-0.9,1.1-2.3,0.4-3.6
		c-0.6-1.1-1.8-1.2-2.5-0.1C144.8,62.7,144.7,63.2,144.7,63.6z M158.6,64.6c0-0.6-0.1-1-0.3-1.5c-0.3-0.5-0.6-1.1-1.3-1
		c-0.7,0-1.2,0.5-1.4,1.2c-0.2,0.6-0.2,1.3-0.1,1.9c0.2,0.8,0.3,1.7,1.4,1.8c0.7,0,1.6-0.9,1.7-1.9
		C158.6,64.8,158.5,64.6,158.6,64.6z"/>
	<path class="st3" d="M113.1,103.2c3.3,1.1,6.5,2.4,9.3,4.6c0.9,0.7,1.7,1.5,2.2,2.5c0.3,0.6,0.3,1-0.2,1.5
		c-1.6,1.5-3.1,3.3-4.5,4.9c-0.2,0.3-0.4,0.6-0.5,0.9c-1.3,0.9-2.1,2.2-3,3.3c-2.2,2.5-4.3,5-6.4,7.5c-1.1,1.3-1.5,2.9-2.2,4.4
		c-2.6,5.9-5.2,11.8-7.7,17.8c-0.1,0.2-0.3,0.5-0.2,0.8c1-0.2,2-0.4,3-0.3c1,0.1,1.7,0.7,1.9,1.6c0.2,1-0.2,1.8-1.2,2.2
		c-0.4,0.2-0.9,0.3-1.3,0.4c-0.7,0.1-0.8,0.4-0.5,0.9c0.5,1,0.8,2,1,3.1c0.1,0.4,0.2,1-0.3,1.3c-0.5,0.3-0.9-0.1-1.3-0.4
		c-0.8-0.6-1.5-1.3-2.3-2c-0.1,0.7,0.3,1.2,0.4,1.8c0.1,0.5,0.3,1-0.2,1.3c-0.5,0.3-0.9-0.2-1.2-0.5c-0.8-0.7-1.4-1.6-2.2-2.4
		c0.2,1,0.3,2,0.5,3c0.1,0.7,0.3,1.6-0.4,2c-0.8,0.4-1.4-0.3-1.8-0.9c-2.5-3.1-3.4-6.6-2.3-10.5c1.8-6.4,4.2-12.5,6.5-18.7
		c1.1-2.8,2-5.6,3.2-8.3c1.4-3.3,3.1-6.4,4.8-9.5C108.5,111.5,110.8,107.3,113.1,103.2z M98.7,157.9L98.7,157.9L98.7,157.9
		L98.7,157.9z"/>
	<path class="st4" d="M104.2,213.1c0.9,0.6,1.6,1.3,1.7,2.4c-1.4,4.3-2.1,8.8-2.2,13.3c0,0.7,0.2,1.2,0.6,1.7
		c1.4,1.8,1.6,3.8,0.8,5.9c-0.2,0.6-0.5,1.1-0.7,1.7c-0.2,0.7-0.9,1-1.6,1.1c-2.2,0.4-4.1-0.4-5.8-1.7c-3.1-2.4-4.7-5.7-5.5-9.5
		c-0.8-3.5-1.9-6.8-4-9.8c-1.3-1.8-2.3-3.8-2.8-6.1c-0.1-0.6-0.2-1.2-0.1-1.8c0.1-0.8,0.4-1.4,1.3-1.5c1.2-0.2,2-1.1,3.1-1.5
		c2.1-0.8,4.3-1.4,6.4-2.5c0.8-0.5,1.8-0.5,2.7-0.6c0.7-0.1,1.1,0.3,1.5,0.8c0.2,0.7,0,1.3-0.3,1.9c-0.9,1.4-0.6,2.7,0.4,4
		C100.7,212.7,102.3,213.1,104.2,213.1z"/>
	<path class="st3" d="M162.1,132.3c0-2.6,0.6-5.2,0.8-7.7c0.4-3.8,0.9-7.5,1.1-11.3c0.1-1.3,1.1-0.8,1.7-1c0.5,2.6,1.4,5.2,2.3,7.7
		c1.2,3.3,2.6,6.6,3.8,9.9c0.3,1,1,1.6,1.6,2.3c4.1,4.4,8.3,8.7,12.5,13.1c0.7,0.7,1.3,0.9,2.1,0.3c0.9-0.6,2-1.1,2.8-1.8
		c0.6-0.5,0.9-0.2,1.1,0.3c0.2,0.7,0.3,1.5,0.2,2.3c0,0.7,0.2,1,0.9,0.7c1.4-0.4,2.9-0.6,4.4-0.9c0.1,0,0.3,0,0.4,0
		c0.4,0,0.9-0.1,1.1,0.4c0.2,0.5-0.3,0.7-0.6,0.9c-1.1,0.8-2.3,1.5-3.5,2.2c-0.2,0.1-0.5,0.2-0.6,0.5c0.8,0.3,1.5-0.1,2.2-0.1
		c0.4,0,0.8-0.1,1.2,0c0.3,0.1,0.8,0,0.9,0.4c0,0.4-0.4,0.6-0.7,0.8c-1,0.6-2.1,0.9-3.2,1.3c-0.3,0.1-0.7,0.1-0.9,0.6
		c0.9,0.1,1.7,0.2,2.5,0.3c0.6,0.1,1.6,0.2,1.6,0.9c0,0.7-0.9,0.6-1.5,0.8c-2.3,0.6-4.6,0.6-6.9,0.9c-1.2,0.1-2.2-0.6-3.2-1.2
		c-2.9-1.9-5.5-4.2-8.1-6.5c-4.1-3.7-8.2-7.5-12.3-11.2c-1.3-1.2-2.1-2.8-3-4.2C162.5,132.7,162.4,132.4,162.1,132.3z"/>
	<path class="st4" d="M165.2,232.7c2.2,1.2,4.1,2.7,6.4,3.8c2,1,4,1.9,6.1,2.5c0.5,0.1,0.9,0.2,1.3,0c2.4-0.9,4.4-0.3,6.2,1.4
		c0.6,0.6,1.4,0.9,1.4,1.9c0,1.2-0.3,2.2-1,3.1c-2,2.7-4.9,3.9-8.1,4.3c-0.9,0.1-1.8,0.1-2.7,0.1c-4.4-0.3-8.7-0.4-12.9,1
		c-1.3,0.4-2.8,0.6-4.2,0.5c-0.8,0-1.7-0.1-2.4-0.5c-0.6-0.3-0.8-0.8-1-1.6c-0.5-2.9-0.3-5.9-0.7-8.8c-0.1-1.1-0.1-2.2,0.2-3.3
		c0.2-0.7,0.6-1,1.2-1.2c0.7,0.1,1.2,0.5,1.6,1c0.7,0.9,1.6,1.2,2.7,1c1.4-0.3,2.5-0.9,3.2-2.1c0.5-0.8,0.8-1.6,1.3-2.5
		C164.1,232.9,164.6,232.7,165.2,232.7z"/>
	<path class="st3" d="M134.3,81.3c0.4,0,0.6,0.4,0.8,0.7c1.4,1.9,3,3.6,5.5,4c1,0.2,1.9,0.8,2.8,1.3c1.3,0.7,2.8,1.1,4.3,1
		c1.1-0.1,2.2-0.1,3.4,0c0.3,0.6,0.7,1,1.2,1.3c0.3,1,0.6,2.1,0.6,3.2c0,1.6-0.7,2.7-2.2,3.4c-2.1,0.9-4.3,0.9-6.5,0.1
		c-2.8-1-5.2-2.8-7.4-4.8c-1.9-1.7-3.7-3.5-5.3-5.4C133.3,85,134.3,83.4,134.3,81.3z"/>
	<path class="st3" d="M163.7,233.4c-0.4,0.8-0.8,1.7-1.3,2.5c-0.7,1.2-1.9,1.8-3.2,2.1c-1.1,0.2-2-0.1-2.7-1c-0.4-0.5-0.9-0.9-1.6-1
		c-0.2-1.4-0.3-2.8-0.5-4.2c2.4,0.2,4.8,0.6,7.2,0.7c0.4,0,0.8,0.1,1.1,0.1C163.4,232.5,163.7,232.7,163.7,233.4z"/>
	<path class="st3" d="M104.2,213.1c-1.9,0-3.6-0.4-4.8-2c-1-1.3-1.3-2.6-0.4-4c0.4-0.6,0.5-1.2,0.3-1.9c0.3-0.1,0.6-0.1,0.9-0.2
		C100.8,208.2,102.3,210.7,104.2,213.1z"/>
	<path class="st3" d="M124.7,55.4c0.9,0.7,1.6,1.4,1.4,2.8c-0.3,1.7,0.2,3.3,0.1,5c-1.3,0-2.5-1.3-2.1-2.5
		C124.8,58.9,124.5,57.1,124.7,55.4z"/>
	<path class="st2" d="M163.7,233.4c0-0.6-0.3-0.9-1-0.8c-0.4,0-0.8,0-1.1-0.1c1.3-0.1,2.5-0.2,3.8-0.3c-0.1,0.2-0.2,0.4-0.3,0.5
		C164.6,232.7,164.1,232.9,163.7,233.4z"/>
	<path class="st2" d="M167,228.8c-0.2-0.2-0.2-0.3-0.1-0.5C167.2,228.4,167.2,228.6,167,228.8z"/>
	<path class="st2" d="M167.2,230c-0.2-0.2-0.2-0.3-0.1-0.6C167.4,229.6,167.4,229.8,167.2,230z"/>
	<path class="st2" d="M167.1,231c0-0.1,0-0.3,0.1-0.4C167.4,230.8,167.3,230.9,167.1,231z"/>
	<path class="st0" d="M144.7,63.6c0-0.4,0.1-0.9,0.3-1.3c0.7-1.1,1.9-1.1,2.5,0.1c0.7,1.2,0.5,2.7-0.4,3.6c-0.8,0.8-1.6,0.6-2-0.4
		C144.9,65.1,144.7,64.3,144.7,63.6z"/>
	<path class="st0" d="M158.6,64.6c0,0.1,0,0.3,0,0.5c-0.2,1-1,2-1.7,1.9c-1.1-0.1-1.1-1-1.4-1.8c-0.2-0.6-0.2-1.3,0.1-1.9
		c0.3-0.7,0.7-1.1,1.4-1.2c0.7,0,1,0.5,1.3,1C158.4,63.5,158.5,64,158.6,64.6z"/>
</g>
</svg>
