<?xml version="1.0" encoding="utf-8"?>
<!-- Generator: Adobe Illustrator 22.1.0, SVG Export Plug-In . SVG Version: 6.00 Build 0)  -->
<svg version="1.1" id="Capa_1" xmlns="http://www.w3.org/2000/svg" xmlns:xlink="http://www.w3.org/1999/xlink" x="0px" y="0px"
	 viewBox="0 0 283.5 283.5" style="enable-background:new 0 0 283.5 283.5;" xml:space="preserve">
<style type="text/css">
	.st0{fill:#F195BE;}
	.st1{fill:#1F1919;}
	.st2{fill:#852320;}
	.st3{fill:#0A813C;}
	.st4{fill:#04994B;}
	.st5{fill:#88CFE2;}
	.st6{fill:#020203;}
</style>
<path class="st0" d="M156.2,116.8c0,0,15.2,23.9,17.8,27s7.3,10.4,10.2,10.7c2.9,0.2,7.7,0.9,7.5,0s-4.2-1.8-4.2-1.8
	s5.5-0.4,5.3-1.3c-0.2-0.9-4.9-0.7-4.9-0.7s6.2-1.5,6-2.4s-5.8-0.5-5.8-0.5s0.9-4-0.3-3.2s-3.9,1.4-3.9,1.4l-10-15.9
	c0,0-5.2-11.1-6.2-16.4s-12.2,2.4-12.2,2.4L156.2,116.8z"/>
<path class="st1" d="M163,100.5l5.6,14.2c0,0-7.7,1.3-8.4,3.2C159.5,119.9,161.3,104.3,163,100.5z"/>
<g>
	<path class="st0" d="M133.7,207.8c-0.9-1.4-2.3-2-4.5-2.9c-0.9-0.4-2-0.8-3.4-0.8c-0.3,0-0.6,0-1,0.1c-1.1,1.1-2.9,3.3-3.3,4.9
		c-0.8,3.2,7.9,3.4,9.4,2.8c1.2-0.6-0.8-0.5,0.5-1.7C131,210.1,132.8,208.5,133.7,207.8z"/>
	<path class="st2" d="M142,227.3c-0.2-3.5-2.4-4.7-4.3-5.2c-2.6-3.2-4.7-8.2-5.5-10.8c-1.3-4.2-3.4,1.5-7.6-0.6
		c-2.4-1.2-0.9-3-2-3.7s-1.9,0.5-1.9,0.5c-1.1,0.7-1.8,2.4-1.8,2.4l-3.1,4.3c-0.2,0.7-0.9,2-1.3,2.3s-0.8,2.1,3.7,4.5
		c4.4,2.3,2.8,0.6,7,3.6c4.1,2.9,5.1,5.3,10.3,6.3C140.6,231.7,143.1,228.2,142,227.3z M116.4,214.8c0,0.2,0.1,0.4,0.2,0.6
		C116.5,215.1,116.4,214.9,116.4,214.8z"/>
</g>
<path class="st3" d="M124.1,204.3c3.7,1.6,7.4,9.2,11.1,9c27.1-32.7,26.4-52.3,26.4-52.3l-14.8-1.5
	C149.4,168.4,139.8,189,124.1,204.3z"/>
<path class="st0" d="M167.6,202.1c-1,0.5-0.2,1.3-1,1.5c-2.5,0.6-4.4,0.8-6.9,0.6c0,0,0,0.1-0.1,0.1c-0.1,0.1-0.2,0.1-0.3,0.2
	c0,6.3-1.7,11.9-1.7,11.9s3.1,1,7.9-2.4C165.7,214.1,168,206.5,167.6,202.1z"/>
<path class="st2" d="M183.6,221.4c-1.5-3-3.9-3.2-5.6-2.9c-3.5-1.8-7.1-5.3-8.9-7.3c-2.7-3.2-2.3,2.6-6.9,2.3
	c-2.5-0.1-2-2.3-3.2-2.5s-1.5,1.2-1.5,1.2c-0.7,1-0.6,2.7-0.6,2.7l-1,4.9c0.1,0.7-0.1,2.1-0.3,2.5s0.1,2.1,4.9,2.5
	c4.7,0.4,2.7-0.5,7.4,0.5s6.4,2.7,11.3,1.6C184,225.7,184.9,221.8,183.6,221.4z M156.7,220.2c0.1,0.2,0.2,0.3,0.4,0.4
	C156.9,220.5,156.7,220.4,156.7,220.2z"/>
<path class="st1" d="M134.6,95.4c-3.8-2.4-7-0.9-9.6,1.5c-1.6,1.9-2,2.6-3.3,5.6c0,0,9,5.2,9,9.3c0,2.3,4.4-2.3,7.4-8.1
	C138.5,100.6,137.3,97.1,134.6,95.4z"/>
<path class="st4" d="M152,162.8c1.9-0.4,3.8-0.7,5.7-0.9c-5.7-1.8-18.7-5.3-26.3-3c-9.9,2.9-7.2,6.4-7.2,6.4s6.1,5.9,14,7.5
	C138.8,166.3,146.6,163.9,152,162.8z"/>
<path class="st4" d="M143.3,161.4c-5.3,1.9-4.7,5.2-7.3,10.7c8,1.4,23.1,26,21.8,36.6c0,0,8.2,1.2,12.3,0.1c0,0-0.5-20.7-16.4-46.4
	C152.5,162.8,144.4,161,143.3,161.4z"/>
<path class="st0" d="M153.1,84.9c0.5-3.2,2.4-6.2,2.4-9.3c-1.4,0.6-2.6,1.9-3.7,2.8c-1.7,1.4-3.4,2.7-5.2,4.1
	c-1.7,1.4-0.4-3.2-2.2-2c-1.1,0.7-4-1.9-5.2-1.3c-0.3,8.5,0.2,9.9-2.9,11.5c-0.9,2.8-4.5,7.2-5.7,9.9c5.1,3,25.6,7.4,26.2-5.8
	C150.4,92.6,152.5,89.3,153.1,84.9z"/>
<path class="st0" d="M130.5,65.6c-0.4-5.9,1.2-3.3,1.5-6.6c0.2-2.5,0.7-7.7,2.9-9c2.2-1.2,4.7-1.7,7.3-1.8c4.2-0.2,8.5,0.4,12.5,2
	c2.3,0.9,4.7,2.4,5.7,4.7c0.7,1.5,0.7,3.1,0.7,4.7c0.2,8,0.7,14.8-0.8,22.7c-0.4,1.9-1.3,5.2-2.7,6.6c-1.9,1.9-4.9,2-7.6,2
	c-1.5-0.8-2.8-2.1-4.1-3.2c-1.8-1.5-3.4-3.2-5-4.8c-1.6-1.6-3.2-3.1-4.8-4.7c-0.7-0.8-1.6-1.6-2.5-2.1c0-0.3,0.1-0.5,0.2-0.8
	c-1-0.1-1.4-1.3-1.4-2.2c0-1,0.3-2-0.2-2.8c-0.3-0.5-1.1,0-1.5-0.5C129.1,67.3,130.6,67.4,130.5,65.6z"/>
<path class="st5" d="M154.7,56.9c0.1,0.5,0.2,1,0.4,1.4c0.1,0.2-0.1,0.5-0.4,0.4c-3.1-1.1-6.2-2.2-9.3-3.3c-0.2-0.1-0.4,0.1-0.4,0.3
	l0,0c0.1,0.3-0.3,0.5-0.5,0.3c-2-2-4.6-3.3-7.4-3.8c-0.2,0-0.3,0.1-0.3,0.3c-0.3,3.5-0.6,7-0.9,10.5c-0.2,2.1-0.4,4.1-0.1,6.2
	c0.3,2.1,1.1,4.3,0.7,6.4c0,0.1-0.1,0.2-0.2,0.2c-1.5,0.5-2.7-1.4-3.1-3c-0.6-2.7-1-5.5-1-8.3c0-0.2-0.1-0.3-0.3-0.3
	c-1.3,0-1.8-2-1.7-3.4c0.2-3.5,0.3-7.1,0.5-10.6c0-0.2-0.2-0.4-0.4-0.3l0,0c-0.3,0.1-0.5-0.3-0.3-0.5c0.6-0.7,1-1.3,1.7-2.2
	c0.2-0.3,0.6-0.6,1-0.5s0.1,0.9-0.2,0.6c1.9-2.8,5.5-3.9,8.8-4.8c0.5-0.1,1.1-0.3,1.5,0.1c0.4,0.3,0.2,1.2-0.3,1
	c2.9-3.3,8.9-3.3,11.7,0.2c1.2,1.4,1.9,3.3,3.6,4.2c0.9,0.4,2,0.6,2.4,1.5c0.2,0.4,0.2,0.9,0.2,1.3c0.1,0.7,0.3,1.3,0.6,2
	c0.6,1.7,2.7,8.4,0.3,9.1c-2.1,0.6-4.7-2.9-6-5.1C155.1,56.5,154.7,56.6,154.7,56.9z"/>
<path class="st5" d="M131.8,69.4c0.2,2.1,0.4,4.2,1.1,6.2s1,4.5,2.7,5.7c1.3,1,1.4,2.3,2.3,3.7c0.3,0.4,1.3,0.3,1.5,0.7
	c0.6,1.2,1.7,2.1,2.7,2.9c0.9,0.8,3.5,0.9,4.4,1.7c0.2,0.2,0.4,0.3,0.6,0.4c0.6,0.3,1.5,0.2,2.1,0.5c0.5,0.2,0.9,0.3,1.4,0.2
	c1.5-0.3,3.8,0.4,5.5-0.6c0.9-0.6,1.8-1.6,2.3-2.6c1.4-3,2.1-6.1,2.5-9.4c-0.8,0.5-1.9,0.1-2.3-0.7c-0.2-0.4-0.3-0.9-0.6-1.2
	c-0.3-0.3-0.9-0.4-1.3-0.4c-1.9-0.1-3.7-0.2-5.6-0.4c-0.4,0-0.9,0-1.2,0.2c-0.6,0.4-0.5,1.5-1.1,2c-0.3,0.2-0.7,0.3-1.1,0.3
	c-2.2,0.1-4.4-0.2-6.5-0.8c-1-0.3-2-0.7-2.9-1.4c-1.7-1.4-2.3-3.6-2.7-5.7c-0.7-3.8-1-7.8-0.7-11.7c0-0.7-0.3-3-1.6-2
	c-0.6,0.5-1,2.8-1.2,3.6C131.5,63.5,131.5,66.5,131.8,69.4z"/>
<path class="st6" d="M148.4,72.2c-0.1-0.2-0.3-0.4-0.3-0.7c-0.3-1-0.5-2.3,0.5-3c1.3-0.9,2,1.1,1.9,2.1
	C150.4,71.9,149.1,73.1,148.4,72.2z"/>
<path class="st6" d="M157.6,72.6c-0.1-0.2-0.3-0.4-0.3-0.7c-0.3-1-0.5-2.3,0.5-3c1.3-0.9,2,1.1,1.9,2.1
	C159.6,72.3,158.3,73.5,157.6,72.6z"/>
<path class="st1" d="M162.7,98.6c-4.1-3.3-8.2-4.9-8.2-4.8c-0.2,0.4,2.6,5.7-3.6,6.3c-6.2,0.6-12.9-8.3-14.4-9.7c0,0-8.1,3.6-9.6,5
	c-2.9,5.8-0.7,10.6-1.2,16.9c-0.5,5.7,0.1,11.1,0,18.2c-1,10.5-2.8,28.8-1.7,34.5c2.4-0.6,2.6-1,7.7-2c4.8-0.9,10.1-1.4,14.9-0.9
	c3.6,0.4,12.3-0.2,14.9,1.2c1.5-4.6-1.1-20.5,0.4-33.2C162.4,125.4,166.8,101.9,162.7,98.6z"/>
<path class="st0" d="M121.9,102.1l-0.5,0.8c0,0-11.7,19.4-11.3,20.4c0.4,2.2,1.2,2.4,3.2,3.1c0.5,0.2,2.4,0.3,3,0.5
	c3-3,11-12.6,13.9-15.2C134.5,107.9,121.9,102.1,121.9,102.1z"/>
<path class="st0" d="M118.1,149.2c0,0,3.1-1,2.2-2.9c-1.2-2.5-4.7,0.4-4.7,0.4l2-23.1c-0.9-2.4-5.7-2.1-7.6-0.3v0.1
	c-0.2,4.6-1.4,25.1-0.3,28.1c1.7,4.9,5.7,6.7,6.2,5.8s-2.1-4.7-2.1-4.7s3.7,2.9,4.2,2s-2.3-3.3-2.3-3.3s4.4,2.6,4.9,1.7
	C121.1,152.2,118.1,149.2,118.1,149.2z"/>
</svg>
