<?xml version="1.0" encoding="utf-8"?>
<!-- Generator: Adobe Illustrator 22.1.0, SVG Export Plug-In . SVG Version: 6.00 Build 0)  -->
<svg version="1.1" id="Capa_1" xmlns="http://www.w3.org/2000/svg" xmlns:xlink="http://www.w3.org/1999/xlink" x="0px" y="0px"
	 viewBox="0 0 283.5 283.5" style="enable-background:new 0 0 283.5 283.5;" xml:space="preserve">
<style type="text/css">
	.st0{fill:#231F20;}
	.st1{fill:#00984A;}
	.st2{fill:#87CEE1;}
	.st3{fill:#EE88B6;}
	.st4{fill:#83231F;}
</style>
<g>
	<path class="st0" d="M170.3,149.8c0.1,3.8,0.7,7.6,0.7,11.4c0,2.2,0,4.4-0.7,6.5c-0.2,0.6-0.2,1.3-1,1.5c-1.3-0.6-2.8-0.7-4.2-0.7
		c-4.9-0.2-9.8,0.1-14.7-0.2c-5.6-0.3-11,0.7-16.4,2c-1.7,0.4-3.4,0.9-5,1.8c-1.5,0.3-1.5,0.3-1.7-1.2c-0.5-4.3-0.6-8.7-0.6-13
		c0-6,0.2-12,0.6-18c0.2-4.2,0.6-8.4,0.3-12.6c-0.1-1.5-0.2-3-0.2-4.5c2.1-3.9,4.2-7.7,6.5-11.4c0.9-1.4,0.9-1.6-0.4-2.8
		c-0.2-0.2-0.5-0.4-0.8-0.6c-3.5-2.1-7.3-2.9-11.2-3.3c0.1-1.9,0.9-3.6,1.4-5.4c1.4-4.6,4.4-7.7,8.5-9.9c2.4-1.3,4.7-2.5,7.1-3.7
		c0.3-0.1,0.5-0.3,0.8-0.2c2.3,2.6,4.7,5.1,7.5,7.2c1.6,1.3,3.4,2.3,5.3,3c1.9,0.7,3.9,0.8,5.8,0.1c2-0.7,3-2.2,2.6-4.4
		c-0.1-0.8-0.4-1.6-0.6-2.4c0.3-0.4,0.6,0,0.9,0.1c3.2,1.2,6.1,3,8.8,5.1c1.3,0.9,1.5,2.4,1.8,3.8c0.8,3.8,0.6,7.7,0.4,11.5
		c-0.3,5.5-0.9,11-1.6,16.5c-0.1,0.4-0.3,0.8-0.2,1.2c-0.8,5-0.7,10.1-0.5,15.2C169.8,145,170,147.4,170.3,149.8z"/>
	<path class="st1" d="M128.9,172.2c1.5-0.9,3.3-1.4,5-1.8c5.4-1.3,10.9-2.3,16.4-2c4.9,0.3,9.8,0,14.7,0.2c1.4,0.1,2.9,0.1,4.2,0.7
		c-0.2,0.2-0.1,0.5-0.1,0.8c1.2,7,0.9,14.1-0.2,21.1c-0.5,3.1-1.3,6.1-1.5,9.3c-0.1,0.7-0.2,1.5-0.5,2.1c-0.7,1.4-0.6,2.9-0.6,4.4
		c0.2,7.9,0.9,15.8,1.4,23.7c0,0.3,0,0.6,0,0.9c0.1,2-0.5,2.5-2.4,2.7c-0.5,0-1,0.1-1.5,0.1c-3.1-0.4-6.1-1.2-9.1-2.1
		c-0.1,0-0.2-0.1-0.3-0.1c-2.1-0.2-2.5-1.6-2.5-3.5c-0.1-6.7-0.4-13.5-0.3-20.2c0-0.6,0-1.1-0.4-1.6c-0.3-0.5-0.3-1-0.4-1.5
		c0-2.6-1-5-2.1-7.4c-0.3-0.6-0.5-0.6-0.9-0.1c-1.7,2-3.4,3.9-5.3,5.6c-1.1,1-2.4,1.7-3.9,2.1c-8.8,2.3-17.8,3.5-26.8,4.8
		c-0.7,0.1-1.4,0.2-1.4-0.8c0-0.2-0.2-0.3-0.3-0.5c0-0.7-0.3-1.3-0.8-1.9c-1.3-2.9-2.3-5.9-1.9-9.1c0.1-0.3,0.3-0.6,0.3-0.9
		c0.1-0.5,0.4-0.7,1-0.8c4.5-0.3,8.9-1.3,13.3-2.3c3.5-0.8,6.9-1.7,10.4-2.5c0.8-0.2,1.4-0.5,1.9-1.2c1-1.3,2.2-2.4,3.4-3.6
		c0.4-0.4,0.5-0.7,0-1.1c-0.9-0.6-1.6-1.4-2.5-1.9c-4-2.4-5.7-6-6.5-10.4C129,173,129,172.6,128.9,172.2z"/>
	<path class="st2" d="M167,72.8c-0.2,4-1.1,7.8-2.8,11.4c-1.1,2.3-3,3.5-5.5,3.4c-1.1,0-2.2,0-3.2,0.1c-1.4,0.1-2.9-0.2-4.2-0.9
		c-1-0.5-2-1-3.1-1.2c-2.4-0.4-4-1.9-5.4-3.7c-0.2-0.3-0.3-0.7-0.7-0.7c-1.3-0.3-1.9-1.2-2.4-2.3c-0.4-1.1-1.1-2-2.1-2.7
		c-1.2-0.9-1.7-2.4-2.2-3.8c-1-3-2-5.9-2.3-9.1c-0.1-1.8-0.4-3.5-0.3-5.3c0-1.2-0.5-1.9-1.4-2.4c-0.9-3.9-0.3-7.9-0.3-11.8
		c0-0.9,0.1-1.9,0.1-2.9c0-0.3,0.1-0.7-0.3-0.8c-1.1-0.3-0.5-0.8-0.2-1.3c0.3-0.5,0.7-1,1.1-1.5c0.4-0.5,0.8-1.1,1.6-1.1
		c0.2,0,0.4-0.2,0.6-0.4c1.8-2,4.1-3,6.5-3.9c1-0.3,1.9-0.6,2.9-0.9c0.6-0.2,1.1-0.3,1.5,0.2c0.4,0.4,0.6,0,0.8-0.2
		c2.6-1.7,5.3-2.2,8.3-1.4c2.1,0.5,3.6,1.8,4.8,3.4c0.5,0.6,0.9,1.2,1.3,1.8c0.8,1.2,1.8,1.9,3.1,2.3c1.3,0.4,2,1,2.2,2.5
		c0.2,2.2,1.4,4.1,1.9,6.2c0.4,1.6,0.8,3.1,0.7,4.8c0,1-0.3,1.9-1.4,2.3c-1.7,0.1-2.8-0.8-3.9-1.8c-1.1-1-2-2.2-2.9-3.5
		c-0.1-0.2-0.3-0.5-0.6-0.4c-0.3,0.1-0.2,0.5-0.1,0.7c0,0.1,0.1,0.2,0.1,0.4c0.1,0.3,0.4,0.7,0.1,1c-0.3,0.4-0.7,0-1.1-0.1
		c-3.1-1-6.3-2-9.4-3c-0.5-0.2-0.9-0.3-1.2,0.3c-0.2,0.5-0.6,0.1-0.9-0.1c-2.2-1.9-4.7-3.1-7.5-3.7c-0.8-0.2-1.1,0-1.2,0.9
		c-0.1,2.6-0.2,5.2-0.4,7.8c-0.1,1.5-0.3,3-0.3,4.5c0,1.9-0.1,3.8,0.1,5.6c0.2,1.7,0.8,3.3,1,4.9c0.3,2.3,1.6,3.9,3.7,4.8
		c2.8,1.2,5.8,1.6,8.9,1.5c1.6,0,1.8-0.2,2.4-1.7c0.3-0.7,0.6-1.3,1.4-1.3c2.6,0,5.1,0.1,7.7,0.4c0.6,0,1,0.3,1.2,0.9
		C164.7,72.9,165.1,73.1,167,72.8z"/>
	<path class="st3" d="M167,72.8c-1.9,0.3-2.2,0.1-3-1.7c-0.3-0.5-0.7-0.8-1.2-0.9c-2.6-0.2-5.1-0.4-7.7-0.4c-0.8,0-1.2,0.6-1.4,1.3
		c-0.6,1.5-0.8,1.6-2.4,1.7c-3.1,0.1-6.1-0.3-8.9-1.5c-2.1-0.9-3.4-2.4-3.7-4.8c-0.2-1.7-0.8-3.3-1-4.9c-0.3-1.9-0.2-3.8-0.1-5.6
		c0-1.5,0.2-3,0.3-4.5c0.2-2.6,0.3-5.2,0.4-7.8c0-0.9,0.4-1.1,1.2-0.9c2.8,0.6,5.4,1.8,7.5,3.7c0.3,0.2,0.7,0.6,0.9,0.1
		c0.3-0.7,0.7-0.5,1.2-0.3c3.1,1,6.3,2,9.4,3c0.3,0.1,0.7,0.5,1.1,0.1c0.3-0.3,0-0.7-0.1-1c0-0.1-0.1-0.2-0.1-0.4
		c0-0.2-0.2-0.6,0.1-0.7c0.3-0.1,0.5,0.1,0.6,0.4c0.8,1.3,1.7,2.5,2.9,3.5c1.1,1,2.2,2,3.9,1.8c0.3,4.7,0.6,9.3,0.6,14
		C167.3,69,167.1,70.9,167,72.8z M165.4,63.6c0-1-0.7-1.9-1.6-1.9c-0.9,0-1.6,0.7-1.6,1.6c0,1.1,0.6,2,1.4,2.1
		C164.5,65.3,165.4,64.5,165.4,63.6z M154.8,63.4c0-1-0.8-1.9-1.6-1.9c-0.9,0-1.6,0.7-1.6,1.6c0,1.1,0.6,2,1.5,2
		C153.9,65.2,154.8,64.3,154.8,63.4z"/>
	<path class="st3" d="M121.5,104.8c4,0.4,7.8,1.2,11.2,3.3c0.3,0.2,0.5,0.4,0.8,0.6c1.3,1.1,1.3,1.3,0.4,2.8
		c-2.3,3.7-4.5,7.5-6.5,11.4c-1.4,2.4-2.7,4.8-4.1,7.2c-0.5,0.8-0.3,1.8-0.4,2.7c-0.5,4.1-0.9,8.2-1.4,12.3
		c-0.3,2.8-0.6,5.6-0.9,8.4c0,0.2-0.1,0.6,0.1,0.7c0.3,0.2,0.5-0.2,0.7-0.3c0.9-0.4,1.7-0.9,2.7-0.8c0.9,0,1.4,0.5,1.7,1.2
		c0.3,0.7,0.2,1.4-0.4,2c-0.2,0.2-0.5,0.3-0.7,0.6c-0.4,0.4-1.2,0.3-1.2,0.8c0,0.4,0.6,0.8,0.9,1.2c0.5,0.7,1,1.3,1.4,2
		c0.2,0.4,0.3,0.8,0,1.2c-0.3,0.4-0.8,0.2-1.2,0.1c-1-0.4-2-0.8-3.3-1.4c0.5,0.8,1.2,1.2,1.4,1.8c0.2,0.4,0.5,0.8,0.1,1.2
		c-0.3,0.3-0.8,0.1-1.2-0.1c-1-0.5-1.9-1.2-3-1.7c0.2,0.5,0.5,0.9,0.7,1.4c0.3,0.5,0.6,1,0.8,1.6c0.2,0.6,0.8,1.3,0.2,1.8
		c-0.6,0.6-1.4,0.1-2-0.3c-3.1-2.1-5.1-4.9-5.2-8.7c-0.2-6.1,0.1-12.1,0.5-18.2c0.2-3.1,0.5-6.1,0.6-9.2c0-2.3,0.6-4.5,1.2-6.7
		c1.8-6.1,3.7-12.2,5.8-18.2C121.3,105.5,121.4,105.2,121.5,104.8z"/>
	<path class="st4" d="M109.8,207.1c0.5,0.5,0.8,1.1,0.8,1.9c-1.3,2.1-2.9,4-4.1,6.2c-1.2,2.1-2.3,4.2-3.1,6.5c-0.2,0.5-0.2,1,0,1.5
		c0.8,2.4,0.1,4.5-1.7,6.3c-1.9,1.9-3.4,2-5.5,0.2c-2.8-2.3-3.8-5.4-4.2-8.9c-0.2-1.8,0.1-3.5,0.3-5.2c0.4-3.5,0.2-7-0.7-10.5
		c-0.5-2-0.7-4.1-0.3-6.2c0.1-0.7,0.3-1.3,0.7-1.8c0.3-0.4,0.7-0.5,1.2-0.6c3.4-0.4,6.8,0,10.1-0.4c1.1-0.1,2.1,0.1,3.1,0.4
		c0.7,0.2,1,0.7,1.1,1.4c-0.1,0.8-0.7,1.2-1.2,1.7c-0.8,0.7-1.2,1.6-1,2.7C105.7,205.1,107.5,206.3,109.8,207.1z"/>
	<path class="st4" d="M164,235.2c0.9-0.8,1.7-0.2,2.3,0.5c1.5,1.5,3,2.9,4.7,4.1c1.7,1.3,3.5,2.6,5.5,3.6c0.5,0.3,0.9,0.3,1.5,0.3
		c2.4-0.4,4.3,0.5,5.6,2.5c0.5,0.7,1.3,1.1,1.1,2.2c-0.2,1.2-0.8,2.1-1.6,3c-1.4,1.3-3.1,2-4.9,2.4c-2.4,0.5-4.7,0.4-7.1-0.3
		c-1.8-0.5-3.6-0.9-5.5-1.2c-1.6-0.2-3.3-0.3-4.9-0.1c-2.3,0.3-4.6,0.3-6.9-0.4c-0.5-0.2-1.1-0.4-1.5-0.7c-0.5-0.4-0.6-0.9-0.6-1.6
		c0-3,0.8-6,1-9c0-1.1,0.4-2.1,0.8-3.1c0.3-0.6,0.8-0.8,1.3-0.9c0.7,0.2,1.1,0.7,1.4,1.3c0.6,1.2,1.7,1.6,3,1.5
		c1.5-0.1,2.6-0.8,3.5-1.9C163.1,236.4,163.5,235.8,164,235.2z"/>
	<path class="st3" d="M170.3,149.8c-0.3-2.4-0.5-4.8-0.6-7.2c-0.3-5.1-0.3-10.1,0.5-15.2c0.2,1.7,0.4,3.5,0.5,5.2
		c0,0.6,0.2,1.2,0.5,1.7c3.1,5.6,6.2,11.3,9.2,16.9c0.4,0.7,0.7,0.8,1.4,0.6c1.2-0.3,2.4-0.6,3.5-1.1c0.8-0.3,1.1,0,1,0.8
		c-0.1,0.7-0.2,1.4-0.4,2c-0.2,0.8,0.1,0.9,0.8,0.9c1.6,0,3.2,0,4.7,0.4c0.4,0.1,1,0.1,1,0.6c0,0.5-0.5,0.7-1,0.8
		c-1.3,0.5-2.6,0.8-4,1.1c-0.3,0.1-0.6,0.1-0.9,0.3c1.2,0.3,2.4,0.3,3.6,0.7c0.4,0.1,0.7,0.2,0.8,0.7c0,0.4-0.4,0.5-0.7,0.5
		c-1.6,0.5-3.2,0.4-5,0.6c0.9,0.4,1.7,0.7,2.5,1.1c0.3,0.1,0.7,0.3,1,0.5c0.3,0.2,0.9,0.5,0.6,1c-0.2,0.4-0.7,0.4-1.2,0.3
		c-2.5-0.1-5-0.7-7.4-1c-1.5-0.2-2.4-1.5-3.3-2.6c-2.4-2.9-4.5-5.9-6.5-9.1C170.7,150.3,170.5,150,170.3,149.8z"/>
	<path class="st3" d="M142,81.2c0.4,0.1,0.5,0.5,0.7,0.7c1.4,1.8,3,3.3,5.4,3.7c1.1,0.2,2.1,0.7,3.1,1.2c1.3,0.7,2.7,1,4.2,0.9
		c1.1-0.1,2.2-0.1,3.2-0.1c0.3,0.7,0.7,1.3,1.4,1.6c0.2,0.8,0.4,1.6,0.6,2.4c0.3,2.1-0.6,3.7-2.6,4.4c-1.9,0.7-3.9,0.6-5.8-0.1
		c-1.9-0.7-3.7-1.8-5.3-3c-2.7-2.1-5.2-4.6-7.5-7.2c0.2-0.5,0.7-0.6,1-0.9C141.5,83.9,141.7,82.5,142,81.2z"/>
	<path class="st3" d="M164,235.2c-0.5,0.6-0.9,1.3-1.4,1.9c-0.9,1.2-2.1,1.8-3.5,1.9c-1.3,0.1-2.3-0.3-3-1.5
		c-0.3-0.6-0.7-1.1-1.4-1.3c0.2-1.4,0.2-2.8,0.2-4.1c3,0.9,6,1.7,9.1,2.1C164,234.5,164,234.8,164,235.2z"/>
	<path class="st3" d="M109.8,207.1c-2.3-0.8-4.1-2-4.4-4.6c-0.2-1.1,0.2-2,1-2.7c0.5-0.5,1.2-0.9,1.2-1.7c0.1,0,0.2,0,0.3,0
		C107.4,201.2,108.4,204.2,109.8,207.1z"/>
	<path class="st3" d="M131.3,55.8c1,0.5,1.5,1.2,1.4,2.4c0,1.7,0.2,3.5,0.3,5.3c-1.4,0-2.5-1.1-2.1-2.7
		C131.4,59.1,131.2,57.4,131.3,55.8z"/>
	<path class="st0" d="M165.4,63.6c0,0.9-0.9,1.8-1.8,1.8c-0.8,0-1.4-1-1.4-2.1c0-0.9,0.7-1.6,1.6-1.6
		C164.7,61.7,165.5,62.6,165.4,63.6z"/>
	<path class="st0" d="M154.8,63.4c0,0.9-0.9,1.8-1.8,1.8c-0.8,0-1.5-0.9-1.5-2c0-0.9,0.7-1.6,1.6-1.6
		C154,61.5,154.8,62.4,154.8,63.4z"/>
</g>
</svg>
