<?xml version="1.0" encoding="utf-8"?>
<!-- Generator: Adobe Illustrator 22.1.0, SVG Export Plug-In . SVG Version: 6.00 Build 0)  -->
<svg version="1.1" id="Capa_1" xmlns="http://www.w3.org/2000/svg" xmlns:xlink="http://www.w3.org/1999/xlink" x="0px" y="0px"
	 viewBox="0 0 283.5 283.5" style="enable-background:new 0 0 283.5 283.5;" xml:space="preserve">
<style type="text/css">
	.st0{fill:#F195BE;}
	.st1{fill:#852320;}
	.st2{fill:#0A813C;}
	.st3{fill:#04994B;}
	.st4{fill:#1F1919;}
	.st5{fill:#88CFE2;}
	.st6{fill:#020203;}
</style>
<path class="st0" d="M128.2,208.2c-0.2-1.7-1.3-2.8-2.9-4.5c-0.7-0.7-1.5-1.6-2.8-2.1c-0.3-0.1-0.5-0.2-0.9-0.3
	c-1.5,0.5-4,1.8-5.1,3.1c-2.1,2.6,5.8,6.4,7.4,6.4c1.3,0-0.5-0.8,1.2-1.3C124.7,209.2,127.1,208.5,128.2,208.2z"/>
<path class="st1" d="M127.7,229.4c1.3-3.2-0.2-5.3-1.7-6.5c-1-4-0.9-9.4-0.5-12.1c0.6-4.4-3.7,0-6.7-3.8c-1.7-2.1,0.4-3.1-0.3-4.2
	c-0.7-1.1-2-0.4-2-0.4c-1.3,0.2-2.6,1.4-2.6,1.4l-4.6,2.6c-0.5,0.6-1.7,1.4-2.1,1.5c-0.5,0.1-1.6,1.6,1.5,5.6s2.3,1.8,4.9,6.1
	c2.5,4.4,2.4,6.9,6.7,10C124.5,232.8,128.2,230.7,127.7,229.4z"/>
<path class="st2" d="M121.3,201.1c3.7,1.6,3.2,11.5,7,11.4c34.8-13.7,34.3-50.1,34.3-50.1l-14.8-1.5
	C150.4,169.8,146,191.4,121.3,201.1z"/>
<path class="st0" d="M173.4,206.6c-0.8,0.9,0.3,1.3-0.4,1.8c-2.1,1.5-3.8,2.3-6.2,3v0.1c0,0.1-0.1,0.2-0.2,0.3
	c2.2,5.9,2.7,11.8,2.7,11.8s3-2.6,6.4-7.4C175.7,216.1,175.3,210.6,173.4,206.6z"/>
<path class="st1" d="M195.1,219c-2.4-2.2-4.8-1.6-6.3-0.7c-3.9-0.5-8.6-2.4-10.9-3.7c-3.7-2-1.3,3.2-5.6,4.6
	c-2.4,0.8-2.6-1.4-3.9-1.2c-1.2,0.2-1,1.6-1,1.6c-0.3,1.2,0.4,2.8,0.4,2.8l0.8,4.9c0.3,0.6,0.7,2,0.6,2.4c-0.1,0.4,0.9,1.9,5.4,0.6
	c4.5-1.3,2.4-1.4,7.1-2.2c4.7-0.8,7,0.2,11.1-2.5C197.1,222.9,196.5,218.9,195.1,219z M169.5,227.4c0.2,0.1,0.3,0.2,0.5,0.3
	C169.8,227.6,169.7,227.5,169.5,227.4z"/>
<path class="st3" d="M144.2,162.8c-5.3,1.9-4.7,5.2-7.3,10.7c8,1.4,28.6,31.6,29.8,42.6c0,0,8-4.3,11.6-3.7c0,0-7.7-23-23.7-48.7
	C153.5,164.2,145.3,162.4,144.2,162.8z"/>
<path class="st4" d="M135.7,97.2c-3.3-2.9-6.7-2-9.8,0c-1.9,1.6-2.2,2.1-4,4.9c0,0,7.9,6.7,7.2,10.8c-0.4,2.2,4.7-1.5,8.6-6.8
	C138.8,103,138.2,99.4,135.7,97.2z"/>
<path class="st0" d="M179.4,139.7c0,0,1.8-2.7,0-3.6c-2.5-1.3-3.4,3.2-3.4,3.2l-12.6-19.5c-2.2-1.3-5.8,1.8-6.2,4.4
	c0,0,0,0.1,0.1,0.1c2.6,3.7,14.3,20.7,17,22.4c4.3,2.8,8.6,1.8,8.4,0.8c-0.2-1-4.5-2.4-4.5-2.4s4.7,0,4.5-1s-3.8-1.2-3.8-1.2
	s5.1-0.6,4.9-1.6C183.6,140.3,179.4,139.7,179.4,139.7z"/>
<path class="st3" d="M153,164.1c1.9-0.4,3.8-0.7,5.7-0.9c-5.7-1.8-18.7-5.3-26.3-3c-9.9,2.9-6.4,6.9-6.4,6.9s5.2,6.1,13.3,7
	C139.8,167.6,147.5,165.3,153,164.1z"/>
<path class="st0" d="M154.1,86.2c0.5-3.2,2.4-6.2,2.4-9.3c-1.4,0.6-2.6,1.9-3.7,2.8c-1.7,1.4-3.4,2.7-5.2,4.1
	c-1.7,1.4-0.4-3.2-2.2-2c-1.1,0.7-4-1.9-5.2-1.3c-0.3,8.5,0.1,9.7-3,11.3c-0.9,2.8-4.4,7.4-5.6,10.1c5.1,3,25.9,7.7,26.5-5.5
	C151.7,94.2,153.4,90.7,154.1,86.2z"/>
<path class="st0" d="M131.5,67.4c-0.4-5.9,1.2-3.3,1.5-6.6c0.2-2.5,0.7-7.7,2.9-9c2.2-1.2,4.7-1.7,7.3-1.8c4.2-0.2,8.5,0.4,12.5,2
	c2.3,0.9,4.7,2.4,5.7,4.7c0.7,1.5,0.7,3.1,0.7,4.7c0.2,8,0.7,14.8-0.8,22.7c-0.4,1.9-1.3,5.2-2.7,6.6c-1.9,1.9-4.9,2-7.6,2
	c-1.5-0.8-2.8-2.1-4.1-3.2c-1.8-1.5-3.4-3.2-5-4.8c-1.6-1.6-3.2-3.1-4.8-4.7c-0.7-0.8-1.6-1.6-2.5-2.1c0-0.3,0.1-0.5,0.2-0.8
	c-1-0.1-1.4-1.3-1.4-2.2c0-1,0.3-2-0.2-2.8c-0.3-0.5-1.1,0-1.5-0.5C130.1,69.2,131.6,69.2,131.5,67.4z"/>
<path class="st5" d="M155.7,58.8c0.1,0.5,0.2,1,0.4,1.4c0.1,0.2-0.1,0.5-0.4,0.4c-3.1-1.1-6.2-2.2-9.3-3.3c-0.2-0.1-0.4,0.1-0.4,0.3
	l0,0c0.1,0.3-0.3,0.5-0.5,0.3c-2-2-4.6-3.3-7.4-3.8c-0.2,0-0.3,0.1-0.3,0.3c-0.3,3.5-0.6,7-0.9,10.5c-0.2,2.1-0.4,4.1-0.1,6.2
	c0.3,2.1,1.1,4.3,0.7,6.4c0,0.1-0.1,0.2-0.2,0.2c-1.5,0.5-2.7-1.4-3.1-3c-0.6-2.7-1-5.5-1-8.3c0-0.2-0.1-0.3-0.3-0.3
	c-1.3,0-1.8-2-1.7-3.4c0.2-3.5,0.3-7.1,0.5-10.6c0-0.2-0.2-0.4-0.4-0.3l0,0c-0.3,0.1-0.5-0.3-0.3-0.5c0.6-0.7,1-1.3,1.7-2.2
	c0.2-0.3,0.6-0.6,1-0.5s0.1,0.9-0.2,0.6c1.9-2.8,5.5-3.9,8.8-4.8c0.5-0.1,1.1-0.3,1.5,0.1c0.4,0.3,0.2,1.2-0.3,1
	c2.9-3.3,8.9-3.3,11.7,0.2c1.2,1.4,1.9,3.3,3.6,4.2c0.9,0.4,2,0.6,2.4,1.5c0.2,0.4,0.2,0.9,0.2,1.3c0.1,0.7,0.3,1.3,0.6,2
	c0.6,1.7,2.7,8.4,0.3,9.1c-2.1,0.6-4.7-2.9-6-5.1C156.1,58.3,155.6,58.5,155.7,58.8z"/>
<path class="st5" d="M132.7,71.2c0.2,2.1,0.4,4.2,1.1,6.2s1,4.5,2.7,5.7c1.3,1,1.4,2.3,2.3,3.7c0.3,0.4,1.3,0.3,1.5,0.7
	c0.6,1.2,1.7,2.1,2.7,2.9c0.9,0.8,3.5,0.9,4.4,1.7c0.2,0.2,0.4,0.3,0.6,0.4c0.6,0.3,1.5,0.2,2.1,0.5c0.5,0.2,0.9,0.3,1.4,0.2
	c1.5-0.3,3.8,0.4,5.5-0.6c0.9-0.6,1.8-1.6,2.3-2.6c1.4-3,2.1-6.1,2.5-9.4c-0.8,0.5-1.9,0.1-2.3-0.7c-0.2-0.4-0.3-0.9-0.6-1.2
	c-0.3-0.3-0.9-0.4-1.3-0.4c-1.9-0.1-3.7-0.2-5.6-0.4c-0.4,0-0.9,0-1.2,0.2c-0.6,0.4-0.5,1.5-1.1,2c-0.3,0.2-0.7,0.3-1.1,0.3
	c-2.2,0.1-4.4-0.2-6.5-0.8c-1-0.3-2-0.7-2.9-1.4c-1.7-1.4-2.3-3.6-2.7-5.7c-0.7-3.8-1-7.8-0.7-11.7c0-0.7-0.3-3-1.6-2
	c-0.6,0.5-1,2.8-1.2,3.6C132.4,65.3,132.5,68.3,132.7,71.2z"/>
<path class="st6" d="M149.4,74.1c-0.1-0.2-0.3-0.4-0.3-0.7c-0.3-1-0.5-2.3,0.5-3c1.3-0.9,2,1.1,1.9,2.1
	C151.4,73.7,150.1,74.9,149.4,74.1z"/>
<path class="st6" d="M158.6,74.5c-0.1-0.2-0.3-0.4-0.3-0.7c-0.3-1-0.5-2.3,0.5-3c1.3-0.9,2,1.1,1.9,2.1
	C160.6,74.1,159.3,75.3,158.6,74.5z"/>
<path class="st4" d="M163.6,99.9c-4.1-3.3-8.2-4.9-8.2-4.8c-0.2,0.4,2.6,5.7-3.6,6.3c-6.2,0.6-12.9-8.3-14.4-9.7c0,0-8.1,3.6-9.6,5
	c-2.9,5.8-0.7,10.6-1.2,16.9c-0.5,5.7,0.1,11.1,0,18.2c-1,10.5-2.2,28.9-1.1,34.6c2.4-0.6,2-1.1,7.1-2.1c4.8-0.9,10.1-1.4,14.9-0.9
	c3.6,0.4,12.4,0.4,15,1.7c0.5-6-0.2-19.9,0.4-33.8C163.4,126.7,167.8,103.3,163.6,99.9z"/>
<path class="st0" d="M122.2,101.8l-0.7,0.7c0,0-14.7,17.3-14.5,18.3c0.1,2.3,0.8,2.6,2.7,3.6c0.5,0.3,2.3,0.7,2.9,0.9
	c3.4-2.5,12.9-10.6,16.2-12.7C133.7,109.5,122.2,101.8,122.2,101.8z"/>
<path class="st0" d="M110.9,147.7c0,0,3.2-0.5,2.6-2.5c-0.7-2.7-4.7-0.3-4.7-0.3l5.7-22.5c-0.5-2.5-5.2-3-7.5-1.5v0.1
	c-0.9,4.5-5.4,24.5-4.8,27.7c0.9,5.1,4.5,7.5,5.2,6.7c0.6-0.8-1.3-5-1.3-5s3.2,3.4,3.8,2.6c0.6-0.8-1.7-3.6-1.7-3.6s3.9,3.3,4.5,2.5
	C113.3,151.1,110.9,147.7,110.9,147.7z"/>
</svg>
