<?xml version="1.0" encoding="utf-8"?>
<!-- Generator: Adobe Illustrator 22.1.0, SVG Export Plug-In . SVG Version: 6.00 Build 0)  -->
<svg version="1.1" id="Capa_1" xmlns="http://www.w3.org/2000/svg" xmlns:xlink="http://www.w3.org/1999/xlink" x="0px" y="0px"
	 viewBox="0 0 283.5 283.5" style="enable-background:new 0 0 283.5 283.5;" xml:space="preserve">
<style type="text/css">
	.st0{fill:#231F20;}
	.st1{fill:#00984A;}
	.st2{fill:#87CEE1;}
	.st3{fill:#EE88B6;}
	.st4{fill:#83231F;}
</style>
<g>
	<path class="st0" d="M131.1,171.5c-1.9,0.6-2,0.6-2.2-1.4c-0.2-2.4-0.3-4.7-0.5-7.1c0.6,0.1,0.9,0.7,1.3,1.1
		c1.5,1.4,3.1,2.6,5.2,2.9c0.4,0.1,1,0.2,1.3-0.3c0.3-0.5,0-0.9-0.3-1.3c-0.5-0.9-1.3-1.6-2-2.3c-0.2-0.2-0.4-0.4-0.5-0.8
		c1.2,0.3,2.2,0.8,3.4,1c0.4,0,0.8,0.1,1-0.3c0.2-0.4,0-0.7-0.3-1c-0.4-0.4-0.8-0.7-1.2-1c-0.2-0.2-0.6-0.2-0.5-0.7
		c1.1,0.2,2.3,0.5,3.4,0.6c0.4,0,0.9,0,1.1-0.4c0.2-0.4-0.1-0.7-0.3-1.1c-0.6-0.7-1.3-1.3-2-1.8c-1.2-0.9-1.2-0.9-0.2-2
		c1-1.1,1.1-2.1,0.4-3c-0.8-0.9-1.8-0.9-3-0.1c-0.7,0.5-1.3,1.1-2,1.7c-0.1-0.3-0.1-0.4-0.1-0.6c-1.1-7.4-2.2-14.8-3.3-22.1
		c-0.1-0.7-0.3-1.5,0-2.2c2.6-6.5,4.9-13.2,7.9-19.6c0.2-0.5,0.1-0.9-0.2-1.2c-0.8-0.8-1.8-1.3-2.9-1.7c-3.4-1.1-6.8-1.4-10.4-1.3
		c-0.4-0.3-0.2-0.8-0.1-1.1c0.2-2.8,0.8-5.6,1.7-8.2c0.8-2.1,2-3.9,3.9-5.1c3.4-2.3,7.1-4.1,10.8-6c0.3-0.1,0.5-0.2,0.7-0.1
		c1.8,2.2,3.8,4.1,5.9,6c2,1.8,4.3,3.3,6.9,4.2c1.9,0.7,3.8,0.7,5.7,0.1c2.1-0.7,3.1-2.3,2.7-4.6c-0.1-0.8-0.4-1.5-0.5-2.3
		c0.4-0.2,0.7,0,1,0.2c3.1,1.2,6,3,8.6,5c1.3,1,1.6,2.5,1.9,3.9c0.7,3.9,0.6,7.8,0.4,11.6c-0.3,6.7-1.2,13.3-2,20
		c-0.5,4.2-0.4,8.5-0.2,12.8c0.3,5.3,0.8,10.5,1.1,15.8c0.1,1.5,0.1,3,0.1,4.5c-0.1,0.5-0.2,0.9-0.1,1.4c-0.2,1.5-0.3,2.9-0.9,4.3
		c-0.2,0.3-0.2,0.8-0.8,0.7c-0.9-0.5-1.9-0.6-3-0.7c-2.5-0.2-5.1-0.2-7.6,0c-2.9,0.1-5.8-0.2-8.8-0.3c-4.2-0.1-8.3,0.4-12.4,1.2
		C136.5,169.6,133.7,170.1,131.1,171.5z"/>
	<path class="st1" d="M131.1,171.5c2.6-1.4,5.4-1.9,8.2-2.4c4.1-0.8,8.2-1.3,12.4-1.2c2.9,0.1,5.8,0.4,8.8,0.3
		c2.5-0.1,5.1-0.2,7.6,0c1,0.1,2,0.2,3,0.7c0.9,9.5-0.8,18.6-3.4,27.6c-0.3,1.2-0.6,2.4-0.8,3.7c-0.3,1.6-0.8,3.1-1.7,4.5
		c-0.4,0.6-0.6,1.3-0.6,1.9c-0.6,6-1.1,12-1.5,18c-0.2,2.6-0.4,5.2-0.6,7.8c-0.2,1.7-0.7,2.2-2.5,2.2c-0.6,0-1.2-0.1-1.8-0.1
		c-3.1-0.8-6-2.1-8.9-3.4c-0.1-0.1-0.1-0.1-0.2-0.2c-2.1-1.2-2-1.2-1.8-3.6c0.7-5.7,1.3-11.5,2.2-17.2c0.1-0.9-0.3-0.6-0.8-0.4
		c-5.2,2.4-10.5,4.6-15.9,6.7c-1.7,0.6-3.3,1.2-5,1.9c-0.7,0.3-1.1,0.2-1.4-0.5c-0.1-0.2-0.2-0.3-0.4-0.5c-0.4-0.9-1.1-1.6-1.7-2.4
		c-1.5-2-2.6-4.2-3.2-6.5c0-0.8,0-1.6,0-2.4c0-0.5,0.4-0.6,0.8-0.8c7.6-2.6,14.8-6.3,21.9-10c1.3-0.7,1.4-2.2,1.8-3.4
		c0.1-0.3-0.4-0.8-0.7-1.1c-2.8-3-5.6-6-9-8.5c-2.7-2-4-4.9-4.5-8.2C131.4,173.1,131.2,172.3,131.1,171.5z"/>
	<path class="st2" d="M131.9,55.8c-0.9-3.1-0.5-6.2-0.7-9.3c-0.1-1.7-0.1-3.4-0.2-5.1c0-0.2,0.1-0.5-0.2-0.6c-1.1-0.4-0.4-1-0.1-1.5
		c0.5-0.7,0.8-1.5,1.4-2c3.3-2.7,6.8-5.1,11-6.1c0.4-0.1,0.9-0.2,1.2,0.1c0.4,0.4,0.7,0.3,1-0.1c3.7-3.3,10.1-2.6,13.1,1.4
		c0.8,1.1,1.5,2.2,2.6,3c0.7,0.6,1.6,0.9,2.4,1.1c1.2,0.4,1.8,1.1,2,2.4c0.1,1.6,1.1,2.9,1.5,4.4c0.7,2.1,1.4,4.2,1.4,6.4
		c0,1-0.3,1.8-1.2,2.3c-1,0.1-1.9-0.2-2.7-0.8c-1.7-1-2.8-2.5-4-4c-0.2-0.3-0.4-1-0.9-0.7c-0.4,0.2,0,0.8,0.1,1.2
		c0.1,0.3,0.4,0.6,0.1,0.9c-0.3,0.3-0.7,0.1-1,0c-3.1-0.9-6.2-1.7-9.2-2.5c-0.5-0.1-1.3-0.8-1.6,0.3c-0.1,0.3-0.4,0.1-0.6,0
		c-0.2-0.2-0.5-0.4-0.7-0.5c-2.1-1.6-4.5-2.6-7.1-3.1c-0.6-0.1-1.2-0.3-1.3,0.8c0,4.7-0.1,9.4-0.2,14c0,2.2,0.2,4.3,0.8,6.3
		c0.4,1.3,0.5,2.7,1,3.9c0.7,1.7,2.1,2.8,3.9,3.4c2.8,1,5.7,1.2,8.7,1c1.5-0.1,1.8-0.2,2.2-1.7c0.2-0.8,0.7-1.3,1.6-1.3
		c2.6-0.2,5.1-0.1,7.7,0c0.6,0,0.9,0.4,1.1,0.9c0.9,1.7,1.2,1.8,3.1,1.5c-0.2,3.8-0.8,7.6-2.2,11.1c-1.1,2.6-3,4-5.9,4
		c-0.9,0-1.7,0.1-2.5,0.1c-1.8,0.1-3.6-0.1-5.2-1c-0.7-0.4-1.4-0.7-2.1-0.7c-2.7-0.2-4.5-1.8-6.1-3.8c-0.2-0.2-0.3-0.4-0.6-0.4
		c-1.4-0.2-2-1.3-2.5-2.4c-0.5-1-1.1-1.8-2-2.3c-1.1-0.7-1.6-1.8-2.1-2.9c-1.3-3.2-2.5-6.4-2.9-9.8c-0.2-1.6-0.5-3.2-0.5-4.8
		C133.6,57.4,133,56.5,131.9,55.8z"/>
	<path class="st3" d="M168.3,71.8c-1.9,0.4-2.2,0.2-3.1-1.5c-0.2-0.5-0.6-0.8-1.1-0.9c-2.6-0.1-5.1-0.2-7.7,0
		c-0.9,0.1-1.4,0.5-1.6,1.3c-0.4,1.5-0.7,1.6-2.2,1.7c-3,0.2-5.8,0-8.7-1c-1.8-0.6-3.2-1.7-3.9-3.4c-0.5-1.2-0.6-2.6-1-3.9
		c-0.6-2.1-0.9-4.2-0.8-6.3c0.1-4.7,0.2-9.4,0.2-14c0-1.1,0.7-0.9,1.3-0.8c2.6,0.4,5,1.4,7.1,3.1c0.2,0.2,0.5,0.4,0.7,0.5
		c0.2,0.1,0.5,0.3,0.6,0c0.3-1.1,1.1-0.5,1.6-0.3c3.1,0.8,6.2,1.7,9.2,2.5c0.3,0.1,0.7,0.3,1,0c0.3-0.3,0-0.6-0.1-0.9
		c-0.1-0.4-0.5-0.9-0.1-1.2c0.5-0.2,0.6,0.4,0.9,0.7c1.2,1.5,2.4,3,4,4c0.8,0.5,1.7,0.8,2.7,0.8c0.3,3.5,0.7,7.1,0.9,10.6
		C168.5,65.7,168.4,68.8,168.3,71.8z M164.6,63.7c0.9,0,1.8-0.6,1.8-1.3c0-0.6-0.7-1.1-1.5-1.2c-0.9,0-1.7,0.5-1.7,1.2
		C163.2,63.2,163.9,63.7,164.6,63.7z M154.2,61.6c-0.7,0.1-1.5,0.1-1.6,1.1c-0.1,0.7,0.7,1.3,1.4,1.3c0.9,0,1.8-0.7,1.7-1.3
		C155.6,61.9,155,61.7,154.2,61.6z"/>
	<path class="st3" d="M124.2,105.7c3.5-0.1,7,0.2,10.4,1.3c1.1,0.4,2.1,0.9,2.9,1.7c0.4,0.4,0.5,0.7,0.2,1.2c-3,6.4-5.2,13-7.9,19.6
		c-0.3,0.8-0.1,1.5,0,2.2c1.1,7.4,2.2,14.8,3.3,22.1c0,0.2,0.1,0.3,0.1,0.6c0.7-0.6,1.3-1.2,2-1.7c1.2-0.9,2.2-0.8,3,0.1
		c0.8,0.9,0.6,1.9-0.4,3c-1,1.1-1,1.1,0.2,2c0.7,0.5,1.4,1.1,2,1.8c0.3,0.3,0.6,0.6,0.3,1.1c-0.2,0.4-0.7,0.4-1.1,0.4
		c-1.2-0.1-2.3-0.4-3.4-0.6c-0.1,0.5,0.3,0.5,0.5,0.7c0.4,0.4,0.8,0.7,1.2,1c0.3,0.3,0.5,0.6,0.3,1c-0.2,0.4-0.6,0.3-1,0.3
		c-1.2-0.1-2.2-0.7-3.4-1c0,0.4,0.3,0.6,0.5,0.8c0.7,0.7,1.4,1.5,2,2.3c0.2,0.4,0.6,0.8,0.3,1.3c-0.3,0.5-0.8,0.4-1.3,0.3
		c-2.1-0.3-3.7-1.5-5.2-2.9c-0.4-0.4-0.7-1-1.3-1.1c-1.6-2.7-2.3-5.7-3-8.6c-1.6-7-3-14-4.2-21c-0.3-1.6-1-3.1-0.8-4.8
		c0.3-2.3,0.6-4.6,1-6.8c0.8-5,1.7-10.1,2.6-15.1C124,106.3,124.1,106,124.2,105.7z M135.6,160.4L135.6,160.4L135.6,160.4
		L135.6,160.4z"/>
	<path class="st4" d="M121.2,205.9c0,0.8,0,1.6,0,2.4c-1.1,0.6-1.7,1.5-1.5,2.7c0.2,1.6,0.9,2.9,2.4,3.8c0.7,0.4,1.5,0.7,2.2,1.1
		c0.6,0.3,1.1,0.7,1.3,1.3c-0.1,0.8-0.5,1.4-0.9,2c-2.3,3.5-4.1,7.3-5.3,11.3c-0.2,0.7-0.2,1.3,0,2c0.8,2.2,0.4,4.1-1.1,5.9
		c-0.4,0.4-0.7,0.8-1,1.3c-0.5,0.7-1.2,0.7-2,0.7c-2.1-0.2-3.7-1.4-4.9-3.1c-2-2.8-2.9-5.9-2.8-9.3c0.1-1.9,0.2-3.8,0.1-5.7
		c-0.1-2.1-0.4-4-1.1-6c-0.8-2.2-1.1-4.5-1.1-6.8c0-0.7,0.1-1.3,0.4-1.9c0.3-0.7,0.8-1,1.7-1.1c3.1-0.5,6.3-0.5,9.4-1
		C118.3,205.3,119.8,205.3,121.2,205.9z"/>
	<path class="st4" d="M158.2,235c1.1-0.6,1.7,0.2,2.3,0.8c1.7,1.9,3.4,3.6,5.4,5.1c1,0.8,2.1,1.6,3.2,2.3c1,0.7,1.9,1.1,3.2,0.9
		c1.7-0.2,3.1,0.6,4.2,1.9c0.5,0.6,1,1.2,1.4,1.9c0.3,0.5,0.3,1.1,0.1,1.6c-0.6,1.9-2,3.1-3.8,3.8c-3,1.3-6.2,1.4-9.3,0.4
		c-2.2-0.7-4.4-1.3-6.7-1.8c-1.4-0.3-2.8-0.3-4.2-0.2c-2.3,0.2-4.6,0-6.9-0.7c-0.6-0.2-1.2-0.5-1.6-0.9c-0.4-0.4-0.5-0.9-0.5-1.5
		c0.2-3.1,1.2-6.1,1.4-9.2c0.1-1,0.5-2,0.9-2.9c0.3-0.6,0.8-0.8,1.4-0.9c0.7,0.2,1.1,0.7,1.4,1.3c0.5,1.1,1.5,1.6,2.7,1.6
		c1.3,0,2.4-0.4,3.3-1.3C156.9,236.6,157.5,235.8,158.2,235z"/>
	<path class="st3" d="M143.6,81.1c0.3,0,0.4,0.2,0.6,0.4c1.6,2,3.4,3.5,6.1,3.8c0.8,0.1,1.5,0.3,2.1,0.7c1.6,0.9,3.4,1.1,5.2,1
		c0.9-0.1,1.7-0.1,2.5-0.1c0.3,0.8,0.8,1.4,1.5,1.8c0.2,0.8,0.4,1.5,0.5,2.3c0.4,2.2-0.5,3.8-2.7,4.6c-1.9,0.7-3.8,0.6-5.7-0.1
		c-2.6-0.9-4.8-2.5-6.9-4.2c-2.1-1.8-4.1-3.8-5.9-6c0.1-0.4,0.5-0.6,0.8-0.8C143,83.6,143.6,82.5,143.6,81.1z"/>
	<path class="st3" d="M158.2,235c-0.7,0.8-1.4,1.6-2.1,2.3c-0.9,0.9-2,1.3-3.3,1.3c-1.2,0-2.2-0.4-2.7-1.6c-0.3-0.6-0.7-1.1-1.4-1.3
		c0.2-1.6,0.4-3.2,0.5-4.8c2.9,1.3,5.8,2.5,8.9,3.4C158,234.6,158,234.8,158.2,235z"/>
	<path class="st3" d="M125.4,217.1c-0.2-0.6-0.7-1-1.3-1.3c-0.7-0.3-1.5-0.7-2.2-1.1c-1.4-0.8-2.2-2.2-2.4-3.8
		c-0.1-1.2,0.4-2.1,1.5-2.7c0.6,2.4,1.7,4.6,3.2,6.6c0.6,0.8,1.3,1.5,1.7,2.4C125.9,217.2,125.6,217.2,125.4,217.1z"/>
	<path class="st3" d="M131.9,55.8c1.1,0.7,1.6,1.6,1.6,3.1c0,1.6,0.3,3.2,0.5,4.8c-1.4,0.1-2.6-1.1-2.3-2.4c0.5-1.7,0.3-3.4,0.2-5
		C131.9,56.1,131.9,55.9,131.9,55.8z"/>
	<path class="st3" d="M172.7,163.7c-0.1-0.5,0-0.9,0.1-1.4c0.4,0.2,0.8,0.4,0.8,0.9C173.5,163.6,173.1,163.7,172.7,163.7z"/>
	<path class="st0" d="M164.6,63.7c-0.7,0-1.4-0.6-1.4-1.3c0-0.6,0.8-1.2,1.7-1.2c0.8,0,1.5,0.5,1.5,1.2
		C166.4,63.1,165.5,63.7,164.6,63.7z"/>
	<path class="st0" d="M154.2,61.6c0.8,0,1.4,0.2,1.5,1.1c0.1,0.6-0.8,1.3-1.7,1.3c-0.8,0-1.5-0.6-1.4-1.3
		C152.7,61.8,153.5,61.7,154.2,61.6z"/>
	<polygon class="st0" points="135.6,160.4 135.6,160.3 135.6,160.3 	"/>
</g>
</svg>
