<?xml version="1.0" encoding="utf-8"?>
<!-- Generator: Adobe Illustrator 22.1.0, SVG Export Plug-In . SVG Version: 6.00 Build 0)  -->
<svg version="1.1" id="Capa_1" xmlns="http://www.w3.org/2000/svg" xmlns:xlink="http://www.w3.org/1999/xlink" x="0px" y="0px"
	 viewBox="0 0 283.5 283.5" style="enable-background:new 0 0 283.5 283.5;" xml:space="preserve">
<style type="text/css">
	.st0{fill:#F195BE;}
	.st1{fill:#852320;}
	.st2{fill:#0A813C;}
	.st3{fill:#1F1919;}
	.st4{fill:#04994B;stroke:#04994B;stroke-miterlimit:10;}
	.st5{fill:#04994B;}
	.st6{fill:#88CFE2;}
	.st7{fill:#020203;}
</style>
<g>
	<g>
		<path class="st0" d="M128.7,208.9c-0.1-1.7-1-2.9-2.4-4.8c-0.6-0.8-1.3-1.7-2.5-2.4c-0.3-0.2-0.5-0.3-0.9-0.4
			c-1.5,0.3-4.2,1.3-5.3,2.5c-2.3,2.3,5.1,7,6.6,7.1c1.3,0.1-0.4-0.8,1.3-1.2C125.2,209.5,127.6,209,128.7,208.9z"/>
		<path class="st1" d="M126,229.9c1.6-3.1,0.3-5.3-1-6.6c-0.6-4.1,0.1-9.4,0.8-12.1c1-4.3-3.7-0.4-6.2-4.4c-1.4-2.2,0.7-3.1,0.1-4.3
			c-0.6-1.2-1.9-0.6-1.9-0.6c-1.3,0-2.7,1.2-2.7,1.2l-4.8,2.1c-0.5,0.5-1.8,1.2-2.3,1.3c-0.5,0.1-1.7,1.4,0.9,5.7
			c2.6,4.3,2.1,2,4.2,6.6c2.1,4.6,1.7,7.2,5.6,10.7C122.5,232.9,126.4,231.3,126,229.9z M110.3,206.1c-0.1,0.2-0.1,0.4-0.2,0.6
			C110.2,206.5,110.2,206.3,110.3,206.1z"/>
	</g>
	<path class="st2" d="M121.1,201.4c3.7,1.6,1.4,9.8,5.1,9.6c34.8-13.7,36.2-48.3,36.2-48.3l-14.8-1.5
		C150.2,170.1,145.8,191.8,121.1,201.4z"/>
	<path class="st0" d="M167.3,209.3c-1,0.6,0,1.4-0.8,1.6c-2.4,0.9-4.3,1.3-6.7,1.4c0,0,0,0.1,0,0.1c-0.1,0.1-0.2,0.2-0.3,0.2
		c0.7,6.3-0.2,12.1-0.2,12.1s3.6-1.8,8-5.7C167.3,219.1,168.2,213.6,167.3,209.3z"/>
	<path class="st1" d="M185.5,226.5c-1.8-2.8-4.2-2.7-5.9-2.2c-3.6-1.4-7.7-4.4-9.7-6.2c-3.1-2.8-2,2.8-6.5,3.1
		c-2.5,0.2-2.2-2-3.5-2.1c-1.2-0.1-1.4,1.3-1.4,1.3c-0.6,1.1-0.3,2.8-0.3,2.8l-0.4,4.9c0.2,0.7,0.2,2.1,0,2.5
		c-0.2,0.4,0.4,2.1,5.1,1.9c4.7-0.2,2.6-0.8,7.4-0.4c4.8,0.4,6.7,1.9,11.4,0.2C186.4,230.8,186.8,226.8,185.5,226.5z M158.6,228.6
		c0.1,0.1,0.3,0.3,0.4,0.4C158.8,228.8,158.7,228.7,158.6,228.6z"/>
	<path class="st0" d="M173.3,144.5c0,0,2.3-2.2,0.8-3.5c-2.1-1.8-4,2.4-4,2.4l-8-21.8c-1.8-1.7-6,0.5-7,3c0,0,0,0.1,0,0.1
		c1.8,4.2,9.4,23.3,11.7,25.6c3.6,3.7,8,3.6,8.1,2.6c0.1-1-3.9-3.4-3.9-3.4s4.6,1,4.6,0c0.1-1-3.5-2-3.5-2s5.1,0.5,5.1-0.5
		C177.3,146,173.3,144.5,173.3,144.5z"/>
	<path class="st3" d="M132.5,96.9c-3.9-2-7-0.3-9.5,2.3c-1.4,2-2.8,4.5-3.9,7.6c0,0,10.5,2.6,10.8,6.8c0.2,2.3,4.2-2.6,6.7-8.7
		C136.8,101.7,135.4,98.3,132.5,96.9z"/>
	<path class="st4" d="M152.8,164.5c1.9-0.4,3.8-0.7,5.7-0.9c-5.7-1.8-18.7-5.3-26.3-3c-9.9,2.9-6.4,6.9-6.4,6.9s5.2,6.1,13.3,7
		C139.6,167.9,147.3,165.6,152.8,164.5z"/>
	<path class="st5" d="M144,163.1c-5.3,1.9-4.7,5.2-7.3,10.7c8,1.4,20.8,33.2,22,44.2c0,0,8.5-2.1,12.1-1.4c0,0-0.4-26.8-16.3-52.5
		C153.2,164.5,145.1,162.7,144,163.1z"/>
	<path class="st0" d="M153.9,86.6c0.5-3.2,2.4-6.2,2.4-9.3c-1.4,0.6-2.6,1.9-3.7,2.8c-1.7,1.4-3.4,2.7-5.2,4.1
		c-1.7,1.4-0.4-3.2-2.2-2c-1.1,0.7-4-1.9-5.2-1.3c-0.3,8.5,0.1,9.7-3,11.3c-0.9,2.8-4.4,7.4-5.6,10.1c5.1,3,26.3,8.4,26.9-4.8
		C151.9,95.3,153.2,91,153.9,86.6z"/>
	<path class="st0" d="M131.2,68.2c-0.4-5.9,1.2-3.3,1.5-6.6c0.2-2.5,0.7-7.7,2.9-9c2.2-1.2,4.7-1.7,7.3-1.8c4.2-0.2,8.5,0.4,12.5,2
		c2.3,0.9,4.7,2.4,5.7,4.7c0.7,1.5,0.7,3.1,0.7,4.7c0.2,8,0.7,14.8-0.8,22.7c-0.4,1.9-1.3,5.2-2.7,6.6c-1.9,1.9-4.9,2-7.6,2
		c-1.5-0.8-2.8-2.1-4.1-3.2c-1.8-1.5-3.4-3.2-5-4.8c-1.6-1.6-3.2-3.1-4.8-4.7c-0.7-0.8-1.6-1.6-2.5-2.1c0-0.3,0.1-0.5,0.2-0.8
		c-1-0.1-1.4-1.3-1.4-2.2c0-1,0.3-2-0.2-2.8c-0.3-0.5-1.1,0-1.5-0.5C129.8,70,131.3,70,131.2,68.2z"/>
	<path class="st6" d="M155.4,59.6c0.1,0.5,0.2,1,0.4,1.4c0.1,0.2-0.1,0.5-0.4,0.4c-3.1-1.1-6.2-2.2-9.3-3.3
		c-0.2-0.1-0.4,0.1-0.4,0.3c0,0,0,0,0,0c0.1,0.3-0.3,0.5-0.5,0.3c-2-2-4.6-3.3-7.4-3.8c-0.2,0-0.3,0.1-0.3,0.3
		c-0.3,3.5-0.6,7-0.9,10.5c-0.2,2.1-0.4,4.1-0.1,6.2c0.3,2.1,1.1,4.3,0.7,6.4c0,0.1-0.1,0.2-0.2,0.2c-1.5,0.5-2.7-1.4-3.1-3
		c-0.6-2.7-1-5.5-1-8.3c0-0.2-0.1-0.3-0.3-0.3c-1.3,0-1.8-2-1.7-3.4c0.2-3.5,0.3-7.1,0.5-10.6c0-0.2-0.2-0.4-0.4-0.3c0,0,0,0,0,0
		c-0.3,0.1-0.5-0.3-0.3-0.5c0.6-0.7,1-1.3,1.7-2.2c0.2-0.3,0.6-0.6,1-0.5c0.4,0.1,0.1,0.9-0.2,0.6c1.9-2.8,5.5-3.9,8.8-4.8
		c0.5-0.1,1.1-0.3,1.5,0.1c0.4,0.3,0.2,1.2-0.3,1c2.9-3.3,8.9-3.3,11.7,0.2c1.2,1.4,1.9,3.3,3.6,4.2c0.9,0.4,2,0.6,2.4,1.5
		c0.2,0.4,0.2,0.9,0.2,1.3c0.1,0.7,0.3,1.3,0.6,2c0.6,1.7,2.7,8.4,0.3,9.1c-2.1,0.6-4.7-2.9-6-5.1C155.8,59.1,155.4,59.3,155.4,59.6
		z"/>
	<path class="st6" d="M132.5,72.1c0.2,2.1,0.4,4.2,1.1,6.2s1,4.5,2.7,5.7c1.3,1,1.4,2.3,2.3,3.7c0.3,0.4,1.3,0.3,1.5,0.7
		c0.6,1.2,1.7,2.1,2.7,2.9c0.9,0.8,3.5,0.9,4.4,1.7c0.2,0.2,0.4,0.3,0.6,0.4c0.6,0.3,1.5,0.2,2.1,0.5c0.5,0.2,0.9,0.3,1.4,0.2
		c1.5-0.3,3.8,0.4,5.5-0.6c0.9-0.6,1.8-1.6,2.3-2.6c1.4-3,2.1-6.1,2.5-9.4c-0.8,0.5-1.9,0.1-2.3-0.7c-0.2-0.4-0.3-0.9-0.6-1.2
		c-0.3-0.3-0.9-0.4-1.3-0.4c-1.9-0.1-3.7-0.2-5.6-0.4c-0.4,0-0.9,0-1.2,0.2c-0.6,0.4-0.5,1.5-1.1,2c-0.3,0.2-0.7,0.3-1.1,0.3
		c-2.2,0.1-4.4-0.2-6.5-0.8c-1-0.3-2-0.7-2.9-1.4c-1.7-1.4-2.3-3.6-2.7-5.7c-0.7-3.8-1-7.8-0.7-11.7c0-0.7-0.3-3-1.6-2
		c-0.6,0.5-1,2.8-1.2,3.6C132.2,66.1,132.3,69.1,132.5,72.1z"/>
	<path class="st7" d="M149.1,74.9c-0.1-0.2-0.3-0.4-0.3-0.7c-0.3-1-0.5-2.3,0.5-3c1.3-0.9,2,1.1,1.9,2.1
		C151.1,74.5,149.9,75.8,149.1,74.9z"/>
	<path class="st7" d="M158.3,75.3c-0.1-0.2-0.3-0.4-0.3-0.7c-0.3-1-0.5-2.3,0.5-3c1.3-0.9,2,1.1,1.9,2.1
		C160.3,74.9,159.1,76.1,158.3,75.3z"/>
	<path class="st3" d="M163.4,100.3c-4.1-3.3-8.2-4.9-8.2-4.8c-0.2,0.4,2.6,5.7-3.6,6.3c-6.2,0.6-12.9-8.3-14.4-9.7
		c0,0-8.1,3.6-9.6,5c-2.9,5.8-0.7,10.6-1.2,16.9c-0.5,5.7,0.1,11.1,0,18.2c-1,10.5-2.2,28.9-1.1,34.6c2.4-0.6,2-1.1,7.1-2.1
		c4.8-0.9,10.1-1.4,14.9-0.9c3.6,0.4,12.4,0.4,15,1.7c3.2-4.6-1.1-21,0.4-33.8C163.1,127.1,167.5,103.6,163.4,100.3z"/>
	<path class="st0" d="M120.5,104.6l-0.5,0.8c0,0-10,20.3-9.6,21.3c0.6,2.2,1.4,2.3,3.5,2.9c0.5,0.1,2.4,0.1,3,0.2
		c2.7-3.3,9.9-13.5,12.6-16.3C133.5,109.3,120.5,104.6,120.5,104.6z"/>
	<path class="st0" d="M120.7,151.8c0,0,3-1.3,1.9-3.1c-1.4-2.4-4.6,0.8-4.6,0.8l0.1-23.2c-1.1-2.3-5.8-1.7-7.6,0.4c0,0,0,0.1,0,0.1
		c0.2,4.6,0.7,25.1,2,28.1c2.1,4.7,6.2,6.2,6.6,5.3c0.4-0.9-2.5-4.5-2.5-4.5s3.9,2.6,4.3,1.6c0.4-0.9-2.6-3.1-2.6-3.1s4.6,2.3,5,1.3
		C123.9,154.6,120.7,151.8,120.7,151.8z"/>
</g>
</svg>
