<?xml version="1.0" encoding="utf-8"?>
<!-- Generator: Adobe Illustrator 22.1.0, SVG Export Plug-In . SVG Version: 6.00 Build 0)  -->
<svg version="1.1" id="Capa_1" xmlns="http://www.w3.org/2000/svg" xmlns:xlink="http://www.w3.org/1999/xlink" x="0px" y="0px"
	 viewBox="0 0 283.5 283.5" style="enable-background:new 0 0 283.5 283.5;" xml:space="preserve">
<style type="text/css">
	.st0{fill:#241F20;}
	.st1{fill:#00984A;}
	.st2{fill:#87CEE1;}
	.st3{fill:#EE88B6;}
	.st4{fill:#83231F;}
</style>
<g>
	<path class="st0" d="M124,171.3C124,171.3,123.9,171.3,124,171.3c-1.9,0.6-2,0.6-2.2-1.3c-0.7-5.3-0.6-10.6-0.5-15.9
		c0.1-6.4,0.4-12.8,0.8-19.2c0.6,0.1,0.7,0.7,0.9,1.1c3.9,6.9,7.9,13.8,12.2,20.5c1.7,2.6,3.7,4.7,6.7,5.6c1.6,0.5,3.3,0.9,5,0.4
		c1-0.3,1.1-0.8,0.4-1.5c-0.6-0.6-1.3-1-2-1.4c-0.5-0.3-1.1-0.6-1.6-0.9c1.3-0.2,2.6-0.1,3.8-0.3c0.3-0.1,0.6-0.1,0.7-0.5
		c0.1-0.4-0.2-0.6-0.5-0.8c-0.5-0.3-1.1-0.5-1.6-0.7c-0.3-0.1-0.7,0-0.9-0.5c1.3-0.1,2.4-0.2,3.6-0.5c0.4-0.1,0.9-0.2,1-0.7
		c0.1-0.5-0.4-0.7-0.7-0.9c-0.7-0.4-1.4-0.7-2.2-0.9c-0.5-0.2-1.2-0.2-1.5-0.5c-0.4-0.5,0.3-0.9,0.5-1.4c0.5-1.4,0.3-2.3-0.7-2.9
		c-1-0.6-1.9-0.3-2.8,0.9c-0.5,0.7-0.8,1.5-1.2,2.2c-0.4-0.1-0.4-0.4-0.5-0.6c-3.6-6.9-7.1-13.7-10.7-20.6c-0.3-0.6-0.3-1.1-0.2-1.7
		c0.3-1.7,0.5-3.3,0.8-5c0.7-4.6,1.3-9.1,2.2-13.7c0.4-2.1,0.2-2.4-1.9-3c-0.2-0.1-0.4-0.1-0.7-0.2c-3.8-0.5-7.6-0.1-11.2,0.9
		c-0.3-0.2-0.3-0.5-0.4-0.8c-0.4-2.8-0.6-5.7-0.2-8.5c0.5-3.5,2.1-6.3,5.5-8c3.1-1.5,6.1-3.3,9.2-4.8c0.3-0.2,0.7-0.5,1.1-0.4
		c1.1,1.1,2.1,2.3,3.2,3.4c2.4,2.4,5,4.7,8.1,6.2c2.3,1.1,4.7,1.6,7.3,0.8c2.1-0.7,3.1-2.3,2.7-4.5c-0.1-0.8-0.4-1.6-0.5-2.4
		c0.5-0.1,0.9,0.2,1.3,0.3c3,1.2,5.7,2.9,8.3,4.8c1,0.8,1.5,1.9,1.7,3c0.7,3,0.8,6.1,0.7,9.1c-0.2,8-1.3,15.9-2.2,23.8
		c-0.6,5-0.3,10.1,0,15.1c0.4,6.3,1.3,12.5,1,18.9c-0.1,1.5-0.3,3-0.9,4.4c-0.2,0.4-0.4,0.7-1,0.5c-1.9-0.8-3.9-0.7-5.8-0.7
		c-4,0-8,0.2-12-0.1c-4.7-0.3-9.4,0.3-14,1.2C129.1,169.5,126.4,170,124,171.3z"/>
	<path class="st1" d="M124,171.3c2.4-1.3,5.1-1.8,7.8-2.4c4.6-0.9,9.3-1.5,14-1.2c4,0.3,8,0.1,12,0.1c1.9,0,4-0.1,5.8,0.7
		c-0.4,3.6-0.1,7.1-0.3,10.7c-0.3,6.7-0.7,13.4-2,20.1c-0.4,2.2-1.8,3.6-3.1,5.2c-3.8,4.7-7.8,9.1-11.9,13.5
		c-0.4,0.4-0.6,0.8-0.8,1.3c-1.4,4.3-2.9,8.7-4.4,13c-0.6,1.9-0.8,1.9-2.8,1.9c-0.5-0.2-1-0.6-1.6-0.5c-1.7-1.1-3.4-2-5-3.2
		c-1.1-0.9-2.3-1.8-3.5-2.6c-0.1-0.3-0.4-0.6-0.6-0.7c-0.8-0.5-0.8-1.1-0.5-1.9c1-2.4,1.8-4.8,2.8-7.2c0.5-1.2,1-2.3,0.2-3.5
		c-0.1-0.2-0.1-0.4-0.1-0.7c1.2-0.8,2.3-1.8,2.8-3.3c0.3-1,0.7-2,1.2-2.9c3.1-6,2.6-12.1,0.3-18.2c-1.3-3.3-3.3-6.2-5.8-8.5
		c-2.6-2.4-4.1-5.3-4.6-8.7C124.1,171.9,124,171.6,124,171.3z"/>
	<path class="st2" d="M160.8,71.1c0,4-0.6,7.9-2.1,11.6c-1,2.5-3,3.8-5.7,3.8c-0.6,0-1.1-0.1-1.7,0.1c-2.2,0.5-4.3,0.2-6.3-0.8
		c-0.5-0.3-1-0.4-1.5-0.4c-1.9-0.2-3.6-0.7-5.1-2.1c-0.7-0.6-1.2-1.4-2-1.9c-1.7-0.2-2.3-1.6-2.9-2.8c-0.3-0.5-0.7-1-1.2-1.3
		c-1.8-1.2-2.7-2.9-3.5-4.8c-1.1-2.7-2.2-5.4-2.6-8.3c-0.2-1.4-0.4-2.8-0.6-4.2c-0.1-1.4-0.2-2.8-1.7-3.5c-0.7-1.5-0.7-3.2-0.8-4.8
		c-0.1-3.2-0.3-6.3-0.4-9.5c0-0.3,0-0.8-0.3-0.9c-1-0.3-0.5-0.7-0.2-1.2c0.4-0.6,0.8-1.2,1.2-1.8c0.3-0.5,0.7-1,1.3-1
		c0.2,0,0.4-0.2,0.5-0.3c2-2.5,4.8-3.8,7.6-4.9c0.5-0.2,0.9-0.4,1.4-0.6c0.4-0.2,0.9-0.3,1.1-0.1c1,0.8,1.5-0.1,2.1-0.5
		c4-2.6,9.6-2.5,13.1,2.2c1.1,1.5,2.4,2.8,4.4,3.2c1.3,0.3,2.1,1.1,2.1,2.5c0.1,1,0.6,1.9,1,2.8c1.1,2.4,1.9,4.8,2.3,7.4
		c0.1,1.1-0.1,2.1-1.1,2.7c-1.9,0.2-3.3-0.9-4.5-2.1c-1-0.9-1.9-1.9-2.7-3c-0.1-0.2-0.3-0.4-0.6-0.3c-0.3,0.1-0.2,0.4-0.1,0.6
		c0.1,0.3,0.2,0.7,0.4,1c0.2,0.6,0.1,0.8-0.6,0.7c-0.8-0.2-1.7-0.4-2.5-0.6c-2.6-0.6-5.3-1.3-7.9-1.9c-0.3-0.1-0.7-0.3-0.9,0.2
		c-0.3,0.8-0.6,0.5-1,0.2c-2.3-1.7-4.9-2.7-7.7-3.2c-0.9-0.1-1.2,0-1.2,1c0.1,4.2,0,8.4,0.1,12.6c0,1.2,0.2,2.4,0.3,3.6
		c0.2,2.3,1.2,4.5,1.6,6.7c0.5,2.3,1.9,3.6,4,4.4c2.9,1.1,6,1.1,9.1,0.9c1.3-0.1,2-0.7,2.2-1.9c0.1-0.8,0.7-1.3,1.5-1.3
		c2.4-0.1,4.7-0.1,7.1-0.2c0.7,0,1.3,0.3,1.6,0.9C158.7,71.5,158.9,71.6,160.8,71.1z"/>
	<path class="st3" d="M160.8,71.1c-1.9,0.4-2.1,0.3-3.2-1.4c-0.4-0.6-0.9-0.9-1.6-0.9c-2.4,0.1-4.7,0.1-7.1,0.2
		c-0.8,0-1.4,0.5-1.5,1.3c-0.2,1.3-0.9,1.8-2.2,1.9c-3.1,0.3-6.1,0.2-9.1-0.9c-2.1-0.7-3.5-2.1-4-4.4c-0.5-2.2-1.5-4.4-1.6-6.7
		c-0.1-1.2-0.2-2.4-0.3-3.6c0-4.2,0-8.4-0.1-12.6c0-0.9,0.3-1.1,1.2-1c2.8,0.5,5.4,1.4,7.7,3.2c0.4,0.3,0.7,0.6,1-0.2
		c0.1-0.4,0.5-0.2,0.9-0.2c2.6,0.6,5.2,1.3,7.9,1.9c0.8,0.2,1.7,0.4,2.5,0.6c0.7,0.2,0.8-0.1,0.6-0.7c-0.1-0.3-0.3-0.7-0.4-1
		c-0.1-0.2-0.1-0.5,0.1-0.6c0.3-0.1,0.4,0.1,0.6,0.3c0.8,1.1,1.7,2.1,2.7,3c1.3,1.2,2.6,2.2,4.5,2.1c0.3,2.3,0.6,4.7,0.9,7
		c0.2,1.6,0.4,3.2,0.5,4.8C160.7,66,161,68.5,160.8,71.1z M155.4,61.6c0,0.8,0.2,1.5,0.6,2.1c0.5,1,1.4,1.1,2.1,0.2
		c0.9-1.1,0.7-3.1-0.3-4c-0.5-0.5-1.1-0.4-1.6,0C155.5,60.4,155.4,61,155.4,61.6z M144.7,62.3c0,0.5,0.3,1.6,0.6,2.1
		c0.5,0.9,1.4,1,2.1,0.1c0.9-1,0.7-2.9-0.3-3.9c-0.5-0.5-1.3-0.5-1.9,0C144.8,61.1,144.8,61.7,144.7,62.3z"/>
	<path class="st3" d="M118.6,107.5c3.7-1,7.4-1.5,11.2-0.9c0.2,0,0.4,0.1,0.7,0.2c2.1,0.6,2.3,1,1.9,3c-0.9,4.5-1.6,9.1-2.2,13.7
		c-0.2,1.7-0.5,3.3-0.8,5c-0.1,0.6,0,1.2,0.2,1.7c3.6,6.9,7.1,13.7,10.7,20.6c0.1,0.2,0.2,0.5,0.5,0.6c0.4-0.7,0.7-1.5,1.2-2.2
		c0.9-1.1,1.8-1.4,2.8-0.9c1,0.6,1.2,1.5,0.7,2.9c-0.2,0.5-0.9,0.9-0.5,1.4c0.3,0.3,1,0.4,1.5,0.5c0.8,0.2,1.5,0.5,2.2,0.9
		c0.4,0.2,0.8,0.4,0.7,0.9c-0.1,0.5-0.6,0.6-1,0.7c-1.2,0.3-2.3,0.4-3.6,0.5c0.2,0.4,0.6,0.4,0.9,0.5c0.6,0.2,1.1,0.3,1.6,0.7
		c0.3,0.2,0.6,0.4,0.5,0.8c-0.1,0.3-0.4,0.4-0.7,0.5c-1.2,0.2-2.5,0.2-3.8,0.3c0.5,0.3,1.1,0.6,1.6,0.9c0.7,0.4,1.5,0.8,2,1.4
		c0.7,0.7,0.6,1.2-0.4,1.5c-1.7,0.5-3.3,0.1-5-0.4c-3-1-5-3.1-6.7-5.6c-4.3-6.7-8.3-13.6-12.2-20.5c-0.2-0.4-0.3-1-0.9-1.1
		c0-0.7-0.3-1.4-0.8-1.7c-1.2-1-1.3-2.3-1.4-3.6c-0.5-5.8-0.9-11.7-1.1-17.5C118.7,110.6,118.7,109,118.6,107.5z"/>
	<path class="st4" d="M136.8,233.8c0.6-0.1,1.1,0.3,1.6,0.5c2.6,3.7,5.5,7,9.1,9.7c0.4,0.3,0.8,0.5,1.4,0.5c2.4,0,4.1,1.1,5.2,3.2
		c1.2,2.3,0.9,3.8-1.4,5.2c-3.2,1.9-6.6,2-10,0.9c-2.8-0.9-5.3-2.3-8.1-3.1c-1.2-0.3-2.4-0.5-3.7-0.6c-2.4-0.1-4.7-0.5-6.9-1.5
		c-0.6-0.2-1-0.6-1.5-1c-0.5-0.5-0.6-1-0.4-1.7c0.6-2.2,1.1-4.3,1.8-6.5c0.3-0.8-0.2-1.7-0.4-2.5c-0.8-3.3-1.7-6.6-3.8-9.5
		c-1.3-1.8-2.2-3.8-2.6-6c-0.1-0.7-0.2-1.3-0.1-2c0.1-0.7,0.4-1.2,1.2-1.3c1.3-0.2,2.2-1.1,3.4-1.5c2.1-0.7,4.2-1.2,6.2-2.2
		c0.7-0.4,1.6-0.4,2.4-0.5c0,0.2,0,0.5,0.1,0.7c0.8,1.2,0.2,2.4-0.2,3.5c-0.9,2.4-1.8,4.8-2.8,7.2c-0.3,0.8-0.3,1.4,0.5,1.9
		c0.3,0.2,0.5,0.4,0.6,0.7c-0.3,1.3-0.5,2.6-0.8,4c-0.2,0.8-0.7,1.7,0.4,2.3c0.2,0.1,0.2,0.4,0.3,0.6c0.5,1.5,1.6,2.1,3.1,2.1
		c1.4,0,2.6-0.6,3.6-1.6C135.6,234.8,136.1,234.2,136.8,233.8z"/>
	<path class="st3" d="M136.5,81.3c0.8,0.5,1.4,1.3,2,1.9c1.5,1.4,3.2,1.9,5.1,2.1c0.5,0.1,1,0.2,1.5,0.4c2,1.1,4.1,1.3,6.3,0.8
		c0.6-0.1,1.1-0.1,1.7-0.1c0.3,0.9,0.8,1.6,1.6,1.9c0.2,0.8,0.4,1.6,0.5,2.4c0.4,2.2-0.6,3.8-2.7,4.5c-2.5,0.9-4.9,0.4-7.3-0.8
		c-3.1-1.5-5.7-3.8-8.1-6.2c-1.1-1.1-2.1-2.2-3.2-3.4C135.3,84.1,136.3,83,136.5,81.3z"/>
	<path class="st3" d="M124,56.4c1.5,0.7,1.6,2.1,1.7,3.5c0.1,1.4,0.4,2.8,0.6,4.2c-1.5,0.1-2.5-0.8-2.3-2.3
		C124.3,59.9,124.1,58.2,124,56.4z"/>
	<path class="st3" d="M136.8,233.8c-0.7,0.4-1.2,1-1.8,1.6c-1,1-2.2,1.6-3.6,1.6c-1.5,0-2.6-0.5-3.1-2.1c-0.1-0.2-0.1-0.5-0.3-0.6
		c-1.1-0.6-0.6-1.5-0.4-2.3c0.3-1.3,0.5-2.6,0.8-4c1.2,0.9,2.3,1.8,3.5,2.6C133.4,231.8,135.1,232.7,136.8,233.8z"/>
	<path class="st0" d="M155.4,61.6c0.1-0.6,0.2-1.2,0.7-1.6c0.5-0.4,1.1-0.4,1.6,0c1,0.9,1.2,2.9,0.3,4c-0.7,0.9-1.6,0.8-2.1-0.2
		C155.6,63.1,155.4,62.4,155.4,61.6z"/>
	<path class="st0" d="M144.7,62.3c0-0.6,0.1-1.2,0.6-1.6c0.5-0.5,1.3-0.6,1.9,0c1,1,1.1,2.9,0.3,3.9c-0.7,0.8-1.6,0.8-2.1-0.1
		C145.1,63.9,144.7,62.8,144.7,62.3z"/>
</g>
</svg>
