<?xml version="1.0" encoding="utf-8"?>
<!-- Generator: Adobe Illustrator 22.1.0, SVG Export Plug-In . SVG Version: 6.00 Build 0)  -->
<svg version="1.1" id="Capa_1" xmlns="http://www.w3.org/2000/svg" xmlns:xlink="http://www.w3.org/1999/xlink" x="0px" y="0px"
	 viewBox="0 0 283.5 283.5" style="enable-background:new 0 0 283.5 283.5;" xml:space="preserve">
<style type="text/css">
	.st0{fill:#F195BE;}
	.st1{fill:#852320;}
	.st2{fill:#0A813C;}
	.st3{fill:#04994B;}
	.st4{fill:#1F1919;}
	.st5{fill:#88CFE2;}
	.st6{fill:#020203;}
</style>
<g>
	<path class="st0" d="M133.6,207.1c0.1-1.7-0.7-3-2-5c-0.5-0.8,0.3-2.5-0.8-3.3c-0.3-0.2-0.5-1-0.9-1.2c-1.5,0.2-5.8,2.3-7,3.4
		c-2.5,2.1,4.5,7.4,6,7.6c1.3,0.2-0.3-0.9,1.4-1.1C130,207.4,132.5,207.1,133.6,207.1z"/>
	<path class="st1" d="M129.1,227.8c1.9-2.9,0.8-5.3-0.5-6.7c-0.2-4.1,0.9-9.4,1.8-12c1.4-4.2-3.6-0.7-5.9-4.9c-1.2-2.3,1-3,0.5-4.2
		s-1.9-0.7-1.9-0.7c-1.3-0.1-2.8,0.9-2.8,0.9l-5,1.7c-0.6,0.5-1.9,1.1-2.4,1.1s-1.8,1.3,0.4,5.8c2.3,4.5,1.9,2.2,3.6,6.9
		c1.7,4.8,1.1,7.3,4.7,11.1C125.4,230.5,129.5,229.2,129.1,227.8z"/>
</g>
<path class="st2" d="M128.6,197.8c3.7,1.6,1.5,11.7,5.2,11.6c34.8-13.7,27.9-46.6,27.9-46.6l-14.8-1.5
	C149.4,170.1,153.3,188.1,128.6,197.8z"/>
<path class="st0" d="M162.3,209.2c-1,0.6,0,1.4-0.8,1.6c-2.4,0.9-4.3,1.3-6.7,1.4v0.1c-0.1,0.1-0.2,0.2-0.3,0.2
	c0.7,6.3-0.2,12.1-0.2,12.1s3.6-1.8,8-5.7C162.3,219,163.2,213.5,162.3,209.2z"/>
<path class="st1" d="M180.2,226.4c-1.8-2.8-4.2-2.7-5.9-2.2c-3.6-1.4-7.7-4.4-9.7-6.2c-3.1-2.8-2,2.8-6.5,3.1
	c-2.5,0.2-2.2-2-3.5-2.1c-1.2-0.1-1.4,1.3-1.4,1.3c-0.6,1.1-0.3,2.8-0.3,2.8l-0.4,4.9c0.2,0.7,0.2,2.1,0,2.5s0.4,2.1,5.1,1.9
	c4.7-0.2,2.6-0.8,7.4-0.4c4.8,0.4,6.7,1.9,11.4,0.2C181.1,230.7,181.5,226.7,180.2,226.4z M153.3,228.4c0.1,0.1,0.3,0.3,0.4,0.4
	C153.6,228.7,153.4,228.6,153.3,228.4z"/>
<path class="st3" d="M143.3,163.1c-5.3,1.9-4.7,5.2-7.3,10.7c8,1.4,17.4,32.3,18.6,43.3c0,0,7.2-1.6,10.8-0.9
	c0,0,1.4-26.1-14.5-51.8C149.6,164.8,144.4,162.7,143.3,163.1z"/>
<path class="st0" d="M172.6,144.6c0,0,2.3-2.2,0.8-3.5c-2.1-1.8-4,2.4-4,2.4l-8-21.8c-1.8-1.7-6,0.5-7,3v0.1
	c1.8,4.2,9.4,23.3,11.7,25.6c3.6,3.7,8,3.6,8.1,2.6s-3.9-3.4-3.9-3.4s4.6,1,4.6,0c0.1-1-3.5-2-3.5-2s5.1,0.5,5.1-0.5
	C176.5,146,172.6,144.6,172.6,144.6z"/>
<path class="st4" d="M131.8,96.9c-3.9-2-7-0.3-9.5,2.3c-1.4,2-1.6,2.5-2.7,5.6c0,0,9.3,4.6,9.6,8.8c0.2,2.3,4.2-2.6,6.7-8.7
	C136.1,101.7,134.6,98.4,131.8,96.9z"/>
<path class="st3" d="M152,164.5c1.9-0.4,3.8-0.7,5.7-0.9c-5.7-1.8-18.7-5.3-26.3-3c-9.9,2.9-6.4,6.9-6.4,6.9s5.2,6.1,13.3,7
	C138.9,167.9,146.5,165.6,152,164.5z"/>
<path class="st0" d="M153.1,86.6c0.5-3.2,2.4-6.2,2.4-9.3c-1.4,0.6-2.6,1.9-3.7,2.8c-1.7,1.4-3.4,2.7-5.2,4.1
	c-1.7,1.4-0.4-3.2-2.2-2c-1.1,0.7-4-1.9-5.2-1.3c-0.3,8.5,0.1,9.7-3,11.3c-0.9,2.8-4.4,7.4-5.6,10.1c5.1,3,26.3,7.8,26.9-5.4
	C151.1,94.7,152.5,91,153.1,86.6z"/>
<path class="st0" d="M130.5,68.7c-0.4-5.9,1.2-3.3,1.5-6.6c0.2-2.5,0.7-7.7,2.9-9c2.2-1.2,4.7-1.7,7.3-1.8c4.2-0.2,8.5,0.4,12.5,2
	c2.3,0.9,4.7,2.4,5.7,4.7c0.7,1.5,0.7,3.1,0.7,4.7c0.2,8,0.7,14.8-0.8,22.7c-0.4,1.9-1.3,5.2-2.7,6.6c-1.9,1.9-4.9,2-7.6,2
	c-1.5-0.8-2.8-2.1-4.1-3.2c-1.8-1.5-3.4-3.2-5-4.8c-1.6-1.6-3.2-3.1-4.8-4.7c-0.7-0.8-1.6-1.6-2.5-2.1c0-0.3,0.1-0.5,0.2-0.8
	c-1-0.1-1.4-1.3-1.4-2.2c0-1,0.3-2-0.2-2.8c-0.3-0.5-1.1,0-1.5-0.5C129.1,70.5,130.6,70.5,130.5,68.7z"/>
<path class="st5" d="M154.7,60.1c0.1,0.5,0.2,1,0.4,1.4c0.1,0.2-0.1,0.5-0.4,0.4c-3.1-1.1-6.2-2.2-9.3-3.3c-0.2-0.1-0.4,0.1-0.4,0.3
	l0,0c0.1,0.3-0.3,0.5-0.5,0.3c-2-2-4.6-3.3-7.4-3.8c-0.2,0-0.3,0.1-0.3,0.3c-0.3,3.5-0.6,7-0.9,10.5c-0.2,2.1-0.4,4.1-0.1,6.2
	c0.3,2.1,1.1,4.3,0.7,6.4c0,0.1-0.1,0.2-0.2,0.2c-1.5,0.5-2.7-1.4-3.1-3c-0.6-2.7-1-5.5-1-8.3c0-0.2-0.1-0.3-0.3-0.3
	c-1.3,0-1.8-2-1.7-3.4c0.2-3.5,0.3-7.1,0.5-10.6c0-0.2-0.2-0.4-0.4-0.3l0,0c-0.3,0.1-0.5-0.3-0.3-0.5c0.6-0.7,1-1.3,1.7-2.2
	c0.2-0.3,0.6-0.6,1-0.5s0.1,0.9-0.2,0.6c1.9-2.8,5.5-3.9,8.8-4.8c0.5-0.1,1.1-0.3,1.5,0.1c0.4,0.3,0.2,1.2-0.3,1
	c2.9-3.3,8.9-3.3,11.7,0.2c1.2,1.4,1.9,3.3,3.6,4.2c0.9,0.4,2,0.6,2.4,1.5c0.2,0.4,0.2,0.9,0.2,1.3c0.1,0.7,0.3,1.3,0.6,2
	c0.6,1.7,2.7,8.4,0.3,9.1c-2.1,0.6-4.7-2.9-6-5.1C155.1,59.6,154.6,59.8,154.7,60.1z"/>
<path class="st5" d="M131.8,72.6c0.2,2.1,0.4,4.2,1.1,6.2s1,4.5,2.7,5.7c1.3,1,1.4,2.3,2.3,3.7c0.3,0.4,1.3,0.3,1.5,0.7
	c0.6,1.2,1.7,2.1,2.7,2.9c0.9,0.8,3.5,0.9,4.4,1.7c0.2,0.2,0.4,0.3,0.6,0.4c0.6,0.3,1.5,0.2,2.1,0.5c0.5,0.2,0.9,0.3,1.4,0.2
	c1.5-0.3,3.8,0.4,5.5-0.6c0.9-0.6,1.8-1.6,2.3-2.6c1.4-3,2.1-6.1,2.5-9.4c-0.8,0.5-1.9,0.1-2.3-0.7c-0.2-0.4-0.3-0.9-0.6-1.2
	c-0.3-0.3-0.9-0.4-1.3-0.4c-1.9-0.1-3.7-0.2-5.6-0.4c-0.4,0-0.9,0-1.2,0.2c-0.6,0.4-0.5,1.5-1.1,2c-0.3,0.2-0.7,0.3-1.1,0.3
	c-2.2,0.1-4.4-0.2-6.5-0.8c-1-0.3-2-0.7-2.9-1.4c-1.7-1.4-2.3-3.6-2.7-5.7c-0.7-3.8-1-7.8-0.7-11.7c0-0.7-0.3-3-1.6-2
	c-0.6,0.5-1,2.8-1.2,3.6C131.5,66.6,131.5,69.6,131.8,72.6z"/>
<path class="st6" d="M148.4,75.4c-0.1-0.2-0.3-0.4-0.3-0.7c-0.3-1-0.5-2.3,0.5-3c1.3-0.9,2,1.1,1.9,2.1
	C150.4,75,149.1,76.3,148.4,75.4z"/>
<path class="st6" d="M157.6,75.8c-0.1-0.2-0.3-0.4-0.3-0.7c-0.3-1-0.5-2.3,0.5-3c1.3-0.9,2,1.1,1.9,2.1
	C159.6,75.4,158.3,76.6,157.6,75.8z"/>
<path class="st4" d="M162.7,100.3c-4.1-3.3-8.2-4.9-8.2-4.8c-0.2,0.4,2.6,5.7-3.6,6.3c-6.2,0.6-12.9-8.3-14.4-9.7c0,0-10,3.6-11.5,5
	c-2.9,5.8,1.2,10.6,0.7,16.9c-0.5,5.7,0.1,11.1,0,18.2c-1,10.5-2.2,28.9-1.1,34.6c2.4-0.6,2-1.1,7.1-2.1c4.8-0.9,10.1-1.4,14.9-0.9
	c3.6,0.4,12.8,0.3,15.4,1.6c0.2-5.3-1.5-20.9,0-33.7C162.4,127.1,166.8,103.6,162.7,100.3z"/>
<path class="st0" d="M119.7,104.6l-0.5,0.8c0,0-10,20.3-9.6,21.3c0.6,2.2,1.4,2.3,3.5,2.9c0.5,0.1,2.4,0.1,3,0.2
	c2.7-3.3,9.9-13.5,12.6-16.3C132.7,109.3,119.7,104.6,119.7,104.6z"/>
<path class="st0" d="M119.9,151.8c0,0,3-1.3,1.9-3.1c-1.4-2.4-4.6,0.8-4.6,0.8l0.1-23.2c-1.1-2.3-5.8-1.7-7.6,0.4v0.1
	c0.2,4.6,0.7,25.1,2,28.1c2.1,4.7,6.2,6.2,6.6,5.3s-2.5-4.5-2.5-4.5s3.9,2.6,4.3,1.6c0.4-0.9-2.6-3.1-2.6-3.1s4.6,2.3,5,1.3
	C123.1,154.6,119.9,151.8,119.9,151.8z"/>
</svg>
