<?xml version="1.0" encoding="utf-8"?>
<!-- Generator: Adobe Illustrator 22.1.0, SVG Export Plug-In . SVG Version: 6.00 Build 0)  -->
<svg version="1.1" id="Capa_1" xmlns="http://www.w3.org/2000/svg" xmlns:xlink="http://www.w3.org/1999/xlink" x="0px" y="0px"
	 viewBox="0 0 283.5 283.5" style="enable-background:new 0 0 283.5 283.5;" xml:space="preserve">
<style type="text/css">
	.st0{fill:#F195BE;}
	.st1{fill:#852320;}
	.st2{fill:#0A813C;}
	.st3{fill:#04994B;}
	.st4{fill:#1F1919;}
	.st5{fill:#88CFE2;}
	.st6{fill:#020203;}
</style>
<g>
	<path class="st0" d="M133.4,209.4c0.1-1.7-0.7-3-2-5c-0.5-0.8-1.2-1.8-2.3-2.6c-0.3-0.2-0.5-0.3-0.9-0.5c-1.5,0.2-4.3,1-5.5,2.1
		c-2.5,2.1,4.5,7.4,6,7.6c1.3,0.2-0.3-0.9,1.4-1.1C129.8,209.7,132.3,209.4,133.4,209.4z"/>
	<path class="st1" d="M128.9,230.1c1.9-2.9,0.8-5.3-0.5-6.7c-0.2-4.1,0.9-9.4,1.8-12c1.4-4.2-3.6-0.7-5.9-4.9c-1.2-2.3,1-3,0.5-4.2
		s-1.9-0.7-1.9-0.7c-1.3-0.1-2.8,0.9-2.8,0.9l-5,1.7c-0.6,0.5-1.9,1.1-2.4,1.1s-1.8,1.3,0.4,5.8c2.3,4.5,1.9,2.2,3.6,6.9
		c1.7,4.8,1.1,7.3,4.7,11.1C125.2,232.8,129.2,231.5,128.9,230.1z M115.3,205.1c-0.1,0.2-0.1,0.4-0.2,0.6
		C115.1,205.4,115.2,205.2,115.3,205.1z"/>
</g>
<path class="st2" d="M127.2,200.9c3.7,1.6,2.8,10.8,6.5,10.7c34.8-13.7,27.9-46.6,27.9-46.6l-14.8-1.5
	C149.2,172.4,151.9,191.2,127.2,200.9z"/>
<path class="st0" d="M152.8,213.1c-1,0.6,0,1.4-0.8,1.6c-2.4,0.9-4.3,1.3-6.7,1.4v0.1c-0.1,0.1-0.2,0.2-0.3,0.2
	c0.7,6.3-0.2,12.1-0.2,12.1s3.6-1.8,8-5.7C152.7,222.9,153.7,217.4,152.8,213.1z"/>
<path class="st1" d="M170.9,230.3c-1.8-2.8-4.2-2.7-5.9-2.2c-3.6-1.4-7.7-4.4-9.7-6.2c-3.1-2.8-2,2.8-6.5,3.1
	c-2.5,0.2-2.2-2-3.5-2.1c-1.2-0.1-1.4,1.3-1.4,1.3c-0.6,1.1-0.3,2.8-0.3,2.8l-0.4,4.9c0.2,0.7,0.2,2.1,0,2.5s0.4,2.1,5.1,1.9
	c4.7-0.2,2.6-0.8,7.4-0.4c4.8,0.4,6.7,1.9,11.4,0.2C171.8,234.6,172.3,230.6,170.9,230.3z M144.1,232.4c0.1,0.1,0.3,0.3,0.4,0.4
	C144.3,232.6,144.2,232.5,144.1,232.4z"/>
<path class="st3" d="M143,165.4c-5.3,1.9-4.7,5.2-7.3,10.7c8,1.4,7.7,33.3,8.9,44.4c0,0,7.2-1.6,10.8-0.9c0,0,5.3-26-4.8-52.9
	C149.4,167.1,144.1,165,143,165.4z"/>
<path class="st0" d="M166.8,149.2c0,0,2.9-1.5,1.7-3.2c-1.5-2.3-4.5,1.2-4.5,1.2l-1.6-23.1c-1.3-2.2-5.9-1.2-7.6,0.9v0.1
	c0.5,4.6,2.5,25,4.1,27.8c2.5,4.5,6.7,5.7,7,4.8c0.4-1-2.8-4.3-2.8-4.3s4.1,2.3,4.4,1.3c0.4-1-2.8-2.9-2.8-2.9s4.7,1.9,5.1,0.9
	S166.8,149.2,166.8,149.2z"/>
<path class="st4" d="M131.1,98.1c-4.2-1.4-7,0.8-9,3.8c-1,2-1.6,2.9-2.1,5.4c-0.1,0.5,0.2,1,0.7,1.2c2.5,0.8,9.8,3.2,10.5,6.6
	c0.5,2.2,3.7-3.3,5.2-9.6C136.1,102.2,134.2,99.2,131.1,98.1z"/>
<path class="st3" d="M151.8,166.8c1.9-0.4,3.8-0.7,5.7-0.9c-5.7-1.8-18.7-5.3-26.3-3c-9.9,2.9-6.4,6.9-6.4,6.9s5.2,6.1,13.3,7
	C138.6,170.2,146.3,167.9,151.8,166.8z"/>
<path class="st0" d="M152.9,88.9c0.5-3.2,2.4-6.2,2.4-9.3c-1.4,0.6-2.6,1.9-3.7,2.8c-1.7,1.4-3.4,2.7-5.2,4.1
	c-1.7,1.4-0.4-3.2-2.2-2c-1.1,0.7-4-1.9-5.2-1.3c-0.3,8.5,0.1,9.7-3,11.3c-0.9,2.8-4.4,7.4-5.6,10.1c5.1,3,25.6,7.5,26.2-5.7
	C150.2,96.7,152.2,93.3,152.9,88.9z"/>
<path class="st0" d="M130.3,71c-0.4-5.9,1.2-3.3,1.5-6.6c0.2-2.5,0.7-7.7,2.9-9c2.2-1.2,4.7-1.7,7.3-1.8c4.2-0.2,8.5,0.4,12.5,2
	c2.3,0.9,4.7,2.4,5.7,4.7c0.7,1.5,0.7,3.1,0.7,4.7c0.2,8,0.7,14.8-0.8,22.7c-0.4,1.9-1.3,5.2-2.7,6.6c-1.9,1.9-4.9,2-7.6,2
	c-1.5-0.8-2.8-2.1-4.1-3.2c-1.8-1.5-3.4-3.2-5-4.8c-1.6-1.6-3.2-3.1-4.8-4.7c-0.7-0.8-1.6-1.6-2.5-2.1c0-0.3,0.1-0.5,0.2-0.8
	c-1-0.1-1.4-1.3-1.4-2.2c0-1,0.3-2-0.2-2.8c-0.3-0.5-1.1,0-1.5-0.5C128.9,72.8,130.4,72.8,130.3,71z"/>
<path class="st5" d="M154.5,62.4c0.1,0.5,0.2,1,0.4,1.4c0.1,0.2-0.1,0.5-0.4,0.4c-3.1-1.1-6.2-2.2-9.3-3.3c-0.2-0.1-0.4,0.1-0.4,0.3
	l0,0c0.1,0.3-0.3,0.5-0.5,0.3c-2-2-4.6-3.3-7.4-3.8c-0.2,0-0.3,0.1-0.3,0.3c-0.3,3.5-0.6,7-0.9,10.5c-0.2,2.1-0.4,4.1-0.1,6.2
	c0.3,2.1,1.1,4.3,0.7,6.4c0,0.1-0.1,0.2-0.2,0.2c-1.5,0.5-2.7-1.4-3.1-3c-0.6-2.7-1-5.5-1-8.3c0-0.2-0.1-0.3-0.3-0.3
	c-1.3,0-1.8-2-1.7-3.4c0.2-3.5,0.3-7.1,0.5-10.6c0-0.2-0.2-0.4-0.4-0.3l0,0c-0.3,0.1-0.5-0.3-0.3-0.5c0.6-0.7,1-1.3,1.7-2.2
	c0.2-0.3,0.6-0.6,1-0.5s0.1,0.9-0.2,0.6c1.9-2.8,5.5-3.9,8.8-4.8c0.5-0.1,1.1-0.3,1.5,0.1c0.4,0.3,0.2,1.2-0.3,1
	c2.9-3.3,8.9-3.3,11.7,0.2c1.2,1.4,1.9,3.3,3.6,4.2c0.9,0.4,2,0.6,2.4,1.5c0.2,0.4,0.2,0.9,0.2,1.3c0.1,0.7,0.3,1.3,0.6,2
	c0.6,1.7,2.7,8.4,0.3,9.1c-2.1,0.6-4.7-2.9-6-5.1C154.9,61.9,154.4,62.1,154.5,62.4z"/>
<path class="st5" d="M131.5,74.9c0.2,2.1,0.4,4.2,1.1,6.2c0.7,2,1,4.5,2.7,5.7c1.3,1,1.4,2.3,2.3,3.7c0.3,0.4,1.3,0.3,1.5,0.7
	c0.6,1.2,1.7,2.1,2.7,2.9c0.9,0.8,3.5,0.9,4.4,1.7c0.2,0.2,0.4,0.3,0.6,0.4c0.6,0.3,1.5,0.2,2.1,0.5c0.5,0.2,0.9,0.3,1.4,0.2
	c1.5-0.3,3.8,0.4,5.5-0.6c0.9-0.6,1.8-1.6,2.3-2.6c1.4-3,2.1-6.1,2.5-9.4c-0.8,0.5-1.9,0.1-2.3-0.7c-0.2-0.4-0.3-0.9-0.6-1.2
	c-0.3-0.3-0.9-0.4-1.3-0.4c-1.9-0.1-3.7-0.2-5.6-0.4c-0.4,0-0.9,0-1.2,0.2c-0.6,0.4-0.5,1.5-1.1,2c-0.3,0.2-0.7,0.3-1.1,0.3
	c-2.2,0.1-4.4-0.2-6.5-0.8c-1-0.3-2-0.7-2.9-1.4c-1.7-1.4-2.3-3.6-2.7-5.7c-0.7-3.8-1-7.8-0.7-11.7c0-0.7-0.3-3-1.6-2
	c-0.6,0.5-1,2.8-1.2,3.6C131.2,68.9,131.3,71.9,131.5,74.9z"/>
<path class="st6" d="M148.2,77.7c-0.1-0.2-0.3-0.4-0.3-0.7c-0.3-1-0.5-2.3,0.5-3c1.3-0.9,2,1.1,1.9,2.1
	C150.2,77.3,148.9,78.6,148.2,77.7z"/>
<path class="st6" d="M157.4,78.1c-0.1-0.2-0.3-0.4-0.3-0.7c-0.3-1-0.5-2.3,0.5-3c1.3-0.9,2,1.1,1.9,2.1
	C159.4,77.7,158.1,78.9,157.4,78.1z"/>
<path class="st4" d="M162.4,102.6c-4.1-3.3-8.2-4.9-8.2-4.8c-0.2,0.4,2.6,5.7-3.6,6.3c-6.2,0.6-12.9-8.3-14.4-9.7
	c0,0-9.1,2.7-10.6,4.1c-2.9,5.8,0.3,11.5-0.2,17.8c-0.5,5.7,0.1,11.1,0,18.2c-1,10.5-2.2,28.9-1.1,34.6c2.4-0.6,2-1.1,7.1-2.1
	c4.8-0.9,10.1-1.4,14.9-0.9c3.6,0.4,12.4,0.4,15,1.7c3.2-4.6-1.1-21,0.4-33.8C162.2,129.4,166.6,105.9,162.4,102.6z"/>
<path class="st0" d="M120.4,107.6l-0.3,0.9c0,0-6.7,21.7-6.1,22.5c1,2.1,1.7,2,3.9,2.3c0.5,0.1,2.4-0.2,3-0.3
	c2.2-3.7,7.7-14.9,9.9-18.1C134,110.3,120.4,107.6,120.4,107.6z"/>
<path class="st0" d="M128.1,154.3c0,0,2.7-1.7,1.4-3.3c-1.7-2.2-4.4,1.5-4.4,1.5l-3.6-22.9c-1.5-2.1-6-0.7-7.5,1.5v0.1
	c0.9,4.5,4.7,24.7,6.4,27.4c2.8,4.3,7.1,5.1,7.4,4.1s-3.2-4-3.2-4s4.3,1.9,4.5,0.9c0.3-1-3-2.6-3-2.6s4.9,1.5,5.1,0.5
	C131.7,156.5,128.1,154.3,128.1,154.3z"/>
</svg>
