<?xml version="1.0" encoding="utf-8"?>
<!-- Generator: Adobe Illustrator 22.1.0, SVG Export Plug-In . SVG Version: 6.00 Build 0)  -->
<svg version="1.1" id="Capa_1" xmlns="http://www.w3.org/2000/svg" xmlns:xlink="http://www.w3.org/1999/xlink" x="0px" y="0px"
	 viewBox="0 0 283.5 283.5" style="enable-background:new 0 0 283.5 283.5;" xml:space="preserve">
<style type="text/css">
	.st0{fill:#00984A;}
	.st1{fill:#241F20;}
	.st2{fill:#87CEE1;}
	.st3{fill:#EE88B6;}
	.st4{fill:#83231F;}
</style>
<g>
	<path class="st0" d="M159.4,166.5c1.2,3.1,2.1,6.4,3,9.6c1.9,7,3.6,14,4.6,21.2c0.2,1.1,0.2,2.3,0.4,3.4c0.2,1.7-0.5,3.3-0.9,4.9
		c-2,7.9-4.6,15.7-7.3,23.4c-0.2,0.7-0.6,0.5-1,0.4c-1.1-0.4-2.2-0.3-3.3-0.2c-3-0.1-5.9-0.7-8.5-2.4c-0.2-0.2-0.4-0.5-0.7-0.7
		c-0.4-0.4-0.5-0.7-0.3-1.2c2.2-5.3,3.4-10.9,4.8-16.4c0.5-1.9,0.9-3.9,1.4-5.8c0.4-1.7,0.6-3.4,0.2-5.1c-0.4-1.8-0.4-3.6-0.5-5.4
		c0-0.3,0.1-0.7-0.3-1.1c-0.3,0.5-0.5,0.9-0.7,1.4c-1.6,3.1-3.6,5.9-5,9.1c-0.7,1.5-1.8,2.8-3.1,3.9c-0.4,0.3-0.7,0.7-0.9,1.2
		c-3.5,6.4-6.6,13-9.7,19.6c-0.8,1.6-1.5,3.1-2.3,4.7c-0.9,1.6-1,1.7-2.8,1.4c-0.6-0.2-1.1-0.8-1.7-0.8c-2.8-2.1-5.3-4.7-7.8-7.2
		c-1.3-1.1-0.8-2.1-0.1-3.3c3.6-6.5,7.1-13.1,11-19.4c0.7-1.2,1-2.5,1-3.9c0.2-4.9-0.3-9.5-3.1-13.8c-0.7-1.1-1.5-2-2.6-2.7
		c-2.8-2-4.1-4.8-4.8-8c-0.1-0.3-0.1-0.6-0.2-1c0.1-0.1,0.2-0.2,0.3-0.2c4.7-1.9,9.7-2.6,14.7-3.2c3.2-0.4,6.4-0.1,9.7,0
		c3.1,0.1,6.1,0,9.2,0c1.9,0,3.9-0.1,5.7,0.7c0.5,0.2,0.6-0.2,0.7-0.4C159,168.4,159.2,167.4,159.4,166.5z"/>
	<path class="st1" d="M115.6,110.6c-0.2-0.1-0.4,0-0.5-0.3c-1.1-2.8-2.4-5.5-2.9-8.5c-0.7-4.4,0.5-8,3.9-9.7c3.4-1.7,6.6-3.7,10-5.2
		c0.6-0.3,1.2-0.7,1.9-0.8c1.1,1.1,2.1,2.3,3.2,3.4c2.4,2.4,5,4.7,8.1,6.3c2.3,1.2,4.7,1.6,7.3,0.8c2.1-0.7,3.1-2.3,2.7-4.5
		c-0.1-0.8-0.4-1.6-0.5-2.4c0.4-0.2,0.7,0.1,1,0.2c3.1,1.2,6,3,8.6,5c1.3,1,1.6,2.4,1.9,3.9c0.8,4.5,0.5,9.1,0.3,13.6
		c-0.4,6.6-1.4,13.2-2.1,19.8c-0.3,3.3-0.3,6.5-0.1,9.8c-0.6,0.2-1.4,0.5-1.9,0.2c-0.5-0.2,0-1-0.1-1.6c0-0.2,0-0.3,0-0.5
		c-0.1-0.9-0.6-1.5-1.5-1.7c-1-0.2-1.8,0.2-2.2,1.2c-0.3,0.8-0.4,1.6-0.5,2.4c0,0.3,0.2,0.7-0.1,0.8c-0.3,0.1-0.5-0.2-0.7-0.4
		c-6.1-4.7-12.1-9.5-18.2-14.2c-0.4-0.3-0.7-0.8-0.8-1.3c-0.2-1.5-0.5-3-0.7-4.5c-0.8-4.5-1.6-9.1-2.2-13.7
		c-0.3-2.2-0.5-2.5-2.8-2.4c-0.3,0-0.6,0-0.9,0.1C122,107,118.7,108.6,115.6,110.6z"/>
	<path class="st1" d="M159.4,166.5c-0.3,1-0.4,1.9-0.9,2.8c-0.2,0.3-0.3,0.6-0.7,0.4c-1.8-0.8-3.8-0.7-5.7-0.7c-3.1,0-6.1,0.1-9.2,0
		c-3.2-0.1-6.5-0.3-9.7,0c-5,0.6-10,1.2-14.7,3.2c-0.1,0-0.2,0.1-0.3,0.2c-2.1,0.6-2.2,0.7-2.4-1.6c-0.4-3.4-0.5-6.9-0.5-10.4
		c0-3.6,0.1-7.3,0.2-10.9c0.2-4.8,0.4-9.7,0.7-14.5c0.3-4.9-0.1-9.8-0.3-14.6c-0.1-2.9-0.1-5.7,0-8.6c0.3,0.2,0.4,0.5,0.5,0.8
		c0.7,1.8,1.4,3.6,2.1,5.5c1.8,4.8,3.6,9.5,5.8,14.2c0.4,0.9,0.9,1.7,2,1.9c0.7,0.2,1.3,0.6,1.9,1c6.7,4.8,13.3,9.7,20.2,14.1
		c1.8,1.2,3.6,2.4,5.8,2.8c1.6,0.3,3.3,0.1,4.9,0C159.5,157,159.9,161.7,159.4,166.5z"/>
	<path class="st2" d="M130.5,82.6c-1.4-0.1-2-1.1-2.7-2.2c-0.6-1-1.3-1.8-2.3-2.4c-1.6-1-2.2-2.8-3-4.4c-1.2-2.5-2.1-5.2-2.8-7.9
		c-0.2-1.6-0.6-3.2-0.7-4.9c0-1.4-0.7-2.1-1.7-2.8c-0.8-1.4-0.8-3-0.9-4.5c-0.3-3.1-0.4-6.2-0.7-9.4c0-0.6,0-1.2-0.7-1.5
		c-0.4-0.1-0.2-0.5-0.1-0.8c0.5-0.9,1.1-1.7,1.6-2.6c0.1-0.1,0.1-0.2,0.2-0.2c2.1-1,3.3-3.2,5.5-4.3c1.6-0.7,3.1-1.4,4.7-2.1
		c0.3-0.1,0.8-0.2,1.1-0.1c0.9,0.6,1.4-0.1,2-0.5c3.7-2.8,10-2.7,13.3,1.9c1.1,1.5,2.5,2.8,4.6,3.1c1.2,0.2,2,0.9,2.1,2.3
		c0.1,0.8,0.5,1.5,0.8,2.2c1.1,2.2,2,4.5,2.6,6.9c0.2,0.9,0.2,1.8,0.1,2.7c-0.1,0.6-0.5,0.9-1,1.2c-1.2,0.1-2.3-0.2-3.3-0.9
		c-1.5-1.1-2.8-2.4-4-3.8c-0.2-0.2-0.3-0.6-0.7-0.4c-0.3,0.2-0.1,0.5,0,0.8c0.1,0.2,0.1,0.3,0.2,0.4c0.1,0.3,0.4,0.6,0.2,0.9
		c-0.2,0.3-0.6,0.1-0.9,0c-3.3-0.7-6.6-1.4-9.9-2.1c-0.3-0.1-0.7-0.3-0.9,0.2c-0.3,0.8-0.7,0.5-1.1,0.2c-2.3-1.6-4.9-2.6-7.7-2.9
		c-1.2-0.1-1.2-0.2-1.2,1.1c0.1,4.2,0.3,8.4,0.4,12.7c0,1.1,0.2,2.1,0.3,3.1c0.2,2.4,1.3,4.6,1.9,7c0.5,2.2,1.9,3.5,3.9,4.2
		c3.1,1.1,6.4,1.1,9.7,0.7c1-0.1,1.6-0.7,1.7-1.8c0.1-0.9,0.5-1.5,1.4-1.5c2.4-0.2,4.9-0.3,7.3-0.4c0.8,0,1.3,0.3,1.7,1
		c0.8,1.4,1.5,1.7,3.1,1.2c0.1,3.4-0.3,6.8-1.2,10.1c-0.4,1.4-1,2.7-2,3.8c-0.8,1-2,1.4-3.2,1.5c-0.4,0-0.7-0.1-1,0.2
		c-0.5,0-1-0.1-1.4,0c-1.6,0.6-3.2,0.1-4.8,0c-0.4,0-0.8-0.1-1.1-0.4c-0.5-0.4-1.2-0.6-1.8-0.7c-2-0.2-4-0.6-5.5-2.1
		C131.8,83.9,131.1,83.3,130.5,82.6z"/>
	<path class="st3" d="M154.5,71.9c-1.6,0.5-2.3,0.2-3.1-1.2c-0.4-0.7-0.9-1-1.7-1c-2.4,0.1-4.9,0.2-7.3,0.4
		c-0.9,0.1-1.3,0.6-1.4,1.5c-0.1,1.1-0.7,1.6-1.7,1.8c-3.3,0.5-6.5,0.4-9.7-0.7c-2-0.7-3.4-2-3.9-4.2c-0.6-2.3-1.7-4.5-1.9-7
		c-0.1-1.1-0.2-2.1-0.3-3.1c-0.2-4.2-0.3-8.4-0.4-12.7c0-1.2,0-1.2,1.2-1.1c2.8,0.3,5.4,1.3,7.7,2.9c0.5,0.3,0.8,0.6,1.1-0.2
		c0.1-0.4,0.5-0.2,0.9-0.2c3.3,0.7,6.6,1.4,9.9,2.1c0.3,0.1,0.7,0.2,0.9,0c0.3-0.3,0-0.6-0.2-0.9c-0.1-0.2-0.1-0.3-0.2-0.4
		c-0.1-0.3-0.3-0.6,0-0.8c0.4-0.2,0.5,0.2,0.7,0.4c1.2,1.4,2.4,2.8,4,3.8c1,0.7,2.1,1,3.3,0.9c0.3,2.3,0.7,4.7,1,7
		C154.1,63.5,154.6,67.7,154.5,71.9z M152.1,63.2c0-0.6-0.2-1.2-0.5-1.7c-0.3-0.5-0.7-1-1.4-0.9c-0.8,0.1-1.1,0.6-1.3,1.3
		c-0.2,0.8,0,1.6,0.3,2.4c0.2,0.5,0.5,1.1,1.2,1.1c0.8,0,1.2-0.6,1.4-1.2C152,63.9,152.1,63.5,152.1,63.2z M141.5,64
		c0-0.6-0.2-1.1-0.4-1.6c-0.4-0.6-0.8-1.2-1.6-1c-0.8,0.2-1.1,0.9-1.2,1.6c-0.1,0.8,0.2,1.6,0.5,2.3c0.2,0.5,0.5,0.9,1.1,0.9
		c0.6,0,1-0.3,1.3-0.8C141.4,65,141.5,64.5,141.5,64z"/>
	<path class="st3" d="M159,152.2c-1.6,0.1-3.3,0.3-4.9,0c-2.2-0.4-4-1.6-5.8-2.8c-6.9-4.4-13.6-9.3-20.2-14.1
		c-0.6-0.4-1.2-0.9-1.9-1c-1-0.2-1.6-1-2-1.9c-2.1-4.7-3.9-9.4-5.8-14.2c-0.7-1.8-1.4-3.6-2.1-5.5c-0.1-0.3-0.2-0.6-0.5-0.8
		c-0.1-0.4-0.1-0.8-0.2-1.3c3.1-2,6.4-3.6,10.1-4.3c0.3-0.1,0.6-0.1,0.9-0.1c2.3-0.1,2.5,0.2,2.8,2.4c0.6,4.6,1.3,9.1,2.2,13.7
		c0.3,1.5,0.5,3,0.7,4.5c0.1,0.6,0.3,1,0.8,1.3c6.1,4.7,12.1,9.5,18.2,14.2c0.2,0.2,0.4,0.5,0.7,0.4c0.3-0.1,0.1-0.5,0.1-0.8
		c0-0.8,0.1-1.7,0.5-2.4c0.4-0.9,1.2-1.3,2.2-1.2c1,0.2,1.4,0.8,1.5,1.7c0,0.2,0,0.3,0,0.5c0.1,0.5-0.3,1.3,0.1,1.6
		c0.5,0.3,1.3,0,1.9-0.2c0.8,0,1.6,0,2.4,0.1c0.3,0,0.7,0.2,0.8,0.5c0.2,0.4-0.2,0.6-0.4,0.8c-0.6,0.6-1.3,1.1-2.1,1.5
		c-0.2,0.1-0.5,0.2-0.4,0.5c0.1,0.3,0.4,0.2,0.6,0.2c0.5,0,0.9,0,1.4,0c0.3,0,0.6,0.1,0.7,0.5c0.1,0.3-0.1,0.6-0.4,0.8
		c-0.7,0.5-1.5,0.9-2.3,1.4c-0.5-0.1-0.9,0.2-1.6,0.6c0.7,0,1.1,0.1,1.5,0c1,0.1,2,0.1,3,0.4c0.4,0.1,0.9,0.3,1,0.7
		c0.1,0.5-0.3,0.8-0.7,1C161.1,151.5,160,151.7,159,152.2z"/>
	<path class="st4" d="M154.9,229.3c1.1-0.1,2.2-0.2,3.3,0.2c1,2,2.5,3.7,4,5.4c1.5,1.8,3.1,3.4,4.9,4.8c0.4,0.3,0.9,0.5,1.4,0.5
		c2.4,0.1,4.2,1.2,5.3,3.4c0.2,0.5,0.5,0.9,0.7,1.4c0.4,0.7,0.2,1.5-0.2,2.1c-1.4,2.4-3.8,3.2-6.3,3.5c-3.3,0.4-6.4-0.4-9.2-2
		c-2.2-1.2-4.6-2-7-2.7c-1.6-0.5-3.3-0.3-4.9-0.6c-1.8-0.4-3.7-0.8-5.3-1.7c-1.5-0.9-1.6-1.4-1.2-3.1c0.6-3.1,2.1-6,2.7-9.1
		c0.2-1.1,0.8-1.9,1.4-2.8c0.4-0.6,1-0.7,1.7-0.6c0.7,0.4,1,1,1.2,1.7c0.3,0.8,0.8,1.4,1.6,1.7C151,232.3,153.7,231.3,154.9,229.3z"
		/>
	<path class="st4" d="M124.6,231.7c0.7,0,1.2,0.5,1.7,0.8c2.2,3.9,4.8,7.3,8.1,10.3c0.4,0.4,0.8,0.5,1.3,0.6
		c2.3,0.2,3.9,1.4,4.8,3.5c1.1,2.6,0.6,4.1-1.9,5.3c-3.3,1.6-6.7,1.3-10.1-0.1c-2.2-0.9-4.2-2.3-6.4-3.2c-1.7-0.7-3.4-1.3-5.3-1.5
		c-2.3-0.3-4.5-0.9-6.6-2.1c-0.6-0.3-1-0.7-1.4-1.3c-0.3-0.4-0.3-0.9-0.1-1.4c0.8-3.1,2.4-5.8,3.3-8.9c0.3-1,0.8-1.8,1.4-2.6
		c0.4-0.5,0.9-0.7,1.5-0.6c0.6,0.3,1,0.9,1.1,1.5c0.3,1.4,1.4,2,2.7,2.2c1.5,0.2,2.8-0.2,3.9-1.2
		C123.4,232.6,123.9,232.1,124.6,231.7z"/>
	<path class="st3" d="M130.5,82.6c0.7,0.6,1.3,1.2,2,1.9c1.5,1.5,3.5,1.9,5.5,2.1c0.7,0.1,1.3,0.3,1.8,0.7c0.3,0.2,0.7,0.3,1.1,0.4
		c1.6,0.1,3.2,0.5,4.8,0c0.4-0.1,0.9,0,1.4,0c0.3,0.9,0.7,1.6,1.6,2c0.2,0.8,0.4,1.6,0.5,2.4c0.4,2.2-0.6,3.8-2.7,4.5
		c-2.5,0.9-4.9,0.4-7.3-0.8c-3.1-1.5-5.7-3.8-8.1-6.3c-1.1-1.1-2.1-2.2-3.2-3.4C129.3,85.4,130.2,84.3,130.5,82.6z"/>
	<path class="st3" d="M124.6,231.7c-0.7,0.4-1.2,0.9-1.8,1.4c-1.1,1-2.4,1.4-3.9,1.2c-1.4-0.2-2.4-0.8-2.7-2.2
		c-0.2-0.7-0.5-1.2-1.1-1.5c0.9-1.9,1.3-4,1.8-6C119.3,227.1,121.8,229.6,124.6,231.7z"/>
	<path class="st3" d="M154.9,229.3c-1.2,2-3.9,2.9-6,2.1c-0.8-0.3-1.3-0.9-1.6-1.7c-0.2-0.7-0.5-1.4-1.2-1.7
		c0.1-0.4,0.2-0.7,0.3-1.1C149,228.6,151.9,229.3,154.9,229.3z"/>
	<path class="st3" d="M117.4,58.1c1,0.7,1.7,1.5,1.7,2.8c0,1.6,0.4,3.2,0.7,4.9c-1.4,0.1-2.6-1-2.3-2.3
		C117.8,61.6,117.4,59.9,117.4,58.1z"/>
	<path class="st4" d="M158.7,148.6c-0.4,0.1-0.9,0-1.5,0c0.6-0.3,1-0.6,1.6-0.6C158.7,148.3,158.7,148.5,158.7,148.6z"/>
	<path class="st1" d="M152.1,63.2c-0.1,0.3-0.1,0.7-0.3,1c-0.3,0.6-0.6,1.2-1.4,1.2c-0.7,0-1-0.6-1.2-1.1c-0.3-0.8-0.6-1.6-0.3-2.4
		c0.2-0.7,0.6-1.2,1.3-1.3c0.7-0.1,1.1,0.4,1.4,0.9C151.9,62,152.1,62.5,152.1,63.2z"/>
	<path class="st1" d="M141.5,64c0,0.5-0.1,1-0.4,1.4c-0.3,0.5-0.7,0.8-1.3,0.8c-0.6,0-0.9-0.4-1.1-0.9c-0.4-0.7-0.6-1.5-0.5-2.3
		c0.1-0.8,0.4-1.4,1.2-1.6c0.8-0.2,1.3,0.3,1.6,1C141.3,62.9,141.5,63.5,141.5,64z"/>
</g>
</svg>
