<?xml version="1.0" encoding="utf-8"?>
<!-- Generator: Adobe Illustrator 22.1.0, SVG Export Plug-In . SVG Version: 6.00 Build 0)  -->
<svg version="1.1" id="Capa_1" xmlns="http://www.w3.org/2000/svg" xmlns:xlink="http://www.w3.org/1999/xlink" x="0px" y="0px"
	 viewBox="0 0 283.5 283.5" style="enable-background:new 0 0 283.5 283.5;" xml:space="preserve">
<style type="text/css">
	.st0{fill:#F195BE;}
	.st1{fill:#852320;}
	.st2{fill:#0A813C;}
	.st3{fill:#1F1919;}
	.st4{fill:#04994B;stroke:#04994B;stroke-miterlimit:10;}
	.st5{fill:#04994B;}
	.st6{fill:#88CFE2;}
	.st7{fill:#020203;}
</style>
<g>
	<g>
		<path class="st0" d="M134.7,207.1c0.1-1.7-0.7-3-2-5c-0.5-0.8-1.2-1.8-2.3-2.6c-0.3-0.2-0.5-0.3-0.9-0.5c-1.5,0.2-4.3,1-5.5,2.1
			c-2.5,2.1,4.5,7.4,6,7.6c1.3,0.2-0.3-0.9,1.4-1.1C131.1,207.4,133.6,207.1,134.7,207.1z"/>
		<path class="st1" d="M130.2,227.8c1.9-2.9,0.8-5.3-0.5-6.7c-0.2-4.1,0.9-9.4,1.8-12c1.4-4.2-3.6-0.7-5.9-4.9c-1.2-2.3,1-3,0.5-4.2
			c-0.5-1.2-1.9-0.7-1.9-0.7c-1.3-0.1-2.8,0.9-2.8,0.9l-5,1.7c-0.6,0.5-1.9,1.1-2.4,1.1c-0.5,0-1.8,1.3,0.4,5.8
			c2.3,4.5,1.9,2.2,3.6,6.9c1.7,4.8,1.1,7.3,4.7,11.1C126.5,230.5,130.5,229.2,130.2,227.8z M116.6,202.8c-0.1,0.2-0.1,0.4-0.2,0.6
			C116.4,203.1,116.5,202.9,116.6,202.8z"/>
	</g>
	<path class="st2" d="M129.7,197.8c3.7,1.6,1.5,11.7,5.2,11.6c34.8-13.7,27.9-46.6,27.9-46.6l-14.8-1.5
		C150.5,170.1,154.4,188.1,129.7,197.8z"/>
	<path class="st0" d="M154.1,210.8c-1,0.6,0,1.4-0.8,1.6c-2.4,0.9-4.3,1.3-6.7,1.4c0,0,0,0.1,0,0.1c-0.1,0.1-0.2,0.2-0.3,0.2
		c0.7,6.3-0.2,12.1-0.2,12.1s3.6-1.8,8-5.7C154,220.6,155,215.1,154.1,210.8z"/>
	<path class="st1" d="M172.2,228c-1.8-2.8-4.2-2.7-5.9-2.2c-3.6-1.4-7.7-4.4-9.7-6.2c-3.1-2.8-2,2.8-6.5,3.1c-2.5,0.2-2.2-2-3.5-2.1
		c-1.2-0.1-1.4,1.3-1.4,1.3c-0.6,1.1-0.3,2.8-0.3,2.8l-0.4,4.9c0.2,0.7,0.2,2.1,0,2.5c-0.2,0.4,0.4,2.1,5.1,1.9
		c4.7-0.2,2.6-0.8,7.4-0.4c4.8,0.4,6.7,1.9,11.4,0.2C173.1,232.3,173.6,228.3,172.2,228z M145.4,230.1c0.1,0.1,0.3,0.3,0.4,0.4
		C145.6,230.3,145.5,230.2,145.4,230.1z"/>
	<path class="st0" d="M168.1,146.9c0,0,2.9-1.5,1.7-3.2c-1.5-2.3-4.5,1.2-4.5,1.2l-1.6-23.1c-1.3-2.2-5.9-1.2-7.6,0.9
		c0,0,0,0.1,0,0.1c0.5,4.6,2.5,25,4.1,27.8c2.5,4.5,6.7,5.7,7,4.8c0.4-1-2.8-4.3-2.8-4.3s4.1,2.3,4.4,1.3c0.4-1-2.8-2.9-2.8-2.9
		s4.7,1.9,5.1,0.9C171.5,149.4,168.1,146.9,168.1,146.9z"/>
	<path class="st3" d="M132.4,95.8c-4.2-1.4-7,0.8-9,3.8c-1.1,2.2-2,4.9-2.6,8.2c0,0,10.8,0.9,11.7,5c0.5,2.2,3.7-3.3,5.2-9.6
		C137.4,99.9,135.5,96.9,132.4,95.8z"/>
	<path class="st4" d="M153.1,164.5c1.9-0.4,3.8-0.7,5.7-0.9c-5.7-1.8-18.7-5.3-26.3-3c-9.9,2.9-6.4,6.9-6.4,6.9s5.2,6.1,13.3,7
		C139.9,167.9,147.6,165.6,153.1,164.5z"/>
	<path class="st5" d="M144.3,163.1c-5.3,1.9-4.7,5.2-7.3,10.7c8,1.4,7.7,33.3,8.9,44.4c0,0,7.2-1.6,10.8-0.9c0,0,5.3-26-4.8-52.9
		C150.7,164.8,145.4,162.7,144.3,163.1z"/>
	<path class="st0" d="M154.2,86.6c0.5-3.2,2.4-6.2,2.4-9.3c-1.4,0.6-2.6,1.9-3.7,2.8c-1.7,1.4-3.4,2.7-5.2,4.1
		c-1.7,1.4-0.4-3.2-2.2-2c-1.1,0.7-4-1.9-5.2-1.3c-0.3,8.5,0.1,9.7-3,11.3c-0.9,2.8-4.4,7.4-5.6,10.1c5.1,3,26.3,8.4,26.9-4.8
		C152.2,95.3,153.5,91,154.2,86.6z"/>
	<path class="st0" d="M131.6,68.7c-0.4-5.9,1.2-3.3,1.5-6.6c0.2-2.5,0.7-7.7,2.9-9c2.2-1.2,4.7-1.7,7.3-1.8c4.2-0.2,8.5,0.4,12.5,2
		c2.3,0.9,4.7,2.4,5.7,4.7c0.7,1.5,0.7,3.1,0.7,4.7c0.2,8,0.7,14.8-0.8,22.7c-0.4,1.9-1.3,5.2-2.7,6.6c-1.9,1.9-4.9,2-7.6,2
		c-1.5-0.8-2.8-2.1-4.1-3.2c-1.8-1.5-3.4-3.2-5-4.8c-1.6-1.6-3.2-3.1-4.8-4.7c-0.7-0.8-1.6-1.6-2.5-2.1c0-0.3,0.1-0.5,0.2-0.8
		c-1-0.1-1.4-1.3-1.4-2.2c0-1,0.3-2-0.2-2.8c-0.3-0.5-1.1,0-1.5-0.5C130.2,70.5,131.7,70.5,131.6,68.7z"/>
	<path class="st6" d="M155.8,60.1c0.1,0.5,0.2,1,0.4,1.4c0.1,0.2-0.1,0.5-0.4,0.4c-3.1-1.1-6.2-2.2-9.3-3.3
		c-0.2-0.1-0.4,0.1-0.4,0.3c0,0,0,0,0,0c0.1,0.3-0.3,0.5-0.5,0.3c-2-2-4.6-3.3-7.4-3.8c-0.2,0-0.3,0.1-0.3,0.3
		c-0.3,3.5-0.6,7-0.9,10.5c-0.2,2.1-0.4,4.1-0.1,6.2c0.3,2.1,1.1,4.3,0.7,6.4c0,0.1-0.1,0.2-0.2,0.2c-1.5,0.5-2.7-1.4-3.1-3
		c-0.6-2.7-1-5.5-1-8.3c0-0.2-0.1-0.3-0.3-0.3c-1.3,0-1.8-2-1.7-3.4c0.2-3.5,0.3-7.1,0.5-10.6c0-0.2-0.2-0.4-0.4-0.3c0,0,0,0,0,0
		c-0.3,0.1-0.5-0.3-0.3-0.5c0.6-0.7,1-1.3,1.7-2.2c0.2-0.3,0.6-0.6,1-0.5s0.1,0.9-0.2,0.6c1.9-2.8,5.5-3.9,8.8-4.8
		c0.5-0.1,1.1-0.3,1.5,0.1c0.4,0.3,0.2,1.2-0.3,1c2.9-3.3,8.9-3.3,11.7,0.2c1.2,1.4,1.9,3.3,3.6,4.2c0.9,0.4,2,0.6,2.4,1.5
		c0.2,0.4,0.2,0.9,0.2,1.3c0.1,0.7,0.3,1.3,0.6,2c0.6,1.7,2.7,8.4,0.3,9.1c-2.1,0.6-4.7-2.9-6-5.1C156.2,59.6,155.7,59.8,155.8,60.1
		z"/>
	<path class="st6" d="M132.8,72.6c0.2,2.1,0.4,4.2,1.1,6.2c0.7,2,1,4.5,2.7,5.7c1.3,1,1.4,2.3,2.3,3.7c0.3,0.4,1.3,0.3,1.5,0.7
		c0.6,1.2,1.7,2.1,2.7,2.9c0.9,0.8,3.5,0.9,4.4,1.7c0.2,0.2,0.4,0.3,0.6,0.4c0.6,0.3,1.5,0.2,2.1,0.5c0.5,0.2,0.9,0.3,1.4,0.2
		c1.5-0.3,3.8,0.4,5.5-0.6c0.9-0.6,1.8-1.6,2.3-2.6c1.4-3,2.1-6.1,2.5-9.4c-0.8,0.5-1.9,0.1-2.3-0.7c-0.2-0.4-0.3-0.9-0.6-1.2
		c-0.3-0.3-0.9-0.4-1.3-0.4c-1.9-0.1-3.7-0.2-5.6-0.4c-0.4,0-0.9,0-1.2,0.2c-0.6,0.4-0.5,1.5-1.1,2c-0.3,0.2-0.7,0.3-1.1,0.3
		c-2.2,0.1-4.4-0.2-6.5-0.8c-1-0.3-2-0.7-2.9-1.4c-1.7-1.4-2.3-3.6-2.7-5.7c-0.7-3.8-1-7.8-0.7-11.7c0-0.7-0.3-3-1.6-2
		c-0.6,0.5-1,2.8-1.2,3.6C132.5,66.6,132.6,69.6,132.8,72.6z"/>
	<path class="st7" d="M149.5,75.4c-0.1-0.2-0.3-0.4-0.3-0.7c-0.3-1-0.5-2.3,0.5-3c1.3-0.9,2,1.1,1.9,2.1
		C151.5,75,150.2,76.3,149.5,75.4z"/>
	<path class="st7" d="M158.7,75.8c-0.1-0.2-0.3-0.4-0.3-0.7c-0.3-1-0.5-2.3,0.5-3c1.3-0.9,2,1.1,1.9,2.1
		C160.7,75.4,159.4,76.6,158.7,75.8z"/>
	<path class="st3" d="M163.7,100.3c-4.1-3.3-8.2-4.9-8.2-4.8c-0.2,0.4,2.6,5.7-3.6,6.3c-6.2,0.6-12.9-8.3-14.4-9.7
		c0,0-8.1,3.6-9.6,5c-2.9,5.8-0.7,10.6-1.2,16.9c-0.5,5.7,0.1,11.1,0,18.2c-1,10.5-2.2,28.9-1.1,34.6c2.4-0.6,2-1.1,7.1-2.1
		c4.8-0.9,10.1-1.4,14.9-0.9c3.6,0.4,12.4,0.4,15,1.7c3.2-4.6-1.1-21,0.4-33.8C163.5,127.1,167.9,103.6,163.7,100.3z"/>
	<path class="st0" d="M121.7,105.3l-0.3,0.9c0,0-6.7,21.7-6.1,22.5c1,2.1,1.7,2,3.9,2.3c0.5,0.1,2.4-0.2,3-0.3
		c2.2-3.7,7.7-14.9,9.9-18.1C135.3,108,121.7,105.3,121.7,105.3z"/>
	<path class="st0" d="M129.4,152c0,0,2.7-1.7,1.4-3.3c-1.7-2.2-4.4,1.5-4.4,1.5l-3.6-22.9c-1.5-2.1-6-0.7-7.5,1.5c0,0,0,0.1,0,0.1
		c0.9,4.5,4.7,24.7,6.4,27.4c2.8,4.3,7.1,5.1,7.4,4.1c0.3-1-3.2-4-3.2-4s4.3,1.9,4.5,0.9c0.3-1-3-2.6-3-2.6s4.9,1.5,5.1,0.5
		C133,154.2,129.4,152,129.4,152z"/>
</g>
</svg>
