<?xml version="1.0" encoding="utf-8"?>
<!-- Generator: Adobe Illustrator 22.1.0, SVG Export Plug-In . SVG Version: 6.00 Build 0)  -->
<svg version="1.1" id="Capa_1" xmlns="http://www.w3.org/2000/svg" xmlns:xlink="http://www.w3.org/1999/xlink" x="0px" y="0px"
	 viewBox="0 0 283.5 283.5" style="enable-background:new 0 0 283.5 283.5;" xml:space="preserve">
<style type="text/css">
	.st0{fill:#F093BD;}
	.st1{fill:#83231F;}
	.st2{fill:#06803C;}
	.st3{fill:#00984A;stroke:#00984A;stroke-miterlimit:10;}
	.st4{fill:#00984A;}
	.st5{fill:#1E1818;}
	.st6{fill:#87CEE1;}
</style>
<g>
	<path class="st0" d="M139,218.3c-1.3-1-2.8-1.1-5.1-1.2c-1,0-2.1-0.1-3.4,0.4c-0.3,0.1-0.5,0.2-0.9,0.4c-0.7,1.4-1.6,4-1.5,5.6
		c0.3,3.2,8.5,0.5,9.6-0.6c0.9-0.9-0.9-0.2-0.1-1.7C137.3,221.4,138.4,219.2,139,218.3z"/>
	<path class="st1" d="M153.2,233.5c-1.3-3.2-3.8-3.6-5.6-3.4c-3.5-2.1-7-6-8.7-8.2c-2.6-3.5-2.6,2.5-7.3,1.9
		c-2.6-0.3-1.9-2.5-3.1-2.8c-1.3-0.3-1.6,1.1-1.6,1.1c-0.8,1-0.8,2.8-0.8,2.8l-1.4,5c0,0.7-0.2,2.1-0.5,2.5s0,2.2,4.9,2.9
		s2.8-0.3,7.6,1s6.5,3.2,11.6,2.4C153.3,238.1,154.5,234.1,153.2,233.5z M125.4,230.5c0.1,0.2,0.2,0.3,0.3,0.5
		C125.6,230.8,125.4,230.6,125.4,230.5z"/>
</g>
<path class="st2" d="M128.9,217.4c3.6,1.6,6.8,4.6,10.4,4.4c19.4-36.2,18.4-65.2,18.4-65.2l-12.7,7.5
	C147.5,176.2,132.2,210.1,128.9,217.4z"/>
<path class="st3" d="M149.6,168.3c1.8-0.4,3.1-8.6,5-8.9c-5.6-1.7-20.4-2.2-27.9,0c-9.7,2.8-3.7,11.7-3.7,11.7s5.6,7.9,13.5,8.7
	C137.1,173.6,144.2,169.4,149.6,168.3z"/>
<path class="st0" d="M159.3,206.9c-1.1,0.2-0.5,1.2-1.3,1.2c-2.5,0-4.4-0.4-6.7-1.2c0,0,0,0.1-0.1,0.1c-0.1,0.1-0.2,0.1-0.3,0.1
	c-1.6,6-4.6,10.9-4.6,10.9s3.9-0.3,9.4-2.2C155.7,215.8,158.6,211.2,159.3,206.9z"/>
<path class="st1" d="M169.5,229.2c-0.6-3.2-2.9-4-4.6-4.2c-2.8-2.6-5.4-6.9-6.5-9.2c-1.8-3.7-2.9,1.8-7.1,0.5
	c-2.3-0.8-1.3-2.6-2.4-3.2c-1.1-0.5-1.7,0.7-1.7,0.7c-0.9,0.8-1.3,2.4-1.3,2.4l-2.2,4.3c-0.1,0.7-0.6,1.9-0.9,2.3
	c-0.3,0.3-0.4,2,4,3.6s2.7,0.2,6.9,2.3s5.4,4.2,10.3,4.4C168.8,233.5,170.7,230,169.5,229.2z M144.3,221.2c0.1,0.2,0.2,0.3,0.2,0.5
	C144.4,221.6,144.4,221.4,144.3,221.2z"/>
<path class="st4" d="M142.5,169.3c-5.2,1.9-4.6,5.2-7.1,10.6c7.8,1.4,15.1,17.3,12.6,28.9c0,0,7,5.1,10.6,5.8
	c0,0,10.1-27.5-5.6-52.7C151.7,162.2,143.5,168.9,142.5,169.3z"/>
<path class="st0" d="M162.8,145c0,0,2.8-1.4,1.7-3.1c-1.5-2.3-4.5,1.1-4.5,1.1l-1.6-22.7c-1.3-2.1-5.8-1.2-7.4,0.9v0.1
	c0.5,4.5,2.5,24.5,4,27.3c2.4,4.4,6.5,5.6,6.9,4.7c0.3-0.9-2.7-4.2-2.7-4.2s4,2.2,4.4,1.3c0.3-0.9-2.7-2.8-2.7-2.8s4.6,1.9,5,0.9
	C166.1,147.5,162.8,145,162.8,145z"/>
<path class="st5" d="M127.4,94.6c-4.3-1-6.8,1.4-8.4,4.6c-0.9,2.3-2,6.2-1.1,6.1c0,0,9.8,2.1,11.2,5.9c0.7,2.1,3.3-3.6,4.2-9.9
	C132.7,98.1,130.5,95.3,127.4,94.6z"/>
<path class="st0" d="M149.1,85.9c0.5-3.1,2.4-6.1,2.3-9.1c-1.4,0.6-2.6,1.8-3.6,2.8c-1.6,1.4-3.4,2.7-5.1,4c-1.6,1.3-0.4-3.2-2.1-2
	c-1.1,0.7-3.9-1.8-5.1-1.3c-0.3,8.3,0.1,9.5-2.9,11.1c-0.9,2.7-4.3,7.2-5.5,9.9c5,2.9,26.8,8.8,27.4-4.1
	C148.2,95,148.5,90.2,149.1,85.9z"/>
<path class="st0" d="M126.9,68.3c-0.4-5.8,1.2-3.3,1.5-6.5c0.2-2.5,0.7-7.6,2.8-8.8s4.7-1.6,7.1-1.8c4.2-0.2,8.4,0.4,12.3,1.9
	c2.3,0.9,4.6,2.3,5.6,4.6c0.6,1.4,0.7,3.1,0.7,4.6c0.2,7.9,0.7,14.6-0.8,22.3c-0.4,1.9-1.3,5.1-2.7,6.5c-1.9,1.8-4.8,2-7.5,2
	c-1.5-0.8-2.8-2.1-4-3.1c-1.7-1.5-3.3-3.1-4.9-4.7c-1.6-1.5-3.2-3-4.7-4.6c-0.7-0.8-1.5-1.6-2.5-2.1c0-0.3,0.1-0.5,0.2-0.8
	c-0.9-0.1-1.4-1.2-1.3-2.2c0-0.9,0.3-2-0.2-2.8c-0.3-0.5-1.1,0-1.4-0.5C125.5,70.1,127,70.1,126.9,68.3z"/>
<path class="st6" d="M150.7,59.9c0.1,0.5,0.2,0.9,0.4,1.4c0.1,0.2-0.1,0.5-0.4,0.4c-3.1-1.1-6.1-2.1-9.2-3.2
	c-0.2-0.1-0.4,0.1-0.4,0.3l0,0c0.1,0.3-0.3,0.5-0.5,0.3c-2-1.9-4.5-3.3-7.2-3.8c-0.2,0-0.3,0.1-0.3,0.3c-0.3,3.4-0.6,6.9-0.9,10.3
	c-0.2,2-0.4,4.1-0.1,6.1c0.3,2.1,1.1,4.2,0.6,6.2c0,0.1-0.1,0.2-0.2,0.2c-1.4,0.5-2.7-1.4-3-3c-0.6-2.7-1-5.4-1-8.2
	c0-0.2-0.1-0.3-0.3-0.3c-1.2,0-1.7-1.9-1.7-3.3c0.2-3.5,0.3-6.9,0.5-10.4c0-0.2-0.2-0.3-0.4-0.3l0,0c-0.3,0.1-0.5-0.2-0.3-0.5
	c0.6-0.7,1-1.3,1.7-2.1c0.2-0.3,0.6-0.6,1-0.5s0.1,0.9-0.2,0.6c1.9-2.8,5.4-3.8,8.6-4.7c0.5-0.1,1-0.2,1.4,0.1s0.2,1.1-0.3,1
	c2.9-3.3,8.7-3.2,11.5,0.2c1.2,1.4,1.9,3.3,3.5,4.1c0.8,0.4,2,0.6,2.4,1.4c0.2,0.4,0.2,0.9,0.2,1.3c0.1,0.7,0.3,1.3,0.5,2
	c0.6,1.7,2.6,8.3,0.3,8.9c-2,0.6-4.7-2.8-5.9-5C151.1,59.4,150.6,59.6,150.7,59.9z"/>
<path class="st6" d="M128.1,72.1c0.2,2.1,0.4,4.1,1.1,6.1c0.7,1.9,0.9,4.4,2.6,5.6c1.3,0.9,1.4,2.2,2.3,3.6c0.3,0.4,1.3,0.3,1.5,0.7
	c0.6,1.2,1.6,2,2.6,2.9c0.9,0.8,3.4,0.9,4.3,1.7c0.2,0.2,0.4,0.3,0.6,0.4c0.6,0.3,1.4,0.2,2,0.5c0.4,0.2,0.9,0.3,1.4,0.2
	c1.4-0.3,3.7,0.4,5.4-0.6c0.9-0.5,1.8-1.6,2.2-2.6c1.4-2.9,2-6,2.5-9.2c-0.8,0.5-1.9,0.1-2.3-0.7c-0.2-0.4-0.3-0.9-0.6-1.2
	c-0.3-0.3-0.8-0.4-1.3-0.4c-1.8-0.1-3.6-0.2-5.5-0.4c-0.4,0-0.9,0-1.2,0.2c-0.6,0.4-0.5,1.5-1.1,1.9c-0.3,0.2-0.7,0.3-1,0.3
	c-2.1,0.1-4.3-0.2-6.3-0.8c-1-0.3-2-0.7-2.8-1.4c-1.6-1.3-2.3-3.5-2.6-5.6c-0.7-3.8-0.9-7.6-0.7-11.5c0-0.7-0.3-2.9-1.5-1.9
	c-0.6,0.5-1,2.8-1.2,3.5C127.8,66.3,127.9,69.2,128.1,72.1z"/>
<path d="M144.5,74.9c-0.1-0.2-0.2-0.4-0.3-0.7c-0.3-0.9-0.5-2.3,0.5-2.9c1.3-0.9,2,1.1,1.9,2C146.4,74.5,145.2,75.7,144.5,74.9z"/>
<path d="M153.5,75.3c-0.1-0.2-0.2-0.4-0.3-0.7c-0.3-0.9-0.5-2.3,0.5-2.9c1.3-0.9,2,1.1,1.9,2C155.5,74.9,154.2,76.1,153.5,75.3z"/>
<path class="st5" d="M158.5,99.3c-4.1-3.3-8-4.9-8.1-4.8c-0.2,0.4,2.5,5.6-3.5,6.2c-6.1,0.6-12.7-8.2-14.2-9.5c0,0-9.2,2.9-10.7,4.3
	c-2.9,5.7,0.5,11.1,0,17.3c-0.5,5.6,0.1,10.9,0,17.8c-1,10.3-2.5,28.5-1.3,34.1c2.4-0.6,2.3-1.2,7.3-2.2c4.7-0.9,9.9-1.4,14.7-0.8
	c3.6,0.4,12.2,0.3,14.7,1.7c1.4-4.8-1.1-20.7,0.3-33.1C158.2,125.6,162.5,102.6,158.5,99.3z"/>
<path class="st0" d="M117.8,104.8l-0.2,0.9c0,0-4.5,21.8-3.9,22.6c1.1,1.9,1.9,1.8,4,1.9c0.5,0,2.3-0.5,2.9-0.6
	c1.8-3.8,6.1-15.2,8-18.6C131.3,106.1,117.8,104.8,117.8,104.8z"/>
<path class="st0" d="M129.7,149.7c0,0,2.5-1.9,1.1-3.4c-1.9-2-4.2,1.9-4.2,1.9l-5.6-22.1c-1.6-1.9-5.9-0.1-7.1,2.2v0.1
	c1.3,4.3,6.8,23.7,8.8,26.2c3.2,3.9,7.4,4.4,7.6,3.4c0.2-1-3.5-3.7-3.5-3.7s4.4,1.5,4.5,0.5c0.2-1-3.2-2.3-3.2-2.3s4.9,1,5.1,0
	C133.4,151.6,129.7,149.7,129.7,149.7z"/>
</svg>
