<?xml version="1.0" encoding="utf-8"?>
<!-- Generator: Adobe Illustrator 22.1.0, SVG Export Plug-In . SVG Version: 6.00 Build 0)  -->
<svg version="1.1" id="Capa_1" xmlns="http://www.w3.org/2000/svg" xmlns:xlink="http://www.w3.org/1999/xlink" x="0px" y="0px"
	 viewBox="0 0 283.5 283.5" style="enable-background:new 0 0 283.5 283.5;" xml:space="preserve">
<style type="text/css">
	.st0{fill:#F093BD;}
	.st1{fill:#83231F;}
	.st2{fill:#06803C;}
	.st3{fill:#00984A;}
	.st4{fill:#1E1818;}
	.st5{fill:#87CEE1;}
</style>
<g>
	<path class="st0" d="M150.3,216.3c-1.5-0.8-2.9-0.7-5.2-0.5c-0.9,0.1-0.9-3.9-2.1-3.3c-0.3,0.1-0.5,0.3-0.8,0.5
		c-0.5,1.4-2.3,8.3-1.9,9.9c0.7,3.2,8.5-0.6,9.4-1.8c0.8-1-0.9-0.1-0.3-1.7C149,219.6,149.9,217.3,150.3,216.3z"/>
	<path class="st1" d="M166.3,229.5c-1.7-3-4.2-3-6-2.6c-3.7-1.7-7.8-5-9.7-7c-3.1-3.1-2.2,2.8-7,2.9c-2.6,0-2.2-2.2-3.5-2.3
		s-1.5,1.3-1.5,1.3c-0.7,1.1-0.5,2.9-0.5,2.9l-0.7,5.1c0.1,0.7,0.1,2.1-0.1,2.6c-0.2,0.4,0.3,2.2,5.2,2.2c4.9,0.1,2.8-0.7,7.7,0
		s6.8,2.3,11.8,0.9C167.1,234,167.7,229.9,166.3,229.5z M138.4,230.1c0.1,0.2,0.3,0.3,0.4,0.4C138.6,230.4,138.5,230.3,138.4,230.1z
		"/>
</g>
<path class="st2" d="M141.1,215.3c3.8,1.1,7.7,3.3,11.3,2.7c14.4-38.4,11.4-55.5,11.4-55.5l-13,0.9
	C154.5,171.6,143.5,207.6,141.1,215.3z"/>
<path class="st0" d="M139.1,201.6c-1-0.6-1.2,0.5-1.8,0c-1.8-1.8-2.9-3.3-4-5.5h-0.1c-0.1,0-0.2-0.1-0.3-0.2
	c-5.3,3.2-10.9,4.7-10.9,4.7s3,2.5,8.3,4.9C130.3,205.6,135.6,204.2,139.1,201.6z"/>
<path class="st1" d="M131,224.8c1.7-2.7,0.7-4.9-0.5-6.2c-0.2-3.8,0.8-8.7,1.6-11.1c1.3-3.9-3.4-0.7-5.4-4.6
	c-1.2-2.2,0.9-2.8,0.5-3.9c-0.4-1.1-1.7-0.7-1.7-0.7c-1.2-0.1-2.6,0.9-2.6,0.9l-4.6,1.6c-0.5,0.4-1.8,1-2.2,1
	c-0.4,0-1.7,1.2,0.4,5.3c2.1,4.2,1.8,2,3.4,6.4s1,6.8,4.4,10.3C127.6,227.4,131.3,226.1,131,224.8z M118.3,201.6
	c-0.1,0.2-0.1,0.4-0.2,0.5C118.2,201.9,118.2,201.8,118.3,201.6z"/>
<path class="st3" d="M131.2,195.8c0,0,1.3,10.2,4.5,12c0,0,23.7-18,24.5-42.4c0,0-14.8-5.9-24.5-3c-7.1,2.1-7.2,6.2-7.2,6.2
	s6.3,7.2,14.8,7.6C143.2,176.2,145.7,189.4,131.2,195.8z"/>
<path class="st0" d="M156.5,89.9c0.5-3.1,2.4-6.1,2.3-9.1c-1.4,0.6-2.6,1.8-3.6,2.8c-1.6,1.4-3.4,2.7-5.1,4c-1.6,1.3-0.4-3.2-2.1-2
	c-1.1,0.7-3.9-1.8-5.1-1.3c-0.3,8.3,0.1,9.5-2.9,11.1c-0.9,2.7-4.3,7.2-5.5,9.9c5,2.9,25.8,8.2,26.4-4.7
	C155,98.1,155.9,94.3,156.5,89.9z"/>
<path class="st4" d="M165.9,103.4c-4.1-3.3-8-4.9-8.1-4.8c-0.2,0.4,2.5,5.6-3.5,6.2c-6.1,0.6-12.7-8.2-14.2-9.5c0,0-7.8,3-9.3,4.4
	c-2.9,5.7-0.9,11-1.4,17.1c-0.5,5.6,0.1,10.9,0,17.8c-1,10.3-2.2,28.4-1.1,34c2.4-0.6,2-1.1,7-2c4.7-0.9,9.9-1.4,14.7-0.8
	c3.6,0.4,11.5-0.3,14.1,1.1c0.2-5.3-0.4-20,1-32.5C165.6,129.7,170,106.7,165.9,103.4z"/>
<path class="st0" d="M128.5,110.9v0.9c0,0,2,22.2,2.8,22.7c1.6,1.5,2.3,1.2,4.4,0.6c0.4-0.1,1.4-0.7,2.2-1.1
	c0.3-0.2,0.5-0.5,0.6-0.9c0.6-4.6,1.4-15.9,2.2-19.5C141.8,108.3,128.5,110.9,128.5,110.9z"/>
<path class="st0" d="M152.8,150.5c0,0,1.8-2.6,0.1-3.6c-2.4-1.3-3.4,3-3.4,3l-11.8-19.5c-2.1-1.3-5.7,1.6-6.2,4.2c0,0,0,0.1,0.1,0.1
	c2.5,3.8,13.4,20.7,16,22.5c4.2,2.9,8.4,2,8.2,1c-0.1-1-4.4-2.5-4.4-2.5s4.6,0.2,4.5-0.8s-3.7-1.3-3.7-1.3s5-0.4,4.9-1.4
	C156.9,151.2,152.8,150.5,152.8,150.5z"/>
<path class="st4" d="M134.7,98.3c-4.4,0.3-6.1,3.3-6.8,6.8c-0.2,2.4,0,5.2,0.6,8.4c0,0,10.1-3.1,12.5,0.2c1.3,1.8,2.2-4.4,1.1-10.7
	C140.8,100.2,137.8,98.1,134.7,98.3z"/>
<path class="st0" d="M165.6,73.5c1.1-5.7-0.7-3.4-0.6-6.6c0.1-2.5,0.3-7.6-1.6-9.1c-2-1.5-4.4-2.3-6.8-2.7
	c-4.1-0.8-8.4-0.7-12.4,0.3c-2.4,0.6-4.9,1.7-6.2,3.8c-0.8,1.3-1.1,2.9-1.3,4.5c-1.2,7.8-2.7,14.3-2.2,22.2c0.1,1.9,0.6,5.2,1.8,6.8
	c1.6,2.1,4.5,2.6,7.1,2.9c1.6-0.6,3-1.7,4.4-2.5c1.9-1.2,3.7-2.7,5.5-4s3.5-2.6,5.3-4c0.8-0.7,1.7-1.4,2.8-1.7c0-0.3,0-0.5-0.1-0.8
	c0.9,0.1,1.5-1,1.6-2c0.1-0.9,0-2,0.6-2.7c0.4-0.5,1.1,0.2,1.5-0.3C166.7,75.4,165.3,75.2,165.6,73.5z"/>
<path class="st5" d="M143.2,62c-0.1,0.5-0.3,0.9-0.6,1.3c-0.1,0.2,0.1,0.5,0.3,0.4c3.2-0.7,6.3-1.3,9.5-2c0.2,0,0.4,0.2,0.3,0.4l0,0
	c-0.1,0.3,0.2,0.5,0.5,0.3c2.2-1.7,4.9-2.7,7.7-2.8c0.2,0,0.3,0.1,0.3,0.3c-0.2,3.5-0.3,6.9-0.5,10.4c-0.1,2-0.2,4.1-0.8,6
	c-0.6,2-1.7,4-1.5,6.1c0,0.1,0.1,0.2,0.2,0.2c1.4,0.7,2.8-1.1,3.4-2.5c1-2.6,1.7-5.3,2.1-8c0-0.2,0.2-0.3,0.3-0.2
	c1.2,0.1,2-1.7,2.1-3.1c0.3-3.5,0.6-6.9,0.9-10.4c0-0.2,0.2-0.3,0.4-0.2l0,0c0.3,0.1,0.5-0.2,0.4-0.4c-0.5-0.8-0.8-1.4-1.4-2.3
	c-0.2-0.3-0.5-0.7-0.9-0.6c-0.4,0.1-0.2,0.9,0.1,0.6c-1.5-3-4.8-4.5-7.9-5.8c-0.5-0.2-1-0.4-1.4-0.1c-0.4,0.2-0.3,1.1,0.1,1.1
	c-2.4-3.6-8.2-4.3-11.5-1.4c-1.3,1.2-2.3,3-4,3.6c-0.9,0.3-2,0.3-2.5,1.1c-0.2,0.4-0.3,0.8-0.4,1.3c-0.2,0.7-0.5,1.3-0.8,1.9
	c-0.8,1.6-3.7,7.9-1.5,8.8c1.9,0.8,5-2.2,6.5-4.2C142.8,61.5,143.2,61.7,143.2,62z"/>
<path class="st5" d="M163.9,77.1c-0.4,2-0.9,4-1.9,5.9s-1.5,4.2-3.3,5.2c-1.4,0.8-1.7,2-2.7,3.3c-0.3,0.4-1.3,0.1-1.6,0.5
	c-0.8,1.1-1.9,1.8-3,2.5c-1,0.7-3.5,0.4-4.5,1.1c-0.2,0.1-0.4,0.3-0.7,0.4c-0.7,0.2-1.5,0-2.1,0.2c-0.5,0.1-1,0.2-1.4,0
	c-1.4-0.5-3.8-0.1-5.3-1.3c-0.8-0.7-1.6-1.8-1.9-2.8c-1-3.1-1.2-6.2-1.3-9.5c0.7,0.6,1.9,0.4,2.4-0.4c0.3-0.4,0.4-0.8,0.7-1.1
	c0.4-0.3,0.9-0.3,1.4-0.2c1.8,0.1,3.6,0.2,5.5,0.4c0.4,0,0.9,0.1,1.2,0.4c0.5,0.5,0.3,1.5,0.8,2c0.3,0.3,0.6,0.3,1,0.4
	c2.1,0.4,4.3,0.4,6.4,0c1-0.2,2.1-0.4,3-1c1.8-1.1,2.7-3.2,3.4-5.2c1.2-3.6,1.9-7.4,2.2-11.3c0.1-0.7,0.7-2.8,1.8-1.7
	c0.6,0.6,0.6,2.9,0.7,3.6C164.9,71.4,164.5,74.3,163.9,77.1z"/>
<path d="M147.3,77.7c0.2-0.1,0.3-0.3,0.4-0.6c0.4-0.9,0.8-2.2-0.1-2.9c-1.2-1-2.1,0.8-2.2,1.8C145.4,77.1,146.5,78.4,147.3,77.7z"/>
<path d="M138.3,76.9c0.2-0.1,0.3-0.3,0.4-0.6c0.4-0.9,0.8-2.2-0.1-2.9c-1.2-1-2.1,0.8-2.2,1.8C136.4,76.2,137.5,77.6,138.3,76.9z"/>
</svg>
