<?xml version="1.0" encoding="utf-8"?>
<!-- Generator: Adobe Illustrator 22.1.0, SVG Export Plug-In . SVG Version: 6.00 Build 0)  -->
<svg version="1.1" id="Capa_1" xmlns="http://www.w3.org/2000/svg" xmlns:xlink="http://www.w3.org/1999/xlink" x="0px" y="0px"
	 viewBox="0 0 283.5 283.5" style="enable-background:new 0 0 283.5 283.5;" xml:space="preserve">
<style type="text/css">
	.st0{fill:#F094BE;}
	.st1{fill:#E94B41;}
	.st2{fill:#87CFE1;}
	.st3{fill:#020203;}
	.st4{fill:#E53631;}
	.st5{fill:#CF2D28;}
	.st6{fill:#FFFFFF;}
	.st7{fill:#1F1919;}
	.st8{fill:#E1F2F6;}
	.st9{fill:#75BFCB;}
	.st10{fill:#04843D;}
	.st11{fill:#FFFFFF;stroke:#FFFFFF;stroke-miterlimit:10;}
	.st12{fill:#CF6298;}
	.st13{fill:#00984C;}
	.st14{fill:#C6302A;}
	.st15{fill:#D43535;}
</style>
<g>
	<path class="st0" d="M233.9,127.7c3.1-18,4.3-34.8-0.3-49.3c-9-29.1-48.9-34.9-71.7-26.7c-5.7,2-11.4,4.9-15.6,9.3
		c-1,1.1-4.5,6.3-7.6,11.2c-3.1,4.8-5.4,10.1-6.6,15.7c-1.4,6.3-2.3,12.9-3.1,19.4c-3.8,30.6-5.6,61.6-5.4,92.6
		c0,6.1,0.3,12.6,3.1,17.6c4.8,8.5,14.6,9.5,23.1,10.3c16.6,1.7,31.4,8.1,47.4,12.1c13.9,3.4,16.6-8,20.3-22.3
		c7.4-29.2,13-59.2,16.6-89.5C234,128,233.9,127.8,233.9,127.7z"/>
	<path class="st1" d="M218.7,164.7c1.4-2.6,2.7-5.2,3.7-7.9c1.2-8.8,1.8-17.7,2.1-25.9c0.7-15.3,0-30.6-0.4-45.9c0,0,0,0,0,0
		c0,0.1-0.1,0.1-0.1,0.2c-0.4,1-1.2,1.6-2.3,1.7c-1.3,0.1-2.6-1.2-2.5-2.5c0.1-0.8,0.2-1.4,0.7-2c0-0.1,0.1-0.1,0.1-0.2
		c0.4-1,1.2-1.6,2.3-1.7c0.6,0,1.2,0.2,1.7,0.7c-0.1-3.4-0.2-6.9-0.2-10.3c-3.4-6.4-9.1-11.8-16.2-12.8c3.6,5.8,7,13.2,3.1,18.5
		c-0.5,0.7-1.2,1.4-1.9,1.4c-1.2,0.2-2.2-0.7-2.9-1.7c-3.4-4.1-5.3-9.1-8.9-13s-9.8-6.2-13.9-2.9c-1.9,1.4-2.9,3.8-4.3,5.5
		c-1.9,2.2-4.6,3.4-7.2,4.6c-8.2,3.8-24.3,7.4-27.6,16.3c-2.2,5.8-1.2,14.4-1.9,20.6c-0.5,6.2-2.6,14.2-1.7,20.4
		c-1,11.5-1.9,23.5,3.8,33.6c2.6,4.8,6.7,8.9,10.8,12.5c6.2,5.5,9.1,9.6,17.3,11.5C188.9,189.7,210.3,179.6,218.7,164.7z"/>
	<g>
		<path class="st1" d="M226.9,129.1c-0.5-2.8-3.5-6.1-5.3-4.6c0.1,3.2,0.2,6.4,0.3,9.6c0.1,3.9,0.2,8.4,0.2,13.1
			c2.9-1.3,4.9-4.3,5.5-7.6C228.4,136.1,227.7,132.5,226.9,129.1z"/>
	</g>
	<g>
		<path class="st1" d="M135.9,142.1c0.3,2.8,3.1,6.4,4.9,4.9c0.1-3.2,0.2-6.4,0.4-9.6c0.2-3.9,0.4-8.4,0.8-13.1
			c-2.9,1.1-5.2,3.9-6.1,7.1C134.9,135,135.4,138.7,135.9,142.1z"/>
	</g>
	<path class="st1" d="M152.9,186.8c-4.8,5.3-8.6,9.1-15.6,7.9c-1,1.7,0.7,3.6,2.4,4.6c17.3,11,35.8,22.1,56.2,23.5
		c4.3,0.2,13.4-11.5,16.8-14.4c-8.6-6-15.6-13.7-16.1-24.3c0,0.7-23.8-9.6-25.7-10.6c-6-3.1-5-3.6-8.6,1.2
		C159.6,178.7,156.3,182.7,152.9,186.8z"/>
	<path class="st2" d="M132.2,193.3c-0.2,0.1-0.4,0.1-0.6,0.2c-6.1,2.1-11.2,6.6-15.2,11.8c-2.4,6.9-1.9,14.9-0.8,21.9
		c1.5,9.7,4.2,19.2,8.3,28.1c2-3.2,6.5-3.6,9.5-0.9c9.4,9.1,24.3,12.7,36.5,7.9c2.2-1,4.8-0.5,6.5,1.2c6,5.5,13.7,8.6,21.6,9.1
		c2.9,0.2,6-0.5,8.4-1.9c2.2-1.4,4.8-1,7,0.5c0.2,0.1,0.3,0.2,0.5,0.4c2-5.6,3.8-11.4,5.4-17.1c4.1-15.2,7.5-40.6-9.7-48.7
		c-0.3,0.2-0.7,0.3-1,0.5c-17,8.4-38.2,7.2-54.7-1.9c-6-3.3-10.3-9.7-16.1-11.2C135.8,193.1,134,193.1,132.2,193.3z"/>
	<g>
		<path class="st3" d="M171,136.9c0.7-0.5,1.2-1.4,1.7-2.4c1.7-3.6,3.4-8.9-0.2-12c-4.8-4.3-8.6,3.1-8.9,7
			C163.3,134.3,167.4,139.8,171,136.9z"/>
		<path class="st3" d="M200,137.9c0.7-0.5,1.2-1.4,1.7-2.4c1.7-3.6,3.4-8.9-0.2-12c-4.8-4.3-8.6,3.1-8.9,7
			C192.3,135,196.7,140.7,200,137.9z"/>
	</g>
	<path class="st1" d="M193.5,210.4c-0.2,0.2-0.3,0-0.3,0c-4.5,9.7-2.1,21.1,0.2,31.4c2,9.3,4.7,25.1,11.9,32.1
		c9.1,8.9,16.4-3.1,15-12.2c-1.1-7.8-3.9-15.2-6.7-22.7c-2.6-6.9-5.3-14.2-7.9-21.1c-1.8-4.7-8.9-17-10.1-22
		C193.2,198.4,196.4,208.5,193.5,210.4z"/>
	<path class="st4" d="M148.3,150c1.2,1.2,2.6,1.9,4.6,2.2c2.9,0.2,6.2,0,8.2-2.4c1.7-2.4,1.2-5.5,0.7-8.4c-1.2-6.2-9.8-7.7-13.4-2.9
		C145.4,142.1,145.7,147.2,148.3,150z"/>
	<path class="st4" d="M202.4,154.1c1.2,1.2,2.6,1.9,4.6,2.2c2.9,0.2,6.2,0,8.2-2.4c1.7-2.4,1.2-5.5,0.7-8.4
		c-1.2-6.2-9.8-7.7-13.4-2.9C199.5,146.4,199.5,151.5,202.4,154.1z"/>
	<path class="st5" d="M156.5,176c0,0,9.1,17.8,36,8.9C192.5,184.8,172.6,190.1,156.5,176z"/>
	<path class="st1" d="M160.3,200.3c-2,4-10.6,13.5-13,17.3c-3.6,5.6-7.3,11.4-11,17c-3.9,6-7.8,11.9-10.2,18.4
		c-3,7.6,1,19,10.6,12.7c7.6-5,13.1-18.1,16.6-25.8c4-8.5,8.3-17.9,6.3-26.9c0,0-0.2,0.1-0.3-0.1C157.2,211,161.9,202.7,160.3,200.3
		z"/>
	<path class="st6" d="M171,146.3c-3.9-0.1-6.5,4-4.9,7.7c2.2,4.9,6.7,10.2,16,9.7c8.1-0.5,12.9-4.3,15.8-8.1
		c2.6-3.5,0.2-8.5-4.1-8.6L171,146.3z"/>
	<path class="st0" d="M171.4,101.5c3.6,0.9,7.6,1.4,11-0.2c3.4-1.6,5.8-5.8,4.2-9.2c-0.4,3.9,3.1,7,6.4,9.1
		c5.3,3.5,10.8,6.5,16.5,9.2c2.6,1.2,5.8,2.3,8.1,0.6c3-2.2,2-6.8,0.6-10.3c0.6,3.2,5.3,4.2,8,2.3c2.7-1.9,3.7-5.4,4.2-8.7
		c2.3-14-1.8-30.1-13.6-38c-5.9-3.9-13-5.5-19.9-6.6c-12.4-2-25.7-2.6-37,2.9c-10,4.9-18.4,16.4-16.5,28
		C145.6,92.2,160.9,98.9,171.4,101.5z"/>
	<path class="st7" d="M185,256.6h-16.3c-7.1,0-13-5.8-13-13v-50c0-7.2,5.9-13,13-13H185c7.1,0,13,5.8,13,13v50
		C198,250.7,192.1,256.6,185,256.6z"/>
	<path class="st1" d="M194.1,194.6c-2.4,2-1.7,6.4,1.1,8c-0.8-0.5-1.7-1-2.5-1.2c-2.4,1-3.4,4.1-2.2,6.3c1.2,2.2,4.2,3.3,6.3,1.9
		c-3.4,1.7-5.5,5.7-4.1,9.1c1.3,3.4,6.8,4.5,8.8,1.4l0,0.3c4.6,1.6,6.3-5.6,5.8-8.5l-5-15.3C201.1,193.5,196.8,192.2,194.1,194.6z"
		/>
	<path class="st1" d="M155.3,202l-2.4,15.9c0,2.9,2.9,9.7,7.1,7.4l-0.1-0.3c2.5,2.7,7.7,0.7,8.5-2.8c0.8-3.6-1.9-7.2-5.6-8.3
		c2.2,1,5.1-0.5,5.9-2.9c0.8-2.4-0.7-5.2-3.2-5.8c-0.8,0.3-1.6,1-2.3,1.6c2.6-2,2.5-6.5-0.2-8.1C159.9,196.7,155.9,198.6,155.3,202z
		"/>
	<path class="st8" d="M150.7,57.3c7.3-12.6,8.5-29.1-6-37.7c-10.2-6-24.7-3.2-31.9,6.2c0.5-10.3-7.3-20-17.2-22.9S74.5,3.7,67.3,11
		c-3.9,4-6.8,9.2-6.8,14.8c0,5.6,3.7,11.3,9.1,12.5c-10,0.2-18.1,8.9-21.3,18.4c-1.9,5.7-2.4,12,0,17.5c2.4,5.4,8.4,9.5,14.3,8.6
		c-3.3,6.8-4.9,14.7-2.8,21.9c2.1,7.2,8.6,13.4,16.1,13.6c9,0.3,16.2-7.2,21.2-14.7c4.2,5.5,12.2,7.7,18.6,5.3
		c6.5-2.5,10.9-9.4,10.4-16.3c5.8,1.9,12.6,0.7,17.3-3.2c4.8-3.9,7.3-10.2,6.6-16.3c3.1,3.4,9.4,2,11.4-2.1
		C165.5,62.6,156.4,59,150.7,57.3z"/>
	<g>
		<path class="st0" d="M108.4,43.5c-0.5,2.7,1.1,5.1,3.4,5.5c2.3,0.4,4.9-1.8,5.3-4.4c0.5-2.7-1.1-5.1-3.4-5.5
			C111.4,38.6,108.8,40.8,108.4,43.5z"/>
		<path class="st9" d="M77.3,78.5c0,0-1,4.9-0.3,5.9c0.7,1,4.2,10.1,5.2,10.1c1,0,36.5-3.3,37.2-4.6c0.4-0.7,0.8-2.3,0.8-2.3
			s-6.4-12.6-7.2-12.6c-0.8-0.1-33.2,2.5-33.8,2.2C78.1,76.7,77.3,78.5,77.3,78.5z"/>
		<path class="st2" d="M77.5,78.6c0,0,5.2,13.1,5.9,13.1c0.7,0,36.5-3.5,36.9-4.1c0.3-0.7-5.5-12.5-6.5-12.9c-1-0.3-33.6,1.6-34.9,2
			C77.5,77,77.5,78.6,77.5,78.6z"/>
		<path class="st10" d="M111,77.1c0,0-0.5,1.8,0,2.1c0.5,0.3,1.2,0.3,1.5-0.3c0.3-0.5,0.3-2.1,0.3-2.1L111,77.1"/>
		<path class="st10" d="M112.6,79.7c0,0-0.5,1.8,0,2.1s1.2,0.3,1.5-0.3c0.3-0.5,0.3-2.1,0.3-2.1L112.6,79.7"/>
		<path class="st10" d="M114.3,82c0,0-0.5,1.8,0,2.1c0.5,0.3,1.2,0.3,1.5-0.3c0.3-0.5,0.3-2.1,0.3-2.1L114.3,82"/>
		<path class="st10" d="M115.9,84.6c0,0-0.5,1.8,0,2.1c0.5,0.3,1.2,0.3,1.5-0.3c0.3-0.5,0.4-1.8,0.4-1.8H115.9"/>
		<polygon class="st9" points="113.9,87.3 107.7,76.1 106,76.5 112.2,87.7 		"/>
		<path class="st0" d="M81.6,83.9c0,3.7,3.4,6.7,7.7,6.7c4.2,0,8-3,8-6.7s-3.8-7-8-7C85,76.8,81.6,80.1,81.6,83.9z"/>
		<path class="st11" d="M86.6,82.7c0,1.3,1.2,2.4,2.7,2.4c1.5,0,2.9-1.1,2.9-2.4c0-1.3-1.4-2.5-2.9-2.5
			C87.8,80.2,86.6,81.4,86.6,82.7z"/>
		<path class="st12" d="M102.8,81c0,0-0.5,1.8,0,2.1c0.5,0.3,1.2,0.3,1.5-0.3c0.3-0.5,0.3-2.1,0.3-2.1L102.8,81"/>
		<path class="st12" d="M103.8,84c0,0-0.5,1.8,0,2.1c0.5,0.3,1.2,0.3,1.5-0.3c0.3-0.5,0.3-2.1,0.3-2.1L103.8,84"/>
		<g>
			<path class="st13" d="M111,77.1c0,0.4,0.3,0.5,0.6,0.5c0.4,0.1,1.3,0.3,1.3-0.5c0-0.5-0.6-0.8-0.9-0.8
				C111.6,76.3,111,76.6,111,77.1L111,77.1z"/>
		</g>
		<g>
			<path class="st13" d="M112.6,79.7c0,0.4,0.3,0.5,0.6,0.5c0.4,0.1,1.3,0.3,1.3-0.5c0-0.5-0.6-0.8-0.9-0.8
				C113.3,78.9,112.7,79.2,112.6,79.7C112.6,79.7,112.6,79.7,112.6,79.7z"/>
		</g>
		<g>
			<path class="st13" d="M114.3,82c0,0.4,0.3,0.5,0.6,0.5c0.4,0.1,1.3,0.3,1.3-0.5c0-0.5-0.6-0.8-0.9-0.8
				C114.9,81.2,114.3,81.5,114.3,82L114.3,82z"/>
		</g>
		<g>
			<path class="st13" d="M115.9,84.6c0,0.4,0.3,0.5,0.6,0.5c0.4,0.1,1.3,0.3,1.3-0.5c0-0.5-0.6-0.8-0.9-0.8
				C116.5,83.8,115.9,84.1,115.9,84.6C115.9,84.6,115.9,84.6,115.9,84.6z"/>
		</g>
		<path class="st1" d="M109.5,71.2c0,0-0.2,1.4,1.7,3.7c2,2.3,4.6-0.2,5.3-2.5c0.7-2.3-1.7-23.3-1.4-25.6c0.3-2.3-0.3-5.2-1-4.9
			c-0.7,0.3-2.9,4.2-2.9,5.2s-1.6,3.3,0.3,3.3c0,0,0,14.1,0,15.3c0,0-2.1-1.3-3.2-1.3C107.3,64.5,109.5,71.2,109.5,71.2z"/>
		<path class="st1" d="M119.8,31.2c0,0-2.6,6.8-4.2,10c-1.6,3.3-5.9,10.1-7.2,11.1c-1.3,1-2,2.3-5.2,1.3c0,0,0,2.9,2,3.3
			c0,0-13.1,7.8-17.9-9.5c0,0,3.9-1.6,4.2-2.3c0.3-0.7,2.6-5.2,2.6-8.8s1.3-5.5,2.6-6.9c1.3-1.3,7.2-7.5,10.4-7.5
			c3.3,0,13.1,8.3,13.1,8.3L119.8,31.2z"/>
		<path class="st13" d="M99.9,20.4c0.4-0.2-2.3,2.6-3.3,4.2c-1,1.6-1.3,5.9-1.3,6.6s0.3,5.5,0.3,6.2c0,0.7,1,2.3,1.6,0.7
			c0.7-1.6,2-4.6,2.9-6.9c0.6-1.5,2.3-3.7,3.4-5.1c0.6-0.7,1.6-0.8,2.2-0.2c2.3,2.3,7,5.6,8,5.9c0.4,0.1,0.6,0.1,0.7-0.1
			c0.4-0.4,0.8-0.6,1.3-0.5c1.5,0.3,3.2,0.3,3.2,0.3l-0.7-0.7h0.1c1.1,0.4,2.2-0.5,2-1.7c-0.1-0.4-0.1-0.7-0.1-1
			c0-1.3-1-4.6-2.3-5.2c-1.3-0.7,0-2.3-3.3-3.9c-3.3-1.7-7.5-1-8.2-1c-0.7,0,1-1,1-1c0.2-0.4-1.1,0.3-1.6,0.5
			c-2.8,1-4.8,3.2-6.4,2.7"/>
		<path class="st7" d="M105,56.9c0,0-8.8,2.6-13.1-1.6s-4.2-8-4.2-8s-9.3,1.7-9.1,5.7c0.2,4.2,7.2,1.6,7.2,1.6s-0.9,12.9-0.6,17.1
			c0.1,1.7-0.4,3.4-0.3,4.4l6.8-0.4c0.2,0,5.9-0.6,6.5-0.6l7.3-0.4c0,0,0.8-5.4,0.8-6.1C106.2,68.2,109.3,58.2,105,56.9z"/>
		<path class="st7" d="M105,56.9c0,0,3.3,0.3,6.6,8.8c0,0-2.6,6.2-1.6,7.2c0,0-2.9-3.5-3.6-4.5C105.7,67.5,105,56.9,105,56.9z"/>
		<path class="st0" d="M90.7,34.3c-0.5,2.7,1.1,5.1,3.4,5.5c2.3,0.4,4.9-1.8,5.3-4.4c0.5-2.7-1.1-5.1-3.4-5.5
			C93.8,29.5,91.2,31.6,90.7,34.3z"/>
		<path class="st6" d="M91.5,34c-0.3,2,0.8,3.8,2.5,4.1c1.7,0.3,3.6-1.3,3.9-3.3c0.3-2-0.8-3.8-2.5-4.1C93.8,30.4,91.8,32,91.5,34z"
			/>
		<g>
			<path class="st0" d="M102.8,81c0,0.4,0.3,0.5,0.6,0.5c0.4,0.1,1.3,0.3,1.3-0.5c0-0.5-0.6-0.8-0.9-0.8
				C103.4,80.2,102.9,80.5,102.8,81C102.8,81,102.8,81,102.8,81z"/>
		</g>
		<path class="st12" d="M101.8,77.7c0,0-0.5,1.8,0,2.1c0.5,0.3,1.2,0.3,1.5-0.3c0.3-0.5,0.3-2.1,0.3-2.1L101.8,77.7"/>
		<g>
			<path class="st0" d="M101.8,77.6c0,0.4,0.3,0.5,0.6,0.5c0.4,0.1,1.3,0.3,1.3-0.5c0-0.5-0.6-0.8-0.9-0.8
				C102.4,76.8,101.9,77.1,101.8,77.6L101.8,77.6z"/>
		</g>
		<g>
			<path class="st0" d="M103.8,84c0,0.4,0.3,0.5,0.6,0.5c0.4,0.1,1.3,0.3,1.3-0.5c0-0.5-0.6-0.8-0.9-0.8
				C104.4,83.1,103.9,83.5,103.8,84L103.8,84z"/>
		</g>
		<path class="st0" d="M95.6,30.4c0,0,6.4-10.3,12.5-10.6C118.8,19.3,120,26,120,26s-15.2-9.4-22.2,5L95.6,30.4z"/>
		<path class="st1" d="M114.8,42.4l-4.4,7.4C110.4,49.8,111.6,50,114.8,42.4z"/>
		<path class="st3" d="M106.8,41.8c0.2-0.1,0.3-0.2,0.5-0.3c0.6-0.5,1.2-1.3,0.8-2.1c-0.6-1.1-1.7,0-2,0.7
			C105.6,40.9,106,42.1,106.8,41.8z"/>
		<path class="st3" d="M111.9,43.8c0.2-0.1,0.3-0.2,0.5-0.3c0.6-0.5,1.2-1.3,0.8-2.1c-0.6-1.1-1.7,0-2,0.7
			C110.8,42.8,111.1,44,111.9,43.8z"/>
		<path class="st1" d="M109.9,43c0.1,0.3,0.1,0.6,0.1,0.9c0,0.1,0,0.1,0,0.2c-0.1,0.1-0.1,0.1-0.2,0.1c-0.4,0.1-0.8,0.2-1.1,0.2
			c0.6-0.3,1-0.9,1.1-1.5"/>
		<path class="st13" d="M108.1,45.6c-0.6-0.3-1.2-0.7-1.8-1c-0.1-0.1-0.2-0.1-0.3-0.1c-0.1,0-0.2,0.1-0.3,0.1
			c-0.2,0.1-0.3,0.2-0.4,0.3c-0.2,0.2-0.3,0.4-0.3,0.6c0.1,0.2,0.4,0.4,0.5,0.2c-0.1,0.1,0,0.3,0.1,0.3c0.1,0.1,0.3,0.1,0.4,0.1
			c0,0.1,0,0.1,0,0.2c0.3,0,0.7,0.1,0.9,0.3c-0.1,0.1,0,0.2,0.1,0.2c0.1,0.1,0.2,0.1,0.3,0.2c0.4,0.2,0.7,0.4,1,0.5
			c0.2,0.1,0.3,0.2,0.5,0.2c0.4,0.1,0.7-0.1,1-0.3C110.6,46.4,108.5,45.9,108.1,45.6z"/>
		<path class="st1" d="M103.1,53.8c0,0-7.5-6.2-5.8-4.9C97.3,48.8,99.3,52.9,103.1,53.8z"/>
		<path class="st14" d="M103.1,53.6c0,0-4.8-2.2-6.9-4.2C96.3,49.5,98.6,53.3,103.1,53.6z"/>
		<path class="st15" d="M114.8,42.4l-4.4,7.4C110.4,49.8,113.2,46.6,114.8,42.4z"/>
		<path class="st7" d="M76.8,64.6c0,0,2.4-0.7,4.7-0.2c2.2,0.6,4,2.1,4,2.1s2.6-17.1-0.3-17.6c-2.9-0.5-6.9-0.4-8,9
			S76.8,64.6,76.8,64.6z"/>
		<path class="st1" d="M76.7,64.9c0,0,1.2,6.7,3.4,9.7s6,8.3,6.5,8.8s-0.3,3.1,1,3.6c1.2,0.5,2.9-0.2,2.9-0.2s2.1,0.2,2.6-0.3
			c0.6-0.5,0.5-1.2,0.5-1.2s1.9-0.3,1.4-0.8c-0.5-0.6-2.5-2.5-4.3-3.3c0,0-5.3-13.3-6-15C84,64.6,76.7,62.5,76.7,64.9z"/>
	</g>
	<path class="st8" d="M166.9,74.8c0.1,2.3,1.2,4.5,3.1,5.7c1.9,1.2,4.6,1.2,6.4-0.2c1.3-1,2.1-2.7,2.2-4.4c0.3-3.9-2-7.4-6.1-7.7
		C169.1,68.1,166.8,71.7,166.9,74.8z"/>
</g>
</svg>
