<?xml version="1.0" encoding="utf-8"?>
<!-- Generator: Adobe Illustrator 22.1.0, SVG Export Plug-In . SVG Version: 6.00 Build 0)  -->
<svg version="1.1" id="Capa_1" xmlns="http://www.w3.org/2000/svg" xmlns:xlink="http://www.w3.org/1999/xlink" x="0px" y="0px"
	 viewBox="0 0 297.6 297.6" style="enable-background:new 0 0 297.6 297.6;" xml:space="preserve">
<style type="text/css">
	.st0{fill:#1DBB73;}
	.st1{fill:#84D2E4;}
	.st2{fill:#1E1818;}
	.st3{fill:#F193BE;}
	.st4{fill:#F9483B;}
	.st5{fill:#08984B;}
	.st6{fill:#F7F7E6;}
	.st7{fill:#D37FA8;}
	.st8{fill:#E53530;}
	.st9{fill:#CE2C28;}
</style>
<path d="M-91.2,135.9C-91.2,135.9-91.2,135.9-91.2,135.9c-1-1.6-0.2-3.7,1.6-4.2c1.5-0.4,2.7-2.1,2-3.6c-0.6-1.4-2.4-2-2.9-3.4
	c-0.5-1.3,0.1-2.9-0.3-4.2c-0.3-0.8-0.9-1.4-1.5-1.9c-2.2-1.9-4.9-3.3-7.7-3.9c-0.5-0.1-1.1-0.2-1.7,0c-0.6,0.2-1,0.8-1.4,1.3
	c-2.4,3.2-4.9,6.9-4.7,10.9c0.1,1.4,0.5,2.7,0.9,4c0.4,1.5-0.5,3.1-2.1,3.4c-3.1,0.7-5.8,3.7-5.7,7c0,1.1,0.4,2.2,0.2,3.3
	c-0.2,1.2-0.9,2.3-1.3,3.5c-0.5,1.5-0.4,3.1-0.2,4.7c0.2,2.6,0.4,5.2,0.6,7.9c0.2,2.9,0.1,6.3-1.7,8.2c-0.7,0.8-1.1,1.9-0.6,2.9
	c0.6,1.4,0.7,3.1,0.5,4.6c-0.4,2,1.4,3.8,3.4,3.3c1.6-0.4,3.1-1,4.6-1.5c5.2-2,10.5-4.2,14.4-8.1c4.6-4.8,6.4-11.4,7.2-17.8
	C-86.9,145.7-87.7,141.2-91.2,135.9z"/>
<path class="st0" d="M-87.1,168.7c0.7-2.6,2-5,2.5-7.6c0.7-3.5,0.1-7.2-1.4-10.4c-1.3-2.9-3.4-5.7-2.8-8.8c-1-0.3-2.2,0.2-2.7,1.1
	c-0.1-1.7-2.7-3.9-3.5-2.6c0,0.6,0.3,1.2,0.8,1.6c-0.6-0.8-1.9-2.3-2.8-1c-0.1,0.5,0,1.1,0.3,1.5c-0.2-0.8-1.7-0.3-1.7,0.5
	c0,0.9,0.8,1.5,1.5,2c3,2.2,5.8,4.9,7.2,8.4c1.4,3.5,1.1,7.8-1.5,10.4c0.4-1.4,0.7-2.9,0.6-4.4c-0.2-3-2.1-5.6-3.9-8
	c-1.6-2.1-4.1-4.5-6.6-3.6c-1.5,0.5-2.4,2.1-2.6,3.6c-0.2,1.5,0.1,3.1,0.4,4.6c0.5,2.3,1,4.7,1.5,7c0.3,1.4,0.6,3-0.1,4.3
	c-0.3,0.6-0.8,1.1-1.1,1.7c-1,1.7-0.8,3.9-1.4,5.8c-0.4,1.5-1.3,2.7-1.9,4.1c-0.6,1.4-1.3,3.4-0.4,4.6c3.1,0.6,6.7-2,9.7-1.5
	c1.3,0.2,2.4,1,3.6,1.3c1.3,0.3,2.7,0.1,4-0.1c1.8-0.3,3.6-0.6,5.4-0.9c0.4-0.1,0.9-0.1,1.2-0.4c3-1.9-1.9-4.7-2.9-5.7
	C-87.8,174.1-87.9,171.8-87.1,168.7z"/>
<path d="M223.3,136.6C223.3,136.6,223.3,136.6,223.3,136.6c-1.2-1.4-0.7-3.6,1-4.4c1.4-0.6,2.3-2.5,1.4-3.8
	c-0.8-1.3-2.6-1.6-3.4-2.9c-0.7-1.2-0.3-2.9-0.9-4.1c-0.4-0.7-1-1.2-1.7-1.7c-2.5-1.6-5.3-2.5-8.2-2.8c-0.6,0-1.1-0.1-1.6,0.2
	c-0.6,0.3-0.9,0.9-1.2,1.5c-1.9,3.6-3.9,7.5-3.1,11.4c0.3,1.3,0.9,2.6,1.4,3.8c0.6,1.4-0.1,3.2-1.5,3.7c-3,1.1-5.3,4.5-4.7,7.7
	c0.2,1.1,0.7,2.1,0.7,3.2c0,1.2-0.6,2.4-0.8,3.6c-0.3,1.5,0.1,3.1,0.4,4.6c0.6,2.6,1.1,5.1,1.7,7.7c0.6,2.8,1,6.2-0.5,8.4
	c-0.6,0.9-0.8,2-0.2,2.9c0.8,1.3,1.2,2.9,1.1,4.5c-0.1,2.1,1.9,3.5,3.9,2.8c1.5-0.6,2.9-1.4,4.3-2.2c4.8-2.7,9.8-5.6,13.1-10.1
	c3.9-5.4,4.8-12.2,4.6-18.7C228.9,145.7,227.5,141.3,223.3,136.6z"/>
<path class="st0" d="M227.5,170.9c1.6-2.1,3.7-3.9,5.1-6.2c1.9-3,2.7-6.7,2.5-10.2c-0.2-3.1-1.1-6.6,0.6-9.2c-0.8-0.7-2.1-0.7-2.9,0
	c0.5-1.6-1.1-4.6-2.4-3.7c-0.2,0.6-0.2,1.3,0.1,1.8c-0.3-1-1-2.8-2.2-2c-0.3,0.4-0.4,1-0.3,1.5c0.1-0.9-1.5-0.9-1.8-0.1
	c-0.3,0.8,0.2,1.7,0.6,2.4c2,3.2,3.6,6.7,3.7,10.4c0,3.7-1.8,7.7-5.2,9.2c0.9-1.2,1.7-2.4,2.2-3.8c0.9-2.9,0.1-6-0.8-8.8
	c-0.8-2.6-2.1-5.7-4.8-5.8c-1.6-0.1-3,1-3.8,2.4s-1,2.9-1.3,4.5c-0.4,2.4-0.8,4.7-1.2,7.1c-0.2,1.4-0.5,3-1.6,4
	c-0.5,0.5-1.1,0.7-1.7,1.1c-1.6,1.2-2.2,3.3-3.4,4.9c-0.9,1.2-2.2,2.1-3.3,3.2s-2.4,2.7-2.1,4.1c2.6,1.7,6.9,0.5,9.6,2.2
	c1.1,0.7,1.9,1.8,2.9,2.5c1.1,0.8,2.5,1.1,3.8,1.4c1.8,0.4,3.6,0.8,5.4,1.2c0.4,0.1,0.9,0.2,1.3,0.1c3.4-0.7,0-5.1-0.6-6.4
	C224.9,175.7,225.6,173.5,227.5,170.9z"/>
<path class="st1" d="M-166,124.4c0,0,0,7.9-3.4,10.5c0,0,4.8,10.3,16.8,9.5c12-0.9,10.2-4.5,10.2-4.5s-1.3-10.1,0.4-12.7
	C-142,127.2-156.6,127.5-166,124.4z"/>
<path class="st1" d="M-185.5,177.3c1.3-0.7,3.3,0.2,3.5,1.7s-1.4,2.9-2.9,2.6c0,1.3,0,2.7,0.1,4c0,0.6,0,1.3-0.4,1.7
	c-0.4,0.4-1.4,0.3-1.4-0.3c-0.2,0.6-0.4,1.2-0.6,1.8c-1.4,0.1-2.6-1.1-3.3-2.3c-3.3-5.5-1.5-12.5-1.7-18.9c-0.1-2.1-0.3-4.1-0.2-6.2
	c0.3-4.4,4-13.6,4.6-12.2c5.8,3,5.5,5.1,4.6,10.9C-183.6,162.4-184,176.5-185.5,177.3z"/>
<path class="st1" d="M-112.7,96c0-3.8,4.1-6.7,4-10.5c0-0.8-0.9-0.4-2,0.5c0-0.2,0.1-0.3,0.1-0.5c0.1-1-0.6-2.5-1.5-2.1
	c-0.3,0.1-0.5,0.3-0.7,0.6c-0.3,0.3-0.6,0.7-0.9,1.1c0.6-1.4,0.6-2.6-0.7-2.9c-2,1.7-3.2,4.1-3.5,6.7c-0.8-2.1-3.4-3.4-5.6-2.7
	c-0.6,1.9,1.8,3.2,3.1,4.7c1,1.1,1.5,2.6,1.8,4.1c1.9,7.6,0.8,16.2-1.8,23.7c-0.8,2.3-8.6,16.4-0.4,16.1c1.4,0,2.5-1.2,3.3-2.3
	c5.1-6.9,8-15.5,7-24C-111,104.5-112.6,100.4-112.7,96z"/>
<path class="st1" d="M-259.5,151.1c0.1,0.1,0.2,0.1,0.2,0.2c0,0,0,0,0,0.1c1.5,2,3.2,3.9,4,6.1c1.2,1.8,2.3,3.6,3.2,5.6
	c0.4,0.8,0.6,1.7,1,2.5c0.3,0.8,0.8,1.2,1.2,1.6c0.4-3.5-0.3-7-1-10.5c-0.3-1.3-0.5-2.6-1.2-3.6c-0.8-1.1-1.9-1.9-2.8-2.9
	c-1.2-1.4-1.8-3.4-3.6-4.1c-0.9-0.4-2-0.2-2.6,0.6c-0.5,0.8-0.2,1.6,0.2,2.3C-260.5,149.7-260,150.4-259.5,151.1z"/>
<path class="st1" d="M-233.6,161.5c-0.8-2-2.4-3.2-4-4.5c-3-2.5-2.2-1.4-0.7-4.5c2.3-4.7-0.9-10.4-5-12.7c-1-0.5-2-0.8-3.1-0.7
	c-2.8,0.3-3.8,3.1-4.1,5.5c-0.2,2-0.2,4.1-1.2,5.8c-0.4,0.6-0.9,1.3-0.9,2c0,0.4,0.2,0.9,0.2,1.3c0.1,0.7-0.1,1.4-0.4,2
	c0.3,0.8,0.7,1.6,0.9,2.6c0.4,2,0.4,4,0.8,6c0.4,1.7,0.9,3.3,1.4,5c1,2.9,2,5.9,3,8.8c0.1,0.4,0.3,0.8,0.6,1.1
	c0.3,0.2,0.6,0.3,0.9,0.4c4.5,0.9,9.4-1.8,11-6.1c0.7-1.9,0.8-4,0.9-6C-232.9,165.5-232.9,163.4-233.6,161.5z"/>
<path class="st2" d="M-178.3,137.1c-2.5,1-5,2.3-7,4.2c-2.1,2-3.4,4.7-3.6,7.6c-0.4,5.1,3.8,0.7,5.9,6.6c0.1,0.3,0.4,0.4,0.6,0.2
	c1.1-1.1,2.1-2.4,3-3.7c0.2-0.4,0.8-0.1,0.7,0.3c-2.2,8.3-1.5,17.3-0.8,26l0.8,9.9c0,0.2,0.2,0.4,0.4,0.3l7.6-1.5
	c3.2-0.6,6.5-1.3,9.8-1.1c2.7,0.1,5.3,0.7,7.9,0.8c2.7,0.1,5.5-0.4,7.5-2.2c1.5-1.4,2.3-3.4,3-5.3c3-8.4,4.7-17.3,5.2-26.2
	c0-0.2,0.2-0.4,0.4-0.3c2.8,0.5,5.6-1.5,7.9-3.4c5.2-4.3,10.5-10.1,12-16.7c0.1-0.2-0.1-0.4-0.4-0.5c-3.1-0.1-5.4-1.7-6.3-4.6
	c-0.1-0.3-0.4-0.4-0.6-0.2c-4,3.5-8.3,7-12.3,10.6c-0.7,0.7-5.1,1.4-5.9,2c-4.5,3.1-10.4,5.2-18.4,1.2c-3.2-1.6-6.1-5.4-6.9-6.6
	C-169.9,131.4-175.1,135.8-178.3,137.1z"/>
<path class="st3" d="M-104.9,186.6c0.6-0.7,1.1-1.8,0.5-2.5c-0.4-0.4-1-0.4-1.5-0.7c-1.4-0.8-0.8-3,0.1-4.3c1-1.3,2.2-2.9,1.5-4.4
	c-2.1-0.6-2.7-3.3-2.3-5.4c0.3-2.1,1.1-4.4,0.3-6.4c-0.6-1.5-2.1-2.6-2.5-4.2c-0.4-1.2-0.1-2.4-0.4-3.6c-0.2-1.3-1-2.5-1.8-3.5
	c-2.6-3.5-5.7-6.8-9.6-8.6c-3.9-1.8-8.8-2.1-12.5,0.2c-1.9,1.2-3.5,3-5.6,3.7c-2.3,0.7-5.1,0.2-6.6,2.1c-1,1.3-0.8,3.1-1.6,4.5
	c-0.7,1.2-2.1,1.8-3.2,2.6c-4.8,3-7.6,8.8-7.1,14.5c0.4,4.1,2.4,8.2,1.4,12.2c-0.4,1.6-1.1,3.5,0.1,4.6c0.4,0.4,0.9,0.5,1.5,0.6
	c3.3,0.2,5.1-4.2,8.3-4.8c2.9-0.6,5.3,2.1,6.8,4.6s2.9,5.5,5.7,6.3c2.5,0.8,5.2-0.5,7.6-1.5c1.9-0.8,4.3-1.5,6.2-0.7
	c1.7,0.7,2.4,3.2,4.2,3.3C-112.3,195.4-106.7,188.8-104.9,186.6z"/>
<path class="st1" d="M-170,104c-2,9,3.7,8.2,3,13.8c-0.2,1.8-0.5,3.7,0.4,5.3c0.4,0.7,1,1.3,1.6,1.8c1.4,1.3,2.8,2.7,4.2,4
	c3.1,2.9,6.5,6,10.7,6.3c3.3,0.2,6.6-1.4,9-3.7s4.4-5.1,5.4-8.3c2.5-8.3,3.4-12.3,7.5-26.4c0.2-0.7-2.8-1.3-3.3-1.9
	c-0.5-0.6-1.3-0.9-2-1.2c-3-1.1-6.3-2.2-9.4-1.4c-1.7,0.4-3.2,1.4-4.9,1.3c-2.5-0.1-4.3-2.4-6.5-3.4c-2.6-1.2-5.8-0.7-7.9,1.2
	c-1.9,1.7-2.1,5.5-2.4,5.8C-167.1,101-169.1,100.1-170,104z"/>
<path class="st3" d="M-234.6,130.3c-0.2,3-0.3,6.4,1.5,8.8c-1.7,4.8-2.4,10-2,15.1c0.5,6.3,7.9,15.6-0.5,18.6
	c6.4-0.1,12.3,3.7,16.2,8.7s6.2,11.1,8.4,17.1c1.3-8.1,17.1-21.2,9.3-23.7c-1.4-0.5-5.6-2.2-5.3-3.2c1.1-3.5,8.3-3.9,10.2-7
	c0.9-1.5,1.1-3.3,1.3-5.1c0.7-6.3,4.2-12.2,6.4-18.1c-6.3-3.7-12.6-7.3-19-11c-2-1.2-4-2.3-6.2-3c-2.5-0.8-3.8-4.3-6.4-4.8
	C-226.6,121.4-234,121.1-234.6,130.3z"/>
<path class="st0" d="M-230.1,124.6c0,0-7.7,24.8-5.1,31.7s7.7,10.3,11.1,12.8c3.4,2.6,5.1,2.6,8.6,5.1s9.4,0.9,12-0.9
	s2.8-2.2,5.2-5.1c1.4-1.8,2.8-5.6,2.8-5.6s-2.2,1.7-3,0s-0.3-4.1-8-5s-5.5,3.8-9.8,3.8s-9.4-2.6-11.1-7.7s6-29.1,4.3-29.9
	S-230.1,124.6-230.1,124.6z"/>
<path class="st4" d="M-237.8,207.7c-1.2,0.2-3.7,0.9-7.8,3.3c-0.5,0.3-1.2,0-1.4-0.6c-1.5-5.6-7.4-29,0.7-34.4
	c4.7-3.1,10.6-5.1,13-5.8c0.5-0.1,0.9,0.1,1.1,0.6c0.4,1.1,2.3,3,9.4,6.1c3,1.2,9,5.8,11,9.2c0.3,0.6,1.1,0.7,1.5,0.2
	c2-2.2,6.3-7.2,6.6-8.6c1-4,8.6-4.3,12.8,3.4c3.6,6.5,6,12.4,6.7,14.1c0.1,0.3,0.1,0.6-0.1,0.9c-1,1.3-3.9,5.6-4.2,9.1
	c-0.1,0.8-1,1.2-1.6,0.6l-5.8-5.8c-0.6-0.6-1.7-0.2-1.6,0.7c0.3,6.9,0.8,26.1-2.7,27.5c-4.3,1.7-34.2-4.3-35.9-5.1s1.7-24.8,0-28.2
	c-1.5-2.9-1,8.6-0.9,11.9C-237,207.2-237.3,207.6-237.8,207.7z"/>
<path class="st3" d="M-188.2,207.6c0,0,3.2,2.7,9.4,2.6c6.8-0.2,23.2-6.8,29.2-8.5c6-1.7,11.9-6.9,10.2-6.9s-3.4-0.9-9.4,1.7
	c0,0,11.1-7.7,6-6s-9.4,3.4-9.4,3.4s8.6-6,5.1-5.1s-8.6,4.3-8.6,4.3s-2.6-3.4-3.4-2.6s0.9,3.4,0.9,3.4s-16.3,6.8-18,6.8
	s-5.1-3.4-7.7-5.1S-192.5,203.3-188.2,207.6z"/>
<path class="st3" d="M-247.1,210.9c0,0,0.5,5.5,6.4,7.3c5.9,1.9,22.6,4.7,28.5,6.6c5.9,1.9,4.6,1.5,6.3,1.6c1.6,0.1,4.1-1.8-2.3-3
	c0,0,4.1,0.7,3.8-2c-0.2-1.7-4.9-1.4-4.9-1.4s7.8-0.4,3.9-2.4c-3.1-1.6-6.2-0.8-6.2-0.8s1.1-4.1-1.9-4c-1.2,0-1.2,3.3-1.2,3.3
	s-17.3-3.3-18.8-4.2c-1.4-0.9-2.7-5.4-3.9-8.3S-248.3,204.9-247.1,210.9z"/>
<path class="st5" d="M-158.3,84.1c2.2-2.3,5.4-3.6,8.6-3.4c-0.4,0.7-0.8,1.4-1.2,2c4-1.9,9.1-1.2,12.6,1.6c2.1,1.8,4.5,4.6,7.1,3.6
	c-0.3,1.8,1.2,3.4,2.4,4.8c1.3,1.6,2.2,4.1,0.4,5.3c-0.9,0.6-2.2,0.6-3.2,0.1c-3.1-1.7-6.4-4.3-10-4c-3,0.3-6.5,2.6-8.6,0.4
	c-0.4-0.4-0.6-0.8-1-1.1c-0.7-0.6-1.7-0.6-2.6-0.6c-2.5-0.1-5.1-0.8-7.3-2.1c-2.9,4.1-3.5,9.3-3.7,14.3c-0.1,3.2-0.2,6.5,0.8,9.6
	c1,3.1,3.3,5.9,6.4,6.8c1.5,0.4,3.2,0.4,4.6-0.3c0.9-0.4,1.7-1.1,2.6-1.5c2.9-1.4,6.3-0.6,9.4,0.2c2.5,0.6,3.1,3.4,5.8,2
	c-0.2,3.2-1.5,5.3-2.9,6.9c-4,4.7-7.6,7.8-14.5,6.6c-3-0.5-5.7-2-7.9-4.1c-2.5-2.4-5.1-3.7-6.5-7c-1.2-2.8-1.3-5.9-1.4-8.9
	c-0.3-10.7,0.5-23.4,8.4-31.5C-160.1,85.2-159.2,85.1-158.3,84.1z"/>
<path class="st4" d="M-151.3,180c-1.1,4.7-2.2,9.6-0.5,14.1c0.8,2.1,2.2,4,3.7,5.8c2.2,2.7,3.2,4.5,6.4,5.8c6.6,2.6,16-0.2,20.4-5.9
	c4.3-5.6,6-12.8,7.2-19.8c1.5-0.2,2.7-1.4,3.1-2.9c0.5-1.4,0.4-2.9,0.3-4.4c-0.1-1.2-1.2-2.9-2-2.1c0-3,0-6.1-0.9-9s-3.1-5.5-6-6.4
	c1.1,2.5,2.1,5.8,0.2,7.8c-0.2,0.3-0.6,0.5-0.9,0.5c-0.5,0-0.8-0.4-1.1-0.8c-1.2-1.8-1.6-4.1-2.9-5.9s-3.7-3.1-5.6-2
	c-0.8,0.5-1.4,1.4-2.1,2c-0.9,0.8-2.1,1.1-3.2,1.5c-3.6,1.1-10.5,1.6-12.4,5.1c-1.2,2.2-1.4,5.9-2,8.4
	C-150,174.3-151.3,177.4-151.3,180z"/>
<path class="st4" d="M-151.6,205.7c-2,2.2-3.6,3.8-6.5,3.3c-0.4,0.7,0.3,1.5,1,1.9c7.2,4.6,14.9,9.2,23.4,9.8c1.8,0.1,5.6-4.8,7-6
	c-3.6-2.5-6.5-5.7-6.7-10.1c0,0.3-9.9-4-10.7-4.4c-2.5-1.3-2.1-1.5-3.6,0.5C-148.8,202.3-150.2,204-151.6,205.7z"/>
<path class="st0" d="M-169.2,217.3c-2.2,4.7-2.7,10-3.3,15.1c-0.1,0.8-0.1,1.8,0.4,2.4c0.4,0.5,1,0.7,1.6,0.9
	c1.4,0.4,2.8,0.6,4.2,0.6c1,0,1.9-0.7,2.3-1.6c0-0.1,0-0.1,0.1-0.2c0.7-1.6,2.8-1.9,4.1-0.7c3.9,3.8,10.1,5.3,15.2,3.3
	c0.9-0.4,2-0.2,2.7,0.5c2.5,2.3,5.7,3.6,9,3.8c1.2,0.1,2.5-0.2,3.5-0.8c0.9-0.6,2-0.4,2.9,0.2c1.1,0.9,2.6,1.2,3.9,0.8
	c1.9-0.6,3.1-2.6,3.4-4.6c0.3-2-0.2-4-0.6-6c-1.1-4.4-2.3-8.7-3.6-13.1c-0.5-1.7-1.2-3.6-2.8-4.4c-0.3-0.1-0.5-0.2-0.8-0.2
	c-0.5,0-1,0.2-1.5,0.5c-7.1,3.5-15.9,3-22.8-0.8c-3.3-1.8-5.4-5.9-9.2-4.5C-164.6,209.9-167.6,213.7-169.2,217.3z"/>
<path class="st3" d="M-193.1,89.4c0.2-0.1,0.4-0.2,0.7-0.3c14.7-6.9,22.5,14.4,9.7,19.9C-193.6,113.4-205.6,96-193.1,89.4z"/>
<path class="st1" d="M-206.2,99c0,0-16-3.9-23.8,25.4c0,0,9.9,2.1,12.2,2C-217.9,126.4-215.6,100.7-206.2,99z"/>
<path d="M-184,127.2c0,0-8.6,5.1-34.2-0.9c0,0,0.9-24,12-27.4S-178,108.4-184,127.2z"/>
<path class="st4" d="M-218.2,126.3c0,0,18.8,15.4,33.4,15.4c14.5,0,11.1-10.3,0.9-14.5C-184,127.2-206.2,128-218.2,126.3z"/>
<path class="st0" d="M-208.5,95.5c0.6-0.9,1.9-1.3,3-1.3c0.2,0,0.4,0,0.6,0.1c0.2,0.1,0.3,0.2,0.4,0.4c0.5,0.8,0.7,1.9,0.8,2.9
	c0,0.9-0.5,1.3-1.4,1.6c-0.8,0.3-3.2,0.3-3.8-0.6C-209.3,97.9-208.9,96.2-208.5,95.5z"/>
<path d="M-127.4,106.4c0,0-1.7,15.4-10.3,13.7s-6.8-12.8-6.8-12.8l-3.4-0.9c0,0-0.9,10.3-10.3,9.4s-7.7-12.8-7.7-12.8
	s-3.4-3.4,0.9-4.3S-127.4,106.4-127.4,106.4z"/>
<path class="st0" d="M-210,142.5c-0.3,0.1-0.5,0.2-0.8,0.3c-0.6,0.2-1.3,0.1-2,0.1c-0.9-0.1-1.9-0.1-2.7-0.6
	c-0.2-0.1-0.4-0.3-0.4-0.5c0-0.3,0.3-0.6,0.7-0.6c1-0.2,2.1,0,3.1-0.3c0.6-0.2,1.2-0.7,1.8-0.6c0.5,0,1,0.4,1.5,0.6
	c0.8,0.3,1.9,0.4,2.3,1.1c0.2,0.2,0.2,0.6,0.1,0.8C-206.8,143.4-209.2,142.3-210,142.5z"/>
<path class="st0" d="M-193.4,145.3c-0.3,0-0.5,0-0.8,0c-0.7,0-1.3-0.2-1.9-0.4c-0.9-0.3-1.8-0.7-2.5-1.3c-0.1-0.2-0.3-0.3-0.2-0.5
	c0.1-0.3,0.5-0.4,0.8-0.4c1,0.1,2,0.6,3,0.5c0.6,0,1.3-0.3,1.9-0.1c0.5,0.2,0.9,0.6,1.3,0.9c0.7,0.5,1.7,0.9,1.9,1.7
	c0.1,0.3,0,0.6-0.2,0.8C-190.6,147.1-192.6,145.3-193.4,145.3z"/>
<g>
	<path d="M-213.1,149.3c0.2-0.2,0.5-0.5,0.7-0.9c0.7-1.3,1.3-3.1,0.1-4.3c-1.6-1.6-3.1,1-3.3,2.4
		C-215.8,148.3-214.4,150.3-213.1,149.3z"/>
	<path d="M-200,152.2c0.2-0.2,0.5-0.5,0.7-0.9c0.7-1.3,1.3-3.1,0.1-4.3c-1.6-1.6-3.1,1-3.3,2.4C-202.7,151.1-201.3,153.2-200,152.2z
		"/>
</g>
<g>
	<path d="M-139.6,182.1c0.3-0.2,0.6-0.5,0.9-0.9c0.9-1.4,1.9-3.5,0.7-5c-1.7-2.1-3.8,0.8-4.1,2.4
		C-142.6,180.5-141.2,183.1-139.6,182.1z"/>
	<path d="M-127.6,184.2c0.3-0.2,0.6-0.5,0.9-0.9c0.9-1.4,1.9-3.5,0.7-5c-1.7-2.1-3.8,0.8-4.1,2.4
		C-130.7,182.7-129.3,185.2-127.6,184.2z"/>
</g>
<path class="st3" d="M-136.1,197.7c0.5,0.2,0.9,0.3,1.4,0.2c0.4-0.1,0.7-0.3,1-0.6c0.8-0.7,1.5-1.5,2-2.5c0.1-0.3,0.3-0.6,0.2-0.9
	c0-0.4-0.3-0.7-0.5-1c-0.2-0.3-0.5-0.6-0.8-0.7c-0.5-0.3-1.2-0.2-1.7,0.2c-0.5,0.3-0.9,0.8-1.3,1.3c-0.4-1-1.4-1.6-2.4-1.6
	c-1.4,0.1-2.7,1.5-1.8,2.7C-139,196-137.7,197.1-136.1,197.7z"/>
<path class="st6" d="M-233,170.6c0,0-0.7,11.6,2.4,9.5c2.6-1.7,9.6-2.6,9.6-2.6S-233,167.6-233,170.6z"/>
<path class="st6" d="M-204.3,173.8l0.6,4.8c0,0,4.4,1.4,5.1,2.5C-197.7,182.9-196.3,174.5-204.3,173.8z"/>
<path class="st4" d="M-109.2,214.6c-0.1,0-0.1-0.1-0.1-0.1c-4.2,1.5-6.9,5.5-9.3,9.2c-2.2,3.3-6.1,8.7-6.1,12.9c0,5.3,5.7,4,8,0.9
	c2-2.6,3.4-5.6,4.8-8.6c1.3-2.8,2.7-5.7,4-8.5c0.9-1.9,2.5-7.6,3.6-9.4C-105.6,211-107.8,214.9-109.2,214.6z"/>
<g>
	<path class="st1" d="M-103.9,198.6c0,0-2.8-5.6-12.1-0.9c0,0-3.7,13.1,2.8,15c0,0,3.7,2.8,1.9,8.4c0,0-1.9,1.9-2.8,1.9
		c-0.9,0,7.5,0,7.5,0s-2.8-1.9-2.8-4.7c0-2.8,3.7-4.7,4.7-6.5C-103.9,209.8-103.9,198.6-103.9,198.6z"/>
	<path class="st3" d="M-111.7,201.9c-1.8,0-2,0-4.5-0.7c-0.2,0.1-0.4,0.2-0.6,0.3c-0.6,4-0.7,10,3.6,11.2c0,0,0.1,0.1,0.2,0.2
		c0.2,0,0.4,0.1,0.5,0.1c2.4,0.4,5,0.1,7.3-0.7c0.1-0.2,0.2-0.3,0.3-0.5c0.5-1,0.7-8,0.9-11.2c-0.2,0.1-0.3,0.2-0.5,0.2
		C-106.6,201.6-108.7,201.9-111.7,201.9z"/>
	<path class="st7" d="M-110.8,201.9c1.4,0,2.9-0.1,4.2-0.5c0.6-0.1,1.2-0.3,1.8-0.6c0.1-0.1,0.4-0.1,0.6-0.2
		c-0.3-0.1-0.5-0.1-0.8-0.2c-3.5-0.6-8.4-0.4-11.8,0.8C-115,202.3-112.6,201.9-110.8,201.9z"/>
</g>
<path class="st4" d="M-103.3,203c-1.3,0.3-2,2-1.3,3.1c-0.2-0.3-0.4-0.7-0.6-1c-1-0.1-2.1,0.7-2.1,1.7c-0.1,1,0.8,2,1.9,2
	c-1.5-0.1-3.2,0.9-3.4,2.5c-0.2,1.5,1.5,3.1,2.9,2.4c0,0-0.1,0.1-0.1,0.1c1.4,1.5,3.4-0.6,3.9-1.8l1.4-6.6
	C-100.6,204-101.9,202.7-103.3,203z"/>
<path class="st4" d="M-147.7,200.9c0,0,3.2,7.8,14.6,6.4C-133.1,207.3-145.7,205.9-147.7,200.9z"/>
<path class="st8" d="M-149.4,189.6c0.4,0.5,0.9,1,1.7,1.1c1.2,0.3,2.6,0.3,3.5-0.5c0.9-0.8,0.9-2.2,0.8-3.4
	c-0.1-2.7-3.6-3.8-5.4-1.9C-150.1,186.1-150.3,188.2-149.4,189.6z"/>
<path class="st8" d="M-127.4,194.6c0.4,0.5,0.9,1,1.7,1.1c1.2,0.3,2.6,0.3,3.5-0.5c0.9-0.8,0.9-2.2,0.8-3.4
	c-0.1-2.7-3.6-3.8-5.4-1.9C-128.1,191.1-128.3,193.2-127.4,194.6z"/>
<path class="st3" d="M-136.8,151.2c3.3-1.2,6.9-1.3,10.4-0.9c4.4,0.6,8.9,2.1,12.2,5.1c2.7,2.5,4.5,6.2,4.5,9.8
	c0,1.2-1.3,2.1-2.4,1.6c-0.1,0-0.1-0.1-0.2-0.1c-1.1-0.5-2.4,0.2-2.5,1.4c-0.1,0.5-0.1,1-0.2,1.4c-0.1,0.5-0.2,1-0.6,1.4
	c-0.3,0.3-0.8,0.3-1.2,0.3c-2.3-0.1-4.1-2.1-5.5-4c-1.4-1.9-2.9-3.9-5.2-4.4c0.6,0.8,1.1,1.7,1.3,2.7s-0.2,2.2-1,2.7
	c-1.2,0.7-2.7-0.2-3.8-1c-1.9-1.4-3.7-2.8-5.6-4.2c-0.4-0.3-0.7-0.6-1.2-0.7c-0.4-0.1-0.8-0.2-1.2-0.1c-4,0.3-6.6,5.9-10.6,5.2
	c-0.5-0.1-1-0.3-1.2-0.7c-0.2-0.3-0.3-0.7-0.3-1.1c0.1-2.6,2.3-4.6,3.6-6.6C-145.2,155.6-140.7,152.6-136.8,151.2z"/>
<path class="st9" d="M-147.5,200.8c0,0,2.7,7.9,14.3,5.8C-133.2,206.6-141.7,207.6-147.5,200.8z"/>
<path class="st6" d="M-216.7,183.8c-0.5,0.3-1.4,0-1.5-0.6c-0.1-0.4,0.2-1.2,0.5-1.5c0.8-0.8,1.6,0.4,1.5,1.3
	C-216.3,183.4-216.4,183.7-216.7,183.8z"/>
<path class="st6" d="M-213.1,187.8c-0.5,0.3-1.4,0-1.5-0.6c-0.1-0.4-0.1-0.9,0.2-1.2c0.8-0.8,1.9,0.1,1.7,1.1
	C-212.7,187.3-212.9,187.6-213.1,187.8z"/>
<path class="st1" d="M151.7,124.4c0,0,0,7.9-3.4,10.5c0,0,4.8,10.3,16.8,9.5c12-0.9,10.2-4.5,10.2-4.5s-1.3-10.1,0.4-12.7
	C175.6,127.2,161.1,127.5,151.7,124.4z"/>
<path class="st1" d="M127.3,175c1.5-0.4,3.1,1,3,2.5c-0.2,1.5-2.1,2.5-3.4,1.8c-0.3,1.3-0.6,2.6-0.9,3.9c-0.1,0.6-0.3,1.3-0.8,1.6
	c-0.5,0.3-1.4,0-1.3-0.6c-0.3,0.5-0.6,1.1-1,1.6c-1.4-0.3-2.3-1.7-2.7-3.1c-1.8-6.2,1.5-12.5,2.9-18.8c0.4-2,0.7-4.1,1.3-6.1
	c1.4-4.2,7.2-12.2,7.3-10.7c4.9,4.3,4.1,6.3,1.8,11.7C132.6,160.9,128.9,174.6,127.3,175z"/>
<path class="st1" d="M202.3,93.8c-0.4-3.8,3.4-7.1,3-10.9c-0.1-0.8-1-0.3-1.9,0.7c0-0.2,0-0.3,0-0.5c0-1-0.8-2.4-1.8-2
	c-0.3,0.1-0.5,0.4-0.6,0.6c-0.2,0.4-0.5,0.7-0.8,1.1c0.4-1.4,0.3-2.7-1-2.8c-1.8,1.8-2.8,4.4-2.8,7c-1-2.1-3.8-3-5.8-2.1
	c-0.4,1.9,2.1,3,3.5,4.3c1.1,1,1.7,2.5,2.2,3.9c2.6,7.4,2.3,16.1,0.6,23.8c-0.5,2.3-6.9,17.1,1.2,16.1c1.4-0.2,2.4-1.4,3.1-2.6
	c4.4-7.4,6.4-16.2,4.6-24.6C204.8,102.2,202.7,98.2,202.3,93.8z"/>
<path class="st1" d="M74.3,139.8c-1-0.5-2-0.8-3.1-0.7c-2.8,0.3-3.8,3.1-4.1,5.5c-0.2,2-0.2,4.1-1.2,5.8c-0.4,0.6-0.9,1.3-0.9,2
	c0,0.4,0.2,0.9,0.2,1.3c0.2,1.1-0.4,2.2-0.9,3.2c-1.5,3.4-1.8,7.1-2.1,10.8c-0.1,1.3-0.2,2.6,0.2,3.8c0.4,1.3,1.4,2.3,1.9,3.5
	c0.7,1.7,0.8,3.7,2.3,5c0.8,0.6,1.9,0.7,2.7,0.1c0.7-0.6,0.6-1.5,0.5-2.2c-0.9-4-3.9-7.9-2.8-11.9c1.4,4,2.8,8.1,4.1,12.1
	c0.1,0.4,0.3,0.8,0.6,1.1c0.3,0.2,0.6,0.3,0.9,0.4c4.5,0.9,9.4-1.8,11-6.1c0.7-1.9,0.8-4,0.9-6c0.1-2.1,0.1-4.2-0.7-6.1
	c-0.8-2-2.4-3.2-4-4.5c-3-2.5-2.2-1.4-0.7-4.5C81.7,147.8,78.4,142,74.3,139.8z"/>
<path class="st2" d="M139.4,137.1c-2.5,1-5,2.3-7,4.2c-2.1,2-3.4,4.7-3.6,7.6c-0.4,5.1,3.8,0.7,5.9,6.6c0.1,0.3,0.4,0.4,0.6,0.2
	c1.1-1.1,2.1-2.4,3-3.7c0.2-0.4,0.8-0.1,0.7,0.3c-2.2,8.3-1.5,17.3-0.8,26l0.8,9.9c0,0.2,0.2,0.4,0.4,0.3l7.6-1.5
	c3.2-0.6,6.5-1.3,9.8-1.1c2.7,0.1,5.3,0.7,7.9,0.8c2.7,0.1,5.5-0.4,7.5-2.2c1.5-1.4,2.3-3.4,3-5.3c3-8.4,4.7-17.3,5.2-26.2
	c0-0.2,0.2-0.4,0.4-0.3c2.8,0.5,5.6-1.5,7.9-3.4c5.2-4.3,10.5-10.1,12-16.7c0.1-0.2-0.1-0.4-0.4-0.5c-3.1-0.1-5.4-1.7-6.3-4.6
	c-0.1-0.3-0.4-0.4-0.6-0.2c-4,3.5-8.3,7-12.3,10.6c-0.7,0.7-5.1,1.4-5.9,2c-4.5,3.1-10.4,5.2-18.4,1.2c-3.2-1.6-6.1-5.4-6.9-6.6
	C147.7,131.4,142.5,135.8,139.4,137.1z"/>
<path class="st3" d="M211.2,180.7c0.5-0.8,0.8-1.9,0.1-2.5c-0.4-0.4-1.1-0.3-1.6-0.5c-1.5-0.6-1.3-2.8-0.5-4.3s1.7-3.2,0.8-4.6
	c-2.1-0.3-3.1-2.9-3.1-5s0.5-4.5-0.6-6.4c-0.8-1.4-2.4-2.3-3.1-3.8c-0.5-1.1-0.5-2.4-0.9-3.5c-0.4-1.3-1.4-2.3-2.3-3.2
	c-3-3.1-6.6-5.9-10.8-7.1s-9-0.8-12.3,2c-1.7,1.5-3,3.5-5,4.5c-2.1,1-5.1,1-6.2,3c-0.8,1.4-0.4,3.2-1,4.7c-0.5,1.3-1.8,2.1-2.8,3
	c-4.3,3.7-6.3,9.8-4.9,15.3c1,4,3.5,7.7,3.2,11.8c-0.1,1.6-0.6,3.7,0.7,4.6c0.4,0.3,1,0.4,1.5,0.4c3.3-0.3,4.4-4.9,7.6-6
	c2.8-1,5.6,1.3,7.4,3.6s3.7,5,6.6,5.4c2.6,0.4,5.1-1.3,7.3-2.6c1.7-1,4-2.1,6.1-1.6c1.8,0.5,2.8,2.8,4.6,2.7
	C205.2,190.5,209.8,183.2,211.2,180.7z"/>
<path class="st1" d="M144.6,107.9c-0.9,9.2,4.7,7.6,4.7,13.3c0,1.8,0,3.7,1,5.2c0.5,0.6,1.1,1.1,1.8,1.6c1.6,1.2,3.1,2.3,4.7,3.5
	c3.4,2.5,7.2,5.1,11.4,4.9c3.3-0.2,6.4-2.2,8.4-4.8c2.1-2.6,3.8-5.7,4.3-8.9c1.5-8.5,1.8-12.6,4.2-27.2c0.1-0.7-3-1-3.5-1.5
	c-0.6-0.6-1.4-0.8-2.2-0.9c-3.1-0.7-6.5-1.4-9.5-0.3c-1.6,0.6-3,1.8-4.7,1.9c-2.5,0.2-4.5-1.8-6.9-2.6c-2.7-0.9-5.8,0-7.7,2.2
	c-1.7,1.9-1.4,5.7-1.6,6.1C147.1,104.6,145,103.9,144.6,107.9z"/>
<path class="st3" d="M83,130.3c-0.2,3-0.3,6.4,1.5,8.8c-1.7,4.8-2.4,10-2,15.1c0.5,6.3,7.9,15.6-0.5,18.6c6.4-0.1,12.3,3.7,16.2,8.7
	c3.9,5,6.2,11.1,8.4,17.1c1.3-8.1,17.1-21.2,9.3-23.7c-1.4-0.5-5.6-2.2-5.3-3.2c1.1-3.5,8.3-3.9,10.2-7c0.9-1.5,1.1-3.3,1.3-5.1
	c0.7-6.3,4.2-12.2,6.4-18.1c-6.3-3.7-12.6-7.3-19-11c-2-1.2-4-2.3-6.2-3c-2.5-0.8-3.8-4.3-6.4-4.8C91.1,121.4,83.7,121.1,83,130.3z"
	/>
<path class="st0" d="M87.5,124.6c0,0-7.7,24.8-5.1,31.7c2.6,6.8,7.7,10.3,11.1,12.8c3.4,2.6,5.1,2.6,8.6,5.1s9.4,0.9,12-0.9
	c2.6-1.7,2.8-2.2,5.2-5.1c1.4-1.8,2.8-5.6,2.8-5.6s-2.2,1.7-3,0s-0.3-4.1-8-5s-5.5,3.8-9.8,3.8s-9.4-2.6-11.1-7.7s6-29.1,4.3-29.9
	S87.5,124.6,87.5,124.6z"/>
<path class="st4" d="M79.8,207.7c-1.2,0.2-3.7,0.9-7.8,3.3c-0.5,0.3-1.2,0-1.4-0.6c-1.5-5.6-7.4-29,0.7-34.4
	c4.7-3.1,10.6-5.1,13-5.8c0.5-0.1,0.9,0.1,1.1,0.6c0.4,1.1,2.3,3,9.4,6.1c3,1.2,9,5.8,11,9.2c0.3,0.6,1.1,0.7,1.5,0.2
	c2-2.2,6.3-7.2,6.6-8.6c1-4,8.6-4.3,12.8,3.4c3.6,6.5,6,12.4,6.7,14.1c0.1,0.3,0.1,0.6-0.1,0.9c-1,1.3-3.9,5.6-4.2,9.1
	c-0.1,0.8-1,1.2-1.6,0.6l-5.8-5.8c-0.6-0.6-1.7-0.2-1.6,0.7c0.3,6.9,0.8,26.1-2.7,27.5c-4.3,1.7-34.2-4.3-35.9-5.1
	c-1.7-0.9,1.7-24.8,0-28.2c-1.5-2.9-1,8.6-0.9,11.9C80.6,207.2,80.3,207.6,79.8,207.7z"/>
<path class="st3" d="M129.4,207.6c0,0,3.2,2.7,9.4,2.6c6.8-0.2,23.2-6.8,29.2-8.5s11.9-6.9,10.2-6.9s-3.4-0.9-9.4,1.7
	c0,0,11.1-7.7,6-6s-9.4,3.4-9.4,3.4s8.6-6,5.1-5.1c-3.4,0.9-8.6,4.3-8.6,4.3s-2.6-3.4-3.4-2.6s0.9,3.4,0.9,3.4s-16.3,6.8-18,6.8
	s-5.1-3.4-7.7-5.1S125.1,203.3,129.4,207.6z"/>
<path class="st3" d="M70.6,210.9c0,0,0.5,5.5,6.4,7.3c5.9,1.9,22.6,4.7,28.5,6.6c5.9,1.9,4.6,1.5,6.3,1.6c1.6,0.1,4.1-1.8-2.3-3
	c0,0,4.1,0.7,3.8-2c-0.2-1.7-4.9-1.4-4.9-1.4s7.8-0.4,3.9-2.4c-3.1-1.6-6.2-0.8-6.2-0.8s1.1-4.1-1.9-4c-1.2,0-1.2,3.3-1.2,3.3
	s-17.3-3.3-18.8-4.2c-1.4-0.9-2.7-5.4-3.9-8.3C79.2,200.7,69.4,204.9,70.6,210.9z"/>
<path class="st5" d="M153.7,86.7c1.9-2.6,4.9-4.2,8.1-4.5c-0.3,0.7-0.6,1.5-0.9,2.2c3.8-2.4,8.9-2.4,12.7,0c2.4,1.5,5,4,7.5,2.7
	c0,1.9,1.6,3.2,3,4.5c1.4,1.4,2.7,3.8,1,5.2c-0.9,0.8-2.1,0.9-3.2,0.5c-3.3-1.3-6.9-3.5-10.4-2.7c-2.9,0.7-6.1,3.4-8.5,1.5
	c-0.4-0.3-0.7-0.7-1.1-1c-0.8-0.5-1.8-0.4-2.7-0.3c-2.5,0.2-5.1-0.2-7.5-1.1c-2.4,4.4-2.3,9.7-1.9,14.7c0.3,3.2,0.6,6.5,2,9.4
	c1.4,2.9,4,5.4,7.2,5.9c1.5,0.2,3.2,0,4.5-0.8c0.8-0.5,1.5-1.3,2.4-1.8c2.7-1.8,6.2-1.4,9.3-0.9c2.6,0.2,3.5,3,6,1.3
	c0.2,3.2-0.8,5.5-2,7.2c-3.4,5.2-6.6,8.7-13.5,8.4c-3-0.1-5.9-1.3-8.3-3.1c-2.8-2.1-5.5-3-7.3-6.1c-1.5-2.6-2-5.7-2.5-8.6
	c-1.7-10.5-2.4-23.3,4.4-32.3C152.1,88.1,152.9,87.8,153.7,86.7z"/>
<path class="st4" d="M164.4,180.9c-0.4,4.8-0.8,9.8,1.6,14c1.1,2,2.8,3.7,4.5,5.2c2.6,2.3,3.8,4,7.2,4.8c6.9,1.7,15.8-2.5,19.3-8.7
	c3.5-6.2,4.1-13.6,4.3-20.7c1.4-0.4,2.4-1.8,2.7-3.3c0.3-1.5,0-3-0.3-4.4c-0.2-1.2-1.6-2.7-2.3-1.8c-0.4-3-0.8-6.1-2.2-8.8
	c-1.4-2.7-3.8-5-6.8-5.4c1.5,2.4,2.9,5.5,1.3,7.7c-0.2,0.3-0.5,0.6-0.8,0.6c-0.5,0.1-0.9-0.3-1.2-0.7c-1.4-1.7-2.2-3.8-3.7-5.4
	c-1.5-1.6-4.1-2.6-5.8-1.2c-0.8,0.6-1.2,1.6-1.8,2.3c-0.8,0.9-1.9,1.4-3,1.9c-3.4,1.6-10.1,3.1-11.5,6.8c-0.9,2.4-0.5,6-0.8,8.6
	C164.9,175,164,178.3,164.4,180.9z"/>
<path class="st4" d="M166,205.7c-2,2.2-3.6,3.8-6.5,3.3c-0.4,0.7,0.3,1.5,1,1.9c7.2,4.6,14.9,9.2,23.4,9.8c1.8,0.1,5.6-4.8,7-6
	c-3.6-2.5-6.5-5.7-6.7-10.1c0,0.3-9.9-4-10.7-4.4c-2.5-1.3-2.1-1.5-3.6,0.5C168.8,202.3,167.4,204,166,205.7z"/>
<path class="st0" d="M148.4,217.3c-2.2,4.7-2.7,10-3.3,15.1c-0.1,0.8-0.1,1.8,0.4,2.4c0.4,0.5,1,0.7,1.6,0.9
	c1.4,0.4,2.8,0.6,4.2,0.6c1,0,1.9-0.7,2.3-1.6c0-0.1,0-0.1,0.1-0.2c0.7-1.6,2.8-1.9,4.1-0.7c3.9,3.8,10.1,5.3,15.2,3.3
	c0.9-0.4,2-0.2,2.7,0.5c2.5,2.3,5.7,3.6,9,3.8c1.2,0.1,2.5-0.2,3.5-0.8c0.9-0.6,2-0.4,2.9,0.2c1.1,0.9,2.6,1.2,3.9,0.8
	c1.9-0.6,3.1-2.6,3.4-4.6c0.3-2-0.2-4-0.6-6c-1.1-4.4-2.3-8.7-3.6-13.1c-0.5-1.7-1.2-3.6-2.8-4.4c-0.3-0.1-0.5-0.2-0.8-0.2
	c-0.5,0-1,0.2-1.5,0.5c-7.1,3.5-15.9,3-22.8-0.8c-3.3-1.8-5.4-5.9-9.2-4.5C153.1,209.9,150.1,213.7,148.4,217.3z"/>
<path class="st3" d="M124.5,89.4c0.2-0.1,0.4-0.2,0.7-0.3c14.7-6.9,22.5,14.4,9.7,19.9C124.1,113.4,112.1,96,124.5,89.4z"/>
<path class="st1" d="M111.4,99c0,0-16-3.9-23.8,25.4c0,0,9.9,2.1,12.2,2C99.8,126.4,102,100.7,111.4,99z"/>
<path d="M133.7,127.2c0,0-8.6,5.1-34.2-0.9c0,0,0.9-24,12-27.4S139.7,108.4,133.7,127.2z"/>
<path class="st4" d="M99.5,126.3c0,0,18.8,15.4,33.4,15.4s11.1-10.3,0.9-14.5C133.7,127.2,111.4,128,99.5,126.3z"/>
<path class="st0" d="M109.1,95.5c0.6-0.9,1.9-1.3,3-1.3c0.2,0,0.4,0,0.6,0.1c0.2,0.1,0.3,0.2,0.4,0.4c0.5,0.8,0.7,1.9,0.8,2.9
	c0,0.9-0.5,1.3-1.4,1.6c-0.8,0.3-3.2,0.3-3.8-0.6C108.3,97.9,108.7,96.2,109.1,95.5z"/>
<path d="M187.2,104.9c0,0,0.2,15.5-8.5,14.9s-8.4-11.9-8.4-11.9l-3.5-0.4c0,0,0.4,10.3-9,10.6c-9.4,0.3-9.2-11.8-9.2-11.8
	s-3.8-3,0.3-4.4S187.2,104.9,187.2,104.9z"/>
<path class="st0" d="M107.6,142.5c-0.3,0.1-0.5,0.2-0.8,0.3c-0.6,0.2-1.3,0.1-2,0.1c-0.9-0.1-1.9-0.1-2.7-0.6
	c-0.2-0.1-0.4-0.3-0.4-0.5c0-0.3,0.3-0.6,0.7-0.6c1-0.2,2.1,0,3.1-0.3c0.6-0.2,1.2-0.7,1.8-0.6c0.5,0,1,0.4,1.5,0.6
	c0.8,0.3,1.9,0.4,2.3,1.1c0.2,0.2,0.2,0.6,0.1,0.8C110.9,143.4,108.5,142.3,107.6,142.5z"/>
<path class="st0" d="M124.2,145.3c-0.3,0-0.5,0-0.8,0c-0.7,0-1.3-0.2-1.9-0.4c-0.9-0.3-1.8-0.7-2.5-1.3c-0.1-0.2-0.3-0.3-0.2-0.5
	c0.1-0.3,0.5-0.4,0.8-0.4c1,0.1,2,0.6,3,0.5c0.6,0,1.3-0.3,1.9-0.1c0.5,0.2,0.9,0.6,1.3,0.9c0.7,0.5,1.7,0.9,1.9,1.7
	c0.1,0.3,0,0.6-0.2,0.8C127.1,147.1,125,145.3,124.2,145.3z"/>
<g>
	<path d="M107.5,151c0.2-0.2,0.5-0.5,0.7-0.9c0.7-1.3,1.3-3.1,0.1-4.3c-1.6-1.6-3.1,1-3.3,2.4C104.8,149.9,106.2,152,107.5,151z"/>
	<path d="M120.6,153.8c0.2-0.2,0.5-0.5,0.7-0.9c0.7-1.3,1.3-3.1,0.1-4.3c-1.6-1.6-3.1,1-3.3,2.4
		C117.9,152.8,119.4,154.8,120.6,153.8z"/>
</g>
<g>
	<path d="M176.3,181.3c0.3-0.2,0.5-0.6,0.7-1c0.7-1.5,1.4-3.7-0.1-5c-2-1.8-3.6,1.3-3.7,2.9C173.1,180.2,174.8,182.5,176.3,181.3z"
		/>
	<path d="M188.4,181.7c0.3-0.2,0.5-0.6,0.7-1c0.7-1.5,1.4-3.7-0.1-5c-2-1.8-3.6,1.3-3.7,2.9C185.2,180.5,187,182.9,188.4,181.7z"/>
</g>
<path class="st3" d="M181.9,196.2c0.5,0.1,1,0.2,1.4,0c0.4-0.1,0.7-0.4,0.9-0.7c0.7-0.8,1.3-1.7,1.6-2.7c0.1-0.3,0.2-0.6,0.1-1
	c-0.1-0.4-0.4-0.7-0.7-0.9c-0.3-0.2-0.5-0.5-0.9-0.6c-0.6-0.2-1.2,0-1.7,0.4c-0.5,0.4-0.8,0.9-1.1,1.4c-0.5-0.9-1.6-1.4-2.6-1.2
	c-1.4,0.3-2.5,1.8-1.4,2.9C178.9,195,180.3,195.8,181.9,196.2z"/>
<path class="st6" d="M84.7,170.6c0,0-0.7,11.6,2.4,9.5c2.6-1.7,9.6-2.6,9.6-2.6S84.7,167.6,84.7,170.6z"/>
<path class="st6" d="M113.3,173.8l0.6,4.8c0,0,4.4,1.4,5.1,2.5C119.9,182.9,121.3,174.5,113.3,173.8z"/>
<path class="st4" d="M208.5,214.6c-0.1,0-0.1-0.1-0.1-0.1c-4.2,1.5-6.9,5.5-9.3,9.2c-2.2,3.3-6.1,8.7-6.1,12.9c0,5.3,5.7,4,8,0.9
	c2-2.6,3.4-5.6,4.8-8.6c1.3-2.8,2.7-5.7,4-8.5c0.9-1.9,2.5-7.6,3.6-9.4C212,211,209.9,214.9,208.5,214.6z"/>
<g>
	<path class="st1" d="M216.3,200.2c0,0-1.3-6.1-11.5-3.9c0,0-6.9,11.7-1,15.2c0,0,2.9,3.6-0.3,8.6c0,0-2.3,1.3-3.2,1.1
		c-0.9-0.2,7.2,1.9,7.2,1.9s-2.2-2.5-1.5-5.2s4.8-3.6,6.2-5.2C213.5,211.1,216.3,200.2,216.3,200.2z"/>
	<path class="st3" d="M207.9,201.4c-1.7-0.4-1.9-0.5-4.1-1.8c-0.2,0-0.4,0.1-0.7,0.1c-1.6,3.7-3.2,9.5,0.7,11.7c0,0,0.1,0.1,0.1,0.2
		c0.2,0.1,0.3,0.2,0.5,0.3c2.2,1,4.8,1.4,7.3,1.2c0.2-0.1,0.3-0.3,0.5-0.4c0.8-0.9,2.7-7.5,3.6-10.7c-0.2,0-0.3,0.1-0.5,0.1
		C212.9,202.4,210.8,202.2,207.9,201.4z"/>
	<path class="st7" d="M208.8,201.7c1.4,0.3,2.8,0.6,4.2,0.6c0.6,0,1.3,0,1.9-0.1c0.2,0,0.4,0,0.6-0.1c-0.2-0.1-0.5-0.2-0.7-0.3
		c-3.2-1.5-8-2.4-11.7-2.2C204.6,201,207,201.2,208.8,201.7z"/>
</g>
<path class="st4" d="M215.7,204.6c-1.3-0.1-2.4,1.4-2,2.7c-0.1-0.4-0.2-0.8-0.4-1.1c-1-0.4-2.2,0.2-2.5,1.2c-0.3,1,0.3,2.2,1.3,2.4
	c-1.5-0.5-3.3,0.1-3.9,1.5c-0.6,1.4,0.7,3.3,2.2,3c0,0-0.1,0.1-0.1,0.1c0.9,1.8,3.5,0.2,4.2-0.8l3-6
	C218.1,206.3,217.2,204.7,215.7,204.6z"/>
<path class="st4" d="M169.9,200.9c0,0,3.2,7.8,14.6,6.4C184.5,207.3,171.9,205.9,169.9,200.9z"/>
<path class="st8" d="M167.7,190.1c0.5,0.5,1.1,0.8,1.9,0.9c1.2,0.1,2.6,0,3.4-1c0.7-1,0.5-2.3,0.3-3.5c-0.5-2.6-4.1-3.2-5.6-1.2
	C166.5,186.8,166.6,188.9,167.7,190.1z"/>
<path class="st8" d="M190.2,191.8c0.5,0.5,1.1,0.8,1.9,0.9c1.2,0.1,2.6,0,3.4-1c0.7-1,0.5-2.3,0.3-3.5c-0.5-2.6-4.1-3.2-5.6-1.2
	C189,188.6,189,190.7,190.2,191.8z"/>
<path class="st3" d="M174.6,150.3c3.1-1.6,6.7-2.3,10.2-2.3c4.5-0.1,9.1,0.8,12.8,3.3c3.1,2.1,5.4,5.5,5.9,9.1
	c0.2,1.2-1,2.3-2.2,1.9c-0.1,0-0.1,0-0.2-0.1c-1.2-0.3-2.4,0.5-2.3,1.7c0,0.5,0,1,0,1.4c0,0.5,0,1.1-0.4,1.4
	c-0.3,0.3-0.7,0.4-1.2,0.5c-2.3,0.2-4.3-1.5-6-3.1s-3.5-3.5-5.8-3.6c0.7,0.8,1.4,1.5,1.7,2.5c0.3,1,0.2,2.2-0.6,2.8
	c-1.1,0.8-2.7,0.2-3.9-0.5c-2-1.1-4.1-2.2-6.1-3.3c-0.4-0.2-0.8-0.4-1.3-0.5c-0.4-0.1-0.8-0.1-1.2,0c-4,0.9-5.7,6.8-9.7,6.7
	c-0.5,0-1-0.1-1.3-0.5c-0.3-0.3-0.4-0.7-0.4-1.1c-0.3-2.6,1.6-4.9,2.6-7.1C166.9,155.8,170.9,152.3,174.6,150.3z"/>
<path class="st9" d="M171.1,200.9c0,0,3.8,7.4,15,3.7C186.1,204.6,177.8,206.8,171.1,200.9z"/>
<path class="st6" d="M100.9,183.8c-0.5,0.3-1.4,0-1.5-0.6c-0.1-0.4,0.2-1.2,0.5-1.5c0.8-0.8,1.6,0.4,1.5,1.3
	C101.3,183.4,101.2,183.7,100.9,183.8z"/>
<path class="st6" d="M104.5,187.8c-0.5,0.3-1.4,0-1.5-0.6c-0.1-0.4-0.1-0.9,0.2-1.2c0.8-0.8,1.9,0.1,1.7,1.1
	C104.9,187.3,104.8,187.6,104.5,187.8z"/>
</svg>
