<?xml version="1.0" encoding="utf-8"?>
<!-- Generator: Adobe Illustrator 22.1.0, SVG Export Plug-In . SVG Version: 6.00 Build 0)  -->
<svg version="1.1" id="Capa_1" xmlns="http://www.w3.org/2000/svg" xmlns:xlink="http://www.w3.org/1999/xlink" x="0px" y="0px"
	 viewBox="0 0 297.6 297.6" style="enable-background:new 0 0 297.6 297.6;" xml:space="preserve">
<style type="text/css">
	.st0{fill:#73BECB;}
	.st1{fill:#08984B;}
	.st2{fill:#F9483B;}
	.st3{fill:#F193BE;}
	.st4{fill:#F7F5F5;}
	.st5{fill:#FFFFFF;}
	.st6{fill:none;stroke:#DEE0E0;stroke-width:0.25;stroke-linecap:round;stroke-linejoin:round;stroke-miterlimit:10;}
	.st7{fill:none;stroke:#407484;stroke-width:0.25;stroke-linecap:round;stroke-linejoin:round;stroke-miterlimit:10;}
</style>
<g>
	<path d="M-209.3,86.7c0,0,56-2.7,63.2-1.8s15.1-0.9,16,18.7s3.6,120.1-14.2,127.2s-67.6,1.8-72-0.9c-4.4-2.7-4.4-11.6-4.4-24.9
		c0-13.3,0.9-105.8,1.8-110.3C-218,90.2-214.6,86.7-209.3,86.7z"/>
	<path class="st0" d="M-207.5,90.4c0,0,52.7-2.5,59.4-1.7s14.2-0.8,15.1,17.6s3.3,113-13.4,119.7s-63.6,1.7-67.8-0.8
		c-4.2-2.5-4.2-10.9-4.2-23.4s0.8-99.6,1.7-103.8C-215.8,93.8-212.5,90.4-207.5,90.4z"/>
	<path d="M-220.6,189.4c0,0-6,3.6-3.4,10.7c2.6,7.1,17.8,29.4,40.9,28.5s45.4-13.3,56-25.8s31.1-47.1,8-108.5s-36.5-12.5-36.5-12.5
		l2,1.6c0,0,13.1-41.7,31.8,11.7s8.9,118.3-53.4,128.1C-175,223.2-214.4,223.2-220.6,189.4z"/>
	<path d="M-158.3,85.3c0,0,0.2-2.7,2.9-3.6s3.1,3.7,3.1,3.7L-158.3,85.3z"/>
	<path class="st1" d="M-226.6,122.7c-0.7,1.1-1.3,2.2-1.8,3.4c-0.5,1.1-0.7,2.4-0.6,3.7c0.1,3.1,1.6,6.2,4,8.1
		c2.4,1.9,5.8,2.6,8.8,1.6c1.6-0.5,2.9-1.5,4.1-2.6c2.1-2,3.6-4.7,3.8-7.7c0.3-5.6-4.5-12.9-10.7-11.6c-2,0.4-3.9,1.6-5.5,2.9
		C-225.3,121.1-226,121.8-226.6,122.7z"/>
	<path d="M-221.6,122.3c0,0-1.9,13.2,0.6,12.9c2.6-0.3,9-5.5,8.4-6.4C-213.2,127.7-221.9,118.4-221.6,122.3z"/>
	<path class="st2" d="M-223.9,157.8c0.3,0,2.4-5.2,3.7-5.3c1.3,0,1.3,5.4,1.3,5.4s4.5,0.5,4.8,0.6s-4.1,2.8-4.1,2.8s1.7,4.6,0.4,4.6
		s-4.4-3.6-4.4-3.6s-2.7,3.8-3.6,3.1c-0.9-0.7,0.9-4.7,0.9-4.7S-233,157-223.9,157.8z"/>
	<path class="st3" d="M-219,211c0.4,0,0.8-0.3,1.4-0.8c0.7-0.7,1.4-1.4,2.1-2c0.3-0.3,0.6-0.6,0.5-1c0-0.3-0.2-0.5-0.4-0.7
		c-1-1.1-1.9-2.3-2.6-3.7c-0.3-0.6-0.6-1.4-0.1-1.8c0.3-0.3,0.7-0.3,1.1-0.3c4,0,8,0.1,12.1,0.2c0.2,0,0.5,0,0.7,0.2
		s0.3,0.5,0.3,0.8c0.4,4.6-0.5,9.4-2.6,13.5c-0.2,0.4-0.4,0.7-0.7,0.9c-0.4,0.2-0.9,0.2-1.3,0.1c-1.3-0.2-2.5-0.9-3.5-1.8
		c-1.6,2.9-4.9,4.8-8.2,4.7c-1.3,0-2.6-0.3-3.5-1.1c-1.2-1-1.8-2.7-2-4.2c-0.3-1.6-0.9-5.1,1.6-5.3c1.1-0.1,2.2,0.6,3.1,1.2
		C-220.1,210.6-219.6,211-219,211z"/>
	<path class="st2" d="M-140.7,211.8c-1.4-2-3.6-3.2-6-4c-1.6-0.6-3.3-0.9-5-0.7c-2.7,0.4-4.9,2.2-6.7,4.4c-0.1,0.2-0.4,0.1-0.5,0
		c0-0.1-0.1-0.1-0.1-0.2c-2.5-3.8-8.4-3.2-10.2,0.9c-0.1,0.3-0.2,0.5-0.3,0.8c-0.7,1.7-1.2,3.6-0.7,5.4c0.6,2,2.5,3.2,4.2,4.3
		c3.8,2.4,7.7,4.8,11.5,7.2c1.1,0.7,2.3,1.3,3.6,1.1c0.9-0.2,1.6-0.7,2.3-1.2c2.9-2.2,5.8-4.5,7.7-7.6
		C-139.2,219-138.7,214.8-140.7,211.8z"/>
	<path class="st2" d="M-195.5,121.8c0.9,16.9,10.4,23.1,23.1,23.1s23.1-10.4,23.1-23.1s-6.2-23.1-23.1-23.1
		C-185.1,98.7-196.1,109-195.5,121.8z"/>
	<g>
		<path class="st4" d="M-181.6,146.9c-3.1-1-6.1,2-4.8,5.1c0.6,1.3,1.9,2.3,3.4,1.9c1.5-0.4,2.2-2,1.8-3.4c0-0.1-0.2-0.2-0.3-0.2
			c-0.7,0-1.8-0.3-2.3,0.1c-0.1,0.1-0.2,0.2-0.2,0.4v0.1c0,0.1,0.2,0.2,0.3,0.2h0.1c0.4,0,0.4-0.6,0-0.7c0,0.5,0.2,0.6,0.6,0.5
			c0.3,0,0.6,0,1,0c0.7,0.6-0.2,1.8-0.7,2.1c-1.3,0.9-2.9-0.3-3.3-1.6c-0.8-2.6,1.6-4.7,4.1-3.9C-181.4,147.7-181.2,147-181.6,146.9
			L-181.6,146.9z"/>
	</g>
	<g>
		<path class="st4" d="M-177,146.7c-2.1,0.2-3.4,2.4-3.1,4.5c0.3,1.7,2.6,2.6,4.1,2.2c3.7-0.8,1.9-8.4-2.1-6.4
			c-0.4,0.2,0,0.8,0.3,0.6c3.1-1.6,4.4,4.7,1.4,5.2c-1.3,0.2-3-0.5-3.2-1.9c-0.1-1.5,0.8-3.3,2.4-3.4
			C-176.6,147.3-176.6,146.7-177,146.7L-177,146.7z"/>
	</g>
	<g>
		<path class="st4" d="M-169.8,146.7c-1.7,0.4-2.7,1.8-2.8,3.6c-0.1,1.9,1.5,3,3.3,2.8c1.6-0.2,2.9-1.8,2.7-3.4
			c-0.1-1.8-2-2.8-3.6-2.6c-0.4,0-0.4,0.7,0,0.7c1-0.1,2.1,0.3,2.7,1.2c1,1.5-0.5,3.5-2.2,3.6c-3.4,0.1-2.6-4.5,0.1-5.1
			C-169.2,147.3-169.4,146.6-169.8,146.7L-169.8,146.7z"/>
	</g>
	<g>
		<path class="st4" d="M-165.3,147.8c0.1,1.2,0.2,2.5,0.3,3.7c0,0.5-0.1,1.6,0.5,1.9c0.5,0.3,1.3-0.1,1.8-0.3
			c0.8-0.3,1.6-0.8,2.1-1.5c0.9-1.1,1-2.9-0.2-3.9c-1.3-1.1-3.4-1.1-4.8-0.3c-0.4,0.2,0,0.8,0.3,0.6c1.1-0.6,2.7-0.7,3.7,0
			c1.4,0.9,0.9,2.8-0.2,3.7c-0.4,0.4-1.2,0.8-1.7,0.9c-0.9,0.2-1-0.7-1-1.4c-0.1-1.2-0.2-2.3-0.3-3.5
			C-164.7,147.4-165.4,147.4-165.3,147.8L-165.3,147.8z"/>
	</g>
	<g>
		<path class="st4" d="M-186.3,156.5c0.8,0.9,1.6,1.8,2.3,2.8c0.4,0.4,0.9,1.3,1.5,1c0.6-0.2,0.7-0.9,0.8-1.4
			c0.3-1.1,0.6-2.3,0.9-3.4c0.1-0.4-0.5-0.6-0.6-0.2c-0.2,0.7-0.4,1.5-0.6,2.2c-0.1,0.5-0.3,1.7-0.8,1.9c-0.5,0.1-1.2-1-1.6-1.5
			c-0.5-0.6-1-1.2-1.6-1.8C-186.1,155.7-186.6,156.1-186.3,156.5L-186.3,156.5z"/>
	</g>
	<g>
		<path class="st4" d="M-179.3,156.2c0.1,1.3,0.2,2.6,0.2,3.9c0,0.4,0.7,0.4,0.7,0c-0.1-1.3-0.2-2.6-0.2-3.9
			C-178.6,155.7-179.3,155.7-179.3,156.2L-179.3,156.2z"/>
	</g>
	<g>
		<path class="st4" d="M-179,154.4c0.4,0,0.4-0.7,0-0.7C-179.5,153.7-179.5,154.4-179,154.4L-179,154.4z"/>
	</g>
	<g>
		<path class="st4" d="M-176.2,160.7c-0.1-1.3-0.2-2.5-0.5-3.8c-0.1-0.6-0.2-0.6,0.2-1.2c0.5-0.7,0.9-0.8,1.6-0.2
			c0.5,0.2,0.6,0.5,0.2,0.9c-0.1,0.3-0.2,0.5-0.5,0.7c-0.3,0.3-0.7,0.4-1,0.6c-0.4,0.2-0.1,0.7,0.3,0.6c1.1-0.3,2.8-0.4,2.4,1.6
			C-173.9,161.1-175.2,161.1-176.2,160.7c-0.3-0.3-0.7,0.3-0.3,0.5c1.6,0.9,3.2,0.5,3.6-1.5c0.4-2.1-1.6-2.4-3.3-2.1
			c0.1,0.2,0.2,0.4,0.3,0.6c0.9-0.4,2-1,2.1-2.2c0.1-0.8-0.4-1.4-1.2-1.6c-0.7-0.1-2.3,0.1-2.6,0.9c-0.2,0.5,0.2,1.5,0.3,2
			c0.2,1.1,0.3,2.2,0.4,3.4C-176.9,161.1-176.2,161.1-176.2,160.7L-176.2,160.7z"/>
	</g>
	<g>
		<path class="st4" d="M-168.6,154.6c-1.3,0-2.6,0-3.9,0.1c-0.2,0-0.3,0.1-0.3,0.3c0,1.7,0.1,3.3,0.1,5c0,0.2,0.1,0.3,0.3,0.3
			c1.4,0,2.8-0.1,4.3-0.1c0.4,0,0.4-0.7,0-0.7c-1.4,0-2.8,0.1-4.3,0.1c0.1,0.1,0.2,0.2,0.3,0.3c0-1.7-0.1-3.3-0.1-5
			c-0.1,0.1-0.2,0.2-0.3,0.3c1.3-0.1,2.6-0.1,3.9-0.1C-168.1,155.3-168.1,154.6-168.6,154.6L-168.6,154.6z"/>
	</g>
	<g>
		<path class="st4" d="M-172.2,158c0.8-0.1,1.5-0.1,2.3,0c0.4,0,0.4-0.6,0-0.7c-0.8,0-1.5,0-2.3,0C-172.7,157.4-172.7,158-172.2,158
			L-172.2,158z"/>
	</g>
	<g>
		<path class="st4" d="M-163.3,154.8c-1.2-0.8-3.8-0.5-3.9,1.4c0,1,0.7,0.9,1.4,1c0.4,0.1,0.8,0.2,1.1,0.5c0.2,0.1,0.4,0.3,0.5,0.5
			c0.3,0.3,0.3,0.7-0.1,1c-0.1,0.5-0.3,0.6-0.7,0.6c-0.2,0-0.5,0-0.7-0.1c-0.5-0.1-0.8-0.3-1.2-0.6c-0.4-0.2-0.7,0.3-0.3,0.6
			c1.2,0.8,4.6,1.3,4-1.2c-0.2-0.8-1-1.6-1.8-1.9c-0.2-0.1-0.5-0.1-0.6-0.1c-0.5,0.1-0.6-0.2-0.5-0.9c0.1-0.1,0.2-0.2,0.3-0.3
			c0.7-0.5,1.6-0.4,2.3,0C-163.2,155.7-162.9,155.1-163.3,154.8L-163.3,154.8z"/>
	</g>
	<path class="st3" d="M-124.7,117.4c-0.7-1.5-2.2-2.5-3.8-3.1c-3.1-1.1-6.9-0.6-9.4,1.6c-2.6,2.2-3.3,5.8-2.1,8.9
		c-1.5-0.3-4.6-0.1-3.7,1.8c0.6,1.3,4.8,1.4,5.9,1.4C-132.8,128.3-121.7,124.2-124.7,117.4z"/>
	<path class="st1" d="M-190.9,90.7c1.1,1.3,2.3,2.5,3.5,3.7c1.6-3.5,3.5-7,5.6-10.2c0.2-0.3,0.4-0.6,0.8-0.7c0.2,0,0.5,0.1,0.7,0.2
		c0.6,0.3,1.3,0.6,1.9,0.9c0.2,0.1,0.5,0.2,0.7,0.4c0.4,0.5,0.1,1.2-0.1,1.7c-2.1,4.1-5.6,7.5-7,11.9c-0.2,0.5-0.3,1-0.8,1.2
		c-0.2,0.1-0.5,0.1-0.7,0.1c-0.9,0.1-1.9,0.1-2.8,0.2c-0.8-1.8-4-3.9-4.4-5.5C-193.7,93.7-191.2,90.3-190.9,90.7z"/>
	<path class="st1" d="M-204.1,90.7c1.1,1.3,2.3,2.5,3.5,3.7c1.6-3.5,3.5-7,5.6-10.2c0.2-0.3,0.4-0.6,0.8-0.7c0.2,0,0.5,0.1,0.7,0.2
		c0.6,0.3,1.3,0.6,1.9,0.9c0.2,0.1,0.5,0.2,0.7,0.4c0.4,0.5,0.1,1.2-0.1,1.7c-2.1,4.1-5.6,7.5-7,11.9c-0.2,0.5-0.3,1-0.8,1.2
		c-0.2,0.1-0.5,0.1-0.7,0.1c-0.9,0.1-1.9,0.1-2.8,0.2c-0.8-1.8-4-3.9-4.4-5.5C-206.9,93.7-204.5,90.3-204.1,90.7z"/>
	<path class="st5" d="M-122.9,150.3c-0.1-0.3-2.3,0.2-4.3,0.7c-0.1-2.2-0.3-4.4-0.4-6.6c-0.1-0.9-0.2-2-1.2-2.4
		c-0.6-0.3-1.4-0.2-2,0.1c-2.8,1.3-4.2,4.9-3.1,7.7c-2.7-0.3-5.5,0.6-7.6,2.3c-0.6,0.5-1,1.2-1,2c0,1.6,1.7,2.3,3.2,2.4
		c0.2,0,0.2,0.3,0,0.3c-0.9,0.3-2.1,0.1-2.7,1.1c-0.4,0.7-0.2,1.7,0.4,2.3c1,1,2.4,1,3.7,0.8c0.1,0,0.1,0.1,0,0.1
		c-1.3,0.3-3.2,0.2-3.6,2.2c-0.1,0.5-0.1,0.6,0,0.9c0,0.3,0.6,0.9,0.8,1c2.7,1.5,13.9,1.4,14.6-1.8c0.2-0.9,0.1-2.1-0.1-3.4
		c1.2-0.2,2.5-0.4,3.7-0.7C-122.2,156.3-122.4,153.3-122.9,150.3z"/>
	<path d="M-181.1,121.4c0.4,0.6,1.1,1.2,1.8,1.1c0.6,0,1.1-0.5,1.5-1.1c1.5-2.2,1.5-5.1,1.1-7.7c-0.3-2.5-2.2-6.3-5-3
		C-183.9,113.5-183.1,118.8-181.1,121.4z"/>
	<path d="M-168.7,121.4c0.4,0.6,1.1,1.2,1.8,1.1c0.6,0,1.1-0.5,1.5-1.1c1.5-2.2,1.5-5.1,1.1-7.7c-0.3-2.5-2.2-6.3-5-3
		C-171.5,113.5-170.7,118.8-168.7,121.4z"/>
	<path class="st5" d="M-185.2,126.3c-1.6,0.2-2.6,1.7-2.2,3.2c1,3.7,3.7,9.6,11,9.6c10.7,0,19.6-6.2,20.5-11.6
		C-155.2,123.2-177.3,125.4-185.2,126.3z"/>
	<path class="st6" d="M-197.6,166.1c0,1.7-0.1,3.4,0.1,5.1c0-0.1,0.1-0.1,0.1-0.2"/>
	<path class="st6" d="M-194.5,166.4c-0.2,1.5-0.2,2.9-0.1,4.4"/>
	<path class="st6" d="M-193.5,170.2c0.2,0.2,0.4,0.3,0.6,0.4c0.2,0.1,0.4,0.2,0.6,0.2c0.4,0,0.6-0.4,0.8-0.7c0.4-0.8,0.2-2.4-1-2.2
		C-193.5,168-194.1,169.5-193.5,170.2z"/>
	<path class="st6" d="M-190.9,168c0.2,1.1,0.3,2.3,1.1,3.1c0.3-1,0.7-2,1-3"/>
	<path class="st6" d="M-188.4,169.8c0.9-0.2,1.9-0.3,2.8-0.5c0.1,0,0.2,0,0.2-0.1v-0.1c-0.1-0.4-0.3-0.8-0.7-0.9
		c-0.4-0.2-0.8,0-1.2,0.2c-0.2,0.1-0.5,0.3-0.6,0.6c-0.2,0.3-0.2,0.7-0.2,1c0,0.2,0,0.4,0.1,0.6c0.1,0.3,0.5,0.6,0.8,0.6
		c0.3,0.1,0.7,0,1.1,0c0.2,0,0.5-0.2,0.4-0.4"/>
	<path class="st6" d="M-182.7,168.5c0,0.3,0.2,0.5,0.3,0.8c0.4,0.7,0.9,1.5,1.4,2.2l0.1,0.1c0,0,0.1-0.1,0-0.1"/>
	<path class="st6" d="M-179.7,168.5c-0.5,1.5-1,3-1.5,4.4c-0.1,0.2-0.1,0.4-0.3,0.5"/>
	<path class="st6" d="M-179.2,168.6c0.2-0.3,0.6-0.4,0.9-0.4c0.3,0,0.7,0.2,0.9,0.5c0.2,0.4,0.2,0.8,0.2,1.3s0,0.9,0,1.4
		c0.1-0.4,0.1-0.8-0.1-1.2c-0.1-0.4-0.5-0.7-0.9-0.7c-0.3,0-0.6,0.1-0.8,0.2c-0.3,0.1-0.5,0.3-0.7,0.5s-0.3,0.5-0.2,0.8
		c0.2,0.4,0.7,0.6,1.2,0.6c0.3,0,0.6,0.1,1,0s0.6-0.3,0.7-0.6"/>
	<path class="st7" d="M-195.9,173.4c-0.6,0-1.3,0-1.9,0.2c-0.1,0-0.1,0-0.1,0.1s0,0.1,0,0.2c0.1,1.2,0.2,2.4,0.2,3.6
		c0,0.1,0,0.2,0.1,0.3c0.1,0.1,0.2,0.1,0.3,0.1c0.7,0,1.3,0,2-0.1"/>
	<path class="st7" d="M-194.8,175.3c0,0.7,0.1,1.5,0.1,2.2c-0.1-0.6,0-1.3,0.3-1.9c0.1-0.2,0.2-0.4,0.4-0.5c0.3-0.2,0.8,0,1,0.3
		s0.3,0.7,0.3,1.1c0,0.4,0,0.8,0.1,1.2"/>
	<path class="st7" d="M-189.4,176c-0.1-0.5-0.6-0.8-1.1-0.7c-0.5,0-0.9,0.4-1.1,0.8c-0.1,0.2-0.2,0.4-0.2,0.6c0,0.5,0.4,1,0.8,1.1
		c0.5,0.1,1.1-0.1,1.3-0.5c0.3-0.4,0.3-1,0.2-1.5c0-0.1-0.1-0.3-0.2-0.2c-0.1,0.4,0.1,0.9,0.2,1.3c0.1,0.6,0.2,1.1,0.2,1.7
		c0,0.2,0,0.4-0.1,0.6c-0.2,0.5-0.7,0.8-1.2,0.7s-0.9-0.4-1.2-0.9"/>
	<path class="st7" d="M-188.4,175.5c0.3-0.6,1.3-0.7,1.8-0.3c0.3,0.3,0.5,0.8,0.5,1.3s0,0.9,0,1.4c0.1-0.5,0-1.1-0.4-1.4
		c-0.4-0.3-1-0.4-1.5-0.1c-0.1,0.1-0.3,0.2-0.3,0.3c-0.2,0.3-0.1,0.7,0.2,1c0.3,0.2,0.7,0.3,1,0.3c0.4-0.1,0.7-0.2,1-0.4"/>
	<path class="st7" d="M-183.4,176c-0.2-0.4-0.7-0.6-1.1-0.5c-0.4,0.1-0.7,0.5-0.9,0.9s-0.2,0.8,0,1.1s0.6,0.4,0.9,0.4
		c0.3-0.1,0.6-0.3,0.9-0.6c0.4-0.5,0.5-1.2,0.2-1.8c-0.1,0.4,0.1,0.9,0.2,1.3c0.3,1.1,0.3,2.2-0.2,3.1c-0.1,0.2-0.3,0.4-0.5,0.4
		c-0.5,0-0.7-0.8-1.2-0.9"/>
	<path class="st7" d="M-182.5,176.8c0.8-0.1,1.5-0.2,2.3-0.4c0-0.5-0.4-1-0.9-1.1s-1.1,0.1-1.3,0.6
		C-182.5,176.1-182.6,176.4-182.5,176.8c0,0.5,0.2,1.1,0.7,1.3c0.2,0.1,0.4,0.1,0.6,0.1c0.5,0,1-0.2,1.3-0.6"/>
	<path class="st7" d="M-176.4,174.3c0.5-0.4,1.3-0.4,1.8,0c0.4,0.3,0.4,0.9,0.5,1.4c0,0.1,0,0.3,0,0.4c-0.1,0.2-0.3,0.3-0.4,0.3
		c-0.5,0.2-1,0.3-1.5,0.2c0.7,0,1.5-0.1,2.1,0.2c0.3,0.2,0.7,0.5,0.6,0.9c-0.3,0.9-2.2,1.2-2.6,0.3
		C-176.5,177.1-176.3,175.3-176.4,174.3z"/>
	<path class="st7" d="M-173.1,176.1c0.5-0.6,1.3-0.7,2.1-0.6c0.1,0,0.3,0,0.4,0.1c0.1,0.1,0.2,0.3,0.2,0.4c0.2,0.8,0.2,1.6,0.1,2.5
		c0.1-0.7-0.1-1.3-0.5-1.9c-0.1-0.1-0.1-0.2-0.2-0.2c-0.1,0-0.2,0-0.4,0c-0.4,0.1-0.7,0.3-1,0.6s-0.5,0.6-0.3,1
		c0.1,0.3,0.5,0.5,0.8,0.6s0.5,0.1,0.8,0.1c0.2,0,0.4,0,0.6-0.1c0.2-0.1,0.3-0.3,0.3-0.5"/>
	<path class="st7" d="M-169.4,174.6c-0.1,1.1-0.2,2.2-0.1,3.4c0,0.2,0.1,0.5,0.3,0.5c0.1,0,0.2,0,0.3-0.1c0.4-0.2,0.8-0.4,1.1-0.7
		s0.4-0.8,0.2-1.2c-0.2-0.3-0.6-0.5-1-0.5s-0.8,0.1-1.2,0.1"/>
	<path class="st7" d="M-166.8,177.5c0.6,0,1.3,0,1.9-0.1c0.1,0,0.2,0,0.2-0.1c-0.1-0.5-0.5-1-1-1.2s-1.2,0-1.4,0.5
		c-0.1,0.2-0.1,0.4-0.1,0.6c0,0.3,0.1,0.6,0.2,0.9c0.3,0.5,1,0.5,1.6,0.5c0.3,0,0.6-0.1,0.7-0.3c-0.1,0-0.2,0-0.3-0.1"/>
	<path class="st7" d="M-198,175.7c0.7,0,1.4-0.1,2.1-0.1c-0.1,0-0.2,0-0.3,0"/>
	<path class="st7" d="M-197.5,181.5c0-0.1,0-0.2,0-0.2c0.1-0.1,0.2-0.2,0.3-0.3c0.4-0.2,0.8-0.4,1.3-0.3c0.4,0,0.8,0.2,0.8,0.5
		c0.1,0.3-0.2,0.6-0.5,0.8c-0.5,0.4-1.1,0.6-1.7,0.8c0.6,0.1,1.3-0.2,1.8,0.1c0.3,0.1,0.4,0.4,0.5,0.7c0.1,0.2,0.1,0.4,0.1,0.6
		c0,0.2-0.1,0.3-0.2,0.4c-0.4,0.7-1.7,1.2-2.3,0.5C-197.9,184.3-197.5,182.4-197.5,181.5z"/>
	<path class="st7" d="M-193.8,182.6c-0.1,0.8,0,1.6,0.1,2.4c-0.1-0.4-0.2-0.9-0.1-1.3c0-0.5,0.2-0.9,0.5-1.2
		c0.2-0.2,0.6-0.3,0.8-0.1"/>
	<path class="st7" d="M-192,182.5c0.3-0.4,0.9-0.3,1.3-0.1c0.4,0.3,0.6,0.8,0.6,1.3s-0.1,1-0.2,1.5c0-0.3,0.1-0.6,0-0.9
		s-0.2-0.6-0.5-0.8c-0.3-0.1-0.6-0.1-0.9,0s-0.6,0.3-0.8,0.6c-0.2,0.3-0.1,0.7,0.2,0.9c0.2,0.1,0.3,0.1,0.5,0.1c0.3,0,0.7,0,1-0.2
		c0.3-0.1,0.5-0.4,0.6-0.8"/>
	<path class="st7" d="M-189.4,182.6c0,0.8,0.1,1.6,0.1,2.3c-0.2-1,0.1-2.1,0.9-2.7c0.1,0,0.1-0.1,0.2-0.1c0.1,0,0.1,0,0.2,0.1
		c0.9,0.6,1.3,2,0.8,3"/>
	<path class="st7" d="M-184,183.4c-0.4-0.3-0.8-0.6-1.2-0.6s-0.8,0.2-1,0.5s-0.3,0.7-0.3,1.1c0,0.1,0,0.3,0.1,0.4
		c0.1,0.1,0.2,0.1,0.2,0.2c0.3,0.2,0.8,0.4,1.1,0.3c0.2-0.1,0.3-0.2,0.4-0.3c0.8-0.9,1.1-2.3,0.7-3.4c0,1.3,0.2,2.7,0.3,4"/>
	<path class="st7" d="M-183,183.4c0.1,0.6,0.2,1.3,0.2,2c0-0.1,0-0.1,0-0.2"/>
	<path class="st7" d="M-182.8,182.2v0.1"/>
	<path class="st7" d="M-182,183c0,0.8,0,1.5,0,2.3c0-0.5,0-1,0.2-1.5s0.5-0.9,0.9-1.1c0.1,0,0.1-0.1,0.2,0c0.1,0,0.2,0.1,0.2,0.2
		c0.6,0.8,0.8,1.8,0.7,2.7"/>
	<path class="st7" d="M-177,183.4c-0.2-0.4-0.7-0.6-1.2-0.4s-0.6,0.6-0.8,1.1c-0.1,0.3-0.1,0.5,0,0.8s0.2,0.5,0.5,0.6
		c0.4,0.1,0.8-0.2,1.1-0.5c0.3-0.4,0.6-0.9,0.5-1.4c0-0.3-0.1-0.6-0.4-0.7c-0.2,0.3,0,0.7,0.1,1c0.3,0.7,0.4,1.5,0.5,2.3
		c0,0.3,0,0.7-0.2,1s-0.6,0.4-0.9,0.4c-0.6,0-1.2-0.3-1.5-0.8"/>
	<path class="st7" d="M-173.6,181.5c-0.1,1.3-0.2,2.6-0.4,3.9c0-0.1-0.1-0.1,0-0.2"/>
	<path class="st7" d="M-172.6,185.4c0-0.7,0-1.4-0.2-2.1c0,0,0-0.1-0.1-0.1v0.1"/>
	<path class="st7" d="M-172.7,182.2C-172.7,182.3-172.7,182.3-172.7,182.2"/>
	<path class="st7" d="M-169.5,181.7c-0.5,0.6-1.5,1.3-1.9,2c-0.3,0.7,0.9,1.4,1.5,1.9c0,0,0.1,0.1,0.1,0c0,0,0.1-0.1,0-0.1"/>
	<path class="st7" d="M-169.1,184c0.6,0,1.2,0,1.8-0.1c0.1-0.3-0.3-0.6-0.6-0.7C-168.4,183.2-169,183.5-169.1,184
		c-0.3,0.5,0,1.1,0.5,1.3s1.1,0,1.3-0.5"/>
	<path class="st7" d="M-171.3,181.8c0,1.2,0.1,2.3,0.2,3.5"/>
	<path class="st7" d="M-197.2,187.2c0,1.4,0.1,2.7,0.1,4.1c0,0.1,0,0.3,0.1,0.4c0,0.1,0.1,0.1,0.2,0.1c0.5,0.2,1.1,0.2,1.5,0"/>
	<path class="st7" d="M-194.2,189.6c0,0.6-0.1,1.3-0.1,1.9"/>
	<path class="st7" d="M-194.6,188.7L-194.6,188.7"/>
	<path class="st7" d="M-192.2,189.1c-0.2-0.2-0.6-0.3-0.9-0.1s-0.5,0.5-0.6,0.8c0,0.1,0,0.2,0,0.2c0,0.1,0.2,0.2,0.3,0.2
		c0.4,0.1,0.8,0.1,1.1,0.3c0.4,0.1,0.7,0.5,0.7,0.8c0,0.1,0,0.2-0.1,0.2c0,0-0.1,0.1-0.2,0.1c-0.3,0.1-0.6,0.2-0.9,0.1
		c-0.3,0-0.6-0.2-0.7-0.5"/>
	<path class="st7" d="M-190.2,187.3c-0.1,1.5-0.1,3.1,0.1,4.6"/>
	<path class="st7" d="M-191.6,189.6c0.7,0,1.3-0.1,2-0.1c0.1,0,0.2,0,0.3-0.1"/>
	<path class="st7" d="M-189.3,190.7c0.7,0,1.3-0.1,2-0.1c0-0.3,0-0.5-0.1-0.8c-0.1-0.2-0.3-0.5-0.6-0.5c-0.4-0.1-0.8,0.2-1,0.5
		C-189.1,190-189.2,190.3-189.3,190.7c0,0.2,0.1,0.6,0.4,0.8c0.3,0.2,0.6,0.3,0.9,0.3c0.3,0,0.7,0,0.8-0.3"/>
	<path class="st7" d="M-186.4,189.3c0,0.8,0,1.7,0.1,2.5c0.1-0.6-0.1-1.2,0.2-1.8c0.3-0.5,1-0.7,1.5-0.4c0.5,0.4,0.5,1,0.5,1.6
		c0,0.2,0,0.5,0,0.7"/>
	<path class="st7" d="M-180.8,189.8c0.8-0.2,1.6-0.3,2.4-0.3h0.1c0,0,0-0.1-0.1-0.1"/>
	<path class="st7" d="M-180,188c-0.2,1.1-0.4,2.2-0.1,3.2c0.1,0.2,0.2,0.4,0.3,0.6c0.2,0.1,0.5,0.2,0.6,0"/>
	<path class="st7" d="M-177.3,189.5c-0.3,0.2-0.5,0.5-0.6,0.8c-0.1,0.2-0.1,0.5-0.1,0.8s0.2,0.5,0.4,0.6s0.6,0.1,0.8-0.1
		c0.6-0.3,0.8-1.2,0.4-1.8c-0.1-0.1-0.2-0.2-0.3-0.3c-0.3-0.1-0.6-0.1-0.9,0.1"/>
	<path class="st7" d="M-173.2,189.6c-0.1,0.6-0.1,1.2,0,1.8c0-0.7,0.2-1.3,0.6-1.8c0.1-0.2,0.3-0.3,0.6-0.3c0.1,0,0.2,0.1,0.2,0.2
		c0.4,0.6,0.5,1.4,0.3,2.1c0.1-0.5,0.2-0.9,0.4-1.3c0.1-0.2,0.2-0.4,0.3-0.5c0.2-0.1,0.4-0.2,0.6-0.1c0.1,0.1,0.2,0.2,0.3,0.3
		c0.2,0.4,0.3,0.9,0.2,1.3"/>
	<path class="st7" d="M-168.8,190.4c0.5,0,0.9-0.1,1.4-0.3c-0.1-0.4-0.2-0.9-0.6-1c-0.3-0.1-0.6,0.1-0.8,0.4
		c-0.2,0.3-0.4,0.7-0.4,1.1c0,0.2,0,0.3,0,0.4c0.1,0.3,0.5,0.5,0.8,0.5c0.4,0,0.9-0.1,1.1-0.5"/>
	<path class="st7" d="M-197.5,193.4c0.2,1.5,0.5,3.1,1.4,4.4c0-1.2,0.2-2.3,0.6-3.4c0.1,1.1,0.4,2.2,1,3.2c0,0.1,0.1,0.1,0.2,0.1
		c0.3-1.1,0.4-2.3,0.5-3.4"/>
	<path class="st7" d="M-193.1,195.7c0.2-0.4,0.6-0.7,1.1-0.8c0.1,0,0.2,0,0.3,0c0.1,0,0.2,0.1,0.2,0.2c0.4,0.6,0.5,1.3,0.4,2
		c0-0.4-0.1-0.7-0.3-1c-0.2-0.3-0.7-0.4-1-0.2c-0.1,0.1-0.2,0.2-0.3,0.3c-0.2,0.2-0.3,0.6-0.2,0.9c0.1,0.2,0.3,0.4,0.6,0.5
		s0.6,0.1,0.8,0.1c0.3-0.1,0.5-0.3,0.5-0.6"/>
	<path class="st7" d="M-190.3,195.5c0.1,0.7,0.3,1.3,0.4,2c0-0.1,0-0.1,0-0.2"/>
	<path class="st7" d="M-189,193.9c0,1.3,0,2.6,0.1,3.9"/>
	<path class="st7" d="M-190.6,194.8v0.1"/>
	<path class="st7" d="M-189.6,195c0.5,0,1.1,0,1.6,0"/>
	<path class="st7" d="M-187.2,195.4c0,0.7,0,1.4,0.2,2.1"/>
	<path class="st7" d="M-187.4,194.7C-187.4,194.7-187.4,194.8-187.4,194.7"/>
	<path class="st7" d="M-186.7,195c0,0.8,0.1,1.6,0.2,2.3c0-0.7,0-1.5,0.4-2.1c0.1-0.1,0.3-0.3,0.4-0.2c0.1,0,0.1,0.1,0.2,0.1
		c0.2,0.2,0.4,0.5,0.6,0.8c0.1,0.3,0.1,0.7,0.1,1c0,0.2,0,0.5,0,0.7"/>
	<path class="st7" d="M-182.7,195.8c0.1-0.3-0.2-0.5-0.5-0.5s-0.5,0.2-0.7,0.4c-0.2,0.3-0.3,0.7-0.3,1.1c0.1,0.4,0.3,0.8,0.7,0.9
		c0.2,0.1,0.3,0.1,0.5,0.1c0.4-0.1,0.6-0.4,0.7-0.7c0.1-0.4,0.2-0.8,0.1-1.2c0.1,0.7,0.2,1.3,0.4,2c0.1,0.4,0.2,0.8,0,1.1
		c-0.2,0.4-0.8,0.4-1.2,0.2c-0.4-0.1-0.8-0.4-1.2-0.5"/>
	<path class="st7" d="M-177.7,194.6c-0.3-0.2-0.6-0.3-1-0.3c-0.4,0.1-0.7,0.3-0.9,0.6c-0.3,0.5-0.2,1.1-0.1,1.6
		c0.1,0.5,0.1,1,0.2,1.5c0-0.2,0-0.3,0-0.5"/>
	<path class="st7" d="M-180.2,195.8c0.6-0.1,1.2-0.1,1.8-0.1"/>
	<path class="st7" d="M-176.6,195.6c-0.5-0.2-1.1,0.1-1.3,0.5c-0.2,0.5,0,1.1,0.4,1.4c0.2,0.1,0.3,0.2,0.5,0.2s0.4,0,0.5-0.1
		c0.4-0.2,0.7-0.8,0.5-1.2c-0.1-0.5-0.6-0.8-1.1-0.8"/>
	<path class="st7" d="M-175.1,195.5c-0.1,0.7,0,1.4,0.2,2c0.1-0.3,0-0.6,0-1c0-0.3,0.1-0.7,0.3-0.9c0.2-0.1,0.5-0.1,0.7-0.1"/>
	<path class="st7" d="M-172.5,195.7c0.3,0.7,0.6,1.4,1.1,2c0,0,0.1,0.1,0.2,0.1s0.1-0.1,0.1-0.1"/>
	<path class="st7" d="M-170.8,195.3c-0.1,0.7-0.2,1.3-0.4,2c-0.1,0.6-0.2,1.1-0.5,1.6s-0.9,0.8-1.4,0.7"/>
	<path class="st7" d="M-170.2,197.3c0.2,0.4,0.6,0.6,1,0.6c0.2,0,0.4-0.2,0.6-0.4c0.5-0.6,0.4-1.9-0.5-2
		C-170.1,195.3-170.5,196.7-170.2,197.3z"/>
	<path class="st7" d="M-167.9,195.5c0,0.5,0,1,0.1,1.5c0.1,0.3,0.4,0.6,0.7,0.6s0.6-0.3,0.8-0.5c0.3-0.4,0.4-1,0.3-1.5
		c-0.1-0.1-0.2,0.1-0.2,0.2c0,0.8,0.1,1.5,0.4,2.2"/>
	<path class="st7" d="M-195.2,200.5c-0.2-0.3-0.4-0.6-0.8-0.7c-0.5-0.1-1,0.3-1.2,0.7c0,0.1-0.1,0.2-0.1,0.3s0.1,0.2,0.1,0.2
		c0.6,0.5,1.6,0.5,2,1.2c0.3,0.4,0.2,1-0.1,1.3s-0.8,0.4-1.2,0.3c-0.4-0.1-0.8-0.4-1-0.7"/>
	<path class="st7" d="M-193.9,200.4c0,1.3,0.1,2.5,0.1,3.8"/>
	<path class="st7" d="M-194.6,201.6c0.6,0,1.2,0.1,1.9,0.1c0.1,0.9,0.5,1.9,0.5,2.8c0-0.5,0-0.9-0.1-1.4c0-0.4,0-0.7,0.2-1
		s0.7-0.4,0.9-0.1"/>
	<path class="st7" d="M-191.1,203.2c0.7-0.1,1.5-0.1,2.2-0.2c0-0.3-0.1-0.6-0.3-0.9c-0.1-0.1-0.1-0.2-0.2-0.2c-0.2-0.1-0.4,0-0.5,0
		c-0.5,0.2-1,0.6-1.1,1.1c-0.1,0.6,0.2,1.2,0.7,1.4s1.2,0,1.5-0.6"/>
	<path class="st7" d="M-188.2,202.4c0.2-0.2,0.4-0.4,0.7-0.6c0.3-0.1,0.6-0.1,0.8,0.1c0.1,0.1,0.2,0.2,0.2,0.4
		c0.2,0.6,0.3,1.2,0.1,1.8c0.1-0.3,0-0.7-0.2-1s-0.6-0.4-0.9-0.3c-0.1,0.1-0.3,0.1-0.4,0.3c-0.2,0.3-0.3,0.7-0.2,1s0.5,0.6,0.9,0.6
		s0.7-0.4,0.7-0.7"/>
	<path class="st7" d="M-185.7,201.7c0,0.8,0,1.6,0.1,2.4c0-0.2,0-0.4,0-0.6c0-0.4,0-0.8,0.2-1.1s0.7-0.4,1-0.1
		c0.1,0.1,0.1,0.3,0.1,0.5c0,0.5,0,1-0.1,1.4c0-0.8,0.3-1.5,0.7-2.1c0-0.1,0.1-0.1,0.2-0.2c0.1,0,0.3,0.1,0.3,0.2
		c0.4,0.6,0.6,1.3,0.4,2"/>
	<path class="st7" d="M-181.7,202.4c0,0.8,0,1.6,0,2.3"/>
	<path class="st7" d="M-181.8,201.5c0,0,0,0.1-0.1,0.1"/>
	<path class="st7" d="M-180.7,202.3C-180.7,202.3-180.7,202.2-180.7,202.3c-0.1,0-0.1,0-0.1,0.1c0,0.5,0,0.9,0,1.4
		c0,0.2,0,0.5,0.2,0.7c0-0.7,0-1.4,0.5-1.9c0.2-0.2,0.4-0.3,0.6-0.2c0.2,0.1,0.3,0.2,0.4,0.4c0.2,0.5,0.3,1,0.1,1.5v0.1
		c0,0,0.1-0.1,0-0.1"/>
	<path class="st7" d="M-176.2,202.8c0-0.4-0.4-0.7-0.8-0.6c-0.4,0-0.7,0.3-0.9,0.7c-0.1,0.2-0.2,0.3-0.3,0.5
		c-0.1,0.5,0.3,1.1,0.8,1.2c0.5,0.1,1-0.2,1.2-0.6c0.3-0.4,0.3-0.9,0.3-1.4c0.1,1.1,0.1,2.1,0.2,3.2c0,0.1,0,0.3-0.1,0.4
		c-0.1,0.1-0.2,0.1-0.3,0.1c-0.4,0-0.8,0.1-1.1,0c-0.4-0.1-0.7-0.3-0.9-0.6"/>
	<path class="st7" d="M-173.8,201.7c0-0.1,0-0.1,0-0.2c0-0.1,0.1-0.1,0.2-0.1c0.3-0.1,0.7-0.2,1,0s0.4,0.6,0.4,0.9
		c0,0.1,0,0.3,0,0.4c-0.1,0.1-0.2,0.2-0.3,0.2c-0.3,0.2-0.7,0.3-1,0.3c0.5,0,1,0,1.4,0.2s0.8,0.7,0.6,1.2c-0.1,0.4-0.6,0.7-1,0.7
		c-1,0.2-1-0.2-1.1-1.1C-173.6,203.4-173.7,202.5-173.8,201.7z"/>
	<path class="st7" d="M-170.3,205.3c0.3,0.2,0.7,0.3,1,0.2c0.1,0,0.1-0.1,0.2-0.1c0.1-0.1,0.2-0.2,0.3-0.4c0.1-0.3,0.3-0.5,0.3-0.8
		C-168.3,202-172.6,203.7-170.3,205.3z"/>
	<path class="st6" d="M-163.2,170.6c0.2,0.1,0.3,0.3,0.4,0.4c0,0.1,0.1,0.1,0.2,0.2c0.2,0,0.3-0.1,0.3-0.3s0.1-0.3,0.2-0.4
		c-0.2,0.4-0.4,0.8-0.6,1.1"/>
	<path class="st6" d="M-161.7,171.3c0,0.3,0.3,0.6,0.6,0.5c0.2-0.1,0.5-0.6,0.4-0.9C-160.9,170.2-161.7,170.8-161.7,171.3z"/>
	<path class="st6" d="M-160.3,170.6c0,0.2,0,0.4,0,0.6c0,0.3,0.1,0.6,0.3,0.6c0.3,0,0.4-0.3,0.4-0.6c0-0.2,0-0.4-0.1-0.6"/>
	<path class="st6" d="M-159.1,171.7c0-0.4,0-0.8-0.2-1.1c0.2-0.1,0.4-0.1,0.6,0s0.4,0.3,0.3,0.5c-0.1,0.2-0.3,0.2-0.5,0.2
		c0.3,0.1,0.6,0.2,0.8,0.3"/>
	<path class="st6" d="M-156.8,171.6c-0.1-0.4-0.1-0.7-0.1-1.1c0.2,0,0.5-0.1,0.7-0.1c0.1,0.2-0.1,0.6-0.3,0.6c0.2-0.2,0.6,0,0.6,0.3
		C-155.9,171.7-156.6,171.8-156.8,171.6z"/>
	<path class="st6" d="M-155.5,171.8c-0.1-0.5-0.1-1-0.1-1.5c0.2,0,0.4-0.1,0.6,0c0.2,0.1,0.3,0.4,0.2,0.6c-0.1,0.2-0.4,0.3-0.6,0.2
		c0.3,0.2,0.5,0.3,0.8,0.5"/>
	<path class="st6" d="M-153.2,171.6c0-0.3-0.1-0.7-0.1-1c0.3,0.4,0.6,0.7,0.9,1.1c0-0.4,0-0.8,0-1.1v-0.1v0.1"/>
	<path class="st6" d="M-151.9,170.6c0,0.4,0,0.8,0.2,1.1c0.2-0.1,0.3-0.3,0.4-0.5c0.1-0.2,0.1-0.5,0-0.6S-151.8,170.4-151.9,170.6"
		/>
	<path class="st6" d="M-154.4,171.6c0-0.4,0.3-0.8,0.6-1c0.2,0.4,0.4,0.7,0.5,1.1"/>
	<path class="st6" d="M-154.3,171.2c0.4-0.2,0.7-0.3,1.1-0.3"/>
	<path class="st7" d="M-163.2,177.7c0.2,0.1,0.3,0.3,0.4,0.4c0,0.1,0.1,0.1,0.2,0.2c0.2,0,0.3-0.1,0.3-0.3s0.1-0.3,0.2-0.4
		c-0.2,0.4-0.4,0.8-0.6,1.1"/>
	<path class="st7" d="M-161.7,178.4c0,0.3,0.3,0.6,0.6,0.5c0.2-0.1,0.5-0.6,0.4-0.9C-160.9,177.3-161.7,177.9-161.7,178.4z"/>
	<path class="st7" d="M-160.3,177.7c0,0.2,0,0.4,0,0.6c0,0.3,0.1,0.6,0.3,0.6c0.3,0,0.4-0.3,0.4-0.6c0-0.2,0-0.4-0.1-0.6"/>
	<path class="st7" d="M-159.1,178.9c0-0.4,0-0.8-0.2-1.1c0.2-0.1,0.4-0.1,0.6,0c0.2,0.1,0.4,0.3,0.3,0.5c-0.1,0.2-0.3,0.2-0.5,0.2
		c0.3,0.1,0.6,0.2,0.8,0.3"/>
	<path class="st7" d="M-156.8,178.7c-0.1-0.4-0.1-0.7-0.1-1.1c0.2,0,0.5-0.1,0.7-0.1c0.1,0.2-0.1,0.6-0.3,0.6c0.2-0.2,0.6,0,0.6,0.3
		C-155.9,178.8-156.6,178.9-156.8,178.7z"/>
	<path class="st7" d="M-155.5,178.9c-0.1-0.5-0.1-1-0.1-1.5c0.2,0,0.4-0.1,0.6,0c0.2,0.1,0.3,0.4,0.2,0.6s-0.4,0.3-0.6,0.2
		c0.3,0.2,0.5,0.3,0.8,0.5"/>
	<path class="st7" d="M-153.2,178.7c0-0.3-0.1-0.7-0.1-1c0.3,0.4,0.6,0.7,0.9,1.1c0-0.4,0-0.8,0-1.1v-0.1v0.1"/>
	<path class="st7" d="M-151.9,177.7c0,0.4,0,0.8,0.2,1.1c0.2-0.1,0.3-0.3,0.4-0.5c0.1-0.2,0.1-0.5,0-0.6S-151.8,177.5-151.9,177.7"
		/>
	<path class="st7" d="M-154.4,178.7c0-0.4,0.3-0.8,0.6-1c0.2,0.4,0.4,0.7,0.5,1.1"/>
	<path class="st7" d="M-154.3,178.3c0.4-0.2,0.7-0.3,1.1-0.3"/>
	<path class="st7" d="M-163.2,183.9c0.2,0.1,0.3,0.3,0.4,0.4c0,0.1,0.1,0.1,0.2,0.2c0.2,0,0.3-0.1,0.3-0.3s0.1-0.3,0.2-0.4
		c-0.2,0.4-0.4,0.8-0.6,1.1"/>
	<path class="st7" d="M-161.7,184.6c0,0.3,0.3,0.6,0.6,0.5c0.2-0.1,0.5-0.6,0.4-0.9C-160.9,183.5-161.7,184.1-161.7,184.6z"/>
	<path class="st7" d="M-160.3,183.9c0,0.2,0,0.4,0,0.6c0,0.3,0.1,0.6,0.3,0.6c0.3,0,0.4-0.3,0.4-0.6c0-0.2,0-0.4-0.1-0.6"/>
	<path class="st7" d="M-159.1,185.1c0-0.4,0-0.8-0.2-1.1c0.2-0.1,0.4-0.1,0.6,0s0.4,0.3,0.3,0.5c-0.1,0.2-0.3,0.2-0.5,0.2
		c0.3,0.1,0.6,0.2,0.8,0.3"/>
	<path class="st7" d="M-156.8,185c-0.1-0.4-0.1-0.7-0.1-1.1c0.2,0,0.5-0.1,0.7-0.1c0.1,0.2-0.1,0.6-0.3,0.6c0.2-0.2,0.6,0,0.6,0.3
		S-156.6,185.1-156.8,185z"/>
	<path class="st7" d="M-155.5,185.1c-0.1-0.5-0.1-1-0.1-1.5c0.2,0,0.4-0.1,0.6,0c0.2,0.1,0.3,0.4,0.2,0.6s-0.4,0.3-0.6,0.2
		c0.3,0.2,0.5,0.3,0.8,0.5"/>
	<path class="st7" d="M-153.2,185c0-0.3-0.1-0.7-0.1-1c0.3,0.4,0.6,0.7,0.9,1.1c0-0.4,0-0.8,0-1.1v-0.1v0.1"/>
	<path class="st7" d="M-151.9,183.9c0,0.4,0,0.8,0.2,1.1c0.2-0.1,0.3-0.3,0.4-0.5c0.1-0.2,0.1-0.5,0-0.6
		C-151.5,183.8-151.8,183.8-151.9,183.9"/>
	<path class="st7" d="M-154.4,184.9c0-0.4,0.3-0.8,0.6-1c0.2,0.4,0.4,0.7,0.5,1.1"/>
	<path class="st7" d="M-154.3,184.5c0.4-0.2,0.7-0.3,1.1-0.3"/>
	<path class="st7" d="M-163.2,189.3c0.2,0.1,0.3,0.3,0.4,0.4c0,0.1,0.1,0.1,0.2,0.2c0.2,0,0.3-0.1,0.3-0.3s0.1-0.3,0.2-0.4
		c-0.2,0.4-0.4,0.8-0.6,1.1"/>
	<path class="st7" d="M-161.7,189.9c0,0.3,0.3,0.6,0.6,0.5c0.2-0.1,0.5-0.6,0.4-0.9C-160.9,188.8-161.7,189.4-161.7,189.9z"/>
	<path class="st7" d="M-160.3,189.3c0,0.2,0,0.4,0,0.6c0,0.3,0.1,0.6,0.3,0.6c0.3,0,0.4-0.3,0.4-0.6c0-0.2,0-0.4-0.1-0.6"/>
	<path class="st7" d="M-159.1,190.4c0-0.4,0-0.8-0.2-1.1c0.2-0.1,0.4-0.1,0.6,0s0.4,0.3,0.3,0.5c-0.1,0.2-0.3,0.2-0.5,0.2
		c0.3,0.1,0.6,0.2,0.8,0.3"/>
	<path class="st7" d="M-156.8,190.3c-0.1-0.4-0.1-0.7-0.1-1.1c0.2,0,0.5-0.1,0.7-0.1c0.1,0.2-0.1,0.6-0.3,0.6c0.2-0.2,0.6,0,0.6,0.3
		S-156.6,190.5-156.8,190.3z"/>
	<path class="st7" d="M-155.5,190.5c-0.1-0.5-0.1-1-0.1-1.5c0.2,0,0.4-0.1,0.6,0c0.2,0.1,0.3,0.4,0.2,0.6s-0.4,0.3-0.6,0.2
		c0.3,0.2,0.5,0.3,0.8,0.5"/>
	<path class="st7" d="M-153.2,190.3c0-0.3-0.1-0.7-0.1-1c0.3,0.4,0.6,0.7,0.9,1.1c0-0.4,0-0.8,0-1.1v-0.1v0.1"/>
	<path class="st7" d="M-151.9,189.3c0,0.4,0,0.8,0.2,1.1c0.2-0.1,0.3-0.3,0.4-0.5c0.1-0.2,0.1-0.5,0-0.6S-151.8,189.1-151.9,189.3"
		/>
	<path class="st7" d="M-154.4,190.2c0-0.4,0.3-0.8,0.6-1c0.2,0.4,0.4,0.7,0.5,1.1"/>
	<path class="st7" d="M-154.3,189.9c0.4-0.2,0.7-0.3,1.1-0.3"/>
	<path class="st7" d="M-163.2,196.4c0.2,0.1,0.3,0.3,0.4,0.4c0,0.1,0.1,0.1,0.2,0.2c0.2,0,0.3-0.1,0.3-0.3s0.1-0.3,0.2-0.4
		c-0.2,0.4-0.4,0.8-0.6,1.1"/>
	<path class="st7" d="M-161.7,197c0,0.3,0.3,0.6,0.6,0.5c0.2-0.1,0.5-0.6,0.4-0.9C-160.9,195.9-161.7,196.6-161.7,197z"/>
	<path class="st7" d="M-160.3,196.4c0,0.2,0,0.4,0,0.6c0,0.3,0.1,0.6,0.3,0.6c0.3,0,0.4-0.3,0.4-0.6c0-0.2,0-0.4-0.1-0.6"/>
	<path class="st7" d="M-159.1,197.5c0-0.4,0-0.8-0.2-1.1c0.2-0.1,0.4-0.1,0.6,0s0.4,0.3,0.3,0.5c-0.1,0.2-0.3,0.2-0.5,0.2
		c0.3,0.1,0.6,0.2,0.8,0.3"/>
	<path class="st7" d="M-156.8,197.4c-0.1-0.4-0.1-0.7-0.1-1.1c0.2,0,0.5-0.1,0.7-0.1c0.1,0.2-0.1,0.6-0.3,0.6c0.2-0.2,0.6,0,0.6,0.3
		C-155.9,197.5-156.6,197.6-156.8,197.4z"/>
	<path class="st7" d="M-155.5,197.6c-0.1-0.5-0.1-1-0.1-1.5c0.2,0,0.4-0.1,0.6,0c0.2,0.1,0.3,0.4,0.2,0.6s-0.4,0.3-0.6,0.2
		c0.3,0.2,0.5,0.3,0.8,0.5"/>
	<path class="st7" d="M-153.2,197.4c0-0.3-0.1-0.7-0.1-1c0.3,0.4,0.6,0.7,0.9,1.1c0-0.4,0-0.8,0-1.1v-0.1v0.1"/>
	<path class="st7" d="M-151.9,196.4c0,0.4,0,0.8,0.2,1.1c0.2-0.1,0.3-0.3,0.4-0.5c0.1-0.2,0.1-0.5,0-0.6S-151.8,196.2-151.9,196.4"
		/>
	<path class="st7" d="M-154.4,197.4c0-0.4,0.3-0.8,0.6-1c0.2,0.4,0.4,0.7,0.5,1.1"/>
	<path class="st7" d="M-154.3,197c0.4-0.2,0.7-0.3,1.1-0.3"/>
	<path class="st7" d="M-163.2,203.5c0.2,0.1,0.3,0.3,0.4,0.4c0,0.1,0.1,0.1,0.2,0.2c0.2,0,0.3-0.1,0.3-0.3s0.1-0.3,0.2-0.4
		c-0.2,0.4-0.4,0.8-0.6,1.1"/>
	<path class="st7" d="M-161.7,204.2c0,0.3,0.3,0.6,0.6,0.5c0.2-0.1,0.5-0.6,0.4-0.9C-160.9,203.1-161.7,203.7-161.7,204.2z"/>
	<path class="st7" d="M-160.3,203.5c0,0.2,0,0.4,0,0.6c0,0.3,0.1,0.6,0.3,0.6c0.3,0,0.4-0.3,0.4-0.6c0-0.2,0-0.4-0.1-0.6"/>
	<path class="st7" d="M-159.1,204.7c0-0.4,0-0.8-0.2-1.1c0.2-0.1,0.4-0.1,0.6,0s0.4,0.3,0.3,0.5c-0.1,0.2-0.3,0.2-0.5,0.2
		c0.3,0.1,0.6,0.2,0.8,0.3"/>
	<path class="st7" d="M-156.8,204.5c-0.1-0.4-0.1-0.7-0.1-1.1c0.2,0,0.5-0.1,0.7-0.1c0.1,0.2-0.1,0.6-0.3,0.6c0.2-0.2,0.6,0,0.6,0.3
		C-155.9,204.6-156.6,204.7-156.8,204.5z"/>
	<path class="st7" d="M-155.5,204.7c-0.1-0.5-0.1-1-0.1-1.5c0.2,0,0.4-0.1,0.6,0c0.2,0.1,0.3,0.4,0.2,0.6c-0.1,0.2-0.4,0.3-0.6,0.2
		c0.3,0.2,0.5,0.3,0.8,0.5"/>
	<path class="st7" d="M-153.2,204.5c0-0.3-0.1-0.7-0.1-1c0.3,0.4,0.6,0.7,0.9,1.1c0-0.4,0-0.8,0-1.1v-0.1v0.1"/>
	<path class="st7" d="M-151.9,203.5c0,0.4,0,0.8,0.2,1.1c0.2-0.1,0.3-0.3,0.4-0.5c0.1-0.2,0.1-0.5,0-0.6S-151.8,203.3-151.9,203.5"
		/>
	<path class="st7" d="M-154.4,204.5c0-0.4,0.3-0.8,0.6-1c0.2,0.4,0.4,0.7,0.5,1.1"/>
	<path class="st7" d="M-154.3,204.1c0.4-0.2,0.7-0.3,1.1-0.3"/>
	<path class="st6" d="M-148.7,170.8c0.2-0.2,0.5-0.3,0.8-0.2c0.1,0.2-0.1,0.4-0.3,0.5s-0.4,0.2-0.5,0.4c0.3,0,0.7,0,1,0"/>
	<path class="st6" d="M-147.1,170.6l0.1-0.1"/>
	<path class="st6" d="M-147.1,171.5C-147.1,171.5-147,171.5-147.1,171.5"/>
	<path class="st6" d="M-145.7,170.4c-0.2-0.1-0.4-0.1-0.6,0.1s-0.3,0.4-0.2,0.6c0.2-0.3,0.7-0.2,0.7,0.1c0.1,0.3-0.3,0.6-0.6,0.4"/>
	<path class="st6" d="M-144.7,170.5c-0.4,0-0.7,0.4-0.8,0.7c0,0.3,0.2,0.6,0.4,0.5c0.1,0,0.2-0.1,0.3-0.2c0.2-0.2,0.3-0.4,0.3-0.7
		s-0.4-0.5-0.5-0.3"/>
	<path class="st7" d="M-148.7,189.5c0.2-0.2,0.5-0.3,0.8-0.2c0.1,0.2-0.1,0.4-0.3,0.5s-0.4,0.2-0.5,0.4c0.3,0,0.7,0,1,0"/>
	<path class="st7" d="M-147.1,189.3l0.1-0.1"/>
	<path class="st7" d="M-147.1,190.1C-147.1,190.1-147,190.1-147.1,190.1"/>
	<path class="st7" d="M-145.7,189.1c-0.2-0.1-0.4-0.1-0.6,0.1s-0.3,0.4-0.2,0.6c0.2-0.3,0.7-0.2,0.7,0.1c0.1,0.3-0.3,0.6-0.6,0.4"/>
	<path class="st7" d="M-144.7,189.2c-0.4,0-0.7,0.4-0.8,0.7c0,0.3,0.2,0.6,0.4,0.5c0.1,0,0.2-0.1,0.3-0.2c0.2-0.2,0.3-0.4,0.3-0.7
		s-0.4-0.5-0.5-0.3"/>
	<path class="st7" d="M-147.9,177.2c-0.3,0-0.5,0-0.8,0c0,0.2,0,0.5,0,0.7c0.2-0.3,0.7-0.3,0.9,0.1v0.1c0,0.1,0,0.1-0.1,0.2
		c-0.1,0.2-0.3,0.3-0.5,0.4c-0.2,0.1-0.5-0.1-0.5-0.3"/>
	<path class="st7" d="M-147.2,177.3c0,0.1,0,0.1,0,0.2"/>
	<path class="st7" d="M-147.1,178.3C-147.1,178.3-147.2,178.3-147.1,178.3"/>
	<path class="st7" d="M-146.2,176.8c0.9-0.3,0.4,2-0.3,1.4C-146.8,178-146.6,177-146.2,176.8C-146.2,176.9-146.2,176.8-146.2,176.8z
		"/>
	<path class="st7" d="M-144.4,176.8c0.9-0.3,0.4,2-0.3,1.4C-145,178-144.8,177-144.4,176.8C-144.4,176.9-144.4,176.8-144.4,176.8z"
		/>
	<path class="st7" d="M-147.9,196.7c-0.3,0-0.5,0-0.8,0c0,0.2,0,0.5,0,0.7c0.2-0.3,0.7-0.3,0.9,0.1v0.1c0,0.1,0,0.1-0.1,0.2
		c-0.1,0.2-0.3,0.3-0.5,0.4c-0.2,0.1-0.5-0.1-0.5-0.3"/>
	<path class="st7" d="M-147.2,196.8c0,0.1,0,0.1,0,0.2"/>
	<path class="st7" d="M-147.1,197.9C-147.1,197.9-147.2,197.9-147.1,197.9"/>
	<path class="st7" d="M-146.2,196.4c0.9-0.3,0.4,2-0.3,1.4C-146.8,197.5-146.6,196.6-146.2,196.4L-146.2,196.4z"/>
	<path class="st7" d="M-144.4,196.4c0.9-0.3,0.4,2-0.3,1.4C-145,197.5-144.8,196.6-144.4,196.4L-144.4,196.4z"/>
	<path class="st7" d="M-148.8,182.9c0.2,0,0.4-0.2,0.6-0.3c0.2-0.1,0.5-0.1,0.6,0.1c0.1,0.1,0,0.3-0.1,0.4s-0.3,0.1-0.5,0.2
		c0.2-0.2,0.6,0.1,0.6,0.4c0,0.3-0.3,0.5-0.6,0.5c-0.2,0-0.4-0.1-0.5-0.2"/>
	<path class="st7" d="M-146.9,182.9C-147,182.9-146.9,182.9-146.9,182.9"/>
	<path class="st7" d="M-147.1,183.9L-147.1,183.9c0.1,0.1,0,0.2,0.1,0.2h0.1"/>
	<path class="st7" d="M-146.4,183c0-0.2,0.2-0.3,0.3-0.3s0.3,0.2,0.3,0.3s-0.1,0.2-0.1,0.2c-0.1,0.2-0.3,0.4-0.5,0.5
		c0,0.1,0,0.1,0.1,0.2c0.3,0,0.6,0,0.9-0.1"/>
	<path class="st7" d="M-144.4,182.9c-0.2-0.2-0.4-0.3-0.6-0.2c-0.2,0.1-0.4,0.2-0.4,0.5c0,0.2,0.3,0.4,0.5,0.3
		c0.1,0,0.1-0.1,0.2-0.2c0.1-0.2,0.3-0.4,0.3-0.7c0,0.3,0.4,0.6,0.4,1c0,0.3-0.3,0.4-0.6,0.5c-0.1,0-0.2,0-0.2,0
		c-0.1,0-0.1-0.1-0.1-0.2"/>
	<path class="st7" d="M-148.8,203.4c0.2,0,0.4-0.2,0.6-0.3c0.2-0.1,0.5-0.1,0.6,0.1c0.1,0.1,0,0.3-0.1,0.4s-0.3,0.1-0.5,0.2
		c0.2-0.2,0.6,0.1,0.6,0.4c0,0.3-0.3,0.5-0.6,0.5c-0.2,0-0.4-0.1-0.5-0.2"/>
	<path class="st7" d="M-146.9,203.4C-147,203.4-146.9,203.4-146.9,203.4"/>
	<path class="st7" d="M-147.1,204.3C-147.1,204.3-147.1,204.4-147.1,204.3c0.1,0.1,0,0.2,0.1,0.2s0.1,0,0.1,0"/>
	<path class="st7" d="M-146.4,203.5c0-0.2,0.2-0.3,0.3-0.3c0.2,0,0.3,0.2,0.3,0.3s-0.1,0.2-0.1,0.2c-0.1,0.2-0.3,0.4-0.5,0.5
		c0,0.1,0,0.1,0.1,0.2c0.3,0,0.6,0,0.9-0.1"/>
	<path class="st7" d="M-144.4,203.4c-0.2-0.2-0.4-0.3-0.6-0.2c-0.2,0.1-0.4,0.2-0.4,0.5c0,0.2,0.3,0.4,0.5,0.3
		c0.1,0,0.1-0.1,0.2-0.2c0.1-0.2,0.3-0.4,0.3-0.7c0,0.3,0.4,0.6,0.4,1c0,0.3-0.3,0.4-0.6,0.5c-0.1,0-0.2,0-0.2,0
		c-0.1,0-0.1-0.1-0.1-0.2"/>
	<path class="st6" d="M-199.7,169c0-0.2-0.1-0.3-0.3-0.4c-0.2-0.1-0.3-0.2-0.5-0.2c-0.5,0-0.9,0.2-1.2,0.6c0-0.3-0.2-0.6-0.5-0.7
		c-0.2-0.1-0.5,0-0.7,0.2c-0.1,0.1-0.1,0.2-0.2,0.4c-0.1,0.5,0.1,0.9,0.4,1.3c0.3,0.4,0.7,0.6,1.1,0.9c0.1,0.1,0.2,0.2,0.4,0.1
		c0.1,0,0.2-0.1,0.3-0.1c0.4-0.2,0.7-0.5,1-0.8C-199.7,169.9-199.6,169.5-199.7,169z"/>
	<path class="st7" d="M-199.7,176.2c0-0.2-0.1-0.3-0.3-0.4c-0.2-0.1-0.3-0.2-0.5-0.2c-0.5,0-0.9,0.2-1.2,0.6c0-0.3-0.2-0.6-0.5-0.7
		c-0.2-0.1-0.5,0-0.7,0.2c-0.1,0.1-0.1,0.2-0.2,0.4c-0.1,0.5,0.1,0.9,0.4,1.3c0.3,0.4,0.7,0.6,1.1,0.9c0.1,0.1,0.2,0.2,0.4,0.1
		c0.1,0,0.2-0.1,0.3-0.1c0.4-0.2,0.7-0.5,1-0.8C-199.7,177-199.6,176.6-199.7,176.2z"/>
	<path class="st7" d="M-199.7,182.4c0-0.2-0.1-0.3-0.3-0.4c-0.2-0.1-0.3-0.2-0.5-0.2c-0.5,0-0.9,0.2-1.2,0.6c0-0.3-0.2-0.6-0.5-0.7
		c-0.2-0.1-0.5,0-0.7,0.2c-0.1,0.1-0.1,0.2-0.2,0.4c-0.1,0.5,0.1,0.9,0.4,1.3c0.3,0.4,0.7,0.6,1.1,0.9c0.1,0.1,0.2,0.2,0.4,0.1
		c0.1,0,0.2-0.1,0.3-0.1c0.4-0.2,0.7-0.5,1-0.8C-199.7,183.3-199.6,182.8-199.7,182.4z"/>
	<path class="st7" d="M-199.7,189.5c0-0.2-0.1-0.3-0.3-0.4c-0.2-0.1-0.3-0.2-0.5-0.2c-0.5,0-0.9,0.2-1.2,0.6c0-0.3-0.2-0.6-0.5-0.7
		c-0.2-0.1-0.5,0-0.7,0.2c-0.1,0.1-0.1,0.2-0.2,0.4c-0.1,0.5,0.1,0.9,0.4,1.3c0.3,0.4,0.7,0.6,1.1,0.9c0.1,0.1,0.2,0.2,0.4,0.1
		c0.1,0,0.2-0.1,0.3-0.1c0.4-0.2,0.7-0.5,1-0.8C-199.7,190.4-199.6,189.9-199.7,189.5z"/>
	<path class="st7" d="M-199.7,195.7c0-0.2-0.1-0.3-0.3-0.4c-0.2-0.1-0.3-0.2-0.5-0.2c-0.5,0-0.9,0.2-1.2,0.6c0-0.3-0.2-0.6-0.5-0.7
		c-0.2-0.1-0.5,0-0.7,0.2c-0.1,0.1-0.1,0.2-0.2,0.4c-0.1,0.5,0.1,0.9,0.4,1.3c0.3,0.4,0.7,0.6,1.1,0.9c0.1,0.1,0.2,0.2,0.4,0.1
		c0.1,0,0.2-0.1,0.3-0.1c0.4-0.2,0.7-0.5,1-0.8C-199.7,196.6-199.6,196.1-199.7,195.7z"/>
	<path class="st7" d="M-199.7,202.8c0-0.2-0.1-0.3-0.3-0.4c-0.2-0.1-0.3-0.2-0.5-0.2c-0.5,0-0.9,0.2-1.2,0.6c0-0.3-0.2-0.6-0.5-0.7
		c-0.2-0.1-0.5,0-0.7,0.2c-0.1,0.1-0.1,0.2-0.2,0.4c-0.1,0.5,0.1,0.9,0.4,1.3c0.3,0.4,0.7,0.6,1.1,0.9c0.1,0.1,0.2,0.2,0.4,0.1
		c0.1,0,0.2-0.1,0.3-0.1c0.4-0.2,0.7-0.5,1-0.8C-199.7,203.7-199.6,203.3-199.7,202.8z"/>
	<path class="st3" d="M-129.1,97.1c-0.8-1.4-2.4-2.3-4.1-2.7c-3.2-0.8-6.9,0.1-9.2,2.5s-2.7,6.1-1.2,9.1c-1.5-0.2-4.6,0.4-3.5,2.2
		c0.7,1.2,4.9,0.9,6,0.8C-136.1,108.7-125.5,103.5-129.1,97.1z"/>
</g>
<g>
	<path d="M109.9,86.7c0,0,56-2.7,63.2-1.8s15.1-0.9,16,18.7s3.6,120.1-14.2,127.2s-67.6,1.8-72-0.9c-4.4-2.7-4.4-11.6-4.4-24.9
		c0-13.3,0.9-105.8,1.8-110.3C101,90.2,104.6,86.7,109.9,86.7z"/>
	<path class="st0" d="M111.7,90.4c0,0,52.7-2.5,59.4-1.7s14.2-0.8,15.1,17.6s3.3,113-13.4,119.7s-63.6,1.7-67.8-0.8
		s-4.2-10.9-4.2-23.4s0.8-99.6,1.7-103.8C103.4,93.8,106.7,90.4,111.7,90.4z"/>
	<path d="M98.6,189.4c0,0-6,3.6-3.4,10.7c2.7,7.1,17.8,29.4,40.9,28.5s45.4-13.3,56-25.8s31.1-47.1,8-108.5s-36.5-12.5-36.5-12.5
		l2,1.6c0,0,13.1-41.7,31.8,11.7s8.9,118.3-53.4,128.1C144.2,223.2,104.8,223.2,98.6,189.4z"/>
	<path d="M160.9,85.3c0,0,0.2-2.7,2.9-3.6s3.1,3.7,3.1,3.7L160.9,85.3z"/>
	<path class="st1" d="M92.6,122.7c-0.7,1.1-1.3,2.2-1.8,3.4c-0.5,1.1-0.7,2.4-0.6,3.7c0.1,3.1,1.6,6.2,4,8.1s5.8,2.6,8.8,1.6
		c1.6-0.5,2.9-1.5,4.1-2.6c2.1-2,3.6-4.7,3.8-7.7c0.3-5.6-4.5-12.9-10.7-11.6c-2,0.4-3.9,1.6-5.5,2.9
		C93.9,121.1,93.2,121.8,92.6,122.7z"/>
	<path d="M97.6,122.3c0,0-1.9,13.2,0.6,12.9c2.6-0.3,9-5.5,8.4-6.4C106,127.7,97.3,118.4,97.6,122.3z"/>
	<path class="st2" d="M94.8,158.8c0.3-0.1,0-5.7,1.1-6.3s3.4,4.3,3.4,4.3s4.3-1.4,4.6-1.4s-2.6,4.3-2.6,4.3s3.4,3.4,2.3,4
		c-1.1,0.6-5.5-1.4-5.5-1.4s-0.9,4.6-2,4.3S95,162,95,162S86.1,162,94.8,158.8z"/>
	<path class="st3" d="M94,217.2c0.4,0,0.8-0.3,1.4-0.8c0.7-0.7,1.4-1.4,2.1-2c0.3-0.3,0.6-0.6,0.5-1c0-0.3-0.2-0.5-0.4-0.7
		c-1-1.1-1.9-2.3-2.6-3.7c-0.3-0.6-0.6-1.4-0.1-1.8c0.3-0.3,0.7-0.3,1.1-0.3c4,0,8,0.1,12.1,0.2c0.2,0,0.5,0,0.7,0.2
		s0.3,0.5,0.3,0.8c0.4,4.6-0.5,9.4-2.6,13.5c-0.2,0.4-0.4,0.7-0.7,0.9c-0.4,0.2-0.9,0.2-1.3,0.1c-1.3-0.2-2.5-0.9-3.5-1.8
		c-1.6,2.9-4.9,4.8-8.2,4.7c-1.3,0-2.6-0.3-3.5-1.1c-1.2-1-1.8-2.7-2-4.2c-0.3-1.6-0.9-5.1,1.6-5.3c1.1-0.1,2.2,0.6,3.1,1.2
		C92.9,216.8,93.4,217.2,94,217.2z"/>
	<path class="st2" d="M172.1,215.1c-0.7-1.1-2-1.8-3.3-2.2c-0.9-0.3-1.8-0.5-2.8-0.4c-1.5,0.2-2.7,1.2-3.7,2.4
		c-0.1,0.1-0.2,0.1-0.3,0c0,0,0-0.1-0.1-0.1c-1.4-2.1-4.6-1.8-5.6,0.5c-0.1,0.1-0.1,0.3-0.2,0.4c-0.4,0.9-0.7,2-0.4,3
		c0.3,1.1,1.4,1.8,2.3,2.4c2.1,1.3,4.2,2.7,6.3,3.9c0.6,0.4,1.3,0.7,2,0.6c0.5-0.1,0.9-0.4,1.2-0.7c1.6-1.2,3.2-2.5,4.2-4.2
		C172.9,219,173.2,216.7,172.1,215.1z"/>
	<path class="st2" d="M123.7,121.8c0.9,16.9,10.4,23.1,23.1,23.1s23.1-10.4,23.1-23.1s-6.2-23.1-23.1-23.1
		C134.1,98.7,123.1,109,123.7,121.8z"/>
	<g>
		<path class="st4" d="M137.6,146.9c-3.1-1-6.1,2-4.8,5.1c0.6,1.3,1.9,2.3,3.4,1.9c1.5-0.4,2.2-2,1.8-3.4c0-0.1-0.2-0.2-0.3-0.2
			c-0.7,0-1.8-0.3-2.3,0.1c-0.1,0.1-0.2,0.2-0.2,0.4v0.1c0,0.1,0.2,0.2,0.3,0.2h0.1c0.4,0,0.4-0.6,0-0.7c0,0.5,0.2,0.6,0.6,0.5
			c0.3,0,0.6,0,1,0c0.7,0.6-0.2,1.8-0.7,2.1c-1.3,0.9-2.9-0.3-3.3-1.6c-0.8-2.6,1.6-4.7,4.1-3.9C137.8,147.7,138,147,137.6,146.9
			L137.6,146.9z"/>
	</g>
	<g>
		<path class="st4" d="M142.2,146.7c-2.1,0.2-3.4,2.4-3.1,4.5c0.3,1.7,2.6,2.6,4.1,2.2c3.7-0.8,1.9-8.4-2.1-6.4
			c-0.4,0.2,0,0.8,0.3,0.6c3.1-1.6,4.4,4.7,1.4,5.2c-1.3,0.2-3-0.5-3.2-1.9c-0.1-1.5,0.8-3.3,2.4-3.4
			C142.6,147.3,142.6,146.7,142.2,146.7L142.2,146.7z"/>
	</g>
	<g>
		<path class="st4" d="M149.4,146.7c-1.7,0.4-2.7,1.8-2.8,3.6c-0.1,1.9,1.5,3,3.3,2.8c1.6-0.2,2.9-1.8,2.7-3.4
			c-0.1-1.8-2-2.8-3.6-2.6c-0.4,0-0.4,0.7,0,0.7c1-0.1,2.1,0.3,2.7,1.2c1,1.5-0.5,3.5-2.2,3.6c-3.4,0.1-2.6-4.5,0.1-5.1
			C150,147.3,149.8,146.6,149.4,146.7L149.4,146.7z"/>
	</g>
	<g>
		<path class="st4" d="M153.9,147.8c0.1,1.2,0.2,2.5,0.3,3.7c0,0.5-0.1,1.6,0.5,1.9c0.5,0.3,1.3-0.1,1.8-0.3
			c0.8-0.3,1.6-0.8,2.1-1.5c0.9-1.1,1-2.9-0.2-3.9c-1.3-1.1-3.4-1.1-4.8-0.3c-0.4,0.2,0,0.8,0.3,0.6c1.1-0.6,2.7-0.7,3.7,0
			c1.4,0.9,0.9,2.8-0.2,3.7c-0.4,0.4-1.2,0.8-1.7,0.9c-0.9,0.2-1-0.7-1-1.4c-0.1-1.2-0.2-2.3-0.3-3.5
			C154.5,147.4,153.8,147.4,153.9,147.8L153.9,147.8z"/>
	</g>
	<g>
		<path class="st4" d="M132.9,156.5c0.8,0.9,1.6,1.8,2.3,2.8c0.4,0.4,0.9,1.3,1.5,1c0.6-0.2,0.7-0.9,0.8-1.4
			c0.3-1.1,0.6-2.3,0.9-3.4c0.1-0.4-0.5-0.6-0.6-0.2c-0.2,0.7-0.4,1.5-0.6,2.2c-0.1,0.5-0.3,1.7-0.8,1.9c-0.5,0.1-1.2-1-1.6-1.5
			c-0.5-0.6-1-1.2-1.6-1.8C133.1,155.7,132.6,156.1,132.9,156.5L132.9,156.5z"/>
	</g>
	<g>
		<path class="st4" d="M139.9,156.2c0.1,1.3,0.2,2.6,0.2,3.9c0,0.4,0.7,0.4,0.7,0c-0.1-1.3-0.2-2.6-0.2-3.9
			C140.6,155.7,139.9,155.7,139.9,156.2L139.9,156.2z"/>
	</g>
	<g>
		<path class="st4" d="M140.2,154.4c0.4,0,0.4-0.7,0-0.7C139.7,153.7,139.7,154.4,140.2,154.4L140.2,154.4z"/>
	</g>
	<g>
		<path class="st4" d="M143,160.7c-0.1-1.3-0.2-2.5-0.5-3.8c-0.1-0.6-0.2-0.6,0.2-1.2c0.5-0.7,0.9-0.8,1.6-0.2
			c0.5,0.2,0.6,0.5,0.2,0.9c-0.1,0.3-0.2,0.5-0.5,0.7c-0.3,0.3-0.7,0.4-1,0.6c-0.4,0.2-0.1,0.7,0.3,0.6c1.1-0.3,2.8-0.4,2.4,1.6
			C145.3,161.1,144,161.1,143,160.7c-0.3-0.3-0.7,0.3-0.3,0.5c1.6,0.9,3.2,0.5,3.6-1.5c0.4-2.1-1.6-2.4-3.3-2.1
			c0.1,0.2,0.2,0.4,0.3,0.6c0.9-0.4,2-1,2.1-2.2c0.1-0.8-0.4-1.4-1.2-1.6c-0.7-0.1-2.3,0.1-2.6,0.9c-0.2,0.5,0.2,1.5,0.3,2
			c0.2,1.1,0.3,2.2,0.4,3.4C142.3,161.1,143,161.1,143,160.7L143,160.7z"/>
	</g>
	<g>
		<path class="st4" d="M150.6,154.6c-1.3,0-2.6,0-3.9,0.1c-0.2,0-0.3,0.1-0.3,0.3c0,1.7,0.1,3.3,0.1,5c0,0.2,0.1,0.3,0.3,0.3
			c1.4,0,2.8-0.1,4.3-0.1c0.4,0,0.4-0.7,0-0.7c-1.4,0-2.8,0.1-4.3,0.1c0.1,0.1,0.2,0.2,0.3,0.3c0-1.7-0.1-3.3-0.1-5
			c-0.1,0.1-0.2,0.2-0.3,0.3c1.3-0.1,2.6-0.1,3.9-0.1C151.1,155.3,151.1,154.6,150.6,154.6L150.6,154.6z"/>
	</g>
	<g>
		<path class="st4" d="M147,158c0.8-0.1,1.5-0.1,2.3,0c0.4,0,0.4-0.6,0-0.7c-0.8,0-1.5,0-2.3,0C146.5,157.4,146.5,158,147,158
			L147,158z"/>
	</g>
	<g>
		<path class="st4" d="M155.9,154.8c-1.2-0.8-3.8-0.5-3.9,1.4c0,1,0.7,0.9,1.4,1c0.4,0.1,0.8,0.2,1.1,0.5c0.2,0.1,0.4,0.3,0.5,0.5
			c0.3,0.3,0.3,0.7-0.1,1c-0.1,0.5-0.3,0.6-0.7,0.6c-0.2,0-0.5,0-0.7-0.1c-0.5-0.1-0.8-0.3-1.2-0.6c-0.4-0.2-0.7,0.3-0.3,0.6
			c1.2,0.8,4.6,1.3,4-1.2c-0.2-0.8-1-1.6-1.8-1.9c-0.2-0.1-0.5-0.1-0.6-0.1c-0.5,0.1-0.6-0.2-0.5-0.9c0.1-0.1,0.2-0.2,0.3-0.3
			c0.7-0.5,1.6-0.4,2.3,0C156,155.7,156.3,155.1,155.9,154.8L155.9,154.8z"/>
	</g>
	<path class="st3" d="M191.6,113.4c-1.3-1-3.1-1.2-4.8-1c-3.3,0.5-6.4,2.6-7.6,5.7c-1.3,3.1-0.3,6.7,2.2,8.9
		c-1.5,0.4-4.1,2.1-2.5,3.3c1.1,0.9,4.9-1,5.9-1.4C189.3,126.7,197.4,118,191.6,113.4z"/>
	<path class="st1" d="M128.3,90.7c1.1,1.3,2.3,2.5,3.5,3.7c1.6-3.5,3.5-7,5.6-10.2c0.2-0.3,0.4-0.6,0.8-0.7c0.2,0,0.5,0.1,0.7,0.2
		c0.6,0.3,1.3,0.6,1.9,0.9c0.2,0.1,0.5,0.2,0.7,0.4c0.4,0.5,0.1,1.2-0.1,1.7c-2.1,4.1-5.6,7.5-7,11.9c-0.2,0.5-0.3,1-0.8,1.2
		c-0.2,0.1-0.5,0.1-0.7,0.1c-0.9,0.1-1.9,0.1-2.8,0.2c-0.8-1.8-4-3.9-4.4-5.5C125.5,93.7,128,90.3,128.3,90.7z"/>
	<path class="st5" d="M190.8,150.3c-0.1-0.3-2.3,0.2-4.3,0.7c-0.1-2.2-0.3-4.4-0.4-6.6c-0.1-0.9-0.2-2-1.2-2.4
		c-0.6-0.3-1.4-0.2-2,0.1c-2.8,1.3-4.2,4.9-3.1,7.7c-2.7-0.3-5.5,0.6-7.6,2.3c-0.6,0.5-1,1.2-1,2c0,1.6,1.7,2.3,3.2,2.4
		c0.2,0,0.2,0.3,0,0.3c-0.9,0.3-2.1,0.1-2.7,1.1c-0.4,0.7-0.2,1.7,0.4,2.3c1,1,2.4,1,3.7,0.8c0.1,0,0.1,0.1,0,0.1
		c-1.3,0.3-3.2,0.2-3.6,2.2c-0.1,0.5-0.1,0.6,0,0.9c0,0.3,0.6,0.9,0.8,1c2.7,1.5,13.9,1.4,14.6-1.8c0.2-0.9,0.1-2.1-0.1-3.4
		c1.2-0.2,2.5-0.4,3.7-0.7C191.5,156.3,191.3,153.3,190.8,150.3z"/>
	<path d="M138.1,121.4c0.4,0.6,1.1,1.2,1.8,1.1c0.6,0,1.1-0.5,1.5-1.1c1.5-2.2,1.5-5.1,1.1-7.7c-0.3-2.5-2.2-6.3-5-3
		C135.3,113.5,136.1,118.8,138.1,121.4z"/>
	<path d="M150.5,121.4c0.4,0.6,1.1,1.2,1.8,1.1c0.6,0,1.1-0.5,1.5-1.1c1.5-2.2,1.5-5.1,1.1-7.7c-0.3-2.5-2.2-6.3-5-3
		C147.7,113.5,148.5,118.8,150.5,121.4z"/>
	<path class="st5" d="M134,126.3c-1.6,0.2-2.6,1.7-2.2,3.2c1,3.7,3.7,9.6,11,9.6c10.7,0,19.6-6.2,20.5-11.6
		C164,123.2,141.9,125.4,134,126.3z"/>
	<path class="st6" d="M121.6,166.1c0,1.7-0.1,3.4,0.1,5.1c0-0.1,0.1-0.1,0.1-0.2"/>
	<path class="st6" d="M124.7,166.4c-0.2,1.5-0.2,2.9-0.1,4.4"/>
	<path class="st6" d="M125.7,170.2c0.2,0.2,0.4,0.3,0.6,0.4c0.2,0.1,0.4,0.2,0.6,0.2c0.4,0,0.6-0.4,0.8-0.7c0.4-0.8,0.2-2.4-1-2.2
		C125.7,168,125.1,169.5,125.7,170.2z"/>
	<path class="st6" d="M128.3,168c0.2,1.1,0.3,2.3,1.1,3.1c0.3-1,0.7-2,1-3"/>
	<path class="st6" d="M130.8,169.8c0.9-0.2,1.9-0.3,2.8-0.5c0.1,0,0.2,0,0.2-0.1v-0.1c-0.1-0.4-0.3-0.8-0.7-0.9
		c-0.4-0.2-0.8,0-1.2,0.2c-0.2,0.1-0.5,0.3-0.6,0.6c-0.2,0.3-0.2,0.7-0.2,1c0,0.2,0,0.4,0.1,0.6c0.1,0.3,0.5,0.6,0.8,0.6
		c0.3,0.1,0.7,0,1.1,0c0.2,0,0.5-0.2,0.4-0.4"/>
	<path class="st6" d="M136.5,168.5c0,0.3,0.2,0.5,0.3,0.8c0.4,0.7,0.9,1.5,1.4,2.2l0.1,0.1c0,0,0.1-0.1,0-0.1"/>
	<path class="st6" d="M139.5,168.5c-0.5,1.5-1,3-1.5,4.4c-0.1,0.2-0.1,0.4-0.3,0.5"/>
	<path class="st6" d="M140,168.6c0.2-0.3,0.6-0.4,0.9-0.4c0.3,0,0.7,0.2,0.9,0.5c0.2,0.4,0.2,0.8,0.2,1.3s0,0.9,0,1.4
		c0.1-0.4,0.1-0.8-0.1-1.2c-0.1-0.4-0.5-0.7-0.9-0.7c-0.3,0-0.6,0.1-0.8,0.2c-0.3,0.1-0.5,0.3-0.7,0.5s-0.3,0.5-0.2,0.8
		c0.2,0.4,0.7,0.6,1.2,0.6c0.3,0,0.6,0.1,1,0s0.6-0.3,0.7-0.6"/>
	<path class="st7" d="M123.3,173.4c-0.6,0-1.3,0-1.9,0.2c-0.1,0-0.1,0-0.1,0.1s0,0.1,0,0.2c0.1,1.2,0.2,2.4,0.2,3.6
		c0,0.1,0,0.2,0.1,0.3s0.2,0.1,0.3,0.1c0.7,0,1.3,0,2-0.1"/>
	<path class="st7" d="M124.4,175.3c0,0.7,0.1,1.5,0.1,2.2c-0.1-0.6,0-1.3,0.3-1.9c0.1-0.2,0.2-0.4,0.4-0.5c0.3-0.2,0.8,0,1,0.3
		s0.3,0.7,0.3,1.1c0,0.4,0,0.8,0.1,1.2"/>
	<path class="st7" d="M129.8,176c-0.1-0.5-0.6-0.8-1.1-0.7c-0.5,0-0.9,0.4-1.1,0.8c-0.1,0.2-0.2,0.4-0.2,0.6c0,0.5,0.4,1,0.8,1.1
		c0.5,0.1,1.1-0.1,1.3-0.5c0.3-0.4,0.3-1,0.2-1.5c0-0.1-0.1-0.3-0.2-0.2c-0.1,0.4,0.1,0.9,0.2,1.3c0.1,0.6,0.2,1.1,0.2,1.7
		c0,0.2,0,0.4-0.1,0.6c-0.2,0.5-0.7,0.8-1.2,0.7s-0.9-0.4-1.2-0.9"/>
	<path class="st7" d="M130.8,175.5c0.3-0.6,1.3-0.7,1.8-0.3c0.3,0.3,0.5,0.8,0.5,1.3s0,0.9,0,1.4c0.1-0.5,0-1.1-0.4-1.4
		c-0.4-0.3-1-0.4-1.5-0.1c-0.1,0.1-0.3,0.2-0.3,0.3c-0.2,0.3-0.1,0.7,0.2,1c0.3,0.2,0.7,0.3,1,0.3c0.4-0.1,0.7-0.2,1-0.4"/>
	<path class="st7" d="M135.8,176c-0.2-0.4-0.7-0.6-1.1-0.5c-0.4,0.1-0.7,0.5-0.9,0.9s-0.2,0.8,0,1.1s0.6,0.4,0.9,0.4
		c0.3-0.1,0.6-0.3,0.9-0.6c0.4-0.5,0.5-1.2,0.2-1.8c-0.1,0.4,0.1,0.9,0.2,1.3c0.3,1.1,0.3,2.2-0.2,3.1c-0.1,0.2-0.3,0.4-0.5,0.4
		c-0.5,0-0.7-0.8-1.2-0.9"/>
	<path class="st7" d="M136.7,176.8c0.8-0.1,1.5-0.2,2.3-0.4c0-0.5-0.4-1-0.9-1.1s-1.1,0.1-1.3,0.6
		C136.7,176.1,136.6,176.4,136.7,176.8c0,0.5,0.2,1.1,0.7,1.3c0.2,0.1,0.4,0.1,0.6,0.1c0.5,0,1-0.2,1.3-0.6"/>
	<path class="st7" d="M142.8,174.3c0.5-0.4,1.3-0.4,1.8,0c0.4,0.3,0.4,0.9,0.5,1.4c0,0.1,0,0.3,0,0.4c-0.1,0.2-0.3,0.3-0.4,0.3
		c-0.5,0.2-1,0.3-1.5,0.2c0.7,0,1.5-0.1,2.1,0.2c0.3,0.2,0.7,0.5,0.6,0.9c-0.3,0.9-2.2,1.2-2.6,0.3
		C142.7,177.1,142.9,175.3,142.8,174.3z"/>
	<path class="st7" d="M146.1,176.1c0.5-0.6,1.3-0.7,2.1-0.6c0.1,0,0.3,0,0.4,0.1c0.1,0.1,0.2,0.3,0.2,0.4c0.2,0.8,0.2,1.6,0.1,2.5
		c0.1-0.7-0.1-1.3-0.5-1.9c-0.1-0.1-0.1-0.2-0.2-0.2c-0.1,0-0.2,0-0.4,0c-0.4,0.1-0.7,0.3-1,0.6s-0.5,0.6-0.3,1
		c0.1,0.3,0.5,0.5,0.8,0.6s0.5,0.1,0.8,0.1c0.2,0,0.4,0,0.6-0.1c0.2-0.1,0.3-0.3,0.3-0.5"/>
	<path class="st7" d="M149.8,174.6c-0.1,1.1-0.2,2.2-0.1,3.4c0,0.2,0.1,0.5,0.3,0.5c0.1,0,0.2,0,0.3-0.1c0.4-0.2,0.8-0.4,1.1-0.7
		s0.4-0.8,0.2-1.2c-0.2-0.3-0.6-0.5-1-0.5s-0.8,0.1-1.2,0.1"/>
	<path class="st7" d="M152.4,177.5c0.6,0,1.3,0,1.9-0.1c0.1,0,0.2,0,0.2-0.1c-0.1-0.5-0.5-1-1-1.2s-1.2,0-1.4,0.5
		c-0.1,0.2-0.1,0.4-0.1,0.6c0,0.3,0.1,0.6,0.2,0.9c0.3,0.5,1,0.5,1.6,0.5c0.3,0,0.6-0.1,0.7-0.3c-0.1,0-0.2,0-0.3-0.1"/>
	<path class="st7" d="M121.2,175.7c0.7,0,1.4-0.1,2.1-0.1c-0.1,0-0.2,0-0.3,0"/>
	<path class="st7" d="M121.7,181.5c0-0.1,0-0.2,0-0.2c0.1-0.1,0.2-0.2,0.3-0.3c0.4-0.2,0.8-0.4,1.3-0.3c0.4,0,0.8,0.2,0.8,0.5
		c0.1,0.3-0.2,0.6-0.5,0.8c-0.5,0.4-1.1,0.6-1.7,0.8c0.6,0.1,1.3-0.2,1.8,0.1c0.3,0.1,0.4,0.4,0.5,0.7c0.1,0.2,0.1,0.4,0.1,0.6
		c0,0.2-0.1,0.3-0.2,0.4c-0.4,0.7-1.7,1.2-2.3,0.5C121.3,184.3,121.7,182.4,121.7,181.5z"/>
	<path class="st7" d="M125.4,182.6c-0.1,0.8,0,1.6,0.1,2.4c-0.1-0.4-0.2-0.9-0.1-1.3c0-0.5,0.2-0.9,0.5-1.2c0.2-0.2,0.6-0.3,0.8-0.1
		"/>
	<path class="st7" d="M127.2,182.5c0.3-0.4,0.9-0.3,1.3-0.1c0.4,0.3,0.6,0.8,0.6,1.3s-0.1,1-0.2,1.5c0-0.3,0.1-0.6,0-0.9
		s-0.2-0.6-0.5-0.8c-0.3-0.1-0.6-0.1-0.9,0c-0.3,0.1-0.6,0.3-0.8,0.6s-0.1,0.7,0.2,0.9c0.2,0.1,0.3,0.1,0.5,0.1c0.3,0,0.7,0,1-0.2
		c0.3-0.1,0.5-0.4,0.6-0.8"/>
	<path class="st7" d="M129.8,182.6c0,0.8,0.1,1.6,0.1,2.3c-0.2-1,0.1-2.1,0.9-2.7c0.1,0,0.1-0.1,0.2-0.1c0.1,0,0.1,0,0.2,0.1
		c0.9,0.6,1.3,2,0.8,3"/>
	<path class="st7" d="M135.2,183.4c-0.4-0.3-0.8-0.6-1.2-0.6s-0.8,0.2-1,0.5s-0.3,0.7-0.3,1.1c0,0.1,0,0.3,0.1,0.4
		c0.1,0.1,0.2,0.1,0.2,0.2c0.3,0.2,0.8,0.4,1.1,0.3c0.2-0.1,0.3-0.2,0.4-0.3c0.8-0.9,1.1-2.3,0.7-3.4c0,1.3,0.2,2.7,0.3,4"/>
	<path class="st7" d="M136.2,183.4c0.1,0.6,0.2,1.3,0.2,2c0-0.1,0-0.1,0-0.2"/>
	<path class="st7" d="M136.4,182.2v0.1"/>
	<path class="st7" d="M137.2,183c0,0.8,0,1.5,0,2.3c0-0.5,0-1,0.2-1.5s0.5-0.9,0.9-1.1c0.1,0,0.1-0.1,0.2,0c0.1,0,0.2,0.1,0.2,0.2
		c0.6,0.8,0.8,1.8,0.7,2.7"/>
	<path class="st7" d="M142.2,183.4c-0.2-0.4-0.7-0.6-1.2-0.4s-0.6,0.6-0.8,1.1c-0.1,0.3-0.1,0.5,0,0.8s0.2,0.5,0.5,0.6
		c0.4,0.1,0.8-0.2,1.1-0.5c0.3-0.4,0.6-0.9,0.5-1.4c0-0.3-0.1-0.6-0.4-0.7c-0.2,0.3,0,0.7,0.1,1c0.3,0.7,0.4,1.5,0.5,2.3
		c0,0.3,0,0.7-0.2,1s-0.6,0.4-0.9,0.4c-0.6,0-1.2-0.3-1.5-0.8"/>
	<path class="st7" d="M145.6,181.5c-0.1,1.3-0.2,2.6-0.4,3.9c0-0.1-0.1-0.1,0-0.2"/>
	<path class="st7" d="M146.6,185.4c0-0.7,0-1.4-0.2-2.1c0,0,0-0.1-0.1-0.1v0.1"/>
	<path class="st7" d="M146.5,182.2C146.5,182.3,146.5,182.3,146.5,182.2"/>
	<path class="st7" d="M149.7,181.7c-0.5,0.6-1.5,1.3-1.9,2c-0.3,0.7,0.9,1.4,1.5,1.9c0,0,0.1,0.1,0.1,0c0,0,0.1-0.1,0-0.1"/>
	<path class="st7" d="M150.1,184c0.6,0,1.2,0,1.8-0.1c0.1-0.3-0.3-0.6-0.6-0.7C150.8,183.2,150.2,183.5,150.1,184
		c-0.3,0.5,0,1.1,0.5,1.3s1.1,0,1.3-0.5"/>
	<path class="st7" d="M147.9,181.8c0,1.2,0.1,2.3,0.2,3.5"/>
	<path class="st7" d="M122,187.2c0,1.4,0.1,2.7,0.1,4.1c0,0.1,0,0.3,0.1,0.4c0,0.1,0.1,0.1,0.2,0.1c0.5,0.2,1.1,0.2,1.5,0"/>
	<path class="st7" d="M125,189.6c0,0.6-0.1,1.3-0.1,1.9"/>
	<path class="st7" d="M124.6,188.7L124.6,188.7"/>
	<path class="st7" d="M127,189.1c-0.2-0.2-0.6-0.3-0.9-0.1c-0.3,0.2-0.5,0.5-0.6,0.8c0,0.1,0,0.2,0,0.2c0,0.1,0.2,0.2,0.3,0.2
		c0.4,0.1,0.8,0.1,1.1,0.3c0.4,0.1,0.7,0.5,0.7,0.8c0,0.1,0,0.2-0.1,0.2c0,0-0.1,0.1-0.2,0.1c-0.3,0.1-0.6,0.2-0.9,0.1
		c-0.3,0-0.6-0.2-0.7-0.5"/>
	<path class="st7" d="M129,187.3c-0.1,1.5-0.1,3.1,0.1,4.6"/>
	<path class="st7" d="M127.6,189.6c0.7,0,1.3-0.1,2-0.1c0.1,0,0.2,0,0.3-0.1"/>
	<path class="st7" d="M129.9,190.7c0.7,0,1.3-0.1,2-0.1c0-0.3,0-0.5-0.1-0.8c-0.1-0.2-0.3-0.5-0.6-0.5c-0.4-0.1-0.8,0.2-1,0.5
		C130.1,190,130,190.3,129.9,190.7c0,0.2,0.1,0.6,0.4,0.8c0.3,0.2,0.6,0.3,0.9,0.3c0.3,0,0.7,0,0.8-0.3"/>
	<path class="st7" d="M132.8,189.3c0,0.8,0,1.7,0.1,2.5c0.1-0.6-0.1-1.2,0.2-1.8c0.3-0.5,1-0.7,1.5-0.4c0.5,0.4,0.5,1,0.5,1.6
		c0,0.2,0,0.5,0,0.7"/>
	<path class="st7" d="M138.4,189.8c0.8-0.2,1.6-0.3,2.4-0.3h0.1c0,0,0-0.1-0.1-0.1"/>
	<path class="st7" d="M139.2,188c-0.2,1.1-0.4,2.2-0.1,3.2c0.1,0.2,0.2,0.4,0.3,0.6c0.2,0.1,0.5,0.2,0.6,0"/>
	<path class="st7" d="M141.9,189.5c-0.3,0.2-0.5,0.5-0.6,0.8c-0.1,0.2-0.1,0.5-0.1,0.8s0.2,0.5,0.4,0.6s0.6,0.1,0.8-0.1
		c0.6-0.3,0.8-1.2,0.4-1.8c-0.1-0.1-0.2-0.2-0.3-0.3c-0.3-0.1-0.6-0.1-0.9,0.1"/>
	<path class="st7" d="M146,189.6c-0.1,0.6-0.1,1.2,0,1.8c0-0.7,0.2-1.3,0.6-1.8c0.1-0.2,0.3-0.3,0.6-0.3c0.1,0,0.2,0.1,0.2,0.2
		c0.4,0.6,0.5,1.4,0.3,2.1c0.1-0.5,0.2-0.9,0.4-1.3c0.1-0.2,0.2-0.4,0.3-0.5c0.2-0.1,0.4-0.2,0.6-0.1c0.1,0.1,0.2,0.2,0.3,0.3
		c0.2,0.4,0.3,0.9,0.2,1.3"/>
	<path class="st7" d="M150.4,190.4c0.5,0,0.9-0.1,1.4-0.3c-0.1-0.4-0.2-0.9-0.6-1c-0.3-0.1-0.6,0.1-0.8,0.4
		c-0.2,0.3-0.4,0.7-0.4,1.1c0,0.2,0,0.3,0,0.4c0.1,0.3,0.5,0.5,0.8,0.5c0.4,0,0.9-0.1,1.1-0.5"/>
	<path class="st7" d="M121.7,193.4c0.2,1.5,0.5,3.1,1.4,4.4c0-1.2,0.2-2.3,0.6-3.4c0.1,1.1,0.4,2.2,1,3.2c0,0.1,0.1,0.1,0.2,0.1
		c0.3-1.1,0.4-2.3,0.5-3.4"/>
	<path class="st7" d="M126.1,195.7c0.2-0.4,0.6-0.7,1.1-0.8c0.1,0,0.2,0,0.3,0s0.2,0.1,0.2,0.2c0.4,0.6,0.5,1.3,0.4,2
		c0-0.4-0.1-0.7-0.3-1s-0.7-0.4-1-0.2c-0.1,0.1-0.2,0.2-0.3,0.3c-0.2,0.2-0.3,0.6-0.2,0.9c0.1,0.2,0.3,0.4,0.6,0.5s0.6,0.1,0.8,0.1
		c0.3-0.1,0.5-0.3,0.5-0.6"/>
	<path class="st7" d="M128.9,195.5c0.1,0.7,0.3,1.3,0.4,2c0-0.1,0-0.1,0-0.2"/>
	<path class="st7" d="M130.2,193.9c0,1.3,0,2.6,0.1,3.9"/>
	<path class="st7" d="M128.6,194.8v0.1"/>
	<path class="st7" d="M129.6,195c0.5,0,1.1,0,1.6,0"/>
	<path class="st7" d="M132,195.4c0,0.7,0,1.4,0.2,2.1"/>
	<path class="st7" d="M131.8,194.7C131.8,194.7,131.8,194.8,131.8,194.7"/>
	<path class="st7" d="M132.5,195c0,0.8,0.1,1.6,0.2,2.3c0-0.7,0-1.5,0.4-2.1c0.1-0.1,0.3-0.3,0.4-0.2c0.1,0,0.1,0.1,0.2,0.1
		c0.2,0.2,0.4,0.5,0.6,0.8c0.1,0.3,0.1,0.7,0.1,1c0,0.2,0,0.5,0,0.7"/>
	<path class="st7" d="M136.5,195.8c0.1-0.3-0.2-0.5-0.5-0.5s-0.5,0.2-0.7,0.4c-0.2,0.3-0.3,0.7-0.3,1.1c0.1,0.4,0.3,0.8,0.7,0.9
		c0.2,0.1,0.3,0.1,0.5,0.1c0.4-0.1,0.6-0.4,0.7-0.7c0.1-0.4,0.2-0.8,0.1-1.2c0.1,0.7,0.2,1.3,0.4,2c0.1,0.4,0.2,0.8,0,1.1
		c-0.2,0.4-0.8,0.4-1.2,0.2c-0.4-0.1-0.8-0.4-1.2-0.5"/>
	<path class="st7" d="M141.5,194.6c-0.3-0.2-0.6-0.3-1-0.3c-0.4,0.1-0.7,0.3-0.9,0.6c-0.3,0.5-0.2,1.1-0.1,1.6
		c0.1,0.5,0.1,1,0.2,1.5c0-0.2,0-0.3,0-0.5"/>
	<path class="st7" d="M139,195.8c0.6-0.1,1.2-0.1,1.8-0.1"/>
	<path class="st7" d="M142.6,195.6c-0.5-0.2-1.1,0.1-1.3,0.5c-0.2,0.5,0,1.1,0.4,1.4c0.2,0.1,0.3,0.2,0.5,0.2s0.4,0,0.5-0.1
		c0.4-0.2,0.7-0.8,0.5-1.2c-0.1-0.5-0.6-0.8-1.1-0.8"/>
	<path class="st7" d="M144.1,195.5c-0.1,0.7,0,1.4,0.2,2c0.1-0.3,0-0.6,0-1c0-0.3,0.1-0.7,0.3-0.9c0.2-0.1,0.5-0.1,0.7-0.1"/>
	<path class="st7" d="M146.7,195.7c0.3,0.7,0.6,1.4,1.1,2c0,0,0.1,0.1,0.2,0.1s0.1-0.1,0.1-0.1"/>
	<path class="st7" d="M148.4,195.3c-0.1,0.7-0.2,1.3-0.4,2c-0.1,0.6-0.2,1.1-0.5,1.6s-0.9,0.8-1.4,0.7"/>
	<path class="st7" d="M149,197.3c0.2,0.4,0.6,0.6,1,0.6c0.2,0,0.4-0.2,0.6-0.4c0.5-0.6,0.4-1.9-0.5-2
		C149.1,195.3,148.7,196.7,149,197.3z"/>
	<path class="st7" d="M151.3,195.5c0,0.5,0,1,0.1,1.5c0.1,0.3,0.4,0.6,0.7,0.6s0.6-0.3,0.8-0.5c0.3-0.4,0.4-1,0.3-1.5
		c-0.1-0.1-0.2,0.1-0.2,0.2c0,0.8,0.1,1.5,0.4,2.2"/>
	<path class="st7" d="M124,200.5c-0.2-0.3-0.4-0.6-0.8-0.7c-0.5-0.1-1,0.3-1.2,0.7c0,0.1-0.1,0.2-0.1,0.3s0.1,0.2,0.1,0.2
		c0.6,0.5,1.6,0.5,2,1.2c0.3,0.4,0.2,1-0.1,1.3s-0.8,0.4-1.2,0.3c-0.4-0.1-0.8-0.4-1-0.7"/>
	<path class="st7" d="M125.3,200.4c0,1.3,0.1,2.5,0.1,3.8"/>
	<path class="st7" d="M124.6,201.6c0.6,0,1.2,0.1,1.9,0.1c0.1,0.9,0.5,1.9,0.5,2.8c0-0.5,0-0.9-0.1-1.4c0-0.4,0-0.7,0.2-1
		s0.7-0.4,0.9-0.1"/>
	<path class="st7" d="M128.1,203.2c0.7-0.1,1.5-0.1,2.2-0.2c0-0.3-0.1-0.6-0.3-0.9c-0.1-0.1-0.1-0.2-0.2-0.2c-0.2-0.1-0.4,0-0.5,0
		c-0.5,0.2-1,0.6-1.1,1.1c-0.1,0.6,0.2,1.2,0.7,1.4s1.2,0,1.5-0.6"/>
	<path class="st7" d="M131,202.4c0.2-0.2,0.4-0.4,0.7-0.6c0.3-0.1,0.6-0.1,0.8,0.1c0.1,0.1,0.2,0.2,0.2,0.4c0.2,0.6,0.3,1.2,0.1,1.8
		c0.1-0.3,0-0.7-0.2-1s-0.6-0.4-0.9-0.3c-0.1,0.1-0.3,0.1-0.4,0.3c-0.2,0.3-0.3,0.7-0.2,1s0.5,0.6,0.9,0.6s0.7-0.4,0.7-0.7"/>
	<path class="st7" d="M133.5,201.7c0,0.8,0,1.6,0.1,2.4c0-0.2,0-0.4,0-0.6c0-0.4,0-0.8,0.2-1.1s0.7-0.4,1-0.1
		c0.1,0.1,0.1,0.3,0.1,0.5c0,0.5,0,1-0.1,1.4c0-0.8,0.3-1.5,0.7-2.1c0-0.1,0.1-0.1,0.2-0.2c0.1,0,0.3,0.1,0.3,0.2
		c0.4,0.6,0.6,1.3,0.4,2"/>
	<path class="st7" d="M137.5,202.4c0,0.8,0,1.6,0,2.3"/>
	<path class="st7" d="M137.4,201.5c0,0,0,0.1-0.1,0.1"/>
	<path class="st7" d="M138.5,202.3C138.5,202.3,138.5,202.2,138.5,202.3c-0.1,0-0.1,0-0.1,0.1c0,0.5,0,0.9,0,1.4
		c0,0.2,0,0.5,0.2,0.7c0-0.7,0-1.4,0.5-1.9c0.2-0.2,0.4-0.3,0.6-0.2c0.2,0.1,0.3,0.2,0.4,0.4c0.2,0.5,0.3,1,0.1,1.5v0.1
		c0,0,0.1-0.1,0-0.1"/>
	<path class="st7" d="M143,202.8c0-0.4-0.4-0.7-0.8-0.6c-0.4,0-0.7,0.3-0.9,0.7c-0.1,0.2-0.2,0.3-0.3,0.5c-0.1,0.5,0.3,1.1,0.8,1.2
		c0.5,0.1,1-0.2,1.2-0.6c0.3-0.4,0.3-0.9,0.3-1.4c0.1,1.1,0.1,2.1,0.2,3.2c0,0.1,0,0.3-0.1,0.4c-0.1,0.1-0.2,0.1-0.3,0.1
		c-0.4,0-0.8,0.1-1.1,0c-0.4-0.1-0.7-0.3-0.9-0.6"/>
	<path class="st7" d="M145.4,201.7c0-0.1,0-0.1,0-0.2c0-0.1,0.1-0.1,0.2-0.1c0.3-0.1,0.7-0.2,1,0s0.4,0.6,0.4,0.9c0,0.1,0,0.3,0,0.4
		c-0.1,0.1-0.2,0.2-0.3,0.2c-0.3,0.2-0.7,0.3-1,0.3c0.5,0,1,0,1.4,0.2s0.8,0.7,0.6,1.2c-0.1,0.4-0.6,0.7-1,0.7c-1,0.2-1-0.2-1.1-1.1
		C145.6,203.4,145.5,202.5,145.4,201.7z"/>
	<path class="st7" d="M148.9,205.3c0.3,0.2,0.7,0.3,1,0.2c0.1,0,0.1-0.1,0.2-0.1c0.1-0.1,0.2-0.2,0.3-0.4c0.1-0.3,0.3-0.5,0.3-0.8
		C150.9,202,146.6,203.7,148.9,205.3z"/>
	<path class="st6" d="M156,170.6c0.2,0.1,0.3,0.3,0.4,0.4c0,0.1,0.1,0.1,0.2,0.2c0.2,0,0.3-0.1,0.3-0.3s0.1-0.3,0.2-0.4
		c-0.2,0.4-0.4,0.8-0.6,1.1"/>
	<path class="st6" d="M157.5,171.3c0,0.3,0.3,0.6,0.6,0.5c0.2-0.1,0.5-0.6,0.4-0.9C158.3,170.2,157.5,170.8,157.5,171.3z"/>
	<path class="st6" d="M158.9,170.6c0,0.2,0,0.4,0,0.6c0,0.3,0.1,0.6,0.3,0.6c0.3,0,0.4-0.3,0.4-0.6c0-0.2,0-0.4-0.1-0.6"/>
	<path class="st6" d="M160.1,171.7c0-0.4,0-0.8-0.2-1.1c0.2-0.1,0.4-0.1,0.6,0s0.4,0.3,0.3,0.5c-0.1,0.2-0.3,0.2-0.5,0.2
		c0.3,0.1,0.6,0.2,0.8,0.3"/>
	<path class="st6" d="M162.4,171.6c-0.1-0.4-0.1-0.7-0.1-1.1c0.2,0,0.5-0.1,0.7-0.1c0.1,0.2-0.1,0.6-0.3,0.6c0.2-0.2,0.6,0,0.6,0.3
		C163.3,171.7,162.6,171.8,162.4,171.6z"/>
	<path class="st6" d="M163.7,171.8c-0.1-0.5-0.1-1-0.1-1.5c0.2,0,0.4-0.1,0.6,0c0.2,0.1,0.3,0.4,0.2,0.6c-0.1,0.2-0.4,0.3-0.6,0.2
		c0.3,0.2,0.5,0.3,0.8,0.5"/>
	<path class="st6" d="M166,171.6c0-0.3-0.1-0.7-0.1-1c0.3,0.4,0.6,0.7,0.9,1.1c0-0.4,0-0.8,0-1.1v-0.1v0.1"/>
	<path class="st6" d="M167.3,170.6c0,0.4,0,0.8,0.2,1.1c0.2-0.1,0.3-0.3,0.4-0.5c0.1-0.2,0.1-0.5,0-0.6S167.4,170.4,167.3,170.6"/>
	<path class="st6" d="M164.8,171.6c0-0.4,0.3-0.8,0.6-1c0.2,0.4,0.4,0.7,0.5,1.1"/>
	<path class="st6" d="M164.9,171.2c0.4-0.2,0.7-0.3,1.1-0.3"/>
	<path class="st7" d="M156,177.7c0.2,0.1,0.3,0.3,0.4,0.4c0,0.1,0.1,0.1,0.2,0.2c0.2,0,0.3-0.1,0.3-0.3s0.1-0.3,0.2-0.4
		c-0.2,0.4-0.4,0.8-0.6,1.1"/>
	<path class="st7" d="M157.5,178.4c0,0.3,0.3,0.6,0.6,0.5c0.2-0.1,0.5-0.6,0.4-0.9C158.3,177.3,157.5,177.9,157.5,178.4z"/>
	<path class="st7" d="M158.9,177.7c0,0.2,0,0.4,0,0.6c0,0.3,0.1,0.6,0.3,0.6c0.3,0,0.4-0.3,0.4-0.6c0-0.2,0-0.4-0.1-0.6"/>
	<path class="st7" d="M160.1,178.9c0-0.4,0-0.8-0.2-1.1c0.2-0.1,0.4-0.1,0.6,0c0.2,0.1,0.4,0.3,0.3,0.5c-0.1,0.2-0.3,0.2-0.5,0.2
		c0.3,0.1,0.6,0.2,0.8,0.3"/>
	<path class="st7" d="M162.4,178.7c-0.1-0.4-0.1-0.7-0.1-1.1c0.2,0,0.5-0.1,0.7-0.1c0.1,0.2-0.1,0.6-0.3,0.6c0.2-0.2,0.6,0,0.6,0.3
		C163.3,178.8,162.6,178.9,162.4,178.7z"/>
	<path class="st7" d="M163.7,178.9c-0.1-0.5-0.1-1-0.1-1.5c0.2,0,0.4-0.1,0.6,0c0.2,0.1,0.3,0.4,0.2,0.6s-0.4,0.3-0.6,0.2
		c0.3,0.2,0.5,0.3,0.8,0.5"/>
	<path class="st7" d="M166,178.7c0-0.3-0.1-0.7-0.1-1c0.3,0.4,0.6,0.7,0.9,1.1c0-0.4,0-0.8,0-1.1v-0.1v0.1"/>
	<path class="st7" d="M167.3,177.7c0,0.4,0,0.8,0.2,1.1c0.2-0.1,0.3-0.3,0.4-0.5c0.1-0.2,0.1-0.5,0-0.6S167.4,177.5,167.3,177.7"/>
	<path class="st7" d="M164.8,178.7c0-0.4,0.3-0.8,0.6-1c0.2,0.4,0.4,0.7,0.5,1.1"/>
	<path class="st7" d="M164.9,178.3c0.4-0.2,0.7-0.3,1.1-0.3"/>
	<path class="st7" d="M156,183.9c0.2,0.1,0.3,0.3,0.4,0.4c0,0.1,0.1,0.1,0.2,0.2c0.2,0,0.3-0.1,0.3-0.3s0.1-0.3,0.2-0.4
		c-0.2,0.4-0.4,0.8-0.6,1.1"/>
	<path class="st7" d="M157.5,184.6c0,0.3,0.3,0.6,0.6,0.5c0.2-0.1,0.5-0.6,0.4-0.9C158.3,183.5,157.5,184.1,157.5,184.6z"/>
	<path class="st7" d="M158.9,183.9c0,0.2,0,0.4,0,0.6c0,0.3,0.1,0.6,0.3,0.6c0.3,0,0.4-0.3,0.4-0.6c0-0.2,0-0.4-0.1-0.6"/>
	<path class="st7" d="M160.1,185.1c0-0.4,0-0.8-0.2-1.1c0.2-0.1,0.4-0.1,0.6,0s0.4,0.3,0.3,0.5c-0.1,0.2-0.3,0.2-0.5,0.2
		c0.3,0.1,0.6,0.2,0.8,0.3"/>
	<path class="st7" d="M162.4,185c-0.1-0.4-0.1-0.7-0.1-1.1c0.2,0,0.5-0.1,0.7-0.1c0.1,0.2-0.1,0.6-0.3,0.6c0.2-0.2,0.6,0,0.6,0.3
		C163.3,185,162.6,185.1,162.4,185z"/>
	<path class="st7" d="M163.7,185.1c-0.1-0.5-0.1-1-0.1-1.5c0.2,0,0.4-0.1,0.6,0c0.2,0.1,0.3,0.4,0.2,0.6s-0.4,0.3-0.6,0.2
		c0.3,0.2,0.5,0.3,0.8,0.5"/>
	<path class="st7" d="M166,185c0-0.3-0.1-0.7-0.1-1c0.3,0.4,0.6,0.7,0.9,1.1c0-0.4,0-0.8,0-1.1v-0.1v0.1"/>
	<path class="st7" d="M167.3,183.9c0,0.4,0,0.8,0.2,1.1c0.2-0.1,0.3-0.3,0.4-0.5c0.1-0.2,0.1-0.5,0-0.6
		C167.7,183.8,167.4,183.8,167.3,183.9"/>
	<path class="st7" d="M164.8,184.9c0-0.4,0.3-0.8,0.6-1c0.2,0.4,0.4,0.7,0.5,1.1"/>
	<path class="st7" d="M164.9,184.5c0.4-0.2,0.7-0.3,1.1-0.3"/>
	<path class="st7" d="M156,189.3c0.2,0.1,0.3,0.3,0.4,0.4c0,0.1,0.1,0.1,0.2,0.2c0.2,0,0.3-0.1,0.3-0.3s0.1-0.3,0.2-0.4
		c-0.2,0.4-0.4,0.8-0.6,1.1"/>
	<path class="st7" d="M157.5,189.9c0,0.3,0.3,0.6,0.6,0.5c0.2-0.1,0.5-0.6,0.4-0.9C158.3,188.8,157.5,189.4,157.5,189.9z"/>
	<path class="st7" d="M158.9,189.3c0,0.2,0,0.4,0,0.6c0,0.3,0.1,0.6,0.3,0.6c0.3,0,0.4-0.3,0.4-0.6c0-0.2,0-0.4-0.1-0.6"/>
	<path class="st7" d="M160.1,190.4c0-0.4,0-0.8-0.2-1.1c0.2-0.1,0.4-0.1,0.6,0s0.4,0.3,0.3,0.5c-0.1,0.2-0.3,0.2-0.5,0.2
		c0.3,0.1,0.6,0.2,0.8,0.3"/>
	<path class="st7" d="M162.4,190.3c-0.1-0.4-0.1-0.7-0.1-1.1c0.2,0,0.5-0.1,0.7-0.1c0.1,0.2-0.1,0.6-0.3,0.6c0.2-0.2,0.6,0,0.6,0.3
		C163.3,190.3,162.6,190.5,162.4,190.3z"/>
	<path class="st7" d="M163.7,190.5c-0.1-0.5-0.1-1-0.1-1.5c0.2,0,0.4-0.1,0.6,0c0.2,0.1,0.3,0.4,0.2,0.6s-0.4,0.3-0.6,0.2
		c0.3,0.2,0.5,0.3,0.8,0.5"/>
	<path class="st7" d="M166,190.3c0-0.3-0.1-0.7-0.1-1c0.3,0.4,0.6,0.7,0.9,1.1c0-0.4,0-0.8,0-1.1v-0.1v0.1"/>
	<path class="st7" d="M167.3,189.3c0,0.4,0,0.8,0.2,1.1c0.2-0.1,0.3-0.3,0.4-0.5c0.1-0.2,0.1-0.5,0-0.6S167.4,189.1,167.3,189.3"/>
	<path class="st7" d="M164.8,190.2c0-0.4,0.3-0.8,0.6-1c0.2,0.4,0.4,0.7,0.5,1.1"/>
	<path class="st7" d="M164.9,189.9c0.4-0.2,0.7-0.3,1.1-0.3"/>
	<path class="st7" d="M156,196.4c0.2,0.1,0.3,0.3,0.4,0.4c0,0.1,0.1,0.1,0.2,0.2c0.2,0,0.3-0.1,0.3-0.3s0.1-0.3,0.2-0.4
		c-0.2,0.4-0.4,0.8-0.6,1.1"/>
	<path class="st7" d="M157.5,197c0,0.3,0.3,0.6,0.6,0.5c0.2-0.1,0.5-0.6,0.4-0.9C158.3,195.9,157.5,196.6,157.5,197z"/>
	<path class="st7" d="M158.9,196.4c0,0.2,0,0.4,0,0.6c0,0.3,0.1,0.6,0.3,0.6c0.3,0,0.4-0.3,0.4-0.6c0-0.2,0-0.4-0.1-0.6"/>
	<path class="st7" d="M160.1,197.5c0-0.4,0-0.8-0.2-1.1c0.2-0.1,0.4-0.1,0.6,0s0.4,0.3,0.3,0.5c-0.1,0.2-0.3,0.2-0.5,0.2
		c0.3,0.1,0.6,0.2,0.8,0.3"/>
	<path class="st7" d="M162.4,197.4c-0.1-0.4-0.1-0.7-0.1-1.1c0.2,0,0.5-0.1,0.7-0.1c0.1,0.2-0.1,0.6-0.3,0.6c0.2-0.2,0.6,0,0.6,0.3
		C163.3,197.5,162.6,197.6,162.4,197.4z"/>
	<path class="st7" d="M163.7,197.6c-0.1-0.5-0.1-1-0.1-1.5c0.2,0,0.4-0.1,0.6,0c0.2,0.1,0.3,0.4,0.2,0.6s-0.4,0.3-0.6,0.2
		c0.3,0.2,0.5,0.3,0.8,0.5"/>
	<path class="st7" d="M166,197.4c0-0.3-0.1-0.7-0.1-1c0.3,0.4,0.6,0.7,0.9,1.1c0-0.4,0-0.8,0-1.1v-0.1v0.1"/>
	<path class="st7" d="M167.3,196.4c0,0.4,0,0.8,0.2,1.1c0.2-0.1,0.3-0.3,0.4-0.5c0.1-0.2,0.1-0.5,0-0.6S167.4,196.2,167.3,196.4"/>
	<path class="st7" d="M164.8,197.4c0-0.4,0.3-0.8,0.6-1c0.2,0.4,0.4,0.7,0.5,1.1"/>
	<path class="st7" d="M164.9,197c0.4-0.2,0.7-0.3,1.1-0.3"/>
	<path class="st7" d="M156,203.5c0.2,0.1,0.3,0.3,0.4,0.4c0,0.1,0.1,0.1,0.2,0.2c0.2,0,0.3-0.1,0.3-0.3s0.1-0.3,0.2-0.4
		c-0.2,0.4-0.4,0.8-0.6,1.1"/>
	<path class="st7" d="M157.5,204.2c0,0.3,0.3,0.6,0.6,0.5c0.2-0.1,0.5-0.6,0.4-0.9C158.3,203.1,157.5,203.7,157.5,204.2z"/>
	<path class="st7" d="M158.9,203.5c0,0.2,0,0.4,0,0.6c0,0.3,0.1,0.6,0.3,0.6c0.3,0,0.4-0.3,0.4-0.6c0-0.2,0-0.4-0.1-0.6"/>
	<path class="st7" d="M160.1,204.7c0-0.4,0-0.8-0.2-1.1c0.2-0.1,0.4-0.1,0.6,0s0.4,0.3,0.3,0.5c-0.1,0.2-0.3,0.2-0.5,0.2
		c0.3,0.1,0.6,0.2,0.8,0.3"/>
	<path class="st7" d="M162.4,204.5c-0.1-0.4-0.1-0.7-0.1-1.1c0.2,0,0.5-0.1,0.7-0.1c0.1,0.2-0.1,0.6-0.3,0.6c0.2-0.2,0.6,0,0.6,0.3
		C163.3,204.6,162.6,204.7,162.4,204.5z"/>
	<path class="st7" d="M163.7,204.7c-0.1-0.5-0.1-1-0.1-1.5c0.2,0,0.4-0.1,0.6,0c0.2,0.1,0.3,0.4,0.2,0.6c-0.1,0.2-0.4,0.3-0.6,0.2
		c0.3,0.2,0.5,0.3,0.8,0.5"/>
	<path class="st7" d="M166,204.5c0-0.3-0.1-0.7-0.1-1c0.3,0.4,0.6,0.7,0.9,1.1c0-0.4,0-0.8,0-1.1v-0.1v0.1"/>
	<path class="st7" d="M167.3,203.5c0,0.4,0,0.8,0.2,1.1c0.2-0.1,0.3-0.3,0.4-0.5c0.1-0.2,0.1-0.5,0-0.6S167.4,203.3,167.3,203.5"/>
	<path class="st7" d="M164.8,204.5c0-0.4,0.3-0.8,0.6-1c0.2,0.4,0.4,0.7,0.5,1.1"/>
	<path class="st7" d="M164.9,204.1c0.4-0.2,0.7-0.3,1.1-0.3"/>
	<path class="st6" d="M170.5,170.8c0.2-0.2,0.5-0.3,0.8-0.2c0.1,0.2-0.1,0.4-0.3,0.5s-0.4,0.2-0.5,0.4c0.3,0,0.7,0,1,0"/>
	<path class="st6" d="M172.1,170.6l0.1-0.1"/>
	<path class="st6" d="M172.1,171.5C172.1,171.5,172.2,171.5,172.1,171.5"/>
	<path class="st6" d="M173.5,170.4c-0.2-0.1-0.4-0.1-0.6,0.1s-0.3,0.4-0.2,0.6c0.2-0.3,0.7-0.2,0.7,0.1c0.1,0.3-0.3,0.6-0.6,0.4"/>
	<path class="st6" d="M174.5,170.5c-0.4,0-0.7,0.4-0.8,0.7c0,0.3,0.2,0.6,0.4,0.5c0.1,0,0.2-0.1,0.3-0.2c0.2-0.2,0.3-0.4,0.3-0.7
		s-0.4-0.5-0.5-0.3"/>
	<path class="st7" d="M170.5,189.5c0.2-0.2,0.5-0.3,0.8-0.2c0.1,0.2-0.1,0.4-0.3,0.5s-0.4,0.2-0.5,0.4c0.3,0,0.7,0,1,0"/>
	<path class="st7" d="M172.1,189.3l0.1-0.1"/>
	<path class="st7" d="M172.1,190.1C172.1,190.1,172.2,190.1,172.1,190.1"/>
	<path class="st7" d="M173.5,189.1c-0.2-0.1-0.4-0.1-0.6,0.1s-0.3,0.4-0.2,0.6c0.2-0.3,0.7-0.2,0.7,0.1c0.1,0.3-0.3,0.6-0.6,0.4"/>
	<path class="st7" d="M174.5,189.2c-0.4,0-0.7,0.4-0.8,0.7c0,0.3,0.2,0.6,0.4,0.5c0.1,0,0.2-0.1,0.3-0.2c0.2-0.2,0.3-0.4,0.3-0.7
		s-0.4-0.5-0.5-0.3"/>
	<path class="st7" d="M171.3,177.2c-0.3,0-0.5,0-0.8,0c0,0.2,0,0.5,0,0.7c0.2-0.3,0.7-0.3,0.9,0.1v0.1c0,0.1,0,0.1-0.1,0.2
		c-0.1,0.2-0.3,0.3-0.5,0.4c-0.2,0.1-0.5-0.1-0.5-0.3"/>
	<path class="st7" d="M172,177.3c0,0.1,0,0.1,0,0.2"/>
	<path class="st7" d="M172.1,178.3C172.1,178.3,172,178.3,172.1,178.3"/>
	<path class="st7" d="M173,176.8c0.9-0.3,0.4,2-0.3,1.4C172.4,178,172.6,177,173,176.8C173,176.9,173,176.8,173,176.8z"/>
	<path class="st7" d="M174.8,176.8c0.9-0.3,0.4,2-0.3,1.4C174.2,178,174.4,177,174.8,176.8C174.8,176.9,174.8,176.8,174.8,176.8z"/>
	<path class="st7" d="M171.3,196.7c-0.3,0-0.5,0-0.8,0c0,0.2,0,0.5,0,0.7c0.2-0.3,0.7-0.3,0.9,0.1v0.1c0,0.1,0,0.1-0.1,0.2
		c-0.1,0.2-0.3,0.3-0.5,0.4c-0.2,0.1-0.5-0.1-0.5-0.3"/>
	<path class="st7" d="M172,196.8c0,0.1,0,0.1,0,0.2"/>
	<path class="st7" d="M172.1,197.9C172.1,197.9,172,197.9,172.1,197.9"/>
	<path class="st7" d="M173,196.4c0.9-0.3,0.4,2-0.3,1.4C172.4,197.5,172.6,196.6,173,196.4L173,196.4z"/>
	<path class="st7" d="M174.8,196.4c0.9-0.3,0.4,2-0.3,1.4C174.2,197.5,174.4,196.6,174.8,196.4L174.8,196.4z"/>
	<path class="st7" d="M170.4,182.9c0.2,0,0.4-0.2,0.6-0.3c0.2-0.1,0.5-0.1,0.6,0.1c0.1,0.1,0,0.3-0.1,0.4s-0.3,0.1-0.5,0.2
		c0.2-0.2,0.6,0.1,0.6,0.4c0,0.3-0.3,0.5-0.6,0.5c-0.2,0-0.4-0.1-0.5-0.2"/>
	<path class="st7" d="M172.3,182.9C172.2,182.9,172.3,182.9,172.3,182.9"/>
	<path class="st7" d="M172.1,183.9L172.1,183.9c0.1,0.1,0,0.2,0.1,0.2h0.1"/>
	<path class="st7" d="M172.8,183c0-0.2,0.2-0.3,0.3-0.3s0.3,0.2,0.3,0.3s-0.1,0.2-0.1,0.2c-0.1,0.2-0.3,0.4-0.5,0.5
		c0,0.1,0,0.1,0.1,0.2c0.3,0,0.6,0,0.9-0.1"/>
	<path class="st7" d="M174.8,182.9c-0.2-0.2-0.4-0.3-0.6-0.2c-0.2,0.1-0.4,0.2-0.4,0.5c0,0.2,0.3,0.4,0.5,0.3c0.1,0,0.1-0.1,0.2-0.2
		c0.1-0.2,0.3-0.4,0.3-0.7c0,0.3,0.4,0.6,0.4,1c0,0.3-0.3,0.4-0.6,0.5c-0.1,0-0.2,0-0.2,0c-0.1,0-0.1-0.1-0.1-0.2"/>
	<path class="st7" d="M170.4,203.4c0.2,0,0.4-0.2,0.6-0.3c0.2-0.1,0.5-0.1,0.6,0.1c0.1,0.1,0,0.3-0.1,0.4s-0.3,0.1-0.5,0.2
		c0.2-0.2,0.6,0.1,0.6,0.4c0,0.3-0.3,0.5-0.6,0.5c-0.2,0-0.4-0.1-0.5-0.2"/>
	<path class="st7" d="M172.3,203.4C172.2,203.4,172.3,203.4,172.3,203.4"/>
	<path class="st7" d="M172.1,204.3C172.1,204.3,172.1,204.4,172.1,204.3c0.1,0.1,0,0.2,0.1,0.2s0.1,0,0.1,0"/>
	<path class="st7" d="M172.8,203.5c0-0.2,0.2-0.3,0.3-0.3c0.2,0,0.3,0.2,0.3,0.3s-0.1,0.2-0.1,0.2c-0.1,0.2-0.3,0.4-0.5,0.5
		c0,0.1,0,0.1,0.1,0.2c0.3,0,0.6,0,0.9-0.1"/>
	<path class="st7" d="M174.8,203.4c-0.2-0.2-0.4-0.3-0.6-0.2c-0.2,0.1-0.4,0.2-0.4,0.5c0,0.2,0.3,0.4,0.5,0.3c0.1,0,0.1-0.1,0.2-0.2
		c0.1-0.2,0.3-0.4,0.3-0.7c0,0.3,0.4,0.6,0.4,1c0,0.3-0.3,0.4-0.6,0.5c-0.1,0-0.2,0-0.2,0c-0.1,0-0.1-0.1-0.1-0.2"/>
	<path class="st6" d="M119.5,169c0-0.2-0.1-0.3-0.3-0.4c-0.2-0.1-0.3-0.2-0.5-0.2c-0.5,0-0.9,0.2-1.2,0.6c0-0.3-0.2-0.6-0.5-0.7
		c-0.2-0.1-0.5,0-0.7,0.2c-0.1,0.1-0.1,0.2-0.2,0.4c-0.1,0.5,0.1,0.9,0.4,1.3c0.3,0.4,0.7,0.6,1.1,0.9c0.1,0.1,0.2,0.2,0.4,0.1
		c0.1,0,0.2-0.1,0.3-0.1c0.4-0.2,0.7-0.5,1-0.8C119.5,169.9,119.6,169.5,119.5,169z"/>
	<path class="st7" d="M119.5,176.2c0-0.2-0.1-0.3-0.3-0.4c-0.2-0.1-0.3-0.2-0.5-0.2c-0.5,0-0.9,0.2-1.2,0.6c0-0.3-0.2-0.6-0.5-0.7
		c-0.2-0.1-0.5,0-0.7,0.2c-0.1,0.1-0.1,0.2-0.2,0.4c-0.1,0.5,0.1,0.9,0.4,1.3c0.3,0.4,0.7,0.6,1.1,0.9c0.1,0.1,0.2,0.2,0.4,0.1
		c0.1,0,0.2-0.1,0.3-0.1c0.4-0.2,0.7-0.5,1-0.8C119.5,177,119.6,176.6,119.5,176.2z"/>
	<path class="st7" d="M119.5,182.4c0-0.2-0.1-0.3-0.3-0.4c-0.2-0.1-0.3-0.2-0.5-0.2c-0.5,0-0.9,0.2-1.2,0.6c0-0.3-0.2-0.6-0.5-0.7
		c-0.2-0.1-0.5,0-0.7,0.2c-0.1,0.1-0.1,0.2-0.2,0.4c-0.1,0.5,0.1,0.9,0.4,1.3c0.3,0.4,0.7,0.6,1.1,0.9c0.1,0.1,0.2,0.2,0.4,0.1
		c0.1,0,0.2-0.1,0.3-0.1c0.4-0.2,0.7-0.5,1-0.8C119.5,183.3,119.6,182.8,119.5,182.4z"/>
	<path class="st7" d="M119.5,189.5c0-0.2-0.1-0.3-0.3-0.4c-0.2-0.1-0.3-0.2-0.5-0.2c-0.5,0-0.9,0.2-1.2,0.6c0-0.3-0.2-0.6-0.5-0.7
		c-0.2-0.1-0.5,0-0.7,0.2c-0.1,0.1-0.1,0.2-0.2,0.4c-0.1,0.5,0.1,0.9,0.4,1.3c0.3,0.4,0.7,0.6,1.1,0.9c0.1,0.1,0.2,0.2,0.4,0.1
		c0.1,0,0.2-0.1,0.3-0.1c0.4-0.2,0.7-0.5,1-0.8C119.5,190.4,119.6,189.9,119.5,189.5z"/>
	<path class="st7" d="M119.5,195.7c0-0.2-0.1-0.3-0.3-0.4c-0.2-0.1-0.3-0.2-0.5-0.2c-0.5,0-0.9,0.2-1.2,0.6c0-0.3-0.2-0.6-0.5-0.7
		c-0.2-0.1-0.5,0-0.7,0.2c-0.1,0.1-0.1,0.2-0.2,0.4c-0.1,0.5,0.1,0.9,0.4,1.3c0.3,0.4,0.7,0.6,1.1,0.9c0.1,0.1,0.2,0.2,0.4,0.1
		c0.1,0,0.2-0.1,0.3-0.1c0.4-0.2,0.7-0.5,1-0.8C119.5,196.6,119.6,196.1,119.5,195.7z"/>
	<path class="st7" d="M119.5,202.8c0-0.2-0.1-0.3-0.3-0.4c-0.2-0.1-0.3-0.2-0.5-0.2c-0.5,0-0.9,0.2-1.2,0.6c0-0.3-0.2-0.6-0.5-0.7
		c-0.2-0.1-0.5,0-0.7,0.2c-0.1,0.1-0.1,0.2-0.2,0.4c-0.1,0.5,0.1,0.9,0.4,1.3c0.3,0.4,0.7,0.6,1.1,0.9c0.1,0.1,0.2,0.2,0.4,0.1
		c0.1,0,0.2-0.1,0.3-0.1c0.4-0.2,0.7-0.5,1-0.8C119.5,203.7,119.6,203.3,119.5,202.8z"/>
	<path class="st3" d="M186.3,93c-1.4-0.8-3.3-0.7-4.9-0.3c-3.2,1-5.9,3.5-6.7,6.8s0.7,6.7,3.5,8.5c-1.4,0.6-3.8,2.7-1.9,3.7
		c1.2,0.7,4.7-1.7,5.6-2.3C186.1,106.5,192.7,96.7,186.3,93z"/>
</g>
</svg>
