<svg enable-background="new 0 0 297.6 297.6" viewBox="0 0 297.6 297.6" xmlns="http://www.w3.org/2000/svg"><path d="m-209.3 86.7s56-2.7 63.2-1.8 15.1-.9 16 18.7 3.6 120.1-14.2 127.2-67.6 1.8-72-.9-4.4-11.6-4.4-24.9.9-105.8 1.8-110.3 4.3-8 9.6-8z"/><path d="m-207.5 90.4s52.7-2.5 59.4-1.7 14.2-.8 15.1 17.6 3.3 113-13.4 119.7-63.6 1.7-67.8-.8-4.2-10.9-4.2-23.4.8-99.6 1.7-103.8 4.2-7.6 9.2-7.6z" fill="#73becb"/><path d="m-220.6 189.4s-6 3.6-3.4 10.7 17.8 29.4 40.9 28.5 45.4-13.3 56-25.8 31.1-47.1 8-108.5-36.5-12.5-36.5-12.5l2 1.6s13.1-41.7 31.8 11.7 8.9 118.3-53.4 128.1c.2 0-39.2 0-45.4-33.8z"/><path d="m-158.3 85.3s.2-2.7 2.9-3.6 3.1 3.7 3.1 3.7z"/><path d="m-226.6 122.7c-.7 1.1-1.3 2.2-1.8 3.4-.5 1.1-.7 2.4-.6 3.7.1 3.1 1.6 6.2 4 8.1s5.8 2.6 8.8 1.6c1.6-.5 2.9-1.5 4.1-2.6 2.1-2 3.6-4.7 3.8-7.7.3-5.6-4.5-12.9-10.7-11.6-2 .4-3.9 1.6-5.5 2.9-.8.6-1.5 1.3-2.1 2.2z" fill="#08984b"/><path d="m-221.6 122.3s-1.9 13.2.6 12.9c2.6-.3 9-5.5 8.4-6.4-.6-1.1-9.3-10.4-9-6.5z"/><path d="m-223.9 157.8c.3 0 2.4-5.2 3.7-5.3 1.3 0 1.3 5.4 1.3 5.4s4.5.5 4.8.6-4.1 2.8-4.1 2.8 1.7 4.6.4 4.6-4.4-3.6-4.4-3.6-2.7 3.8-3.6 3.1.9-4.7.9-4.7-8.1-3.7 1-2.9z" fill="#f9483b"/><path d="m-219 211c.4 0 .8-.3 1.4-.8.7-.7 1.4-1.4 2.1-2 .3-.3.6-.6.5-1 0-.3-.2-.5-.4-.7-1-1.1-1.9-2.3-2.6-3.7-.3-.6-.6-1.4-.1-1.8.3-.3.7-.3 1.1-.3 4 0 8 .1 12.1.2.2 0 .5 0 .7.2s.3.5.3.8c.4 4.6-.5 9.4-2.6 13.5-.2.4-.4.7-.7.9-.4.2-.9.2-1.3.1-1.3-.2-2.5-.9-3.5-1.8-1.6 2.9-4.9 4.8-8.2 4.7-1.3 0-2.6-.3-3.5-1.1-1.2-1-1.8-2.7-2-4.2-.3-1.6-.9-5.1 1.6-5.3 1.1-.1 2.2.6 3.1 1.2.9.7 1.4 1.1 2 1.1z" fill="#f193be"/><path d="m-140.7 211.8c-1.4-2-3.6-3.2-6-4-1.6-.6-3.3-.9-5-.7-2.7.4-4.9 2.2-6.7 4.4-.1.2-.4.1-.5 0 0-.1-.1-.1-.1-.2-2.5-3.8-8.4-3.2-10.2.9-.1.3-.2.5-.3.8-.7 1.7-1.2 3.6-.7 5.4.6 2 2.5 3.2 4.2 4.3 3.8 2.4 7.7 4.8 11.5 7.2 1.1.7 2.3 1.3 3.6 1.1.9-.2 1.6-.7 2.3-1.2 2.9-2.2 5.8-4.5 7.7-7.6 1.7-3.2 2.2-7.4.2-10.4z" fill="#f9483b"/><path d="m-195.5 121.8c.9 16.9 10.4 23.1 23.1 23.1s23.1-10.4 23.1-23.1-6.2-23.1-23.1-23.1c-12.7 0-23.7 10.3-23.1 23.1z" fill="#f9483b"/><path d="m-181.6 146.9c-3.1-1-6.1 2-4.8 5.1.6 1.3 1.9 2.3 3.4 1.9s2.2-2 1.8-3.4c0-.1-.2-.2-.3-.2-.7 0-1.8-.3-2.3.1-.1.1-.2.2-.2.4v.1c0 .1.2.2.3.2h.1c.4 0 .4-.6 0-.7 0 .5.2.6.6.5h1c.7.6-.2 1.8-.7 2.1-1.3.9-2.9-.3-3.3-1.6-.8-2.6 1.6-4.7 4.1-3.9.5.2.7-.5.3-.6z" fill="#f7f5f5"/><path d="m-177 146.7c-2.1.2-3.4 2.4-3.1 4.5.3 1.7 2.6 2.6 4.1 2.2 3.7-.8 1.9-8.4-2.1-6.4-.4.2 0 .8.3.6 3.1-1.6 4.4 4.7 1.4 5.2-1.3.2-3-.5-3.2-1.9-.1-1.5.8-3.3 2.4-3.4.6-.2.6-.8.2-.8z" fill="#f7f5f5"/><path d="m-169.8 146.7c-1.7.4-2.7 1.8-2.8 3.6-.1 1.9 1.5 3 3.3 2.8 1.6-.2 2.9-1.8 2.7-3.4-.1-1.8-2-2.8-3.6-2.6-.4 0-.4.7 0 .7 1-.1 2.1.3 2.7 1.2 1 1.5-.5 3.5-2.2 3.6-3.4.1-2.6-4.5.1-5.1.4-.2.2-.9-.2-.8z" fill="#f7f5f5"/><path d="m-165.3 147.8c.1 1.2.2 2.5.3 3.7 0 .5-.1 1.6.5 1.9.5.3 1.3-.1 1.8-.3.8-.3 1.6-.8 2.1-1.5.9-1.1 1-2.9-.2-3.9-1.3-1.1-3.4-1.1-4.8-.3-.4.2 0 .8.3.6 1.1-.6 2.7-.7 3.7 0 1.4.9.9 2.8-.2 3.7-.4.4-1.2.8-1.7.9-.9.2-1-.7-1-1.4-.1-1.2-.2-2.3-.3-3.5.1-.3-.6-.3-.5.1z" fill="#f7f5f5"/><path d="m-186.3 156.5c.8.9 1.6 1.8 2.3 2.8.4.4.9 1.3 1.5 1 .6-.2.7-.9.8-1.4.3-1.1.6-2.3.9-3.4.1-.4-.5-.6-.6-.2-.2.7-.4 1.5-.6 2.2-.1.5-.3 1.7-.8 1.9-.5.1-1.2-1-1.6-1.5-.5-.6-1-1.2-1.6-1.8-.1-.4-.6 0-.3.4z" fill="#f7f5f5"/><path d="m-179.3 156.2c.1 1.3.2 2.6.2 3.9 0 .4.7.4.7 0-.1-1.3-.2-2.6-.2-3.9 0-.5-.7-.5-.7 0z" fill="#f7f5f5"/><path d="m-179 154.4c.4 0 .4-.7 0-.7-.5 0-.5.7 0 .7z" fill="#f7f5f5"/><path d="m-176.2 160.7c-.1-1.3-.2-2.5-.5-3.8-.1-.6-.2-.6.2-1.2.5-.7.9-.8 1.6-.2.5.2.6.5.2.9-.1.3-.2.5-.5.7-.3.3-.7.4-1 .6-.4.2-.1.7.3.6 1.1-.3 2.8-.4 2.4 1.6-.4 1.2-1.7 1.2-2.7.8-.3-.3-.7.3-.3.5 1.6.9 3.2.5 3.6-1.5.4-2.1-1.6-2.4-3.3-2.1.1.2.2.4.3.6.9-.4 2-1 2.1-2.2.1-.8-.4-1.4-1.2-1.6-.7-.1-2.3.1-2.6.9-.2.5.2 1.5.3 2 .2 1.1.3 2.2.4 3.4 0 .4.7.4.7 0z" fill="#f7f5f5"/><path d="m-168.6 154.6c-1.3 0-2.6 0-3.9.1-.2 0-.3.1-.3.3 0 1.7.1 3.3.1 5 0 .2.1.3.3.3 1.4 0 2.8-.1 4.3-.1.4 0 .4-.7 0-.7-1.4 0-2.8.1-4.3.1.1.1.2.2.3.3 0-1.7-.1-3.3-.1-5-.1.1-.2.2-.3.3 1.3-.1 2.6-.1 3.9-.1.5.2.5-.5 0-.5z" fill="#f7f5f5"/><path d="m-172.2 158c.8-.1 1.5-.1 2.3 0 .4 0 .4-.6 0-.7-.8 0-1.5 0-2.3 0-.5.1-.5.7 0 .7z" fill="#f7f5f5"/><path d="m-163.3 154.8c-1.2-.8-3.8-.5-3.9 1.4 0 1 .7.9 1.4 1 .4.1.8.2 1.1.5.2.1.4.3.5.5.3.3.3.7-.1 1-.1.5-.3.6-.7.6-.2 0-.5 0-.7-.1-.5-.1-.8-.3-1.2-.6-.4-.2-.7.3-.3.6 1.2.8 4.6 1.3 4-1.2-.2-.8-1-1.6-1.8-1.9-.2-.1-.5-.1-.6-.1-.5.1-.6-.2-.5-.9l.3-.3c.7-.5 1.6-.4 2.3 0 .3.4.6-.2.2-.5z" fill="#f7f5f5"/><path d="m-124.7 117.4c-.7-1.5-2.2-2.5-3.8-3.1-3.1-1.1-6.9-.6-9.4 1.6-2.6 2.2-3.3 5.8-2.1 8.9-1.5-.3-4.6-.1-3.7 1.8.6 1.3 4.8 1.4 5.9 1.4 5 .3 16.1-3.8 13.1-10.6z" fill="#f193be"/><path d="m-190.9 90.7c1.1 1.3 2.3 2.5 3.5 3.7 1.6-3.5 3.5-7 5.6-10.2.2-.3.4-.6.8-.7.2 0 .5.1.7.2.6.3 1.3.6 1.9.9.2.1.5.2.7.4.4.5.1 1.2-.1 1.7-2.1 4.1-5.6 7.5-7 11.9-.2.5-.3 1-.8 1.2-.2.1-.5.1-.7.1-.9.1-1.9.1-2.8.2-.8-1.8-4-3.9-4.4-5.5-.2-.9 2.3-4.3 2.6-3.9z" fill="#08984b"/><path d="m-204.1 90.7c1.1 1.3 2.3 2.5 3.5 3.7 1.6-3.5 3.5-7 5.6-10.2.2-.3.4-.6.8-.7.2 0 .5.1.7.2.6.3 1.3.6 1.9.9.2.1.5.2.7.4.4.5.1 1.2-.1 1.7-2.1 4.1-5.6 7.5-7 11.9-.2.5-.3 1-.8 1.2-.2.1-.5.1-.7.1-.9.1-1.9.1-2.8.2-.8-1.8-4-3.9-4.4-5.5-.2-.9 2.2-4.3 2.6-3.9z" fill="#08984b"/><path d="m-122.9 150.3c-.1-.3-2.3.2-4.3.7-.1-2.2-.3-4.4-.4-6.6-.1-.9-.2-2-1.2-2.4-.6-.3-1.4-.2-2 .1-2.8 1.3-4.2 4.9-3.1 7.7-2.7-.3-5.5.6-7.6 2.3-.6.5-1 1.2-1 2 0 1.6 1.7 2.3 3.2 2.4.2 0 .2.3 0 .3-.9.3-2.1.1-2.7 1.1-.4.7-.2 1.7.4 2.3 1 1 2.4 1 3.7.8.1 0 .1.1 0 .1-1.3.3-3.2.2-3.6 2.2-.1.5-.1.6 0 .9 0 .3.6.9.8 1 2.7 1.5 13.9 1.4 14.6-1.8.2-.9.1-2.1-.1-3.4 1.2-.2 2.5-.4 3.7-.7.3-3 .1-6-.4-9z" fill="#fff"/><path d="m-181.1 121.4c.4.6 1.1 1.2 1.8 1.1.6 0 1.1-.5 1.5-1.1 1.5-2.2 1.5-5.1 1.1-7.7-.3-2.5-2.2-6.3-5-3-2.2 2.8-1.4 8.1.6 10.7z"/><path d="m-168.7 121.4c.4.6 1.1 1.2 1.8 1.1.6 0 1.1-.5 1.5-1.1 1.5-2.2 1.5-5.1 1.1-7.7-.3-2.5-2.2-6.3-5-3-2.2 2.8-1.4 8.1.6 10.7z"/><path d="m-185.2 126.3c-1.6.2-2.6 1.7-2.2 3.2 1 3.7 3.7 9.6 11 9.6 10.7 0 19.6-6.2 20.5-11.6.7-4.3-21.4-2.1-29.3-1.2z" fill="#fff"/><g fill="none" stroke-linecap="round" stroke-linejoin="round" stroke-miterlimit="10" stroke-width=".25"><path d="m-197.6 166.1c0 1.7-.1 3.4.1 5.1 0-.1.1-.1.1-.2" stroke="#dee0e0"/><path d="m-194.5 166.4c-.2 1.5-.2 2.9-.1 4.4" stroke="#dee0e0"/><path d="m-193.5 170.2c.2.2.4.3.6.4s.4.2.6.2c.4 0 .6-.4.8-.7.4-.8.2-2.4-1-2.2-1 .1-1.6 1.6-1 2.3z" stroke="#dee0e0"/><path d="m-190.9 168c.2 1.1.3 2.3 1.1 3.1.3-1 .7-2 1-3" stroke="#dee0e0"/><path d="m-188.4 169.8c.9-.2 1.9-.3 2.8-.5.1 0 .2 0 .2-.1v-.1c-.1-.4-.3-.8-.7-.9-.4-.2-.8 0-1.2.2-.2.1-.5.3-.6.6-.2.3-.2.7-.2 1 0 .2 0 .4.1.6.1.3.5.6.8.6.3.1.7 0 1.1 0 .2 0 .5-.2.4-.4" stroke="#dee0e0"/><path d="m-182.7 168.5c0 .3.2.5.3.8.4.7.9 1.5 1.4 2.2l.1.1s.1-.1 0-.1" stroke="#dee0e0"/><path d="m-179.7 168.5c-.5 1.5-1 3-1.5 4.4-.1.2-.1.4-.3.5" stroke="#dee0e0"/><path d="m-179.2 168.6c.2-.3.6-.4.9-.4s.7.2.9.5c.2.4.2.8.2 1.3s0 .9 0 1.4c.1-.4.1-.8-.1-1.2-.1-.4-.5-.7-.9-.7-.3 0-.6.1-.8.2-.3.1-.5.3-.7.5s-.3.5-.2.8c.2.4.7.6 1.2.6.3 0 .6.1 1 0s.6-.3.7-.6" stroke="#dee0e0"/><path d="m-195.9 173.4c-.6 0-1.3 0-1.9.2-.1 0-.1 0-.1.1s0 .1 0 .2c.1 1.2.2 2.4.2 3.6 0 .1 0 .2.1.3s.2.1.3.1c.7 0 1.3 0 2-.1" stroke="#407484"/><path d="m-194.8 175.3c0 .7.1 1.5.1 2.2-.1-.6 0-1.3.3-1.9.1-.2.2-.4.4-.5.3-.2.8 0 1 .3s.3.7.3 1.1 0 .8.1 1.2" stroke="#407484"/><path d="m-189.4 176c-.1-.5-.6-.8-1.1-.7-.5 0-.9.4-1.1.8-.1.2-.2.4-.2.6 0 .5.4 1 .8 1.1.5.1 1.1-.1 1.3-.5.3-.4.3-1 .2-1.5 0-.1-.1-.3-.2-.2-.1.4.1.9.2 1.3.1.6.2 1.1.2 1.7 0 .2 0 .4-.1.6-.2.5-.7.8-1.2.7s-.9-.4-1.2-.9" stroke="#407484"/><path d="m-188.4 175.5c.3-.6 1.3-.7 1.8-.3.3.3.5.8.5 1.3s0 .9 0 1.4c.1-.5 0-1.1-.4-1.4s-1-.4-1.5-.1c-.1.1-.3.2-.3.3-.2.3-.1.7.2 1 .3.2.7.3 1 .3.4-.1.7-.2 1-.4" stroke="#407484"/><path d="m-183.4 176c-.2-.4-.7-.6-1.1-.5s-.7.5-.9.9-.2.8 0 1.1.6.4.9.4c.3-.1.6-.3.9-.6.4-.5.5-1.2.2-1.8-.1.4.1.9.2 1.3.3 1.1.3 2.2-.2 3.1-.1.2-.3.4-.5.4-.5 0-.7-.8-1.2-.9" stroke="#407484"/><path d="m-182.5 176.8c.8-.1 1.5-.2 2.3-.4 0-.5-.4-1-.9-1.1s-1.1.1-1.3.6c-.1.2-.2.5-.1.9 0 .5.2 1.1.7 1.3.2.1.4.1.6.1.5 0 1-.2 1.3-.6" stroke="#407484"/><path d="m-176.4 174.3c.5-.4 1.3-.4 1.8 0 .4.3.4.9.5 1.4v.4c-.1.2-.3.3-.4.3-.5.2-1 .3-1.5.2.7 0 1.5-.1 2.1.2.3.2.7.5.6.9-.3.9-2.2 1.2-2.6.3-.6-.9-.4-2.7-.5-3.7z" stroke="#407484"/><path d="m-173.1 176.1c.5-.6 1.3-.7 2.1-.6.1 0 .3 0 .4.1s.2.3.2.4c.2.8.2 1.6.1 2.5.1-.7-.1-1.3-.5-1.9-.1-.1-.1-.2-.2-.2s-.2 0-.4 0c-.4.1-.7.3-1 .6s-.5.6-.3 1c.1.3.5.5.8.6s.5.1.8.1c.2 0 .4 0 .6-.1s.3-.3.3-.5" stroke="#407484"/><path d="m-169.4 174.6c-.1 1.1-.2 2.2-.1 3.4 0 .2.1.5.3.5.1 0 .2 0 .3-.1.4-.2.8-.4 1.1-.7s.4-.8.2-1.2c-.2-.3-.6-.5-1-.5s-.8.1-1.2.1" stroke="#407484"/><path d="m-166.8 177.5c.6 0 1.3 0 1.9-.1.1 0 .2 0 .2-.1-.1-.5-.5-1-1-1.2s-1.2 0-1.4.5c-.1.2-.1.4-.1.6 0 .3.1.6.2.9.3.5 1 .5 1.6.5.3 0 .6-.1.7-.3-.1 0-.2 0-.3-.1" stroke="#407484"/><path d="m-198 175.7c.7 0 1.4-.1 2.1-.1-.1 0-.2 0-.3 0" stroke="#407484"/><path d="m-197.5 181.5c0-.1 0-.2 0-.2l.3-.3c.4-.2.8-.4 1.3-.3.4 0 .8.2.8.5.1.3-.2.6-.5.8-.5.4-1.1.6-1.7.8.6.1 1.3-.2 1.8.1.3.1.4.4.5.7.1.2.1.4.1.6s-.1.3-.2.4c-.4.7-1.7 1.2-2.3.5-.5-.8-.1-2.7-.1-3.6z" stroke="#407484"/><path d="m-193.8 182.6c-.1.8 0 1.6.1 2.4-.1-.4-.2-.9-.1-1.3 0-.5.2-.9.5-1.2.2-.2.6-.3.8-.1" stroke="#407484"/><path d="m-192 182.5c.3-.4.9-.3 1.3-.1.4.3.6.8.6 1.3s-.1 1-.2 1.5c0-.3.1-.6 0-.9s-.2-.6-.5-.8c-.3-.1-.6-.1-.9 0s-.6.3-.8.6-.1.7.2.9c.2.1.3.1.5.1.3 0 .7 0 1-.2.3-.1.5-.4.6-.8" stroke="#407484"/><path d="m-189.4 182.6c0 .8.1 1.6.1 2.3-.2-1 .1-2.1.9-2.7.1 0 .1-.1.2-.1s.1 0 .2.1c.9.6 1.3 2 .8 3" stroke="#407484"/><path d="m-184 183.4c-.4-.3-.8-.6-1.2-.6s-.8.2-1 .5-.3.7-.3 1.1c0 .1 0 .3.1.4s.2.1.2.2c.3.2.8.4 1.1.3.2-.1.3-.2.4-.3.8-.9 1.1-2.3.7-3.4 0 1.3.2 2.7.3 4" stroke="#407484"/><path d="m-183 183.4c.1.6.2 1.3.2 2 0-.1 0-.1 0-.2" stroke="#407484"/><path d="m-182.8 182.2v.1" stroke="#407484"/><path d="m-182 183v2.3c0-.5 0-1 .2-1.5s.5-.9.9-1.1c.1 0 .1-.1.2 0 .1 0 .2.1.2.2.6.8.8 1.8.7 2.7" stroke="#407484"/><path d="m-177 183.4c-.2-.4-.7-.6-1.2-.4s-.6.6-.8 1.1c-.1.3-.1.5 0 .8s.2.5.5.6c.4.1.8-.2 1.1-.5.3-.4.6-.9.5-1.4 0-.3-.1-.6-.4-.7-.2.3 0 .7.1 1 .3.7.4 1.5.5 2.3 0 .3 0 .7-.2 1s-.6.4-.9.4c-.6 0-1.2-.3-1.5-.8" stroke="#407484"/><path d="m-173.6 181.5c-.1 1.3-.2 2.6-.4 3.9 0-.1-.1-.1 0-.2" stroke="#407484"/><path d="m-172.6 185.4c0-.7 0-1.4-.2-2.1 0 0 0-.1-.1-.1v.1" stroke="#407484"/><path d="m-172.7 182.2c0 .1 0 .1 0 0" stroke="#407484"/><path d="m-169.5 181.7c-.5.6-1.5 1.3-1.9 2-.3.7.9 1.4 1.5 1.9 0 0 .1.1.1 0 0 0 .1-.1 0-.1" stroke="#407484"/><path d="m-169.1 184c.6 0 1.2 0 1.8-.1.1-.3-.3-.6-.6-.7-.5 0-1.1.3-1.2.8-.3.5 0 1.1.5 1.3s1.1 0 1.3-.5" stroke="#407484"/><path d="m-171.3 181.8c0 1.2.1 2.3.2 3.5" stroke="#407484"/><path d="m-197.2 187.2c0 1.4.1 2.7.1 4.1 0 .1 0 .3.1.4 0 .1.1.1.2.1.5.2 1.1.2 1.5 0" stroke="#407484"/><path d="m-194.2 189.6c0 .6-.1 1.3-.1 1.9" stroke="#407484"/><path d="m-192.2 189.1c-.2-.2-.6-.3-.9-.1s-.5.5-.6.8v.2c0 .1.2.2.3.2.4.1.8.1 1.1.3.4.1.7.5.7.8 0 .1 0 .2-.1.2 0 0-.1.1-.2.1-.3.1-.6.2-.9.1-.3 0-.6-.2-.7-.5" stroke="#407484"/><path d="m-190.2 187.3c-.1 1.5-.1 3.1.1 4.6" stroke="#407484"/><path d="m-191.6 189.6c.7 0 1.3-.1 2-.1.1 0 .2 0 .3-.1" stroke="#407484"/><path d="m-189.3 190.7c.7 0 1.3-.1 2-.1 0-.3 0-.5-.1-.8-.1-.2-.3-.5-.6-.5-.4-.1-.8.2-1 .5-.1.2-.2.5-.3.9 0 .2.1.6.4.8s.6.3.9.3.7 0 .8-.3" stroke="#407484"/><path d="m-186.4 189.3c0 .8 0 1.7.1 2.5.1-.6-.1-1.2.2-1.8.3-.5 1-.7 1.5-.4.5.4.5 1 .5 1.6v.7" stroke="#407484"/><path d="m-180.8 189.8c.8-.2 1.6-.3 2.4-.3h.1s0-.1-.1-.1" stroke="#407484"/><path d="m-180 188c-.2 1.1-.4 2.2-.1 3.2.1.2.2.4.3.6.2.1.5.2.6 0" stroke="#407484"/><path d="m-177.3 189.5c-.3.2-.5.5-.6.8-.1.2-.1.5-.1.8s.2.5.4.6.6.1.8-.1c.6-.3.8-1.2.4-1.8-.1-.1-.2-.2-.3-.3-.3-.1-.6-.1-.9.1" stroke="#407484"/><path d="m-173.2 189.6c-.1.6-.1 1.2 0 1.8 0-.7.2-1.3.6-1.8.1-.2.3-.3.6-.3.1 0 .2.1.2.2.4.6.5 1.4.3 2.1.1-.5.2-.9.4-1.3.1-.2.2-.4.3-.5.2-.1.4-.2.6-.1.1.1.2.2.3.3.2.4.3.9.2 1.3" stroke="#407484"/><path d="m-168.8 190.4c.5 0 .9-.1 1.4-.3-.1-.4-.2-.9-.6-1-.3-.1-.6.1-.8.4s-.4.7-.4 1.1v.4c.1.3.5.5.8.5.4 0 .9-.1 1.1-.5" stroke="#407484"/><path d="m-197.5 193.4c.2 1.5.5 3.1 1.4 4.4 0-1.2.2-2.3.6-3.4.1 1.1.4 2.2 1 3.2 0 .1.1.1.2.1.3-1.1.4-2.3.5-3.4" stroke="#407484"/><path d="m-193.1 195.7c.2-.4.6-.7 1.1-.8h.3c.1 0 .2.1.2.2.4.6.5 1.3.4 2 0-.4-.1-.7-.3-1s-.7-.4-1-.2c-.1.1-.2.2-.3.3-.2.2-.3.6-.2.9.1.2.3.4.6.5s.6.1.8.1c.3-.1.5-.3.5-.6" stroke="#407484"/><path d="m-190.3 195.5c.1.7.3 1.3.4 2 0-.1 0-.1 0-.2" stroke="#407484"/><path d="m-189 193.9c0 1.3 0 2.6.1 3.9" stroke="#407484"/><path d="m-190.6 194.8v.1" stroke="#407484"/><path d="m-189.6 195h1.6" stroke="#407484"/><path d="m-187.2 195.4c0 .7 0 1.4.2 2.1" stroke="#407484"/><path d="m-187.4 194.7s0 .1 0 0" stroke="#407484"/><path d="m-186.7 195c0 .8.1 1.6.2 2.3 0-.7 0-1.5.4-2.1.1-.1.3-.3.4-.2.1 0 .1.1.2.1.2.2.4.5.6.8.1.3.1.7.1 1v.7" stroke="#407484"/><path d="m-182.7 195.8c.1-.3-.2-.5-.5-.5s-.5.2-.7.4c-.2.3-.3.7-.3 1.1.1.4.3.8.7.9.2.1.3.1.5.1.4-.1.6-.4.7-.7.1-.4.2-.8.1-1.2.1.7.2 1.3.4 2 .1.4.2.8 0 1.1-.2.4-.8.4-1.2.2-.4-.1-.8-.4-1.2-.5" stroke="#407484"/><path d="m-177.7 194.6c-.3-.2-.6-.3-1-.3-.4.1-.7.3-.9.6-.3.5-.2 1.1-.1 1.6s.1 1 .2 1.5c0-.2 0-.3 0-.5" stroke="#407484"/><path d="m-180.2 195.8c.6-.1 1.2-.1 1.8-.1" stroke="#407484"/><path d="m-176.6 195.6c-.5-.2-1.1.1-1.3.5-.2.5 0 1.1.4 1.4.2.1.3.2.5.2s.4 0 .5-.1c.4-.2.7-.8.5-1.2-.1-.5-.6-.8-1.1-.8" stroke="#407484"/><path d="m-175.1 195.5c-.1.7 0 1.4.2 2 .1-.3 0-.6 0-1 0-.3.1-.7.3-.9.2-.1.5-.1.7-.1" stroke="#407484"/><path d="m-172.5 195.7c.3.7.6 1.4 1.1 2 0 0 .1.1.2.1s.1-.1.1-.1" stroke="#407484"/><path d="m-170.8 195.3c-.1.7-.2 1.3-.4 2-.1.6-.2 1.1-.5 1.6s-.9.8-1.4.7" stroke="#407484"/><path d="m-170.2 197.3c.2.4.6.6 1 .6.2 0 .4-.2.6-.4.5-.6.4-1.9-.5-2-1-.2-1.4 1.2-1.1 1.8z" stroke="#407484"/><path d="m-167.9 195.5c0 .5 0 1 .1 1.5.1.3.4.6.7.6s.6-.3.8-.5c.3-.4.4-1 .3-1.5-.1-.1-.2.1-.2.2 0 .8.1 1.5.4 2.2" stroke="#407484"/><path d="m-195.2 200.5c-.2-.3-.4-.6-.8-.7-.5-.1-1 .3-1.2.7 0 .1-.1.2-.1.3s.1.2.1.2c.6.5 1.6.5 2 1.2.3.4.2 1-.1 1.3s-.8.4-1.2.3-.8-.4-1-.7" stroke="#407484"/><path d="m-193.9 200.4c0 1.3.1 2.5.1 3.8" stroke="#407484"/><path d="m-194.6 201.6c.6 0 1.2.1 1.9.1.1.9.5 1.9.5 2.8 0-.5 0-.9-.1-1.4 0-.4 0-.7.2-1s.7-.4.9-.1" stroke="#407484"/><path d="m-191.1 203.2c.7-.1 1.5-.1 2.2-.2 0-.3-.1-.6-.3-.9-.1-.1-.1-.2-.2-.2-.2-.1-.4 0-.5 0-.5.2-1 .6-1.1 1.1-.1.6.2 1.2.7 1.4s1.2 0 1.5-.6" stroke="#407484"/><path d="m-188.2 202.4c.2-.2.4-.4.7-.6.3-.1.6-.1.8.1.1.1.2.2.2.4.2.6.3 1.2.1 1.8.1-.3 0-.7-.2-1s-.6-.4-.9-.3c-.1.1-.3.1-.4.3-.2.3-.3.7-.2 1s.5.6.9.6.7-.4.7-.7" stroke="#407484"/><path d="m-185.7 201.7c0 .8 0 1.6.1 2.4 0-.2 0-.4 0-.6 0-.4 0-.8.2-1.1s.7-.4 1-.1c.1.1.1.3.1.5 0 .5 0 1-.1 1.4 0-.8.3-1.5.7-2.1 0-.1.1-.1.2-.2.1 0 .3.1.3.2.4.6.6 1.3.4 2" stroke="#407484"/><path d="m-181.7 202.4v2.3" stroke="#407484"/><path d="m-181.8 201.5s0 .1-.1.1" stroke="#407484"/><path d="m-180.7 202.3c-.1 0-.1 0-.1.1v1.4c0 .2 0 .5.2.7 0-.7 0-1.4.5-1.9.2-.2.4-.3.6-.2s.3.2.4.4c.2.5.3 1 .1 1.5v.1s.1-.1 0-.1" stroke="#407484"/><path d="m-176.2 202.8c0-.4-.4-.7-.8-.6-.4 0-.7.3-.9.7-.1.2-.2.3-.3.5-.1.5.3 1.1.8 1.2s1-.2 1.2-.6c.3-.4.3-.9.3-1.4.1 1.1.1 2.1.2 3.2 0 .1 0 .3-.1.4s-.2.1-.3.1c-.4 0-.8.1-1.1 0-.4-.1-.7-.3-.9-.6" stroke="#407484"/><path d="m-173.8 201.7c0-.1 0-.1 0-.2s.1-.1.2-.1c.3-.1.7-.2 1 0s.4.6.4.9v.4c-.1.1-.2.2-.3.2-.3.2-.7.3-1 .3.5 0 1 0 1.4.2s.8.7.6 1.2c-.1.4-.6.7-1 .7-1 .2-1-.2-1.1-1.1 0-.8-.1-1.7-.2-2.5z" stroke="#407484"/><path d="m-170.3 205.3c.3.2.7.3 1 .2.1 0 .1-.1.2-.1.1-.1.2-.2.3-.4.1-.3.3-.5.3-.8.2-2.2-4.1-.5-1.8 1.1z" stroke="#407484"/><path d="m-163.2 170.6c.2.1.3.3.4.4 0 .1.1.1.2.2.2 0 .3-.1.3-.3s.1-.3.2-.4c-.2.4-.4.8-.6 1.1" stroke="#dee0e0"/><path d="m-161.7 171.3c0 .3.3.6.6.5.2-.1.5-.6.4-.9-.2-.7-1-.1-1 .4z" stroke="#dee0e0"/><path d="m-160.3 170.6v.6c0 .3.1.6.3.6.3 0 .4-.3.4-.6 0-.2 0-.4-.1-.6" stroke="#dee0e0"/><path d="m-159.1 171.7c0-.4 0-.8-.2-1.1.2-.1.4-.1.6 0s.4.3.3.5-.3.2-.5.2c.3.1.6.2.8.3" stroke="#dee0e0"/><path d="m-156.8 171.6c-.1-.4-.1-.7-.1-1.1.2 0 .5-.1.7-.1.1.2-.1.6-.3.6.2-.2.6 0 .6.3 0 .4-.7.5-.9.3z" stroke="#dee0e0"/><path d="m-155.5 171.8c-.1-.5-.1-1-.1-1.5.2 0 .4-.1.6 0s.3.4.2.6-.4.3-.6.2c.3.2.5.3.8.5" stroke="#dee0e0"/><path d="m-153.2 171.6c0-.3-.1-.7-.1-1 .3.4.6.7.9 1.1 0-.4 0-.8 0-1.1v-.1.1" stroke="#dee0e0"/><path d="m-151.9 170.6c0 .4 0 .8.2 1.1.2-.1.3-.3.4-.5s.1-.5 0-.6-.5-.2-.6 0" stroke="#dee0e0"/><path d="m-154.4 171.6c0-.4.3-.8.6-1 .2.4.4.7.5 1.1" stroke="#dee0e0"/><path d="m-154.3 171.2c.4-.2.7-.3 1.1-.3" stroke="#dee0e0"/><path d="m-163.2 177.7c.2.1.3.3.4.4 0 .1.1.1.2.2.2 0 .3-.1.3-.3s.1-.3.2-.4c-.2.4-.4.8-.6 1.1" stroke="#407484"/><path d="m-161.7 178.4c0 .3.3.6.6.5.2-.1.5-.6.4-.9-.2-.7-1-.1-1 .4z" stroke="#407484"/><path d="m-160.3 177.7v.6c0 .3.1.6.3.6.3 0 .4-.3.4-.6 0-.2 0-.4-.1-.6" stroke="#407484"/><path d="m-159.1 178.9c0-.4 0-.8-.2-1.1.2-.1.4-.1.6 0s.4.3.3.5-.3.2-.5.2c.3.1.6.2.8.3" stroke="#407484"/><path d="m-156.8 178.7c-.1-.4-.1-.7-.1-1.1.2 0 .5-.1.7-.1.1.2-.1.6-.3.6.2-.2.6 0 .6.3 0 .4-.7.5-.9.3z" stroke="#407484"/><path d="m-155.5 178.9c-.1-.5-.1-1-.1-1.5.2 0 .4-.1.6 0s.3.4.2.6-.4.3-.6.2c.3.2.5.3.8.5" stroke="#407484"/><path d="m-153.2 178.7c0-.3-.1-.7-.1-1 .3.4.6.7.9 1.1 0-.4 0-.8 0-1.1v-.1.1" stroke="#407484"/><path d="m-151.9 177.7c0 .4 0 .8.2 1.1.2-.1.3-.3.4-.5s.1-.5 0-.6-.5-.2-.6 0" stroke="#407484"/><path d="m-154.4 178.7c0-.4.3-.8.6-1 .2.4.4.7.5 1.1" stroke="#407484"/><path d="m-154.3 178.3c.4-.2.7-.3 1.1-.3" stroke="#407484"/><path d="m-163.2 183.9c.2.1.3.3.4.4 0 .1.1.1.2.2.2 0 .3-.1.3-.3s.1-.3.2-.4c-.2.4-.4.8-.6 1.1" stroke="#407484"/><path d="m-161.7 184.6c0 .3.3.6.6.5.2-.1.5-.6.4-.9-.2-.7-1-.1-1 .4z" stroke="#407484"/><path d="m-160.3 183.9v.6c0 .3.1.6.3.6.3 0 .4-.3.4-.6 0-.2 0-.4-.1-.6" stroke="#407484"/><path d="m-159.1 185.1c0-.4 0-.8-.2-1.1.2-.1.4-.1.6 0s.4.3.3.5-.3.2-.5.2c.3.1.6.2.8.3" stroke="#407484"/><path d="m-156.8 185c-.1-.4-.1-.7-.1-1.1.2 0 .5-.1.7-.1.1.2-.1.6-.3.6.2-.2.6 0 .6.3s-.7.4-.9.3z" stroke="#407484"/><path d="m-155.5 185.1c-.1-.5-.1-1-.1-1.5.2 0 .4-.1.6 0s.3.4.2.6-.4.3-.6.2c.3.2.5.3.8.5" stroke="#407484"/><path d="m-153.2 185c0-.3-.1-.7-.1-1 .3.4.6.7.9 1.1 0-.4 0-.8 0-1.1v-.1.1" stroke="#407484"/><path d="m-151.9 183.9c0 .4 0 .8.2 1.1.2-.1.3-.3.4-.5s.1-.5 0-.6c-.2-.1-.5-.1-.6 0" stroke="#407484"/><path d="m-154.4 184.9c0-.4.3-.8.6-1 .2.4.4.7.5 1.1" stroke="#407484"/><path d="m-154.3 184.5c.4-.2.7-.3 1.1-.3" stroke="#407484"/><path d="m-163.2 189.3c.2.1.3.3.4.4 0 .1.1.1.2.2.2 0 .3-.1.3-.3s.1-.3.2-.4c-.2.4-.4.8-.6 1.1" stroke="#407484"/><path d="m-161.7 189.9c0 .3.3.6.6.5.2-.1.5-.6.4-.9-.2-.7-1-.1-1 .4z" stroke="#407484"/><path d="m-160.3 189.3v.6c0 .3.1.6.3.6.3 0 .4-.3.4-.6 0-.2 0-.4-.1-.6" stroke="#407484"/><path d="m-159.1 190.4c0-.4 0-.8-.2-1.1.2-.1.4-.1.6 0s.4.3.3.5-.3.2-.5.2c.3.1.6.2.8.3" stroke="#407484"/><path d="m-156.8 190.3c-.1-.4-.1-.7-.1-1.1.2 0 .5-.1.7-.1.1.2-.1.6-.3.6.2-.2.6 0 .6.3s-.7.5-.9.3z" stroke="#407484"/><path d="m-155.5 190.5c-.1-.5-.1-1-.1-1.5.2 0 .4-.1.6 0s.3.4.2.6-.4.3-.6.2c.3.2.5.3.8.5" stroke="#407484"/><path d="m-153.2 190.3c0-.3-.1-.7-.1-1 .3.4.6.7.9 1.1 0-.4 0-.8 0-1.1v-.1.1" stroke="#407484"/><path d="m-151.9 189.3c0 .4 0 .8.2 1.1.2-.1.3-.3.4-.5s.1-.5 0-.6-.5-.2-.6 0" stroke="#407484"/><path d="m-154.4 190.2c0-.4.3-.8.6-1 .2.4.4.7.5 1.1" stroke="#407484"/><path d="m-154.3 189.9c.4-.2.7-.3 1.1-.3" stroke="#407484"/><path d="m-163.2 196.4c.2.1.3.3.4.4 0 .1.1.1.2.2.2 0 .3-.1.3-.3s.1-.3.2-.4c-.2.4-.4.8-.6 1.1" stroke="#407484"/><path d="m-161.7 197c0 .3.3.6.6.5.2-.1.5-.6.4-.9-.2-.7-1 0-1 .4z" stroke="#407484"/><path d="m-160.3 196.4v.6c0 .3.1.6.3.6.3 0 .4-.3.4-.6 0-.2 0-.4-.1-.6" stroke="#407484"/><path d="m-159.1 197.5c0-.4 0-.8-.2-1.1.2-.1.4-.1.6 0s.4.3.3.5-.3.2-.5.2c.3.1.6.2.8.3" stroke="#407484"/><path d="m-156.8 197.4c-.1-.4-.1-.7-.1-1.1.2 0 .5-.1.7-.1.1.2-.1.6-.3.6.2-.2.6 0 .6.3 0 .4-.7.5-.9.3z" stroke="#407484"/><path d="m-155.5 197.6c-.1-.5-.1-1-.1-1.5.2 0 .4-.1.6 0s.3.4.2.6-.4.3-.6.2c.3.2.5.3.8.5" stroke="#407484"/><path d="m-153.2 197.4c0-.3-.1-.7-.1-1 .3.4.6.7.9 1.1 0-.4 0-.8 0-1.1v-.1.1" stroke="#407484"/><path d="m-151.9 196.4c0 .4 0 .8.2 1.1.2-.1.3-.3.4-.5s.1-.5 0-.6-.5-.2-.6 0" stroke="#407484"/><path d="m-154.4 197.4c0-.4.3-.8.6-1 .2.4.4.7.5 1.1" stroke="#407484"/><path d="m-154.3 197c.4-.2.7-.3 1.1-.3" stroke="#407484"/><path d="m-163.2 203.5c.2.1.3.3.4.4 0 .1.1.1.2.2.2 0 .3-.1.3-.3s.1-.3.2-.4c-.2.4-.4.8-.6 1.1" stroke="#407484"/><path d="m-161.7 204.2c0 .3.3.6.6.5.2-.1.5-.6.4-.9-.2-.7-1-.1-1 .4z" stroke="#407484"/><path d="m-160.3 203.5v.6c0 .3.1.6.3.6.3 0 .4-.3.4-.6 0-.2 0-.4-.1-.6" stroke="#407484"/><path d="m-159.1 204.7c0-.4 0-.8-.2-1.1.2-.1.4-.1.6 0s.4.3.3.5-.3.2-.5.2c.3.1.6.2.8.3" stroke="#407484"/><path d="m-156.8 204.5c-.1-.4-.1-.7-.1-1.1.2 0 .5-.1.7-.1.1.2-.1.6-.3.6.2-.2.6 0 .6.3 0 .4-.7.5-.9.3z" stroke="#407484"/><path d="m-155.5 204.7c-.1-.5-.1-1-.1-1.5.2 0 .4-.1.6 0s.3.4.2.6-.4.3-.6.2c.3.2.5.3.8.5" stroke="#407484"/><path d="m-153.2 204.5c0-.3-.1-.7-.1-1 .3.4.6.7.9 1.1 0-.4 0-.8 0-1.1v-.1.1" stroke="#407484"/><path d="m-151.9 203.5c0 .4 0 .8.2 1.1.2-.1.3-.3.4-.5s.1-.5 0-.6-.5-.2-.6 0" stroke="#407484"/><path d="m-154.4 204.5c0-.4.3-.8.6-1 .2.4.4.7.5 1.1" stroke="#407484"/><path d="m-154.3 204.1c.4-.2.7-.3 1.1-.3" stroke="#407484"/><path d="m-148.7 170.8c.2-.2.5-.3.8-.2.1.2-.1.4-.3.5s-.4.2-.5.4h1" stroke="#dee0e0"/><path d="m-147.1 170.6.1-.1" stroke="#dee0e0"/><path d="m-147.1 171.5s.1 0 0 0" stroke="#dee0e0"/><path d="m-145.7 170.4c-.2-.1-.4-.1-.6.1s-.3.4-.2.6c.2-.3.7-.2.7.1.1.3-.3.6-.6.4" stroke="#dee0e0"/><path d="m-144.7 170.5c-.4 0-.7.4-.8.7 0 .3.2.6.4.5.1 0 .2-.1.3-.2.2-.2.3-.4.3-.7s-.4-.5-.5-.3" stroke="#dee0e0"/><path d="m-148.7 189.5c.2-.2.5-.3.8-.2.1.2-.1.4-.3.5s-.4.2-.5.4h1" stroke="#407484"/><path d="m-147.1 189.3.1-.1" stroke="#407484"/><path d="m-147.1 190.1s.1 0 0 0" stroke="#407484"/><path d="m-145.7 189.1c-.2-.1-.4-.1-.6.1s-.3.4-.2.6c.2-.3.7-.2.7.1.1.3-.3.6-.6.4" stroke="#407484"/><path d="m-144.7 189.2c-.4 0-.7.4-.8.7 0 .3.2.6.4.5.1 0 .2-.1.3-.2.2-.2.3-.4.3-.7s-.4-.5-.5-.3" stroke="#407484"/><path d="m-147.9 177.2c-.3 0-.5 0-.8 0v.7c.2-.3.7-.3.9.1v.1c0 .1 0 .1-.1.2-.1.2-.3.3-.5.4s-.5-.1-.5-.3" stroke="#407484"/><path d="m-147.2 177.3v.2" stroke="#407484"/><path d="m-146.2 176.8c.9-.3.4 2-.3 1.4-.3-.2-.1-1.2.3-1.4z" stroke="#407484"/><path d="m-144.4 176.8c.9-.3.4 2-.3 1.4-.3-.2-.1-1.2.3-1.4z" stroke="#407484"/><path d="m-147.9 196.7c-.3 0-.5 0-.8 0v.7c.2-.3.7-.3.9.1v.1c0 .1 0 .1-.1.2-.1.2-.3.3-.5.4s-.5-.1-.5-.3" stroke="#407484"/><path d="m-147.2 196.8v.2" stroke="#407484"/><path d="m-146.2 196.4c.9-.3.4 2-.3 1.4-.3-.3-.1-1.2.3-1.4z" stroke="#407484"/><path d="m-144.4 196.4c.9-.3.4 2-.3 1.4-.3-.3-.1-1.2.3-1.4z" stroke="#407484"/><path d="m-148.8 182.9c.2 0 .4-.2.6-.3s.5-.1.6.1c.1.1 0 .3-.1.4s-.3.1-.5.2c.2-.2.6.1.6.4s-.3.5-.6.5c-.2 0-.4-.1-.5-.2" stroke="#407484"/><path d="m-146.9 182.9c-.1 0 0 0 0 0" stroke="#407484"/><path d="m-147.1 183.9c.1.1 0 .2.1.2h.1" stroke="#407484"/><path d="m-146.4 183c0-.2.2-.3.3-.3s.3.2.3.3-.1.2-.1.2c-.1.2-.3.4-.5.5 0 .1 0 .1.1.2.3 0 .6 0 .9-.1" stroke="#407484"/><path d="m-144.4 182.9c-.2-.2-.4-.3-.6-.2s-.4.2-.4.5c0 .2.3.4.5.3.1 0 .1-.1.2-.2.1-.2.3-.4.3-.7 0 .3.4.6.4 1 0 .3-.3.4-.6.5-.1 0-.2 0-.2 0-.1 0-.1-.1-.1-.2" stroke="#407484"/><path d="m-148.8 203.4c.2 0 .4-.2.6-.3s.5-.1.6.1c.1.1 0 .3-.1.4s-.3.1-.5.2c.2-.2.6.1.6.4s-.3.5-.6.5c-.2 0-.4-.1-.5-.2" stroke="#407484"/><path d="m-146.9 203.4c-.1 0 0 0 0 0" stroke="#407484"/><path d="m-147.1 204.3s0 .1 0 0c.1.1 0 .2.1.2s.1 0 .1 0" stroke="#407484"/><path d="m-146.4 203.5c0-.2.2-.3.3-.3.2 0 .3.2.3.3s-.1.2-.1.2c-.1.2-.3.4-.5.5 0 .1 0 .1.1.2.3 0 .6 0 .9-.1" stroke="#407484"/><path d="m-144.4 203.4c-.2-.2-.4-.3-.6-.2s-.4.2-.4.5c0 .2.3.4.5.3.1 0 .1-.1.2-.2.1-.2.3-.4.3-.7 0 .3.4.6.4 1 0 .3-.3.4-.6.5-.1 0-.2 0-.2 0-.1 0-.1-.1-.1-.2" stroke="#407484"/><path d="m-199.7 169c0-.2-.1-.3-.3-.4s-.3-.2-.5-.2c-.5 0-.9.2-1.2.6 0-.3-.2-.6-.5-.7-.2-.1-.5 0-.7.2-.1.1-.1.2-.2.4-.1.5.1.9.4 1.3s.7.6 1.1.9c.1.1.2.2.4.1.1 0 .2-.1.3-.1.4-.2.7-.5 1-.8.2-.4.3-.8.2-1.3z" stroke="#dee0e0"/><path d="m-199.7 176.2c0-.2-.1-.3-.3-.4s-.3-.2-.5-.2c-.5 0-.9.2-1.2.6 0-.3-.2-.6-.5-.7-.2-.1-.5 0-.7.2-.1.1-.1.2-.2.4-.1.5.1.9.4 1.3s.7.6 1.1.9c.1.1.2.2.4.1.1 0 .2-.1.3-.1.4-.2.7-.5 1-.8.2-.5.3-.9.2-1.3z" stroke="#407484"/><path d="m-199.7 182.4c0-.2-.1-.3-.3-.4s-.3-.2-.5-.2c-.5 0-.9.2-1.2.6 0-.3-.2-.6-.5-.7-.2-.1-.5 0-.7.2-.1.1-.1.2-.2.4-.1.5.1.9.4 1.3s.7.6 1.1.9c.1.1.2.2.4.1.1 0 .2-.1.3-.1.4-.2.7-.5 1-.8.2-.4.3-.9.2-1.3z" stroke="#407484"/><path d="m-199.7 189.5c0-.2-.1-.3-.3-.4s-.3-.2-.5-.2c-.5 0-.9.2-1.2.6 0-.3-.2-.6-.5-.7-.2-.1-.5 0-.7.2-.1.1-.1.2-.2.4-.1.5.1.9.4 1.3s.7.6 1.1.9c.1.1.2.2.4.1.1 0 .2-.1.3-.1.4-.2.7-.5 1-.8.2-.4.3-.9.2-1.3z" stroke="#407484"/><path d="m-199.7 195.7c0-.2-.1-.3-.3-.4s-.3-.2-.5-.2c-.5 0-.9.2-1.2.6 0-.3-.2-.6-.5-.7-.2-.1-.5 0-.7.2-.1.1-.1.2-.2.4-.1.5.1.9.4 1.3s.7.6 1.1.9c.1.1.2.2.4.1.1 0 .2-.1.3-.1.4-.2.7-.5 1-.8.2-.4.3-.9.2-1.3z" stroke="#407484"/><path d="m-199.7 202.8c0-.2-.1-.3-.3-.4s-.3-.2-.5-.2c-.5 0-.9.2-1.2.6 0-.3-.2-.6-.5-.7-.2-.1-.5 0-.7.2-.1.1-.1.2-.2.4-.1.5.1.9.4 1.3s.7.6 1.1.9c.1.1.2.2.4.1.1 0 .2-.1.3-.1.4-.2.7-.5 1-.8.2-.4.3-.8.2-1.3z" stroke="#407484"/></g><path d="m-129.1 97.1c-.8-1.4-2.4-2.3-4.1-2.7-3.2-.8-6.9.1-9.2 2.5s-2.7 6.1-1.2 9.1c-1.5-.2-4.6.4-3.5 2.2.7 1.2 4.9.9 6 .8 5-.3 15.6-5.5 12-11.9z" fill="#f193be"/><path d="m109.9 86.7s56-2.7 63.2-1.8 15.1-.9 16 18.7 3.6 120.1-14.2 127.2-67.6 1.8-72-.9-4.4-11.6-4.4-24.9.9-105.8 1.8-110.3c.7-4.5 4.3-8 9.6-8z"/><path d="m111.7 90.4s52.7-2.5 59.4-1.7 14.2-.8 15.1 17.6 3.3 113-13.4 119.7-63.6 1.7-67.8-.8-4.2-10.9-4.2-23.4.8-99.6 1.7-103.8 4.2-7.6 9.2-7.6z" fill="#73becb"/><path d="m98.6 189.4s-6 3.6-3.4 10.7c2.7 7.1 17.8 29.4 40.9 28.5s45.4-13.3 56-25.8 31.1-47.1 8-108.5-36.5-12.5-36.5-12.5l2 1.6s13.1-41.7 31.8 11.7 8.9 118.3-53.4 128.1c.2 0-39.2 0-45.4-33.8z"/><path d="m160.9 85.3s.2-2.7 2.9-3.6 3.1 3.7 3.1 3.7z"/><path d="m92.6 122.7c-.7 1.1-1.3 2.2-1.8 3.4-.5 1.1-.7 2.4-.6 3.7.1 3.1 1.6 6.2 4 8.1s5.8 2.6 8.8 1.6c1.6-.5 2.9-1.5 4.1-2.6 2.1-2 3.6-4.7 3.8-7.7.3-5.6-4.5-12.9-10.7-11.6-2 .4-3.9 1.6-5.5 2.9-.8.6-1.5 1.3-2.1 2.2z" fill="#08984b"/><path d="m97.6 122.3s-1.9 13.2.6 12.9c2.6-.3 9-5.5 8.4-6.4-.6-1.1-9.3-10.4-9-6.5z"/><path d="m94.8 158.8c.3-.1 0-5.7 1.1-6.3s3.4 4.3 3.4 4.3 4.3-1.4 4.6-1.4-2.6 4.3-2.6 4.3 3.4 3.4 2.3 4-5.5-1.4-5.5-1.4-.9 4.6-2 4.3-1.1-4.6-1.1-4.6-8.9 0-.2-3.2z" fill="#f9483b"/><path d="m94 217.2c.4 0 .8-.3 1.4-.8.7-.7 1.4-1.4 2.1-2 .3-.3.6-.6.5-1 0-.3-.2-.5-.4-.7-1-1.1-1.9-2.3-2.6-3.7-.3-.6-.6-1.4-.1-1.8.3-.3.7-.3 1.1-.3 4 0 8 .1 12.1.2.2 0 .5 0 .7.2s.3.5.3.8c.4 4.6-.5 9.4-2.6 13.5-.2.4-.4.7-.7.9-.4.2-.9.2-1.3.1-1.3-.2-2.5-.9-3.5-1.8-1.6 2.9-4.9 4.8-8.2 4.7-1.3 0-2.6-.3-3.5-1.1-1.2-1-1.8-2.7-2-4.2-.3-1.6-.9-5.1 1.6-5.3 1.1-.1 2.2.6 3.1 1.2.9.7 1.4 1.1 2 1.1z" fill="#f193be"/><path d="m172.1 215.1c-.7-1.1-2-1.8-3.3-2.2-.9-.3-1.8-.5-2.8-.4-1.5.2-2.7 1.2-3.7 2.4-.1.1-.2.1-.3 0 0 0 0-.1-.1-.1-1.4-2.1-4.6-1.8-5.6.5-.1.1-.1.3-.2.4-.4.9-.7 2-.4 3 .3 1.1 1.4 1.8 2.3 2.4 2.1 1.3 4.2 2.7 6.3 3.9.6.4 1.3.7 2 .6.5-.1.9-.4 1.2-.7 1.6-1.2 3.2-2.5 4.2-4.2 1.2-1.7 1.5-4 .4-5.6z" fill="#f9483b"/><path d="m123.7 121.8c.9 16.9 10.4 23.1 23.1 23.1s23.1-10.4 23.1-23.1-6.2-23.1-23.1-23.1c-12.7 0-23.7 10.3-23.1 23.1z" fill="#f9483b"/><path d="m137.6 146.9c-3.1-1-6.1 2-4.8 5.1.6 1.3 1.9 2.3 3.4 1.9s2.2-2 1.8-3.4c0-.1-.2-.2-.3-.2-.7 0-1.8-.3-2.3.1-.1.1-.2.2-.2.4v.1c0 .1.2.2.3.2h.1c.4 0 .4-.6 0-.7 0 .5.2.6.6.5h1c.7.6-.2 1.8-.7 2.1-1.3.9-2.9-.3-3.3-1.6-.8-2.6 1.6-4.7 4.1-3.9.5.2.7-.5.3-.6z" fill="#f7f5f5"/><path d="m142.2 146.7c-2.1.2-3.4 2.4-3.1 4.5.3 1.7 2.6 2.6 4.1 2.2 3.7-.8 1.9-8.4-2.1-6.4-.4.2 0 .8.3.6 3.1-1.6 4.4 4.7 1.4 5.2-1.3.2-3-.5-3.2-1.9-.1-1.5.8-3.3 2.4-3.4.6-.2.6-.8.2-.8z" fill="#f7f5f5"/><path d="m149.4 146.7c-1.7.4-2.7 1.8-2.8 3.6-.1 1.9 1.5 3 3.3 2.8 1.6-.2 2.9-1.8 2.7-3.4-.1-1.8-2-2.8-3.6-2.6-.4 0-.4.7 0 .7 1-.1 2.1.3 2.7 1.2 1 1.5-.5 3.5-2.2 3.6-3.4.1-2.6-4.5.1-5.1.4-.2.2-.9-.2-.8z" fill="#f7f5f5"/><path d="m153.9 147.8c.1 1.2.2 2.5.3 3.7 0 .5-.1 1.6.5 1.9.5.3 1.3-.1 1.8-.3.8-.3 1.6-.8 2.1-1.5.9-1.1 1-2.9-.2-3.9-1.3-1.1-3.4-1.1-4.8-.3-.4.2 0 .8.3.6 1.1-.6 2.7-.7 3.7 0 1.4.9.9 2.8-.2 3.7-.4.4-1.2.8-1.7.9-.9.2-1-.7-1-1.4-.1-1.2-.2-2.3-.3-3.5.1-.3-.6-.3-.5.1z" fill="#f7f5f5"/><path d="m132.9 156.5c.8.9 1.6 1.8 2.3 2.8.4.4.9 1.3 1.5 1 .6-.2.7-.9.8-1.4.3-1.1.6-2.3.9-3.4.1-.4-.5-.6-.6-.2-.2.7-.4 1.5-.6 2.2-.1.5-.3 1.7-.8 1.9-.5.1-1.2-1-1.6-1.5-.5-.6-1-1.2-1.6-1.8-.1-.4-.6 0-.3.4z" fill="#f7f5f5"/><path d="m139.9 156.2c.1 1.3.2 2.6.2 3.9 0 .4.7.4.7 0-.1-1.3-.2-2.6-.2-3.9 0-.5-.7-.5-.7 0z" fill="#f7f5f5"/><path d="m140.2 154.4c.4 0 .4-.7 0-.7-.5 0-.5.7 0 .7z" fill="#f7f5f5"/><path d="m143 160.7c-.1-1.3-.2-2.5-.5-3.8-.1-.6-.2-.6.2-1.2.5-.7.9-.8 1.6-.2.5.2.6.5.2.9-.1.3-.2.5-.5.7-.3.3-.7.4-1 .6-.4.2-.1.7.3.6 1.1-.3 2.8-.4 2.4 1.6-.4 1.2-1.7 1.2-2.7.8-.3-.3-.7.3-.3.5 1.6.9 3.2.5 3.6-1.5.4-2.1-1.6-2.4-3.3-2.1.1.2.2.4.3.6.9-.4 2-1 2.1-2.2.1-.8-.4-1.4-1.2-1.6-.7-.1-2.3.1-2.6.9-.2.5.2 1.5.3 2 .2 1.1.3 2.2.4 3.4 0 .4.7.4.7 0z" fill="#f7f5f5"/><path d="m150.6 154.6c-1.3 0-2.6 0-3.9.1-.2 0-.3.1-.3.3 0 1.7.1 3.3.1 5 0 .2.1.3.3.3 1.4 0 2.8-.1 4.3-.1.4 0 .4-.7 0-.7-1.4 0-2.8.1-4.3.1l.3.3c0-1.7-.1-3.3-.1-5-.1.1-.2.2-.3.3 1.3-.1 2.6-.1 3.9-.1.5.2.5-.5 0-.5z" fill="#f7f5f5"/><path d="m147 158c.8-.1 1.5-.1 2.3 0 .4 0 .4-.6 0-.7-.8 0-1.5 0-2.3 0-.5.1-.5.7 0 .7z" fill="#f7f5f5"/><path d="m155.9 154.8c-1.2-.8-3.8-.5-3.9 1.4 0 1 .7.9 1.4 1 .4.1.8.2 1.1.5.2.1.4.3.5.5.3.3.3.7-.1 1-.1.5-.3.6-.7.6-.2 0-.5 0-.7-.1-.5-.1-.8-.3-1.2-.6-.4-.2-.7.3-.3.6 1.2.8 4.6 1.3 4-1.2-.2-.8-1-1.6-1.8-1.9-.2-.1-.5-.1-.6-.1-.5.1-.6-.2-.5-.9l.3-.3c.7-.5 1.6-.4 2.3 0 .3.4.6-.2.2-.5z" fill="#f7f5f5"/><path d="m191.6 113.4c-1.3-1-3.1-1.2-4.8-1-3.3.5-6.4 2.6-7.6 5.7-1.3 3.1-.3 6.7 2.2 8.9-1.5.4-4.1 2.1-2.5 3.3 1.1.9 4.9-1 5.9-1.4 4.5-2.2 12.6-10.9 6.8-15.5z" fill="#f193be"/><path d="m128.3 90.7c1.1 1.3 2.3 2.5 3.5 3.7 1.6-3.5 3.5-7 5.6-10.2.2-.3.4-.6.8-.7.2 0 .5.1.7.2.6.3 1.3.6 1.9.9.2.1.5.2.7.4.4.5.1 1.2-.1 1.7-2.1 4.1-5.6 7.5-7 11.9-.2.5-.3 1-.8 1.2-.2.1-.5.1-.7.1-.9.1-1.9.1-2.8.2-.8-1.8-4-3.9-4.4-5.5-.2-.9 2.3-4.3 2.6-3.9z" fill="#08984b"/><path d="m190.8 150.3c-.1-.3-2.3.2-4.3.7-.1-2.2-.3-4.4-.4-6.6-.1-.9-.2-2-1.2-2.4-.6-.3-1.4-.2-2 .1-2.8 1.3-4.2 4.9-3.1 7.7-2.7-.3-5.5.6-7.6 2.3-.6.5-1 1.2-1 2 0 1.6 1.7 2.3 3.2 2.4.2 0 .2.3 0 .3-.9.3-2.1.1-2.7 1.1-.4.7-.2 1.7.4 2.3 1 1 2.4 1 3.7.8.1 0 .1.1 0 .1-1.3.3-3.2.2-3.6 2.2-.1.5-.1.6 0 .9 0 .3.6.9.8 1 2.7 1.5 13.9 1.4 14.6-1.8.2-.9.1-2.1-.1-3.4 1.2-.2 2.5-.4 3.7-.7.3-3 .1-6-.4-9z" fill="#fff"/><path d="m138.1 121.4c.4.6 1.1 1.2 1.8 1.1.6 0 1.1-.5 1.5-1.1 1.5-2.2 1.5-5.1 1.1-7.7-.3-2.5-2.2-6.3-5-3-2.2 2.8-1.4 8.1.6 10.7z"/><path d="m150.5 121.4c.4.6 1.1 1.2 1.8 1.1.6 0 1.1-.5 1.5-1.1 1.5-2.2 1.5-5.1 1.1-7.7-.3-2.5-2.2-6.3-5-3-2.2 2.8-1.4 8.1.6 10.7z"/><path d="m134 126.3c-1.6.2-2.6 1.7-2.2 3.2 1 3.7 3.7 9.6 11 9.6 10.7 0 19.6-6.2 20.5-11.6.7-4.3-21.4-2.1-29.3-1.2z" fill="#fff"/><path d="m121.6 166.1c0 1.7-.1 3.4.1 5.1 0-.1.1-.1.1-.2" style="fill:none;stroke:#dee0e0;stroke-width:.25;stroke-linecap:round;stroke-linejoin:round;stroke-miterlimit:10"/><path d="m124.7 166.4c-.2 1.5-.2 2.9-.1 4.4" style="fill:none;stroke:#dee0e0;stroke-width:.25;stroke-linecap:round;stroke-linejoin:round;stroke-miterlimit:10"/><path d="m125.7 170.2c.2.2.4.3.6.4s.4.2.6.2c.4 0 .6-.4.8-.7.4-.8.2-2.4-1-2.2-1 .1-1.6 1.6-1 2.3z" style="fill:none;stroke:#dee0e0;stroke-width:.25;stroke-linecap:round;stroke-linejoin:round;stroke-miterlimit:10"/><path d="m128.3 168c.2 1.1.3 2.3 1.1 3.1.3-1 .7-2 1-3" style="fill:none;stroke:#dee0e0;stroke-width:.25;stroke-linecap:round;stroke-linejoin:round;stroke-miterlimit:10"/><path d="m130.8 169.8c.9-.2 1.9-.3 2.8-.5.1 0 .2 0 .2-.1v-.1c-.1-.4-.3-.8-.7-.9-.4-.2-.8 0-1.2.2-.2.1-.5.3-.6.6-.2.3-.2.7-.2 1 0 .2 0 .4.1.6.1.3.5.6.8.6.3.1.7 0 1.1 0 .2 0 .5-.2.4-.4" style="fill:none;stroke:#dee0e0;stroke-width:.25;stroke-linecap:round;stroke-linejoin:round;stroke-miterlimit:10"/><path d="m136.5 168.5c0 .3.2.5.3.8.4.7.9 1.5 1.4 2.2l.1.1s.1-.1 0-.1" style="fill:none;stroke:#dee0e0;stroke-width:.25;stroke-linecap:round;stroke-linejoin:round;stroke-miterlimit:10"/><path d="m139.5 168.5c-.5 1.5-1 3-1.5 4.4-.1.2-.1.4-.3.5" style="fill:none;stroke:#dee0e0;stroke-width:.25;stroke-linecap:round;stroke-linejoin:round;stroke-miterlimit:10"/><path d="m140 168.6c.2-.3.6-.4.9-.4s.7.2.9.5c.2.4.2.8.2 1.3s0 .9 0 1.4c.1-.4.1-.8-.1-1.2-.1-.4-.5-.7-.9-.7-.3 0-.6.1-.8.2-.3.1-.5.3-.7.5s-.3.5-.2.8c.2.4.7.6 1.2.6.3 0 .6.1 1 0s.6-.3.7-.6" style="fill:none;stroke:#dee0e0;stroke-width:.25;stroke-linecap:round;stroke-linejoin:round;stroke-miterlimit:10"/><path d="m123.3 173.4c-.6 0-1.3 0-1.9.2-.1 0-.1 0-.1.1s0 .1 0 .2c.1 1.2.2 2.4.2 3.6 0 .1 0 .2.1.3s.2.1.3.1c.7 0 1.3 0 2-.1" style="fill:none;stroke:#407484;stroke-width:.25;stroke-linecap:round;stroke-linejoin:round;stroke-miterlimit:10"/><path d="m124.4 175.3c0 .7.1 1.5.1 2.2-.1-.6 0-1.3.3-1.9.1-.2.2-.4.4-.5.3-.2.8 0 1 .3s.3.7.3 1.1 0 .8.1 1.2" style="fill:none;stroke:#407484;stroke-width:.25;stroke-linecap:round;stroke-linejoin:round;stroke-miterlimit:10"/><path d="m129.8 176c-.1-.5-.6-.8-1.1-.7-.5 0-.9.4-1.1.8-.1.2-.2.4-.2.6 0 .5.4 1 .8 1.1.5.1 1.1-.1 1.3-.5.3-.4.3-1 .2-1.5 0-.1-.1-.3-.2-.2-.1.4.1.9.2 1.3.1.6.2 1.1.2 1.7 0 .2 0 .4-.1.6-.2.5-.7.8-1.2.7s-.9-.4-1.2-.9" style="fill:none;stroke:#407484;stroke-width:.25;stroke-linecap:round;stroke-linejoin:round;stroke-miterlimit:10"/><path d="m130.8 175.5c.3-.6 1.3-.7 1.8-.3.3.3.5.8.5 1.3s0 .9 0 1.4c.1-.5 0-1.1-.4-1.4s-1-.4-1.5-.1c-.1.1-.3.2-.3.3-.2.3-.1.7.2 1 .3.2.7.3 1 .3.4-.1.7-.2 1-.4" style="fill:none;stroke:#407484;stroke-width:.25;stroke-linecap:round;stroke-linejoin:round;stroke-miterlimit:10"/><path d="m135.8 176c-.2-.4-.7-.6-1.1-.5s-.7.5-.9.9-.2.8 0 1.1.6.4.9.4c.3-.1.6-.3.9-.6.4-.5.5-1.2.2-1.8-.1.4.1.9.2 1.3.3 1.1.3 2.2-.2 3.1-.1.2-.3.4-.5.4-.5 0-.7-.8-1.2-.9" style="fill:none;stroke:#407484;stroke-width:.25;stroke-linecap:round;stroke-linejoin:round;stroke-miterlimit:10"/><path d="m136.7 176.8c.8-.1 1.5-.2 2.3-.4 0-.5-.4-1-.9-1.1s-1.1.1-1.3.6c-.1.2-.2.5-.1.9 0 .5.2 1.1.7 1.3.2.1.4.1.6.1.5 0 1-.2 1.3-.6" style="fill:none;stroke:#407484;stroke-width:.25;stroke-linecap:round;stroke-linejoin:round;stroke-miterlimit:10"/><path d="m142.8 174.3c.5-.4 1.3-.4 1.8 0 .4.3.4.9.5 1.4v.4c-.1.2-.3.3-.4.3-.5.2-1 .3-1.5.2.7 0 1.5-.1 2.1.2.3.2.7.5.6.9-.3.9-2.2 1.2-2.6.3-.6-.9-.4-2.7-.5-3.7z" style="fill:none;stroke:#407484;stroke-width:.25;stroke-linecap:round;stroke-linejoin:round;stroke-miterlimit:10"/><path d="m146.1 176.1c.5-.6 1.3-.7 2.1-.6.1 0 .3 0 .4.1s.2.3.2.4c.2.8.2 1.6.1 2.5.1-.7-.1-1.3-.5-1.9-.1-.1-.1-.2-.2-.2s-.2 0-.4 0c-.4.1-.7.3-1 .6s-.5.6-.3 1c.1.3.5.5.8.6s.5.1.8.1c.2 0 .4 0 .6-.1s.3-.3.3-.5" style="fill:none;stroke:#407484;stroke-width:.25;stroke-linecap:round;stroke-linejoin:round;stroke-miterlimit:10"/><path d="m149.8 174.6c-.1 1.1-.2 2.2-.1 3.4 0 .2.1.5.3.5.1 0 .2 0 .3-.1.4-.2.8-.4 1.1-.7s.4-.8.2-1.2c-.2-.3-.6-.5-1-.5s-.8.1-1.2.1" style="fill:none;stroke:#407484;stroke-width:.25;stroke-linecap:round;stroke-linejoin:round;stroke-miterlimit:10"/><path d="m152.4 177.5c.6 0 1.3 0 1.9-.1.1 0 .2 0 .2-.1-.1-.5-.5-1-1-1.2s-1.2 0-1.4.5c-.1.2-.1.4-.1.6 0 .3.1.6.2.9.3.5 1 .5 1.6.5.3 0 .6-.1.7-.3-.1 0-.2 0-.3-.1" style="fill:none;stroke:#407484;stroke-width:.25;stroke-linecap:round;stroke-linejoin:round;stroke-miterlimit:10"/><path d="m121.2 175.7c.7 0 1.4-.1 2.1-.1-.1 0-.2 0-.3 0" style="fill:none;stroke:#407484;stroke-width:.25;stroke-linecap:round;stroke-linejoin:round;stroke-miterlimit:10"/><path d="m121.7 181.5c0-.1 0-.2 0-.2.1-.1.2-.2.3-.3.4-.2.8-.4 1.3-.3.4 0 .8.2.8.5.1.3-.2.6-.5.8-.5.4-1.1.6-1.7.8.6.1 1.3-.2 1.8.1.3.1.4.4.5.7.1.2.1.4.1.6s-.1.3-.2.4c-.4.7-1.7 1.2-2.3.5-.5-.8-.1-2.7-.1-3.6z" style="fill:none;stroke:#407484;stroke-width:.25;stroke-linecap:round;stroke-linejoin:round;stroke-miterlimit:10"/><path d="m125.4 182.6c-.1.8 0 1.6.1 2.4-.1-.4-.2-.9-.1-1.3 0-.5.2-.9.5-1.2.2-.2.6-.3.8-.1" style="fill:none;stroke:#407484;stroke-width:.25;stroke-linecap:round;stroke-linejoin:round;stroke-miterlimit:10"/><path d="m127.2 182.5c.3-.4.9-.3 1.3-.1.4.3.6.8.6 1.3s-.1 1-.2 1.5c0-.3.1-.6 0-.9s-.2-.6-.5-.8c-.3-.1-.6-.1-.9 0s-.6.3-.8.6-.1.7.2.9c.2.1.3.1.5.1.3 0 .7 0 1-.2.3-.1.5-.4.6-.8" style="fill:none;stroke:#407484;stroke-width:.25;stroke-linecap:round;stroke-linejoin:round;stroke-miterlimit:10"/><path d="m129.8 182.6c0 .8.1 1.6.1 2.3-.2-1 .1-2.1.9-2.7.1 0 .1-.1.2-.1s.1 0 .2.1c.9.6 1.3 2 .8 3" style="fill:none;stroke:#407484;stroke-width:.25;stroke-linecap:round;stroke-linejoin:round;stroke-miterlimit:10"/><path d="m135.2 183.4c-.4-.3-.8-.6-1.2-.6s-.8.2-1 .5-.3.7-.3 1.1c0 .1 0 .3.1.4s.2.1.2.2c.3.2.8.4 1.1.3.2-.1.3-.2.4-.3.8-.9 1.1-2.3.7-3.4 0 1.3.2 2.7.3 4" style="fill:none;stroke:#407484;stroke-width:.25;stroke-linecap:round;stroke-linejoin:round;stroke-miterlimit:10"/><path d="m136.2 183.4c.1.6.2 1.3.2 2 0-.1 0-.1 0-.2" style="fill:none;stroke:#407484;stroke-width:.25;stroke-linecap:round;stroke-linejoin:round;stroke-miterlimit:10"/><path d="m136.4 182.2v.1" style="fill:none;stroke:#407484;stroke-width:.25;stroke-linecap:round;stroke-linejoin:round;stroke-miterlimit:10"/><path d="m137.2 183v2.3c0-.5 0-1 .2-1.5s.5-.9.9-1.1c.1 0 .1-.1.2 0 .1 0 .2.1.2.2.6.8.8 1.8.7 2.7" style="fill:none;stroke:#407484;stroke-width:.25;stroke-linecap:round;stroke-linejoin:round;stroke-miterlimit:10"/><path d="m142.2 183.4c-.2-.4-.7-.6-1.2-.4s-.6.6-.8 1.1c-.1.3-.1.5 0 .8s.2.5.5.6c.4.1.8-.2 1.1-.5.3-.4.6-.9.5-1.4 0-.3-.1-.6-.4-.7-.2.3 0 .7.1 1 .3.7.4 1.5.5 2.3 0 .3 0 .7-.2 1s-.6.4-.9.4c-.6 0-1.2-.3-1.5-.8" style="fill:none;stroke:#407484;stroke-width:.25;stroke-linecap:round;stroke-linejoin:round;stroke-miterlimit:10"/><path d="m145.6 181.5c-.1 1.3-.2 2.6-.4 3.9 0-.1-.1-.1 0-.2" style="fill:none;stroke:#407484;stroke-width:.25;stroke-linecap:round;stroke-linejoin:round;stroke-miterlimit:10"/><path d="m146.6 185.4c0-.7 0-1.4-.2-2.1 0 0 0-.1-.1-.1v.1" style="fill:none;stroke:#407484;stroke-width:.25;stroke-linecap:round;stroke-linejoin:round;stroke-miterlimit:10"/><path d="m146.5 182.2c0 .1 0 .1 0 0" style="fill:none;stroke:#407484;stroke-width:.25;stroke-linecap:round;stroke-linejoin:round;stroke-miterlimit:10"/><path d="m149.7 181.7c-.5.6-1.5 1.3-1.9 2-.3.7.9 1.4 1.5 1.9 0 0 .1.1.1 0 0 0 .1-.1 0-.1" style="fill:none;stroke:#407484;stroke-width:.25;stroke-linecap:round;stroke-linejoin:round;stroke-miterlimit:10"/><path d="m150.1 184c.6 0 1.2 0 1.8-.1.1-.3-.3-.6-.6-.7-.5 0-1.1.3-1.2.8-.3.5 0 1.1.5 1.3s1.1 0 1.3-.5" style="fill:none;stroke:#407484;stroke-width:.25;stroke-linecap:round;stroke-linejoin:round;stroke-miterlimit:10"/><path d="m147.9 181.8c0 1.2.1 2.3.2 3.5" style="fill:none;stroke:#407484;stroke-width:.25;stroke-linecap:round;stroke-linejoin:round;stroke-miterlimit:10"/><path d="m122 187.2c0 1.4.1 2.7.1 4.1 0 .1 0 .3.1.4 0 .1.1.1.2.1.5.2 1.1.2 1.5 0" style="fill:none;stroke:#407484;stroke-width:.25;stroke-linecap:round;stroke-linejoin:round;stroke-miterlimit:10"/><path d="m125 189.6c0 .6-.1 1.3-.1 1.9" style="fill:none;stroke:#407484;stroke-width:.25;stroke-linecap:round;stroke-linejoin:round;stroke-miterlimit:10"/><path d="m127 189.1c-.2-.2-.6-.3-.9-.1s-.5.5-.6.8v.2c0 .1.2.2.3.2.4.1.8.1 1.1.3.4.1.7.5.7.8 0 .1 0 .2-.1.2 0 0-.1.1-.2.1-.3.1-.6.2-.9.1-.3 0-.6-.2-.7-.5" style="fill:none;stroke:#407484;stroke-width:.25;stroke-linecap:round;stroke-linejoin:round;stroke-miterlimit:10"/><path d="m129 187.3c-.1 1.5-.1 3.1.1 4.6" style="fill:none;stroke:#407484;stroke-width:.25;stroke-linecap:round;stroke-linejoin:round;stroke-miterlimit:10"/><path d="m127.6 189.6c.7 0 1.3-.1 2-.1.1 0 .2 0 .3-.1" style="fill:none;stroke:#407484;stroke-width:.25;stroke-linecap:round;stroke-linejoin:round;stroke-miterlimit:10"/><path d="m129.9 190.7c.7 0 1.3-.1 2-.1 0-.3 0-.5-.1-.8-.1-.2-.3-.5-.6-.5-.4-.1-.8.2-1 .5-.1.2-.2.5-.3.9 0 .2.1.6.4.8s.6.3.9.3.7 0 .8-.3" style="fill:none;stroke:#407484;stroke-width:.25;stroke-linecap:round;stroke-linejoin:round;stroke-miterlimit:10"/><path d="m132.8 189.3c0 .8 0 1.7.1 2.5.1-.6-.1-1.2.2-1.8.3-.5 1-.7 1.5-.4.5.4.5 1 .5 1.6v.7" style="fill:none;stroke:#407484;stroke-width:.25;stroke-linecap:round;stroke-linejoin:round;stroke-miterlimit:10"/><path d="m138.4 189.8c.8-.2 1.6-.3 2.4-.3h.1s0-.1-.1-.1" style="fill:none;stroke:#407484;stroke-width:.25;stroke-linecap:round;stroke-linejoin:round;stroke-miterlimit:10"/><path d="m139.2 188c-.2 1.1-.4 2.2-.1 3.2.1.2.2.4.3.6.2.1.5.2.6 0" style="fill:none;stroke:#407484;stroke-width:.25;stroke-linecap:round;stroke-linejoin:round;stroke-miterlimit:10"/><path d="m141.9 189.5c-.3.2-.5.5-.6.8-.1.2-.1.5-.1.8s.2.5.4.6.6.1.8-.1c.6-.3.8-1.2.4-1.8-.1-.1-.2-.2-.3-.3-.3-.1-.6-.1-.9.1" style="fill:none;stroke:#407484;stroke-width:.25;stroke-linecap:round;stroke-linejoin:round;stroke-miterlimit:10"/><path d="m146 189.6c-.1.6-.1 1.2 0 1.8 0-.7.2-1.3.6-1.8.1-.2.3-.3.6-.3.1 0 .2.1.2.2.4.6.5 1.4.3 2.1.1-.5.2-.9.4-1.3.1-.2.2-.4.3-.5.2-.1.4-.2.6-.1l.3.3c.2.4.3.9.2 1.3" style="fill:none;stroke:#407484;stroke-width:.25;stroke-linecap:round;stroke-linejoin:round;stroke-miterlimit:10"/><path d="m150.4 190.4c.5 0 .9-.1 1.4-.3-.1-.4-.2-.9-.6-1-.3-.1-.6.1-.8.4s-.4.7-.4 1.1v.4c.1.3.5.5.8.5.4 0 .9-.1 1.1-.5" style="fill:none;stroke:#407484;stroke-width:.25;stroke-linecap:round;stroke-linejoin:round;stroke-miterlimit:10"/><path d="m121.7 193.4c.2 1.5.5 3.1 1.4 4.4 0-1.2.2-2.3.6-3.4.1 1.1.4 2.2 1 3.2 0 .1.1.1.2.1.3-1.1.4-2.3.5-3.4" style="fill:none;stroke:#407484;stroke-width:.25;stroke-linecap:round;stroke-linejoin:round;stroke-miterlimit:10"/><path d="m126.1 195.7c.2-.4.6-.7 1.1-.8h.3s.2.1.2.2c.4.6.5 1.3.4 2 0-.4-.1-.7-.3-1s-.7-.4-1-.2c-.1.1-.2.2-.3.3-.2.2-.3.6-.2.9.1.2.3.4.6.5s.6.1.8.1c.3-.1.5-.3.5-.6" style="fill:none;stroke:#407484;stroke-width:.25;stroke-linecap:round;stroke-linejoin:round;stroke-miterlimit:10"/><path d="m128.9 195.5c.1.7.3 1.3.4 2 0-.1 0-.1 0-.2" style="fill:none;stroke:#407484;stroke-width:.25;stroke-linecap:round;stroke-linejoin:round;stroke-miterlimit:10"/><path d="m130.2 193.9c0 1.3 0 2.6.1 3.9" style="fill:none;stroke:#407484;stroke-width:.25;stroke-linecap:round;stroke-linejoin:round;stroke-miterlimit:10"/><path d="m128.6 194.8v.1" style="fill:none;stroke:#407484;stroke-width:.25;stroke-linecap:round;stroke-linejoin:round;stroke-miterlimit:10"/><path d="m129.6 195h1.6" style="fill:none;stroke:#407484;stroke-width:.25;stroke-linecap:round;stroke-linejoin:round;stroke-miterlimit:10"/><path d="m132 195.4c0 .7 0 1.4.2 2.1" style="fill:none;stroke:#407484;stroke-width:.25;stroke-linecap:round;stroke-linejoin:round;stroke-miterlimit:10"/><path d="m131.8 194.7s0 .1 0 0" style="fill:none;stroke:#407484;stroke-width:.25;stroke-linecap:round;stroke-linejoin:round;stroke-miterlimit:10"/><path d="m132.5 195c0 .8.1 1.6.2 2.3 0-.7 0-1.5.4-2.1.1-.1.3-.3.4-.2.1 0 .1.1.2.1.2.2.4.5.6.8.1.3.1.7.1 1v.7" style="fill:none;stroke:#407484;stroke-width:.25;stroke-linecap:round;stroke-linejoin:round;stroke-miterlimit:10"/><path d="m136.5 195.8c.1-.3-.2-.5-.5-.5s-.5.2-.7.4c-.2.3-.3.7-.3 1.1.1.4.3.8.7.9.2.1.3.1.5.1.4-.1.6-.4.7-.7.1-.4.2-.8.1-1.2.1.7.2 1.3.4 2 .1.4.2.8 0 1.1-.2.4-.8.4-1.2.2-.4-.1-.8-.4-1.2-.5" style="fill:none;stroke:#407484;stroke-width:.25;stroke-linecap:round;stroke-linejoin:round;stroke-miterlimit:10"/><path d="m141.5 194.6c-.3-.2-.6-.3-1-.3-.4.1-.7.3-.9.6-.3.5-.2 1.1-.1 1.6s.1 1 .2 1.5c0-.2 0-.3 0-.5" style="fill:none;stroke:#407484;stroke-width:.25;stroke-linecap:round;stroke-linejoin:round;stroke-miterlimit:10"/><path d="m139 195.8c.6-.1 1.2-.1 1.8-.1" style="fill:none;stroke:#407484;stroke-width:.25;stroke-linecap:round;stroke-linejoin:round;stroke-miterlimit:10"/><path d="m142.6 195.6c-.5-.2-1.1.1-1.3.5-.2.5 0 1.1.4 1.4.2.1.3.2.5.2s.4 0 .5-.1c.4-.2.7-.8.5-1.2-.1-.5-.6-.8-1.1-.8" style="fill:none;stroke:#407484;stroke-width:.25;stroke-linecap:round;stroke-linejoin:round;stroke-miterlimit:10"/><path d="m144.1 195.5c-.1.7 0 1.4.2 2 .1-.3 0-.6 0-1 0-.3.1-.7.3-.9.2-.1.5-.1.7-.1" style="fill:none;stroke:#407484;stroke-width:.25;stroke-linecap:round;stroke-linejoin:round;stroke-miterlimit:10"/><path d="m146.7 195.7c.3.7.6 1.4 1.1 2 0 0 .1.1.2.1s.1-.1.1-.1" style="fill:none;stroke:#407484;stroke-width:.25;stroke-linecap:round;stroke-linejoin:round;stroke-miterlimit:10"/><path d="m148.4 195.3c-.1.7-.2 1.3-.4 2-.1.6-.2 1.1-.5 1.6s-.9.8-1.4.7" style="fill:none;stroke:#407484;stroke-width:.25;stroke-linecap:round;stroke-linejoin:round;stroke-miterlimit:10"/><path d="m149 197.3c.2.4.6.6 1 .6.2 0 .4-.2.6-.4.5-.6.4-1.9-.5-2-1-.2-1.4 1.2-1.1 1.8z" style="fill:none;stroke:#407484;stroke-width:.25;stroke-linecap:round;stroke-linejoin:round;stroke-miterlimit:10"/><path d="m151.3 195.5c0 .5 0 1 .1 1.5.1.3.4.6.7.6s.6-.3.8-.5c.3-.4.4-1 .3-1.5-.1-.1-.2.1-.2.2 0 .8.1 1.5.4 2.2" style="fill:none;stroke:#407484;stroke-width:.25;stroke-linecap:round;stroke-linejoin:round;stroke-miterlimit:10"/><path d="m124 200.5c-.2-.3-.4-.6-.8-.7-.5-.1-1 .3-1.2.7 0 .1-.1.2-.1.3s.1.2.1.2c.6.5 1.6.5 2 1.2.3.4.2 1-.1 1.3s-.8.4-1.2.3-.8-.4-1-.7" style="fill:none;stroke:#407484;stroke-width:.25;stroke-linecap:round;stroke-linejoin:round;stroke-miterlimit:10"/><path d="m125.3 200.4c0 1.3.1 2.5.1 3.8" style="fill:none;stroke:#407484;stroke-width:.25;stroke-linecap:round;stroke-linejoin:round;stroke-miterlimit:10"/><path d="m124.6 201.6c.6 0 1.2.1 1.9.1.1.9.5 1.9.5 2.8 0-.5 0-.9-.1-1.4 0-.4 0-.7.2-1s.7-.4.9-.1" style="fill:none;stroke:#407484;stroke-width:.25;stroke-linecap:round;stroke-linejoin:round;stroke-miterlimit:10"/><path d="m128.1 203.2c.7-.1 1.5-.1 2.2-.2 0-.3-.1-.6-.3-.9-.1-.1-.1-.2-.2-.2-.2-.1-.4 0-.5 0-.5.2-1 .6-1.1 1.1-.1.6.2 1.2.7 1.4s1.2 0 1.5-.6" style="fill:none;stroke:#407484;stroke-width:.25;stroke-linecap:round;stroke-linejoin:round;stroke-miterlimit:10"/><path d="m131 202.4c.2-.2.4-.4.7-.6.3-.1.6-.1.8.1.1.1.2.2.2.4.2.6.3 1.2.1 1.8.1-.3 0-.7-.2-1s-.6-.4-.9-.3c-.1.1-.3.1-.4.3-.2.3-.3.7-.2 1s.5.6.9.6.7-.4.7-.7" style="fill:none;stroke:#407484;stroke-width:.25;stroke-linecap:round;stroke-linejoin:round;stroke-miterlimit:10"/><path d="m133.5 201.7c0 .8 0 1.6.1 2.4 0-.2 0-.4 0-.6 0-.4 0-.8.2-1.1s.7-.4 1-.1c.1.1.1.3.1.5 0 .5 0 1-.1 1.4 0-.8.3-1.5.7-2.1 0-.1.1-.1.2-.2.1 0 .3.1.3.2.4.6.6 1.3.4 2" style="fill:none;stroke:#407484;stroke-width:.25;stroke-linecap:round;stroke-linejoin:round;stroke-miterlimit:10"/><path d="m137.5 202.4v2.3" style="fill:none;stroke:#407484;stroke-width:.25;stroke-linecap:round;stroke-linejoin:round;stroke-miterlimit:10"/><path d="m137.4 201.5s0 .1-.1.1" style="fill:none;stroke:#407484;stroke-width:.25;stroke-linecap:round;stroke-linejoin:round;stroke-miterlimit:10"/><path d="m138.5 202.3c-.1 0-.1 0-.1.1v1.4c0 .2 0 .5.2.7 0-.7 0-1.4.5-1.9.2-.2.4-.3.6-.2s.3.2.4.4c.2.5.3 1 .1 1.5v.1s.1-.1 0-.1" style="fill:none;stroke:#407484;stroke-width:.25;stroke-linecap:round;stroke-linejoin:round;stroke-miterlimit:10"/><path d="m143 202.8c0-.4-.4-.7-.8-.6-.4 0-.7.3-.9.7-.1.2-.2.3-.3.5-.1.5.3 1.1.8 1.2s1-.2 1.2-.6c.3-.4.3-.9.3-1.4.1 1.1.1 2.1.2 3.2 0 .1 0 .3-.1.4s-.2.1-.3.1c-.4 0-.8.1-1.1 0-.4-.1-.7-.3-.9-.6" style="fill:none;stroke:#407484;stroke-width:.25;stroke-linecap:round;stroke-linejoin:round;stroke-miterlimit:10"/><path d="m145.4 201.7c0-.1 0-.1 0-.2s.1-.1.2-.1c.3-.1.7-.2 1 0s.4.6.4.9v.4c-.1.1-.2.2-.3.2-.3.2-.7.3-1 .3.5 0 1 0 1.4.2s.8.7.6 1.2c-.1.4-.6.7-1 .7-1 .2-1-.2-1.1-1.1 0-.8-.1-1.7-.2-2.5z" style="fill:none;stroke:#407484;stroke-width:.25;stroke-linecap:round;stroke-linejoin:round;stroke-miterlimit:10"/><path d="m148.9 205.3c.3.2.7.3 1 .2.1 0 .1-.1.2-.1.1-.1.2-.2.3-.4.1-.3.3-.5.3-.8.2-2.2-4.1-.5-1.8 1.1z" style="fill:none;stroke:#407484;stroke-width:.25;stroke-linecap:round;stroke-linejoin:round;stroke-miterlimit:10"/><path d="m156 170.6c.2.1.3.3.4.4 0 .1.1.1.2.2.2 0 .3-.1.3-.3s.1-.3.2-.4c-.2.4-.4.8-.6 1.1" style="fill:none;stroke:#dee0e0;stroke-width:.25;stroke-linecap:round;stroke-linejoin:round;stroke-miterlimit:10"/><path d="m157.5 171.3c0 .3.3.6.6.5.2-.1.5-.6.4-.9-.2-.7-1-.1-1 .4z" style="fill:none;stroke:#dee0e0;stroke-width:.25;stroke-linecap:round;stroke-linejoin:round;stroke-miterlimit:10"/><path d="m158.9 170.6v.6c0 .3.1.6.3.6.3 0 .4-.3.4-.6 0-.2 0-.4-.1-.6" style="fill:none;stroke:#dee0e0;stroke-width:.25;stroke-linecap:round;stroke-linejoin:round;stroke-miterlimit:10"/><path d="m160.1 171.7c0-.4 0-.8-.2-1.1.2-.1.4-.1.6 0s.4.3.3.5-.3.2-.5.2c.3.1.6.2.8.3" style="fill:none;stroke:#dee0e0;stroke-width:.25;stroke-linecap:round;stroke-linejoin:round;stroke-miterlimit:10"/><path d="m162.4 171.6c-.1-.4-.1-.7-.1-1.1.2 0 .5-.1.7-.1.1.2-.1.6-.3.6.2-.2.6 0 .6.3 0 .4-.7.5-.9.3z" style="fill:none;stroke:#dee0e0;stroke-width:.25;stroke-linecap:round;stroke-linejoin:round;stroke-miterlimit:10"/><path d="m163.7 171.8c-.1-.5-.1-1-.1-1.5.2 0 .4-.1.6 0s.3.4.2.6-.4.3-.6.2c.3.2.5.3.8.5" style="fill:none;stroke:#dee0e0;stroke-width:.25;stroke-linecap:round;stroke-linejoin:round;stroke-miterlimit:10"/><path d="m166 171.6c0-.3-.1-.7-.1-1 .3.4.6.7.9 1.1 0-.4 0-.8 0-1.1v-.1.1" style="fill:none;stroke:#dee0e0;stroke-width:.25;stroke-linecap:round;stroke-linejoin:round;stroke-miterlimit:10"/><path d="m167.3 170.6c0 .4 0 .8.2 1.1.2-.1.3-.3.4-.5s.1-.5 0-.6-.5-.2-.6 0" style="fill:none;stroke:#dee0e0;stroke-width:.25;stroke-linecap:round;stroke-linejoin:round;stroke-miterlimit:10"/><path d="m164.8 171.6c0-.4.3-.8.6-1 .2.4.4.7.5 1.1" style="fill:none;stroke:#dee0e0;stroke-width:.25;stroke-linecap:round;stroke-linejoin:round;stroke-miterlimit:10"/><path d="m164.9 171.2c.4-.2.7-.3 1.1-.3" style="fill:none;stroke:#dee0e0;stroke-width:.25;stroke-linecap:round;stroke-linejoin:round;stroke-miterlimit:10"/><path d="m156 177.7c.2.1.3.3.4.4 0 .1.1.1.2.2.2 0 .3-.1.3-.3s.1-.3.2-.4c-.2.4-.4.8-.6 1.1" style="fill:none;stroke:#407484;stroke-width:.25;stroke-linecap:round;stroke-linejoin:round;stroke-miterlimit:10"/><path d="m157.5 178.4c0 .3.3.6.6.5.2-.1.5-.6.4-.9-.2-.7-1-.1-1 .4z" style="fill:none;stroke:#407484;stroke-width:.25;stroke-linecap:round;stroke-linejoin:round;stroke-miterlimit:10"/><path d="m158.9 177.7v.6c0 .3.1.6.3.6.3 0 .4-.3.4-.6 0-.2 0-.4-.1-.6" style="fill:none;stroke:#407484;stroke-width:.25;stroke-linecap:round;stroke-linejoin:round;stroke-miterlimit:10"/><path d="m160.1 178.9c0-.4 0-.8-.2-1.1.2-.1.4-.1.6 0s.4.3.3.5-.3.2-.5.2c.3.1.6.2.8.3" style="fill:none;stroke:#407484;stroke-width:.25;stroke-linecap:round;stroke-linejoin:round;stroke-miterlimit:10"/><path d="m162.4 178.7c-.1-.4-.1-.7-.1-1.1.2 0 .5-.1.7-.1.1.2-.1.6-.3.6.2-.2.6 0 .6.3 0 .4-.7.5-.9.3z" style="fill:none;stroke:#407484;stroke-width:.25;stroke-linecap:round;stroke-linejoin:round;stroke-miterlimit:10"/><path d="m163.7 178.9c-.1-.5-.1-1-.1-1.5.2 0 .4-.1.6 0s.3.4.2.6-.4.3-.6.2c.3.2.5.3.8.5" style="fill:none;stroke:#407484;stroke-width:.25;stroke-linecap:round;stroke-linejoin:round;stroke-miterlimit:10"/><path d="m166 178.7c0-.3-.1-.7-.1-1 .3.4.6.7.9 1.1 0-.4 0-.8 0-1.1v-.1.1" style="fill:none;stroke:#407484;stroke-width:.25;stroke-linecap:round;stroke-linejoin:round;stroke-miterlimit:10"/><path d="m167.3 177.7c0 .4 0 .8.2 1.1.2-.1.3-.3.4-.5s.1-.5 0-.6-.5-.2-.6 0" style="fill:none;stroke:#407484;stroke-width:.25;stroke-linecap:round;stroke-linejoin:round;stroke-miterlimit:10"/><path d="m164.8 178.7c0-.4.3-.8.6-1 .2.4.4.7.5 1.1" style="fill:none;stroke:#407484;stroke-width:.25;stroke-linecap:round;stroke-linejoin:round;stroke-miterlimit:10"/><path d="m164.9 178.3c.4-.2.7-.3 1.1-.3" style="fill:none;stroke:#407484;stroke-width:.25;stroke-linecap:round;stroke-linejoin:round;stroke-miterlimit:10"/><path d="m156 183.9c.2.1.3.3.4.4 0 .1.1.1.2.2.2 0 .3-.1.3-.3s.1-.3.2-.4c-.2.4-.4.8-.6 1.1" style="fill:none;stroke:#407484;stroke-width:.25;stroke-linecap:round;stroke-linejoin:round;stroke-miterlimit:10"/><path d="m157.5 184.6c0 .3.3.6.6.5.2-.1.5-.6.4-.9-.2-.7-1-.1-1 .4z" style="fill:none;stroke:#407484;stroke-width:.25;stroke-linecap:round;stroke-linejoin:round;stroke-miterlimit:10"/><path d="m158.9 183.9v.6c0 .3.1.6.3.6.3 0 .4-.3.4-.6 0-.2 0-.4-.1-.6" style="fill:none;stroke:#407484;stroke-width:.25;stroke-linecap:round;stroke-linejoin:round;stroke-miterlimit:10"/><path d="m160.1 185.1c0-.4 0-.8-.2-1.1.2-.1.4-.1.6 0s.4.3.3.5-.3.2-.5.2c.3.1.6.2.8.3" style="fill:none;stroke:#407484;stroke-width:.25;stroke-linecap:round;stroke-linejoin:round;stroke-miterlimit:10"/><path d="m162.4 185c-.1-.4-.1-.7-.1-1.1.2 0 .5-.1.7-.1.1.2-.1.6-.3.6.2-.2.6 0 .6.3s-.7.4-.9.3z" style="fill:none;stroke:#407484;stroke-width:.25;stroke-linecap:round;stroke-linejoin:round;stroke-miterlimit:10"/><path d="m163.7 185.1c-.1-.5-.1-1-.1-1.5.2 0 .4-.1.6 0s.3.4.2.6-.4.3-.6.2c.3.2.5.3.8.5" style="fill:none;stroke:#407484;stroke-width:.25;stroke-linecap:round;stroke-linejoin:round;stroke-miterlimit:10"/><path d="m166 185c0-.3-.1-.7-.1-1 .3.4.6.7.9 1.1 0-.4 0-.8 0-1.1v-.1.1" style="fill:none;stroke:#407484;stroke-width:.25;stroke-linecap:round;stroke-linejoin:round;stroke-miterlimit:10"/><path d="m167.3 183.9c0 .4 0 .8.2 1.1.2-.1.3-.3.4-.5s.1-.5 0-.6c-.2-.1-.5-.1-.6 0" style="fill:none;stroke:#407484;stroke-width:.25;stroke-linecap:round;stroke-linejoin:round;stroke-miterlimit:10"/><path d="m164.8 184.9c0-.4.3-.8.6-1 .2.4.4.7.5 1.1" style="fill:none;stroke:#407484;stroke-width:.25;stroke-linecap:round;stroke-linejoin:round;stroke-miterlimit:10"/><path d="m164.9 184.5c.4-.2.7-.3 1.1-.3" style="fill:none;stroke:#407484;stroke-width:.25;stroke-linecap:round;stroke-linejoin:round;stroke-miterlimit:10"/><path d="m156 189.3c.2.1.3.3.4.4 0 .1.1.1.2.2.2 0 .3-.1.3-.3s.1-.3.2-.4c-.2.4-.4.8-.6 1.1" style="fill:none;stroke:#407484;stroke-width:.25;stroke-linecap:round;stroke-linejoin:round;stroke-miterlimit:10"/><path d="m157.5 189.9c0 .3.3.6.6.5.2-.1.5-.6.4-.9-.2-.7-1-.1-1 .4z" style="fill:none;stroke:#407484;stroke-width:.25;stroke-linecap:round;stroke-linejoin:round;stroke-miterlimit:10"/><path d="m158.9 189.3v.6c0 .3.1.6.3.6.3 0 .4-.3.4-.6 0-.2 0-.4-.1-.6" style="fill:none;stroke:#407484;stroke-width:.25;stroke-linecap:round;stroke-linejoin:round;stroke-miterlimit:10"/><path d="m160.1 190.4c0-.4 0-.8-.2-1.1.2-.1.4-.1.6 0s.4.3.3.5-.3.2-.5.2c.3.1.6.2.8.3" style="fill:none;stroke:#407484;stroke-width:.25;stroke-linecap:round;stroke-linejoin:round;stroke-miterlimit:10"/><path d="m162.4 190.3c-.1-.4-.1-.7-.1-1.1.2 0 .5-.1.7-.1.1.2-.1.6-.3.6.2-.2.6 0 .6.3s-.7.5-.9.3z" style="fill:none;stroke:#407484;stroke-width:.25;stroke-linecap:round;stroke-linejoin:round;stroke-miterlimit:10"/><path d="m163.7 190.5c-.1-.5-.1-1-.1-1.5.2 0 .4-.1.6 0s.3.4.2.6-.4.3-.6.2c.3.2.5.3.8.5" style="fill:none;stroke:#407484;stroke-width:.25;stroke-linecap:round;stroke-linejoin:round;stroke-miterlimit:10"/><path d="m166 190.3c0-.3-.1-.7-.1-1 .3.4.6.7.9 1.1 0-.4 0-.8 0-1.1v-.1.1" style="fill:none;stroke:#407484;stroke-width:.25;stroke-linecap:round;stroke-linejoin:round;stroke-miterlimit:10"/><path d="m167.3 189.3c0 .4 0 .8.2 1.1.2-.1.3-.3.4-.5s.1-.5 0-.6-.5-.2-.6 0" style="fill:none;stroke:#407484;stroke-width:.25;stroke-linecap:round;stroke-linejoin:round;stroke-miterlimit:10"/><path d="m164.8 190.2c0-.4.3-.8.6-1 .2.4.4.7.5 1.1" style="fill:none;stroke:#407484;stroke-width:.25;stroke-linecap:round;stroke-linejoin:round;stroke-miterlimit:10"/><path d="m164.9 189.9c.4-.2.7-.3 1.1-.3" style="fill:none;stroke:#407484;stroke-width:.25;stroke-linecap:round;stroke-linejoin:round;stroke-miterlimit:10"/><path d="m156 196.4c.2.1.3.3.4.4 0 .1.1.1.2.2.2 0 .3-.1.3-.3s.1-.3.2-.4c-.2.4-.4.8-.6 1.1" style="fill:none;stroke:#407484;stroke-width:.25;stroke-linecap:round;stroke-linejoin:round;stroke-miterlimit:10"/><path d="m157.5 197c0 .3.3.6.6.5.2-.1.5-.6.4-.9-.2-.7-1 0-1 .4z" style="fill:none;stroke:#407484;stroke-width:.25;stroke-linecap:round;stroke-linejoin:round;stroke-miterlimit:10"/><path d="m158.9 196.4v.6c0 .3.1.6.3.6.3 0 .4-.3.4-.6 0-.2 0-.4-.1-.6" style="fill:none;stroke:#407484;stroke-width:.25;stroke-linecap:round;stroke-linejoin:round;stroke-miterlimit:10"/><path d="m160.1 197.5c0-.4 0-.8-.2-1.1.2-.1.4-.1.6 0s.4.3.3.5-.3.2-.5.2c.3.1.6.2.8.3" style="fill:none;stroke:#407484;stroke-width:.25;stroke-linecap:round;stroke-linejoin:round;stroke-miterlimit:10"/><path d="m162.4 197.4c-.1-.4-.1-.7-.1-1.1.2 0 .5-.1.7-.1.1.2-.1.6-.3.6.2-.2.6 0 .6.3 0 .4-.7.5-.9.3z" style="fill:none;stroke:#407484;stroke-width:.25;stroke-linecap:round;stroke-linejoin:round;stroke-miterlimit:10"/><path d="m163.7 197.6c-.1-.5-.1-1-.1-1.5.2 0 .4-.1.6 0s.3.4.2.6-.4.3-.6.2c.3.2.5.3.8.5" style="fill:none;stroke:#407484;stroke-width:.25;stroke-linecap:round;stroke-linejoin:round;stroke-miterlimit:10"/><path d="m166 197.4c0-.3-.1-.7-.1-1 .3.4.6.7.9 1.1 0-.4 0-.8 0-1.1v-.1.1" style="fill:none;stroke:#407484;stroke-width:.25;stroke-linecap:round;stroke-linejoin:round;stroke-miterlimit:10"/><path d="m167.3 196.4c0 .4 0 .8.2 1.1.2-.1.3-.3.4-.5s.1-.5 0-.6-.5-.2-.6 0" style="fill:none;stroke:#407484;stroke-width:.25;stroke-linecap:round;stroke-linejoin:round;stroke-miterlimit:10"/><path d="m164.8 197.4c0-.4.3-.8.6-1 .2.4.4.7.5 1.1" style="fill:none;stroke:#407484;stroke-width:.25;stroke-linecap:round;stroke-linejoin:round;stroke-miterlimit:10"/><path d="m164.9 197c.4-.2.7-.3 1.1-.3" style="fill:none;stroke:#407484;stroke-width:.25;stroke-linecap:round;stroke-linejoin:round;stroke-miterlimit:10"/><path d="m156 203.5c.2.1.3.3.4.4 0 .1.1.1.2.2.2 0 .3-.1.3-.3s.1-.3.2-.4c-.2.4-.4.8-.6 1.1" style="fill:none;stroke:#407484;stroke-width:.25;stroke-linecap:round;stroke-linejoin:round;stroke-miterlimit:10"/><path d="m157.5 204.2c0 .3.3.6.6.5.2-.1.5-.6.4-.9-.2-.7-1-.1-1 .4z" style="fill:none;stroke:#407484;stroke-width:.25;stroke-linecap:round;stroke-linejoin:round;stroke-miterlimit:10"/><path d="m158.9 203.5v.6c0 .3.1.6.3.6.3 0 .4-.3.4-.6 0-.2 0-.4-.1-.6" style="fill:none;stroke:#407484;stroke-width:.25;stroke-linecap:round;stroke-linejoin:round;stroke-miterlimit:10"/><path d="m160.1 204.7c0-.4 0-.8-.2-1.1.2-.1.4-.1.6 0s.4.3.3.5-.3.2-.5.2c.3.1.6.2.8.3" style="fill:none;stroke:#407484;stroke-width:.25;stroke-linecap:round;stroke-linejoin:round;stroke-miterlimit:10"/><path d="m162.4 204.5c-.1-.4-.1-.7-.1-1.1.2 0 .5-.1.7-.1.1.2-.1.6-.3.6.2-.2.6 0 .6.3 0 .4-.7.5-.9.3z" style="fill:none;stroke:#407484;stroke-width:.25;stroke-linecap:round;stroke-linejoin:round;stroke-miterlimit:10"/><path d="m163.7 204.7c-.1-.5-.1-1-.1-1.5.2 0 .4-.1.6 0s.3.4.2.6-.4.3-.6.2c.3.2.5.3.8.5" style="fill:none;stroke:#407484;stroke-width:.25;stroke-linecap:round;stroke-linejoin:round;stroke-miterlimit:10"/><path d="m166 204.5c0-.3-.1-.7-.1-1 .3.4.6.7.9 1.1 0-.4 0-.8 0-1.1v-.1.1" style="fill:none;stroke:#407484;stroke-width:.25;stroke-linecap:round;stroke-linejoin:round;stroke-miterlimit:10"/><path d="m167.3 203.5c0 .4 0 .8.2 1.1.2-.1.3-.3.4-.5s.1-.5 0-.6-.5-.2-.6 0" style="fill:none;stroke:#407484;stroke-width:.25;stroke-linecap:round;stroke-linejoin:round;stroke-miterlimit:10"/><path d="m164.8 204.5c0-.4.3-.8.6-1 .2.4.4.7.5 1.1" style="fill:none;stroke:#407484;stroke-width:.25;stroke-linecap:round;stroke-linejoin:round;stroke-miterlimit:10"/><path d="m164.9 204.1c.4-.2.7-.3 1.1-.3" style="fill:none;stroke:#407484;stroke-width:.25;stroke-linecap:round;stroke-linejoin:round;stroke-miterlimit:10"/><path d="m170.5 170.8c.2-.2.5-.3.8-.2.1.2-.1.4-.3.5s-.4.2-.5.4h1" style="fill:none;stroke:#dee0e0;stroke-width:.25;stroke-linecap:round;stroke-linejoin:round;stroke-miterlimit:10"/><path d="m172.1 170.6.1-.1" style="fill:none;stroke:#dee0e0;stroke-width:.25;stroke-linecap:round;stroke-linejoin:round;stroke-miterlimit:10"/><path d="m172.1 171.5s.1 0 0 0" style="fill:none;stroke:#dee0e0;stroke-width:.25;stroke-linecap:round;stroke-linejoin:round;stroke-miterlimit:10"/><path d="m173.5 170.4c-.2-.1-.4-.1-.6.1s-.3.4-.2.6c.2-.3.7-.2.7.1.1.3-.3.6-.6.4" style="fill:none;stroke:#dee0e0;stroke-width:.25;stroke-linecap:round;stroke-linejoin:round;stroke-miterlimit:10"/><path d="m174.5 170.5c-.4 0-.7.4-.8.7 0 .3.2.6.4.5.1 0 .2-.1.3-.2.2-.2.3-.4.3-.7s-.4-.5-.5-.3" style="fill:none;stroke:#dee0e0;stroke-width:.25;stroke-linecap:round;stroke-linejoin:round;stroke-miterlimit:10"/><path d="m170.5 189.5c.2-.2.5-.3.8-.2.1.2-.1.4-.3.5s-.4.2-.5.4h1" style="fill:none;stroke:#407484;stroke-width:.25;stroke-linecap:round;stroke-linejoin:round;stroke-miterlimit:10"/><path d="m172.1 189.3.1-.1" style="fill:none;stroke:#407484;stroke-width:.25;stroke-linecap:round;stroke-linejoin:round;stroke-miterlimit:10"/><path d="m172.1 190.1s.1 0 0 0" style="fill:none;stroke:#407484;stroke-width:.25;stroke-linecap:round;stroke-linejoin:round;stroke-miterlimit:10"/><path d="m173.5 189.1c-.2-.1-.4-.1-.6.1s-.3.4-.2.6c.2-.3.7-.2.7.1.1.3-.3.6-.6.4" style="fill:none;stroke:#407484;stroke-width:.25;stroke-linecap:round;stroke-linejoin:round;stroke-miterlimit:10"/><path d="m174.5 189.2c-.4 0-.7.4-.8.7 0 .3.2.6.4.5.1 0 .2-.1.3-.2.2-.2.3-.4.3-.7s-.4-.5-.5-.3" style="fill:none;stroke:#407484;stroke-width:.25;stroke-linecap:round;stroke-linejoin:round;stroke-miterlimit:10"/><path d="m171.3 177.2c-.3 0-.5 0-.8 0v.7c.2-.3.7-.3.9.1v.1c0 .1 0 .1-.1.2-.1.2-.3.3-.5.4s-.5-.1-.5-.3" style="fill:none;stroke:#407484;stroke-width:.25;stroke-linecap:round;stroke-linejoin:round;stroke-miterlimit:10"/><path d="m172 177.3v.2" style="fill:none;stroke:#407484;stroke-width:.25;stroke-linecap:round;stroke-linejoin:round;stroke-miterlimit:10"/><path d="m173 176.8c.9-.3.4 2-.3 1.4-.3-.2-.1-1.2.3-1.4z" style="fill:none;stroke:#407484;stroke-width:.25;stroke-linecap:round;stroke-linejoin:round;stroke-miterlimit:10"/><path d="m174.8 176.8c.9-.3.4 2-.3 1.4-.3-.2-.1-1.2.3-1.4z" style="fill:none;stroke:#407484;stroke-width:.25;stroke-linecap:round;stroke-linejoin:round;stroke-miterlimit:10"/><path d="m171.3 196.7c-.3 0-.5 0-.8 0v.7c.2-.3.7-.3.9.1v.1c0 .1 0 .1-.1.2-.1.2-.3.3-.5.4s-.5-.1-.5-.3" style="fill:none;stroke:#407484;stroke-width:.25;stroke-linecap:round;stroke-linejoin:round;stroke-miterlimit:10"/><path d="m172 196.8v.2" style="fill:none;stroke:#407484;stroke-width:.25;stroke-linecap:round;stroke-linejoin:round;stroke-miterlimit:10"/><path d="m173 196.4c.9-.3.4 2-.3 1.4-.3-.3-.1-1.2.3-1.4z" style="fill:none;stroke:#407484;stroke-width:.25;stroke-linecap:round;stroke-linejoin:round;stroke-miterlimit:10"/><path d="m174.8 196.4c.9-.3.4 2-.3 1.4-.3-.3-.1-1.2.3-1.4z" style="fill:none;stroke:#407484;stroke-width:.25;stroke-linecap:round;stroke-linejoin:round;stroke-miterlimit:10"/><path d="m170.4 182.9c.2 0 .4-.2.6-.3s.5-.1.6.1c.1.1 0 .3-.1.4s-.3.1-.5.2c.2-.2.6.1.6.4s-.3.5-.6.5c-.2 0-.4-.1-.5-.2" style="fill:none;stroke:#407484;stroke-width:.25;stroke-linecap:round;stroke-linejoin:round;stroke-miterlimit:10"/><path d="m172.3 182.9c-.1 0 0 0 0 0" style="fill:none;stroke:#407484;stroke-width:.25;stroke-linecap:round;stroke-linejoin:round;stroke-miterlimit:10"/><path d="m172.1 183.9c.1.1 0 .2.1.2h.1" style="fill:none;stroke:#407484;stroke-width:.25;stroke-linecap:round;stroke-linejoin:round;stroke-miterlimit:10"/><path d="m172.8 183c0-.2.2-.3.3-.3s.3.2.3.3-.1.2-.1.2c-.1.2-.3.4-.5.5 0 .1 0 .1.1.2.3 0 .6 0 .9-.1" style="fill:none;stroke:#407484;stroke-width:.25;stroke-linecap:round;stroke-linejoin:round;stroke-miterlimit:10"/><path d="m174.8 182.9c-.2-.2-.4-.3-.6-.2s-.4.2-.4.5c0 .2.3.4.5.3.1 0 .1-.1.2-.2.1-.2.3-.4.3-.7 0 .3.4.6.4 1 0 .3-.3.4-.6.5-.1 0-.2 0-.2 0-.1 0-.1-.1-.1-.2" style="fill:none;stroke:#407484;stroke-width:.25;stroke-linecap:round;stroke-linejoin:round;stroke-miterlimit:10"/><path d="m170.4 203.4c.2 0 .4-.2.6-.3s.5-.1.6.1c.1.1 0 .3-.1.4s-.3.1-.5.2c.2-.2.6.1.6.4s-.3.5-.6.5c-.2 0-.4-.1-.5-.2" style="fill:none;stroke:#407484;stroke-width:.25;stroke-linecap:round;stroke-linejoin:round;stroke-miterlimit:10"/><path d="m172.3 203.4c-.1 0 0 0 0 0" style="fill:none;stroke:#407484;stroke-width:.25;stroke-linecap:round;stroke-linejoin:round;stroke-miterlimit:10"/><path d="m172.1 204.3s0 .1 0 0c.1.1 0 .2.1.2s.1 0 .1 0" style="fill:none;stroke:#407484;stroke-width:.25;stroke-linecap:round;stroke-linejoin:round;stroke-miterlimit:10"/><path d="m172.8 203.5c0-.2.2-.3.3-.3.2 0 .3.2.3.3s-.1.2-.1.2c-.1.2-.3.4-.5.5 0 .1 0 .1.1.2.3 0 .6 0 .9-.1" style="fill:none;stroke:#407484;stroke-width:.25;stroke-linecap:round;stroke-linejoin:round;stroke-miterlimit:10"/><path d="m174.8 203.4c-.2-.2-.4-.3-.6-.2s-.4.2-.4.5c0 .2.3.4.5.3.1 0 .1-.1.2-.2.1-.2.3-.4.3-.7 0 .3.4.6.4 1 0 .3-.3.4-.6.5-.1 0-.2 0-.2 0-.1 0-.1-.1-.1-.2" style="fill:none;stroke:#407484;stroke-width:.25;stroke-linecap:round;stroke-linejoin:round;stroke-miterlimit:10"/><path d="m119.5 169c0-.2-.1-.3-.3-.4s-.3-.2-.5-.2c-.5 0-.9.2-1.2.6 0-.3-.2-.6-.5-.7-.2-.1-.5 0-.7.2-.1.1-.1.2-.2.4-.1.5.1.9.4 1.3s.7.6 1.1.9c.1.1.2.2.4.1.1 0 .2-.1.3-.1.4-.2.7-.5 1-.8.2-.4.3-.8.2-1.3z" style="fill:none;stroke:#dee0e0;stroke-width:.25;stroke-linecap:round;stroke-linejoin:round;stroke-miterlimit:10"/><path d="m119.5 176.2c0-.2-.1-.3-.3-.4s-.3-.2-.5-.2c-.5 0-.9.2-1.2.6 0-.3-.2-.6-.5-.7-.2-.1-.5 0-.7.2-.1.1-.1.2-.2.4-.1.5.1.9.4 1.3s.7.6 1.1.9c.1.1.2.2.4.1.1 0 .2-.1.3-.1.4-.2.7-.5 1-.8.2-.5.3-.9.2-1.3z" style="fill:none;stroke:#407484;stroke-width:.25;stroke-linecap:round;stroke-linejoin:round;stroke-miterlimit:10"/><path d="m119.5 182.4c0-.2-.1-.3-.3-.4s-.3-.2-.5-.2c-.5 0-.9.2-1.2.6 0-.3-.2-.6-.5-.7-.2-.1-.5 0-.7.2-.1.1-.1.2-.2.4-.1.5.1.9.4 1.3s.7.6 1.1.9c.1.1.2.2.4.1.1 0 .2-.1.3-.1.4-.2.7-.5 1-.8.2-.4.3-.9.2-1.3z" style="fill:none;stroke:#407484;stroke-width:.25;stroke-linecap:round;stroke-linejoin:round;stroke-miterlimit:10"/><path d="m119.5 189.5c0-.2-.1-.3-.3-.4s-.3-.2-.5-.2c-.5 0-.9.2-1.2.6 0-.3-.2-.6-.5-.7-.2-.1-.5 0-.7.2-.1.1-.1.2-.2.4-.1.5.1.9.4 1.3s.7.6 1.1.9c.1.1.2.2.4.1.1 0 .2-.1.3-.1.4-.2.7-.5 1-.8.2-.4.3-.9.2-1.3z" style="fill:none;stroke:#407484;stroke-width:.25;stroke-linecap:round;stroke-linejoin:round;stroke-miterlimit:10"/><path d="m119.5 195.7c0-.2-.1-.3-.3-.4s-.3-.2-.5-.2c-.5 0-.9.2-1.2.6 0-.3-.2-.6-.5-.7-.2-.1-.5 0-.7.2-.1.1-.1.2-.2.4-.1.5.1.9.4 1.3s.7.6 1.1.9c.1.1.2.2.4.1.1 0 .2-.1.3-.1.4-.2.7-.5 1-.8.2-.4.3-.9.2-1.3z" style="fill:none;stroke:#407484;stroke-width:.25;stroke-linecap:round;stroke-linejoin:round;stroke-miterlimit:10"/><path d="m119.5 202.8c0-.2-.1-.3-.3-.4s-.3-.2-.5-.2c-.5 0-.9.2-1.2.6 0-.3-.2-.6-.5-.7-.2-.1-.5 0-.7.2-.1.1-.1.2-.2.4-.1.5.1.9.4 1.3s.7.6 1.1.9c.1.1.2.2.4.1.1 0 .2-.1.3-.1.4-.2.7-.5 1-.8.2-.4.3-.8.2-1.3z" style="fill:none;stroke:#407484;stroke-width:.25;stroke-linecap:round;stroke-linejoin:round;stroke-miterlimit:10"/><path d="m186.3 93c-1.4-.8-3.3-.7-4.9-.3-3.2 1-5.9 3.5-6.7 6.8s.7 6.7 3.5 8.5c-1.4.6-3.8 2.7-1.9 3.7 1.2.7 4.7-1.7 5.6-2.3 4.2-2.9 10.8-12.7 4.4-16.4z" fill="#f193be"/></svg>