<?xml version="1.0" encoding="utf-8"?>
<!-- Generator: Adobe Illustrator 22.1.0, SVG Export Plug-In . SVG Version: 6.00 Build 0)  -->
<svg version="1.1" id="Capa_1" xmlns="http://www.w3.org/2000/svg" xmlns:xlink="http://www.w3.org/1999/xlink" x="0px" y="0px"
	 viewBox="0 0 297.6 297.6" style="enable-background:new 0 0 297.6 297.6;" xml:space="preserve">
<style type="text/css">
	.st0{fill:#F193BE;}
	.st1{fill:#73BECB;}
	.st2{fill:#84D2E4;}
	.st3{fill:#02833D;}
	.st4{fill:#FFFFFF;stroke:#FFFFFF;stroke-miterlimit:10;}
	.st5{fill:#CE6197;}
	.st6{fill:#08984B;}
	.st7{fill:#F9483B;}
	.st8{fill:#1E1818;}
	.st9{fill:#FFFFFF;}
	.st10{fill:#C62E2A;}
	.st11{fill:#D33535;}
</style>
<g>
	<path class="st0" d="M-149.7,125.4c-0.9,5.3,2.2,10.2,6.8,10.9s9.7-3.5,10.6-8.8c0.9-5.3-2.2-10.2-6.8-10.9
		C-143.6,115.8-148.8,120.1-149.7,125.4z"/>
	<path class="st1" d="M-211.2,194.8c0,0-1.9,9.7-0.6,11.7c1.3,1.9,8.4,20.1,10.4,20.1s72.4-6.6,73.8-9.1c0.8-1.3,1.6-4.6,1.6-4.6
		s-12.6-25-14.2-25.1c-1.6-0.1-65.8,4.9-67.1,4.4C-209.7,191.3-211.2,194.8-211.2,194.8z"/>
	<path class="st2" d="M-210.9,195.1c0,0,10.4,25.9,11.7,25.9c1.3,0,72.5-6.9,73.2-8.2c0.6-1.3-11-24.9-12.9-25.5s-66.7,3.2-69.3,3.9
		S-210.9,195.1-210.9,195.1z"/>
	<path class="st3" d="M-144.4,192.1c0,0-1,3.6,0,4.1c1,0.5,2.4,0.5,2.9-0.5s0.5-4.1,0.5-4.1L-144.4,192.1"/>
	<path class="st3" d="M-141.2,197.3c0,0-1,3.6,0,4.1c1,0.5,2.4,0.5,2.9-0.5c0.5-0.9,0.5-4.1,0.5-4.1L-141.2,197.3"/>
	<path class="st3" d="M-137.9,201.8c0,0-1,3.6,0,4.1c1,0.5,2.4,0.5,2.9-0.5c0.5-0.9,0.5-4.1,0.5-4.1L-137.9,201.8"/>
	<path class="st3" d="M-134.7,207c0,0-1,3.6,0,4.1s2.4,0.5,2.9-0.5c0.5-0.9,0.7-3.6,0.7-3.6L-134.7,207"/>
	<polygon class="st1" points="-138.7,212.3 -151,190.2 -154.2,190.9 -141.9,213.2 	"/>
	<path class="st0" d="M-202.8,205.5c0,7.3,6.8,13.3,15.2,13.3s15.9-5.9,15.9-13.3s-7.5-13.9-15.9-13.9S-202.8,198.1-202.8,205.5z"/>
	<path class="st4" d="M-192.8,203.3c0,2.6,2.4,4.7,5.4,4.7c3,0,5.7-2.1,5.7-4.7c0-2.6-2.7-5-5.7-5
		C-190.4,198.3-192.8,200.7-192.8,203.3z"/>
	<path class="st5" d="M-160.6,199.9c0,0-1,3.6,0,4.1c1,0.5,2.4,0.5,2.9-0.5c0.5-0.9,0.5-4.1,0.5-4.1L-160.6,199.9"/>
	<path class="st5" d="M-158.7,205.7c0,0-1,3.6,0,4.1c1,0.5,2.4,0.5,2.9-0.5c0.5-0.9,0.5-4.1,0.5-4.1L-158.7,205.7"/>
	<g>
		<path class="st6" d="M-144.4,192.1c0,0.8,0.6,0.9,1.1,1c0.7,0.2,2.5,0.5,2.5-1c0-1-1.2-1.5-1.8-1.5
			C-143.2,190.5-144.3,191.1-144.4,192.1C-144.4,192.1-144.4,192.1-144.4,192.1z"/>
	</g>
	<g>
		<path class="st6" d="M-141.2,197.3c0,0.8,0.6,0.9,1.1,1c0.7,0.2,2.5,0.5,2.5-1c0-1-1.2-1.5-1.8-1.5
			C-140,195.7-141.1,196.3-141.2,197.3C-141.2,197.2-141.2,197.3-141.2,197.3z"/>
	</g>
	<g>
		<path class="st6" d="M-137.9,201.8c0,0.8,0.6,0.9,1.1,1c0.7,0.2,2.5,0.5,2.5-1c0-1-1.2-1.5-1.8-1.5
			C-136.7,200.3-137.8,200.8-137.9,201.8C-137.9,201.8-137.9,201.8-137.9,201.8z"/>
	</g>
	<g>
		<path class="st6" d="M-134.7,207c0,0.8,0.6,0.9,1.1,1c0.7,0.2,2.5,0.5,2.5-1c0-1-1.2-1.5-1.8-1.5
			C-133.5,205.4-134.6,206-134.7,207C-134.7,207-134.7,207-134.7,207z"/>
	</g>
	<path class="st7" d="M-147.3,180.3c0,0-0.4,2.8,3.4,7.4s9.2-0.4,10.5-5c1.3-4.5-3.4-46.2-2.7-50.7c0.6-4.5-0.6-10.4-1.9-9.7
		c-1.3,0.6-5.8,8.4-5.8,10.4s-3.2,6.5,0.6,6.5c0,0,0,27.9,0,30.4c0,0-4.1-2.6-6.3-2.6S-147.3,180.3-147.3,180.3z"/>
	<path class="st7" d="M-127.1,101c0,0-5.1,13.4-8.4,19.9s-11.7,20.1-14.2,22s-3.9,4.5-10.4,2.6c0,0,0,5.8,3.9,6.5
		c0,0-25.9,15.5-35.6-18.8c0,0,7.8-3.2,8.4-4.5c0.6-1.3,5.2-10.4,5.2-17.5s2.6-11,5.2-13.6c2.6-2.6,14.2-14.9,20.7-14.9
		s25.9,16.5,25.9,16.5L-127.1,101z"/>
	<path class="st6" d="M-166.5,79.6c0.8-0.4-4.6,5.1-6.5,8.3c-1.9,3.2-2.6,11.7-2.6,13c0,1.3,0.6,11,0.6,12.3c0,1.3,1.9,4.5,3.2,1.3
		c1.3-3.2,3.9-9.1,5.8-13.6c1.2-2.9,4.6-7.3,6.8-10.2c1.1-1.4,3.2-1.5,4.4-0.3c4.6,4.5,13.8,11.2,15.9,11.8c0.8,0.2,1.2,0.1,1.4-0.1
		c0.7-0.7,1.6-1.2,2.6-1c2.9,0.5,6.4,0.5,6.4,0.5l-1.3-1.3c0,0,0.1,0,0.1,0c2.1,0.8,4.4-1,4-3.3c-0.1-0.7-0.2-1.3-0.2-1.9
		c0-2.6-1.9-9.1-4.5-10.4c-2.6-1.3,0-4.5-6.5-7.8s-14.9-1.9-16.2-1.9S-151,73-151,73c0.4-0.8-2.1,0.5-3.2,0.9
		c-5.6,1.9-9.5,6.3-12.6,5.3"/>
	<path class="st8" d="M-156.2,152c0,0-17.5,5.2-25.9-3.2c-8.4-8.4-8.4-15.9-8.4-15.9s-18.5,3.3-18.1,11.4c0.3,8.4,14.2,3.2,14.2,3.2
		s-1.7,25.5-1.2,34c0.2,3.3-0.8,6.7-0.5,8.8l13.5-0.7c0.4,0,11.8-1.1,12.8-1.1l14.4-0.7c0,0,1.6-10.8,1.6-12.1
		S-147.8,154.6-156.2,152z"/>
	<path class="st8" d="M-156.2,152c0,0,6.6,0.5,13,17.5c0,0-5.2,12.3-3.2,14.2c0,0-5.8-6.9-7.1-8.9C-154.9,173-156.2,152-156.2,152z"
		/>
	<path class="st0" d="M-184.6,107.2c-0.9,5.3,2.2,10.2,6.8,10.9s9.7-3.5,10.6-8.8c0.9-5.3-2.2-10.2-6.8-10.9
		S-183.8,101.9-184.6,107.2z"/>
	<path class="st9" d="M-183.1,106.5c-0.6,3.9,1.6,7.5,5,8.1c3.4,0.5,7.2-2.6,7.8-6.5c0.6-3.9-1.6-7.5-5-8.1
		C-178.7,99.5-182.5,102.6-183.1,106.5z"/>
	<g>
		<path class="st0" d="M-160.6,199.9c0,0.8,0.6,0.9,1.1,1c0.7,0.2,2.5,0.5,2.5-1c0-1-1.2-1.5-1.8-1.5
			C-159.4,198.3-160.5,198.9-160.6,199.9C-160.6,199.8-160.6,199.9-160.6,199.9z"/>
	</g>
	<path class="st5" d="M-162.7,193.2c0,0-1,3.6,0,4.1c1,0.5,2.4,0.5,2.9-0.5c0.5-0.9,0.5-4.1,0.5-4.1L-162.7,193.2"/>
	<g>
		<path class="st0" d="M-162.6,193.1c0,0.8,0.6,0.9,1.1,1c0.7,0.2,2.5,0.5,2.5-1c0-1-1.2-1.5-1.8-1.5
			C-161.4,191.6-162.6,192.1-162.6,193.1C-162.6,193.1-162.6,193.1-162.6,193.1z"/>
	</g>
	<g>
		<path class="st0" d="M-158.7,205.7c0,0.8,0.6,0.9,1.1,1c0.7,0.2,2.5,0.5,2.5-1c0-1-1.2-1.5-1.8-1.5
			C-157.5,204.1-158.6,204.7-158.7,205.7C-158.6,205.7-158.7,205.7-158.7,205.7z"/>
	</g>
	<path class="st0" d="M-175,99.5c0,0,12.7-20.4,24.9-21c21.2-1.1,23.6,12.3,23.6,12.3s-30.1-18.6-44.1,9.9L-175,99.5z"/>
	<path class="st7" d="M-136.9,123.3l-8.7,14.6C-145.6,137.9-143.2,138.4-136.9,123.3z"/>
	<path d="M-152.8,122.1c0.3-0.1,0.6-0.3,0.9-0.6c1.1-1,2.3-2.6,1.5-4.2c-1.1-2.1-3.4,0-4,1.3C-155.1,120.2-154.4,122.7-152.8,122.1z
		"/>
	<path d="M-142.6,126c0.3-0.1,0.6-0.3,0.9-0.6c1.1-1,2.3-2.6,1.5-4.2c-1.1-2.1-3.4,0-4,1.3C-144.9,124-144.2,126.5-142.6,126z"/>
	<path class="st7" d="M-146.6,124.5c0.1,0.6,0.2,1.1,0.2,1.7c0,0.1,0,0.2,0,0.3c-0.1,0.1-0.2,0.2-0.3,0.2c-0.7,0.2-1.5,0.3-2.2,0.3
		c1.1-0.6,2-1.7,2.2-3"/>
	<path class="st6" d="M-150.2,129.6c-1.2-0.6-2.4-1.3-3.5-1.9c-0.2-0.1-0.4-0.2-0.6-0.2c-0.2,0-0.4,0.1-0.5,0.2
		c-0.3,0.2-0.5,0.4-0.7,0.6c-0.3,0.3-0.6,0.7-0.6,1.2c0.1,0.4,0.7,0.7,1,0.3c-0.2,0.2,0,0.5,0.2,0.6c0.2,0.1,0.5,0.1,0.7,0.1
		c0,0.1,0,0.2,0,0.4c0.6,0,1.3,0.2,1.8,0.6c-0.1,0.1,0,0.4,0.2,0.4c0.2,0.1,0.4,0.1,0.5,0.3c0.7,0.3,1.3,0.7,2,1
		c0.3,0.2,0.6,0.3,0.9,0.4c0.7,0.1,1.4-0.1,1.9-0.6C-145.2,131.1-149.3,130.1-150.2,129.6z"/>
	<path class="st7" d="M-160,145.8c0,0-14.8-12.3-11.5-9.8C-171.6,136-167.6,144-160,145.8z"/>
	<path class="st10" d="M-160.1,145.5c0,0-9.6-4.3-13.6-8.3C-173.6,137.3-168.9,144.8-160.1,145.5z"/>
	<path class="st11" d="M-136.9,123.3l-8.7,14.6C-145.6,137.9-140.2,131.6-136.9,123.3z"/>
	<path class="st8" d="M-209.3,168.4c0,0,4.6-2,9.2-1.4c4.5,0.7,8.4,3.1,8.4,3.1s1.1-34.2-4.7-34.5c-5.8-0.3-13.6,0.8-13.7,19.7
		S-209.3,168.4-209.3,168.4z"/>
	<path class="st7" d="M-209.6,169c0,0,3.9,12.8,9,18.3c5.1,5.5,13.9,14.9,14.9,15.8s0.2,6.1,2.7,6.9s5.7-1,5.7-1s4.1-0.2,5.1-1.2
		c1-1.1,0.7-2.5,0.7-2.5s3.7-1,2.6-1.9c-1.1-1-5.5-4.3-9.2-5.4c0,0-13.6-24.9-15.4-28.1S-210.1,164.4-209.6,169z"/>
</g>
<g>
	<path class="st0" d="M168,125.4c-0.9,5.3,2.2,10.2,6.8,10.9c4.6,0.7,9.7-3.5,10.6-8.8c0.9-5.3-2.2-10.2-6.8-10.9
		C174,115.8,168.8,120.1,168,125.4z"/>
	<path class="st1" d="M106.4,194.8c0,0-1.9,9.7-0.6,11.7c1.3,1.9,8.4,20.1,10.4,20.1c1.9,0,72.4-6.6,73.8-9.1
		c0.8-1.3,1.6-4.6,1.6-4.6s-12.6-25-14.2-25.1c-1.6-0.1-65.8,4.9-67.1,4.4C107.9,191.3,106.4,194.8,106.4,194.8z"/>
	<path class="st2" d="M106.7,195.1c0,0,10.4,25.9,11.7,25.9c1.3,0,72.5-6.9,73.2-8.2c0.6-1.3-11-24.9-12.9-25.5s-66.7,3.2-69.3,3.9
		C106.7,191.8,106.7,195.1,106.7,195.1z"/>
	<path class="st3" d="M173.2,192.1c0,0-1,3.6,0,4.1c1,0.5,2.4,0.5,2.9-0.5c0.5-0.9,0.5-4.1,0.5-4.1L173.2,192.1"/>
	<path class="st3" d="M176.5,197.3c0,0-1,3.6,0,4.1c1,0.5,2.4,0.5,2.9-0.5c0.5-0.9,0.5-4.1,0.5-4.1L176.5,197.3"/>
	<path class="st3" d="M179.7,201.8c0,0-1,3.6,0,4.1c1,0.5,2.4,0.5,2.9-0.5c0.5-0.9,0.5-4.1,0.5-4.1L179.7,201.8"/>
	<path class="st3" d="M182.9,207c0,0-1,3.6,0,4.1c1,0.5,2.4,0.5,2.9-0.5c0.5-0.9,0.7-3.6,0.7-3.6L182.9,207"/>
	<polygon class="st1" points="178.9,212.3 166.6,190.2 163.4,190.9 175.7,213.2 	"/>
	<path class="st0" d="M114.8,205.5c0,7.3,6.8,13.3,15.2,13.3c8.4,0,15.9-5.9,15.9-13.3s-7.5-13.9-15.9-13.9
		C121.6,191.5,114.8,198.1,114.8,205.5z"/>
	<path class="st4" d="M124.8,203.3c0,2.6,2.4,4.7,5.4,4.7s5.7-2.1,5.7-4.7c0-2.6-2.7-5-5.7-5S124.8,200.7,124.8,203.3z"/>
	<path class="st5" d="M157,199.9c0,0-1,3.6,0,4.1c1,0.5,2.4,0.5,2.9-0.5c0.5-0.9,0.5-4.1,0.5-4.1L157,199.9"/>
	<path class="st5" d="M159,205.7c0,0-1,3.6,0,4.1c1,0.5,2.4,0.5,2.9-0.5c0.5-0.9,0.5-4.1,0.5-4.1L159,205.7"/>
	<g>
		<path class="st6" d="M173.2,192.1c0,0.8,0.6,0.9,1.1,1c0.7,0.2,2.5,0.5,2.5-1c0-1-1.2-1.5-1.8-1.5
			C174.4,190.5,173.3,191.1,173.2,192.1C173.2,192.1,173.2,192.1,173.2,192.1z"/>
	</g>
	<g>
		<path class="st6" d="M176.5,197.3c0,0.8,0.6,0.9,1.1,1c0.7,0.2,2.5,0.5,2.5-1c0-1-1.2-1.5-1.8-1.5
			C177.7,195.7,176.6,196.3,176.5,197.3C176.5,197.2,176.5,197.3,176.5,197.3z"/>
	</g>
	<g>
		<path class="st6" d="M179.7,201.8c0,0.8,0.6,0.9,1.1,1c0.7,0.2,2.5,0.5,2.5-1c0-1-1.2-1.5-1.8-1.5
			C180.9,200.3,179.8,200.8,179.7,201.8C179.7,201.8,179.7,201.8,179.7,201.8z"/>
	</g>
	<g>
		<path class="st6" d="M182.9,207c0,0.8,0.6,0.9,1.1,1c0.7,0.2,2.5,0.5,2.5-1c0-1-1.2-1.5-1.8-1.5C184.1,205.4,183,206,182.9,207
			C183,207,183,207,182.9,207z"/>
	</g>
	<path class="st7" d="M170.3,180.3c0,0-0.4,2.8,3.4,7.4c3.9,4.5,9.2-0.4,10.5-5c1.3-4.5-3.4-46.2-2.7-50.7c0.6-4.5-0.6-10.4-1.9-9.7
		c-1.3,0.6-5.8,8.4-5.8,10.4s-3.2,6.5,0.6,6.5c0,0,0,27.9,0,30.4c0,0-4.1-2.6-6.3-2.6S170.3,180.3,170.3,180.3z"/>
	<path class="st7" d="M190.6,101c0,0-5.1,13.4-8.4,19.9c-3.2,6.5-11.7,20.1-14.2,22c-2.6,1.9-3.9,4.5-10.4,2.6c0,0,0,5.8,3.9,6.5
		c0,0-25.9,15.5-35.6-18.8c0,0,7.8-3.2,8.4-4.5c0.6-1.3,5.2-10.4,5.2-17.5s2.6-11,5.2-13.6c2.6-2.6,14.2-14.9,20.7-14.9
		c6.5,0,25.9,16.5,25.9,16.5L190.6,101z"/>
	<path class="st6" d="M151.2,79.6c0.8-0.4-4.6,5.1-6.5,8.3c-1.9,3.2-2.6,11.7-2.6,13c0,1.3,0.6,11,0.6,12.3c0,1.3,1.9,4.5,3.2,1.3
		c1.3-3.2,3.9-9.1,5.8-13.6c1.2-2.9,4.6-7.3,6.8-10.2c1.1-1.4,3.2-1.5,4.4-0.3c4.6,4.5,13.8,11.2,15.9,11.8c0.8,0.2,1.2,0.1,1.4-0.1
		c0.7-0.7,1.6-1.2,2.6-1c2.9,0.5,6.4,0.5,6.4,0.5l-1.3-1.3c0,0,0.1,0,0.1,0c2.1,0.8,4.4-1,4-3.3c-0.1-0.7-0.2-1.3-0.2-1.9
		c0-2.6-1.9-9.1-4.5-10.4c-2.6-1.3,0-4.5-6.5-7.8s-14.9-1.9-16.2-1.9s1.9-1.9,1.9-1.9c0.4-0.8-2.1,0.5-3.2,0.9
		c-5.6,1.9-9.5,6.3-12.6,5.3"/>
	<path class="st8" d="M161.4,152c0,0-17.5,5.2-25.9-3.2c-8.4-8.4-8.4-15.9-8.4-15.9s-18.5,3.3-18.1,11.4c0.3,8.4,14.2,3.2,14.2,3.2
		s-1.7,25.5-1.2,34c0.2,3.3-0.8,6.7-0.5,8.8l13.5-0.7c0.4,0,11.8-1.1,12.8-1.1l14.4-0.7c0,0,1.6-10.8,1.6-12.1
		S169.9,154.6,161.4,152z"/>
	<path class="st8" d="M161.4,152c0,0,6.6,0.5,13,17.5c0,0-5.2,12.3-3.2,14.2c0,0-5.8-6.9-7.1-8.9C162.8,173,161.4,152,161.4,152z"/>
	<path class="st0" d="M133,107.2c-0.9,5.3,2.2,10.2,6.8,10.9c4.6,0.7,9.7-3.5,10.6-8.8c0.9-5.3-2.2-10.2-6.8-10.9
		C139,97.7,133.9,101.9,133,107.2z"/>
	<path class="st9" d="M134.5,106.5c-0.6,3.9,1.6,7.5,5,8.1c3.4,0.5,7.2-2.6,7.8-6.5s-1.6-7.5-5-8.1
		C139,99.5,135.2,102.6,134.5,106.5z"/>
	<g>
		<path class="st0" d="M157,199.9c0,0.8,0.6,0.9,1.1,1c0.7,0.2,2.5,0.5,2.5-1c0-1-1.2-1.5-1.8-1.5
			C158.2,198.3,157.1,198.9,157,199.9C157,199.8,157,199.9,157,199.9z"/>
	</g>
	<path class="st5" d="M155,193.2c0,0-1,3.6,0,4.1c1,0.5,2.4,0.5,2.9-0.5c0.5-0.9,0.5-4.1,0.5-4.1L155,193.2"/>
	<g>
		<path class="st0" d="M155,193.1c0,0.8,0.6,0.9,1.1,1c0.7,0.2,2.5,0.5,2.5-1c0-1-1.2-1.5-1.8-1.5
			C156.2,191.6,155.1,192.1,155,193.1C155,193.1,155,193.1,155,193.1z"/>
	</g>
	<g>
		<path class="st0" d="M159,205.7c0,0.8,0.6,0.9,1.1,1c0.7,0.2,2.5,0.5,2.5-1c0-1-1.2-1.5-1.8-1.5
			C160.2,204.1,159.1,204.7,159,205.7C159,205.7,159,205.7,159,205.7z"/>
	</g>
	<path class="st0" d="M142.6,99.5c0,0,12.7-20.4,24.9-21c21.2-1.1,23.6,12.3,23.6,12.3s-30.1-18.6-44.1,9.9L142.6,99.5z"/>
	<path class="st7" d="M180.7,123.3l-8.7,14.6C172,137.9,174.5,138.4,180.7,123.3z"/>
	<path d="M164.9,122.1c0.3-0.1,0.6-0.3,0.9-0.6c1.1-1,2.3-2.6,1.5-4.2c-1.1-2.1-3.4,0-4,1.3C162.6,120.2,163.3,122.7,164.9,122.1z"
		/>
	<path d="M175.1,126c0.3-0.1,0.6-0.3,0.9-0.6c1.1-1,2.3-2.6,1.5-4.2c-1.1-2.1-3.4,0-4,1.3C172.8,124,173.5,126.5,175.1,126z"/>
	<path class="st7" d="M171,124.5c0.1,0.6,0.2,1.1,0.2,1.7c0,0.1,0,0.2,0,0.3c-0.1,0.1-0.2,0.2-0.3,0.2c-0.7,0.2-1.5,0.3-2.2,0.3
		c1.1-0.6,2-1.7,2.2-3"/>
	<path class="st6" d="M167.4,129.6c-1.2-0.6-2.4-1.3-3.5-1.9c-0.2-0.1-0.4-0.2-0.6-0.2c-0.2,0-0.4,0.1-0.5,0.2
		c-0.3,0.2-0.5,0.4-0.7,0.6c-0.3,0.3-0.6,0.7-0.6,1.2c0.1,0.4,0.7,0.7,1,0.3c-0.2,0.2,0,0.5,0.2,0.6s0.5,0.1,0.7,0.1
		c0,0.1,0,0.2,0,0.4c0.6,0,1.3,0.2,1.8,0.6c-0.1,0.1,0,0.4,0.2,0.4c0.2,0.1,0.4,0.1,0.5,0.3c0.7,0.3,1.3,0.7,2,1
		c0.3,0.2,0.6,0.3,0.9,0.4c0.7,0.1,1.4-0.1,1.9-0.6C172.4,131.1,168.3,130.1,167.4,129.6z"/>
	<path class="st7" d="M157.6,145.8c0,0-14.8-12.3-11.5-9.8C146.1,136,150.1,144,157.6,145.8z"/>
	<path class="st10" d="M157.6,145.5c0,0-9.6-4.3-13.6-8.3C144,137.3,148.7,144.8,157.6,145.5z"/>
	<path class="st11" d="M180.7,123.3l-8.7,14.6C172,137.9,177.5,131.6,180.7,123.3z"/>
	<path class="st8" d="M105.4,167.3c0,0,4.8-1.4,9.3-0.3c4.4,1.2,7.9,4.1,7.9,4.1s5.2-33.9-0.6-34.9s-13.6-0.8-15.9,17.9
		S105.4,167.3,105.4,167.3z"/>
	<path class="st7" d="M105.1,167.8c0,0,2.4,13.2,6.8,19.3c4.4,6.1,12,16.4,12.9,17.5c0.9,1.1-0.5,6.1,1.9,7.1c2.4,1,5.8-0.3,5.8-0.3
		s4.1,0.3,5.2-0.6c1.1-0.9,1-2.4,1-2.4s3.7-0.5,2.8-1.6c-0.9-1.1-4.9-4.9-8.5-6.5c0,0-10.5-26.4-11.9-29.8
		C119.7,167.2,105.1,163.2,105.1,167.8z"/>
</g>
</svg>
